<svg xmlns="http://www.w3.org/2000/svg" xml:space="preserve" viewBox="0 0 242.8 158.8"><path fill="#f3f2f1" d="M178.2 63.4c-.6-1.3-.7-2.8-1.1-4.2-.2-.8-.6-1.6-1.3-2l-1.5-.3c-1.8-.5-2.3-3-4-3.8-.6-.3-1.2-.3-1.7-.4-2.3-.3-4.7-1-6.1-2.8L161 48c-.6-.4-1.5-.6-2.1-.2l1.4 3c.5.8.9 1.7 1.6 2.3.8.7 1.8 1 2.7.6.3-.1.6-.4 1-.3.2 0 .4.2.5.4 1.3 1.3.8 3.6-.4 5-1.2 1.4-3 2.2-4.7 2.8-.6.3-1.3.5-2 .4-1.1-.2-1.8-1.5-2.1-2.7-.8-2.6-1.2-5.4-2.8-7.5-.5-.7-1.1-1.3-1.4-2.1-.3-1-.3-2-.8-2.7-.5-.8-1.7-1.3-1.7-2.2-.1-.7.5-1.3 1-1.6l2-.6c.3-.1.6-.3.6-.6 0-.4-.6-.6-.7-1-.2-.4.2-.8.4-1.2.4-1-.6-1.9-1.5-2.2-1-.4-2.1-.7-2.6-1.6l-.3-1.4c-.2-1.2-1-2.3-2.2-2.5-1.2-.2-2.5.9-2.3 2 0 .7.6 1.2.8 1.8.3.6.2 1.5-.4 1.7a2 2 0 0 1-1.4-.6c-.5-.3-1-.7-1.4-.4l1 3.6c-1.3.7-3-.5-3.5-2-.6-1.3-.6-2.9-1.2-4.2-.7-1.4-2.5-2.4-3.7-1.4 0 1.7 2.2 2.4 3.2 3.8.7 1 .6 2.6-.4 3.3-1.1.6-2.8-.5-2.4-1.7.2-.4.5-.7.5-1.2s-.4-1-.8-1.3a282.7 282.7 0 0 0-3.3-2.5c-1.3-.4-2.7.7-3.4 2-.7 1.1-1 2.5-2 3.5-1.4 1.4-4.1 1.5-5.4 0-1.3-1.5-.7-4.3 1.3-4.9.7-.2 1.6-.2 2-.8.7-1.2-1.2-2.6-.6-3.8.6-.9 1.9-.5 2.9-.8 1-.3 1.5-1.2 2-2 .7-1 1.6-1.8 2.6-1.6-.1-.5-.2-1.2 0-1.7.3-.6 1-.9 1.5-.6-.5.9.1 2 1 2.4.8.4 1.9.3 2.8.2 1-.1 2.1-.5 2.2-1.4v-1c.2-.5 1-.4 1.6-.2.7 0 1.3.2 1.7-.2.5-.5 0-1.3-.7-1.5-.6-.2-1.3 0-2 .1-.6 0-1.4-.3-1.4-1 0-.6.7-1 .8-1.7 0-1-1.7-1.4-2.4-.5-.6.9-.4 2-.2 3.2.2 1 .3 2.3-.5 3-.3.6-1.2.3-1.5-.3-.3-.5-.2-1.2-.3-1.8 0-.6-.3-1.3-.9-1.4-.4-.1-.9 0-1.3.1-1.7.2-2.8-2-2.3-3.6s2-2.6 3.5-3.4c1.1-.6 2.4-1.2 3.5-.6.5.3.9.8 1.4 1 .6.5 1.4.5 2.2.4h.6a6 6 0 0 1 4.2 1.7c.5.3.9 1 .5 1.5-.3.5-1.4.6-1.2 1.2 1.1.3 2.5-.5 2.6-1.7.6.2 1 .8 1 1.4 1.2-1.2 3.6-1 4.6.4.3.4.5.8.9 1 .3.3 1 .2 1-.3V19l-.7-2c.9-.4 2 .3 2.5 1.2 1.6 2 2.8 1.8 4.4 1.7.8-.1 1.7-.2 2.7 0 2.1.3 3 1.7 4.3 3.3 3.7 5.2 8.6 9.4 12 14.7l1 1.7-.1-.4a59.4 59.4 0 0 0-9-16l-.7-.7-.8-1-.8-.9-.3-.3a26.4 26.4 0 0 0-1-1c0-.1 0-.2-.2-.3l-.7-.8a39.9 39.9 0 0 0-2.4-2.3l-1-.8a42.3 42.3 0 0 0-2.2-2 53.3 53.3 0 0 0-4.6-3.2l-.9-.6-1-.6a24.5 24.5 0 0 0-2-1.2 39.6 39.6 0 0 0-4.8-2.4l-1.4-.5A47.2 47.2 0 0 0 139 2l-3.8-.9-1.5-.3h-.1l-.7-.1a52.3 52.3 0 0 0-3-.4l-.9-.1a56.7 56.7 0 0 0-17.5.8 60 60 0 0 0-5.2 1.2l-2 .7-1.6.5-1.7.6a67.2 67.2 0 0 0-4.8 2.2l-1.5.7h-.1a42.6 42.6 0 0 0-3 1.8l-1.3.8-.5.4a45 45 0 0 0-4.6 3.2 60.7 60.7 0 0 0-11.8 12.5h.5c.9-.1 1.8-.1 2.6-.5.7-.3 1.2-1 1.9-1.4 1.6-1.2 4.4-1.5 4.8-3.5.2-.6 0-1.4.3-2 .4-1.2 2-1.4 3.3-1.4.6 0 1.2.1 1.5.6.2.3 0 .7 0 1.1a11 11 0 0 1-4.5 5.4c-1.7 1-3.9 1.8-4.3 3.8.2.6 1.4.6 1.5 1.2 0 .6-.7.9-1 1.3-.3.7.6 1.6 1.4 1.6.8 0 1.4-.7 2-1.2 1.8-1.6 3.6-3.4 4.2-5.7.3-1 .4-2 1.2-2.7.9-.8 2.5-.2 2.8 1 .8-.5 2-.8 2.4 0 .1.2 0 .6.2.9.2 1.2 1.9 1.8 2 3 .3 1.4-1.6 2.2-3 2.4l-4 .6c-.5.1-1 .2-1.5.5-.5.4-.8 1-.5 1.6l.7.6c1 1.1.2 3.4-1.4 3.4L85 36c-1.6 0-2.8 1.3-3.5 2.7-.8 1.3-1.3 2.9-2.5 3.8-2 1.5-5.4 1.1-6.4 3.4-.4 1-.2 2 0 3 .1 1 .2 2-.4 2.9-.6.8-2 1-2.5 0-.2-.3-.1-.8 0-1.2l.6-4.3c.2-1 .4-2.2-.3-3.1-.9-1.2-2.8-1.1-4-.1-1 1-1.6 2.5-1.9 4-.2 1-.5 2.5-1 3.8a56.3 56.3 0 0 0-.8 7.4l.5-.5c.6-.6 1.8-3.3 2.9-2 .3.4.3.9 0 1.2-.3.5-1 .6-1.3 1-.3.6.2 1.3.7 1.7.5.3 1.1.6 1.5 1.1.7 1 0 2.5.7 3.6.6.9 1.9 1 3 1h.3c.3-2 1.3-3.8 4.2-4.4 4-1 9.2 2.4 11.5 5.4 2.5 3.4 3.7 8.1 7.5 9.8 2.7 1.2 6.7.8 8 3.5 1.2 2.4-.9 5-1.2 7.8-.2 1.7.4 3.5.5 5.2.1 1.8-.4 3.9-2 4.6-.9.4-2 .4-2.8 1-1.2 1.3-.2 3.8-1.5 5-.4.4-1 .6-1.6.9-2.9 1.4-2.8 5.7-1.5 8.6l.2.3a60 60 0 0 0 31.2 8.6A61 61 0 0 0 184 65c-.6.7-1.5 1.1-2.4 1.1-1.5 0-2.7-1.2-3.3-2.6"/><path fill="#e7e8e5" d="M108.6 16c-1.2.7-1.9 2-2.8 3-1 1.1-2.6 1.9-3.7 1-.5-.4-.8-1.1-.8-1.8-.1-1 .1-2 .6-2.8.6-.8 1.4-1.5 1.8-2.4.4-.9.4-2.2-.6-2.6-.4-.3-1-.2-1.5-.5-.8-.6-.2-2 .7-2.3.9-.3 2 0 2.9 0 3.5.2 6.1-2.1 8.8-4 2-1.5 6.4-3.3 8.8-1.8 1 .7 1.3 2.2.4 3-.4.2-1 .3-1.3.6-.4.4-.5 1.1-.8 1.7-.6 1.4-2.6 2-3.2 3.4-.3.8-.2 2-.8 2.7-.4.6-1.2.8-2 1l-4.5 1a7 7 0 0 0-2 .7m41.2 75c-1.6 2.3-1.9 5.2-2.3 8-.4 2.7-1.1 5.6-3.2 7.4-2.1 1.8-6 1.7-7.1-.8-.7-1.4-.3-3-.7-4.5-.4-1.9-2-3.3-2.7-5.2-.6-1.5-.6-3.2-.6-4.9a38.5 38.5 0 0 0-8.7-25.3 6 6 0 0 0-2.7-1.9c-1.3-.3-2.8.2-3.6 1.3-.5.6-.7 1.5-1.3 2-1.4 1.2-3.7.3-4.6-1.2-.9-1.6-.7-3.5-.6-5.3l.6-6.6c0-1.2.2-2.4 1-3.3 1-1.3 3-1.3 4.3-2.3 1.7-1.3 2-3.8 3-5.7 1.2-1.8 4.6-2.6 5-.5 3.7-7.8 11.7 3.8 16.5 2.9 1.4-.3 2.7-1 4.1-.7 2.5.3 3.7 3 4.6 5.4l4.1 11.6c.6 1.5 1.3 3.1 2.7 3.7 1.1.4 2.4 0 3.6.5 3 1 2 5.8-.4 7.9-2.4 2-5.8 3.4-7 6.3-.8 2.3-.1 4.9-1 7-.7 1.7-2.1 2.8-3 4.2m11.3 2.6c-1 .1-2.1-.4-2.9.3-.4.4-.5 1-.7 1.5-.2.8-.7 1.5-1.4 2-.7.3-1.6.4-2.3-.1-.6-.5-.8-1.5-.3-2.1l.9-.7c1.3-1.3.4-3.5 1.4-5l2.1-2.6c.5-.7.7-1.2 1.6-1.4 4-.8 5.8 7.5 1.6 8"/><path fill="#6b7a7f" d="M62.2 59.8v-1.4 1.4"/><path fill="#e7e8e5" d="M70.2 77c-.2-1.8.4-3.6.4-5.3l-.1-3.7c-1 0-2-.2-3.1-.5l-.6-.3v-.6c-.2-1.4-1.5-2.3-2.7-3-.6-.3-1.2-.7-1.9-.9v.4a60.7 60.7 0 0 0 23.6 46c-3.3-9-6.5-18-12.1-25.7-1.5-2-3.3-4-3.5-6.5"/><path fill="#e7e8e5" d="M70.6 65.6h-.4c-1-.2-2.3-.2-2.9-1.1-.7-1 0-2.6-.7-3.6-.4-.5-1-.8-1.5-1.1-.5-.4-1-1.1-.7-1.7.3-.4 1-.5 1.3-1a1 1 0 0 0 0-1.2c-1.1-1.3-2.3 1.4-3 2l-.4.5v4.3c.6.2 1.2.6 1.8 1 1.2.6 2.5 1.5 2.6 2.9l.1.6.6.3c1 .3 2 .4 3.1.5"/><path fill="#e7e8e5" d="M70.5 68v3.7c0 1.7-.5 3.5-.3 5.2.2 2.5 2 4.5 3.5 6.5 5.6 7.6 8.8 16.7 12.1 25.6a43.6 43.6 0 0 0 6 4.2v-.3c-1.4-3-1.5-7.2 1.4-8.6.6-.3 1.2-.5 1.6-.9 1.3-1.2.3-3.7 1.5-5 .8-.6 1.9-.6 2.8-1 1.6-.7 2.1-2.8 2-4.6-.1-1.7-.7-3.5-.5-5.2.3-2.7 2.4-5.4 1.2-7.8-1.3-2.7-5.3-2.3-8-3.5-3.8-1.7-5-6.4-7.5-9.8-2.3-3-7.5-6.3-11.5-5.4-3 .6-3.9 2.4-4.2 4.5l-.1 2.4M66 43.2c1.2-1 3.1-1.1 4 .1.7.9.5 2 .3 3.1l-.6 4.3c-.1.4-.2.9 0 1.3.4.9 2 .7 2.5-.1.6-.8.5-2 .4-2.9-.2-1-.4-2 0-3 1-2.3 4.4-2 6.4-3.4 1.2-1 1.7-2.5 2.5-3.8.7-1.4 2-2.8 3.5-2.7l1.5.2c1.6 0 2.4-2.3 1.4-3.4l-.7-.6c-.3-.6 0-1.2.5-1.6a553.7 553.7 0 0 1 5.5-1.1c1.4-.2 3.3-1 3-2.4-.1-1.2-1.8-1.8-2-3-.1-.3 0-.7-.2-1-.4-.7-1.6-.4-2.4 0-.3-1.1-1.9-1.7-2.8-1-.8.7-.9 1.8-1.2 2.8-.6 2.3-2.4 4-4.2 5.7-.6.5-1.2 1.1-2 1.2-.8 0-1.7-.9-1.3-1.6.2-.4 1-.7.9-1.3-.1-.6-1.3-.6-1.5-1.2.4-2 2.6-2.7 4.3-3.8 2-1.2 3.6-3.1 4.4-5.4.2-.4.3-.8 0-1.1-.2-.5-.8-.6-1.4-.6-1.3 0-2.9.2-3.3 1.4-.3.6-.1 1.4-.3 2-.4 2-3.2 2.3-4.8 3.5-.7.4-1.2 1-2 1.4-.7.4-1.6.4-2.5.4h-.5A54.3 54.3 0 0 0 65.2 42a58.4 58.4 0 0 0-2.2 9c.6-1.3.9-2.8 1.1-3.9.3-1.4.8-3 2-4M183.8 65s-1.5 1.1-2.4 1.1c-1.5 0-2.7-1.2-3.3-2.6-.6-1.3-.7-2.8-1.1-4.2-.2-.8-.6-1.6-1.3-2l-1.5-.3c-1.8-.5-2.3-3-4-3.8-.6-.3-1.2-.3-1.7-.4-2.3-.3-4.7-1-6.1-2.8l-1.4-2c-.6-.4-1.5-.6-2.1-.2l1.4 3c.5.8.9 1.7 1.6 2.3.8.7 1.8 1 2.7.6.3-.1.6-.4 1-.3.2 0 .4.2.5.4 1.3 1.3.8 3.6-.4 5-1.2 1.4-3 2.2-4.7 2.8-.6.3-1.3.5-2 .4-1.1-.2-1.8-1.5-2.1-2.7-.8-2.6-1.2-5.4-2.8-7.5-.5-.7-1.1-1.3-1.4-2.1-.3-1-.3-2-.8-2.7-.5-.8-1.7-1.3-1.7-2.2-.1-.7.5-1.3 1-1.6l2-.6c.3-.1.6-.3.6-.6 0-.4-.6-.6-.7-1-.2-.4.2-.8.4-1.2.4-1-.6-1.9-1.5-2.2-1-.4-2.1-.7-2.6-1.6l-.3-1.4c-.2-1.2-1-2.3-2.2-2.5-1.2-.2-2.5.9-2.3 2 0 .7.6 1.2.8 1.8.3.6.2 1.5-.4 1.7-1 .3-2-1.6-2.8-1l1 3.6c-1.3.7-3-.5-3.5-2-.6-1.3-.6-2.9-1.2-4.2-.7-1.4-2.5-2.4-3.7-1.4 0 1.7 2.2 2.4 3.2 3.8.7 1 .6 2.6-.4 3.3-1.1.6-2.8-.5-2.4-1.7.2-.4.5-.7.5-1.2s-.4-1-.8-1.3a282.7 282.7 0 0 0-3.3-2.5c-1.3-.4-2.7.7-3.4 2-.7 1.1-1 2.5-2 3.5-1.4 1.4-4.1 1.5-5.4 0-1.3-1.5-.7-4.3 1.3-4.9.7-.2 1.6-.2 2-.8.7-1.2-1.2-2.6-.6-3.8.6-.9 1.9-.5 2.9-.8 1-.3 1.5-1.2 2-2 .7-1 1.6-1.8 2.6-1.6-.1-.5-.2-1.2 0-1.7.3-.6 1-.9 1.5-.6-.5.9.1 2 1 2.4.8.4 1.9.3 2.8.2 1-.1 2.1-.5 2.2-1.4v-1c.4-1 2.5.5 3.3-.4.5-.5 0-1.3-.7-1.5-.6-.2-1.3 0-2 .1-.6 0-1.4-.3-1.4-1 0-.6.7-1 .8-1.7 0-1-1.7-1.4-2.4-.5-.6.9-.4 2-.2 3.2.2 1 .3 2.3-.5 3-.3.6-1.2.3-1.5-.3-.3-.5-.2-1.2-.3-1.8 0-.6-.3-1.3-.9-1.4-.4-.1-.9 0-1.3.1-1.7.2-2.8-2-2.3-3.6s2-2.6 3.5-3.4c1.1-.6 2.4-1.2 3.5-.6.5.3.9.8 1.4 1 .8.6 1.9.4 2.8.4a6 6 0 0 1 4.2 1.7c.5.3.9 1 .5 1.5-.3.5-1.4.6-1.2 1.2 1.1.3 2.5-.5 2.6-1.7.6.2 1 .8 1 1.4 1.2-1.2 3.6-1 4.6.4.3.4.5.8.9 1 .3.3 1 .2 1-.3V19l-.7-2c.9-.4 2 .3 2.5 1.2 2.3 3 4 1.2 7 1.7 2.2.3 3.2 1.7 4.4 3.3 3.7 5.2 8.6 9.4 12 14.7l1 1.7a59 59 0 0 1 1.6 4.7l1.4 6a250.1 250.1 0 0 0 .8 9.8v4.8"/><path fill="#f3f2f1" d="M34.5 50.3c.2-1.7-2.2-3.1-4-3.3-.9 0-1.8 0-2.6-.2-1.7-.6-2.4-3-4.2-3.6-1.3-.6-2.7 0-4 .5-1.2.7-2.5 1.5-3.9 1.5-1.2.1-2.5-.3-3.6.3-.8.4-1.2 1.3-2 1.9-.6.5-1.6.6-2.5.7a6 6 0 0 0-2.6.4c-.8.3-1.4 1.2-1.3 2l30.7-.2"/><path fill="#e7e8e5" d="M70.6 16c.2-1.6-2.2-3-4-3.2-.9 0-1.8.1-2.6-.2-1.7-.6-2.4-2.9-4.2-3.6-1.3-.6-2.7 0-4 .6-1.3.6-2.5 1.4-3.9 1.5-1.2 0-2.5-.4-3.6.2-.8.4-1.2 1.3-2 1.9-.6.5-1.6.6-2.5.7-.8 0-1.8 0-2.6.4s-1.4 1.2-1.3 2l30.7-.2"/><path fill="#f3f2f1" d="M240.7 42.4c.4-2.7-3.5-5-6.4-5.2-1.4-.1-2.8 0-4.1-.4-2.9-1-4-4.6-6.8-5.8-2-.9-4.4 0-6.4 1s-4 2.2-6.3 2.3c-2 .2-4-.6-5.8.4-1.2.7-1.9 2.2-3 3-1.2.9-2.7 1-4.2 1.2-1.4 0-2.9 0-4.1.6-1.3.6-2.4 2-2.2 3.4l49.3-.5"/><path fill="#e7e8e5" d="M204.2 16a5 5 0 0 0-.8-2.7 4.5 4.5 0 0 0-2-1.8c-1-.3-2-.3-3 .1-.5.3-1 .7-1.3 1.1a3.6 3.6 0 0 0-3.5-2.3c-1 0-1.9.5-2.6 1-.7.7-1.3 1.5-1.6 2.4-.3 1.1-.3 2.4.2 3.5a8 8 0 0 0 2.3 3l3.7 3.1 4.2-2a8 8 0 0 0 3.2-2c.7-1 1.2-2.2 1.2-3.4M44.8 29.4c-.4-.6-1-1-1.7-1.3-.6-.3-1.4-.4-2-.3-.8.2-1.4.7-1.8 1.4-.3.3-.4.8-.4 1.2a2.8 2.8 0 0 0-3.3.1c-.5.5-1 1.1-1.1 1.8a3 3 0 0 0 0 2.1c.3.9.9 1.7 1.6 2.2.8.6 1.8.8 2.8 1l3.7.2s.9-1.7 1.8-3c.5-.8 1-1.7 1-2.7.1-1-.1-1.9-.6-2.7"/><path fill="#fff" d="M129.3 36.4a12 12 0 1 0-3.6.1l2.1 3.2 1.5-3.3"/><path fill="#17282f" d="M129.3 36.4v.2l-.3.7-1.2 2.4-2.1-3.1a12 12 0 0 1-7.1-3.4l-1.2-1.4c-.8-1-1.5-2.3-1.9-3.6a12.3 12.3 0 0 1 7.6-15.1 12.5 12.5 0 0 1 8-.1c1.2.4 2.3 1 3.3 1.8 1 .7 2 1.6 2.6 2.6l.3.4.2.4.4.7.7 1.6.5 1.6v.8l.1.4v.4a12.7 12.7 0 0 1-1 5.8 12.6 12.6 0 0 1-5.9 6 11.6 11.6 0 0 1-2.2.7 12.5 12.5 0 0 0 5.2-2.8 12.5 12.5 0 0 0 3.6-6.6c.1-1 .3-2 .2-3v-.4l-.1-.4-.1-.8-.5-1.6-.7-1.6-.4-.7-.2-.4-.3-.4a11.6 11.6 0 0 0-5.9-4.3 12.2 12.2 0 0 0-7.7 0 12 12 0 0 0-5.7 18.4l1.2 1.5a12 12 0 0 0 7 3.4l2.1 3.1 1.1-2.4a1847.3 1847.3 0 0 1 .4-.8"/><path fill="#f2575d" d="M132 23.2a3 3 0 0 0-.8-1.6c-.4-.5-.9-.8-1.4-1a2.3 2.3 0 0 0-2.6 1.1 2.3 2.3 0 0 0-2.5-1.2 3 3 0 0 0-1.5.9 3 3 0 0 0-.8 1.5c-.1.8 0 1.6.3 2.3.4.7 1 1.3 1.7 1.7l2.6 1.7 2.5-1.6a7 7 0 0 0 1.9-1.5c.4-.7.6-1.5.5-2.3"/><path fill="#17282f" d="m70.2 158.5 2-14.5 42.2-2 3 16.6H70.1"/><path fill="#d76258" d="m109.7 98.2 12.7 14c2 2.4 3.6 4.5 6.6 5.3 2 .6 6.5.9 7.6-.5 1.6-2 2.5-5.2.4-9.3A135 135 0 0 0 123.3 94l-13.6 4.2"/><path fill="#f2575d" d="M113.9 100.5c0 .7 3.4 7.6 3.4 7.6l10.8-7s-7-16.7-12-17.8l-2.2 17.2"/><path fill="#d76258" d="m132.5 81.2.2-5.3-.4-6.7-1-5.6s-.3-.6-1-.2c-.8.5-.1 3.5-.1 3.5v2.3s-.3 1.8-.5 1.6l-.6-3.2-1.2-6.7s-.3-.7-1.2-.4c-.4.1-.7.8-.7 1.8l.6 3.2.4 3.8-2.3-7.5s-.4-2.4-1.4-2c-1 .3-.3 2-.3 2.8 0 .7 1.5 5.8 1.4 7.2-.1 1.4-.3.7-.3.7l-1-4.1c-.5-1.9-1.2-3-2-3-.8-.2.2 4 .2 4l1.4 6-.3 1.9-1.4-1.7s0-2.2-1.4-3.2-1.8.1-1.8.1l2.6 8.7c.7 1.4 4.6 4.1 4.6 4.1l.8 8.7 8.8-.2-2-10.6"/><path fill="#843531" d="m129.4 78-1.2-1c-.7-.5-1.8-1.3-3.2-1.3-.6 0-1.2.3-1.6.6l-.2.1-.1-.1-1.5-1.9-.6-.8.7.6 1.7 1.9h-.3c.5-.5 1.2-.7 1.9-.8a4 4 0 0 1 2 .5c.6.3 1 .7 1.4 1a4 4 0 0 1 1 1.3"/><path fill="#d76258" d="m127.1 111.4-1.9-27 7.5-2.4 5.5 29.4H127"/><path fill="#17282f" d="M110.9 49.7a3 3 0 0 0 3.4-2.1c.4-1.5-.4-3.1-1.8-3.7a3 3 0 0 0 .7-3.6c-.5-1.2-1.9-2-3.2-1.9 0-1.3-.6-2.5-1.7-3.2a3.9 3.9 0 0 0-3.8-.2 4.2 4.2 0 0 0-5.2-.4c-1.2-.3-2.6.3-3.3 1.4a3 3 0 0 0 .4 3.6"/><path fill="#d76258" d="M111.2 66.6c.3-3.3.2-10.2 0-16.4a12.9 12.9 0 0 0-12-12.6h-.7c-7.2 0-11.2 6-11 13.3l-1.1 27.7 4.3 4a8.2 8.2 0 0 0 12.7-2.3l.4-6.1s7-.7 7.4-7.6"/><path fill="#843531" d="M103.8 74.2s-4.4 0-8.8-3.2c0 0 1.8 5.1 8.7 4.9l.1-1.7"/><path fill="#17282f" d="M108.2 56c0 .5-.4 1-1 1a1 1 0 0 1-1-1c0-.5.5-1 1-1 .6 0 1 .5 1 1m1.4-2.5c-.1 0-.9-.5-2-.6-1 0-1.8.5-1.9.3 0 0 .1-.3.4-.5a2.7 2.7 0 0 1 3.1.2c.4.3.5.5.4.6M98.5 56c0 .5-.5 1-1 1a1 1 0 0 1-1-1c0-.5.5-1 1-1 .6 0 1 .5 1 1m.7-3c-.2.2-.9-.4-2-.5-1 0-1.8.4-2 .3l.5-.5a2.7 2.7 0 0 1 3.1.2l.4.6m3.3 8 1.8-.2c.3 0 .5 0 .6-.2 0-.2 0-.5-.2-.8l-.6-2.1a33 33 0 0 1-1.5-5.5c.1 0 1 2.3 1.9 5.3l.6 2.2c.1.3.3.6.1 1 0 .2-.3.4-.4.4h-.5a7 7 0 0 1-1.8 0m-3.1.5c.2 0 0 1.1 1 2 1 .9 2.2.8 2.2 1 0 0-.3.2-.8.2s-1.3-.2-1.8-.8c-.6-.5-.8-1.2-.8-1.7 0-.4.1-.7.2-.7m.3-12.8c-.1.3-1.2.1-2.4.2-1.3 0-2.3.3-2.5 0l.6-.6a4 4 0 0 1 1.8-.5 4 4 0 0 1 1.9.3c.4.2.6.5.6.6m9.7 1.5c-.2.2-1 0-1.8-.1-.9-.1-1.6 0-1.8-.2 0-.2 0-.4.4-.6.3-.2.9-.4 1.5-.3.6 0 1.1.3 1.4.5.3.3.4.6.3.7"/><path fill="#17282f" d="M110.8 47s-1.6-4.4-3.6-5.6c-2.4-1.3-3.7 1.4-6 .5-2.4-.8-4.8-2-7.3-.4-2.8 2-1.7 3.4-2 6.5-1.4 12.3-3.9 15.7-4.2 9.8 0-.6-1.8-1.2-1.9-4 0-3.5 0-7.8 1-10.2.7-2 2-3.4 4.3-5 3.5-2.2 8.1-2 11.3-1.5 3.1.5 9 4.5 8.4 9.9"/><path fill="#d76258" d="M88.2 57.7a2 2 0 0 0-2-2c-1.2 0-2.7.7-2.8 3.4-.1 4.7 4.7 3.9 4.7 3.7v-5.1"/><path fill="#843531" d="m87 61-.1.1h-.6c-.5-.2-1-1-1-1.8l.3-1.2c.2-.3.4-.6.7-.6l.4.2v.3c.1 0 .2-.1.2-.3l-.2-.3a.6.6 0 0 0-.5-.1c-.3 0-.7.3-.8.7-.2.3-.4.8-.4 1.3 0 1 .5 1.8 1.2 2 .3.2.6 0 .7 0l.2-.3"/><path fill="#17282f" d="M88.8 48.5c.6.5 1.2 1 2 1 .7.2 1.6-.2 1.7-1 0-.2 0-.6.3-.9.2-.3.7-.1 1.1 0a3 3 0 0 0 3.3-2c.3.5 1 .5 1.6.2.6-.3 1-.8 1.4-1.3.4-.4 1-.8 1.7-.7.3 0 .6.3 1 .3.6 0 1-.7 1-1.3.2-.6.3-1.4.9-1.7.5-.2 1 0 1.7 0 .5.2 1.3.1 1.4-.4.1-.3 0-.6-.1-.9a3 3 0 0 0-3.6-1.4 4.3 4.3 0 0 0-3.3-3.1c-1.6-.3-3.3.5-4.2 1.9-1-1-2.4-1.4-3.7-1.2a4.3 4.3 0 0 0-3.1 2.3 3 3 0 0 0-3.3 1c-.7.8-1 2.2-.4 3.2-.9.5-1.7 1.3-1.7 2.2-.1 1 .8 2 1.7 1.9-.4.7-.1 1.7.6 2.2.7.5 1.8.3 2.3-.4"/><path fill="#33535f" d="M104.5 39.8v.4l-.4.9c-.3.3-.6.7-1.1 1-.6.3-1.2.5-2 .5v-.1c.2.4.1.8 0 1.2l-1 1.2-.5.5-.8.2c-.5 0-1.1-.2-1.5-.6h.2c-.2.9-.8 1.8-1.6 2.3-.5.3-1 .5-1.6.4-.6 0-1-.2-1.5-.4h.1c-.3.5-.7 1-1.2 1.3a2 2 0 0 1-1.7.4 2.6 2.6 0 0 1-1.8-2.2c-.5.3-1.1.3-1.6.2-.5-.1-.8-.3-1-.6l-.6-.6v-.2s0 .4.6.8l1 .5c.5.1 1 .1 1.6-.2l.1.1c.1.8.8 1.7 1.8 2 .5.1 1 0 1.5-.3a3 3 0 0 0 1.1-1.4h.2c.4.2.9.4 1.4.4.5 0 1-.1 1.5-.4.8-.5 1.3-1.3 1.5-2.2v-.2l.2.2c.3.4.8.5 1.3.5.2 0 .5 0 .7-.2l.5-.5.9-1c.2-.4.2-.8.1-1.2v-.1h.1a3 3 0 0 0 1.9-.4c.5-.3.9-.7 1.1-1 .5-.7.5-1.2.5-1.2"/><path fill="#f2575d" d="m114.7 107.4.5-5 1.7-18.4c-.9-1-4.4-2.4-4.4-2.4l-9-3.2s-.8 2.4-7.5 2.5c-6.8.1-9.6-4.2-9.6-4.2-3.5 1.1-11 4-11 4l-2.5 24v7.8l-1.7 40.3 45.5-2-1.8-14.5-.2-28.9"/><path fill="#cc4341" d="m107 109.2-5.2-4.2v-9.4l10.8.3-.3 9.2-5.3 4.1"/><path fill="#a7a9a8" d="M72 132v-.5.5"/><path fill="#cc4341" d="M72 132v-.5l.2-2.8h1.4c6.4 0 15.5-2 22.6-4l7.6.7c-7.5 2.2-31.7 6.6-31.8 6.6m37.2-8.8.2-4 5.4-1.4-.1 2.6s-2 1.2-5.5 2.8"/><path fill="#d76258" d="M74.1 82.7s-6.3 1-7.7 9.1c-.8 5.3-3.4 28.4.1 34.6 4.1 7.2 40.7-4.9 40.7-4.9l1.3-9.3-28.2 2-3.6-19.7-2.6-11.8"/><path fill="#f2575d" d="M64 110h17.8l-4.9-29.8s-10.3 2-11.6 12.8C64 103.8 64 110 64 110"/><path fill="#17282f" d="M66.2 110h15.6l-.2-.7-1-11.6-.2-3.5V93v1.3c.2.8.3 2 .4 3.4l1 11.6v.7l.1.1H66.2M116 91.8v.6a49.4 49.4 0 0 1-.4 7.1 207.4 207.4 0 0 1-.7 5.4l.5-5.4.5-5.5v-1.6l.1-.6m-34-3.3-.1-.3-.5-1c-.4-.7-1-1.8-2-2.8-.8-1-2-1.6-2.8-1.9-.8-.3-1.4-.2-1.4-.3h.4c.3 0 .6 0 1 .2 1 .2 2 .9 3 1.9a12.8 12.8 0 0 1 2.5 4.2"/><path fill="#cc4341" d="m82.7 109.3-1-.7-.9-10.9-.1-1.3 2 13"/><path fill="#0f191d" d="M81.8 108.6h-.1l-1.1-13v.8l.2 1.3 1 11"/><path fill="#fab9a5" d="m126.6 112.7-.5 7.6-2.6 3.2-6.2 8.2 7.5.5s8.8-2.2 10.1-4.9c1.3-2.7 1.4-14.6 1.4-14.6h-9.7m37-25.4.5-29.6c.3-7-3.2-13.1-10.3-13.2h-.6c-6.6.3-11.8 5.6-12 12.2a183 183 0 0 0-.2 16.1c.4 6.8 7.2 7.5 7.2 7.5v7.3l15.5-.3"/><path fill="#f6835b" d="M148.2 80.3s4.3 0 8.7-3c0 0-2 5-8.7 4.7v-1.7"/><path fill="#17282f" d="M152.2 60.1c.1 0 .8-.4 2-.7l2-.2s-.1-.2-.5-.2a4.8 4.8 0 0 0-3.2.7l-.3.4m1 2.1c0 .5.5 1 1 1s1-.5 1-1a1 1 0 0 0-1-.8c-.5 0-1 .3-1 .8m-3.8 5.3-1.7-.2c-.3 0-.5 0-.6-.2 0-.2 0-.5.2-.8l.7-2c1-3 1.6-5.4 1.5-5.5-.2 0-1 2.3-2 5.3l-.6 2c-.1.4-.3.7-.1 1 0 .3.3.4.4.5h2.2m3.6-12.1c.1.3 1 0 2.1.2 1.1 0 2 .3 2.1 0 0 0 0-.3-.5-.5l-1.5-.5a4 4 0 0 0-1.7.3l-.5.5m-10.8 1.8c.1.2 1 0 2.1 0 1 0 2 .2 2 0 .1-.1 0-.3-.4-.5s-1-.3-1.6-.3c-.6 0-1.2.2-1.6.3l-.5.5"/><path fill="#fab9a5" d="M163.8 62.8c.1 0 4.8-1.5 4.8 3.3 0 5-5 3.9-5 3.7l.2-7"/><path fill="#f6835b" d="m165.2 68 .2.1h.6c.5-.1 1-1 1-1.8 0-.5 0-.9-.2-1.2-.2-.4-.4-.7-.6-.7-.3 0-.5 0-.6.2v.3-.3l.1-.3c.1-.1.3-.2.5-.1.4 0 .7.3.9.7.2.4.3.9.2 1.4 0 1-.5 1.9-1.2 2a1 1 0 0 1-.8 0l-.1-.3"/><path fill="#17282f" d="M142.3 59.6c.1.1 1 0 2 .4 1.1.4 1.8 1 2 1 0-.1 0-.3-.4-.5a5 5 0 0 0-3.1-1l-.5.1m1.3 2.5c0 .5.4.9 1 .9.5 0 .9-.4.8-.9a1 1 0 0 0-.9-.9c-.5 0-.9.4-.9 1"/><path fill="#17282f" d="M132.2 50.4c0-.3.3-.5.5-.6.5-.3 1.1-.3 1.7-.3a9 9 0 0 0 4.3-1c-.5-.2-.9-.4-1.2-.8-.8-.8-1.2-2-.8-3 0-.1.2-.3.4-.3.3-.1.5.2.7.4.7.8 1.3 1.1 2.3 1a4 4 0 0 0 1.8-.4l.8-.8c1.8-1.6 3.3-2.8 4.8-3.4a16 16 0 0 1 8.4-.4c2.4.7 4.4 2.6 4.7 5 1.3-1 3.3-1 4.9-.3 1.8.7 2.8 2.6 3.2 4.4l.1.3a7 7 0 0 0 2.4 2.4c.1.1.3.2.3.4s-.1.4-.3.5c-.4.3-1 .5-1.4.6l.5 1.2c.2.4.4.8.3 1.1a1 1 0 0 1-.8.4c-.3 0-.6-.3-.9-.4l.6 1.4c-.7.1-1.3 0-2-.2-.4 1.7-.8 3.9-1.3 5-.8 0-1.5-.2-2 .2-.6.6-.9 1.6-2 1.2-.4-.2-.9-1.3-1-1.9a28.2 28.2 0 0 1-1-11.2 8.5 8.5 0 0 0-2.5-2l.1.2c-1.9-.7-4-1.4-5.8-.6-1.4.7-2.2 2-3.3 3.2a10 10 0 0 1-7.4 3.3c-.3 2-.1 4.6-.3 6.5l-1.7-3.1-.3-.7-.5-1.2c-1.1 1-2.6-.5-1.7-1.6l.5-.5c-.4.4-1.1.6-1.8.4-.6-.2-1-.9-1-1.5 0-.4.4-.8.8-1-.8 0-1.7-.1-2.4-.6-.5-.3-1-.7-.7-1.3"/><path fill="#33535f" d="m158.4 46.5.7.7c.4.4.8 1.2 1 2.2l.1 1.8-.1 2c-.1.6-.2 1.4-.1 2.2v1.1c.1.4.2.8.5 1.2.2.2.6.4 1 .3.3 0 .6-.2.8-.4.5-.5.6-1.2.7-1.7h-.1c.2.5.4 1 .8 1.4.3.4.8.7 1.3.8.2 0 .5 0 .7-.2.2 0 .3-.2.4-.4.2-.2.2-.4.2-.6 0-.2 0-.4-.2-.5a4.4 4.4 0 0 0 2 1.4h-.2l-.4-.3c-.4-.2-1-.5-1.4-1.1.2.3.2.7 0 1a1 1 0 0 1-.5.4c-.2.1-.4.2-.6.1-.5 0-1-.3-1.2-.7l-.8-1.4v-.2l-.1.2a3 3 0 0 1-.7 1.6c-.2.3-.5.4-.8.5-.3 0-.6 0-.8-.3l-.4-1.1v-3.3l.1-2-.1-1.8c-.2-1-.7-1.8-1-2.3l-.8-.6m-21 6v.1l.2.1.3.2.4.3a6 6 0 0 0 2.9.6c1.2 0 2.7-.5 4-1.4a13 13 0 0 0 3.7-4l1.4-2.4a9 9 0 0 1 1.5-2c.6-.5 1.3-1 2-1.1a3.3 3.3 0 0 1 2 0 3.9 3.9 0 0 1 2.1 2c.3.6.3 1 .3 1v-.3a3.4 3.4 0 0 0-1-1.8 4 4 0 0 0-2.3-1.1h-1.1c-.7.2-1.4.6-2 1.2a9 9 0 0 0-1.7 2l-1.3 2.4a14 14 0 0 1-3.6 4 7.6 7.6 0 0 1-4 1.3 6 6 0 0 1-2.9-.5l-.9-.5"/><path fill="#33535f" d="m136.9 49.6.2.2.7.4a7 7 0 0 0 4 .5 7 7 0 0 0 2.2-.7l-1 .3a8 8 0 0 1-5.1-.3l-1-.4"/><path fill="#f6835b" d="m152.8 69.3-3.4 1 .4 1.1c.3 1 1.4 1.4 2.3 1l.6-.4c.2-.4.4-.8.3-1.2l-.2-1.5"/><path fill="#17282f" d="m149.4 70.3 3.3-1.2h.2v.2l.3 1.4c0 .5-.1 1-.4 1.2-.4.6-.9.6-.9.6s.4-.2.7-.7c.5-.5.3-1.4 0-2.4h.2l-3.4 1"/><path fill="#33535f" d="m132.6 158.8 48-.2-2.7-40.8-.2-12.1-2.8-22-10.7-2.3s-2.7 5-9.5 4.8c-6.7 0-6.5-3-6.5-3l-11.4 4.3s-6.2 3-7.4 6c-1 2.9-3.2 19.3-3.2 19.3h9.8l-1 31-2.4 15"/><path fill="#17282f" d="M136.3 98.3v.8l.1 2.3a211.3 211.3 0 0 1-.6 17.8v-2.9l.3-7.5a393.2 393.2 0 0 0 .2-10.5"/><path fill="#33535f" d="M174.5 84s4.9.5 7.4 3.9a78 78 0 0 1 6.9 13.1l-10.8 7.2-2.6-4.8-.9-19.4"/><path fill="#17282f" d="M176.9 88.8v.2a208.3 208.3 0 0 0 .2 2.5 201.5 201.5 0 0 1 .3 13v2.6-.7a79.3 79.3 0 0 1-.3-8.4 492.6 492.6 0 0 0-.2-8.5v-.7"/><path fill="#863e3d" d="M110.2 131.2s1.6 1 2.6 1l4.3-1s0 .3.9 1c.9.6 6.1 1.4 8.3 1.2 2.2-.3 6-1.7 6-1.7l-1.2-6.3-9.9 1.6-11 2.5v1.7"/><path fill="#fab9a5" d="M113.5 126s-.8 3.9-.4 4.4c.5.5 1 .7 1.4 0 .4-.8 1-3.4 1-3.4l.4-1s-.6 6.3.5 6.7c1 .3 1.7 0 1.7 0s2 1.5 2.2-1c.2-2.5 1-5.6 1-5.6l.4-.9v1.5s-1.1 3.3-.5 3.8c.6.4 1.3.8 1.7.2a40 40 0 0 0 2.7-5.8s1.2 1.8 3 1.9c1.3 0 2.1-.6 1.6-1.5-.6-.8-2-1.5-2-1.5l-1.8-4.2-4.4-1h-5l-3.5 7.5"/><path fill="#f9a78d" d="M106.4 123.4s4.2 2.5 6.1 3c2 .4 12.3-1.4 12.2-2-.1-.7-1.5-1.3-2.4-1.5-1 0-3.6-.6-3.6-.6h7.3l3.5 2.3s1.2-.5.8-1.6c-.2-.5-3-2.7-3-2.7l-6.6-1.3-12-.4-2.3 4.8"/><path fill="#d76258" d="M110.3 112.2s12 2 12.2 2.3l3.3 3.8s4.6 1.6 4 2.6c-.6 1-1.9.4-1.9.4s1.9 2.9 1 3.5c-.9.6-1.8.2-2.5-.7l-2.6-4s1.6 6.5.8 6.7c-.8.2-2 .3-2.6-1.4a17 17 0 0 1-.6-2.6l-2.5-4.2s1 7.7.4 8.3c0 0-1.6.5-2.1-.8a46 46 0 0 1-1.3-4.4l-1.2-3.3-.2 2s1.1 4 .4 4.3c-.6.2-1.5 0-2-1-.4-.8-1-1.9-1.2-2.8 0-.5-.8-2.2-.8-2.2l-2.5-.4 2-6.1"/><path fill="#843531" d="m125 117.3 1.6 2 1.4 2.2-1.6-2-1.4-2.2m-4-2.2.6.6a17 17 0 0 1 2.3 4.5l-.4-.8a48.9 48.9 0 0 0-2-3.6l-.5-.7m-3.5.3.5.4.6 1a6 6 0 0 1 .3 1.9l-.2-.5-.3-1.3a4 4 0 0 0-.5-1l-.4-.5m-4.2.4.4.2a2.4 2.4 0 0 1 1 2v.5c-.1 0 0-.8-.4-1.6-.4-.7-1-1-1-1.1"/><path fill="#a7a9a8" d="M135.4 133.1v-1.4 1.4"/><path fill="#20353d" d="M135.4 133.1v-1.4a690 690 0 0 0 28.8-2.8c1.3-.3 3.2-1 5.4-2l.6 1.5 7.4-3.2c0 .3 0 .5.2.9a18.5 18.5 0 0 0 .5 2.7l-9.7 2-33.2 2.3"/><path fill="#863e3d" d="m131.1 125.4 30-6.8 27.6-16.2c.5-.3-2 16.2-2 16.2s-17.5 9.1-22.5 10.3c-2.7.6-32.9 3.1-32.9 3.1l-.2-6.6"/><path fill="#17282f" d="M204.8 60.1c1.9-2 6.4-1.6 7.4-.3 1.6-.8 3.7 0 4.5 1.5l4.8 1.1a5 5 0 0 1 2.3 1c.6.5.9 1.6.4 2.2 1.6.5 2.3 3 1 4.2.7.7.5 2-.3 2.6a16 16 0 0 1 3 5.4c.3.8.6 1.7.3 2.5s-1.4 1.4-2.1.9c.5.6.5 1.6 0 2.3.9 0 1.1 1.2.5 1.8-.5.6-1.4.7-2.2.6-.8 0-1.7 0-2.4.4 0 .3.1.4.3.5 1.3 1.2 1.7 3.1.7 4.6l-.3.4c-.5.6-1.6 1.2-2.4 1.6-1.8 1-3 .7-5 1 .6 1.3-2.8 4.2-6.5 1.3-7.7 2-13.1 2.7-21 2.6-1.1 0-2.5-.1-3-1.1-.9.2-1.8-.2-2.5-1-.7-.6-1-1.4-1.5-2.3-2-.5-3.4-2.4-3.5-4.4a6 6 0 0 1-2.2-4.3c-1.9-.6-2.9-3.1-2-4.8.4-2.4 1.3-4.6 2.4-6.6-1.3-.3-1.7-2-1.2-3.3.5-1.2 1.7-2 2.8-2.6-1 .2-1.7-1-1.5-2 .2-1 1.1-1.6 2-2 1.2-.8 2.6-1.4 4-1.8.4-1.7 2.6-3.6 4.2-4.4 6.4-3 11-3.6 19 2.4"/><path fill="#863e3d" d="M186.9 72.1c.5-4.4 3.8-9.6 8.2-8.9l13.5 4.3c1.3.3 2.2 1.5 2.1 2.8l-2.3 29.4a8 8 0 0 1-16.1-.8v-3.5s-5.5-1.3-6.2-8.7c-.4-3.7.2-9.7.8-14.6"/><path fill="#17282f" d="M189.4 78c0 .6.3 1 .8 1 .5.2 1-.2 1-.7 0-.5-.3-1-.8-1s-1 .3-1 .8m-1.4-2.8c.1.1.9-.3 1.9-.3 1 0 1.7.6 1.8.5 0 0 0-.3-.3-.5a2.6 2.6 0 0 0-3-.2c-.3.2-.5.5-.4.5m10.7 3.2c0 .5.3 1 .8 1s1-.3 1-.8-.3-1-.8-1-1 .3-1 .8M198 76c0 .2.8-.3 1.8-.3s1.8.7 1.9.5c0 0 0-.2-.4-.5a2.6 2.6 0 0 0-3-.2c-.3.2-.4.5-.3.5m-4.2 7.3-1.6-.4c-.3 0-.5 0-.5-.3-.1-.2 0-.4.2-.7l.9-2a34 34 0 0 0 2-5 34 34 0 0 0-2.4 4.9l-.9 2c-.1.2-.3.5-.2 1 0 .1.2.3.4.3l.4.1 1.7.1"/><path fill="#582426" d="M192.4 95.4s4.9.6 10-2c0 0-2.7 4.9-10 3.7v-1.7"/><path fill="#17282f" d="M197.8 72c0 .2 1 .1 2.3.3 1.1.2 2 .6 2.3.4 0-.1-.1-.4-.5-.7-.4-.3-1-.5-1.7-.7l-1.8.1c-.4.2-.7.4-.6.5m-9.2 0c.1.2.9 0 1.7 0 .8 0 1.5.3 1.7 0 0 0 0-.3-.3-.5a2 2 0 0 0-1.4-.5c-.6 0-1 .2-1.4.4-.3.2-.4.4-.3.5"/><path fill="#17282f" d="M183.5 75.6a5 5 0 0 1 1.3-3.2l1.4-1.3c.8-1 .7-2.5 1.1-3.9a5.6 5.6 0 0 1 3.5-3.6c1.4-.5 3-.4 4.3-1 1-.6 1.7-1.4 2.7-1.9 2-.8 4.1.2 6 1.3.3 1.5-.7 2.7-1.6 3.9-.9 1.2-2.3 2-3.8 2-1.1 0-2.5-.3-3.3.6-.9.8-.6 2.3-1.3 3.3-1 1.4-3.3.8-4.8 1.7-1.1.6-1.7 2-2.3 3.2-.6 1.2-1.6 2.4-3 2.3a15 15 0 0 1-.2-3.4"/><path fill="#17282f" d="M200.8 64.6c3.4 0 6.7.7 9.9 2 .9.3 1.8.8 2.4 1.7.4.7.4 1.6.4 2.5a26 26 0 0 1-2.3 8.7l-3.5 2c-2.6-.7-1.3-5.3-1.2-7.6-1.8-.8-3-2.8-3-4.8a6 6 0 0 1-2.7-4.5"/><path fill="#863e3d" d="M207.8 80.5c0-1.6 2-1.9 3.4-1 .7.4 1.3 1.3 1.1 3-.3 4.5-4.7 3.2-4.7 3 0 0 0-3.2.2-5"/><path fill="#582426" d="m209 84 .3.1h.6c.4 0 .9-.8 1-1.6 0-.4 0-.8-.2-1.1 0-.4-.3-.6-.5-.7l-.5.2v.2s-.1 0 0-.2l.1-.3h.5c.3 0 .6.3.7.7.2.3.2.8.2 1.2-.1 1-.6 1.7-1.3 1.9-.3 0-.6 0-.7-.2l-.1-.2"/><path fill="#33535f" d="M211.2 86.8a3.7 3.7 0 0 0 1.5-.2c0 .5.4 1.2 1.1 1.6.7.4 1.7.3 2.4-.2 0 .2.2.3.5.4a1.3 1.3 0 0 0 1.3-.5l.2-.7c0-.6-.1-1.1-.4-1.5-.3-.5-.8-.8-1.2-1.2v.1c.4-.2.6-.6.7-1v-1.4l-.8-1.1-1-1v.2c.3-.3.4-.8.4-1.3s-.2-1-.5-1.3c-.5-.8-1.4-1.2-2.1-1.6.3-.9 0-2-.7-2.7a3 3 0 0 0-2.5-1l.1.1a2 2 0 0 0-.6-2.1c-.4-.6-1.1-1-1.8-1 0-.8-.4-1.5-1-2-.5-.4-1.2-.5-1.8-.5a2 2 0 0 0-.3-1c-.2-.4-.4-.7-.7-.9-.4-.5-1-.6-1.5-.7h-.5l-.4.2a52.8 52.8 0 0 0-.3 0h.3l.4-.1h.6c.5 0 1 .2 1.5.7.2.2.5.5.6.8.2.3.4.7.4 1v.1c.6 0 1.3.1 1.8.6.5.4 1 1 1 1.9.6 0 1.3.4 1.8 1 .4.5.7 1.3.5 2v.1c1 0 1.8.2 2.5 1 .6.6.8 1.6.6 2.5v.1c.8.4 1.6.8 2.1 1.5.3.4.4.9.5 1.3 0 .5-.2.9-.5 1.2.8.7 1.5 1.3 1.8 2 .2.5.2 1 .1 1.3 0 .4-.3.8-.6 1h-.1l1.2 1.2c.3.5.5 1 .4 1.4 0 .5-.3 1-.7 1.1-.4.2-1 .1-1.2-.3-.8.5-1.7.6-2.3.2-.7-.3-1-1-1.2-1.6l-.8.2h-.7c-.4 0-.8 0-1-.2a1 1 0 0 1-.6-.4v-.2.2c0 .2.2.3.5.5m16.5-5.2.2-.3a2.3 2.3 0 0 0 0-2.3c-.4-.5-1-1-1.7-1a3 3 0 0 0-1.2-3.1c-.3-.3-.8-.4-1.2-.6l-.6-.4-.4-.5-.4-1.4c-.5-1-1.6-1.6-2.7-1.4.2-1-.1-2.1-.8-3-.8-.8-2-1.2-3-1 .2-1.3-.5-2.6-1.6-3.2-1-.5-2.3-.4-3.2.2-.4-.5-1-.8-1.5-1L207 62c-1-.1-2 0-2.6.1-.8.2-1.3.4-1.6.7l-.4.2-.1.1.5-.3 1.6-.6a7.5 7.5 0 0 1 4.2.3c.5.2 1 .5 1.5 1 .9-.6 2.1-.7 3.1-.2a3 3 0 0 1 1.6 3v.2c1-.2 2.2.2 3 1 .7.8 1 2 .8 3 1.1-.2 2.2.4 2.6 1.3.3.4.3 1 .5 1.4l.5.6.6.4 1.2.6c.3.2.6.5.8.9.4.7.5 1.4.4 2.1.7.2 1.3.6 1.6 1 .3.5.3 1 .3 1.4l-.2.9-.2.3m-42.7.5s.1-.2 0-.4l-.2-.4-.6-.3-.7-.3c-.2-.1-.4-.4-.5-.7v-2.2c0-.8-.3-1.7-.5-2.6v-1.5c0-.5.3-1 .8-1.2.5-.3 1-.4 1.6-.6.3 0 .5-.1.8-.3l.6-.7.5-1.8c0-.3.1-.5.3-.8.1-.3.4-.5.7-.6l1.2-.1c.2 0 .4 0 .6-.2.2 0 .4-.2.5-.4.3-.3.4-.7.5-1.1a2.8 2.8 0 0 1 2.6-1.9c.7 0 1.4.3 1.8.7h.1c.6-1.2 1.7-2 2.7-2.2a4 4 0 0 1 2.7.2 3.1 3.1 0 0 1 1.5 1.7l.1.1v-.1l-.2-.5c-.2-.3-.6-.9-1.3-1.2-.4-.2-.8-.4-1.3-.4h-1.5c-1 .3-2.2 1.1-2.8 2.4h.1a2.8 2.8 0 0 0-4.6 1.2c-.1.3-.2.7-.5 1-.2.4-.6.5-1 .6l-1.3.1c-.3.1-.6.4-.7.6l-.4 1-.4 1.6-.6.7-.7.3-1.7.5-.5.6c-.2.3-.3.5-.3.8V75c.2 1 .6 1.8.5 2.6v2.2l.6.8c.2.2.5.2.7.3.2 0 .4.1.5.3.2 0 .3.2.3.3v.4"/><path fill="#33535f" d="M175.3 74.8h.1l.1-.3.5-1c.2-.4.4-1 .8-1.5a4 4 0 0 1 1.5-1.6l1.2-.5.6-.3.5-.6.4-1.4c0-.3.2-.5.4-.6l.8-.4.8-.3c.2 0 .4-.3.6-.6.3-.5.3-1.1.4-1.7 0-.3.1-.6.3-.8.2-.3.4-.4.7-.5h1.9c.3 0 .6-.2.9-.4l.5-.8.5-.7c.2-.3.4-.5.7-.6.5-.2 1.1 0 1.7 0 .5.2 1.1.4 1.7.2.5 0 1-.3 1.5-.6.4-.3.8-.6 1.3-.7 1-.3 1.9-.3 2.6 0a5 5 0 0 1 3 2.3l.5 1 .1.2v.1a216 216 0 0 0-.5-1.3l-1-1.4a5 5 0 0 0-4.7-1c-.5.1-1 .4-1.4.7-.4.3-1 .5-1.4.6-.6.1-1.1 0-1.7-.2l-.8-.1-1 .1-.7.6-.5.8a4 4 0 0 1-.5.7c-.2.2-.5.4-.8.4H185c-.3 0-.6.2-.8.5l-.3.9-.4 1.7-.6.5c-.2.2-.5.2-.8.3l-.7.4c-.3.1-.4.4-.5.6l-.4 1.5c-.2.4-.6.7-1 .8l-1.2.5a4 4 0 0 0-1.6 1.7l-.7 1.5-.5 1-.1.2v.1"/><path fill="#33535f" d="M180.2 70.2h-.3a1 1 0 0 0-.5.8v.7l.2.8c0 .3-.2.5-.3.8l-.6.8c-.2.3-.3.8-.2 1.2l.6 1c.1.4 0 .9-.2 1.3l-.6 1.2-.1.8.1.7c.2.5.6.9.9 1.3.2.4.5.9.4 1.4 0 .5-.4 1-.6 1.5l-.1.8.1.8 1 1.3.8 1.3.4 1.4.4.6.7.3.6.2.5.4.7 1 .6.9c.4.6 1 1 1.5 1.2a3.3 3.3 0 0 0 2.4-.1l.3-.2s-.4.3-1.2.4c-.4 0-1 0-1.4-.2a3 3 0 0 1-1.5-1.2l-.6-1-.7-1-.6-.3-.6-.2a2 2 0 0 1-.6-.3l-.4-.6-.4-1.4-.8-1.3-1-1.2-.1-.8c0-.2 0-.5.2-.7.2-.5.5-1 .5-1.6v-.8l-.4-.7c-.3-.4-.7-.8-.9-1.3a1.7 1.7 0 0 1 0-1.3l.6-1.3c.2-.4.3-.9.2-1.3l-.6-1c-.1-.4 0-.8.2-1.1l.5-.9c.2-.2.4-.5.4-.8l-.1-.8c-.1-.3-.2-.5-.1-.7 0-.4.2-.6.4-.7h.3"/><path fill="#17282f" d="M226.5 81.2h.4a2.4 2.4 0 0 0 1.9-1.7c.2-.6.1-1.4-.3-2.1l-1-1a3 3 0 0 1-.7-1 2 2 0 0 1 0-1.4l.7-1.5c.3-1 .3-2.3-.3-3.4-.5-1-1.6-2-2.9-2.2.2-.2.4-.5.4-.9v-1c0-.4-.2-.7-.4-1l-.8-.8a7 7 0 0 0-2.9-1.3c-1-.2-2-.3-3-.2a3.2 3.2 0 0 0-3.2-3c-.6 0-1 .2-1.5.3a3 3 0 0 1-.7.2l-.7-.1c-.4-.1-.8-.4-1.1-.6l-1.2-.5a3.9 3.9 0 0 0-3 .3 3.9 3.9 0 0 0-1.7 2s0-.2.2-.3a4 4 0 0 1 1.6-1.7 3.7 3.7 0 0 1 3-.2c.3 0 .6.3 1 .5l1.2.6.7.1c.3 0 .5 0 .7-.2l1.5-.3c.5 0 1 0 1.5.3a3 3 0 0 1 1.6 2.7h.1c1 0 2 0 3 .2 1 .3 2 .6 2.8 1.3l.8.7.4 1v1c0 .3-.2.6-.4.9v.1c1.3.3 2.4 1.1 2.9 2.2.6 1 .6 2.3.3 3.3l-.6 1.4a2 2 0 0 0-.1 1.5c.2.5.5.8.8 1.1.4.3.7.6.9 1 .5.6.5 1.4.3 2a2 2 0 0 1-.9 1.3l-1 .4h-.3m-47.8-14v-.4l.1-1 .3-1.5c0-.6.3-1.2.6-2 .3-.6.8-1.3 1.4-1.8.4-.3.8-.6 1.2-.7l1.4-.4a4 4 0 0 0 1.4-.6l1.2-1.1 1-1.3 1.4-1a8 8 0 0 1 3.3-.5l3 .1a15.3 15.3 0 0 1 8 3.5l.4.5.2.3.2.2-.2-.2-.2-.3-.4-.5a11 11 0 0 0-2.9-2c-1.3-.7-3-1.3-5-1.6l-3.1-.2c-1.1 0-2.3.2-3.3.7-.6.2-1 .5-1.4 1l-1.1 1.2c-.4.4-.7.8-1.2 1a4 4 0 0 1-1.3.7l-1.4.4c-.5.1-.9.4-1.2.7a7 7 0 0 0-2.1 3.9 15.8 15.8 0 0 0-.3 2.5v.2"/><path fill="#582426" d="M198.2 85.8c0-.6-.4-1.2-1-1.4-.5-.3-1.2-.1-1.6.3-.4.4-.5 1.1-.1 1.6l.6.6h1.1c.3 0 .6-.1.8-.4l.2-.7"/><path fill="#17282f" d="M197.6 83.6c-.2 0 0 1.1-1 2-.8.9-2 .8-2 1 0 0 .2.2.7.2.5 0 1.2-.3 1.8-.8.5-.5.7-1.2.7-1.7 0-.4-.1-.7-.2-.7"/><path fill="#f2575d" d="m217.1 102.1-8.6-3.2s-6.7 4-11.9 3.1c-4-.6-4.3-2.7-4.3-2.7l-4.8.8s-7.3 6-8.8 12.2a56 56 0 0 0-1.1 12.5c0 1.7 2.1 8.3 2.1 8.3l.8 9.6-4 15.9h42v-44L217 102"/><path fill="#f2575d" d="m170.2 128.4-6-15.2 17.4-12.2 5.9-1-1.5 21.7-15.8 6.7"/><path fill="#17282f" d="M179.3 131.3v-.2l-.4-.6-.7-2.4c-.6-2-.9-5-.6-8.3a51.4 51.4 0 0 1 2.2-10.5l.2-.7v-.2.2l-.1.7-.6 2.4c-.5 2-1.2 5-1.5 8.2a26 26 0 0 0 1.2 10.5l.2.7.1.2"/><path fill="#cc4341" d="M177.3 122.9a17 17 0 0 1 2.7-14.2 145.6 145.6 0 0 0-1.6 6.2 43.3 43.3 0 0 0-.9 7.9h-.2m.4-.2"/><path fill="#0f191d" d="m177.5 122.8.1-3a43.3 43.3 0 0 1 .2.5l-.1 2.3-.2.2m2.3-13.7"/><path fill="#cc4341" d="M209.6 152.8h-.5c-5.2-.4-7-1.6-10.4-5.7-3.3-4-9.3-26.3-9.3-26.3l1.9-.4 14.3 24 5.6-9.2 7 3.9s.3 3.5-.9 5.8c-1.1 2.3-3 8-7.7 8"/><path fill="#863e3d" d="M190.3 123.7s6.1 14.2 10.5 22.4c3.7 7 11.3 6.1 13.7 2.3 2.4-3.9 6.5-15.4 6.5-15.4l-12.8-2.2-1.5 4-9.7-12.3-6.7 1.2"/><path fill="#863e3d" d="m200.8 121.6-1-4.2s-.4-1.2-1.1-.2c-.7 1-.4 3-.4 3s-1.3-10.1-2.5-11.2c-.4-.4-1 .1-1 .1s-.1-2-.7-2c-.7 0-1.2 1.5-1.2 1.5s-.8-.4-1.4.4c-.6.6-.6 6.1-.6 6.1s-.5-4.5-1.3-4.8c-1.3-.5-1.3 1.3-1.3 1.3l.4 5.9s.7 4 1.6 6.6c.9 2.5 1.4 2.5 1.4 2.5l5.8-.1 2.4-2.2c.8-.7 1-1.7.9-2.7"/><path fill="#582426" d="m210.7 140.6-.1-.2-.3-.5-.4-.8-.7-1c-1-1.5-2.5-3.5-4.3-5.6l-4.4-5.4a53 53 0 0 1-1.3-1.7l-.4-.4v-.2.2c.2 0 .3.2.4.4l1.4 1.6 4.5 5.4 4.2 5.6.7 1 .4.8a690.1 690.1 0 0 0 .3.8"/><path fill="#f2575d" d="M215.7 101.8s7 1.4 8.7 9.3c1.7 7.3 1.2 22.7 1.2 22.7l-19-3.3 4.6-26.4 4.5-2.3"/><path fill="#17282f" d="M209.2 114.4v.3l-.1 1-.6 3.4-1.9 11.4v-.1l.6.1 11.8 2.1 3.5.7 1 .2h.3-.3l-1-.1-3.5-.6-11.9-2.1-.6-.1v-.1l1.9-11.4.6-3.5.2-.9v-.3m1-2.6.2-.4.5-1.2c.5-1 1.1-2.4 2.3-3.6a6.8 6.8 0 0 1 3.8-2 7.5 7.5 0 0 1 1.8 0l-1.8.2c-1 .2-2.5.7-3.7 1.9-1.1 1.2-1.8 2.6-2.3 3.5a1133.6 1133.6 0 0 1-.7 1.6"/><path fill="#582426" d="M192.7 116v-1a54.2 54.2 0 0 1 .2-6.4l-.1 1.1v6.3m1.9-6.8v.9l.1 2.1.1 2.1v.9-.9a26.8 26.8 0 0 1-.2-5.1"/><path fill="#f2575d" d="M63.4 68.3c-.5-3.1-1.3-6.5-3.3-9-1.5-1.7-3-3-5-4.2-2-1.3-3.9-1.7-6.1-2l-1.5 1.4a18 18 0 0 1 11.2 8.6c2.4 4.2 3.2 9.3 2.4 14-.5 3.2-1.7 6.2-2.5 9.3-.9 3-1.5 6.3-.9 9.4 2.6-1 1.9.7 3-1.9 1-2.5 1.6-8.2 2.3-10.9 1-4.4 1-10.4.4-14.7"/><path fill="#17282f" d="M60.8 61.3c-4-6.1-13.2-8-13.2-8-13.6-1-16 9.4-17.4 19-.8 5.8 2.3 24.3 2.3 24.3l3.3 1.2h21.9c0-.4 1.5-3.7 2-4.8 2-10 3.5-28 1.1-31.7m.7 32.6z"/><path fill="#f9a78d" d="m49.5 56.8-.8-.8-9.2 3.7a2.6 2.6 0 0 0-2.4 2.5V92c0 2 .4 3.8 1.7 5.4l1.3 1.7c2.9 3.9 9 3.6 11.3-.7l.3-.8.1-.7c.3-2.4.3-4.5.3-4.5l.2-3.7s5.7-.6 7.2-7.8c.7-3.6.6-8.6.4-13.4-.3-6.7-5-10.8-10.4-10.8"/><path fill="#17282f" d="M47.9 72c0 .6-.5 1-1 1s-1-.4-.9-1c0-.4.4-.8 1-.8.5 0 .9.4.9.9m9.2.3c0 .5-.4.9-1 .9-.4 0-.9-.4-.9-1 0-.4.5-.8 1-.8s1 .4 1 .9m1.7-2.9c0 .1-.8-.4-1.8-.5-1 0-1.7.4-1.8.3 0 0 0-.3.4-.5a2.6 2.6 0 0 1 2.9.2c.3.2.4.5.3.5m-10.2.1c0 .1-.7-.5-1.7-.7-1-.1-1.8.3-1.9.1l.5-.4a2.6 2.6 0 0 1 2.9.4l.2.6m3.5 7.3 1.7-.2c.3 0 .5 0 .6-.2 0-.2 0-.5-.2-.8l-.6-2c-1-2.8-1.6-5.1-1.5-5.2.1 0 1 2.3 1.9 5l.6 2.1c0 .3.2.6 0 1 0 .2-.2.3-.4.4h-2.1"/><path fill="#f57f62" d="M52.3 88.8s-4.9.1-9.6-3c0 0 2.2 5.1 9.5 4.8l.1-1.8m-.6-9.5c-.3-.5-1-.8-1.6-.7-.4 0-.9.2-1.2.5-.2.4-.3.9-.1 1.2.3.4.8.5 1.3.4a3.8 3.8 0 0 0 1.6-1v-.3"/><path fill="#17282f" d="M49.3 77.5c.1 0 0 1 1 1.9.9.8 2 .7 2 .9 0 0-.2.2-.7.2a3 3 0 0 1-1.8-.7c-.5-.5-.7-1.2-.7-1.6 0-.5 0-.7.2-.7m.4-11.8c-.1.2-1.1 0-2.3 0-1.2-.1-2.2 0-2.3-.2 0-.1.2-.4.6-.6a4 4 0 0 1 3.5.2c.4.2.6.5.5.6m9-.5c-.1.2-.8 0-1.6-.1s-1.6 0-1.7-.2c0-.1 0-.3.4-.5a2 2 0 0 1 1.4-.3c.5 0 1 .2 1.3.5.3.2.4.5.3.6"/><path fill="#17282f" d="M37.3 75s5.1 1.5 8-11.2c1-4.3 5-7.8 5-7.8l-1.6-.5-10.3 3a84 84 0 0 0-2.6 5.2L37.3 75"/><path fill="#f9a78d" d="M38.5 74.5c0-.6-.5-1.9-1-2-1.5-.3-4-.3-4.3 3.3C33 80.8 38 80 38 80l.5-5.4"/><path fill="#f57f62" d="M36.6 78h-.9c-.5-.2-.9-1-.9-2 0-.4.2-.8.4-1.2.1-.3.4-.6.6-.6.3 0 .5.1.5.3.1.1 0 .2 0 .2.1 0 .2 0 .2-.3 0 0 0-.2-.2-.3a.7.7 0 0 0-.5-.1c-.4 0-.7.3-1 .7a3 3 0 0 0-.3 1.3c0 1 .4 2 1.1 2.3l.8-.1c.2-.1.2-.3.2-.3"/><path fill="#17282f" d="m40.7 72.5.8-.1 1.8-1 .9-1.1.7-1.5c.5-1 .7-2.3 1-3.6a37.9 37.9 0 0 1 2.5-6.4l1.2-1.7.3-.5.1-.1v.1l-.4.5a17 17 0 0 0-2.4 4.5 40 40 0 0 0-1 3.6c-.4 1.3-.7 2.6-1.2 3.7l-.7 1.4-1 1.1c-.6.6-1.3.9-1.8 1l-.8.1"/><path fill="#33535f" d="m33 93.2.2-1.7c0-1.2-.2-2.8-.5-4.7l-.6-3.3a21 21 0 0 1-.4-3.7c0-1.3 0-2.7.3-4a10.4 10.4 0 0 1 1.8-4c1-1.3 2-2.3 3.2-3.2a50.6 50.6 0 0 0 7.5-8.2 37.4 37.4 0 0 0 3-5.3l.1-.3-.2.3A37.2 37.2 0 0 1 40 65.7c-.9 1-2 1.9-3 2.8-1.1 1-2.2 2-3.2 3.2a10 10 0 0 0-1.9 4c-.3 1.4-.3 2.8-.3 4.1l.5 3.8.6 3.2a28 28 0 0 1 .5 6v.4"/><path fill="#33535f" d="M31.5 93.7v-1.8c0-1 0-2.7-.4-4.7l-.6-3.2a22 22 0 0 1-.4-3.7c0-1.3 0-2.7.3-4.1a10.4 10.4 0 0 1 1.8-4c1-1.2 2-2.2 3.2-3.1a50.5 50.5 0 0 0 7.5-8.3 37.4 37.4 0 0 0 3-5.2l.1-.3v-.1l-.2.4A38.5 38.5 0 0 1 35.3 69L32 72a10 10 0 0 0-1.9 4c-.3 1.5-.3 2.9-.3 4.2l.5 3.7.6 3.2a28 28 0 0 1 .5 6v.5"/><path fill="#17282f" d="M24.3 158.5s-.5-4.1 2.2-11c2.1-5.7 4.7-8.8 4.7-8.8l34.2-2.2 2.6 22H24.3"/><path fill="#e7e8e5" d="M65 123.6c.5-7.6 0-19.1 0-19.1L59.3 95 52 93.8s0 5.2-4 6.1c-6.6 1.5-10.9-6.5-10.9-6.5-.6 0-10.1 2-13.1 4.8a96 96 0 0 0-9.6 13s-10 14.5-11.5 18.5c-1 3 0 5.4.5 6.3.3 1 9.6 14.1 16.7 19.4l.6-1 3.7-6.4-9.6-15.8 11.1-11.7 2.2-2 .6 2.7 2.7 13S26 145 25.2 150.6c0 0 26.5 9.1 42.8 4.6 0 0-3.5-24-3-31.6"/><path fill="#f9a78d" d="M37.2 145.2s-4.5-1.2-5-1l-3.8 2s-1 1.3-1.5 1.7c0 0-1.2 1.1-2 1.2-.8 0-1.2-.2-1.2-.2l-3.1 5.5s1.8 1.7 2.8 1.7c1 0 6.3-2.3 6.3-2.3l1.3-.3s5 .8 5.3-.7v-.4l-4.7-1-1.9.1 3.3-.8 5 .1c.4 0 1-.6.8-1l-.9-.3s1.1-.6 1.1-1.2l-4.2-1.2s2.7-1 2.4-2"/><path fill="#f57f62" d="M38.4 149.5H38a35.8 35.8 0 0 0-4.5-1.2h-1l-1 .2a21 21 0 0 0-2.4 1l-.3.3.3-.3 1-.5 1.4-.6 1-.3h1a50.9 50.9 0 0 1 4.9 1.4m-3.5-2.2-.9-.3c-.6-.2-1.4-.3-2.3-.2-.8.2-1.6.5-2 .9l-.8.5.6-.7a4.8 4.8 0 0 1 4.6-.6l.8.4"/><path fill="#e7e8e5" d="m88 113.3-17.5-13L64 96l-4.8-1 2 20.4h4.6l19.4 8.4 23.9 2 .3-7.3-21.4-5.2"/><path fill="#17282f" d="M65.3 132.6v-1.2a163.3 163.3 0 0 1-.2-8v-5.7c0-4.1-.8-7.8-1.4-10.4l-.7-3-.3-1v-.2.3l.3.8.8 3a42 42 0 0 1 1.5 10.5v14.9"/><path fill="#8c423c" d="M65.2 115.7v-.3h.1v.3"/><path fill="#979999" d="M65.3 115.4a52.7 52.7 0 0 0-2.3-11.2l-.2-.8-.1-.3v.3l.3.8c0 .6.3 1.3.5 2.2l-2-5.9c3.6 4 5 9.7 3.8 14.9"/><path fill="#0f191d" d="M65.1 114.2a53 53 0 0 0-1.6-7.8l-.5-2.2-.3-.8v-.3.3l.3.8a109.5 109.5 0 0 1 2.1 10"/><path fill="#f2575d" d="M50.8 53.4c-11 1-11.4 14.4-12.8 25-2 15 9 18.2 9 18.2L33.1 94s-7.5-3-7.4-11.3c0-8.3 1.4-18.5 10-26.2 7.6-6.7 14.3-3.5 15-3"/><path fill="#f2575d" d="M61.5 93.4c-.9-.8-.6-1-3-1.3C56 92 53 93.6 50.4 94c-2.7.4-5.5 0-7.8-1.4-2.6-1.8-4-4.8-5.3-7.7l-6.4 5.3c-1.3 1-2 2.6-2 4.2l.2.8c.2.3 1 0 1.9-.2.8-.2 1.5-.4 1.8-.2 3 2 4.2 5.3 6.9 7.7 3.1 2.8 6 5 8.3 5 2.1-.2 6.3-2.5 7.7-5.2 1.4-2.6 2.6-4.4 3.7-6.3.2-.5.8-.4 1.4-.3.6 0 1.2.1 1.3-.5.1-.6 0-1.3-.5-1.7"/><path fill="#17282f" d="M25.8 109v.3a2528.4 2528.4 0 0 1 1 3.4 583.6 583.6 0 0 1 4.4 20.5l.1.8v.2-.2a2491.8 2491.8 0 0 0-.7-3.5l-2-8.9-2-8.8-.6-2.7-.2-.8v-.2m35.7-14.3h-.1l-.2.1-1 .5a20.9 20.9 0 0 1-8.6 1.7 69.6 69.6 0 0 1-13-1.2 27.3 27.3 0 0 1-8-3.6l-.8-.6.8.5a24.2 24.2 0 0 0 8 3.6 35.4 35.4 0 0 0 6.5 1c2.3 0 4.5.2 6.5.1a27.3 27.3 0 0 0 8.7-1.5l.8-.5.3-.1"/><path fill="#17282f" d="M40.5 96.2h-.1a75 75 0 0 1-1-.7l-1-1c-.3-.1-.5-.4-.7-.6l-.8-.7c-1-1-2.2-2.2-3.2-3.8a12 12 0 0 1-1.8-5.9c0-2.2.4-4.2.9-6l1.4-4.9 1-3.2.3-.9v-.2a112 112 0 0 1-1.2 4.4L33 77.5c-.4 1.8-.9 3.8-.8 6 0 2.2.8 4.2 1.8 5.8a20 20 0 0 0 3.8 4.5l.7.7 1.1.9.7.6a97.8 97.8 0 0 0 .3.2m10.3-42.8s-.6 0-1.4.3a9.8 9.8 0 0 0-3.2 1.6c-1.2.8-2.1 1.7-2.7 2.3l-1 1.1.1-.3.8-.9a16.8 16.8 0 0 1 4.4-3.3l1.5-.6.6-.1h.5c.3 0 .4-.1.4 0"/><path fill="#cc4341" d="M32.6 88.6a15 15 0 0 1-1.7-7.6c0-4 1.5-7.9 2.9-11.7l2.2-5.7c0-.3.3-.4.5-.4.3 0 .6.2.5.6 0 .4 0 .7-.2 1-.5 2.1-1.2 4.1-2 6.1a106.1 106.1 0 0 0 .8-2.7l-.1.3-.3.9-1 3.2c-.4 1.4-1 3-1.4 4.8a21 21 0 0 0-.9 6.1c0 1.7.5 3.3 1.2 4.7l-.5.4"/><path fill="#cc4341" d="M35.4 91.7a8.7 8.7 0 0 1-2.8-3l.5-.5.6 1.2 1.7 2.3m-2.2-3.6c-.6-1.4-1-3-1-4.6-.1-1.2 0-2.3.2-3.4a15 15 0 0 0 1 7.9l-.2.1m2 3a17 17 0 0 1-2-3l.2-.1c.3.7.6 1.3 1.1 2l.6 1"/><path fill="#0f191d" d="M35.5 91.7a17.4 17.4 0 0 1-2.4-3.5 12 12 0 0 1-1.2-4.7c0-2.2.4-4.2.9-6l1.4-4.9 1-3.2.3-.9v-.2a112 112 0 0 1-2.7 9l-.4 2.8a17 17 0 0 0-.3 3.4 11.8 11.8 0 0 0 1.8 5.8L35 91l.4.6"/><path fill="#17282f" d="m61.6 95.7.2-.4c0-.3.1-.8-.1-1.4-.2-.5-.7-1-1.4-1.3-.6-.3-1.5-.4-2.3-.4l-2.5.5a29.3 29.3 0 0 0-2 .3 23.7 23.7 0 0 1 4.5-1c.8 0 1.7 0 2.4.4s1.2 1 1.4 1.5c.2.6.2 1 0 1.4v.3l-.2.1"/><path fill="#cc4341" d="M47.8 98.5c-1 0-2.1 0-3.2-.2-4.4-.5-8.2-1.8-11.7-4.6A27.7 27.7 0 0 0 45.1 97a82.7 82.7 0 0 0 6.5.2c2 0 3.8-.2 5.3-.6l1.1-.1a25.2 25.2 0 0 1-10.2 2.1m2.7-1.5"/><path fill="#0f191d" d="M50.4 97.1a82.7 82.7 0 0 1-8.7-.5 34.5 34.5 0 0 1-8-2.5 27.7 27.7 0 0 1-1-.5 31.8 31.8 0 0 0 15.5 3.3 59 59 0 0 0 8.7-.4 27.2 27.2 0 0 1-6.5.6"/></svg>