<svg xmlns="http://www.w3.org/2000/svg" baseProfile="tiny" version="1.2" viewBox="0 0 312 312"><path fill="#9b64b8" d="M50.62 0h210.63C289.2 2.1 310.3 22.85 312 50.88v210.37c-2.15 27.95-22.83 49.06-50.88 50.75H50.75C22.89 309.85 1.85 289.3 0 261.37V50.51C1.91 22.68 22.85 2.21 50.62 0Z"/><g fill="none" stroke-width="2"><path stroke="#482317" d="M219.67 53.33q4.28 8.7 3.19 17.44-.53 4.25-1.5 8.44c-1.22 5.26-1.7 9.25 3.35 11.85q8.53 4.39 13.99 11.25m5.71 17.81q-.81 6.28-3.8 11.49c-6.17 10.74-12.01 19.34-9.72 32.52q.09.49-.41.48c-8.93-.24-18.31-1.52-24.99-7.9" vector-effect="non-scaling-stroke"/><path stroke="#ab663f" d="M205.49 156.71c-5.07-8.35-1.24-18.56-.79-26.96.41-7.4-4.46-10.29-11.25-13.57m-4.07-4.01c-1.85-4.28-1.47-7.32-1.82-11.41" vector-effect="non-scaling-stroke"/><path stroke="#502516" d="M187.56 100.76q.53-2.38-.12-4.14" vector-effect="non-scaling-stroke"/><path stroke="#ab663f" d="M187.44 96.62c-1.89-7.94-10.55-11.1-17.95-11.63-3.15-.22-6.84-.17-9.59-1.17-7.35-2.67-9.87-9.73-13.52-15.94-4.85-8.24-14.19-1.73-19.53 1.61" vector-effect="non-scaling-stroke"/><path stroke="#502516" d="M126.85 69.49q-4.14-10.4-2.22-21.6a.42.4-62 0 0-.1-.36q-.1-.1-.24-.12" vector-effect="non-scaling-stroke"/><path stroke="#9b5d3e" d="M126.85 69.49q-.05 1.39-.24 3.18c-.81 7.78-.26 15.17-.89 20.83-.85 7.72-4.16 12-10.02 16.91-7.08 5.92-4.82 18.91-4.2 27.08q.12 1.46-.52.14-2.22-4.62-3.69-10.41" vector-effect="non-scaling-stroke"/><path stroke="#381b16" d="M107.29 127.22q-2.09-10.31-2.17-13.97-.09-3.91-.44-6.63-.65-5.01-.62-6.58c.38-19.55 3.81-35.44 17.28-49.95q1.04-.2.83-1.64" vector-effect="non-scaling-stroke"/><path stroke="#2a1713" d="M226.9 229.15c-.6-2.14-.99-5.29-4.13-4.43q-1.61.44-2.26 1.56" vector-effect="non-scaling-stroke"/><path stroke="#935c3e" d="M220.51 226.28c-20.87-8.86-31.49-20.06-33.17-43.81" vector-effect="non-scaling-stroke"/><path stroke="#92442f" d="M187.34 182.47q.52-1.7.11-5.12" vector-effect="non-scaling-stroke"/><path stroke="#9b5d3e" d="M187.44 96.62q-6.07-.03-9.86 3.42-1.47 1.34.16 2.48l.62.44q1.56 1.1 3.13 0 2.35-1.65 6.07-2.2" vector-effect="non-scaling-stroke"/><path stroke="#935c3e" d="M189.38 112.17q-7.01-1.73-9.35 5.11c-.37 1.12-.5 2.99.79 3.6q.79.37 1.47-.07c1.37-.89.55-3.04 1.72-4.34 2.95-3.33 6.44-.74 6.8 3.04q.17 1.86 2.41 1.08.44-.15.61-.57.67-1.61-.38-3.84m12.04 40.53q-7.2 12.2-18.04 20.64" vector-effect="non-scaling-stroke"/><path stroke="#f58657" d="M187.45 177.35c-13.6 8.75-27.14 10.93-42.19 4.15q-1.61-.73-7.04-4.15" vector-effect="non-scaling-stroke"/><path stroke="#935c3e" d="M107.29 127.22c-9.42-1.97-13.55 7.22-10.78 14.79 3.6 9.88 11.67 11.62 21.28 11.46a.91.89 73.8 0 1 .79.45c5.13 9.09 11.44 16.96 19.64 23.43" vector-effect="non-scaling-stroke"/><path stroke="#92442f" d="M138.22 177.35q-.47 3.14-.08 5.04" vector-effect="non-scaling-stroke"/><path stroke="#935c3e" d="M138.14 182.39c-1.62 13.7-4.49 24.55-15.19 33.81q-5.78 5.01-17.7 10" vector-effect="non-scaling-stroke"/><path stroke="#2a1713" d="M105.25 226.2c-2.29-2.86-5-1.84-6.16 1.3" vector-effect="non-scaling-stroke"/><path stroke="#f58657" d="M187.34 182.47q-4.84 9.49-11.81 13.78c-15.16 9.33-30.52 1.33-37.39-13.86" vector-effect="non-scaling-stroke"/><path stroke="#8d593b" d="m220.51 226.28 5.39 39.41a.4.39 86.2 0 1-.39.45H100.26a.4.39-86.2 0 1-.39-.45l5.38-39.49" vector-effect="non-scaling-stroke"/></g><path fill="#602d17" d="M219.67 53.33q4.28 8.7 3.19 17.44-.53 4.25-1.5 8.44c-1.22 5.26-1.7 9.25 3.35 11.85q8.53 4.39 13.99 11.25c3.33 5.69 6.02 11.07 5.71 17.81q-.81 6.28-3.8 11.49c-6.17 10.74-12.01 19.34-9.72 32.52q.09.49-.41.48c-8.93-.24-18.31-1.52-24.99-7.9-5.07-8.35-1.24-18.56-.79-26.96.41-7.4-4.46-10.29-11.25-13.57l-4.07-4.01c-1.85-4.28-1.47-7.32-1.82-11.41q.53-2.38-.12-4.14c-1.89-7.94-10.55-11.1-17.95-11.63-3.15-.22-6.84-.17-9.59-1.17-7.35-2.67-9.87-9.73-13.52-15.94-4.85-8.24-14.19-1.73-19.53 1.61q-4.14-10.4-2.22-21.6a.42.4-62 0 0-.1-.36q-.1-.1-.24-.12c.29-.39.58-.59.71-1.08 4.9-18.03 22.15-25.77 39.51-25.77 13.33 0 17.49 7.81 23.17 18.04a1.05 1.05 0 0 0 .43.43l9.24 5.1a7.01 6.99-29.7 0 0 3.24.88c4.75.1 8.95.26 13.54 3.09q1.75 1.09 5.54 5.23Z"/><path fill="#3f1c15" d="M124.29 47.41q.14.02.24.12a.42.4-62 0 1 .1.36q-1.92 11.2 2.22 21.6-.05 1.39-.24 3.18c-.81 7.78-.26 15.17-.89 20.83-.85 7.72-4.16 12-10.02 16.91-7.08 5.92-4.82 18.91-4.2 27.08q.12 1.46-.52.14-2.22-4.62-3.69-10.41-2.09-10.31-2.17-13.97-.09-3.91-.44-6.63-.65-5.01-.62-6.58c.38-19.55 3.81-35.44 17.28-49.95q1.04-.2.83-1.64l2.12-1.04Z"/><path fill="#301916" d="M122.17 48.45q.21 1.44-.83 1.64c-13.47 14.51-16.9 30.4-17.28 49.95q-.03 1.57.62 6.58.35 2.72.44 6.63.08 3.66 2.17 13.97c-9.42-1.97-13.55 7.22-10.78 14.79 3.6 9.88 11.67 11.62 21.28 11.46a.91.89 73.8 0 1 .79.45c5.13 9.09 11.44 16.96 19.64 23.43q-.47 3.14-.08 5.04c-1.62 13.7-4.49 24.55-15.19 33.81q-5.78 5.01-17.7 10c-2.29-2.86-5-1.84-6.16 1.3-12.77-5.47-28.35-11.41-27.3-28.5q.47-7.68 5.05-13.17c3.68-4.41 9.94-10.15 5.86-16.55-7.01-10.97-13.21-23.57-8.24-36.83 2.85-7.58 9.75-12.4 14.32-17.41 5.41-5.94 2.06-10.65-.8-16.71q-3.67-7.8-.67-15.95c5.91-16.03 19.15-27.27 34.86-33.93Zm97.5 4.88c17.03 10.57 27.76 29.08 19.03 48.98q-5.46-6.86-13.99-11.25c-5.05-2.6-4.57-6.59-3.35-11.85q.97-4.19 1.5-8.44 1.09-8.74-3.19-17.44Z"/><path fill="#f69e66" d="M187.44 96.62q-6.07-.03-9.86 3.42-1.47 1.34.16 2.48l.62.44q1.56 1.1 3.13 0 2.35-1.65 6.07-2.2c.35 4.09-.03 7.13 1.82 11.41q-7.01-1.73-9.35 5.11c-.37 1.12-.5 2.99.79 3.6q.79.37 1.47-.07c1.37-.89.55-3.04 1.72-4.34 2.95-3.33 6.44-.74 6.8 3.04q.17 1.86 2.41 1.08.44-.15.61-.57.67-1.61-.38-3.84c6.79 3.28 11.66 6.17 11.25 13.57-.45 8.4-4.28 18.61.79 26.96q-7.2 12.2-18.04 20.64c-13.6 8.75-27.14 10.93-42.19 4.15q-1.61-.73-7.04-4.15c-8.2-6.47-14.51-14.34-19.64-23.43a.91.89 73.8 0 0-.79-.45c-9.61.16-17.68-1.58-21.28-11.46-2.77-7.57 1.36-16.76 10.78-14.79q1.47 5.79 3.69 10.41.64 1.32.52-.14c-.62-8.17-2.88-21.16 4.2-27.08 5.86-4.91 9.17-9.19 10.02-16.91.63-5.66.08-13.05.89-20.83q.19-1.79.24-3.18c5.34-3.34 14.68-9.85 19.53-1.61 3.65 6.21 6.17 13.27 13.52 15.94 2.75 1 6.44.95 9.59 1.17 7.4.53 16.06 3.69 17.95 11.63Z"/><path fill="#3f1c15" d="M187.44 96.62q.65 1.76.12 4.14-3.72.55-6.07 2.2-1.57 1.1-3.13 0l-.62-.44q-1.63-1.14-.16-2.48 3.79-3.45 9.86-3.42Z"/><path fill="#301916" d="m189.38 112.17 4.07 4.01q1.05 2.23.38 3.84-.17.42-.61.57-2.24.78-2.41-1.08c-.36-3.78-3.85-6.37-6.8-3.04-1.17 1.3-.35 3.45-1.72 4.34q-.68.44-1.47.07c-1.29-.61-1.16-2.48-.79-3.6q2.34-6.84 9.35-5.11Zm55.03 7.95c10.23 10.65 11.55 26.09 6.16 39.33q-1.86 4.56-5.16 9.73c-4.87 7.61 3.19 12.55 5.97 18.75q2.93 6.52 2.58 13.82c-.68 13.98-16.25 22.02-27.06 27.4-.6-2.14-.99-5.29-4.13-4.43q-1.61.44-2.26 1.56c-20.87-8.86-31.49-20.06-33.17-43.81q.52-1.7.11-5.12 10.84-8.44 18.04-20.64c6.68 6.38 16.06 7.66 24.99 7.9q.5.01.41-.48c-2.29-13.18 3.55-21.78 9.72-32.52q2.99-5.21 3.8-11.49Z"/><path fill="#f46e48" d="M138.22 177.35q5.43 3.42 7.04 4.15c15.05 6.78 28.59 4.6 42.19-4.15q.41 3.42-.11 5.12-4.84 9.49-11.81 13.78c-15.16 9.33-30.52 1.33-37.39-13.86q-.39-1.9.08-5.04Z"/><path fill="#f69e66" d="M138.14 182.39c6.87 15.19 22.23 23.19 37.39 13.86q6.97-4.29 11.81-13.78c1.68 23.75 12.3 34.95 33.17 43.81l5.39 39.41a.4.39 86.2 0 1-.39.45H100.26a.4.39-86.2 0 1-.39-.45l5.38-39.49q11.92-4.99 17.7-10c10.7-9.26 13.57-20.11 15.19-33.81Z"/><path fill="#231410" d="m105.25 226.2-5.38 39.49a.4.39-86.2 0 0 .39.45h125.25a.4.39 86.2 0 0 .39-.45l-5.39-39.41q.65-1.12 2.26-1.56c3.14-.86 3.53 2.29 4.13 4.43l-.31.11 9.05 61.79-145.42-.27 8.9-61.38q.39-1.27-.03-1.9c1.16-3.14 3.87-4.16 6.16-1.3Z"/><path fill="#f69e66" d="m99.12 229.4-8.9 61.38-22.4.28a.29.28 0 0 1-.29-.28c-.4-25.76 6.03-49.98 31.59-61.38Zm127.47-.14q4.79 2.52 8.89 5.25c18.91 12.59 22.73 34.94 22.74 55.87q0 .66-.67.66l-21.91.01-9.05-61.79Z"/><path fill="#3f1c15" d="M144.4 102.96c-6.75-3.63-10.34-2.18-16.44.28q-1.99.81-.87-1.02c4.43-7.19 14.94-6.89 21.16-2.25a1.45 1.45 0 0 1 .06 2.29l-.43.36q-1.63 1.33-3.48.34Z"/><path fill="#301916" d="M132.04 119.57c-.66-9.88 14.08-10.67 14.19-.34q.02 1.64-1.61 1.59l-.41-.01a1.22 1.21 90 0 1-1.18-1.19c-.08-4.12-4.3-6.34-6.94-3.02-.97 1.22-.37 3.14-1.35 4.04q-.55.5-1.35.39a1.59 1.57 2.5 0 1-1.35-1.46Z"/><path fill="#f46e48" d="M168.64 131.41a.93.93 0 0 0 .83-1.05l-1.95-13.64a.57.57 0 0 1 .47-.64l.29-.05a.41.41 0 0 1 .47.33q1.1 6.4 1.91 12.89c.52 4.26-5.2 4.27-8.46 3.83q-.43-.06-.37-.48l.03-.25a.39.38-88.9 0 1 .34-.34l6.44-.6Zm-30.8 6.04a7.73 5.35 10.6 0 1-8.58 3.84 7.73 5.35 10.6 0 1-6.62-6.68 7.73 5.35 10.6 0 1 8.58-3.84 7.73 5.35 10.6 0 1 6.62 6.68Zm65.52-2.95a7.71 5.34-11.3 0 1-6.51 6.75 7.71 5.34-11.3 0 1-8.61-3.73 7.71 5.34-11.3 0 1 6.51-6.75 7.71 5.34-11.3 0 1 8.61 3.73Zm-92.43 7.97q-1.49-5.17-6.03-8.03a1.98 1.98 0 0 0-3.01 1.33l-.4 2.22q-.52 2.94-1.43.13-.22-.69.62-2.67c2.04-4.81 7.33-1.11 9.01 1.71.79 1.31 2.58 4.69 2.76 6.55q.27 2.68-1.74.89-.96-.85-2.25-.94a1.39 1.39 0 0 0-1.39 1.89q.32.83.4 1.08.81 2.44-1.07.69-.89-.82-.78-2.35c.2-3 2.65-2.68 4.95-2.13q.51.12.36-.37Z"/><path fill="#fff" d="M173.42 155.46c-8.65 3.5-25.31 2.86-26.48-9.8a.37.36-2.8 0 1 .37-.4l33.1.01q.32 0 .31.32c-.15 4.84-2.78 8.05-7.3 9.87Z"/><path fill="#f46e48" d="M160.15 162.64q-.49-.24-.34-.76l.09-.3a.34.34 0 0 1 .47-.21q3.45 1.6 6.91.05a.45.45 0 0 1 .63.42l-.01.43a.34.34 0 0 1-.2.31q-3.77 1.87-7.55.06Z"/></svg>