<svg xmlns="http://www.w3.org/2000/svg" xml:space="preserve" viewBox="0 0 185.21 224.72"><defs><clipPath id="a" clipPathUnits="userSpaceOnUse"/></defs><path fill="none" stroke="#8ad5b6" stroke-miterlimit="10" stroke-width=".04" d="M110.82 50.4a45.4 45.4 0 0 0-3.94-18.18"/><path fill="none" stroke="#90e7bb" stroke-miterlimit="10" stroke-width=".04" d="M106.88 32.22c-3.22-8.06-8-16.08-12.74-23.22-1.43-2.15-3.7-3.15-5.4-.74C83.1 16.3 77.61 25.56 74.1 35"/><path fill="none" stroke="#8ad5b6" stroke-miterlimit="10" stroke-width=".04" d="M74.09 35a47.2 47.2 0 0 0-2.62 10.5c-.73 5.95.37 15.51 4.8 20.23.08.09 0 .22-.1.2l-2.67-.33m-2.89-1.01a96.44 96.44 0 0 0-15.75-4.27c-1.71-.3-3.39-.08-3.87 1.75a35.78 35.78 0 0 0-.65 5.81"/><path fill="none" stroke="#36c279" stroke-miterlimit="10" stroke-width=".04" d="M106.88 32.22c-.42-.23-.98-.1-1.69.38-.23.17-.82.46-1.78.87a.18.18 0 0 0-.12.19v.1c-.01.08-.05.13-.13.15l-2.09.44c-.09.02-.13.08-.14.17l-.02.19c0 .08-.11.12-.18.06l-.3-.28c-.06-.05-.15 0-.13.08l.06.2c.04.13 0 .2-.14.23l-.86.18"/><path fill="none" stroke="#78e1ae" stroke-miterlimit="10" stroke-width=".04" d="m99.36 35.18-7.98-15.73a.25.25 0 0 0-.43 0c-2.75 4.9-5.3 9.87-7.66 14.92-.3.64-.59 1.34-.84 2.08"/><path fill="none" stroke="#36c279" stroke-miterlimit="10" stroke-width=".04" d="M82.45 36.45a.88.88 0 0 1-.07-.48c0-.11-.05-.16-.15-.13-.23.04-.4.04-.52 0a8.91 8.91 0 0 0-3-.7 8.83 8.83 0 0 1-2.9-.27c-.67-.25-1.24-.2-1.72.13"/><path fill="none" stroke="#72cfa9" stroke-miterlimit="10" stroke-width=".04" d="M99.36 35.18c.51.83.6 1.42.26 1.76a118.77 118.77 0 0 0-8.26 9.38c-.08.1-.15.1-.23 0a168.9 168.9 0 0 0-8.68-9.87"/><path fill="none" stroke="#87d4b3" stroke-miterlimit="10" stroke-width=".04" d="M50.34 67.88c-.16 4.11.05 7.94 1.37 11.77"/><path fill="none" stroke="#80c4ac" stroke-miterlimit="10" stroke-width=".04" d="M51.71 79.65c3.6 9.52 11.97 12.99 21.1 15.55a41.4 41.4 0 0 1 10.27 4.44"/><path fill="none" stroke="#7ab2a3" stroke-miterlimit="10" stroke-width=".04" d="m83.08 99.64 4.04 2.69a.3.3 0 0 1 .14.26l.03 19.1c0 .15-.04.16-.14.07a94.95 94.95 0 0 0-16.19-13.24"/><path fill="none" stroke="#80c4ac" stroke-miterlimit="10" stroke-width=".04" d="M70.96 108.52a168.02 168.02 0 0 0-19.75-10.83 72.16 72.16 0 0 0-31.58-6.87c-3.46.03-2.77 3.3-2.54 5.56.81 7.7 2.58 14.7 6.78 21.1"/><path fill="none" stroke="#7ab2a3" stroke-miterlimit="10" stroke-width=".04" d="M23.87 117.49a38.03 38.03 0 0 0 20.18 16.32c4.35 1.53 9.7.92 13.94 1.28 3.86.33 7.67 1.5 11.43 3.48"/><path fill="none" stroke="#77a99e" stroke-miterlimit="10" stroke-width=".04" d="M69.42 138.57c6.67 3.76 12.25 9.52 16.76 15.75"/><path fill="none" stroke="#73a19a" stroke-miterlimit="10" stroke-width=".04" d="M86.18 154.32c.77.92 1.14 1.69 1.14 2.3l-.09 15.87"/><path fill="none" stroke="#a7dacd" stroke-miterlimit="10" stroke-width=".04" d="M87.23 172.49a38.24 38.24 0 0 0-8.18-8.08"/><path fill="none" stroke="#77a99e" stroke-miterlimit="10" stroke-width=".04" d="M79.05 164.41c-.02-1.18 0-2.42.05-3.73.12-2.74.02-4.46-1.81-6.2a4.34 4.34 0 0 0-2.55-1.18c-3.96-.45-4.27 3.5-3.99 6.42"/><path fill="none" stroke="#b5e9db" stroke-miterlimit="10" stroke-width=".04" d="M70.75 159.72c-.05.17-.14.26-.25.3-.07.01-.17-.02-.3-.12a38.84 38.84 0 0 0-11.36-5.68"/><path fill="none" stroke="#77a99e" stroke-miterlimit="10" stroke-width=".04" d="M58.84 154.22c1.7-.89 2.54-2.24 2.53-4.04-.03-3.06-1.37-3.57-4.2-4.07-6.62-1.15-13.22-2.36-19.82-3.6-2.45-.47-3.66.46-3.62 2.81.08 4.72.9 9.67 2.43 14.83a37.08 37.08 0 0 0 6.6 12.27"/><path fill="none" stroke="#73a19a" stroke-miterlimit="10" stroke-width=".04" d="M42.76 172.42a39.8 39.8 0 0 0 18.13 13.13l7.37 2.68a106 106 0 0 1 18.7 8.88c.2.12.32.34.32.58-.01 4.73-.04 9.53-.1 14.4-.02 2.29.04 4.83 2.43 5.8 2.02.82 4.4-.06 5.37-2.02a8 8 0 0 0 .51-3.24c.08-10.85.1-21.7.07-32.55 0-1.09.1-1.83.32-2.24a50.64 50.64 0 0 1 15.21-17.32c2-1.42 6.25-4.32 12.75-8.7 3.56-2.38 7.98-5.98 13.28-10.78"/><path fill="none" stroke="#7ab2a3" stroke-miterlimit="10" stroke-width=".04" d="M137.12 141.04c3.62-3.33 6.98-7.44 8.4-12.32.03-.14.12-.21.27-.2l7.95.18c.15 0 .21.07.2.22a36.06 36.06 0 0 1-3.63 11.74"/><path fill="none" stroke="#73a19a" stroke-miterlimit="10" stroke-width=".04" d="M150.3 140.66c-3.33 6.55-8.48 10.69-15.45 12.39a7.1 7.1 0 0 0-1.38.43c-2.3 1.18-2.07 5.56-.01 6.88.75.48 1.67.62 2.76.4 10.55-2.11 17.2-8.34 21.97-17.65"/><path fill="none" stroke="#7ab2a3" stroke-miterlimit="10" stroke-width=".04" d="M158.19 143.1a49.53 49.53 0 0 0 4.2-18.9c.07-3.1-1.52-3.12-4.25-3.38-9.98-.97-19.6-.4-29.18 2.56-9.2 2.86-17.68 6.95-25.36 12.81"/><path fill="none" stroke="#77a99e" stroke-miterlimit="10" stroke-width=".04" d="M103.6 136.19a85.74 85.74 0 0 0-7.87 7.03c-.1.11-.16.09-.16-.06l-.01-14.18"/><path fill="none" stroke="#7ab2a3" stroke-miterlimit="10" stroke-width=".04" d="M95.56 128.98c-.01-1.04 0-2.1.03-3.18.03-.8.45-1.2 1.06-1.6 7.47-4.81 13.02-9.61 19.76-17.03a49.24 49.24 0 0 1 11.7-9.57c.11-.06.22-.07.33-.01 8.1 3.95 17.2.76 22.46-6.3"/><path fill="none" stroke="#80c4ac" stroke-miterlimit="10" stroke-width=".04" d="M150.9 91.3a21.99 21.99 0 0 0 3.54-7.56c1.35-5.1 1.6-10.5 1.8-15.75.08-1.83-.72-2.96-2.38-3.4a76.92 76.92 0 0 0-11.84-2.1c-6.67-.68-12.52.55-18.84 2.89a152.47 152.47 0 0 0-16.23 6.94"/><path fill="none" stroke="#c9f3e9" stroke-miterlimit="10" stroke-width=".04" d="M106.95 72.32c.42-1.54.45-3.13.06-4.76a24.97 24.97 0 0 0-2.05-5.9 5.2 5.2 0 0 1-.4-.92"/><path fill="none" stroke="#87d4b3" stroke-miterlimit="10" stroke-width=".04" d="M104.56 60.74c3.44.58 5.34-.74 5.71-3.96.24-2.08.42-4.2.55-6.38"/><path fill="none" stroke="#72cfa9" stroke-miterlimit="10" stroke-width=".04" d="M104.56 60.74c-1.33-.47-2.13-1.32-2.4-2.54-.11-.48-.06-1.54.16-3.18.4-2.94.47-5.96.23-9.08-.02-.16-.22-.23-.33-.1l-4.98 5.72c-.83.95-1.71 1.86-1.7 3.1 0 4.4.04 8.82.1 13.23"/><path fill="none" stroke="#29a16c" stroke-miterlimit="10" stroke-width=".04" d="m95.64 67.89-.04-.49a.27.27 0 0 0-.18-.24c-.16-.06-.27-.02-.35.12-.05.1-.14.14-.25.12a.54.54 0 0 0-.34.06l-.35.18a58.48 58.48 0 0 0-6.61 2.79.35.35 0 0 0-.2.32l-.02 1.77c0 .32-.33.54-.63.42a240 240 0 0 1-10.25-4.47 7.15 7.15 0 0 1-2.37-2.03.22.22 0 0 1-.05-.15v-.15c0-.1-.05-.15-.15-.17-.32-.05-.44-.17-.35-.37"/><path fill="none" stroke="#6bc0a1" stroke-miterlimit="10" stroke-width=".04" d="M106.95 72.32c-3.58 1.9-7.06 3.99-10.45 6.26-.33.23-.47.51-.7.83-.12.17-.18.15-.18-.05l.02-11.47"/><path fill="none" stroke="#29a16c" stroke-miterlimit="10" stroke-width=".04" d="M70.61 64.59c-1.1.62-2.13 1.4-3.08 2.3l-.16.21a.33.33 0 0 1-.3.14.51.51 0 0 0-.32.1c-.93.67-1.8 1.4-2.63 2.2-.25.24-.24.44-.38.74a.21.21 0 0 1-.21.13h-.39c-.1 0-.14.12-.07.19.15.12.19.23.1.33"/><path fill="none" stroke="#87d4b3" stroke-miterlimit="10" stroke-width=".04" d="m63.17 70.93-4.48-1.22c-.12-.04-.18 0-.19.13a17.2 17.2 0 0 0 2.32 9.75"/><path fill="none" stroke="#29a16c" stroke-miterlimit="10" stroke-width=".04" d="m60.82 79.59-2.76.1a.52.52 0 0 0-.31.12c-.51.43-.84.44-1.55.27a2.55 2.55 0 0 0-1.68.16.74.74 0 0 1-.3.07 2.14 2.14 0 0 1-1.65-.6c-.17-.17-.26-.13-.26.1v.13c0 .09-.13.11-.17.03-.1-.24-.25-.35-.43-.32"/><path fill="none" stroke="#1c7f5c" stroke-miterlimit="10" stroke-width=".04" d="M150.9 91.3c-1.51-.06-2.79-.3-3.85-.73-.06-.03-.04-.11.02-.11h.19c.15 0 .16-.03.02-.1a.62.62 0 0 0-.42-.02.4.4 0 0 1-.3-.05.63.63 0 0 1-.32-.47.25.25 0 0 0-.19-.23 13.8 13.8 0 0 0-3.66-.65"/><path fill="none" stroke="#80c4ac" stroke-miterlimit="10" stroke-width=".04" d="M142.39 88.94c4.64-4.42 5.18-10.69 5.41-16.73 0-.12-.05-.2-.16-.23-3.1-1-6.27-1.55-9.49-1.63-2.86-.07-5.16.3-6.89 1.1-5.6 2.6-6.63 9.98-3.62 15.14"/><path fill="none" stroke="#1c7f5c" stroke-miterlimit="10" stroke-width=".04" d="M127.64 86.59c-.42.06-.77.23-1.05.5-.73.7-1.57 1.2-2.29 1.9-.44.43-.9.3-1.29.88a.22.22 0 0 1-.26.08c-.4-.16-.66-.05-.77.34-.03.1 0 .14.06.16.08.02.12.08.12.16-.02.27-.17.39-.44.35a.18.18 0 0 0-.2.2l.05.64"/><path fill="none" stroke="#6bc0a1" stroke-miterlimit="10" stroke-width=".04" d="M119.46 88.36a17.56 17.56 0 0 1-1.4-10.31"/><path fill="none" stroke="#80c4ac" stroke-miterlimit="10" stroke-width=".04" d="m118.07 78.05.32-1.86c.04-.27-.06-.35-.3-.24a97.52 97.52 0 0 0-12.83 6.69 270.55 270.55 0 0 0-9.24 6.01c-.29.2-.46.51-.46.86v2.97"/><path fill="none" stroke="#1c7f5c" stroke-miterlimit="10" stroke-width=".04" d="M95.56 92.48c-.37.1-.66.3-.87.6a.51.51 0 0 1-.24.2c-.97.33-1.62.6-1.97.78-.1.06-.2.18-.3.37-.01.04-.03.04-.07.03-.18-.1-.4-.08-.64.05a91.53 91.53 0 0 0-5.58 3.3c-.56.35-.8.92-1.42 1.3-.05.02-.05.06-.02.1l.11.1a.1.1 0 0 1-.02.18l-.25.15c-.02 0-.02 0-.02-.02l.1-.2c.02-.06-.05-.11-.1-.06-.33.33-.61.38-.85.14-.07-.07-.14-.08-.22-.02a.44.44 0 0 0-.12.16"/><path fill="none" stroke="#80c4ac" stroke-miterlimit="10" stroke-width=".04" d="M60.82 79.59a23.79 23.79 0 0 0 10.17 6.74"/><path fill="none" stroke="#6bc0a1" stroke-miterlimit="10" stroke-width=".04" d="M71 86.33c1.05.55 2.04.9 2.95 1.07 4.86.92 9.23 2.72 13.11 5.4.13.08.19.05.19-.1l.14-10.86c0-.2-.11-.37-.3-.44a184.9 184.9 0 0 1-17.12-7.76 62.9 62.9 0 0 0-2.93-1.3"/><path fill="none" stroke="#c9f3e9" stroke-miterlimit="10" stroke-width=".04" d="M67.04 72.34a13.4 13.4 0 0 0-1.12 5.17c-.08 3.37 2.12 6.35 4.84 8.22.36.25.44.45.23.6"/><path fill="none" stroke="#7ab2a3" stroke-miterlimit="10" stroke-width=".04" d="M142.39 88.94c-4.9 3.8-11.44 2.92-14.75-2.35"/><path fill="none" stroke="#c9f3e9" stroke-miterlimit="10" stroke-width=".04" d="M118.07 78.05h-.86c-.11 0-.2.05-.28.13-4.22 4.62-8.34 8.66-11.26 14.3-.15.3-.2.69-.14 1.16m-1.38 1.57a24.43 24.43 0 0 0-7.37 6.89c-.1.15-.29.5-.54 1.01-.18.36-.4.68-.65.97"/><path fill="none" stroke="#a0e5d1" stroke-miterlimit="10" stroke-width=".04" d="M119.46 88.36a113.64 113.64 0 0 0-7.47 2.24 63.21 63.21 0 0 0-6.46 3.04"/><path fill="none" stroke="#13644e" stroke-miterlimit="10" stroke-width=".04" d="M95.56 128.98a3.14 3.14 0 0 0-.47 2.21c.02.13-.03.2-.15.24a93 93 0 0 0-2.73.8c-.2.05-.37.08-.48.07a.68.68 0 0 0-.32.04l-3.26 1.33c-.1.05-.2.03-.26-.06-.02-.03-.05-.05-.1-.06-.11-.02-.19.03-.22.14l-.3.9"/><path fill="none" stroke="#44957d" stroke-miterlimit="10" stroke-width=".04" d="M87.27 134.58c.15-.99.04-1.67-.34-2.04-4.13-4.1-9.13-8.6-15-13.48-.13-.1-.18-.07-.17.09.03.41.14.83.32 1.24a135.4 135.4 0 0 0 7.24 13.93"/><path fill="none" stroke="#13644e" stroke-miterlimit="10" stroke-width=".04" d="M79.32 134.32c-.57-.14-.99-.1-1.26.1-.1.07-.2.1-.33.09a1.7 1.7 0 0 0-1.1.28c-.09.06-.2.1-.3.1-.86-.02-1.6.07-2.2.26-.96.32-2.05.84-3.3 1.57-.03.03-.06.02-.08-.03a.23.23 0 0 1-.01-.12c0-.06-.09-.1-.12-.03l-1 1.75c-.02.03-.03.02-.04 0a.98.98 0 0 0-.04-.1.05.05 0 0 0-.09 0 .62.62 0 0 0-.03.38"/><path fill="none" stroke="#1c7f5c" stroke-miterlimit="10" stroke-width=".04" d="M23.87 117.49c1.48-.2 2.97.06 4.46.79.1.05.18.02.23-.09l.08-.2c.04-.12.13-.16.24-.13l1.99.6c.05.02.08.06.08.12v.12c0 .09.1.13.16.07.53-.46 1.1-.53 1.73-.2.1.04.2.06.3.04l1.43-.2"/><path fill="none" stroke="#51a48b" stroke-miterlimit="10" stroke-width=".04" d="M34.57 118.4c3.77 4.2 8.9 7.63 14.55 8.51 3.1.48 7.97.03 11.51.53 2.27.32 4.44.85 6.51 1.6a.2.2 0 0 0 .25-.3c-2.25-4.26-4.49-9.36-4.2-14.19"/><path fill="none" stroke="#1c7f5c" stroke-miterlimit="10" stroke-width=".04" d="M63.19 114.55a2.2 2.2 0 0 0-.03-1.4c-.02-.04 0-.07.03-.1.03 0 .06-.02.1-.04.06-.03.09-.08.06-.15-.09-.24-.03-.43.17-.58.07-.06.15-.06.23 0 .17.1.35.14.55.1a.23.23 0 0 0 .16-.12c.12-.21.1-.38-.07-.52-.12-.1-.03-.29.12-.27.27.05.5-.04.66-.25.09-.1.2-.18.33-.23l1.21-.44a.4.4 0 0 0 .25-.24c.04-.1.05-.19.04-.28 0-.04.01-.07.05-.08l.37-.12c.02-.01.03-.02.01-.04l-.08-.08c-.06-.07-.04-.18.05-.21l2-.78a.7.7 0 0 0 .25-.2c.08-.1.18-.16.3-.21.03-.01.04 0 .04.01 0 .05.02.1.04.13.06.13.13.14.2.03l.07-.09a.12.12 0 0 1 .2.02c.09.17.24.2.46.1"/><path fill="none" stroke="#51a48b" stroke-miterlimit="10" stroke-width=".04" d="m95.51 113.02.04 2.51c0 .12.15.17.23.09.25-.27.33-.5.62-.73 6.92-5.31 12.05-11.02 17.81-16.87a36.48 36.48 0 0 1 7.37-5.56.28.28 0 0 0 .14-.3.86.86 0 0 0-.15-.36"/><path fill="none" stroke="#a0e5d1" stroke-miterlimit="10" stroke-width=".04" d="M95.51 113.02c.19.18.34.29.47.31.12.03.23-.07.32-.29a324.05 324.05 0 0 1 7.85-17.83"/><path fill="none" stroke="#57b694" stroke-miterlimit="10" stroke-width=".04" d="M63.19 114.55c.15-.63.03-1.08-.35-1.34a107.35 107.35 0 0 0-17.46-9.25c-3-1.28-5.76-2.26-8.29-2.94"/><path fill="none" stroke="#80c4ac" stroke-miterlimit="10" stroke-width=".04" d="M37.1 101.02a60.3 60.3 0 0 0-11.17-1.8c-.12-.02-.17.04-.16.16a34 34 0 0 0 6.96 16.87"/><path fill="none" stroke="#b5e9db" stroke-miterlimit="10" stroke-width=".04" d="M37.1 101.02a36.14 36.14 0 0 0 12.07 16.07.1.1 0 0 1 .03.13l-.07.12c-.06.11-.15.15-.26.1-.3-.12-.73-.2-1.29-.24-5.58-.4-9.66-.63-12.26-.7a7.8 7.8 0 0 1-2-.53c-.11-.04-.2-.02-.27.09-.06.1-.17.16-.32.19"/><path fill="none" stroke="#418c78" stroke-miterlimit="10" stroke-width=".04" d="m87.27 134.58-.11 8.48c0 .26-.09.29-.25.1-2.54-3.02-5.45-5.61-7.6-8.84"/><path fill="none" stroke="#0f5c4a" stroke-miterlimit="10" stroke-width=".04" d="M158.19 143.1a.67.67 0 0 0-.27-.16.2.2 0 0 0-.25.21c.07.7-.27 1.02-1 .97a.44.44 0 0 0-.42.66c.13.23.1.43-.1.6a.12.12 0 0 1-.13.04c-.38-.16-.7-.08-.96.23-.06.08-.12.08-.2 0a.32.32 0 0 0-.16-.1c-.08-.02-.18 0-.29.06-.77.4-1.59.68-2.47.83-.1.02-.14-.03-.15-.12l-.37-4.2a.36.36 0 0 0-.15-.27c-.29-.21-.36-.46-.2-.75.06-.14.02-.23-.13-.27l-.63-.17m-13.2.38a.96.96 0 0 0-.66.25c-.05.04-.07.03-.07-.03v-.16c-.01-.14-.08-.2-.22-.17-.5.1-1.01.15-1.52.14a23.41 23.41 0 0 1-3.48-.34c-.06.04-.11.04-.15-.02a.2.2 0 0 0-.15-.1l-4.94-.53"/><path fill="none" stroke="#44957d" stroke-miterlimit="10" stroke-width=".04" d="M125.92 140.08c.17-.1.3-.21.38-.34"/><path fill="none" stroke="#51a48b" stroke-miterlimit="10" stroke-width=".04" d="M126.3 139.74a82.1 82.1 0 0 0 10.95-9.93c.08-.08 0-.21-.1-.19a73.5 73.5 0 0 0-15.7 5.02"/><path fill="none" stroke="#13644e" stroke-miterlimit="10" stroke-width=".04" d="M121.44 134.64c-.47-.24-.93-.17-1.38.2a.23.23 0 0 1-.25.04c-.16-.07-.3-.02-.41.15-.05.06-.03.1.04.1.04.02.05.04.02.06l-.14.14c-.04.04-.07.03-.1-.01l-.12-.2c-.05-.08-.12-.12-.22-.1l-1.69.42c-.04.01-.07.04-.06.09 0 .05.02.09.06.11.02.02.02.03 0 .05-.38.27-.8.4-1.23.38a.7.7 0 0 1-.21-.05.54.54 0 0 0-.37-.01.7.7 0 0 1-.25.04c-.5-.02-1 .02-1.5.13-.5.1-.94.15-1.33.12-.98-.08-1.97-.04-2.95.1-.1.02-.2.02-.3 0a.87.87 0 0 0-.7.12.31.31 0 0 1-.22.05l-2.5-.37a.48.48 0 0 1-.2-.07.35.35 0 0 0-.3-.02.35.35 0 0 1-.26-.01c-.27-.12-.52-.06-.74.19a.23.23 0 0 1-.25.07.74.74 0 0 1-.28-.17"/><path fill="none" stroke="#4e9b86" stroke-miterlimit="10" stroke-width=".04" d="M121.44 134.64a69.3 69.3 0 0 0-12 7.04"/><path fill="none" stroke="#418c78" stroke-miterlimit="10" stroke-width=".04" d="M109.43 141.68A112.8 112.8 0 0 0 96.6 153c-1.1 1.13-1.14 2.08-.9 3.56"/><path fill="none" stroke="#0c5345" stroke-miterlimit="10" stroke-width=".04" d="m95.61 156.9-.36-2.42a.33.33 0 0 1 .1-.28c.19-.18.22-.38.1-.6l-.25-.47a4.8 4.8 0 0 1-.23-1.26c0-.07-.03-.12-.1-.14-.06-.02-.1-.07-.12-.14-.02-.08-.01-.13.02-.17.03-.04.02-.07 0-.1-.21-.18-.39-.27-.53-.27a54.96 54.96 0 0 0-5.6.01.28.28 0 0 0-.26.18l-.21.53c-.06.13-.15.15-.27.07-.23-.16-.48-.12-.74.1a.32.32 0 0 0-.11.23.27.27 0 0 1-.08.16.03.03 0 0 0-.01.05c.01.01.03.02.05 0 .04 0 .08-.03.12-.05.05-.02.08 0 .09.05l.1.73c.04.32-.04.35-.25.1l-.11-.13c-.07-.09-.15-.1-.22-.01-.36.34-.44.66-.26.96.07.1.05.19-.07.25a.63.63 0 0 1-.23.04"/><path fill="none" stroke="#7fccb5" stroke-miterlimit="10" stroke-width=".04" d="M126.3 139.74a26.58 26.58 0 0 0-5.89.3c-.46.07-.97.05-1.55-.04a7.06 7.06 0 0 0-3.11.16c-.95.26-1.94.36-2.87.79a.5.5 0 0 1-.35.03c-1.18-.27-1.91.57-2.72 1.19-.16.12-.4 0-.39-.2l.01-.3"/><path fill="none" stroke="#3d8474" stroke-miterlimit="10" stroke-width=".04" d="M125.92 140.08a166.42 166.42 0 0 1-17.72 12.78c-.74.46-2.34 1.64-4.8 3.53"/><path fill="none" stroke="#4aa785" stroke-miterlimit="10" stroke-width=".04" d="M103.4 156.4a24 24 0 0 0-6.88.18c-.34.06-.61.06-.83-.02"/><path fill="none" stroke="#0c5345" stroke-miterlimit="10" stroke-width=".04" d="M42.76 172.42c.2-.15.43-.28.68-.38.23-.1.48-.13.76-.1.86.11 1.66.38 2.4.82a1 1 0 0 0 1.02.03c.7-.33 1.4-.7 2.07-1.1a.32.32 0 0 1 .28-.04l3.02.95c.1.04.19.02.28-.04l.25-.17"/><path fill="none" stroke="#3d8474" stroke-miterlimit="10" stroke-width=".04" d="M53.52 172.4c5.22 4.31 10.79 6.05 17.44 8.3.73.25 1.33.55 2 .97.17.12.22.07.15-.12a35 35 0 0 1-2.12-11.2"/><path fill="none" stroke="#0c5345" stroke-miterlimit="10" stroke-width=".04" d="M70.91 169.07c.48.22.71.66.7 1.33 0 .2.29.27.38.09a.53.53 0 0 1 .09-.11c.05-.05.1-.06.14-.01.32.26.7.37 1.1.32.12-.02.22.02.29.11l.07.1c.1.12.18.13.28.02.18-.2.37-.38.6-.54h.02c.04.03.05.06.03.1-.04.07-.02.1.06.09.3-.05.56-.18.77-.38.7-.7 1.42-.8 2.4-.61.12.02.25-.06.28-.19.2-.7.5-1.25.91-1.65"/><path fill="none" stroke="#3d8474" stroke-miterlimit="10" stroke-width=".04" d="M79.03 167.74c.05 6.11.86 12.4 5.1 17.23.74.83 1.66 1.77 2.78 2.83.12.1.17.08.17-.08l.15-15.23"/><path fill="none" stroke="#156e53" stroke-miterlimit="10" stroke-width=".04" d="m95.61 156.9-.03 6.97c0 .17.05.19.16.06a68.36 68.36 0 0 1 7.67-7.54"/><path fill="none" stroke="#4e9b86" stroke-miterlimit="10" stroke-width=".04" d="M58.84 154.22a68.2 68.2 0 0 1-6.76-.89 504 504 0 0 1-9.59-1.82c-.13-.02-.19.03-.16.16.6 3.75 1.73 7.3 3.39 10.67"/><path fill="none" stroke="#418c78" stroke-miterlimit="10" stroke-width=".04" d="M45.72 162.34a31.62 31.62 0 0 0 7.8 10.05"/><path fill="none" stroke="#7fccb5" stroke-miterlimit="10" stroke-width=".04" d="M70.99 170.36c-.4.57-.87.85-1.4.84a13.8 13.8 0 0 0-3.44.14c-.52.1-1-.1-1.45-.63a46.53 46.53 0 0 1-6.74-10.32.29.29 0 0 0-.26-.17c-1.96.04-3.88.2-5.75.5-.45.07-1.12.1-2.02.09a6.28 6.28 0 0 0-4.21 1.53"/><path fill="#3bd37e" d="M106.88 32.22c-.42-.23-.98-.1-1.69.38-.23.17-.82.46-1.78.87a.18.18 0 0 0-.12.19v.1c-.01.08-.05.13-.13.15l-2.09.44c-.09.02-.13.08-.14.17l-.02.19c0 .08-.11.12-.18.06l-.3-.28c-.06-.05-.15 0-.13.08l.06.2c.04.13 0 .2-.14.23l-.86.18-7.98-15.73a.25.25 0 0 0-.43 0c-2.75 4.9-5.3 9.87-7.66 14.92-.3.64-.59 1.34-.84 2.08a.88.88 0 0 1-.07-.48c0-.11-.05-.16-.15-.13-.23.04-.4.04-.52 0a8.91 8.91 0 0 0-3-.7 8.83 8.83 0 0 1-2.9-.27c-.67-.25-1.24-.2-1.72.13 3.52-9.43 9-18.7 14.65-26.74 1.7-2.4 3.97-1.4 5.4.74 4.74 7.14 9.52 15.16 12.74 23.22"/><path fill="#b4eede" d="M99.36 35.18c.51.83.6 1.42.26 1.76a118.77 118.77 0 0 0-8.26 9.38c-.08.1-.15.1-.23 0a168.9 168.9 0 0 0-8.68-9.87c.25-.74.53-1.44.84-2.08a227.25 227.25 0 0 1 7.66-14.92c.1-.18.34-.17.43 0l7.98 15.73"/><path fill="#30b073" d="M106.88 32.22c2.6 5.93 3.91 12 3.94 18.18-.13 2.17-.3 4.3-.55 6.38-.37 3.22-2.27 4.54-5.7 3.96-1.34-.47-2.14-1.32-2.41-2.54-.11-.48-.06-1.54.16-3.18.4-2.94.47-5.96.23-9.08-.02-.16-.22-.23-.33-.1l-4.98 5.72c-.83.95-1.71 1.86-1.7 3.1 0 4.4.04 8.82.1 13.23l-.04-.49a.27.27 0 0 0-.18-.24c-.16-.06-.27-.02-.35.12-.05.1-.14.14-.25.12a.54.54 0 0 0-.34.06l-.35.18a58.48 58.48 0 0 0-6.61 2.79.35.35 0 0 0-.2.32l-.02 1.77c0 .32-.33.54-.63.42a240 240 0 0 1-10.25-4.47 7.15 7.15 0 0 1-2.37-2.03.22.22 0 0 1-.05-.15v-.15c0-.1-.05-.15-.15-.17-.32-.05-.44-.17-.35-.37l2.66.34c.12.01.19-.12.11-.2-4.43-4.73-5.53-14.29-4.8-20.25A47.2 47.2 0 0 1 74.09 35c.48-.33 1.05-.37 1.71-.12.55.21 1.52.3 2.91.28.72-.01 1.72.22 3 .7.11.03.29.03.52-.01.1-.03.16.02.15.13a.8.8 0 0 0 .07.48 168.9 168.9 0 0 1 8.68 9.87c.08.1.15.1.23 0 2.58-3.26 5.34-6.39 8.26-9.38.34-.34.25-.93-.26-1.76l.86-.18c.13-.02.18-.1.14-.22l-.06-.21c-.02-.08.07-.13.13-.08l.3.28c.07.06.17.02.18-.06l.02-.2c0-.08.05-.14.14-.16l2.09-.44c.08-.02.12-.07.13-.15v-.1c0-.09.04-.15.12-.19.96-.41 1.55-.7 1.78-.87.71-.49 1.27-.61 1.7-.38"/><path fill="none" stroke="#c9f3e9" stroke-miterlimit="10" d="M4873.1 6915.8c-1.1-4.6-3.6-7.1-7.7-7.4-3.1-.3-5.6.9-7.4 3.4-2.7 3.8-6.1 5.3-10.2 4.4-3.3-.6-5.3-2.5-6.2-5.7l-50.3-178.5" clip-path="url(#a)" transform="matrix(.03527778 0 0 -.03527778 -88.59 293.67)"/><path fill="#ddf7f3" d="M83.32 49.7c-.04.16-.12.25-.27.26a.27.27 0 0 1-.26-.12c-.1-.13-.22-.19-.36-.15a.26.26 0 0 0-.22.2l-1.77 6.3a34.7 34.7 0 0 1-.9-10.65c.01-.04.06-.06.1-.03l3.68 4.19"/><path fill="#b4eede" d="M104.56 60.74c.1.32.23.62.4.93a24.86 24.86 0 0 1 2.05 5.9 9.46 9.46 0 0 1-.06 4.75c-3.58 1.9-7.06 3.99-10.45 6.26-.33.23-.47.51-.7.83-.12.17-.18.15-.18-.05l.02-11.47c-.06-4.41-.1-8.82-.1-13.23-.01-1.24.87-2.15 1.7-3.1l4.98-5.73c.11-.12.31-.05.33.1.24 3.13.16 6.15-.23 9.09-.22 1.64-.27 2.7-.16 3.18.27 1.22 1.07 2.07 2.4 2.54M83.32 49.7l3.83 4.05c.17.19.26.43.26.68l-.14 7.32c0 .17-.18.28-.33.2a61 61 0 0 1-3.43-1.77 5.7 5.7 0 0 1-3.07-4l1.77-6.3c.03-.1.1-.17.22-.2.14-.03.26.03.36.16.06.09.15.13.26.12.15-.01.23-.1.27-.26"/><path fill="#30b073" d="M70.61 64.59c-1.1.62-2.13 1.4-3.08 2.3l-.16.21a.33.33 0 0 1-.3.14.51.51 0 0 0-.32.1c-.93.67-1.8 1.4-2.63 2.2-.25.24-.24.44-.38.74a.21.21 0 0 1-.21.13h-.39c-.1 0-.14.12-.07.19.15.12.19.23.1.33l-4.48-1.22c-.12-.04-.18.01-.19.13a17.2 17.2 0 0 0 2.32 9.75l-2.76.1a.52.52 0 0 0-.31.12c-.51.43-.84.44-1.55.27a2.55 2.55 0 0 0-1.68.16.74.74 0 0 1-.3.07 2.14 2.14 0 0 1-1.65-.6c-.17-.17-.26-.13-.26.1v.13c0 .09-.13.11-.17.03-.1-.24-.25-.35-.43-.32-1.32-3.83-1.53-7.66-1.37-11.77.17-2.84.39-4.78.65-5.81.48-1.83 2.16-2.06 3.87-1.74a95.9 95.9 0 0 1 15.75 4.26"/><path fill="#229164" d="M150.9 91.3c-1.51-.06-2.79-.3-3.85-.73-.06-.03-.04-.11.02-.11h.19c.15 0 .16-.03.02-.1a.62.62 0 0 0-.42-.02.4.4 0 0 1-.3-.05.63.63 0 0 1-.32-.47.25.25 0 0 0-.19-.23 13.8 13.8 0 0 0-3.66-.65c4.64-4.42 5.18-10.69 5.41-16.73 0-.12-.05-.2-.16-.23-3.1-1-6.27-1.55-9.49-1.63-2.86-.07-5.16.3-6.89 1.1-5.6 2.6-6.63 9.98-3.62 15.14-.42.06-.77.23-1.05.5-.73.7-1.57 1.2-2.29 1.9-.44.43-.9.3-1.29.88a.22.22 0 0 1-.26.08c-.4-.16-.66-.05-.77.34-.03.1 0 .14.06.16.08.02.12.08.12.16-.02.27-.17.39-.44.35a.18.18 0 0 0-.2.2l.05.64-2.11-3.44a17.56 17.56 0 0 1-1.4-10.31l.33-1.86c.04-.27-.06-.35-.3-.24a97.52 97.52 0 0 0-12.83 6.69 270.55 270.55 0 0 0-9.24 6.01c-.29.2-.46.51-.46.86v2.97c-.37.1-.66.3-.87.6a.51.51 0 0 1-.24.2c-.97.33-1.62.6-1.97.78-.1.06-.2.18-.3.37-.01.04-.03.04-.07.03-.18-.1-.4-.08-.64.05a91.53 91.53 0 0 0-5.58 3.3c-.56.35-.8.92-1.42 1.3-.05.02-.05.06-.02.1l.11.1a.1.1 0 0 1-.02.18l-.25.15c-.02 0-.02 0-.02-.02l.1-.2c.02-.06-.05-.11-.1-.06-.33.33-.61.38-.85.14-.07-.07-.14-.08-.22-.02a.44.44 0 0 0-.12.16A41.4 41.4 0 0 0 72.8 95.2c-9.13-2.56-17.5-6.03-21.1-15.55.18-.03.32.08.43.32.04.08.17.06.17-.03v-.13c0-.23.1-.27.26-.1.44.43 1 .63 1.66.6.1 0 .2-.02.29-.07.53-.24 1.1-.3 1.68-.16.7.17 1.04.16 1.55-.27.09-.08.2-.12.31-.12l2.76-.1a23.79 23.79 0 0 0 10.17 6.74c1.06.55 2.05.9 2.96 1.07 4.86.92 9.23 2.72 13.11 5.4.13.08.19.05.19-.1l.14-10.86c0-.2-.11-.37-.3-.44a184.9 184.9 0 0 1-17.12-7.76 62.9 62.9 0 0 0-2.93-1.3l-3.87-1.4c.09-.1.05-.22-.1-.34-.07-.07-.03-.2.07-.2h.39c.1 0 .16-.03.2-.12.15-.3.14-.5.39-.74.82-.8 1.7-1.53 2.63-2.2.1-.07.2-.1.33-.1.12 0 .21-.04.29-.14l.16-.2c.95-.92 1.97-1.69 3.08-2.31l2.89 1.01c-.1.2.03.32.35.37.1.02.15.07.15.17v.15c0 .05.02.1.05.15.83 1 1.62 1.68 2.37 2.03 3.46 1.6 6.87 3.1 10.25 4.47.3.12.63-.1.63-.42l.02-1.77c0-.15.07-.25.2-.32 2.15-1.07 4.36-2 6.6-2.8.03 0 .14-.06.36-.17a.5.5 0 0 1 .34-.06c.11.02.2-.02.25-.12.08-.14.2-.18.35-.12.1.05.16.13.18.24l.04.49-.02 11.47c0 .2.06.22.18.05.23-.32.37-.6.7-.83 3.39-2.27 6.87-4.36 10.45-6.26 4.43-2.26 9.84-4.58 16.23-6.94 6.32-2.34 12.17-3.57 18.84-2.89 4.16.42 8.1 1.12 11.84 2.1 1.66.44 2.46 1.57 2.38 3.4-.2 5.25-.45 10.64-1.8 15.75a21.99 21.99 0 0 1-3.54 7.56"/><path fill="#ddf7f3" d="m63.17 70.93 3.87 1.41a13.4 13.4 0 0 0-1.12 5.17c-.08 3.37 2.12 6.35 4.84 8.22.36.25.44.45.23.6a23.79 23.79 0 0 1-10.17-6.74 17.17 17.17 0 0 1-2.32-9.75c.01-.12.07-.17.19-.13l4.48 1.22m79.22 18.01c-4.9 3.8-11.44 2.92-14.75-2.35-3-5.16-1.98-12.55 3.62-15.14 1.73-.8 4.03-1.17 6.9-1.1 3.21.08 6.38.62 9.48 1.63.11.04.17.11.16.23-.23 6.04-.77 12.31-5.41 16.73"/><path fill="#b4eede" d="M67.04 72.34a62.9 62.9 0 0 1 2.93 1.3A184.9 184.9 0 0 0 87.1 81.4c.18.07.3.25.29.44l-.14 10.86c0 .15-.06.18-.19.1a33.76 33.76 0 0 0-13.1-5.4 11.1 11.1 0 0 1-2.97-1.07c.2-.15.13-.35-.23-.6-2.72-1.87-4.92-4.85-4.84-8.22.04-1.87.42-3.6 1.12-5.17"/><path fill="#229164" d="M136.03 84.38a4.53 4.53 0 0 1-4.04-4.96 4.53 4.53 0 0 1 4.79-4.26 4.53 4.53 0 0 1 4.04 4.97 4.53 4.53 0 0 1-4.79 4.25"/><path fill="#ddf7f3" d="M118.07 78.05h-.86c-.11 0-.2.05-.28.13-4.22 4.62-8.34 8.66-11.26 14.3-.15.3-.2.69-.14 1.16l-1.38 1.57a24.43 24.43 0 0 0-7.37 6.89c-.1.15-.29.5-.54 1.01-.18.36-.4.68-.65.97l-.03-11.6v-2.97c0-.35.17-.67.46-.86 2.98-2.03 6.06-4.03 9.24-6.01a97.52 97.52 0 0 1 12.82-6.7c.25-.1.35-.02.3.25l-.31 1.86"/><path fill="#b4eede" d="M118.07 78.05c-.6 3.47-.13 6.91 1.39 10.31a113.64 113.64 0 0 0-7.47 2.24 63.21 63.21 0 0 0-6.46 3.04c-.06-.47-.01-.86.14-1.15 2.92-5.65 7.04-9.69 11.26-14.31a.38.38 0 0 1 .28-.12l.86-.01"/><path fill="#166d53" d="M127.64 86.59c3.31 5.27 9.86 6.15 14.75 2.35 1.25.05 2.47.27 3.66.65.11.04.18.11.19.23.02.2.13.35.32.47.09.05.2.07.3.05a.62.62 0 0 1 .42.03c.14.06.13.09-.02.09h-.19c-.06 0-.08.08-.02.1 1.06.43 2.34.68 3.85.74-5.27 7.05-14.36 10.24-22.46 6.29a.32.32 0 0 0-.33.01 49.24 49.24 0 0 0-11.7 9.57c-6.74 7.42-12.3 12.22-19.76 17.02-.61.4-1.03.81-1.06 1.61a87.6 87.6 0 0 0-.03 3.18 3.14 3.14 0 0 0-.47 2.21c.02.13-.03.2-.15.24a93 93 0 0 0-2.73.8c-.2.05-.37.08-.48.07a.68.68 0 0 0-.32.04l-3.26 1.33c-.1.05-.2.03-.26-.06-.02-.03-.05-.05-.1-.06-.11-.02-.19.03-.22.14l-.3.9c.15-1 .04-1.68-.34-2.05-4.13-4.1-9.13-8.6-15-13.48-.13-.1-.18-.07-.17.09.03.41.14.83.32 1.24a135.4 135.4 0 0 0 7.24 13.93c-.57-.14-.99-.1-1.26.1-.1.07-.2.1-.33.09a1.7 1.7 0 0 0-1.1.28c-.09.06-.2.1-.3.1-.86-.02-1.6.07-2.2.26-.96.32-2.05.84-3.3 1.57-.03.03-.06.02-.08-.03a.25.25 0 0 1-.01-.12c0-.06-.09-.1-.12-.03l-1 1.75c-.02.03-.03.02-.04 0a.98.98 0 0 0-.04-.1.05.05 0 0 0-.09 0 .62.62 0 0 0-.03.38A29.76 29.76 0 0 0 58 135.1c-4.24-.36-9.59.25-13.94-1.28a38.03 38.03 0 0 1-20.18-16.32c1.48-.2 2.97.06 4.46.79.1.05.18.02.23-.09l.08-.2c.04-.12.13-.16.24-.13l1.99.6c.05.02.08.06.08.12v.12c0 .09.1.13.16.07.53-.46 1.1-.53 1.73-.2.1.04.2.06.3.04l1.43-.2c3.77 4.2 8.9 7.62 14.55 8.5 3.1.48 7.97.03 11.51.53 2.27.32 4.44.85 6.51 1.6a.2.2 0 0 0 .25-.3c-2.25-4.26-4.49-9.36-4.2-14.19a2.2 2.2 0 0 0-.03-1.4c-.02-.04 0-.07.03-.1.03 0 .06-.02.1-.04.06-.03.09-.08.06-.15-.09-.24-.03-.43.17-.58.07-.06.15-.06.23 0 .17.1.35.14.55.1a.23.23 0 0 0 .16-.12c.12-.21.1-.38-.07-.52-.12-.1-.03-.29.12-.27.27.05.5-.04.66-.25.09-.1.2-.18.33-.23l1.21-.44a.4.4 0 0 0 .25-.24c.04-.1.05-.19.04-.28 0-.04.01-.07.05-.08l.37-.12c.02-.01.03-.02.01-.04l-.08-.08c-.06-.07-.04-.18.05-.21l2-.78a.7.7 0 0 0 .25-.2c.08-.1.18-.16.3-.21.03-.01.04 0 .04.01 0 .05.02.1.04.13.06.13.13.14.2.03l.07-.09a.12.12 0 0 1 .2.02c.09.17.24.2.46.1a94.95 94.95 0 0 1 16.19 13.25c.1.1.14.08.14-.06l-.03-19.11a.3.3 0 0 0-.14-.26l-4.04-2.7a.44.44 0 0 1 .12-.15c.08-.06.15-.05.22.02.24.24.52.2.85-.14.05-.05.12 0 .1.06l-.1.2c0 .02 0 .03.02.02l.25-.15a.1.1 0 0 0 .02-.17l-.1-.12c-.04-.03-.04-.07 0-.1.62-.37.87-.94 1.43-1.3a91.53 91.53 0 0 1 5.58-3.3c.24-.12.46-.14.64-.04.04.01.06 0 .08-.03.09-.19.18-.31.29-.37.35-.19 1-.45 1.97-.79.1-.03.18-.1.24-.19.21-.3.5-.5.87-.6l.03 11.6-.08 8.94.04 2.51c0 .12.15.17.23.09.25-.27.33-.5.62-.73 6.92-5.31 12.05-11.02 17.81-16.87a36.48 36.48 0 0 1 7.37-5.56.28.28 0 0 0 .14-.3.86.86 0 0 0-.15-.36l-.05-.65c-.01-.11.09-.2.2-.19.27.04.42-.08.44-.35 0-.08-.04-.14-.12-.16-.07-.02-.09-.07-.06-.16.11-.39.37-.5.77-.34.1.04.2 0 .26-.08.38-.57.85-.45 1.3-.88.71-.7 1.55-1.2 2.28-1.9.28-.27.63-.44 1.05-.5"/><path fill="#8cdbc3" d="m119.46 88.36 2.1 3.44c.1.13.14.25.16.37.02.12-.03.22-.14.29a36.48 36.48 0 0 0-7.37 5.56c-5.76 5.85-10.89 11.56-17.81 16.87-.29.22-.37.46-.62.73a.13.13 0 0 1-.23-.09l-.04-2.51c.19.18.34.29.47.31.12.03.23-.07.32-.29a324.05 324.05 0 0 1 7.85-17.83l1.38-1.57a63.21 63.21 0 0 1 6.46-3.04c1.2-.45 3.7-1.2 7.47-2.24"/><path fill="#229164" d="M70.96 108.52c-.22.1-.37.06-.46-.11a.12.12 0 0 0-.2-.02l-.06.09c-.08.1-.15.1-.21-.03a.4.4 0 0 1-.04-.13c0-.02-.01-.02-.03-.01a.68.68 0 0 0-.3.21.64.64 0 0 1-.27.2l-2 .78c-.08.03-.1.14-.04.21l.08.08c.02.02.01.03-.01.04l-.37.12c-.04.01-.06.04-.05.08.01.09 0 .18-.04.28a.4.4 0 0 1-.25.24l-1.21.44a.76.76 0 0 0-.33.23.65.65 0 0 1-.66.25c-.15-.02-.24.17-.12.27.16.14.19.3.07.52a.23.23 0 0 1-.16.11.67.67 0 0 1-.55-.1c-.08-.05-.16-.05-.23 0-.2.16-.26.35-.17.6.03.06 0 .11-.07.14l-.09.04c-.04.03-.05.06-.03.1.16.39.17.86.03 1.4.15-.63.03-1.08-.35-1.34a107.35 107.35 0 0 0-17.46-9.25c-3-1.28-5.76-2.26-8.29-2.94a60.3 60.3 0 0 0-11.16-1.8c-.12-.02-.17.04-.16.16a34 34 0 0 0 6.96 16.87l1.84 2.15-1.43.21c-.1.02-.2 0-.3-.05a1.43 1.43 0 0 0-1.73.21.1.1 0 0 1-.16-.07v-.12c0-.06-.03-.1-.08-.12l-1.99-.6c-.11-.03-.2 0-.24.12l-.08.21c-.05.11-.12.14-.23.09-1.5-.73-2.98-1-4.46-.8-4.2-6.4-5.97-13.4-6.78-21.1-.23-2.26-.92-5.53 2.54-5.56 11-.1 21.53 2.19 31.58 6.87 7 3.27 13.6 6.88 19.75 10.83"/><path fill="#b4eede" d="M104.15 95.21a324.05 324.05 0 0 0-7.85 17.83c-.1.22-.2.32-.32.3a1.13 1.13 0 0 1-.47-.32l.08-8.94c.26-.3.47-.61.65-.97.25-.52.44-.86.54-1.01 1.86-2.7 4.32-5 7.37-6.89"/><path fill="#ddf7f3" d="M37.1 101.02a36.14 36.14 0 0 0 12.07 16.07.1.1 0 0 1 .03.13l-.07.12c-.06.11-.15.15-.26.1-.3-.12-.73-.2-1.29-.24-5.58-.4-9.66-.63-12.26-.7a7.8 7.8 0 0 1-2-.53c-.11-.04-.2-.02-.27.09-.06.1-.17.16-.32.19a34 34 0 0 1-6.96-16.87c-.01-.12.04-.18.16-.16 4.1.3 7.82.9 11.16 1.8"/><path fill="#8cdbc3" d="M37.1 101.02c2.52.68 5.29 1.66 8.28 2.94 6.78 2.91 12.6 6 17.46 9.25.38.26.5.71.35 1.34-.29 4.83 1.95 9.93 4.2 14.2a.2.2 0 0 1-.25.28 32.97 32.97 0 0 0-6.5-1.6c-3.55-.5-8.42-.04-11.52-.52-5.66-.88-10.78-4.3-14.55-8.5l-1.84-2.16c.15-.03.26-.1.32-.2.07-.1.16-.12.27-.08a7.8 7.8 0 0 0 2 .53c2.6.07 6.68.3 12.26.7.56.04 1 .12 1.29.24.11.05.2.01.26-.1l.07-.12a.1.1 0 0 0-.03-.13 36.14 36.14 0 0 1-12.08-16.07"/><path fill="#71bda6" d="m87.27 134.58-.11 8.48c0 .26-.09.29-.25.1-2.54-3.02-5.45-5.61-7.6-8.84-2.7-4.53-5.1-9.18-7.23-13.93a3.7 3.7 0 0 1-.32-1.24c-.01-.16.04-.19.17-.09a230.93 230.93 0 0 1 15 13.48c.38.37.5 1.05.34 2.04"/><path fill="#166d53" d="M158.19 143.1a.67.67 0 0 0-.27-.16.2.2 0 0 0-.25.21c.07.7-.27 1.02-1 .97a.44.44 0 0 0-.42.66c.13.23.1.43-.1.6a.12.12 0 0 1-.13.04c-.38-.16-.7-.08-.96.23-.06.08-.12.08-.2 0a.32.32 0 0 0-.16-.1c-.08-.02-.18 0-.29.06-.77.4-1.59.68-2.47.83-.1.02-.14-.03-.15-.12l-.37-4.2a.36.36 0 0 0-.15-.27c-.29-.21-.36-.46-.2-.75.06-.14.02-.23-.13-.27l-.63-.17a36.06 36.06 0 0 0 3.62-11.74c.02-.15-.04-.22-.19-.22l-7.95-.19c-.15 0-.24.07-.28.2-1.41 4.89-4.77 9-8.4 12.33a.96.96 0 0 0-.66.25c-.05.04-.07.03-.07-.03v-.16c-.01-.14-.08-.2-.22-.17-.5.1-1.01.15-1.52.14a23.41 23.41 0 0 1-3.48-.34c-.06.04-.11.04-.15-.02a.2.2 0 0 0-.15-.1l-4.94-.53c.17-.1.3-.21.38-.34a82.1 82.1 0 0 0 10.95-9.93c.08-.08 0-.21-.1-.19a73.5 73.5 0 0 0-15.7 5.02c-.48-.24-.94-.17-1.4.2a.23.23 0 0 1-.24.04c-.16-.07-.3-.02-.41.15-.05.06-.03.1.04.1.04.02.05.04.02.06l-.14.14c-.04.04-.07.03-.1-.01l-.12-.2c-.05-.08-.12-.12-.22-.1l-1.69.42c-.04.01-.07.04-.06.09 0 .05.02.09.06.11.02.02.02.03 0 .05-.38.27-.8.4-1.23.38a.7.7 0 0 1-.21-.05.54.54 0 0 0-.37-.01.7.7 0 0 1-.25.04c-.5-.02-1 .02-1.5.13-.5.1-.94.15-1.33.12-.98-.08-1.97-.04-2.95.1-.1.02-.2.02-.3 0a.87.87 0 0 0-.7.12.31.31 0 0 1-.22.05l-2.5-.37a.48.48 0 0 1-.2-.07.35.35 0 0 0-.3-.02.35.35 0 0 1-.26-.01c-.27-.12-.52-.06-.74.19a.23.23 0 0 1-.25.07.74.74 0 0 1-.28-.17c7.68-5.86 16.16-9.95 25.36-12.8 9.58-2.97 19.2-3.54 29.18-2.57 2.73.26 4.32.27 4.25 3.38a49.53 49.53 0 0 1-4.2 18.9"/><path fill="#105a49" d="m95.56 128.98.01 14.18c0 .15.06.17.16.06a84.88 84.88 0 0 1 7.87-7.03c.1.08.19.14.28.17.1.02.18 0 .25-.07.22-.25.47-.3.74-.2.08.04.17.05.25.02a.35.35 0 0 1 .31.02c.06.04.12.06.2.07l2.5.37a.3.3 0 0 0 .22-.05.9.9 0 0 1 .7-.13c.1.03.2.03.3.02.98-.15 1.97-.19 2.95-.11.39.03.83-.01 1.33-.12.5-.1 1-.15 1.5-.13a.7.7 0 0 0 .25-.04.54.54 0 0 1 .37.01.7.7 0 0 0 .2.05 2 2 0 0 0 1.24-.38c.02-.02.02-.03 0-.05a.14.14 0 0 1-.06-.11c0-.05.02-.08.06-.09l1.7-.41c.09-.03.16 0 .21.1l.12.19c.03.04.06.05.1.01l.14-.14c.03-.02.02-.04-.02-.05-.07-.02-.09-.05-.04-.11.12-.17.25-.22.41-.15.09.04.17.02.25-.04.45-.37.91-.44 1.38-.2a69.3 69.3 0 0 0-12 7.04A112.8 112.8 0 0 0 96.6 153c-1.1 1.13-1.14 2.08-.9 3.56l-.09.35-.36-2.43a.33.33 0 0 1 .1-.28c.19-.18.22-.38.1-.6l-.25-.47a4.8 4.8 0 0 1-.23-1.26c0-.07-.03-.12-.1-.14-.06-.02-.1-.07-.12-.14-.02-.08-.01-.13.02-.17.03-.04.02-.07 0-.1-.21-.18-.39-.27-.53-.27a54.96 54.96 0 0 0-5.6.01.28.28 0 0 0-.26.18l-.21.53c-.06.13-.15.15-.27.07-.23-.16-.48-.12-.74.1a.32.32 0 0 0-.11.23.27.27 0 0 1-.08.16.03.03 0 0 0-.01.05c.01.01.03.02.05 0 .04 0 .08-.03.12-.05.05-.02.08 0 .09.05l.1.73c.04.32-.04.35-.25.1l-.11-.13c-.07-.09-.15-.1-.22-.01-.36.34-.44.66-.26.96.07.1.05.19-.07.25a.63.63 0 0 1-.23.04c-4.5-6.23-10.1-12-16.76-15.75a.62.62 0 0 1 .03-.38.05.05 0 0 1 .1 0l.03.1c0 .02.02.03.03 0l1-1.75c.04-.06.14-.03.13.03v.12c.03.05.06.06.1.03a17.05 17.05 0 0 1 3.3-1.57c.6-.2 1.33-.28 2.19-.27a.5.5 0 0 0 .3-.1c.34-.21.7-.3 1.1-.27a.5.5 0 0 0 .33-.1c.27-.2.7-.23 1.26-.09 2.14 3.23 5.05 5.82 7.59 8.83.16.2.25.17.25-.09l.11-8.48.3-.9c.03-.1.1-.15.22-.13.05.01.08.03.1.06.07.09.16.1.26.06l3.26-1.33c.1-.04.2-.06.32-.04.11 0 .27-.02.48-.08a93 93 0 0 1 2.73-.8c.12-.02.17-.1.15-.23-.1-.83.05-1.57.47-2.2"/><path fill="#8cdbc3" d="M126.3 139.74a26.58 26.58 0 0 0-5.89.3c-.46.07-.97.05-1.55-.04a7.06 7.06 0 0 0-3.11.16c-.95.26-1.94.36-2.87.79a.5.5 0 0 1-.35.03c-1.18-.27-1.91.57-2.72 1.19-.16.12-.4 0-.39-.2l.01-.3a69.3 69.3 0 0 1 12.01-7.03 73.5 73.5 0 0 1 15.7-5.02c.11-.02.2.11.11.2a82.1 82.1 0 0 1-10.95 9.92"/><path fill="#71bda6" d="M126.3 139.74a166.42 166.42 0 0 1-18.1 13.12c-.74.46-2.34 1.64-4.8 3.53-2.5-.26-4.78-.2-6.88.19-.34.06-.61.06-.83-.02-.23-1.48-.19-2.43.91-3.56 4-4.11 8.28-7.88 12.83-11.32v.29c-.01.2.22.32.38.2.81-.62 1.54-1.46 2.72-1.19a.5.5 0 0 0 .35-.03c.93-.43 1.92-.53 2.87-.8a7.06 7.06 0 0 1 3.1-.15c.59.1 1.1.1 1.56.03 1.96-.32 3.93-.41 5.9-.3"/><path fill="#084b41" d="M137.12 141.04c-5.3 4.8-9.72 8.4-13.28 10.79a753.78 753.78 0 0 0-12.75 8.7 50.64 50.64 0 0 0-15.2 17.31 4.9 4.9 0 0 0-.33 2.24c.03 10.85.01 21.7-.07 32.55a7.88 7.88 0 0 1-.51 3.24 4.24 4.24 0 0 1-5.37 2.02c-2.39-.97-2.45-3.51-2.42-5.8.05-4.87.08-9.67.09-14.4a.68.68 0 0 0-.32-.58c-6.02-3.6-12.1-6.49-18.7-8.88l-7.37-2.68a39.8 39.8 0 0 1-18.13-13.13c.2-.15.43-.28.68-.38.23-.1.48-.13.76-.1.86.11 1.66.38 2.4.82a1 1 0 0 0 1.02.03c.7-.33 1.4-.7 2.07-1.1a.32.32 0 0 1 .28-.04l3.02.95c.1.04.19.02.28-.04l.25-.17c5.22 4.32 10.79 6.06 17.44 8.3.73.26 1.33.56 2 .98.17.12.22.07.15-.12a35 35 0 0 1-2.12-11.2l-.08-1.28c.48.22.71.66.7 1.33 0 .2.29.27.38.09a.53.53 0 0 1 .09-.11c.05-.05.1-.06.14-.01.32.26.7.37 1.1.32.12-.02.22.02.29.11l.07.1c.1.12.18.13.28.02.18-.2.37-.38.6-.54h.02c.04.03.05.06.03.1-.04.07-.02.1.06.09.3-.05.56-.18.77-.38.7-.7 1.42-.8 2.4-.61.12.02.25-.06.28-.19.2-.7.5-1.25.91-1.65.05 6.11.86 12.4 5.1 17.23.74.83 1.66 1.77 2.78 2.83.12.1.17.08.17-.08l.15-15.23.09-15.87c0-.61-.37-1.38-1.14-2.3a.5.5 0 0 0 .23-.04c.12-.06.14-.14.07-.25-.18-.3-.1-.62.26-.96.07-.08.15-.08.22 0l.11.14c.2.25.29.22.25-.1l-.1-.73c0-.06-.04-.07-.1-.05l-.11.06-.05-.01a.03.03 0 0 1 0-.05c.05-.04.08-.1.09-.16a.3.3 0 0 1 .11-.23c.26-.22.5-.26.74-.1.12.08.21.06.27-.07l.21-.53a.27.27 0 0 1 .26-.18c1.87-.1 3.73-.1 5.6-.01.14 0 .32.1.52.27.03.03.04.06.01.1-.03.04-.04.1-.02.17s.06.12.12.14c.07.02.1.07.1.14.02.43.1.85.23 1.26l.25.47c.12.22.09.42-.1.6a.29.29 0 0 0-.1.28l.36 2.43-.03 6.96c0 .17.05.19.16.06a68.36 68.36 0 0 1 7.67-7.54 81.37 81.37 0 0 1 4.8-3.53 166.42 166.42 0 0 0 17.71-12.78l4.94.53a.2.2 0 0 1 .15.1c.04.06.09.06.15.02 1.15.2 2.31.31 3.48.34.5 0 1.02-.04 1.52-.14.14-.03.2.03.21.17v.16c.01.06.03.07.08.03.2-.18.43-.26.67-.25m13.19-.38.63.17c.15.04.2.13.12.27-.15.29-.08.54.2.75.1.07.15.16.16.27l.37 4.2c0 .1.06.14.15.12.88-.15 1.7-.43 2.47-.83.11-.06.2-.08.29-.06.07.02.12.05.17.1.07.08.13.08.2 0 .25-.3.57-.39.95-.23.05.02.1 0 .14-.03.2-.18.22-.38.1-.6a.44.44 0 0 1 .4-.67c.74.05 1.08-.27 1.01-.97a.2.2 0 0 1 .25-.2.6.6 0 0 1 .27.16c-4.77 9.3-11.42 15.54-21.97 17.65a3.63 3.63 0 0 1-2.76-.4c-2.06-1.32-2.3-5.7.01-6.88.24-.12.7-.27 1.38-.43 6.97-1.7 12.12-5.84 15.46-12.39"/><path fill="#105a49" d="M58.84 154.22a68.2 68.2 0 0 1-6.76-.89 504 504 0 0 1-9.59-1.82c-.13-.02-.19.03-.16.16.6 3.75 1.73 7.3 3.39 10.67a31.62 31.62 0 0 0 7.8 10.05l-.25.17a.3.3 0 0 1-.28.04l-3.02-.95a.32.32 0 0 0-.28.04c-.67.4-1.36.77-2.07 1.1-.34.17-.68.17-1.03-.03a6.23 6.23 0 0 0-2.4-.82c-.27-.03-.52 0-.75.1-.25.1-.48.23-.68.38a37.08 37.08 0 0 1-6.6-12.27 55.12 55.12 0 0 1-2.43-14.83c-.04-2.35 1.17-3.28 3.62-2.82 6.6 1.25 13.2 2.46 19.82 3.61 2.83.5 4.17 1.01 4.2 4.07.01 1.8-.83 3.15-2.53 4.04"/><path fill="#8cdbc3" d="M58.84 154.22c4.22 1.33 8 3.22 11.37 5.68.12.1.22.13.3.11.1-.03.19-.12.24-.3l.16 9.36.08 1.29c-.4.57-.87.85-1.4.84a13.8 13.8 0 0 0-3.44.14c-.52.1-1-.1-1.45-.63a46.53 46.53 0 0 1-6.74-10.32.29.29 0 0 0-.26-.17c-1.96.04-3.88.2-5.75.5-.45.07-1.12.1-2.02.09a6.28 6.28 0 0 0-4.21 1.53 37.57 37.57 0 0 1-3.4-10.67c-.02-.13.04-.18.17-.16a504 504 0 0 0 9.6 1.82c2.37.43 4.62.73 6.75.9"/><path fill="#105a49" d="m79.05 164.41-.02 3.33c-.41.4-.71.95-.9 1.65a.25.25 0 0 1-.3.19c-.97-.19-1.7-.08-2.4.61-.2.2-.45.33-.76.38-.08 0-.1-.02-.06-.1.02-.03 0-.06-.03-.09h-.03c-.22.16-.41.34-.6.54-.09.11-.18.1-.27-.01l-.07-.1a.28.28 0 0 0-.29-.12 1.4 1.4 0 0 1-1.1-.32c-.05-.05-.1-.04-.14 0a.53.53 0 0 0-.09.12c-.1.18-.38.11-.37-.1 0-.66-.23-1.1-.7-1.32l-.17-9.35c-.28-2.92.03-6.87 3.99-6.42.98.1 1.83.5 2.55 1.19 1.83 1.73 1.93 3.45 1.8 6.19-.04 1.3-.06 2.55-.04 3.73"/><path fill="#229164" d="M103.4 156.4a68.36 68.36 0 0 0-7.66 7.53c-.1.13-.16.1-.16-.06l.03-6.96.08-.35c.22.08.5.08.83.02 2.1-.38 4.39-.45 6.89-.19"/><path fill="#71bda6" d="M70.99 170.36a35 35 0 0 0 2.12 11.19c.07.2.02.24-.16.12a8.77 8.77 0 0 0-2-.97c-6.64-2.25-12.21-3.99-17.43-8.3a31.77 31.77 0 0 1-7.8-10.06 6.28 6.28 0 0 1 4.21-1.53 13 13 0 0 0 2.02-.1c1.87-.29 3.79-.45 5.75-.49.1 0 .21.07.26.17a46.53 46.53 0 0 0 6.74 10.32c.45.52.93.74 1.45.63a13.8 13.8 0 0 1 3.44-.14c.53.01 1-.27 1.4-.84"/><path fill="#084b41" d="M118.9 171.01a4.67 4.67 0 0 1-3.73-5.44 4.67 4.67 0 0 1 5.38-3.83 4.67 4.67 0 0 1 3.72 5.45 4.67 4.67 0 0 1-5.37 3.82"/><path fill="#71bda6" d="M79.05 164.41a38.24 38.24 0 0 1 8.18 8.08l-.15 15.23c0 .16-.05.19-.17.08-1.12-1.06-2.04-2-2.77-2.83-4.25-4.83-5.06-11.12-5.1-17.23l.01-3.33"/><path fill="#084b41" d="M111.27 191.38c4.96-1.1 9.49-3.17 11.13-8.34.54-1.69.3-3.71.87-5.4 1.02-2.98 5-4.02 7.08-1.47 1.2 1.46 1.03 3.2.8 5.24-.78 6.59-4.67 11.97-10.37 15.15-4.54 2.53-10.41 3.57-15.7 3.89-2.94.17-4.29-1.73-3.4-4.38a35.08 35.08 0 0 0 1.83-13.87c-.15-1.98-.57-3.92.45-5.53 1.92-3 6.25-2.24 7.53.93.21.5.33 1.23.36 2.18.15 3.83-.1 7.65-.75 11.44-.02.14.04.2.17.16"/></svg>