<svg xmlns="http://www.w3.org/2000/svg" baseProfile="tiny" version="1.2" viewBox="0 0 512 512"><g fill="none" stroke-width="2"><path stroke="#6070e3" d="m509.55 220.29-.34.06q-.41.06-.71-.23-38.85-38.83-77.67-77.7-1.23-1.23-2.07-1.43" vector-effect="non-scaling-stroke"/><path stroke="#ba72c4" d="M428.76 140.99c-43.79-53.17-123.16-49.83-162.58 6.26q-2.43 3.46-7.25 12.28" vector-effect="non-scaling-stroke"/><path stroke="#ba8ad5" d="M244.7 145.91C202.62 87.69 115.34 89.2 76.8 150.3c-28.74 45.56-13.54 103.19 14.61 144.99q21.89 32.49 52.65 60.81" vector-effect="non-scaling-stroke"/><path stroke="#6070e3" d="M144.06 356.1 296.7 508.92" vector-effect="non-scaling-stroke"/><path stroke="#a55db5" d="M428.76 140.99q24.04 30.57 22.13 68.49c-2.01 39.93-18.28 74.1-42.06 105.47" vector-effect="non-scaling-stroke"/><path stroke="#ffafcb" d="m408.83 314.95-31.37.02a.47.47 0 0 1-.47-.47l.01-52a.5.5 0 0 0-.5-.5h-60.2a.46.45 0 0 0-.46.45l-.04 51.88a.63.63 0 0 1-.63.63l-51.68.02q-.55 0-.55.55v60.21a.3.29 0 0 0 .3.29h52.02a.55.54 0 0 1 .55.54l.02 22.96" vector-effect="non-scaling-stroke"/><path stroke="#a55db5" d="M315.83 399.53q-.4-.01-.62.45-.19.37-.53.6-27.87 18.97-57.89 34.29-.31.16-.63.04-.2-.07-.36-.19" vector-effect="non-scaling-stroke"/><path stroke="#ff77a7" d="M255.8 434.72q.02-.23.12-.38a.43.41 64.2 0 0 .08-.25l-.03-267.73" vector-effect="non-scaling-stroke"/><path stroke="#a575c6" d="M244.7 145.91q6.46 9.63 11.27 20.45m-.17 268.36q-.23.02-.44-.09a575.27 575.27 0 0 1-111.3-78.53" vector-effect="non-scaling-stroke"/><path stroke="#a5ade9" d="m315.83 399.53.01 29.04a.43.43 0 0 0 .43.43h59.97a.74.74 0 0 0 .74-.74l.02-51.74a.49.48-90 0 1 .48-.49h51.84a.62.62 0 0 0 .62-.62v-59.9q0-.5-.5-.5l-20.61-.06" vector-effect="non-scaling-stroke"/></g><path fill="#7584f2" d="M248.4 0h15.08c125.38 4.28 227.98 96.59 246.07 220.29l-.34.06q-.41.06-.71-.23-38.85-38.83-77.67-77.7-1.23-1.23-2.07-1.43c-43.79-53.17-123.16-49.83-162.58 6.26q-2.43 3.46-7.25 12.28l-14.23-13.62C202.62 87.69 115.34 89.2 76.8 150.3c-28.74 45.56-13.54 103.19 14.61 144.99q21.89 32.49 52.65 60.81L296.7 508.92q-16.58 2.24-33.33 3.08h-14.85c-73.8-2.61-142.69-36.03-189.25-92.24Q3.55 352.49 0 263.62v-15.6C5.37 112.33 112.13 4.87 248.4 0Z"/><path fill="#ff5f96" d="M428.76 140.99q24.04 30.57 22.13 68.49c-2.01 39.93-18.28 74.1-42.06 105.47l-31.37.02a.47.47 0 0 1-.47-.47l.01-52a.5.5 0 0 0-.5-.5h-60.2a.46.45 0 0 0-.46.45l-.04 51.88a.63.63 0 0 1-.63.63l-51.68.02q-.55 0-.55.55v60.21a.3.29 0 0 0 .3.29h52.02a.55.54 0 0 1 .55.54l.02 22.96q-.4-.01-.62.45-.19.37-.53.6-27.87 18.97-57.89 34.29-.31.16-.63.04-.2-.07-.36-.19.02-.23.12-.38a.43.41 64.2 0 0 .08-.25l-.03-267.73 2.96-6.83q4.82-8.82 7.25-12.28c39.42-56.09 118.79-59.43 162.58-6.26Z"/><path fill="#ff8fb8" d="M244.7 145.91q6.46 9.63 11.27 20.45l.03 267.73a.43.41 64.2 0 1-.08.25q-.1.15-.12.38-.23.02-.44-.09a575.27 575.27 0 0 1-111.3-78.53q-30.76-28.32-52.65-60.81c-28.15-41.8-43.35-99.43-14.61-144.99 38.54-61.1 125.82-62.61 167.9-4.39Z"/><path fill="#4a5bd3" d="M428.76 140.99q.84.2 2.07 1.43 38.82 38.87 77.67 77.7.3.29.71.23l.34-.06 2.45 22.59v26.36q-1.42 16.41-2.46 23.52C493.33 403.1 407.52 491.1 296.7 508.92L144.06 356.1a575.27 575.27 0 0 0 111.3 78.53q.21.11.44.09.16.12.36.19.32.12.63-.04 30.02-15.32 57.89-34.29.34-.23.53-.6.22-.46.62-.45l.01 29.04a.43.43 0 0 0 .43.43h59.97a.74.74 0 0 0 .74-.74l.02-51.74a.49.48-90 0 1 .48-.49h51.84a.62.62 0 0 0 .62-.62v-59.9q0-.5-.5-.5l-20.61-.06c23.78-31.37 40.05-65.54 42.06-105.47q1.91-37.92-22.13-68.49Zm-184.06 4.92 14.23 13.62-2.96 6.83q-4.81-10.82-11.27-20.45Z"/><path fill="#fff" d="m408.83 314.95 20.61.06q.5 0 .5.5v59.9a.62.62 0 0 1-.62.62h-51.84a.49.48-90 0 0-.48.49l-.02 51.74a.74.74 0 0 1-.74.74h-59.97a.43.43 0 0 1-.43-.43l-.01-29.04-.02-22.96a.55.54 0 0 0-.55-.54h-52.02a.3.29 0 0 1-.3-.29v-60.21q0-.55.55-.55l51.68-.02a.63.63 0 0 0 .63-.63l.04-51.88a.46.45 0 0 1 .46-.45h60.2a.5.5 0 0 1 .5.5l-.01 52a.47.47 0 0 0 .47.47l31.37-.02Z"/></svg>