<svg xmlns="http://www.w3.org/2000/svg" baseProfile="tiny" version="1.2" viewBox="0 0 512 512"><g fill="none" stroke-width="2"><path stroke="#5f6dd5" d="M509.47 219.81q-37.67-37.94-75.12-75.16-9.78-9.73-19.82-19.18-.13-.12-.54-.18m-108.85-.32L271 90.68" vector-effect="non-scaling-stroke"/><path stroke="#baa979" d="m255.78 90.7-14.25.03q-.54 0-.54.54v33.23q0 .5-.49.5H98.74a.51.51 0 0 0-.51.51l.01 29.28q0 .36.36.37.18 0 .37-.11" vector-effect="non-scaling-stroke"/><path stroke="#5f6dd5" d="m98.97 155.05-.06.26q-.08.29.14.51l11.81 11.98" vector-effect="non-scaling-stroke"/><path stroke="#ba9779" d="M110.86 167.8 73.73 271.43" vector-effect="non-scaling-stroke"/><path stroke="#baa979" d="m73.73 271.43-13.46.06q-.52 0-.52.52c-.12 24.19 10.98 46.5 28.89 62.36" vector-effect="non-scaling-stroke"/><path stroke="#5f6dd5" d="m88.64 334.37 177.45 176.82a.34.34 0 0 1-.29.58q-1.25-.16-2.7.23" vector-effect="non-scaling-stroke"/><path stroke="#a38865" d="m271 90.68.01 33.8a.51.5 0 0 0 .51.5l33.62-.01m108.85.32v29.23a.52.52 0 0 1-.52.52l-16.37.09m-53.29.14-.22-.17q-.1-.08-.22-.08l-72.13.01a.23.23 0 0 0-.23.23L271 380.75a.5.49 0 0 0 .5.49h59.37a.63.63 0 0 1 .63.63l-.09 43.3a.55.55 0 0 1-.55.55l-75.33-.09" vector-effect="non-scaling-stroke"/><path stroke="#fec409" d="M255.53 425.63c.54-.88.24-1.12.24-1.98q-.02-166.44.01-332.95" vector-effect="non-scaling-stroke"/><path stroke="#a4925c" d="m255.53 425.63-74.24-.1a.55.55 0 0 1-.55-.55V382q0-.51.51-.51h59.25q.49 0 .49-.49V155.53q0-.45-.45-.45l-71.91-.02" vector-effect="non-scaling-stroke"/><path stroke="#ffbc00" d="M168.63 155.06h-53.17" vector-effect="non-scaling-stroke"/><path stroke="#a4925c" d="m115.46 155.06-16.49-.01M88.64 334.37q19.16 15.48 42.64 18.55c48.33 6.31 92.66-31.53 92.52-80.87a.58.58 0 0 0-.56-.57l-11.23-.29" vector-effect="non-scaling-stroke"/><path stroke="#a38865" d="m302.18 271.43-13.55.04a.5.5 0 0 0-.5.51c.71 44.15 34.86 80.13 79.58 81.61 45.62 1.52 84.43-35.27 84.52-81.56q0-.51-.51-.51l-11.17-.09" vector-effect="non-scaling-stroke"/><path stroke="#ffbc00" d="M212.01 271.19q-.37-.03-.7.12-.47.21-.97.21l-30.27-.05" vector-effect="non-scaling-stroke"/><path stroke="#a4805c" d="m180.07 271.47-37.72-100.92q-.26-.69-.51.01l-36.21 100.93" vector-effect="non-scaling-stroke"/><path stroke="#a4755c" d="m408.57 271.48-37.63-100.71q-.42-1.12-.83.01l-36.1 100.71" vector-effect="non-scaling-stroke"/></g><path fill="#7584f2" d="M248.4 0h15.08c125.29 4.28 227.54 96.23 245.99 219.81q-37.67-37.94-75.12-75.16-9.78-9.73-19.82-19.18-.13-.12-.54-.18l-108.85-.32L271 90.68l-15.22.02-14.25.03q-.54 0-.54.54v33.23q0 .5-.49.5H98.74a.51.51 0 0 0-.51.51l.01 29.28q0 .36.36.37.18 0 .37-.11l-.06.26q-.08.29.14.51l11.81 11.98-37.13 103.63-13.46.06q-.52 0-.52.52c-.12 24.19 10.98 46.5 28.89 62.36l177.45 176.82a.34.34 0 0 1-.29.58q-1.25-.16-2.7.23h-14.58C112.09 507.07 5.19 399.61 0 263.61v-15.59C5.36 112.33 112.13 4.87 248.4 0Z"/><path fill="#fdba12" d="m271 90.68.01 33.8a.51.5 0 0 0 .51.5l33.62-.01 108.85.32v29.23a.52.52 0 0 1-.52.52l-16.37.09-53.29.14-.22-.17q-.1-.08-.22-.08l-72.13.01a.23.23 0 0 0-.23.23L271 380.75a.5.49 0 0 0 .5.49h59.37a.63.63 0 0 1 .63.63l-.09 43.3a.55.55 0 0 1-.55.55l-75.33-.09c.54-.88.24-1.12.24-1.98q-.02-166.44.01-332.95l15.22-.02Z"/><path fill="#ffce00" d="M255.78 90.7q-.03 166.51-.01 332.95c0 .86.3 1.1-.24 1.98l-74.24-.1a.55.55 0 0 1-.55-.55V382q0-.51.51-.51h59.25q.49 0 .49-.49V155.53q0-.45-.45-.45l-71.91-.02h-53.17l-16.49-.01q-.19.11-.37.11-.36-.01-.36-.37l-.01-29.28a.51.51 0 0 1 .51-.51H240.5q.49 0 .49-.5V91.27q0-.54.54-.54l14.25-.03Z"/><path fill="#4855b7" d="m271 90.68 34.14 34.29-33.62.01a.51.5 0 0 1-.51-.5l-.01-33.8Zm142.99 34.61q.41.06.54.18 10.04 9.45 19.82 19.18 37.45 37.22 75.12 75.16l2.53 23.07v26.62c-1.2 10.26-1.58 19.11-3.63 30.72-19.73 111.73-111.96 199.23-225.64 210.39q-6.67.65-13.35 1.39h-6.28q1.45-.39 2.7-.23a.34.34 0 0 0 .29-.58L88.64 334.37q19.16 15.48 42.64 18.55c48.33 6.31 92.66-31.53 92.52-80.87a.58.58 0 0 0-.56-.57l-11.23-.29-43.38-116.13 71.91.02q.45 0 .45.45V381q0 .49-.49.49h-59.25q-.51 0-.51.51v42.98a.55.55 0 0 0 .55.55l74.24.1 75.33.09a.55.55 0 0 0 .55-.55l.09-43.3a.63.63 0 0 0-.63-.63H271.5a.5.49 0 0 1-.5-.49l.01-225.49a.23.23 0 0 1 .23-.23l72.13-.01q.12 0 .22.08l.22.17-41.63 116.16-13.55.04a.5.5 0 0 0-.5.51c.71 44.15 34.86 80.13 79.58 81.61 45.62 1.52 84.43-35.27 84.52-81.56q0-.51-.51-.51l-11.17-.09-43.45-116.3 16.37-.09a.52.52 0 0 0 .52-.52v-29.23ZM98.97 155.05l16.49.01-4.6 12.74-11.81-11.98q-.22-.22-.14-.51l.06-.26Z"/><path fill="#fa0" d="m168.63 155.06 43.38 116.13q-.37-.03-.7.12-.47.21-.97.21l-30.27-.05-37.72-100.92q-.26-.69-.51.01l-36.21 100.93-31.9-.06 37.13-103.63 4.6-12.74h53.17Z"/><path fill="#ff9500" d="m397.1 155.13 43.45 116.3-31.98.05-37.63-100.71q-.42-1.12-.83.01l-36.1 100.71-31.83-.06 41.63-116.16 53.29-.14Z"/><path fill="#4855b7" d="m180.07 271.47-74.44.02 36.21-100.93q.25-.7.51-.01l37.72 100.92Zm228.5.01-74.56.01 36.1-100.71q.41-1.13.83-.01l37.63 100.71Z"/><path fill="#ffce00" d="m212.01 271.19 11.23.29a.58.58 0 0 1 .56.57c.14 49.34-44.19 87.18-92.52 80.87q-23.48-3.07-42.64-18.55c-17.91-15.86-29.01-38.17-28.89-62.36q0-.52.52-.52l13.46-.06 31.9.06 74.44-.02 30.27.05q.5 0 .97-.21.33-.15.7-.12Z"/><path fill="#fdba12" d="m302.18 271.43 31.83.06 74.56-.01 31.98-.05 11.17.09q.51 0 .51.51c-.09 46.29-38.9 83.08-84.52 81.56-44.72-1.48-78.87-37.46-79.58-81.61a.5.5 0 0 1 .5-.51l13.55-.04Z"/><path fill="#ff5f96" d="M141.34 291.37a.34.34 0 0 0 .61.02c12.09-22.09 43.22-10.95 38.34 13.57-3.62 18.17-22.37 32.61-37.94 40.52a1.19 1.17 45.5 0 1-1.1-.02c-13.72-7.46-29.41-19.56-35.7-33.51-4.31-9.58-3.99-20.56 4.45-27.7a20.03 20.03 0 0 1 31.34 7.12Z"/><path fill="#d72878" d="M371.69 291.59c10.32-21.34 40.86-12.7 38.52 11.1-1.88 19.19-22.67 34.84-38.48 42.96a.54.53-43.3 0 1-.49-.01c-15.34-8.23-36.98-24.66-38.67-43.63-2.06-23.27 28.33-31.35 38.7-10.42a.23.23 0 0 0 .42 0Z"/></svg>