<svg xmlns="http://www.w3.org/2000/svg" xml:space="preserve" viewBox="0 0 32.877788 47.740501"><path fill="#ededed" d="M20.85430426 27.13955038c1.52541021.08748712 6.29602492.07090833 9.85625821-3.11643985 4.29259995-3.84280843.88335378-7.08271874.88335378-7.08271874s-2.88219353-3.71651487-7.13528324.16968523c-3.35773709 3.06775651-3.96698518 7.51416685-4.07528708 9.25230213-.37853143.19720454-.76235453.38064811-1.15323142.53939812-.81668143.30938523-1.65629165.4956519-2.4930814.57679168-.14181667-2.12407506-.3182038-4.24462321-.5245788-6.36164183.90981212-1.05551026 4.67889162-5.82400848 4.09186852-11.78454196-.66604355-6.76945207-6.13057038-5.7813206-6.13057038-5.7813206s-5.55060637.15310379-4.8154166 6.91550206c.64417044 5.92349182 5.26802872 9.81004381 6.40538514 10.68316883.1397 2.30681483.24588523 4.61433345.307975 6.92185207.01058333.41133979.01481666.82267957.02256896 1.23437124-.72284166-.18273977-1.46649544-.50905834-2.18087043-.86254168-.32490833-.16263145-.64628977-.33655001-.96625833-.51540835-.2056712-1.63477315-1.09219998-6.1693797-4.74662494-9.05439644-4.52261281-3.56975842-7.12963968.34466478-7.12963968.34466478S-2.09601362 22.6956086 2.462228 26.21915225c3.65124996 2.82257507 8.21548702 2.6137315 9.888712 2.41899816.34007954.24694357.68156666.49247691 1.03681476.72390002.83396666.5309288 1.6936852 1.04563336 2.72767686 1.36383716.00881063.96908146.00351896 1.93745649-.01092729 2.90477318-.4314481.18026857-.92463143.30726857-1.42910188.40075645-.1075981.02010833-.21731287.03668712-.3266731.05362046-.97331476-1.07173716-2.80916852-2.67052697-5.3332935-3.0243622-3.87279615-.54327956-4.0597666 2.64371673-4.0597666 2.64371673s-.66533977 3.1227872 3.21309995 3.62655388c3.87843708.50376668 6.97547227-2.25036862 6.97547227-2.25036862l-.00079375-.00079375c.30726856-.0081227.61841855-.03175.93521211-.07584546-.02434167.86642048-.0575019 1.73213717-.10653712 2.59609173-.098425 1.57938527-.24165454 3.15489175-.48436477 4.70182058-.2472981 1.53811291-.58561022 3.08186674-1.20050188 4.40972322l-.01341437.0289269c-.00351896.00740833-.00669396.01481666-.00986896.022225-.15028333.35983333.01976437.77328978.37958977.92322122.35983332.1499288.77328711-.01976437.92321855-.37958978.66780832-1.60090647.93979998-3.22262508 1.14405831-4.83411489.1845019-1.55010383.26952046-3.0970353.31256023-4.64114368.27551856-.30021478.62582689-.62441668.96625832-.91722313.3266731-.2769288.6663981-.54080834 1.01599999-.7944538 1.29328332.62194547 4.89726017 2.05210838 8.60918966.8004519 4.63902684-1.5645686 3.06069996-5.23663346 3.06069996-5.23663346s-1.00718142-3.86785653-5.62998136-2.25601482c-3.3598564 1.17122313-5.29096017 4.03436676-6.09670636 5.51321301-.13899357.07090833-.27869356.14075834-.4162769.2159-.43638522.2384769-.86465832.49424168-1.2841102.76976025-.07055645.047625-.1397.09525-.20919811.142875.00529167-2.41194172-.0797269-4.81753345-.21801666-7.21748161 1.00682688-.20108334 1.96532497-.53340002 2.8490333-.98742503.41028143-.2226019.80256855-.4674288 1.18392308-.7246038"/><path fill="#009893" d="M14.17375245.0504497s5.46452683-.98813068 6.13057038 5.78167514c.66675 6.76945207-4.28801472 12.00432076-4.28801472 12.00432076s-5.9224306-4.10809556-6.65797227-10.87049384C8.62314608.20355613 14.17375244.0504497 14.17375244.0504497"/><path fill="#00a6a0" d="M14.33250245 1.5800933s4.1592473-.7799917 4.71346206 4.82458989c.55386023 5.60422703-3.18805185 9.90106048-3.18805185 9.90106048s-4.54377684-3.4385251-5.15020183-9.03746046c-.606425-5.59893537 3.62479162-5.68818992 3.62479162-5.68818992"/><path fill="#008c88" d="M4.95566923 30.20377735s.18697046-3.18699364 4.05976662-2.64406863c3.87349995.5432769 6.1288056 4.0202539 6.1288056 4.0202539s-3.09703518 2.75413794-6.97547226 2.25037126c-3.87843972-.50376668-3.21309996-3.62655653-3.21309996-3.62655653"/><path fill="#009893" d="M6.12971278 30.36252735s.14393333-2.45251029 3.12419996-2.03446861c2.97991473.41768713 4.71558138 3.09315387 4.71558138 3.09315387s-2.38301474 2.11913793-5.3675147 1.73143338c-2.98414807-.38735001-2.47226664-2.79011864-2.47226664-2.79011864M1.07087951 15.71766221s2.60702686-3.91442055 7.12963968-.34466213c4.52225828 3.57011032 4.8062435 9.66857903 4.8062435 9.66857903S7.02047754 26.2420837 2.46223593 22.7185374c-4.5582416-3.52389555-1.39135642-7.00087518-1.39135642-7.00087518"/><path fill="#00a6a0" d="M2.2135276 16.61019178s2.10784543-3.1647713 5.76403516-.27869622c3.65618972 2.88642962 3.88619995 7.8168502 3.88619995 7.8168502s-4.83975827.97084623-8.5252268-1.87783528c-3.68547115-2.8490334-1.12500831-5.6603187-1.12500831-5.6603187"/><path fill="#009893" d="M31.59391625 13.43977693s3.40924617 3.2399103-.88335378 7.08271874c-4.29259995 3.84316297-10.34979608 3.07657507-10.34979608 3.07657507s-.1559269-6.10340848 4.09786662-9.98960858c4.25308971-3.88619745 7.13528324-.16968523 7.13528324-.16968523"/><path fill="#00a6a0" d="M30.56204126 14.37357885s2.7820064 2.64407127-.72107688 5.78026491c-3.50343519 3.13654819-8.44691013 2.51071863-8.44691013 2.51071863s-.12735454-4.98086869 3.3443333-8.15234187c3.47133329-3.17182244 5.82365371-.13864167 5.82365371-.13864167"/><path fill="#008c88" d="M30.67563747 28.18271253s1.57832688 3.67171296-3.06069996 5.23663346c-4.63938138 1.56457125-9.11366276-1.06186025-9.11366276-1.06186025s1.92087497-4.81929823 6.54438135-6.4307854c4.62279995-1.6114898 5.62998137 2.25601219 5.62998137 2.25601219"/><path fill="#009893" d="M29.73583748 28.5051523s1.33420378 3.10444365-2.5883314 4.42736035c-3.92253518 1.3229167-7.7057249-.8974667-7.7057249-.8974667s1.62454164-4.07493532 5.53331849-5.4377168c3.90913139-1.36242693 4.76073781 1.90782316 4.76073781 1.90782316"/><path fill="#006360" d="M14.738196 5.49663316c.46460833 3.15630198.86077689 6.32354183 1.20508711 9.49712903.34395833 3.17358986.62935643 6.35529183.83326287 9.54546312.19790833 3.19087508.31644166 6.39056872.25294166 9.6033169-.0405712 1.60655005-.1262962 3.21627509-.31855833 4.82917513-.20425833 1.61113527-.47625 3.23320842-1.14405832 4.83411225-.14993143.35983334-.56338522.52987311-.92321855.37958978-.35983333-.14993144-.5298731-.56338525-.37958976-.92321859.003175-.00740833.00635-.01481667.00986896-.022225l.01341437-.028575c.61489166-1.32820837.95320378-2.87231674 1.20050188-4.41007511.24271023-1.54728337.38593977-3.12243795.48436477-4.70217512.17921022-3.16265462.17956212-6.34647326.09948333-9.52852978-.085725-3.18240841-.2532962-6.36552062-.47977954-9.54546047-.22683522-3.1799372-.50552878-6.3574085-.85372045-9.52852714"/><path fill="#006360" d="M6.27999611 19.71851686c1.59737688 1.32397503 3.25896019 2.56892696 4.98439804 3.68970198.86077689.56303335 1.74660188 1.08302693 2.6490083 1.53458338.89640832.44379357 1.840439.84843145 2.72943899.97437312l-.28045833 1.38288716c-1.14723332-.3086788-2.07433066-.86571668-2.97462042-1.43862693-.89288143-.58208335-1.73390188-1.2149667-2.53964807-1.88383338-1.61501665-1.33173526-3.12949163-2.76189817-4.5681185-4.25908533m20.1005702-2.08244816c-.53516212.90452313-1.15781666 1.75895004-1.82879998 2.57704173-.67486212.81562312-1.41005188 1.58750004-2.21367876 2.29799362-.81421287.69885456-1.70003786 1.32750458-2.6677064 1.85243792-.97931023.50341214-2.04716854.86606859-3.17535186 1.05551026l-.12735454-1.4054667c.9581462-.05538523 1.92546285-.2575269 2.86243973-.61242312.92745188-.37711858 1.8238602-.86783336 2.6740564-1.44638717.841375-.59055001 1.63900378-1.25765457 2.38830377-1.98084815.74612499-.72601668 1.45591475-1.49965837 2.08809164-2.3378584M9.07646464 30.65815426c1.2597712.10795 2.52377307.14322954 3.76731472.07478977.62088976-.034925 1.23824999-.09066477 1.83162308-.20214167.59019545-.10936024 1.17122045-.25999811 1.64782234-.49459358l.49071476 1.3232686c-.71296476.19261667-1.38959165.2257769-2.0521083.22613144-.66251666-.00105833-1.30809999-.06455833-1.94592044-.14746288-.638175-.08219546-1.26717953-.19543713-1.89018331-.327025-.62265453-.13229168-1.24036665-.27904547-1.84926285-.45296668m6.93561014 2.68852127c.42121666-.36018788.81456476-.63711668 1.23648786-.92110456.41945189-.27516668.84772499-.53163525 1.28411021-.77011215.8727731-.47695645 1.78364354-.87559623 2.71815186-1.1895667.46143333-.17215644.942975-.28645644 1.41393332-.4187481.4818962-.0987769.9553231-.21978145 1.44250832-.27481479.96308332-.16157046 1.94133785-.17391856 2.90371473-.1562788-.96131855.10018714-1.91381854.2293038-2.83139353.50165002-.46425643.11006667-.90981476.28504357-1.35889998.4353269-.43850454.18344357-.8822981.34713335-1.30280832.56585646-.85195832.40745834-1.66475831.88900002-2.42534807 1.43510004-.38029356.27269546-.7489481.5591519-1.10278332.85936668-.346075.29739168-.70308522.62759169-.9807231.93203715l-.99694998-.99871215"/></svg>