<svg xmlns="http://www.w3.org/2000/svg" xml:space="preserve" viewBox="0 0 35.336231 100.27795"><path fill="#ededed" d="M32.59636427 30.3543763c-.83632939-.59972048-1.68366808-1.60372694-2.14986391-2.1981584.09024144-.37606023.17667287-.7531788.25671727-1.13276858.05827977-.29986024.11094772-.60219168.1609725-.90487502.21798226.63817501.57174605 1.35255003 1.14927854 1.92369815 1.5055162 1.48942693 2.2676908.03457046 1.0238687-.85795646-.76810393-.55068524-1.54601332-1.44286027-2.02928535-2.04575839.1076325-.82726479.17667287-1.6622898.1999562-2.50225195.45998606.75071024 1.17545378 1.64817693 2.19050127 2.20239172 2.19074997 1.1959167 2.57986474-.7002648.88032165-1.30563147-1.09597294-.39017312-2.32367663-1.19768147-3.05967602-1.72296671-.00785812-.7383648-.05827977-1.4788436-.1524-2.2200315.53604583.61171669 1.27066938 1.2558898 2.19328997 1.62207315 2.31968937.92110192 2.47561891-1.0085917.7150444-1.4026436-1.05363962-.23600834-2.2632802-.81491669-3.06708437-1.24248336-.14993143-.79339813-.36505355-1.58397315-.65828332-2.35232317.67165272.41275001 1.51775581.79163336 2.4591089.87982692 2.48500104.23283334 2.0931002-1.66263906.29269796-1.54692883-1.03049915.06632046-2.28702126-.12876477-3.17499996-.30762311-.11232356-.22965834-.22972712-.4575519-.3591269-.68050835-.2717456-.46813524-.58042438-.92321859-.92537225-1.35325383.9956456.22436667 2.23823474.3404288 3.46138496.00986896 2.95162283-.79798335 1.68917141-2.80564174-.32744833-1.90076671-1.20371128.53975-2.80994376.85901479-3.91237518 1.02940646-.40498977-.39581668-.84885476-.75529812-1.33201805-1.06468336-.16453565-.10689167-.3330575-.20778788-.50461333-.30374168 1.04563305-.36371478 2.41913804-1.02975835 3.39298196-2.20980005 1.94606331-2.35832127-.24500416-3.26566485-1.36645119-1.36137124-.70474416 1.19627123-1.91656994 2.45357127-2.7206564 3.22368341-.77529954-.35207047-1.59755415-.59972047-2.43363721-.72566214 1.05819203-.65793146 2.35920118-1.70250648 3.13421867-3.19087508 1.60693865-3.08645462-1.04704434-3.57681486-1.8438283-1.19097957-.50916417 1.52470647-1.58651203 3.24167508-2.29908786 4.28483987-.96795165-.0504481-1.93131728.02716478-2.8684008.20743334.75790768-.98142692 1.59769517-2.39359816 1.80869165-4.0350732.44344166-3.45122509-2.21671433-2.9957872-2.14160812-.48189358.04709583 1.57656481-.35581166 3.51895842-.66272832 4.74874179-.06614584.01799167-.13296186.03421856-.19857852.05291667-.35605852.09771856-.69617166.23389167-1.04482185.35066023-.343535.127-.67398211.28116478-1.01162563.42192312-.2462387.11324167-.49441787.2511769-.74220916.38840834.37510879-1.41075837.69232647-3.52636675.04878917-5.55448537-1.2060412-3.8001232-3.75016866-2.04223149-2.45801432.53375191.8577085 1.70920838 1.38934479 4.08693154 1.65022395 5.49416037-.15405814.11147954-.30663462.225425-.4625975.33408145-.82422998.64911024-1.51722664 1.42628147-2.10110913 2.26306862-.06297084-1.65205838-.41987602-3.95851867-1.72007396-5.89068349-2.53573118-3.76837055-4.75424467-1.03187502-2.51601099 1.3705417 1.50537331 1.61607505 2.86466144 4.09045844 3.59364143 5.53755204-.0367948.06491288-.07567083.12876477-.11119564.19402955-.49515897.90805002-.88099185 1.85455194-1.1940823 2.8148122-.39080704-1.5458705-1.14211786-3.46992055-2.58367368-4.97028536-3.14677765-3.27554175-4.86076605-.1975538-2.24250247 1.78364625 1.70381081 1.28904739 3.41136098 3.39266221 4.39691616 4.70570202-.2244725.95602692-.4072112 1.91664171-.53728037 2.87866674-.60564897-1.45027125-1.60062332-3.18029175-3.18371349-4.42842132-3.56675963-2.81234364-4.84172317.47166478-1.9762258 2.07433338 1.85705747 1.03857957 3.82859116 2.87690462 4.98711346 4.04283344-.09066398 1.1888629-.12565936 2.3752546-.11257148 3.55776486-.8313912-1.42275193-2.21064664-3.25402319-4.2302993-4.33881488-4.00128471-2.14912052-4.68603166 1.3063379-1.5855843 2.38654172 2.13182558.74295002 4.54863528 2.3502065 5.85031489 3.2825982.03541871.94403335.09373288 1.8852436.17116769 2.82292696.01516856.18132954.0377473.36159811.0545748.54327955-1.00351165-1.32432957-2.66858746-3.0744584-4.92096762-3.91653987-4.25443645-1.59032314-4.46706617 1.92616672-1.24934844 2.5788065 2.23765528.45331858 4.88168941 1.74377884 6.28578023 2.48814174.12142602 1.09572692.27146223 2.18616218.44319454 3.2720122-1.2428712-1.09678525-3.39770848-2.63912886-5.98648703-2.98202886-4.50273888-.59654812-3.92175977 2.8783122-.63968476 2.79294173 2.32200082-.06067954 5.24797495.62865002 6.7620266 1.0371667.13532538.79868714.27890602 1.59561216.43726787 2.38901029.05041212.2543519.10749148.50658978.16012583.76058979-1.391426-.8142129-4.00914282-2.04258339-6.81743717-1.79705005-4.52478766.39546213-3.20338834 3.66112699-.01805252 2.8652603 2.32268524-.58031858 5.44420418-.52281668 6.9659814-.44908524.28292795 1.3169186.59407795 2.62642886.9311571 3.92853343-1.34623543-.91016669-3.83607013-2.27647505-6.6113024-2.23061482-4.5413148.0758481-3.45335206 3.42653152-.21978039 2.85714817 2.36967869-.41768978 5.4992055-.13511477 7.00306196.04586023.38170538 1.4336898.79579602 2.85785197 1.23609787 4.27319557-1.27264582-1.04739549-3.5357858-2.56292886-6.201198-2.80105386-4.52408562-.40463524-3.79606873 3.04235386-.52048832 2.8172834 2.4108833-.1654519 5.50915383.45190835 6.97797946.78951669.37733101 1.18251026.77279499 2.35867051 1.18621517 3.52812888-1.20067915-1.14935003-3.13157284-2.6236084-5.5013928-3.09703531-4.4538193-.89005836-4.10188829 2.61514173-.82130185 2.74496484 2.34692451.0927788 5.26118633.99165836 6.72990612 1.49577693.0148881.04056857.02882186.08184357.043815.12241478.54694666 1.4943667 1.12504351 2.9763853 1.72684703 4.448527-1.00541666-1.19732692-2.45512164-2.53576672-4.31549514-3.25331674-4.2376018-1.63477315-4.48701551 1.87960004-1.2761735 2.56540006 2.31302265.49424168 5.05368262 1.89124172 6.40609132 2.63419173.17705916.41416024.35316582.82902692.53466999 1.24142504.47596795 1.09008336.90413415 2.20027505 1.28086563 3.32634175-.79223314-1.27423337-1.9467335-2.68463984-3.53836098-3.62690843-3.9086718-2.31351672-4.73632365 1.11089813-1.68342017 2.3184565 2.23160164.88335381 4.74239134 2.7551222 5.93273428 3.69922699.16591121.64590085.31224352 1.2968817.4370914 1.95184982.13215064.68406964.24101795 1.37378549.32660166 2.06621861-.4886325-1.4102636-1.29688139-3.02506864-2.62530137-4.2869195-3.29268662-3.12875091-4.86459391.02370666-2.1588235 1.88390217 1.99552267 1.37156564 4.04315052 3.78766926 4.98132782 4.96245633.03541871 1.12998253.00303477 2.26204469-.11659314 3.38846592-.04864814.47127585-.11341814.94121025-.18616083 1.41001754-.25149519-1.63932398-.91693999-4.19406927-2.67641913-6.11078243-3.07167118-3.34616698-4.85524513-.30758607-2.28257785 1.7322086 2.0022608 1.58774876 3.98402514 4.34121466 4.76454596 5.48456658-.35567064 1.80622315-.89143416 3.57960093-1.63103267 5.2736381-.10777379.25728084-.2228498.51152955-.3394075.76521206.14276917-1.56241754.16506455-4.58653368-1.33561665-7.10282708-2.32653413-3.9010882-4.6906743-1.28901563-2.58713099 1.2315455 1.71347684 2.05355565 3.14526053 5.3523093 3.61748886 6.50585826-.37108685.75049858-.77459416 1.48526504-1.2092162 2.20168528-.69631268 1.16074564-1.47820933 2.27128923-2.33013247 3.3267307-1.70254081 2.10580027-3.64655783 4.0513001-5.8478205 5.63534203l-.00511439.00388938c-.04589621.0330544-.05774954.09659408-.02589477.144272.032385.04864365.09796621.06173523.14661436.02921265 1.14723331-.76548194 2.201686-1.64178196 3.212747-2.57032926 1.00806249-.93059252 1.95890433-1.924013 2.84635228-2.9732447.89034036-1.0466229 1.7130535-2.1533221 2.45208765-3.31526629.01322917-.02053167.0253656-.0413438.0384527-.06215856 1.16402562-.45021501 4.5424018-1.67706944 7.2101426-1.84396861 3.2767071-.20461288 3.54859294-3.7172557-.88384962-2.7252084-2.50168804.5595038-4.48429903 2.23382422-5.63562466 3.43213804.45762333-.78669358.88317915-1.5934267 1.25634748-2.42559423.24775583-.52959001.47226352-1.06965752.68213102-1.61547443 1.25303146-1.04524443 4.6293968-3.73408056 7.61710668-4.96633513 3.752252-1.548093 2.66788368-5.76625787-2.12231073-2.8364022-2.16778414 1.3260917-3.65897579 3.35703342-4.61299263 5.07022642.31323147-1.18360298.55163851-2.38869278.70873063-3.60510675.00219604-.01627188.00331523-.03252523.0053631-.04903523.99067064-1.5452011 3.22572932-4.8220499 5.5292619-6.78077624 3.09230974-2.6295721.7603781-6.30798432-2.89334174-2.04392482-1.22576138 1.4308323-1.97749554 3.11506402-2.43952868 4.67501035-.0421923-1.3730817-.18344435-2.74326886-.40872833-4.09649094-.03887602-.2286344-.08406685-.45571834-.12802314-.68340025.79621961-1.60789147 2.68950728-5.18505823 4.8008116-7.41672874 2.78927134-2.94922318.07260167-6.35317516-3.09784745-1.71838149-1.57317703 2.2994065-2.05672952 5.03943157-2.17095914 7.06434079-.46041019-1.77620088-1.05625185-3.51645547-1.7565862-5.2087305-.02257689-.0543269-.04437935-.10936024-.06681601-.16368714.43779704-1.80234171 1.47450517-5.58764824 2.99899886-8.17068808 2.06350312-3.49532055-1.34231934-6.20959372-3.40236515-.98566025-.87601768 2.22144172-.89986537 4.58081867-.67535768 6.46888539-.61446832-1.5769167-1.2012435-3.16441675-1.7517885-4.76391035-.04850685-.14111023-.09398-.2829269-.14178147-.42403978.25562295-1.97590839.83192063-5.46628916 1.94080683-7.99429566 1.63036248-3.71721866-2.07585017-6.00463159-3.49592182-.57185191-.2130425.81526858-.3173587 1.6347705-.34519287 2.43522506-.450215-1.60902125-.86486999-3.22721296-1.235851-4.85422323.932956-1.62524814 2.96485015-4.93324368 5.12892985-6.97194828 2.95423163-2.78376863.437515-6.33871039-2.99377784-1.89335838-1.6870185 2.1851065-2.331226 4.86339633-2.56716368 6.87246495-.15751545-.7669398-.3082573-1.53493527-.44591128-2.30505006-.15561019-.8812398-.29104166-1.76494815-.41701852-2.6493603.82779314-1.84044171 2.3442083-4.90431679 4.0817445-6.95078161 2.62724182-3.0938603-.26814621-6.3475316-3.18533618-1.54940004-.7092598 1.16628336-1.15009081 2.42464173-1.41756683 3.64348986-.01227667-.17356667-.03005667-.34748788-.0407813-.52105455-.08449018-1.46685004-.11881537-2.93652053-.0824087-4.39737511 1.55578517-1.1006667 4.73011467-3.20286865 7.50450028-4.1338501 3.84817033-1.2918705 3.05057515-5.57318348-1.92634312-2.97285841-2.70344182 1.41287503-4.50384301 3.90560464-5.51959614 5.6948918.04353269-.73342501.10611564-1.46367503.19455685-2.18898528.10336398-.92710002.25964462-1.8407936.45518916-2.7410834 1.36715499-.92463146 3.60715265-2.3152815 5.59205679-2.96968341 3.11809682-1.0276417 2.49177516-4.49438724-1.54516665-2.41300006-1.3955535.71966668-2.4966083 1.79458148-3.32715283 2.85326674.2714625-.74436025.58497601-1.46508527.95387582-2.14418339.59503018-1.09960836 1.357771-2.07856672 2.28575285-2.82927697.23868962-.16615833.46150397-.35771667.70887165-.50976478 1.31035768.31855834 3.24954182.87735836 4.662452 1.66511292 2.33203746 1.30068905 4.06244763-.9831917.5933723-2.25354627-1.00347647-.36759357-2.04251267-.47413334-2.99434247-.44908524.10061231-.03598333.20094231-.0733769.302895-.10301023 1.19559915-.38241289 2.439811-.57255835 3.65869348-.50482501.8130471.03421856 1.60210498.21731023 2.3461133.51293713.3273073 1.0936129.74718332 2.74602318.77558185 4.1148001.04670795 2.25954173 2.4548028 2.5474084 1.90002448-.52951857-.19995356-1.10948525-.71948886-2.08385838-1.27469051-2.86032317.90635612.59901668 1.66341634 1.43298337 2.2683967 2.37631293.4121494.6519307.7426325 1.3645436 1.01367166 2.10749362-.51001082 1.01917502-1.36630831 2.57033719-2.31510414 3.61385388-1.52036672 1.67252125.02949046 3.53765653 1.74349832.9225148.61929961-.9447398.91185998-2.01083339 1.04263294-2.95768985.31376143 1.3832417.450215 2.8169315.45667083 4.26578988-.70086272.70343979-1.86435998 1.7836436-2.96290996 2.39959362-1.72377654.96590646-.9548622 2.94181484 1.19034452 1.24742314.8188325-.64664169 1.37336211-1.50706671 1.74487415-2.2905853-.03471334.71049359-.09535583 1.42240004-.1809406 2.13112885-.0654394.56762123-.14964834 1.13418147-.24433477 1.69933148-.70015629.33901857-2.13222414.97931026-3.32464697 1.16981026-1.6448262.26246668-1.6114887 2.04928793.57876677 1.33350004 1.21835332-.39828524 2.12756748-1.31762504 2.65451164-1.97731862-.18051727.99060003-.4000156 1.97661482-.64875833 2.95768985-.54789916.2667-1.71097308.79092691-2.67603046.94509169-1.31078127.20955-1.28418165 1.63336027.46136216 1.06291859.95666188-.31291478 1.67393141-1.02870003 2.0965583-1.55257504-.17349522.66075191-.3584231 1.31903526-.55287332 1.97555649-.37648356.5210519-1.10338393 1.4601455-1.83306797 2.02423717-1.05018416.81209623-.34434648 2.04928793.91418858.71190646.77928522-.82832313 1.04485545-1.96250195 1.13552022-2.60879173.197485-.46249168.38653772-.92956859.56663166-1.39982314.0285406.54116289.16178477 1.40970003.68407226 2.10008792.89792438 1.1870955 1.57427081.2515288.79858128-.49388978-.58966628-.56620835-1.13742521-1.49366027-1.36687188-1.90676482.18397273-.49212501.3562006-.98883525.5210175-1.4883686.07757583.65405002.2841625 1.50177504.81414142 2.20203983 1.11484832 1.47390383 1.9543527.31220834.99137522-.61312956-.66216476-.63641024-1.28280582-1.6404167-1.60609225-2.20627051.20559977-.65757956.39479537-1.32115458.5673381-1.9910796.1923706.73377957.56567916 1.67745838 1.29176725 2.39536294 1.50551354 1.48942693 2.2676908.03457046 1.02386605-.85760456"/><path fill="#009893" d="M16.439425 88.00394548s2.6928233-3.82901306 6.74288818-4.73508929c4.43244176-.99162131 4.16055593 2.5209871.8838496 2.72605507-3.27681162.20447-7.62673778 2.00903422-7.62673778 2.00903422"/><path fill="#00a6a0" d="M17.74360915 85.83298626s.92974582-4.5876264-1.19602248-8.15205877c-2.32653414-3.90069926-4.6906743-1.28901564-2.587131 1.23154814 2.1035785 2.52098446 3.78315348 6.92051063 3.78315348 6.92051063"/><path fill="#008c88" d="M20.20134117 79.26592193s-.0231775-4.68061952-2.8296658-7.7377927c-3.07167117-3.34609554-4.85524513-.30758607-2.28257785 1.73217421 2.57263182 2.03976293 5.11224365 6.00561849 5.11224365 6.00561849"/><path fill="#009893" d="M20.87945052 73.52104239s-.34244121-4.6683799-3.35110636-7.5272902c-3.29268663-3.1284334-4.86459392.02434167-2.1588235 1.88383339 2.70562887 1.86019815 5.50992986 5.6434568 5.50992986 5.6434568"/><path fill="#00a6a0" d="M20.0887345 66.83301055s-1.37678581-4.47357511-4.94809615-6.58777327c-3.9086718-2.31351672-4.73632365 1.11054624-1.68342017 2.3188084 3.0527622 1.2079129 6.63151632 4.26896487 6.63151632 4.26896487"/><path fill="#009893" d="M17.7042037 59.7823937s-2.0984985-4.18394366-5.9706578-5.67760657c-4.2376018-1.6347705-4.48701552 1.87924815-1.27617351 2.56540006 3.21080681.68615456 7.2468313 3.11220652 7.2468313 3.11220652"/><path fill="#00a6a0" d="M13.53080754 48.32170175s-3.16977867-3.44381675-7.30334631-3.813527c-4.52408562-.40428333-3.79606874 3.04270842-.52048833 2.8176353 3.27547098-.22471856 7.82383464.9958917 7.82383464.9958917"/><path fill="#009893" d="M12.07461153 43.1545664s-3.51578328-3.09033342-7.66533176-3.02083531c-4.5413148.07549356-3.45335204 3.42617698-.21978037 2.85679363 3.2334197-.56973524 7.88511213.16404167 7.88511213.16404167"/><path fill="#00a6a0" d="M11.0005797 38.49260794s-3.72483932-2.83492318-7.85908429-2.47332506c-4.52478766.39581667-3.20338834 3.66112699-.01805252 2.8652603 3.18533273-.79586669 7.877136-.39193524 7.877136-.39193524"/><path fill="#009893" d="M10.37397572 34.95706808s-3.02051848-3.57575388-7.13477868-4.12079556c-4.50273888-.59584168-3.92175977 2.8783122-.63982234 2.79329363 3.2822232-.0853731 7.77460102 1.32750193 7.77460102 1.32750193m-.59806416-3.86256222s-2.14213702-4.16172131-6.02985382-5.61481302c-4.25443645-1.5899686-4.46706617 1.92616672-1.24934844 2.5788065 3.21770713.65228525 7.27920226 3.03600652 7.27920226 3.03600652"/><path fill="#00a6a0" d="M9.39434721 26.73734742s-1.56174729-4.41254632-5.21779493-6.3764585c-4.00128471-2.14947505-4.68603166 1.30633526-1.5855843 2.38654173 3.10044742 1.08020382 6.80337923 3.98991677 6.80337923 3.98991677"/><path fill="#009893" d="M9.53863323 22.21085563s-.7707487-4.61715655-4.03009783-7.1864354c-3.56675963-2.81199174-4.84172317.47236857-1.9762258 2.07468528 2.86547265 1.6026686 6.00632363 5.11175012 6.00632363 5.11175012"/><path fill="#008c88" d="M10.07990008 17.75668242s-.12936352-4.67889179-3.0047845-7.67150399C3.92833791 6.80998858 2.21434951 9.887622 4.8326131 11.86847014c2.61842247 1.98120005 5.24728698 5.88821228 5.24728698 5.88821228"/><path fill="#009893" d="M11.52505423 13.2129054s.67842711-4.63126678-1.63861748-8.0743771C7.35070557 1.3701551 5.13219208 4.10665329 7.37042576 6.50907002c2.23777516 2.40241673 4.15462847 6.7038354 4.15462847 6.7038354"/><path fill="#00a6a0" d="M14.36562086 9.61033865s1.71428831-3.7338001.61238685-7.20619185c-1.2060412-3.8001232-3.75016866-2.04223149-2.45801432.53375191 1.29247184 2.5759834 1.84562747 6.67243994 1.84562747 6.67243994"/><path fill="#008c88" d="M17.59505434 7.95581171s2.73042933-2.3244546 3.1357358-5.47793347c.44344166-3.45122509-2.21671433-2.99578984-2.14160812-.48189622.07521231 2.51424817-.99412768 5.9598297-.99412768 5.9598297"/><path fill="#009893" d="M21.10050116 7.27142192s3.36461783-1.23966026 4.8329143-4.05976676C27.5403541.12520318 24.8863711-.36515971 24.08958713 2.02032369c-.7968898 2.38583793-2.98908598 5.25109823-2.98908598 5.25109823m3.32260201.59831025s3.11862678-.44908524 4.89683842-2.60420386c1.94606331-2.35796672-.24500416-3.26531296-1.36645119-1.3610167-1.12158461 1.90429361-3.53038723 3.96522056-3.53038723 3.96522056"/><path fill="#008c88" d="M26.50255245 9.00744053s2.80401709 1.4372167 5.50086206.70767312c2.95162283-.79763145 1.68917141-2.80528984-.32744833-1.90076671-2.01633664.90487502-5.17341373 1.1930936-5.17341373 1.1930936"/><path fill="#009893" d="M28.70466099 11.48112013s1.73354997 1.90006028 4.00416972 2.11278529c2.48500103.23283334 2.0931002-1.6629936.29269795-1.54693148-1.80043664.11571288-4.29686767-.5658538-4.29686767-.5658538m1.30527687 3.07869174s1.1305487 2.31033908 3.25010723 3.1517141c2.31968937.92110456 2.47561891-1.0085917.7150444-1.4026436-1.76043165-.39440645-3.96515163-1.7490705-3.96515163-1.7490705"/><path fill="#00a6a0" d="M30.55536846 17.81453886s.84155226 2.43063718 2.84314103 3.52354365c2.19074997 1.1959167 2.57986474-.70026479.88032165-1.30563147-1.6996833-.60501214-3.72346268-2.21791218-3.72346268-2.21791218"/><path fill="#009893" d="M30.52189073 21.00223894s.1158875 2.17910839 1.49157794 3.53941865c1.5055162 1.48907504 2.26755058.0345731 1.0238687-.85760192-1.24368453-.89217502-2.51544664-2.68181673-2.51544664-2.68181673m-.4409731 3.16970841s.1158875 2.17910839 1.49158059 3.53977055c1.50551354 1.48872314 2.26754793.0342212 1.02386605-.85795382-1.24368188-.89182312-2.51544664-2.68181673-2.51544664-2.68181673"/><path fill="#008c88" d="M29.48091408 26.88374931s-.17130977 1.89653339.84719582 3.24273342c1.11484832 1.47390647 1.9543527.31220834.99137522-.61312691-.96311772-.9256898-1.83857104-2.6296065-1.83857104-2.6296065"/><path fill="#009893" d="M28.87896848 29.20149937s-.13821833 1.52752694.6822731 2.61231863c.89792438 1.18674624 1.57427081.25117955.79858128-.49424168-.77582711-.74541858-1.48085438-2.11807695-1.48085438-2.11807695"/><path fill="#008c88" d="M15.21916668 53.12582877s-2.7797831-3.76625389-6.84939196-4.57976035c-4.45396032-.88970381-4.10188828 2.61514174-.82130184 2.74496484 3.28055098.130175 7.6706938 1.8347955 7.6706938 1.8347955"/><path fill="#00a6a0" d="M9.83242656 18.88098434s1.6357248-4.3853789 5.32433365-6.28755584c4.0369418-2.08138983 4.66326346 1.38535836 1.54516665 2.41300006-3.11820265 1.02799359-6.8695003 3.87455578-6.8695003 3.87455578"/><path fill="#008c88" d="M14.33859817 9.65020342s3.52573136-1.43580647 6.69533382-.27516667c3.46907534 1.27035193 1.73866517 3.55423532-.5933723 2.25354362-2.33231952-1.3003398-6.10196152-1.97837695-6.10196152-1.97837695"/><path fill="#00a6a0" d="M23.96008233 7.6421905s2.55597975 1.96215005 3.06281557 4.77378989c.55477833 3.07728151-1.8533168 2.78941484-1.90002475.52987312-.04688416-2.25989627-1.16279082-5.30366301-1.16279082-5.30366301"/><path fill="#008c88" d="M29.51922575 13.00441374s.50574045 3.1824084-1.06055582 5.5717706c-1.71400786 2.61514173-3.2638653.75000645-1.74349832-.92251215 1.52054188-1.67252125 2.80405414-4.64925845 2.80405414-4.64925845"/><path fill="#009893" d="M30.60729823 19.20413056s-.461645 2.77882886-2.42188997 4.32717057c-2.14520698 1.6943917-2.91412132-.28186857-1.19034452-1.24777504 1.72363868-.96590381 3.6122345-3.07939553 3.6122345-3.07939553"/><path fill="#00a6a0" d="M29.93455014 24.8556307s-1.17393772 2.06410195-3.1754233 2.7188584c-2.19025573.71578525-2.22359323-1.07103336-.57876704-1.33350003 1.64496643-.26246667 3.75419034-1.38535837 3.75419034-1.38535837"/><path fill="#009893" d="M29.08072121 28.39610769s-.93556666 1.64500193-2.53050936 2.16676028c-1.74554407.57044168-1.7721437-.85372048-.46136242-1.06291859 1.310958-.2091981 2.99187178-1.1038417 2.99187178-1.1038417"/><path fill="#008c88" d="M28.35766789 30.60767251s-.03266546 1.8919455-1.18265045 3.11396864c-1.25853532 1.33773337-1.964373.10018978-.91418885-.71155191 1.0503593-.81209623 2.0968393-2.40241673 2.0968393-2.40241673"/><path fill="#009893" d="M18.98065952 83.0897174s1.62210748-5.5548743 5.99930344-8.23214021c4.79019362-2.9296784 5.87456194 1.28876693 2.12230994 2.83643924-3.7523901 1.54766966-8.12161338 5.39570097-8.12161338 5.39570097"/><path fill="#00a6a0" d="M20.54791014 77.1295702s-.16965083-5.7844612 3.16907303-9.68060963c3.6537201-4.26402511 5.98565174-.58561025 2.893342 2.04364171-3.09234385 2.6293234-6.06241503 7.63696793-6.06241503 7.63696793"/><path fill="#009893" d="M20.34160552 68.17568369s-.79470249-5.73193348 2.10206164-9.9666798c3.17044913-4.63479367 5.88711906-1.23048715 3.09784746 1.7180296-2.78955496 2.94886863-5.1999091 8.2486502-5.1999091 8.2486502"/><path fill="#00a6a0" d="M18.21393248 60.92892063s-2.05009747-5.41125847-.16799295-10.18433928c2.0600458-5.22393346 5.46586826-2.50966293 3.40236514.98601215-2.06332637 3.4953232-3.23437219 9.19832713-3.23437219 9.19832713"/><path fill="#009893" d="M15.307079 53.55057499s-2.68276914-5.12727324-1.38518211-10.09156049c1.42007165-5.43242513 5.1262843-3.14501485 3.49592181.5722038-1.63046805 3.71722131-2.1107397 9.51935669-2.1107397 9.51935669"/><path fill="#00a6a0" d="M11.8049482 42.00415803s-.46425563-5.76791681 2.67105683-9.82944835c3.43129283-4.44500011 5.94800947-.89005836 2.99377784 1.89335838-2.95409034 2.78377128-5.66483467 7.93608997-5.66483467 7.93608997"/><path fill="#009893" d="M10.37813841 35.6580393s-1.10119582-5.68113347 1.56418146-10.06510479c2.91718996-4.79848345 5.812578-1.54481216 3.18533617 1.54940004-2.62706534 3.09421485-4.74951763 8.51570476-4.74951763 8.51570476"/><path fill="#008c88" d="M9.43939676 25.02037616s1.99291228-5.43312892 6.54032344-7.80908732c4.97691827-2.60032506 5.77451345 1.68133717 1.92634312 2.97285841-3.84788829 1.2915186-8.46666656 4.83622891-8.46666656 4.83622891"/><path fill="#006360" d="M8.19077537 96.58208926c2.20126266-1.58404194 4.14513866-3.52999949 5.8478205-5.63534204.85192313-1.05544146 1.63381979-2.16640839 2.33013247-3.32658781.70142787-1.15644086 1.33353517-2.35588446 1.85388247-3.60164866 1.08080518-2.47537293 1.7359135-5.11912406 2.01164452-7.78961663.2841625-2.6740909.10117667-5.38165953-.40721147-8.01440664-.50256704-2.63771863-1.35226767-5.2027668-2.42891016-7.66868353-1.10518203-2.51107052-2.13211804-5.05777512-3.0759397-7.63622708-1.88362164-5.15761036-3.44769726-10.4443374-4.52338725-15.85383374-.53950287-2.70404173-.9536287-5.43947893-1.1863562-8.20278733-.22821185-2.7626046-.30716351-5.55625014-.04106333-8.36118808.13641917-1.40123337.38089416-2.8014084.72016037-4.1910001.36491333-1.38465194.85326378-2.76154364 1.56132396-4.06047057.7089775-1.29187314 1.64316831-2.52024363 2.8547483-3.47380198.31584185-.22048788.61665537-.46319812.94861934-.65793146.33707916-.1806231.67828583-.38382311 1.01518851-.53869168.33764352-.14040644.66780833-.29456857 1.01162563-.42156857.34865019-.11641667.68876333-.25294167 1.04482185-.35066288 1.41456831-.40745835 2.91870682-.60007502 4.42517365-.4706038 1.5052323.11394545 3.0007983.62406213 4.27852412 1.45238526 1.28749661.82479358 2.29665447 2.00518982 3.03582886 3.27942318.74234939 1.2816417 1.19887998 2.68216863 1.45672438 4.08798723.51537393 2.82222318.30607 5.6603187-.22090856 8.37635665-.57231227 2.7132122-1.41111021 5.34458347-2.50525224 7.85777066-.0231775.0532712-.085725.07831667-.13948833.05468144-.04974167-.02151063-.07440084-.07690644-.0590894-.12805834.78531772-2.61231863 1.44113248-5.25815203 1.74995415-7.93573543.32176772-2.66558984.32081522-5.37809824-.28112773-7.91315853-.30744583-1.26153337-.7825687-2.4683853-1.45160998-3.52636676-.67345453-1.05021859-1.53391392-1.96744171-2.58106383-2.5728084-1.03988313-.60713145-2.21135228-.99024813-3.43436227-1.04140002-1.21888248-.06773334-2.46309432.12241477-3.65869348.5051769-.30109583.08678334-.59365434.21237312-.89115184.31503145-.29449897.1143-.58084852.25541024-.87189018.38064812-.2803173.13546667-.52158211.2924519-.78602416.43356213-.25385897.15345834-.48055397.35101478-.7241823.52070001-.92798184.7507129-1.69072267 1.72967126-2.28575285 2.82892508-.59711166 1.09960836-1.064401 2.2994065-1.4088885 3.55035652-.3250848 1.25835837-.57312295 2.54952507-.71991378 3.8646789-.32063954 2.62713793-.32533166 5.31742133-.17070917 7.9978252.16534712 2.6835815.50916416 5.3646918.97895833 8.02745853.95165332 5.32518157 2.39253894 10.57275027 4.15586328 15.7070773.88360248 2.56716483 1.85098952 5.106813 2.89732848 7.61541495 1.0590387 2.55834363 1.88584415 5.22428536 2.35260433 7.9625483.45543602 2.73621508.5711825 5.54284371.2069748 8.29560318-.35538832 2.74919817-1.10214831 5.4497474-2.27266496 7.9526714-.56515 1.2600861-1.24160147 2.46654909-1.9854685 3.62478912-.73903416 1.16198123-1.5617473 2.26868043-2.45208766 3.31544091-.88744794 1.04909147-1.83828979 2.0425146-2.84635228 2.97310712-1.011061.92822715-2.06565497 1.80481027-3.212747 2.5703028-.04864814.03252522-.11422936.01944687-.14661436-.02921-.03185583-.0476594-.0200025-.11105357.02589478-.14428524l.0051144-.00383646"/></svg>