<svg xmlns="http://www.w3.org/2000/svg" xml:space="preserve" viewBox="0 0 20.15 61.4"><path fill="#ededed" d="M.2 18.06v.04l.12 1.14.03.31.06.45.04.33.06.44.05.34a66.7 66.7 0 0 0 .31 2.01l.06.34.08.45.06.33.09.46.06.3.1.48.04.23.27 1.26V27l.12.52.06.26.11.49.07.3.11.46.08.32.11.45.08.32.12.46.08.3.12.46.08.31.13.46.07.28.14.48.06.24.52 1.79.05.14a118.52 118.52 0 0 0 .22.73l.14.47.08.26.14.44.09.28a200 200 0 0 0 .22.7l.14.42.09.27.13.42.1.26.13.41.08.25.14.42.06.17.54 1.53.06.18.14.39.08.23.14.37.08.23a181.26 181.26 0 0 0 .22.58l.13.35.08.23.12.33.1.23.11.31.08.22.12.32.08.19.12.32.02.05a150.3 150.3 0 0 0 .35.89l.11.27.07.19.1.26.08.18.1.24.07.18.1.22.07.18.08.2.07.18.08.19.07.17.07.17.04.08-.25 3-.18 1.75-.22 1.74c-.17 1.14-.36 2.3-.65 3.35v.03l-.01.03a1.06 1.06 0 0 0 2.06.48 31 31 0 0 0 .57-3.65l.16-1.8.12-1.8c.05-1 .1-1.99.13-2.99l.03-.06.07-.16.06-.17.07-.16.08-.19.07-.16.08-.2.07-.17.09-.22.06-.14a119.99 119.99 0 0 0 .35-.89l.08-.19.1-.26.08-.2.1-.26.08-.2a146.93 146.93 0 0 1 .61-1.6l.07-.17a151.03 151.03 0 0 0 .2-.55l.07-.17.06-.17.08-.2.13-.37.07-.19.11-.31.37-1.03.06-.18.14-.4.08-.2.14-.4.07-.23.14-.41.08-.22.14-.42.05-.16.35-1.06.01-.02.15-.46.07-.22.14-.43.07-.25a108.6 108.6 0 0 0 .22-.68l.14-.45.06-.22.48-1.6.06-.23.05-.15.08-.3.08-.28a134.44 134.44 0 0 0 .2-.73l.08-.29.04-.16.08-.27.12-.47.04-.15.26-1.02.06-.24.03-.12.08-.33.07-.3.11-.44.07-.31a89 89 0 0 0 .1-.44l.07-.32.1-.44.06-.28.1-.43.1-.49.05-.25.08-.43.07-.33.03-.16.05-.27.06-.34a63.21 63.21 0 0 0 .26-1.52l.07-.42.07-.44a52.91 52.91 0 0 0 .62-8.3c0-.3-.02-.6-.05-.88l-.01-.15a11.3 11.3 0 0 0-.11-.84l-.02-.05a9.38 9.38 0 0 0-.44-1.66C16.12.37.2 1.57.01 13.3c-.03 1.54.04 3.14.19 4.77"/><path fill="#00a6a0" d="M10.07 48.78S20.4 26.03 20.14 9.79C19.94-3.26.21-3.26 0 9.79c-.25 16.24 10.07 38.99 10.07 38.99"/><path fill="#009893" d="M10.07 48.78S20.4 26.03 20.14 9.79a10.94 10.94 0 0 0-.63-3.58C13.63 11.12 6.05 13.42.2 14.55c1.41 15.59 9.87 34.23 9.87 34.23"/><path fill="#008c88" d="M2.75 28.07c2.98 11.15 7.32 20.7 7.32 20.7s7.33-16.14 9.49-30.94c-3.52 5.03-9.98 7.76-14.6 9.2-.86.26-1.58.62-2.2 1.04"/><path fill="#006360" d="M10.07 0A994.6 994.6 0 0 1 11 28.45c.08 4.74.11 9.49.03 14.24-.04 2.38-.1 4.76-.24 7.15l-.12 1.79-.16 1.8a31 31 0 0 1-.57 3.65 1.06 1.06 0 1 1-2.05-.51v-.03c.29-1.06.48-2.2.65-3.35l.22-1.74.18-1.75c.22-2.35.37-4.7.5-7.06.26-4.72.4-9.46.5-14.2A1000.86 1000.86 0 0 0 10.08 0"/></svg>