<svg xmlns="http://www.w3.org/2000/svg" xml:space="preserve" viewBox="0 0 35.34 100.28"><path fill="#ededed" d="M32.6 30.35a11.6 11.6 0 0 1-2.15-2.2 41.93 41.93 0 0 0 .41-2.03c.22.64.58 1.35 1.15 1.92 1.5 1.5 2.27.04 1.03-.86A11.6 11.6 0 0 1 31 25.14c.1-.83.17-1.66.2-2.5a6.12 6.12 0 0 0 2.19 2.2c2.19 1.2 2.58-.7.88-1.3a14.2 14.2 0 0 1-3.06-1.73c0-.74-.06-1.48-.15-2.22a5.87 5.87 0 0 0 2.19 1.62c2.32.92 2.48-1 .72-1.4a13.49 13.49 0 0 1-3.07-1.24c-.15-.8-.37-1.59-.66-2.36.67.42 1.52.8 2.46.88 2.48.24 2.1-1.66.3-1.54a13.2 13.2 0 0 1-3.18-.31 10.83 10.83 0 0 0-1.29-2.03c1 .22 2.24.34 3.46 0 2.96-.8 1.7-2.8-.32-1.9-1.2.55-2.81.86-3.92 1.03a8.35 8.35 0 0 0-1.83-1.36 7.66 7.66 0 0 0 3.39-2.21c1.95-2.36-.25-3.27-1.37-1.36-.7 1.2-1.91 2.45-2.72 3.22-.77-.35-1.6-.6-2.43-.73a8.62 8.62 0 0 0 3.13-3.19c1.61-3.08-1.04-3.57-1.84-1.19a19.4 19.4 0 0 1-2.3 4.29 11.9 11.9 0 0 0-2.87.2 8.54 8.54 0 0 0 1.81-4.03c.44-3.45-2.22-3-2.14-.48.05 1.57-.36 3.52-.66 4.75l-.2.05c-.36.1-.7.23-1.05.35-.34.13-.67.28-1 .42-.25.11-.5.25-.75.39.37-1.41.7-3.53.05-5.56-1.2-3.8-3.75-2.04-2.46.54.86 1.7 1.39 4.09 1.65 5.5l-.46.33c-.83.65-1.52 1.42-2.1 2.26a11.46 11.46 0 0 0-1.72-5.9c-2.54-3.76-4.76-1.02-2.52 1.38a25.97 25.97 0 0 1 3.6 5.54l-.12.2c-.5.9-.88 1.85-1.2 2.8a11.11 11.11 0 0 0-2.57-4.96c-3.15-3.28-4.87-.2-2.25 1.78 1.7 1.29 3.41 3.4 4.4 4.7-.22.96-.4 1.92-.54 2.88a10.9 10.9 0 0 0-3.18-4.42C1.94 15.7.67 19 3.53 20.6a25.53 25.53 0 0 1 4.99 4.04c-.1 1.2-.13 2.38-.11 3.56a11.41 11.41 0 0 0-4.23-4.34c-4-2.15-4.69 1.3-1.59 2.39a26.2 26.2 0 0 1 5.85 3.28 63 63 0 0 0 .17 2.82l.06.55a11.5 11.5 0 0 0-4.92-3.92c-4.26-1.59-4.47 1.93-1.25 2.58 2.23.45 4.88 1.74 6.28 2.49.12 1.1.27 2.18.45 3.27-1.25-1.1-3.4-2.64-6-2.98-4.5-.6-3.91 2.88-.63 2.79 2.32-.06 5.25.63 6.76 1.04.14.8.28 1.6.44 2.39l.16.76c-1.4-.82-4.01-2.05-6.82-1.8-4.52.4-3.2 3.66-.02 2.87 2.33-.59 5.45-.53 6.97-.45.28 1.31.6 2.62.93 3.92-1.35-.9-3.84-2.27-6.61-2.23-4.54.08-3.45 3.43-.22 2.86 2.37-.42 5.5-.13 7 .05.38 1.43.8 2.85 1.24 4.27-1.27-1.05-3.54-2.56-6.2-2.8-4.53-.4-3.8 3.04-.52 2.82 2.4-.17 5.5.45 6.97.79.38 1.18.78 2.35 1.2 3.52a11.57 11.57 0 0 0-5.51-3.1c-4.45-.88-4.1 2.62-.82 2.75 2.35.1 5.26 1 6.73 1.5l.04.12c.55 1.5 1.13 2.98 1.73 4.45-1-1.2-2.46-2.54-4.32-3.25-4.23-1.64-4.48 1.87-1.27 2.56 2.31.5 5.05 1.9 6.4 2.63l.54 1.25c.47 1.09.9 2.2 1.28 3.32a10.77 10.77 0 0 0-3.54-3.62c-3.9-2.32-4.74 1.1-1.68 2.31 2.23.89 4.74 2.76 5.93 3.7a31.72 31.72 0 0 1 .76 4.02 10.74 10.74 0 0 0-2.62-4.29c-3.3-3.12-4.87.03-2.16 1.89 2 1.37 4.04 3.79 4.98 4.96a24.74 24.74 0 0 1-.3 4.8c-.25-1.64-.92-4.2-2.68-6.11-3.07-3.35-4.85-.3-2.28 1.73 2 1.59 3.98 4.34 4.76 5.49a25.47 25.47 0 0 1-1.97 6.03c.15-1.56.17-4.58-1.33-7.1-2.33-3.9-4.7-1.29-2.59 1.23 1.71 2.06 3.15 5.36 3.62 6.5a29.19 29.19 0 0 1-3.54 5.54 30.6 30.6 0 0 1-5.85 5.63.1.1 0 0 0 .12.17 26.6 26.6 0 0 0 3.2-2.56 33.41 33.41 0 0 0 5.3-6.29l.05-.06c1.16-.45 4.54-1.68 7.2-1.84 3.28-.21 3.55-3.72-.88-2.73-2.5.56-4.48 2.23-5.63 3.43a25.95 25.95 0 0 0 1.94-4.04c1.25-1.04 4.62-3.73 7.61-4.97 3.75-1.54 2.67-5.76-2.12-2.83a13.7 13.7 0 0 0-4.61 5.07c.31-1.19.55-2.39.7-3.6l.01-.06c1-1.54 3.23-4.82 5.53-6.78 3.1-2.63.76-6.3-2.9-2.04a12.7 12.7 0 0 0-2.43 4.67 30.71 30.71 0 0 0-.41-4.1l-.13-.68c.8-1.6 2.69-5.18 4.8-7.41 2.8-2.95.07-6.36-3.1-1.72-1.57 2.3-2.05 5.04-2.17 7.06a39.68 39.68 0 0 0-1.75-5.2l-.07-.17c.44-1.8 1.47-5.59 3-8.17 2.06-3.5-1.34-6.2-3.4-.98-.88 2.22-.9 4.58-.68 6.46a126.7 126.7 0 0 1-1.75-4.76l-.14-.42c.25-1.98.83-5.47 1.94-8 1.63-3.72-2.08-6-3.5-.57-.21.82-.32 1.63-.34 2.44a101.7 101.7 0 0 1-1.24-4.86c.93-1.62 2.97-4.93 5.13-6.97 2.95-2.78.44-6.34-3-1.9a14 14 0 0 0-2.56 6.88 91.4 91.4 0 0 1-.86-4.96c.82-1.84 2.34-4.9 4.08-6.95 2.62-3.1-.27-6.34-3.19-1.55a11.9 11.9 0 0 0-1.42 3.65c0-.18-.03-.35-.04-.52a53.42 53.42 0 0 1-.08-4.4c1.56-1.1 4.73-3.2 7.5-4.14 3.85-1.29 3.06-5.57-1.92-2.97-2.7 1.41-4.5 3.9-5.52 5.7a35.43 35.43 0 0 1 .65-4.93c1.37-.93 3.6-2.32 5.6-2.97 3.11-1.03 2.48-4.5-1.55-2.42-1.4.72-2.5 1.8-3.33 2.86.27-.75.58-1.47.95-2.15a9.3 9.3 0 0 1 2.29-2.83c.24-.16.46-.35.7-.5 1.32.31 3.26.87 4.67 1.66 2.33 1.3 4.06-.98.6-2.25a8.1 8.1 0 0 0-3-.45c.1-.04.2-.08.3-.1a10.2 10.2 0 0 1 3.66-.51c.81.03 1.6.22 2.35.51a17 17 0 0 1 .77 4.12c.05 2.26 2.46 2.54 1.9-.53a7.18 7.18 0 0 0-1.27-2.86c.9.6 1.66 1.43 2.27 2.37.4.65.74 1.37 1.01 2.11a17.26 17.26 0 0 1-2.31 3.61c-1.53 1.68.02 3.54 1.74.93.62-.95.91-2.01 1.04-2.96.32 1.38.45 2.82.46 4.26-.7.7-1.87 1.79-2.96 2.4-1.73.97-.96 2.95 1.19 1.25a6.37 6.37 0 0 0 1.74-2.29 30 30 0 0 1-.42 3.83c-.7.34-2.14.98-3.33 1.17-1.64.26-1.61 2.05.58 1.34a5.94 5.94 0 0 0 2.65-1.98c-.18.99-.4 1.97-.65 2.96-.54.26-1.7.79-2.67.94-1.31.21-1.29 1.63.46 1.06a4.71 4.71 0 0 0 2.1-1.55 65.8 65.8 0 0 1-.56 1.98 10.3 10.3 0 0 1-1.83 2.02c-1.05.81-.34 2.05.92.71a4.87 4.87 0 0 0 1.13-2.6l.57-1.4c.03.54.16 1.4.68 2.1.9 1.18 1.58.25.8-.5a8.95 8.95 0 0 1-1.37-1.9c.19-.5.36-1 .52-1.5.08.66.29 1.5.82 2.2 1.11 1.48 1.95.32.99-.6a10.67 10.67 0 0 1-1.6-2.21c.2-.66.39-1.32.56-2 .2.74.57 1.68 1.3 2.4 1.5 1.5 2.26.04 1.02-.86"/><path fill="#009893" d="M16.44 88s2.7-3.83 6.74-4.73c4.43-1 4.16 2.52.89 2.72-3.28.2-7.63 2.01-7.63 2.01"/><path fill="#00a6a0" d="M17.74 85.83s.93-4.58-1.2-8.15c-2.32-3.9-4.68-1.29-2.58 1.23 2.1 2.52 3.78 6.92 3.78 6.92"/><path fill="#008c88" d="M20.2 79.27s-.02-4.68-2.83-7.74c-3.07-3.35-4.85-.3-2.28 1.73 2.57 2.04 5.11 6 5.11 6"/><path fill="#009893" d="M20.88 73.52s-.34-4.67-3.35-7.53c-3.3-3.12-4.87.03-2.16 1.89 2.7 1.86 5.5 5.64 5.5 5.64"/><path fill="#00a6a0" d="M20.09 66.83s-1.38-4.47-4.95-6.58c-3.9-2.32-4.74 1.1-1.68 2.31 3.05 1.21 6.63 4.27 6.63 4.27"/><path fill="#009893" d="M17.7 59.78s-2.1-4.18-5.97-5.68c-4.23-1.63-4.48 1.88-1.27 2.57 3.2.69 7.24 3.11 7.24 3.11"/><path fill="#00a6a0" d="M13.53 48.32s-3.17-3.44-7.3-3.81c-4.53-.4-3.8 3.04-.52 2.82 3.27-.23 7.82 1 7.82 1"/><path fill="#009893" d="M12.07 43.15s-3.51-3.09-7.66-3.02c-4.54.08-3.45 3.43-.22 2.86 3.23-.57 7.88.16 7.88.16"/><path fill="#00a6a0" d="M11 38.5s-3.72-2.84-7.86-2.48c-4.52.4-3.2 3.66-.02 2.86 3.19-.8 7.88-.39 7.88-.39"/><path fill="#009893" d="M10.37 34.96s-3.02-3.58-7.13-4.12c-4.5-.6-3.92 2.87-.64 2.79 3.28-.09 7.77 1.33 7.77 1.33m-.6-3.87s-2.14-4.16-6.02-5.61c-4.26-1.59-4.47 1.93-1.25 2.58 3.21.65 7.28 3.03 7.28 3.03"/><path fill="#00a6a0" d="M9.4 26.74s-1.57-4.42-5.22-6.38c-4-2.15-4.69 1.3-1.59 2.39 3.1 1.08 6.8 3.99 6.8 3.99"/><path fill="#009893" d="M9.54 22.21s-.77-4.62-4.03-7.19c-3.57-2.8-4.84.48-1.98 2.08 2.87 1.6 6 5.11 6 5.11"/><path fill="#008c88" d="M10.08 17.76s-.13-4.68-3-7.67c-3.15-3.28-4.87-.2-2.25 1.78s5.25 5.89 5.25 5.89"/><path fill="#009893" d="M11.53 13.21s.67-4.63-1.64-8.07C7.35 1.37 5.13 4.1 7.37 6.5c2.24 2.4 4.16 6.7 4.16 6.7"/><path fill="#00a6a0" d="M14.37 9.61s1.71-3.73.6-7.2c-1.2-3.8-3.74-2.05-2.45.53 1.3 2.57 1.85 6.67 1.85 6.67"/><path fill="#008c88" d="M17.6 7.96s2.73-2.33 3.13-5.48c.44-3.45-2.22-3-2.14-.48.07 2.51-1 5.96-1 5.96"/><path fill="#009893" d="M21.1 7.27s3.37-1.24 4.83-4.06C27.54.13 24.9-.37 24.1 2.02s-3 5.25-3 5.25m3.32.6s3.12-.45 4.9-2.6C31.27 2.9 29.07 2 27.95 3.9a19.96 19.96 0 0 1-3.53 3.97"/><path fill="#008c88" d="M26.5 9s2.8 1.44 5.5.72c2.96-.8 1.7-2.81-.32-1.9A20.44 20.44 0 0 1 26.5 9"/><path fill="#009893" d="M28.7 11.48s1.74 1.9 4 2.11c2.5.24 2.1-1.66.3-1.54-1.8.11-4.3-.57-4.3-.57m1.31 3.08s1.13 2.31 3.25 3.15c2.32.92 2.48-1 .72-1.4A16.3 16.3 0 0 1 30 14.56"/><path fill="#00a6a0" d="M30.56 17.81s.84 2.44 2.84 3.53c2.19 1.2 2.58-.7.88-1.3-1.7-.61-3.72-2.23-3.72-2.23"/><path fill="#009893" d="M30.52 21s.12 2.18 1.5 3.54c1.5 1.5 2.26.04 1.02-.86-1.25-.89-2.52-2.68-2.52-2.68m-.44 3.17s.12 2.18 1.5 3.54c1.5 1.49 2.26.04 1.02-.86-1.25-.89-2.52-2.68-2.52-2.68"/><path fill="#008c88" d="M29.48 26.88s-.17 1.9.85 3.25c1.11 1.47 1.95.3.99-.62-.96-.92-1.84-2.63-1.84-2.63"/><path fill="#009893" d="M28.88 29.2s-.14 1.53.68 2.61c.9 1.2 1.58.25.8-.49a9.71 9.71 0 0 1-1.48-2.12"/><path fill="#008c88" d="M15.22 53.13s-2.78-3.77-6.85-4.58c-4.45-.9-4.1 2.61-.82 2.74 3.28.13 7.67 1.84 7.67 1.84"/><path fill="#00a6a0" d="M9.83 18.88s1.64-4.38 5.33-6.29c4.03-2.08 4.66 1.39 1.54 2.42-3.12 1.02-6.87 3.87-6.87 3.87"/><path fill="#008c88" d="M14.34 9.65s3.52-1.44 6.7-.27c3.46 1.27 1.73 3.55-.6 2.25-2.33-1.3-6.1-1.98-6.1-1.98"/><path fill="#00a6a0" d="M23.96 7.64s2.56 1.96 3.06 4.78c.56 3.07-1.85 2.79-1.9.53-.04-2.26-1.16-5.3-1.16-5.3"/><path fill="#008c88" d="M29.52 13s.5 3.19-1.06 5.58c-1.72 2.61-3.27.75-1.74-.93 1.52-1.67 2.8-4.65 2.8-4.65"/><path fill="#009893" d="M30.6 19.2s-.45 2.78-2.41 4.33c-2.15 1.7-2.92-.28-1.2-1.25a17.85 17.85 0 0 0 3.62-3.08"/><path fill="#00a6a0" d="M29.93 24.86s-1.17 2.06-3.17 2.71c-2.2.72-2.22-1.07-.58-1.33a15.04 15.04 0 0 0 3.75-1.38"/><path fill="#009893" d="M29.08 28.4s-.93 1.64-2.53 2.16c-1.75.57-1.77-.85-.46-1.06 1.31-.2 3-1.1 3-1.1"/><path fill="#008c88" d="M28.36 30.6s-.03 1.9-1.18 3.12c-1.26 1.34-1.97.1-.92-.71a12 12 0 0 0 2.1-2.4"/><path fill="#009893" d="M18.98 83.09s1.62-5.56 6-8.23c4.79-2.93 5.87 1.29 2.12 2.83-3.75 1.55-8.12 5.4-8.12 5.4"/><path fill="#00a6a0" d="M20.55 77.13s-.17-5.78 3.17-9.68c3.65-4.27 5.98-.59 2.89 2.04-3.1 2.63-6.06 7.64-6.06 7.64"/><path fill="#009893" d="M20.34 68.18s-.8-5.74 2.1-9.97c3.17-4.64 5.9-1.23 3.1 1.72-2.79 2.95-5.2 8.25-5.2 8.25"/><path fill="#00a6a0" d="M18.21 60.93s-2.05-5.41-.16-10.19c2.06-5.22 5.46-2.5 3.4 1-2.07 3.49-3.24 9.19-3.24 9.19"/><path fill="#009893" d="M15.3 53.55s-2.68-5.13-1.38-10.1c1.42-5.42 5.13-3.14 3.5.58s-2.11 9.52-2.11 9.52"/><path fill="#00a6a0" d="M11.8 42s-.46-5.76 2.68-9.83c3.43-4.44 5.94-.89 2.99 1.9C14.52 36.85 11.8 42 11.8 42"/><path fill="#009893" d="M10.38 35.66s-1.1-5.68 1.56-10.07c2.92-4.8 5.81-1.54 3.19 1.55-2.63 3.1-4.75 8.52-4.75 8.52"/><path fill="#008c88" d="M9.44 25.02s2-5.43 6.54-7.8c4.98-2.6 5.77 1.67 1.93 2.96-3.85 1.3-8.47 4.84-8.47 4.84"/><path fill="#006360" d="M8.2 96.58a30.61 30.61 0 0 0 5.84-5.63 29.35 29.35 0 0 0 4.18-6.93 26.2 26.2 0 0 0 2.01-7.8c.29-2.67.1-5.37-.4-8a36.4 36.4 0 0 0-2.43-7.67c-1.1-2.52-2.13-5.06-3.08-7.64A107.25 107.25 0 0 1 9.8 37.06c-.54-2.7-.95-5.44-1.19-8.2-.23-2.77-.3-5.56-.04-8.37.14-1.4.38-2.8.72-4.19.37-1.38.85-2.76 1.56-4.06a11.2 11.2 0 0 1 2.86-3.47c.31-.22.61-.47.95-.66.33-.18.67-.39 1.01-.54.34-.14.67-.3 1.01-.42.35-.12.7-.25 1.05-.35 1.41-.41 2.92-.6 4.42-.47a9.19 9.19 0 0 1 7.32 4.73 12.7 12.7 0 0 1 1.45 4.09 22.4 22.4 0 0 1-.22 8.37 40.74 40.74 0 0 1-2.5 7.86.1.1 0 0 1-.2-.07 46 46 0 0 0 1.75-7.94 22.7 22.7 0 0 0-.28-7.91c-.3-1.26-.78-2.47-1.45-3.53A7.45 7.45 0 0 0 22 8.32a10.2 10.2 0 0 0-3.66.5c-.3.09-.6.22-.89.32-.3.11-.58.25-.87.38-.28.13-.52.3-.79.43-.25.16-.48.35-.72.52a9.31 9.31 0 0 0-2.29 2.83 16.4 16.4 0 0 0-1.4 3.55 27.78 27.78 0 0 0-.73 3.87 44.88 44.88 0 0 0-.17 8c.17 2.68.51 5.36.98 8.02.95 5.33 2.4 10.58 4.16 15.71a128 128 0 0 0 2.9 7.61 37.24 37.24 0 0 1 2.35 7.97c.45 2.73.57 5.54.2 8.3a27.72 27.72 0 0 1-4.26 11.58 33.43 33.43 0 0 1-5.3 6.29c-1 .92-2.06 1.8-3.2 2.56a.1.1 0 0 1-.12-.17"/></svg>