<svg xmlns="http://www.w3.org/2000/svg" xml:space="preserve" viewBox="0 0 28.15 53.9"><path fill="#ededed" d="m19.29 17.07.43-.76c8.16-3.29 8.43-12.8 8.43-12.8-8.68 3.5-9.36 9.91-9.31 12.23a51 51 0 0 0-2.75 4.47l-.38.75c.08-2.54-.77-6.18-5.1-9.6 0 0-2.04 7.8 3.8 12.42a34.6 34.6 0 0 0-.67 1.72 70.3 70.3 0 0 0-1.03 3.1c-.57-2.32-2.52-6.58-9.34-8.1 0 0 1.57 7.98 8.92 9.55-.1.32-.18.64-.27.97l-.22.88c-1.48-.95-6-3.1-11.8 1.25 0 0 6.2 3.5 11.58-.3-.3 1.26-.56 2.53-.77 3.8l-.02.14c-1.47-.32-6.2-.83-9.81 4.97 0 0 6.25.92 9.64-3.83a63.99 63.99 0 0 0-.55 5.57c-1.2-.03-5.3.3-7.3 5.8 0 0 5.25-.32 7.26-4.75a61.1 61.1 0 0 0-.02 3.58 42 42 0 0 0 .51 5.71.07.07 0 0 0 .14-.02 52.6 52.6 0 0 1 .08-10.44c1.25 4.3 5.88 5.65 5.88 5.65-.72-5.6-4.39-6.95-5.7-7.25.2-1.66.46-3.32.8-4.95l.03-.18c2.26 5.34 8.53 5.84 8.53 5.84-2.15-6.2-6.6-6.96-8.27-7.02.3-1.3.64-2.6 1.03-3.89 4.61 4.9 11.48 2.49 11.48 2.49-4.76-5.11-9.4-4.09-11.2-3.4.34-1.07.71-2.13 1.12-3.18C21 31.25 27.49 26.3 27.49 26.3c-6.34-3.53-10.73-1.35-12.58.02.52-1.26 1.06-2.5 1.63-3.73 7.46.78 11.43-6.29 11.43-6.29-4.88-.48-7.9 1.07-9.72 2.74l.37-.72.67-1.25"/><path fill="#00a6a0" d="M15.86 19s2.35-7.17 12.1-6.2c0 0-4.2 7.5-12.1 6.2"/><path fill="#008c88" d="M15.86 19s5.4-3.86 12.1-6.2c0 0-4.2 7.5-12.1 6.2"/><path fill="#00a6a0" d="M15.02 20.73s3.29-6.79-4.4-12.87c0 0-2.19 8.33 4.4 12.87"/><path fill="#008c88" d="M15.02 20.73s-1.21-6.53-4.4-12.87c0 0-2.19 8.33 4.4 12.87"/><path fill="#00a6a0" d="M13.92 23.68s5-5.65 13.57-.88c0 0-6.84 5.21-13.57.88"/><path fill="#008c88" d="M13.92 23.68s6.5-1.4 13.57-.88c0 0-6.84 5.21-13.57.88"/><path fill="#00a6a0" d="M12.54 27.52s5.9-3.48 11.98 3.05c0 0-7.38 2.58-11.98-3.05"/><path fill="#008c88" d="M12.54 27.52s6 .62 11.98 3.05c0 0-7.38 2.58-11.98-3.05"/><path fill="#00a6a0" d="M11.35 31.98s6.25-.73 8.93 7c0 0-7.16-.56-8.93-7"/><path fill="#008c88" d="M11.35 31.98s4.81 2.75 8.93 7c0 0-7.16-.56-8.93-7"/><path fill="#00a6a0" d="M10.45 38.2s5.3.48 6.17 7.33c0 0-5.82-1.7-6.17-7.33"/><path fill="#008c88" d="M10.45 38.2s3.5 3.1 6.17 7.33c0 0-5.82-1.7-6.17-7.33"/><path fill="#00a6a0" d="M12.93 26.67s.01-7.54-9.56-9.67c0 0 1.66 8.45 9.56 9.67"/><path fill="#008c88" d="M12.93 26.67S9 21.32 3.37 17c0 0 1.66 8.45 9.56 9.67"/><path fill="#00a6a0" d="M12.32 28.77S7.12 24.3 0 29.65c0 0 6.8 3.85 12.32-.88"/><path fill="#008c88" d="M12.32 28.77s-6.01-.46-12.32.88c0 0 6.8 3.85 12.32-.88"/><path fill="#00a6a0" d="M11.24 33.42S5.31 31.32.98 38.26c0 0 7.1 1.04 10.26-4.84"/><path fill="#008c88" d="M11.24 33.42s-5.3 1.6-10.26 4.84c0 0 7.1 1.04 10.26-4.84"/><path fill="#00a6a0" d="M10.41 40.02s-5.27-.7-7.64 5.78c0 0 6.05-.37 7.64-5.78"/><path fill="#008c88" d="M10.41 40.02s-4.1 2.25-7.64 5.78c0 0 6.05-.37 7.64-5.78"/><path fill="#006360" d="M10.52 50.34a40.5 40.5 0 0 1-.5-5.71 60.34 60.34 0 0 1 2-17.11c.48-1.87 1.08-3.7 1.72-5.53A42.33 42.33 0 0 1 22.8 7.35a.07.07 0 0 1 .1 0c.03.02.03.06.02.08-1 1.64-2.02 3.24-2.95 4.9l-.7 1.24-.66 1.25c-.22.41-.44.83-.64 1.26l-.63 1.26a76.84 76.84 0 0 0-4.24 10.49 63.09 63.09 0 0 0-2.28 11.11c-.42 3.77-.55 7.6-.17 11.38 0 .04-.02.08-.06.08a.07.07 0 0 1-.08-.06"/><path fill="#00a6a0" d="M18.9 13.1S17.43 4.33 28.15 0c0 0-.29 10.14-9.25 13.1"/><path fill="#008c88" d="M18.9 13.1s3.54-7 9.25-13.1c0 0-.29 10.14-9.25 13.1"/></svg>