<svg xmlns="http://www.w3.org/2000/svg" xml:space="preserve" viewBox="0 0 32.88 47.74"><path fill="#ededed" d="M20.85 27.14c1.53.09 6.3.07 9.86-3.12 4.3-3.84.88-7.08.88-7.08s-2.88-3.72-7.13.17c-3.36 3.07-3.97 7.51-4.08 9.25a9.66 9.66 0 0 1-3.65 1.12c-.13-2.13-.31-4.25-.52-6.36.91-1.06 4.68-5.83 4.1-11.79-.67-6.77-6.14-5.78-6.14-5.78s-5.55.15-4.81 6.92c.64 5.92 5.27 9.8 6.4 10.68.14 2.3.25 4.61.31 6.92l.02 1.24c-.72-.19-1.46-.51-2.18-.87l-.96-.51c-.2-1.64-1.1-6.17-4.75-9.06-4.52-3.57-7.13.35-7.13.35s-3.17 3.48 1.4 7c3.64 2.82 8.2 2.61 9.88 2.42.34.25.68.5 1.04.72.83.53 1.7 1.05 2.73 1.37 0 .96 0 1.93-.02 2.9-.43.18-.92.3-1.42.4l-.33.06a9.15 9.15 0 0 0-5.33-3.03c-3.88-.54-4.06 2.64-4.06 2.64s-.67 3.13 3.2 3.63c3.89.5 6.98-2.25 6.98-2.25.31 0 .62-.03.94-.08l-.1 2.6c-.1 1.58-.25 3.15-.5 4.7a17.06 17.06 0 0 1-1.2 4.41v.03l-.02.02a.7.7 0 1 0 1.3.55c.67-1.6.95-3.23 1.15-4.84.19-1.55.27-3.1.31-4.64a11.82 11.82 0 0 1 1.99-1.71c1.29.62 4.9 2.05 8.6.8 4.64-1.56 3.07-5.24 3.07-5.24s-1.01-3.86-5.63-2.25c-3.36 1.17-5.3 4.03-6.1 5.51l-.42.22c-.43.23-.86.5-1.28.77l-.21.14c0-2.41-.08-4.82-.22-7.22a10.9 10.9 0 0 0 4.03-1.71"/><path fill="#009893" d="M14.17.05s5.47-.99 6.13 5.78c.67 6.77-4.28 12-4.28 12s-5.93-4.1-6.66-10.86C8.62.2 14.17.05 14.17.05"/><path fill="#00a6a0" d="M14.33 1.58S18.5.8 19.05 6.4c.55 5.6-3.2 9.9-3.2 9.9s-4.54-3.43-5.14-9.03c-.6-5.6 3.62-5.69 3.62-5.69"/><path fill="#008c88" d="M4.96 30.2s.18-3.18 4.06-2.64c3.87.54 6.12 4.02 6.12 4.02s-3.1 2.75-6.97 2.25c-3.88-.5-3.21-3.63-3.21-3.63"/><path fill="#009893" d="M6.13 30.36s.14-2.45 3.12-2.03c2.98.42 4.72 3.1 4.72 3.1s-2.38 2.11-5.37 1.72c-2.98-.38-2.47-2.79-2.47-2.79M1.07 15.72s2.6-3.92 7.13-.35c4.52 3.57 4.8 9.67 4.8 9.67s-5.98 1.2-10.54-2.32c-4.56-3.53-1.39-7-1.39-7"/><path fill="#00a6a0" d="M2.21 16.61s2.11-3.16 5.77-.28c3.65 2.89 3.88 7.82 3.88 7.82s-4.84.97-8.52-1.88c-3.69-2.85-1.13-5.66-1.13-5.66"/><path fill="#009893" d="M31.6 13.44s3.4 3.24-.89 7.08c-4.3 3.85-10.35 3.08-10.35 3.08s-.16-6.1 4.1-10c4.25-3.88 7.13-.16 7.13-.16"/><path fill="#00a6a0" d="M30.56 14.37s2.78 2.65-.72 5.78c-3.5 3.14-8.45 2.51-8.45 2.51s-.12-4.98 3.35-8.15 5.82-.14 5.82-.14"/><path fill="#008c88" d="M30.68 28.18s1.57 3.67-3.07 5.24c-4.63 1.56-9.1-1.06-9.1-1.06s1.91-4.82 6.54-6.43c4.62-1.61 5.63 2.25 5.63 2.25"/><path fill="#009893" d="M29.74 28.5s1.33 3.11-2.6 4.43c-3.92 1.33-7.7-.9-7.7-.9s1.63-4.07 5.54-5.43c3.9-1.37 4.76 1.9 4.76 1.9"/><path fill="#006360" d="M14.74 5.5a251.42 251.42 0 0 1 2.04 19.04c.2 3.19.31 6.39.25 9.6-.04 1.6-.13 3.22-.32 4.83-.2 1.61-.48 3.23-1.14 4.84a.7.7 0 1 1-1.3-.55v-.02l.02-.03a17.4 17.4 0 0 0 1.2-4.4c.24-1.56.38-3.13.48-4.71.18-3.16.18-6.35.1-9.53A250.78 250.78 0 0 0 14.74 5.5"/><path fill="#006360" d="M6.28 19.72a53.57 53.57 0 0 0 4.98 3.69c.87.56 1.75 1.08 2.65 1.53.9.45 1.84.85 2.73.98l-.28 1.38a10.6 10.6 0 0 1-2.97-1.44c-.9-.58-1.74-1.21-2.54-1.88a53.93 53.93 0 0 1-4.57-4.26m20.1-2.08a20.73 20.73 0 0 1-4.04 4.87c-.82.7-1.7 1.33-2.67 1.85-.98.5-2.05.87-3.17 1.06l-.13-1.4a9.66 9.66 0 0 0 2.86-.62c.93-.38 1.82-.87 2.67-1.45a19.98 19.98 0 0 0 4.48-4.31M9.08 30.66c1.26.1 2.52.14 3.76.07a14 14 0 0 0 1.84-.2c.59-.1 1.17-.26 1.64-.5l.5 1.33c-.72.2-1.4.23-2.06.23-.66 0-1.3-.07-1.94-.15a23.94 23.94 0 0 1-3.74-.78M16 33.35c.42-.36.82-.64 1.24-.92a18.61 18.61 0 0 1 4-1.96c.46-.18.94-.3 1.41-.42.49-.1.96-.22 1.45-.28.96-.16 1.94-.17 2.9-.15-.96.1-1.91.23-2.83.5-.46.1-.91.28-1.36.43-.44.19-.88.35-1.3.57A16 16 0 0 0 17 34.35l-1-1"/></svg>