<svg xmlns="http://www.w3.org/2000/svg" xml:space="preserve" viewBox="0 0 28.154483 53.901958"><path fill="#ededed" d="m19.28739935 17.06597107.4282731-.75917691c8.1664518-3.28577319 8.438798-12.80618555 8.438798-12.80618555-8.68221466 3.50449365-9.3687211 9.9218726-9.31544989 12.23891887-1.00788786 1.4276917-1.89582951 2.93687507-2.74849163 4.46616678-.12911666.2483538-.25294166.50023713-.37853143.75035835.08043333-2.5340046-.77469999-6.17467137-5.10046017-9.59097145 0 0-2.04082118 7.7942733 3.79624162 12.41668448-.23671476.56582205-.46425643 1.13566313-.67063143 1.71347875-.36336022 1.03159192-.70908332 2.06801778-1.02975832 3.11185197-.56268143-2.32720362-2.51989163-6.58988993-9.34155367-8.10154187 0 0 1.5702121 7.97380104 8.91998512 9.54546047-.08925454.32177038-.17956477.6433979-.26176287.9669648-.0769038.29312394-.14816667.5877269-.22083713.88194358-1.48202119-.95112419-6.00286659-3.10126864-11.80323962 1.24714003 0 0 6.2057147 3.5092932 11.57569796-.29710857-.29280643 1.2622742-.5517462 2.53160484-.76552953 3.80820093-.00740834.04519084-.01341438.09069917-.0204523.13589-1.46543975-.32536606-6.19865825-.83082608-9.81286654 4.96989642 0 0 6.2568666.9133417 9.63965178-3.83645578-.212725 1.4784917-.37606023 2.96262697-.48471666 4.44993724-.02468563.374015-.04409546.74788979-.06279356 1.12186775-1.20544166-.02645833-5.2916666.30801205-7.3032037 5.8045722 0 0 5.25568062-.32522585 7.26087036-4.74941384-.03951023 1.19062503-.04868333 2.38153317-.0144727 3.5712057.05856287 1.9147711.19085453 3.8265101.51011665 5.71733112.00600605.03638286.03951288.06256602.07655455.05856817.03880379-.00343958.06702689-.03844925.06314545-.07689321l-.00026458-.00386292c-.34819166-3.47197636-.26775833-6.97728228.0765519-10.4404295 1.24848142 4.29217678 5.8786897 5.65368561 5.8786897 5.65368561-.71578523-5.60779097-4.38714352-6.94972063-5.70194804-7.25247541.20143787-1.66303065.46566666-3.31681675.79727953-4.95613809.01198563-.05894916.02611437-.11754644.0384519-.17638977 2.2588352 5.3434881 8.52981466 5.83984644 8.52981466 5.83984644-2.14806474-6.20391312-6.59447492-6.96238624-8.27228777-7.01999397.30056666-1.3073248.64628976-2.60311113 1.02764165-3.8868695 4.61362949 4.88953453 11.47974152 2.4839084 11.47974152 2.4839084-4.75156206-5.10607217-9.4025851-4.08121654-11.19751842-3.39647485.339725-1.07251503.71508143-2.1308484 1.12183332-3.17651615 6.55566848 3.752567 13.05348317-1.1902017 13.05348317-1.1902017-6.34259159-3.53024819-10.7293832-1.3545979-12.58252484.0147373.51505643-1.2540192 1.06362499-2.4934334 1.62842308-3.72498153 7.4580749.7815104 11.4278832-6.29031016 11.4278832-6.29031016-4.87927115-.48542047-7.90610445 1.06468336-9.71267943 2.73579173.12276667-.23988713.2409481-.48224547.37041666-.71896024l.66251666-1.2530667"/><path fill="#00a6a0" d="M15.86016416 19.00236922s2.3477352-7.17126684 12.10698129-6.20077515c0 0-4.21040449 7.50358352-12.10698129 6.20077515"/><path fill="#008c88" d="M15.86016416 19.00236922s5.40702494-3.86256486 12.10698129-6.20077515c0 0-4.21040449 7.50358352-12.10698129 6.20077515"/><path fill="#00a6a0" d="M15.01843728 20.73344806s3.29000375-6.79026684-4.40689995-12.86897912c0 0-2.18016663 8.32343734 4.40689995 12.86897912"/><path fill="#008c88" d="M15.01843728 20.73344806s-1.20932309-6.53415016-4.40689995-12.86897912c0 0-2.18016663 8.32343734 4.40689995 12.86897912"/><path fill="#00a6a0" d="M13.91953275 23.67953063s5.00415448-5.6469493 13.57383127-.87739275c0 0-6.84600635 5.2122918-13.57383127.87739275"/><path fill="#008c88" d="M13.91953275 23.67953063s6.49675636-1.39484632 13.57383127-.87739275c0 0-6.84600635 5.2122918-13.57383127.87739275"/><path fill="#00a6a0" d="M12.5422892 27.52230467s5.90514804-3.47733153 11.97327675 3.04299151c0 0-7.37411203 2.5858947-11.97327674-3.04299151"/><path fill="#008c88" d="M12.5422892 27.52230467s6.00392493.61422229 11.97327675 3.04299151c0 0-7.37411203 2.5858947-11.97327674-3.04299151"/><path fill="#00a6a0" d="M11.34566612 31.98205001s6.2561628-.72978964 8.93480443 7.00623828c0 0-7.15962491-.56624274-8.93480443-7.00623828"/><path fill="#008c88" d="M11.34566612 31.98205001s4.81894614 2.74686984 8.93480443 7.00623828c0 0-7.15962491-.56624274-8.93480443-7.00623828"/><path fill="#00a6a0" d="M10.44502446 38.19700683s5.29660637.47942502 6.17184803 7.33640125c0 0-5.81942303-1.706843-6.17184803-7.33640125"/><path fill="#008c88" d="M10.44502446 38.19700683s3.50731662 3.10405735 6.17184803 7.33640125c0 0-5.81942303-1.706843-6.17184803-7.33640125"/><path fill="#00a6a0" d="M12.93493087 26.67207404s.00635-7.54552792-9.56909534-9.6671344c0 0 1.66017044 8.4423252 9.56909534 9.6671344"/><path fill="#008c88" d="M12.93493087 26.67207404s-3.93276662-5.35618809-9.56909534-9.6671344c0 0 1.66017044 8.4423252 9.56909534 9.6671344"/><path fill="#00a6a0" d="M12.32286231 28.77177303s-5.1960647-4.46828344-12.32288128.8749242c0 0 6.79979158 3.8509232 12.32288128-.8749242"/><path fill="#008c88" d="M12.32286231 28.77177303s-6.01768325-.45861024-12.32288128.8749242c0 0 6.79979158 3.8509232 12.32288128-.8749242"/><path fill="#00a6a0" d="M11.24406612 33.41549375S5.30575786 31.31537143.97682269 38.26329555c0 0 7.10706014 1.03794192 10.26724343-4.8478018"/><path fill="#008c88" d="M11.24406612 33.41549375S5.93546619 35.02408902.97682269 38.26329555c0 0 7.10706014 1.03794192 10.26724343-4.8478018"/><path fill="#00a6a0" d="M10.41221613 40.01973998s-5.27120373-.70788478-7.6464556 5.78350871c0 0 6.05296016-.37221584 7.6464556-5.7835087"/><path fill="#008c88" d="M10.41221613 40.01973998s-4.10880185 2.2480059-7.6464556 5.78350871c0 0 6.05296016-.37221584 7.6464556-5.7835087"/><path fill="#006360" d="M10.5222828 50.34275797c-.31926213-1.89120732-.4515538-3.80322676-.51011667-5.7174687-.05467879-1.91477376-.00846666-3.83356654.11959167-5.74805454.1397-1.91382126.3675962-3.82241964.67839166-5.71930492.3175-1.89589838.7267231-3.7776151 1.21390832-5.64056491.47413332-1.86725195 1.07173975-3.7023676 1.71308974-5.52276977.64946477-1.81924065 1.46226476-3.57713236 2.35338141-5.28951573.94050378-1.68663148 1.9159352-3.35491675 3.05787686-4.90960846 1.10384165-1.57832694 2.3473833-3.05435008 3.66606662-4.44711678.02681023-.0282231.07161477-.02928144.10018977-.00211667.02468562.02293938.0289269.060325.01198562.08819357l-.00105833.00185208c-.99765642 1.63794815-2.01929997 3.23673531-2.9407564 4.89373346l-.69744166 1.23542693-.66251666 1.2530667c-.22648333.41416288-.44273522.83361479-.64840378 1.25835836l-.62759166 1.26682503c-1.59667308 3.4095982-3.15277496 6.85404994-4.23862494 10.4817336-.5453962 1.80936375-1.01670643 3.6442307-1.39805832 5.49906574-.37535643 1.85663421-.669925 3.73104843-.87771286 5.61660954-.42615379 3.76699736-.55245 7.59311852-.17286023 11.37916589l.00026458.0039952c.00388938.03831168-.02434166.07330811-.06314545.07718955-.03704167.00357188-.07055644-.02262187-.07655455-.05859727"/><path fill="#00a6a0" d="M18.90463723 13.10286453S17.43073081 4.3285772 28.15447045-.00000625c0 0-.28998333 10.14130215-9.24983322 13.10287078"/><path fill="#008c88" d="M18.90463723 13.10286453S22.43735385 6.1093977 28.15447045-.00000625c0 0-.28998333 10.14130215-9.24983322 13.10287078"/></svg>