<svg xmlns="http://www.w3.org/2000/svg" xml:space="preserve" viewBox="0 0 20.146801 61.399177"><path fill="#ededed" d="M.19879262 18.05551825c.00105834.01340644.00283105.02751667.00388938.041275.034925.38029463.07478712.76305836.117475 1.14652799.01164166.10336371.02256896.206375.03457046.31009167.0176477.14816667.03633787.29739167.05503333.44591103.01341437.11006667.02681287.22013334.041275.3305527.01905.14746103.03951287.2956277.0596212.44379437.01553105.11218334.03069167.22401398.04656667.33655.02082271.14640297.04268523.29315835.06455833.439914.01693334.11500564.03421857.22965834.05185834.34466398.02256896.14605.04550833.2924527.06879166.4385027.01833563.1146527.03704167.2289527.05609167.3432527.02434167.14816667.04903523.2966863.07443523.44520566.01939396.11183064.03915833.22401398.05891477.33619732.02611437.15028333.05256212.30021372.08007879.45049705.02010833.10971398.0405712.2194277.06103143.32914168.028575.15310565.05715.30621103.08643144.45931668.01976438.10301102.04021667.20602231.060325.30903334.03139546.15945564.06244167.31926398.09454356.47871937.01553104.07549462.0313981.15134167.04691856.22683629.085725.41839437.17392121.83678979.26564167 1.25447693.00238125.01164166.0049477.02362729.00740833.03527954.0381.17286023.07725833.34501667.11606477.51752501.01976437.08854546.03951023.17674167.05961856.26493524.03704167.16121856.07478977.32208523.11253787.48330645.02328334.09983523.04621213.200025.0702019.30021213.03668977.15487121.07408333.30938788.1114769.46425645.02574395.10548144.05115454.21096023.07690643.31608978.03704167.15204546.07478977.30374167.11288977.45508334.02645833.10618523.05326856.21237047.0797269.3182038.03880643.15169621.07761022.30374168.11641666.45543789.02716477.10406856.053975.20778523.08113977.3115019.03951023.15204811.079375.30374168.11959167.45543524.02716212.10230644.05467879.20425834.08184356.30656478.0409231.1527519.0821981.30585834.123825.45825835.02574395.09454356.05185833.18873523.07796476.28328144.04374357.1591019.08748713.3178519.13158523.47625001.02293938.08113713.04550834.16121857.06843977.2420038.16968523.60219168.34254546 1.19803336.5178769 1.78682125.0144727.04938713.02892689.0991288.04374355.14816667.04938977.1651.09913144.32914168.1488731.4928288.0236273.07902311.047625.15839812.07161478.23706668.04727045.1552231.09489545.30903334.14252045.46319812.02716477.08713523.053975.174625.08113977.26176023.04515644.14605.09101667.29104168.136525.43603335.02998523.0945462.05961856.18908977.08960644.28328144.04445.1400519.0889.2794.13335.41839357.03069166.09560455.06138333.19120645.092075.28645645.04445.13793523.08925189.27551857.13370189.41239811.03033977.09313334.0606769.18520834.09101666.27798714.04515644.13758333.09066477.27516667.13581856.41204621.02963334.0889.05891477.17674168.0885481.26528714.04586024.13723144.09172311.27446023.13723144.41063334.02822046.08360834.05679546.16651023.08466667.24976667.04727046.1400519.09489546.28010645.14216856.41874812.01976437.05715.03915833.11359356.05891477.17074356.17885833.52034812.35665833 1.02940647.53269356 1.52611671.02151062.05961856.04268522.12065.06385189.17991667.0472731.13229167.09383977.26246667.14075833.39264168.02751667.0765519.05503333.15345833.08255.22930644.04445.12311857.0885481.2448269.1326462.36618334.02822047.07761023.05644357.15522047.08431213.2321269.04480454.12241478.08925454.24306478.13370454.36371478.02716213.07408334.0543269.14781213.08149167.22119168.04339166.11712046.08642879.23353713.12946856.34889546.028575.0762.0567981.15169622.08501856.22718978.041275.1107731.08290454.22119167.123825.3305519.02928144.07690644.05785643.15310645.08678333.22895455.04021667.10618523.08008144.21201857.11959167.31608714.0282231.07373143.05609166.14605.08396287.219075.03986212.1044231.08007879.20919811.11923712.31185645.0254.06526477.04974167.12911667.07478977.193675.0416269.10724357.08325644.21519357.123825.31996857.00706438.01764771.01375833.034925.0204523.05256477.1016.2607019.20073143.51329168.2980981.75917692.01658937.04233333.03386666.08607954.0504481.12805834.03704166.09348787.073025.1834462.10900833.27446288.02468562.06173523.04938712.1241769.07372879.1845019.034925.08784167.0694981.17321477.10371666.25893978.02468563.0606769.04903788.12206023.073025.1816788.03280834.08113976.06491288.16016287.09701477.23918333.02434167.060325.04868334.12065.0726731.17956478.03069167.07549356.0610288.149225.09066213.22225.02505604.06138334.0500962.12206023.07478977.18203334.0282231.06879167.05573977.1361731.08325644.2028481.02468562.05961857.04868333.11747501.07231856.1753288.02611437.06279621.05221023.12558978.07761023.18662122.02434166.05856023.047625.1150038.07126287.1718019.02434167.05785644.04868333.11606477.07196667.1718019.01092729.02645833.02188104.05221287.03280833.07796477-.073025 1.0018898-.15275454 2.00271861-.24659166 3.00002318l-.180975 1.75154171c-.07443788.57926025-.1393481 1.16205003-.22083977 1.73778338-.16756856 1.14758526-.3584231 2.29587695-.64346666 3.35244554l-.0081227.02963334c-.00283105.01092729-.00563563.02256895-.00846667.03386666-.1308788.5697379.22436666 1.1380629.79445642 1.26929624.56938333.1308788 1.13770832-.22436667 1.26894165-.79445645.28680833-1.24601026.434975-2.44757317.56656023-3.6508982.06244166-.6007788.10653977-1.19873716.16051477-1.79775384l.11818143-1.79140648c.05644356-.9990667.0987769-1.99636861.13440833-2.99296674.00881063-.02082271.01799167-.04303977.02681023-.06420644.02256896-.05362046.04515644-.10689167.06843977-.1626288.02293938-.05432954.04621213-.1107731.06949546-.16686477.02256896-.0536231.04480454-.10724357.06773333-.16263144.02574396-.06138334.05185833-.1245288.07831667-.1880288.02151062-.05221288.04339166-.10512954.06561666-.15875.02751667-.06702955.05538788-.13476288.08360834-.20390645.022225-.053975.04515643-.10971477.06773333-.1654519.03033977-.07373144.06067954-.14710833.0917231-.22366288.01870604-.04621212.0384519-.09489546.0575019-.14216856.05785643-.14216857.1167712-.28821857.1770962-.43815001.02751667-.06808523.0546788-.13546667.08255-.20531668.03175-.0790231.0642038-.16016023.09630833-.2409481.02505604-.06279357.05009357-.12523524.07514167-.18908714.034925-.08784166.07055379-.1774481.10618523-.26775834.02434166-.06138333.04868333-.1231212.0733769-.18556288.03527953-.09031023.07126287-.1813269.1072462-.2734019.02574396-.06526477.0511519-.13158523.07725833-.19755644.03739356-.09630834.07478713-.19261667.11324167-.29104167.02151062-.05644357.04374356-.11394547.06596856-.17074357.14075833-.36441857.28504356-.74224358.43250643-1.1327686.02256896-.05926666.0451538-.11853333.06773333-.17885833.0419788-.11147955.08431213-.22436667.12664546-.33760834.02574396-.06879167.05150644-.13793788.07725833-.20743334.02082271-.05538788.041275-.10936288.06173788-.16545455.02151062-.0575019.04339166-.117475.06491022-.17568333.02574396-.06879167.0511519-.13828713.07690644-.20778524.04339167-.11853334.08748712-.2377731.13123333-.35842311.02328334-.06314546.04656667-.1273519.06985-.1912038.0381-.1044231.07584546-.20778788.1143-.31397311.1210019-.33478524.24376856-.67839168.36688712-1.02587692.0208227-.05926667.0416269-.11782955.06279356-.17744811.04621477-.13123334.09278144-.2638769.1393481-.39687501.02505605-.07196667.05009357-.14358144.07514167-.2159.04586023-.13193978.092075-.26458335.13793523-.39828525.02611437-.07443787.05150643-.149225.07761287-.22472121.04621213-.13581857.09313333-.27163713.1397-.40886857.0239977-.07126023.0483288-.1432269.07267046-.21484167.04797954-.14181667.09630833-.28398524.14428787-.42756668.0176477-.05221023.034925-.1051269.05256213-.15733713.11641666-.34925001.23318787-.70202956.34960453-1.0593917.00238125-.00775229.00494771-.01516062.00740834-.02256895.04938712-.1524.09877689-.30621024.14816666-.45966858.02328333-.07231856.04656667-.14393333.06985-.2162519.04621212-.14499167.0924269-.29068978.13864166-.43673978.02574396-.08149167.05185834-.16333523.07725834-.24553334.04621212-.14605.092075-.29280644.13793522-.43991478.02468563-.0800788.04938977-.16016024.07443523-.24059357.04621477-.15028334.09278144-.30127311.1389962-.45261478.02151063-.07090834.04303713-.14181667.06455834-.212725.16016023-.52881215.31891023-1.06362503.47519166-1.60407884.02256896-.07796477.0451538-.15592955.06773333-.23424621.0141023-.04903523.028575-.09736667.04233334-.1467538.02927879-.1016.05785379-.20425834.08642879-.30621288.02611437-.09066213.05150643-.1816788.07725833-.27269547.04162954-.14816667.08290454-.29668788.12417954-.44555834.02574396-.09348788.0515038-.187325.07725833-.28116478.02645834-.09630834.05291667-.19191023.079375-.28821857.01481667-.05432954.0289269-.10936288.04374356-.16404167.02434167-.08960644.0479769-.17991667.07231857-.269875.041275-.15522312.08290454-.31009168.123825-.46602123.01375833-.05291667.02716476-.1054788.041275-.15839546.08748976-.33619811.17356666-.67345456.25858787-1.0117667.02045229-.08043333.04092045-.16086666.06102879-.24165454.00986895-.04056856.02045229-.08113713.03033977-.12170834.02716477-.10971212.0536231-.22013334.08008143-.32949357.02468563-.10089356.04903523-.20108334.0733769-.3019769.03563143-.14746288.07055643-.29562955.10583333-.44344168.0239977-.10301288.04833144-.20567121.07231856-.30868144.0342212-.14710834.06808788-.29456857.1016-.44203145.0239977-.10406857.0472731-.20813713.07055644-.31220834.03351477-.149225.066675-.29809547.09948333-.44767501.02010833-.09172047.03951023-.18344357.05961856-.27551857.0310462-.14499167.0631481-.28963066.09383977-.43462233.03386667-.16051398.0663231-.3210277.09913144-.48189436.01727729-.08466667.0352769-.16933334.05256212-.25435296.02892954-.14393334.05715-.28786668.0853731-.43144706.02188105-.111125.04374357-.22189732.06526477-.33266963.00986896-.05221102.02082271-.1051277.03069167-.15769167.01693333-.0892527.03316023-.17885834.04974167-.26846372.02116666-.11147796.0416269-.22330834.06208712-.33443334.02611438-.14216963.05150644-.2839863.07655454-.4258027.01976438-.11218334.03951023-.22436667.05891213-.33619732.02434166-.14181667.04868333-.28398603.0723212-.42545001.01870604-.11218334.03668713-.22401398.0546788-.33619732.02293937-.14111103.04621476-.28222205.06808787-.4226277.02293937-.14675565.04445-.29351103.06632046-.43991399.38523332-2.57880544.61700832-5.12056922.62688786-7.53180557.00105834-.25682205-.00026458-.51223334-.00423333-.7658804-.0049477-.30233065-.0236273-.59548899-.04903788-.88335566-.00423333-.04903603-.00775229-.098425-.0127-.14675539-.028575-.28645565-.06702689-.56620834-.11500379-.83855297-.00351895-.0194019-.00740833-.03774705-.01092729-.05715-.10583333-.58278873-.25541022-1.13276939-.44344166-1.65100004C16.1203591.3746489.1910324 1.5652739.00476573 13.29090173c-.02434166 1.53811106.04621213 3.13478341.1940269 4.76461652"/><path fill="#00a6a0" d="M10.0733944 48.77611259S20.40025904 26.03499883 20.1420257 9.79028766c-.20743332-13.05348313-19.92982664-13.05348313-20.13725997 0C-.2534676 26.03499883 10.0733944 48.7761126 10.0733944 48.7761126"/><path fill="#009893" d="M10.0733944 48.77611259S20.40025904 26.03499883 20.1420257 9.79028766c-.02116666-1.32856105-.2472981-2.51918608-.6311212-3.5768138-5.87621848 4.90960846-13.46411384 7.21077787-19.31211188 8.3414306 1.41111022 15.58289933 9.87460178 34.22120813 9.87460178 34.22120813"/><path fill="#008c88" d="M2.7514926 28.0691166c2.98238329 11.14918741 7.3219018 20.70699599 7.3219018 20.70699599s7.330723-16.14452087 9.48478321-30.94460806c-3.51437306 5.0302582-9.98255177 7.75969993-14.59970815 9.19056584-.85548522.26493789-1.58220831.62582956-2.20697687 1.04704624"/><path fill="#006360" d="M10.0733944-.0000011c.22401476 4.73674724.40851666 9.47596402.5647981 14.21694452.155575 4.7406278.28045832 9.48301933.3552481 14.22823343.07443522 4.74556678.10618522 9.49325024.02505603 14.24834202-.04197879 2.37772052-.10795 4.75720846-.24306212 7.14339564l-.11818143 1.79140648c-.053975.59901669-.0980731 1.19697503-.16051477 1.79740195-.13158523 1.20367957-.2797519 2.40523983-.56656022 3.65125009-.13123334.56973789-.69955833.9253379-1.26929355.79445645-.56973787-.13123333-.92498332-.69955835-.79410453-1.26929359.00283104-.01164167.00563562-.02293938.00846666-.0342212l.00812271-.0292788c.28504356-1.0562167.4758981-2.20521483.64346666-3.35244819.08149167-.57573335.1464019-1.15852313.22083977-1.73778338l.180975-1.7515417c.22013333-2.34209173.37359166-4.70041036.50341212-7.06014185.2564712-4.72157702.40110832-9.4572669.50306286-14.19436703.1016-4.73709932.1531038-9.47737418.17427046-14.21800199.01976437-4.7409805.01164167-9.48266664-.03598333-14.22435285"/></svg>