<svg xmlns="http://www.w3.org/2000/svg" xml:space="preserve" viewBox="0 0 119.06 119.06"><g fill="none" stroke-width="2"><path stroke="#ee7391" d="M241.98 87.13q-8.19 19.73-13.95 39.99-.02.06 0 .13l.08.24" transform="scale(.26458333 .26458334)" vector-effect="non-scaling-stroke"/><path stroke="#bb3c5b" d="M228.11 127.49q-1.95-1.42-2.83-.73a2.43.92-30.5 0 0-1.03 1.28l-3.2 15.57a.2.19 44.3 0 1-.38 0q-5.38-22.06-5.08-44.43.01-.86-.41-1.23-.63-.57-1.6-.01a1.48 1.48 0 0 0-.75 1.27q-.25 25.66 6.41 50.55c.22.82.43 1.44.29 2.35q-3.52 23.13-4.29 46.34a.27.26 26 0 1-.47.16q-18.37-22.53-26.46-50.39-.51-1.76-2.04-1.13a1.18 1.17 70.8 0 0-.68 1.41q8.64 30.34 29.1 54.26a1.4 1.38-65 0 1 .33.93q-.51 31.09 2.28 62.06a.39.38-73.4 0 1-.62.34c-22.54-18.01-38.41-43.48-50.38-69.38q-.92-1.99-2.13-1.11a1.49 1.48-30.5 0 0-.48 1.83c13.35 28.58 29.16 53.49 53.55 72.74q.45.35.49.91 1.39 18.41 4.58 36.6.11.59-.43.34-38.66-17.88-70.48-46.18-.69-.61-1.17-.79-1.19-.43-1.55.85a1.72 1.7 28.8 0 0 .52 1.76q33.08 29.31 73.27 47.74.48.22.61.73l5.4 21.43" transform="scale(.26458333 .26458334)" vector-effect="non-scaling-stroke"/><path stroke="#bd4b67" d="M233.22 335.62q-4.09-11.56-6.31-24.46a.63.63 0 0 1 .27-.63c27.7-18.9 50.71-44.48 72.57-69.64a1.12 1.12 0 0 0-.53-1.81q-1.08-.32-2.08.8c-21.48 24.16-43.41 48.78-70.03 67.42a.85.85 0 0 1-1.33-.59l-4.73-37.32a1.48 1.47 64.1 0 1 .42-1.23q32.8-32.95 53.75-74.47a1.54 1.53-57.7 0 0-.42-1.89q-1.15-.91-2.08.91-20.32 39.78-51.44 71.74a.2.2 0 0 1-.35-.12q-2.78-30.51-2.25-61.15a1.33 1.32 76 0 1 .68-1.14q29.7-16.32 49.21-44.08a1.1 1.1 0 0 0-.07-1.36q-.86-1-1.92-.37-.39.23-.85.88-18.24 25.74-46 41.65-.81.46-.78-.47.69-24.35 4.8-48.35.09-.55.56-.86 16.82-11.1 28.05-27.82c.56-.84.66-1.84-.29-2.38a1.33 1.33 0 0 0-1.76.43q-10.16 15.41-25.28 26a.3.3 0 0 1-.46-.3l3.54-17.52" transform="scale(.26458333 .26458334)" vector-effect="non-scaling-stroke"/></g><path fill="#eb6484" d="M64.02 23.05q-2.16 5.22-3.69 10.58v.04l.02.06q-.51-.37-.74-.2a.64.24-30.5 0 0-.28.35L58.5 38a.05.05 44.3 0 1-.1 0q-1.43-5.84-1.35-11.76 0-.23-.1-.32-.17-.15-.43 0a.4.4 0 0 0-.2.33q-.06 6.79 1.7 13.37c.06.22.11.39.07.63q-.93 6.12-1.13 12.26a.07.07 26 0 1-.13.04q-4.86-5.96-7-13.33-.13-.47-.54-.3a.31.31 70.8 0 0-.18.37q2.29 8.03 7.7 14.36a.37.37-65 0 1 .1.24q-.14 8.23.6 16.42a.1.1-73.4 0 1-.17.1C51.37 65.63 47.17 58.9 44 52.04q-.24-.53-.56-.3a.4.4-30.5 0 0-.13.49c3.53 7.56 7.71 14.15 14.17 19.24q.12.1.13.24.37 4.87 1.2 9.69.04.15-.1.09-10.23-4.73-18.65-12.22-.18-.16-.31-.21-.32-.11-.41.22a.46.45 28.8 0 0 .14.47q8.75 7.75 19.38 12.63.13.06.16.2l1.43 5.66q-1.91-1.6-2.78-2c-6.24-2.92-13.06-4.02-17.8-9.69-2.14-2.55-3.7-7.53.05-9.63 1.7-.95 3.35-.61 5.17-.08q.18.06.08-.1-3.57-5.79-3.5-12.44 0-1.4.64-2.95c1.3-3.16 5.02-3.3 7.44-1.44a.05.05 8.6 0 0 .07-.05q-1.91-5.35-1.45-11.04c.16-1.9 1.73-3.1 3.5-1.85q.14.1.13-.07-.25-5.42 2.54-10.15c1.25-2.12 3.24-4.24 5.71-4.53q2.14-.25 3.77.82z"/><path fill="#f0829d" d="M64.02 23.05c2.69 1.66 3.92 4.4 4.13 7.53q.26 4.13-.57 8.18-.03.18.13.1 2.66-1.35 4.41.74c1.38 1.64.18 3.97-1.06 5.25q-.15.15.06.13 2.05-.17 3.58.56c3.2 1.53 3.64 5.54 1.78 8.38q-1.81 2.76-4.75 5.26-.24.2.06.13c.6-.15 1.24-.34 1.72-.41 4.02-.6 7.2 2.03 7.77 6 .68 4.73-1.99 9.6-5.52 12.65-3.45 2.99-7.7 5.18-11.08 7.63q-2.02 1.47-2.97 3.62-1.09-3.06-1.67-6.47a.17.17 0 0 1 .07-.17c7.33-5 13.41-11.77 19.2-18.42a.3.3 0 0 0-.14-.48q-.29-.09-.55.2c-5.69 6.4-11.49 12.91-18.53 17.85a.22.22 0 0 1-.35-.16l-1.25-9.87a.4.39 64.1 0 1 .1-.33q8.69-8.72 14.23-19.7a.4.4-57.7 0 0-.11-.5q-.3-.24-.55.24-5.38 10.52-13.61 18.98a.05.05 0 0 1-.1-.03q-.73-8.08-.6-16.18a.35.35 76 0 1 .19-.3q7.86-4.32 13.02-11.67a.3.3 0 0 0-.02-.36q-.23-.26-.5-.1-.11.07-.23.24-4.83 6.8-12.17 11.02-.22.12-.21-.13.18-6.44 1.27-12.79.02-.14.15-.23 4.45-2.93 7.42-7.36c.15-.22.17-.48-.08-.63a.35.35 0 0 0-.46.12q-2.69 4.07-6.7 6.88a.08.08 0 0 1-.11-.08l.93-4.64-.02-.06v-.04q1.53-5.36 3.7-10.58z"/><path fill="#8a1431" d="m60.35 33.73-.93 4.64a.08.08 0 0 0 .12.08q4-2.8 6.69-6.88a.35.35 0 0 1 .46-.12c.25.15.23.41.08.63q-2.97 4.43-7.42 7.36-.13.09-.15.23-1.09 6.35-1.27 12.8 0 .24.2.12 7.35-4.21 12.18-11.02.12-.17.22-.23.28-.17.51.1a.3.3 0 0 1 .02.35q-5.16 7.35-13.02 11.67a.35.35 76 0 0-.18.3q-.14 8.1.6 16.18a.05.05 0 0 0 .09.03q8.23-8.46 13.6-18.98.25-.48.56-.24a.4.4-57.7 0 1 .1.5q-5.53 10.98-14.21 19.7a.4.39 64.1 0 0-.11.33l1.25 9.87a.22.22 0 0 0 .35.16c7.04-4.94 12.84-11.45 18.53-17.84q.26-.3.55-.21a.3.3 0 0 1 .14.48c-5.79 6.65-11.87 13.42-19.2 18.42a.17.17 0 0 0-.07.17q.58 3.41 1.67 6.47 1.53 4.35 3.8 7.94a.3.3 55.3 0 1-.07.41c-.38.3-.68.26-.95-.17q-2.6-4.14-4.04-8.73l-1.43-5.67q-.03-.13-.16-.19-10.63-4.88-19.38-12.63a.46.45 28.8 0 1-.14-.47q.1-.33.4-.22.14.05.32.2 8.42 7.5 18.65 12.23.14.06.1-.1-.83-4.8-1.2-9.68-.01-.14-.13-.24c-6.46-5.1-10.64-11.68-14.17-19.24a.4.4-30.5 0 1 .13-.49q.32-.23.56.3c3.17 6.85 7.37 13.59 13.33 18.35a.1.1-73.4 0 0 .16-.09q-.73-8.2-.6-16.42a.37.37-65 0 0-.09-.24q-5.41-6.33-7.7-14.36a.31.31 70.8 0 1 .18-.37q.4-.17.54.3 2.14 7.37 7 13.33a.07.07 26 0 0 .13-.04q.2-6.14 1.13-12.26c.04-.24-.01-.4-.07-.63q-1.76-6.58-1.7-13.37a.4.4 0 0 1 .2-.34q.26-.14.42 0 .11.1.11.33-.08 5.92 1.35 11.76a.05.05 44.3 0 0 .1 0l.84-4.12a.64.24-30.5 0 1 .28-.34q.23-.18.74.2z"/></svg>