<svg xmlns="http://www.w3.org/2000/svg" xml:space="preserve" viewBox="0 0 264.58 285.75"><g fill="none" stroke-width="2"><path stroke="#ee6c4e" d="M510.24 191.07q.01 1.22-1.05 1.03a.68.68 0 0 0-.8.72c1.52 22.45.52 45.34.24 67.81" transform="scale(.26458333 .26458334)" vector-effect="non-scaling-stroke"/><path stroke="#b85849" d="M508.63 260.63q-1.18 1.33-1.57 3.63-10.44 62.16-16.02 124.8a.22.22 0 0 1-.41.1q-22.66-36.01-45.18-72.09l-.56-.99c-2.14-3.78-7.88-.88-5.26 3.31q24.69 39.53 49.44 79.03c.74 1.19.89 2.26.77 3.58q-5.44 62.57-6.44 125.29a.23.23 0 0 1-.39.17q-76.88-73.4-155.9-144.57c-1.89-1.71-4.03-3.04-5.91-.54-1.36 1.8-.64 3.04.83 4.37q81.61 73.41 160.6 149.05a2 2 0 0 1 .62 1.47q-.85 59.19 2.95 118.27a.58.57-73.3 0 1-.92.5c-32.76-24.7-67.11-48.59-102.72-68.96-35.06-20.06-70.15-39.62-102.74-63.61-3.37-2.49-6.46 3.03-2.37 6.02 32.16 23.53 66.73 42.98 101.33 62.62 37.3 21.17 73.24 46.37 107.37 72.32q.44.34.48.9l2.88 41.2" transform="scale(.26458333 .26458334)" vector-effect="non-scaling-stroke"/><path stroke="#b96051" d="m499.53 710.38-3.94-51.63a1.03 1.01 72.6 0 1 .48-.94Q600.76 594.23 708.23 535q2.13-1.18 1.6-3.23c-.84-3.27-3.37-2.8-5.77-1.48q-105.51 58.12-208.44 120.48a.32.31-17.2 0 1-.48-.25q-1.75-28.53-2-57.27c-.17-19.86-.55-39.5-.72-59.25-.01-1.15.17-2.02 1.21-2.71q94.26-62.39 184.17-130.9c3.73-2.83 1.83-9.07-3.13-5.29q-88.47 67.26-181.34 128.98a.37.37 0 0 1-.58-.31q1.09-61.65 6.29-123.28.24-2.86 2.33-4.87 20.59-19.82 42.03-38.72 11.74-10.35 21.93-22.2.29-.33-.1-.53-1.08-.57-1.55.52a.63.63 0 0 1-.76.35l-2.17-.64a.46.46 0 0 1-.24-.71l.71-.99a.4.39-4.3 0 0-.6-.51c-18.96 18.2-40.15 36.53-59.8 55.39a.3.29-19.1 0 1-.5-.24q5.98-59.97 15.49-119.57.58-3.61-.52-5.39-1.9-3.06-6.66-1.75" transform="scale(.26458333 .26458334)" vector-effect="non-scaling-stroke"/></g><path fill="#ed6346" d="M135 50.55q0 .33-.28.28a.18.18 0 0 0-.2.19c.4 5.94.13 12 .05 17.94q-.3.35-.41.96-2.76 16.45-4.24 33.02a.06.06 0 0 1-.1.03q-6-9.53-11.96-19.08l-.15-.26a.83.83 0 0 0-1.4.88l13.09 20.9c.2.32.23.6.2.95q-1.44 16.56-1.7 33.15a.06.06 0 0 1-.1.05q-20.35-19.42-41.25-38.25c-.5-.46-1.07-.8-1.57-.15-.36.48-.17.8.22 1.16q21.6 19.42 42.5 39.44a.53.53 0 0 1 .16.38q-.23 15.67.78 31.3a.15.15 16.7 0 1-.24.13c-8.67-6.54-17.76-12.86-27.18-18.25-9.28-5.3-18.56-10.48-27.18-16.83-.9-.66-1.71.8-.63 1.6 8.5 6.22 17.65 11.37 26.8 16.56 9.88 5.6 19.39 12.27 28.42 19.14q.11.09.12.24l.77 10.9q-5.34-9.26-15.49-10.97-11.06-1.86-16.26 7.69c-.4.72-1.47.44-1.46-.47.07-4.83-4.1-7.88-8.4-8.78q-5.87-1.23-11.38 1.56c-.58.3-1.3-.43-1.1-1.02q.08-.25.49-.53c2.51-1.7 3.23-4.42 2.55-7.36-1.47-6.37-8.86-7.89-14.52-7.16-1.11.14-1.54-.48-.98-1.44q2.3-3.95 1.38-8.5c-1.79-8.82-10.14-13.56-17.54-17.18a.6.6 4.5 0 1-.31-.36q-.22-.7.38-1.12a.38.39 30.7 0 1 .24-.07c4.94.45 11.3.94 14.7-3.58q1.37-1.8 1.44-4.08c.02-.75.89-.97 1.38-.48q2.84 2.83 6.94 4.81c3.51 1.7 9.9 3.2 12.81-.48 1.4-1.77 1.4-4.2.64-6.3-1.81-5.05-7.12-11.19-13.16-10.13q-.51.08-.73 0c-.55-.2-.7-1.06-.17-1.42a8.93 8.93 0 0 0 3.69-7.76c-.19-4.64-3.64-8.57-7.65-10.74-.94-.51-1.15-1.37 0-1.78q2.47-.9 3.92-3.13C74.2 81.1 72 75.18 69.3 70.54c-.72-1.26.61-2.2 1.3-1.03 3.75 6.48 11.63 9.24 18.43 6 .66-.32 1.21.1 1.12.82-.83 6.56 1.42 14.89 9.39 15.49 4.21.32 6.74-2.36 7.83-6.22 1.55-5.55.08-11.66-3.4-16.13-.43-.54-.54-1.08 0-1.54a.34.35 26.7 0 1 .25-.09c.57.03 1.25.33 1.62.41q3.89.85 7.39-.57c3.53-1.43 5.2-3.79 4.94-7.63q-.2-3.13-1.12-6.47c-.28-1.02.36-1.48 1.3-1.19q2.55.78 5.2.96c6.96.47 7.84-6.8 7.74-11.82-.02-.85.19-1.32 1.12-1.22.55.05.79.27.8.85.06 3.28.13 6.46 1.78 9.4z"/><path fill="#ef7455" d="M135 50.55c2.95 3.87 7.2 3 11.3 1.82.94-.27 1.41.21 1.2 1.12-1.09 4.8-2.8 10.65 2.57 13.58q4.64 2.53 9.93.8c.63-.2 1.01.41.95.94q-.04.25-.33.64-4.95 6.46-3.77 14.42c.67 4.54 3.23 8.43 8.39 7.91q3.87-.38 6.32-3.23c2.83-3.3 3.3-7.75 2.86-11.9-.1-.98.27-1.55 1.29-1.08a14.15 14.15 0 0 0 18.35-6.26.59.59 0 0 1 .56-.3c1.06.07 1.02.86.6 1.6-1.61 2.82-2.97 5.97-3.2 8.96-.31 4.16 1.68 8.5 5.87 9.81.43.14.62.9.26 1.3q-.16.18-.5.36c-3.92 2.04-7.26 5.82-7.7 10.28q-.48 4.97 3.71 8.35c.78.62.02 1.47-.85 1.3-4.55-.8-8.41 2.34-10.92 5.75-1.97 2.67-3.85 6.68-2.25 9.9 1.78 3.56 6.93 3.44 10.2 2.45q5.72-1.73 9.86-5.8c.61-.6 1.51-.73 1.6.35q.36 4.2 3.87 6.18c3.6 2.04 7.72 1.86 11.7 1.47 1.53-.15 1.69 1.21.49 1.78-7.39 3.48-15.62 8.45-17.17 17.23q-.77 4.35 1.38 8.1c.43.76.4 1.67-.72 1.53-3.89-.51-8.92-.03-11.96 2.59-3.14 2.7-4.35 7.9-1.23 11.12.35.36.92.68 1.37 1.06q.1.1.12.23c.13.88-.46 1.27-1.26.95q-.6-.23-1.18-.48-5.4-2.33-11.02-.74c-4 1.12-7.6 4.24-7.4 8.77q0 .15-.1.28-.43.51-1.1.28a.37.37 84.3 0 1-.2-.16q-.49-.84-1-1.64-3.11-4.75-8.3-6.11c-3.79-1-8.72-.33-12.34 1.14q-7.94 3.22-13.08 10.75l-1.04-13.66a.27.27 72.6 0 1 .12-.24q27.7-16.83 56.14-32.5.56-.31.42-.85c-.22-.87-.9-.74-1.53-.4q-27.91 15.38-55.15 31.88a.08.08 72.8 0 1-.12-.06q-.47-7.55-.53-15.16c-.05-5.25-.15-10.45-.2-15.67 0-.3.05-.54.33-.72q24.94-16.5 48.72-34.63c1-.75.49-2.4-.82-1.4q-23.41 17.8-47.98 34.12a.1.1 0 0 1-.16-.08q.3-16.31 1.67-32.62.06-.75.61-1.29 5.45-5.24 11.12-10.24 3.11-2.74 5.8-5.87.08-.1-.02-.14-.28-.15-.4.13a.17.17 0 0 1-.21.1l-.57-.17a.12.12 0 0 1-.07-.2l.2-.25a.1.1 85.7 0 0-.17-.14c-5.01 4.82-10.62 9.67-15.82 14.66a.08.08 70.9 0 1-.13-.07q1.58-15.86 4.1-31.63.15-.96-.14-1.43-.5-.8-1.76-.46c.07-5.95.34-12-.07-17.94a.18.18 0 0 1 .22-.2q.28.06.27-.27z"/><path fill="#824c4c" d="M132.17 187.95c.89 12.18 2.51 24.35 6.44 36.05.42 1.24-1.25 1.85-2.04 1.12q-.31-.28-.55-1.03c-3.82-11.72-5.46-24.39-6.37-36.46q-.01-.15-.09-.34-.1-.26-.04-.36l-.77-10.9q0-.15-.12-.24c-9.03-6.87-18.54-13.53-28.41-19.14-9.16-5.2-18.3-10.34-26.81-16.56-1.08-.8-.27-2.26.63-1.6 8.62 6.35 17.9 11.53 27.18 16.83a262.08 262.08 0 0 1 27.18 18.25.15.15 16.7 0 0 .24-.13q-1-15.63-.78-31.3a.53.53 0 0 0-.16-.38q-20.9-20.02-42.5-39.44c-.38-.35-.58-.68-.22-1.16.5-.66 1.07-.3 1.57.15q20.9 18.83 41.25 38.25a.06.06 0 0 0 .1-.05q.26-16.6 1.7-33.15c.04-.35 0-.63-.2-.94L116.32 84.5c-.7-1.11.82-1.88 1.4-.88l.14.26q5.96 9.55 11.95 19.08a.06.06 0 0 0 .11-.03q1.48-16.57 4.24-33.02.1-.61.42-.96 1.25-.35 1.76.46.29.47.14 1.43-2.52 15.77-4.1 31.63a.08.08 70.9 0 0 .13.07c5.2-5 10.8-9.84 15.82-14.66a.1.1 85.7 0 1 .16.14l-.19.26a.12.12 0 0 0 .06.19l.58.17a.17.17 0 0 0 .2-.1q.12-.29.41-.13.1.05.03.14-2.7 3.13-5.8 5.87-5.68 5-11.13 10.24-.55.54-.61 1.3-1.38 16.3-1.67 32.61a.1.1 0 0 0 .16.08q24.57-16.33 47.98-34.12c1.3-1 1.81.65.82 1.4q-23.78 18.12-48.72 34.63c-.28.18-.33.41-.32.72.04 5.22.14 10.42.19 15.67q.06 7.6.53 15.16a.08.08 72.8 0 0 .12.06q27.24-16.5 55.15-31.87c.64-.35 1.3-.48 1.53.39q.14.54-.42.85-28.44 15.67-56.14 32.5a.27.27 72.6 0 0-.13.24z"/><path fill="#fff" d="M85.83 90.5q-.84-1.87-1.06-3.18c-.16-.97 1.28-1.6 1.97-1.1q.36.26.62 1.12 2.5 8.03 10.5 11.65c1.03.46.14 2.11-.84 2.17q-.46.02-1.33-.4-6.77-3.3-9.86-10.25zm16.9 6.31a4.32 4.32 0 0 0 2.2-1.1q.1-.08.24-.08 1.08-.04 1.44.81c.64 1.53-2.01 2.51-3.1 2.74-1.88.4-2.4-1.99-.79-2.37zm93.03 51.8a1.18 1.18 0 0 1-.76 1.48l-1.64.52a1.18 1.18 0 0 1-1.49-.76l-.04-.14a1.18 1.18 0 0 1 .76-1.48l1.64-.53a1.18 1.18 0 0 1 1.48.77zm-18.72 15.8a18.33 18.33 0 0 1 10.02-12.05c1.41-.66 2.92 1.32 1 2.28q-6.83 3.44-8.8 11.26c-.27 1.05-2.07.79-2.34-.23q-.1-.42.12-1.25z"/></svg>