<svg xmlns="http://www.w3.org/2000/svg" xml:space="preserve" viewBox="0 0 383.12 383.12"><g fill="none" stroke-width="2"><path stroke="#f08a9d" d="M979.7 714.54q-9.7 3.95-18.95 6.04c-15.75 3.56-30.22.94-43.33-8q-26.93-18.37-52.93-33.92c-8.7-5.2-17.79-10.77-24.03-15.86-9.74-7.94-20.6-18.16-31.32-23.73-18.13-9.44-42.14 2.9-59.87 8.52q-10.74 3.4-19.51-.34-21.82-9.29-39.56-28.56c-1.11-1.2-2.65-3.57-4.54-5.03" transform="scale(.26458333 .26458334)" vector-effect="non-scaling-stroke"/><path stroke="#b56567" d="M685.66 613.66q69.76-96.62 153.47-174.53c4.17-3.88 4.2-8.59-.46-11.88-4.6-3.24-8.29-.21-11.98 3.27q-82.47 77.84-149.32 169.62" transform="scale(.26458333 .26458334)" vector-effect="non-scaling-stroke"/><path stroke="#f08a9d" d="M677.37 600.14q-4.79-15.19 1.64-28.91 4.11-8.77 12.31-24.21 8.59-16.17 10.75-37.29 1.38-13.49-3.94-25.89c-2.83-6.62-6.84-13.93-8.78-20q-5.01-15.77-2.16-31.9c2.89-16.41 11.24-35.17 20.92-48.84 10.5-14.83 23.41-27.55 37.9-40.23q23.25-20.36 39.35-38.01 19.45-21.33 31.21-50.87l.49-.88q.41-.73-.3-1.24" transform="scale(.26458333 .26458334)" vector-effect="non-scaling-stroke"/><path stroke="#b3545e" d="M677.37 600.14Q634.1 659.7 597.78 723.9" transform="scale(.26458333 .26458334)" vector-effect="non-scaling-stroke"/><path stroke="#ee7090" d="M597.78 723.9q-.9.03-1.26-.42-6.33-7.83-10.64-16.91c-2.56-5.4-2.2-11.8-4.92-16.75q-4.19-7.63-12.68-9.91c-4.18-1.13-10.17-.57-14.29-1.39q-7.98-1.59-13.74-7.76-17.8-19.1-16.87-45.26.56-15.81 6.12-33c8.99-27.79 24.92-54.45 34.65-79.63q4.67-12.1 6.27-18.68c2.59-10.64 2.39-20.65-4.51-29.61q-6.03-7.82-17.68-11.61-14.99-4.87-30.72-5.79" transform="scale(.26458333 .26458334)" vector-effect="non-scaling-stroke"/><path stroke="#b3545e" d="M685.66 613.66Q646.43 668 613.15 726.28" transform="scale(.26458333 .26458334)" vector-effect="non-scaling-stroke"/><path stroke="#b34b5a" d="M613.15 726.28q-46.28 81.6-80.97 169.01" transform="scale(.26458333 .26458334)" vector-effect="non-scaling-stroke"/><path stroke="#b14055" d="M532.18 895.29q-37.88 96.18-65.29 196-.36 1.3-.9 2.74m-11.74-13.22q-.25-1.82.89-3.01a1.95 1.91-15.8 0 0 .48-.84q24.38-87.79 57.24-172.85" transform="scale(.26458333 .26458334)" vector-effect="non-scaling-stroke"/><path stroke="#b34b5a" d="M512.86 904.11c24.65-62.06 52.2-121.99 84.92-180.21" transform="scale(.26458333 .26458334)" vector-effect="non-scaling-stroke"/><path stroke="#ee7090" d="M878.22 826.74q.57-1.08-.24-1.74a1.13 1.11 58.6 0 0-.92-.23c-15.48 3.06-28.5 3.44-41.46-7.01q-9.05-7.29-14.47-17.19-14.23-26.01-37.09-42.68-3.1-2.26-16.73-10.94-24.51-15.61-49.03-31.16-12.15-7.71-17.28-10.03c-17.08-7.71-38.61-8.96-55.62-.31-9.36 4.77-19.75 14.05-28.93 21.27q-1.36 1.07-3.17 1.18-.53.03-.34-.47.24-.64.21-1.15" transform="scale(.26458333 .26458334)" vector-effect="non-scaling-stroke"/><path stroke="#ec5c87" d="M512.86 904.11c-9.89-1.4-14.87-9.37-16.46-17.85-3.23-17.35-1.07-35.82.6-53.8 3.13-33.67-.68-65.41-18.8-94.45q-14.5-23.24-36.18-42.69m364.26 185.44q-.03-.62-.39-1.02-.29-.31-.92-.34-7.54-.3-14.98-1.47c-26.93-4.25-58.05-4.24-81.91 9.65-19.53 11.37-34.86 19.64-56.58 21.38-28.62 2.29-43.99-18.54-67.8-29.08-13.93-6.17-24.11-2.51-36.44 6.04q-7.15 4.95-13.67 10.54a.91.91 0 0 1-1.48-.86q.02-.14.07-.31" transform="scale(.26458333 .26458334)" vector-effect="non-scaling-stroke"/></g><path fill="#f29aa6" d="M259.21 189.06q-2.56 1.04-5.01 1.6c-4.17.94-8 .24-11.47-2.12q-7.12-4.86-14-8.98a57.76 57.76 0 0 1-6.36-4.2c-2.58-2.1-5.45-4.8-8.29-6.27-4.8-2.5-11.14.76-15.84 2.25q-2.84.9-5.16-.09-5.77-2.46-10.46-7.55c-.3-.32-.7-.95-1.2-1.34q18.45-25.56 40.6-46.17c1.1-1.03 1.11-2.28-.12-3.15-1.22-.85-2.2-.05-3.17.87q-21.82 20.6-39.5 44.88-1.28-4.02.42-7.65 1.1-2.32 3.26-6.4 2.27-4.29 2.85-9.87.36-3.57-1.05-6.85c-.75-1.76-1.8-3.69-2.32-5.3q-1.33-4.17-.57-8.44c.76-4.34 2.97-9.3 5.53-12.92 2.78-3.92 6.2-7.29 10.03-10.64q6.15-5.39 10.41-10.06 5.15-5.64 8.26-13.46l.13-.23q.1-.2-.08-.33 17.86-8.5 35.11-18.13a259.96 259.96 0 0 0 24.53-15.62.07.07-10.1 0 1 .1.07Q271.8 48 269.78 63.5q-2.23 17.2-2.92 31.19-.32 6.67.47 15.12c1.3 13.7 2.97 27.37 3.34 41.13q.24 8.8-1.18 16.54a32.49 32.49 0 0 1-2.4 7.18q-3.44 7.74-7.88 14.4z"/><path fill="#ee7994" d="M216.1 66.64q.19.14.08.33l-.13.23q-3.11 7.82-8.26 13.46-4.26 4.67-10.4 10.06c-3.84 3.35-7.26 6.72-10.04 10.64a34.37 34.37 0 0 0-5.53 12.92q-.76 4.27.57 8.44c.51 1.61 1.57 3.54 2.32 5.3q1.41 3.28 1.05 6.85-.58 5.58-2.85 9.86-2.17 4.09-3.26 6.4-1.7 3.64-.43 7.66-11.45 15.76-21.06 32.74-.24.01-.33-.1-1.68-2.08-2.82-4.48c-.67-1.43-.58-3.13-1.3-4.44q-1.1-2.01-3.35-2.62c-1.1-.3-2.7-.15-3.78-.36q-2.11-.43-3.64-2.06-4.7-5.05-4.46-11.97.15-4.19 1.62-8.73c2.38-7.36 6.59-14.41 9.16-21.07q1.24-3.2 1.66-4.95c.69-2.81.64-5.46-1.19-7.83q-1.6-2.07-4.68-3.07-3.96-1.29-8.13-1.53 11-14.17 25.45-23.7 4.8-3.16 11.92-6.99c13.74-7.38 27.8-14.17 41.81-20.99z"/><path fill="#782f28" d="M181.41 162.36q-10.38 14.38-19.18 29.8-12.25 21.6-21.42 44.72-10.03 25.45-17.28 51.86-.1.34-.24.72-8.15 30.05-14.07 60.69-.23 1.21-.66 1.66c-1 1.07-3.18.13-3.28-1.32q-.02-.3.27-1.8 6.13-31.66 14.64-62.73-.07-.48.23-.8a.52.5-15.8 0 0 .13-.21q6.45-23.23 15.14-45.74a392.1 392.1 0 0 1 22.47-47.68q9.61-16.98 21.06-32.74 17.69-24.29 39.5-44.88c.98-.92 1.96-1.72 3.18-.87 1.23.87 1.22 2.12.12 3.15q-22.15 20.61-40.6 46.17z"/><path fill="#ed678c" d="M158.16 191.53a392.1 392.1 0 0 0-22.47 47.68c-2.61-.37-3.93-2.48-4.35-4.72-.86-4.6-.28-9.48.16-14.23.83-8.91-.18-17.31-4.98-25q-3.83-6.14-9.57-11.29-.04-4.02.16-10.87c.18-6.52.72-13.01 2.08-19.26q2.8-12.8 10.06-24.4 4.17-6.66 7.67-11.12 4.17.24 8.13 1.53 3.08 1 4.68 3.07c1.83 2.37 1.88 5.02 1.2 7.83q-.43 1.75-1.67 4.95c-2.57 6.66-6.78 13.71-9.16 21.07q-1.47 4.54-1.62 8.73-.25 6.92 4.46 11.97 1.53 1.63 3.64 2.06c1.09.21 2.67.06 3.78.36q2.24.6 3.35 2.62c.72 1.31.63 3 1.3 4.44q1.14 2.4 2.82 4.47.1.12.33.11z"/><path fill="#ee7994" d="M181.41 162.36c.5.4.91 1.02 1.2 1.34q4.7 5.1 10.47 7.55 2.32 1 5.16.1c4.7-1.5 11.05-4.76 15.84-2.26 2.84 1.47 5.71 4.18 8.3 6.28a57.76 57.76 0 0 0 6.35 4.2q6.88 4.1 14 8.97a14.04 14.04 0 0 0 11.47 2.11q2.45-.55 5.01-1.6-1.34 2.2-2.52 3.81-10.48 14.46-24.33 25.88.15-.28-.06-.46a.3.3 58.6 0 0-.24-.06c-4.1.81-7.55.91-10.97-1.85q-2.4-1.93-3.83-4.55-3.77-6.88-9.82-11.3-.82-.6-4.42-2.89l-12.98-8.24q-3.21-2.04-4.57-2.66c-4.52-2.04-10.21-2.37-14.71-.08-2.48 1.26-5.23 3.72-7.66 5.63q-.36.28-.84.31-.14 0-.09-.12.07-.17.06-.3 8.8-15.43 19.18-29.8z"/><path fill="#ea5082" d="M116.95 183.97q5.74 5.15 9.57 11.3c4.8 7.68 5.8 16.08 4.98 24.99-.44 4.75-1.02 9.64-.16 14.23.42 2.24 1.74 4.35 4.35 4.72q-8.69 22.5-15.14 45.74a.52.5-15.8 0 1-.13.22q-.3.31-.23.8-.11-1.41-.1-1.84.12-10.4.21-20.8.02-2.65-.14-5.29-1.19-18.5-2.51-36.98c-.89-12.33-.81-22.33-.7-37.09z"/><path fill="#ed678c" d="M232.36 218.74q-9.1 7.63-19.03 14.3-.01-.17-.1-.28-.08-.08-.25-.09-2-.07-3.96-.38c-7.13-1.13-15.36-1.13-21.67 2.55-5.17 3-9.23 5.2-14.97 5.66-7.58.6-11.64-4.91-17.94-7.7-3.69-1.63-6.38-.66-9.64 1.6q-1.9 1.3-3.62 2.79a.24.24 0 0 1-.4-.23l.03-.08q9.17-23.13 21.42-44.72 0 .14-.06.3-.05.14.1.13.47-.03.83-.31c2.43-1.91 5.18-4.37 7.66-5.63 4.5-2.29 10.2-1.96 14.71.08q1.36.62 4.57 2.66 6.5 4.11 12.98 8.24 3.6 2.3 4.42 2.9 6.05 4.4 9.82 11.29 1.43 2.62 3.83 4.55c3.42 2.76 6.87 2.66 10.97 1.85a.3.3 58.6 0 1 .24.06q.21.18.06.46z"/><path fill="#ea5082" d="M213.33 233.03c-17.8 11.87-36.58 22.12-55.14 32.71-12.46 7.11-24.18 14.4-34.9 23.72q.15-.38.24-.72 7.25-26.41 17.28-51.86l-.02.08a.24.24 0 0 0 .39.23q1.72-1.48 3.62-2.79c3.26-2.26 5.95-3.23 9.64-1.6 6.3 2.79 10.36 8.3 17.94 7.7 5.74-.46 9.8-2.65 14.97-5.66 6.3-3.68 14.54-3.68 21.67-2.55q1.97.3 3.96.38.17.01.25.1.09.1.1.26z"/><path fill="#f7c0bb" d="M248.48 63.84q.5-2.93 2.45-5c2.1-2.22 5.1-3.9 8.23-4.32 4.03-.55 4.86 2.72 4.08 5.87q-.54 2.2-1.52 4.23c-1.54 3.2-4.72 7.8-5.4 12.33-.58 3.9.67 7.47 1.64 11.14q.92 3.5.96 5.13.08 3.38-1.5 6.38-.82 1.56-3.76 6.62-4.65 8-.87 16.56c5.64 12.76 11.67 25.64 4.58 39.38-2.06 3.98-5.89 6.8-9.48 2.15-3.1-4-2.04-10.59-1.5-15.25q.34-2.77.21-4.2c-.54-6.36-4.55-10.46-9.69-13.87q-1.75-1.16-8.22-5.07c-1.32-.8-2.7-2.3-2.77-3.88-.1-2 1.76-4 3.14-5.23 3.32-2.95 5.59-5.15 5.44-9.97-.08-2.7-.68-6.72-2.29-8.86-1.65-2.2-4.61-2.75-7.32-2.8l-6.6-.12c-1.23-.02-2.99-.45-3.93-1.25-2.18-1.85-1.55-5.86-.78-8.25 1.8-5.57 6.9-10.54 11.97-13.21 4-2.12 9.1-2.42 12.53-5.4 2.34-2.02 3.57-5.2 5.98-7.38a.24.24 47.9 0 1 .35.02l3.83 4.32q.19.2.24-.07z"/></svg>