<svg xmlns="http://www.w3.org/2000/svg" xml:space="preserve" viewBox="0 0 383.11666 383.11667"><g fill="none" stroke-width="2"><path stroke="#f08a9d" d="M979.7 714.54q-9.7 3.95-18.95 6.04c-15.75 3.56-30.22.94-43.33-8q-26.93-18.37-52.93-33.92c-8.7-5.2-17.79-10.77-24.03-15.86-9.74-7.94-20.6-18.16-31.32-23.73-18.13-9.44-42.14 2.9-59.87 8.52q-10.74 3.4-19.51-.34-21.82-9.29-39.56-28.56c-1.11-1.2-2.65-3.57-4.54-5.03" transform="matrix(.26458333 0 0 .26458334 -.00001 0)" vector-effect="non-scaling-stroke"/><path stroke="#b56567" d="M685.66 613.66q69.76-96.62 153.47-174.53c4.17-3.88 4.2-8.59-.46-11.88-4.6-3.24-8.29-.21-11.98 3.27q-82.47 77.84-149.32 169.62" transform="matrix(.26458333 0 0 .26458334 -.00001 0)" vector-effect="non-scaling-stroke"/><path stroke="#f08a9d" d="M677.37 600.14q-4.79-15.19 1.64-28.91 4.11-8.77 12.31-24.21 8.59-16.17 10.75-37.29 1.38-13.49-3.94-25.89c-2.83-6.62-6.84-13.93-8.78-20q-5.01-15.77-2.16-31.9c2.89-16.41 11.24-35.17 20.92-48.84 10.5-14.83 23.41-27.55 37.9-40.23q23.25-20.36 39.35-38.01 19.45-21.33 31.21-50.87.02-.05.49-.88.41-.73-.3-1.24" transform="matrix(.26458333 0 0 .26458334 -.00001 0)" vector-effect="non-scaling-stroke"/><path stroke="#b3545e" d="M677.37 600.14Q634.1 659.7 597.78 723.9" transform="matrix(.26458333 0 0 .26458334 -.00001 0)" vector-effect="non-scaling-stroke"/><path stroke="#ee7090" d="M597.78 723.9q-.9.03-1.26-.42-6.33-7.83-10.64-16.91c-2.56-5.4-2.2-11.8-4.92-16.75q-4.19-7.63-12.68-9.91c-4.18-1.13-10.17-.57-14.29-1.39q-7.98-1.59-13.74-7.76-17.8-19.1-16.87-45.26.56-15.81 6.12-33c8.99-27.79 24.92-54.45 34.65-79.63q4.67-12.1 6.27-18.68c2.59-10.64 2.39-20.65-4.51-29.61q-6.03-7.82-17.68-11.61-14.99-4.87-30.72-5.79" transform="matrix(.26458333 0 0 .26458334 -.00001 0)" vector-effect="non-scaling-stroke"/><path stroke="#b3545e" d="M685.66 613.66Q646.43 668 613.15 726.28" transform="matrix(.26458333 0 0 .26458334 -.00001 0)" vector-effect="non-scaling-stroke"/><path stroke="#b34b5a" d="M613.15 726.28q-46.28 81.6-80.97 169.01" transform="matrix(.26458333 0 0 .26458334 -.00001 0)" vector-effect="non-scaling-stroke"/><path stroke="#b14055" d="M532.18 895.29q-37.88 96.18-65.29 196-.36 1.3-.9 2.74m-11.74-13.22q-.25-1.82.89-3.01a1.95 1.91-15.8 0 0 .48-.84q24.38-87.79 57.24-172.85" transform="matrix(.26458333 0 0 .26458334 -.00001 0)" vector-effect="non-scaling-stroke"/><path stroke="#b34b5a" d="M512.86 904.11c24.65-62.06 52.2-121.99 84.92-180.21" transform="matrix(.26458333 0 0 .26458334 -.00001 0)" vector-effect="non-scaling-stroke"/><path stroke="#ee7090" d="M878.22 826.74q.57-1.08-.24-1.74a1.13 1.11 58.6 0 0-.92-.23c-15.48 3.06-28.5 3.44-41.46-7.01q-9.05-7.29-14.47-17.19-14.23-26.01-37.09-42.68-3.1-2.26-16.73-10.94-24.51-15.61-49.03-31.16-12.15-7.71-17.28-10.03c-17.08-7.71-38.61-8.96-55.62-.31-9.36 4.77-19.75 14.05-28.93 21.27q-1.36 1.07-3.17 1.18-.53.03-.34-.47.24-.64.21-1.15" transform="matrix(.26458333 0 0 .26458334 -.00001 0)" vector-effect="non-scaling-stroke"/><path stroke="#ec5c87" d="M512.86 904.11c-9.89-1.4-14.87-9.37-16.46-17.85-3.23-17.35-1.07-35.82.6-53.8 3.13-33.67-.68-65.41-18.8-94.45q-14.5-23.24-36.18-42.69m364.26 185.44q-.03-.62-.39-1.02-.29-.31-.92-.34-7.54-.3-14.98-1.47c-26.93-4.25-58.05-4.24-81.91 9.65-19.53 11.37-34.86 19.64-56.58 21.38-28.62 2.29-43.99-18.54-67.8-29.08-13.93-6.17-24.11-2.51-36.44 6.04q-7.15 4.95-13.67 10.54a.91.91 0 0 1-1.48-.86q.02-.14.07-.31" transform="matrix(.26458333 0 0 .26458334 -.00001 0)" vector-effect="non-scaling-stroke"/></g><path fill="#f29aa6" d="M259.2122784 189.05537976q-2.5664583 1.0451042-5.0138541 1.59808338c-4.16718745.94191669-7.99570824.24870834-11.4643957-2.11666672q-7.12522907-4.86039596-14.00439565-8.9746669c-2.30187497-1.37583336-4.70693744-2.84956257-6.35793742-4.19629177-2.57704163-2.10079172-5.4504166-4.80483345-8.2867499-6.27856266-4.79689577-2.49766673-11.14954152.76729169-15.84060396 2.25425006q-2.84162497.89958336-5.16202077-.08995834-5.77320826-2.45797922-10.46691653-7.55650019c-.2936875-.3175-.70114583-.94456252-1.20120832-1.3308542q18.4573331-25.5640423 40.60560365-46.17773033c1.10331249-1.02658336 1.11124999-2.27277089-.12170833-3.14325008-1.21708332-.85725002-2.1933958-.0555625-3.1697083.86518753q-21.82018722 20.59516718-39.50758283 44.87862613-1.26735415-4.01902094.43391666-7.64910436 1.08743749-2.3203959 3.2570208-6.40556266 2.2727708-4.27831261 2.8442708-9.86631275.36512499-3.56922926-1.04245833-6.85006267c-.74877082-1.75154172-1.80974997-3.68564593-2.32304163-5.2916668q-1.32556249-4.17247928-.5715-8.44020855c.76464583-4.34181261 2.97391663-9.30539607 5.53508327-12.92225033 2.77812496-3.92377093 6.19389575-7.28927101 10.0277082-10.64418776q6.15156243-5.3869168 10.41135404-10.05681276 5.14614577-5.64356264 8.25764573-13.4593545.00529166-.01322917.12964583-.23283334.10847917-.19314584-.079375-.32808334 17.85672894-8.49841689 35.1102079-18.12660463c8.45343739-4.72016678 16.63699978-9.98272942 24.52422885-15.6289379a.0714375.06879167-10.10000991 0 1 .10847916.07408334q-4.05077078 15.05479205-6.06160409 30.54350077-2.2330833 17.1899796-2.91835413 31.18643829-.32808332 6.670146.47095833 15.11829205c1.29645832 13.69483368 2.96862496 27.37114652 3.33904163 41.13477187q.238125 8.79210438-1.18004166 16.54175041c-.43391666 2.3600834-1.32820831 4.77308346-2.39712497 7.17550018q-3.44752078 7.7390627-7.88458323 14.39597953z"/><path fill="#ee7994" d="M216.10107061 66.64060585q.18785417.1349375.079375.32808334-.12435417.21960417-.12964583.23283334-3.11149996 7.81579186-8.25764573 13.4593545Q203.53336244 85.33077298 197.3818 90.7176898c-3.83381245 3.35491675-7.24958324 6.72041683-10.0277082 10.64418776-2.56116664 3.61685426-4.77043744 8.58043772-5.53508327 12.92225033q-.75406249 4.26772927.5715 8.44020855c.51329166 1.60602087 1.5742708 3.54012508 2.32304163 5.2916668q1.40758332 3.28083341 1.04245832 6.85006267-.57149999 5.58800014-2.8442708 9.86631275-2.1695833 4.08516677-3.25702079 6.40556266-1.7012708 3.63008342-.43391666 7.64910436-11.44852069 15.75858373-21.05818723 32.74483416-.238125.0079375-.333375-.111125-1.67481248-2.07168756-2.81516663-4.47410429c-.67733332-1.42875003-.58208333-3.1220834-1.30174998-4.43177094q-1.10860416-2.01877089-3.35491663-2.6220209c-1.10595832-.29897917-2.69081246-.1508125-3.78089578-.36777084q-2.11137498-.42068751-3.63537496-2.05316672-4.70958327-5.0535418-4.46352077-11.97504197.14816666-4.1830626 1.61924997-8.73125022c2.37860414-7.35277102 6.59341659-14.40656286 9.16781239-21.06877136q1.23560415-3.20145842 1.65893748-4.9424168c.68527082-2.81516673.63235416-5.46364597-1.19327082-7.8343127q-1.59543748-2.06904171-4.67783327-3.07181257-3.96610412-1.28852087-8.1279999-1.53193754 11.0040207-14.17108369 25.44762468-23.6934381 4.7995416-3.1617709 11.92212485-6.99029184c13.73187482-7.38452102 27.78918715-14.17108369 41.80681197-20.9920422z"/><path fill="#782f28" d="M181.41419605 162.36421242q-10.37960404 14.3774587-19.18493726 29.79737576-12.24491651 21.59000054-21.42331223 44.71723029-10.02241654 25.44762564-17.27464562 51.85833464-.09525.34395834-.238125.72495835-8.14916656 30.04343826-14.07054148 60.6874807-.23547917 1.21443753-.6588125 1.6642292c-1.00541665 1.06362503-3.18822912.127-3.28612495-1.32556253q-.01852084-.29897917.269875-1.79652088 6.13039575-31.65739663 14.63939564-62.72741824-.06614583-.48154168.23547917-.79639586a.5159375.50535418-15.80002738 0 0 .127-.22225q6.45054158-23.22777142 15.1447498-45.73323032c6.52197909-16.42004208 13.81124983-32.27652165 22.46841639-47.6805637q9.60966654-16.98625043 21.05818723-32.74483416 17.68739561-24.28345895 39.50758284-44.87862613c.97631249-.92075003 1.95262497-1.72243755 3.1697083-.86518752 1.2329583.87047918 1.2250208 2.11666672.12170832 3.14325007q-22.14827055 20.61368802-40.60560365 46.17773033z"/><path fill="#ed678c" d="M158.162613 191.53187983c-8.65716655 15.40404205-15.9464373 31.26052162-22.46841638 47.6805637-2.61672913-.37041668-3.93435411-2.4791459-4.3550416-4.72281262-.85460416-4.59052095-.28310417-9.47737524.15874999-14.2345837.82814582-8.90852105-.17991666-17.30639626-4.9741666-24.98989646q-3.83645829-6.14891682-9.57262488-11.29506278-.03704167-4.02166677.15610416-10.86643777c.1825625-6.52462517.72495833-13.01750033 2.08756247-19.26431299q2.79399997-12.80318782 10.05416654-24.39722978 4.16983329-6.65956267 7.6755624-11.12572945 4.16189579.24341667 8.1279999 1.53193754 3.0823958 1.00277086 4.67783328 3.07181258c1.82562498 2.37066672 1.87854164 5.01914596 1.19327082 7.8343127q-.42333333 1.74095837-1.65893748 4.94241679c-2.5743958 6.6622085-6.78920825 13.71600034-9.16781239 21.06877136q-1.47108331 4.54818761-1.61924997 8.73125022-.2460625 6.92150017 4.46352077 11.97504197 1.52399998 1.6324792 3.63537496 2.05316672c1.09008332.21695834 2.67493746.06879167 3.78089578.36777084q2.24631247.60325001 3.35491663 2.6220209c.71966665 1.30968753.62441666 3.0030209 1.30174998 4.43177094q1.14035415 2.40241673 2.81516663 4.47410428.09525.1190625.333375.111125z"/><path fill="#ee7994" d="M181.41419605 162.36421242c.5000625.38629168.90752082 1.0133542 1.20120832 1.3308542q4.69370827 5.09852097 10.46691653 7.5565002 2.3203958.98954169 5.16202077.08995833c4.69106244-1.48695837 11.0437082-4.75191679 15.84060397-2.25425006 2.8363333 1.4737292 5.70970826 4.17777094 8.2867499 6.27856266 1.65099997 1.3467292 4.05606244 2.8204584 6.35793741 4.19629177q6.87916658 4.11427094 14.00439566 8.9746669c3.46868745 2.36537506 7.29720824 3.0585834 11.46439569 2.11666672q2.4473958-.55297918 5.0138541-1.59808338-1.34672915 2.1854584-2.52147913 3.80470843-10.47749987 14.46212537-24.3284372 25.88154232.1508125-.28575-.0635-.46037501a.29897917.2936875 58.60005393 0 0-.24341666-.06085417c-4.09574995.80962502-7.5406249.9101667-10.96962486-1.85472921q-2.39447914-1.92881255-3.82852079-4.54818762-3.76502078-6.88181267-9.8133957-11.29241695-.82020833-.59795835-4.42647912-2.89454174-6.48493742-4.13014593-12.97252067-8.24441687-3.21468746-2.03993755-4.57199994-2.6537709c-4.51908328-2.03993755-10.21556237-2.37066673-14.71612481-.08202084-2.47649997 1.26206253-5.22552077 3.71739593-7.65439574 5.62768764q-.35983333.28310418-.83872916.31220835-.14022916.0079375-.08995833-.12435417.0635-.16933334.0555625-.30427084 8.80533322-15.41991706 19.18493726-29.79737576z"/><path fill="#ea5082" d="M116.95111353 183.97008797q5.7361666 5.14614596 9.57262488 11.29506278c4.79424994 7.6835002 5.80231242 16.0813754 4.9741666 24.98989647-.44185416 4.75720845-1.01335415 9.64406274-.15875 14.23458369.4206875 2.24366672 1.73831248 4.35239594 4.35504161 4.72281262q-8.69420822 22.5054589-15.1447498 45.73323032a.5159375.50535418-15.80002738 0 1-.127.22225q-.301625.31485418-.23547917.79639586-.111125-1.40493754-.10583333-1.83356255.12435417-10.40341693.21960416-20.80418803.0238125-2.64847923-.14552083-5.28637513-1.18268748-18.4970213-2.50824997-36.98081343c-.88370832-12.32958364-.80962499-22.32818806-.69585415-37.0892926z"/><path fill="#ed678c" d="M232.36236207 218.74163051q-9.10166655 7.6279377-19.03412476 14.29279203-.0079375-.16404167-.1031875-.269875-.07672916-.08202084-.24341666-.08995834-1.9949583-.079375-3.96345828-.38893751c-7.12522908-1.1244792-15.35906231-1.12183337-21.67202056 2.55322923-5.16731244 3.00831257-9.22337489 5.1964168-14.97012482 5.6567918-7.5723749.60589586-11.63902068-4.90537512-17.93874977-7.69408352-3.68564579-1.6324792-6.37910409-.66410418-9.64141654 1.59808337q-1.89177081 1.30968754-3.61685413 2.7887084a.24077083.24077084 0 0 1-.39158332-.22754167q.00529166-.03704166.01852083-.08202083 9.17839572-23.12722975 21.42331223-44.7172303.0079375.1349375-.0555625.30427085-.05027083.13229167.08995833.12435417.47889583-.02910417.83872916-.31220835c2.42887497-1.91029171 5.17789577-4.3656251 7.65439574-5.62768764 4.50056244-2.28864589 10.19704153-1.95791671 14.71612481.08202084q1.35731248.61383335 4.57199994 2.6537709 6.48758325 4.11427094 12.97252067 8.24441687 3.60627079 2.2965834 4.42647911 2.89454174 6.04837493 4.41060428 9.81339571 11.29241695 1.43404165 2.61937507 3.82852079 4.54818762c3.42899995 2.7648959 6.87387491 2.66435423 10.96962486 1.85472921a.29897917.2936875 58.60005393 0 1 .24341666.06085417q.2143125.174625.0635.46037501z"/><path fill="#ea5082" d="M213.32823731 233.03442254c-17.79322894 11.86391696-36.5812912 22.11122972-55.1418118 32.71043832-12.45393735 7.10935435-24.17497887 14.40391703-34.89324956 23.7172506q.142875-.381.238125-.72495835 7.25222907-26.410709 17.2746456-51.85833464-.01322916.04497917-.01852082.08202083a.24077083.24077084 0 0 0 .39158332.22754168q1.72508332-1.47902087 3.61685413-2.7887084c3.26231245-2.26218756 5.95577075-3.23056259 9.64141654-1.59808338 6.29972909 2.7887084 10.36637487 8.29997938 17.93874977 7.69408353 5.74674993-.46037502 9.80281238-2.64847924 14.97012482-5.65679181 6.31295825-3.6750626 14.54679148-3.67770843 21.67202056-2.55322923q1.96849997.3095625 3.96345828.3889375.1666875.0079375.24341666.08995834.09525.10583334.1031875.269875z"/><path fill="#f7c0bb" d="M248.47549 63.841314q.49742-2.928937 2.45798-5.005917c2.09285-2.219854 5.09852-3.894666 8.22325-4.318 4.03225-.550333 4.86569 2.719917 4.08781 5.868459q-.54504 2.196042-1.52135 4.230687c-1.53988 3.204105-4.72546 7.797272-5.4028 12.329584-.58208 3.907896.66675 7.471834 1.63513 11.141605q.92604 3.500437.96308 5.127625.0794 3.389312-1.49754 6.387042-.82021 1.555751-3.75973 6.614581-4.65402 8.00629-.87048 16.56557c5.63563 12.7582 11.66548 25.63548 4.57729 39.37529-2.05581 3.98462-5.88697 6.79714-9.48266 2.15106-3.09033-3.99256-2.03729-10.58862-1.48696-15.24794q.32808-2.77548.20638-4.19894c-.54505-6.36322-4.55084-10.46427-9.69169-13.87475q-1.7489-1.16152-8.22325-5.06412c-1.31763-.7964-2.69875-2.30452-2.77284-3.88144-.0952-2.01083 1.75948-4.00844 3.14061-5.23346 3.32581-2.94481 5.588-5.14879 5.44512-9.96685-.0794-2.69875-.68262-6.72042-2.29129-8.863543-1.65629-2.203979-4.61433-2.751667-7.31837-2.799292q-3.30465-.06085-6.61194-.116416c-1.21708-.01852-2.97921-.452438-3.92377-1.254126-2.18017-1.846791-1.54781-5.857875-.77523-8.249708 1.79387-5.572125 6.90298-10.535709 11.9724-13.213292 4.0005-2.111375 9.09902-2.418292 12.52537-5.386917 2.33627-2.024062 3.56658-5.204354 5.98488-7.387167a.24341667.24077083 47.900134 0 1 .34395.01852l3.83117 4.318q.18785.211667.23548-.06615z"/></svg>