<svg xmlns="http://www.w3.org/2000/svg" xml:space="preserve" viewBox="0 0 264.58334 285.75"><g fill="none" stroke-width="2"><path stroke="#ee6c4e" d="M510.24 191.07q.01 1.22-1.05 1.03a.68.68 0 0 0-.8.72c1.52 22.45.52 45.34.24 67.81" transform="matrix(.26458333 0 0 .26458334 .00001434 0)" vector-effect="non-scaling-stroke"/><path stroke="#b85849" d="M508.63 260.63q-1.18 1.33-1.57 3.63-10.44 62.16-16.02 124.8a.22.22 0 0 1-.41.1q-22.66-36.01-45.18-72.09-.03-.05-.56-.99c-2.14-3.78-7.88-.88-5.26 3.31q24.69 39.53 49.44 79.03c.74 1.19.89 2.26.77 3.58q-5.44 62.57-6.44 125.29a.23.23 0 0 1-.39.17q-76.88-73.4-155.9-144.57c-1.89-1.71-4.03-3.04-5.91-.54-1.36 1.8-.64 3.04.83 4.37q81.61 73.41 160.6 149.05a2 2 0 0 1 .62 1.47q-.85 59.19 2.95 118.27a.58.57-73.3 0 1-.92.5c-32.76-24.7-67.11-48.59-102.72-68.96-35.06-20.06-70.15-39.62-102.74-63.61-3.37-2.49-6.46 3.03-2.37 6.02 32.16 23.53 66.73 42.98 101.33 62.62 37.3 21.17 73.24 46.37 107.37 72.32q.44.34.48.9l2.88 41.2" transform="matrix(.26458333 0 0 .26458334 .00001434 0)" vector-effect="non-scaling-stroke"/><path stroke="#b96051" d="m499.53 710.38-3.94-51.63a1.03 1.01 72.6 0 1 .48-.94Q600.76 594.23 708.23 535q2.13-1.18 1.6-3.23c-.84-3.27-3.37-2.8-5.77-1.48q-105.51 58.12-208.44 120.48a.32.31-17.2 0 1-.48-.25q-1.75-28.53-2-57.27c-.17-19.86-.55-39.5-.72-59.25-.01-1.15.17-2.02 1.21-2.71q94.26-62.39 184.17-130.9c3.73-2.83 1.83-9.07-3.13-5.29q-88.47 67.26-181.34 128.98a.37.37 0 0 1-.58-.31q1.09-61.65 6.29-123.28.24-2.86 2.33-4.87 20.59-19.82 42.03-38.72 11.74-10.35 21.93-22.2.29-.33-.1-.53-1.08-.57-1.55.52a.63.63 0 0 1-.76.35l-2.17-.64a.46.46 0 0 1-.24-.71l.71-.99a.4.39-4.3 0 0-.6-.51c-18.96 18.2-40.15 36.53-59.8 55.39a.3.29-19.1 0 1-.5-.24q5.98-59.97 15.49-119.57.58-3.61-.52-5.39-1.9-3.06-6.66-1.75" transform="matrix(.26458333 0 0 .26458334 .00001434 0)" vector-effect="non-scaling-stroke"/></g><path fill="#ed6346" d="M135.00101 50.553939q0 .322791-.2778.272521a.17991666.17991667 0 0 0-.2117.1905c.4022 5.939896.1376 11.996208.063 17.941396q-.3122.351896-.4154.960437-2.7622 16.446501-4.2386 33.019997a.05820833.05820833 0 0 1-.1085.0265q-5.9954-9.527643-11.9539-19.07381-.01-.01323-.1481-.261938c-.5662-1.000125-2.0849-.232833-1.3917.875771q6.5325 10.458979 13.081 20.910017c.1958.31486.2354.59796.2037.94721q-1.4393 16.55498-1.7039 33.14965a.06085417.06085417 0 0 1-.1032.045q-20.3412-19.42042-41.248496-38.25081c-.5001-.45244-1.0663-.80434-1.5637-.14288-.3599.47625-.1694.80433.2196 1.15623q21.592596 19.42306 42.492096 39.43615a.52916666.52916668 0 0 1 .164.38893q-.2249 15.66069.7805 31.29228a.1508125.15345834 16.699966 0 1-.2434.13229c-8.6678-6.53521-17.7562-12.85611-27.178-18.24567-9.276296-5.30754-18.560496-10.48279-27.183296-16.83015-.8916-.65881-1.7092.80169-.6271 1.5928 8.509 6.22564 17.6557 11.37179 26.810296 16.5682 9.8689 5.60123 19.3781 12.26873 28.4083 19.13467q.1164.09.127.23813l.762 10.90083q-5.3314-9.26042-15.4861-10.97227-11.0569-1.86002-16.258596 7.69408c-.3916.72231-1.4738.44186-1.4632-.47096.069-4.826-4.0984-7.87929-8.4058-8.78152q-5.8658-1.22766-11.3691 1.56369c-.5821.29369-1.2938-.42862-1.1033-1.02394q.079-.24341.4894-.52387c2.5136-1.71186 3.228-4.42648 2.5506-7.36071-1.4658-6.37381-8.8556-7.89252-14.5177-7.16492-1.1139.14288-1.5372-.47889-.9816-1.43669q2.294-3.95287 1.3759-8.50106c-1.7833-8.82121-10.1362-13.55725-17.5366-17.17675a.60060416.59795835 4.5000384 0 1-.3096-.35983q-.2169-.71173.381-1.12713a.381.38629167 30.699931 0 1 .2434-.0635c4.9372.44715 11.2951.93398 14.7029-3.57981q1.3626-1.8071 1.4341-4.07987c.021-.75142.8863-.97632 1.3811-.48419q2.8416 2.83104 6.94 4.81541c3.511 1.70128 9.8954 3.19353 12.8111-.48154 1.405-1.77006 1.3944-4.19893.6403-6.29708-1.8177-5.05883-7.1278-11.19188-13.1656-10.13883q-.5107.0873-.725.008c-.5583-.20902-.6958-1.06098-.1693-1.42081 2.5294-1.73831 3.8047-4.75456 3.6856-7.76817-.1852-4.635496-3.638-8.564558-7.6491-10.739434-.9419-.510645-1.1536-1.362604-.01-1.780645q2.4765-.894292 3.9264-3.127375c3.2756-5.045605 1.069-10.96698-1.6139-15.610418-.725-1.254125.6112-2.193395 1.2912-1.026583 3.757 6.474354 11.6337 9.236604 18.4361 5.998104.6615-.3175 1.2118.09261 1.1192.817563-.8334 6.561667 1.4182 14.888104 9.3874 15.491354 4.214796.3175 6.746896-2.354791 7.828996-6.223 1.5505-5.548312.087-11.660187-3.4025-16.123708-.4207-.53975-.5292-1.0795.01-1.545167a.34395833.34660417 26.699887 0 1 .2435-.08202c.5767.02381 1.2514.328083 1.6219.407458q3.8893.849313 7.3898-.568854c3.5269-1.42875 5.199-3.788833 4.9424-7.630583q-.209-3.132667-1.1245-6.471709c-.2805-1.021292.3625-1.479021 1.3123-1.187979q2.5453.777875 5.1859.955146c6.9612.468312 7.8502-6.7945 7.7417-11.818938-.019-.849312.1905-1.317625 1.1245-1.219729.545.05556.7858.275167.7964.851958.063 3.278188.1375 6.45848 1.7806 9.392709z"/><path fill="#ef7455" d="M135.00101 50.553939c2.9501 3.870854 7.202 2.995083 11.3004 1.815041.9339-.267229 1.4102.211667 1.2012 1.12448-1.0901 4.788958-2.8073 10.649479 2.5717 13.581063q4.6329 2.524125 9.9298.796395c.6297-.206375 1.0054.41275.9419.936625q-.032.251355-.328.640292-4.9478 6.458479-3.7704 14.425084c.6694 4.54025 3.2306 8.426979 8.39 7.911042q3.8761-.386292 6.3209-3.230563c2.8337-3.294063 3.2993-7.754938 2.8654-11.911542-.1032-.976312.262-1.537229 1.2859-1.074208 6.8209 3.07975 14.8563.351896 18.3515-6.257396a.58737499.58737501 0 0 1 .5636-.309563c1.0503.07937 1.016.873125.5979 1.603375-1.6166 2.82575-2.9686 5.979584-3.1988 8.96673-.3175 4.161896 1.6722 8.493125 5.8658 9.81075.4313.134937.6244.896937.2567 1.307042q-.1561.174625-.5001.351895c-3.9158 2.034646-7.2575 5.820834-7.6941 10.281709q-.4868 4.97152 3.7095 8.34496c.7778.62706.021 1.46844-.852 1.31233-4.5455-.80698-8.4137 2.32834-10.9167 5.73617-1.9685 2.67494-3.855 6.68867-2.2516 9.89806 1.7806 3.56129 6.9268 3.44752 10.1997 2.45798q5.7229-1.73302 9.8637-5.80496c.6058-.59796 1.5081-.7276 1.6007.35719q.3572 4.19894 3.8655 6.18067c3.5957 2.032 7.7232 1.86002 11.6973 1.46579 1.5319-.15346 1.688 1.20914.4868 1.77535-7.3819 3.47927-15.6131 8.45873-17.1635 17.23761q-.7673 4.34975 1.3785 8.0936c.4339.75936.3968 1.67481-.7197 1.52929-3.8894-.51064-8.9191-.0238-11.9645 2.59292-3.1406 2.6961-4.3418 7.90575-1.2303 11.12044.3546.36512.9261.68527 1.3732 1.06362q.1058.09.1244.22754c.127.87842-.4604 1.26471-1.2621.9525q-.6006-.23283-1.18-.48154-5.4028-2.32833-11.0252-.74612c-4.0005 1.12448-7.5989 4.24391-7.4004 8.77094q.01.1561-.095.28045-.4259.51594-1.1006.28311a.37306251.37041666 84.30003 0 1-.1958-.1614q-.4895-.83608-1.0107-1.63512-3.1036-4.75192-8.3-6.11452c-3.7836-.99219-8.718-.32544-12.3349 1.14035q-7.9401 3.21998-13.081 10.75531l-1.0424-13.66043a.27252084.26722916 72.600032 0 1 .127-.24871q27.6992-16.82221 56.134-32.49348.5635-.31221.4233-.85461c-.2223-.86518-.8917-.74083-1.5267-.39158q-27.9161 15.37758-55.1497 31.877a.08202084.08466667 72.799981 0 1-.127-.0661q-.463-7.54856-.5292-15.15268c-.045-5.25463-.1455-10.45105-.1905-15.67657 0-.30427.045-.53445.3202-.71702q24.9396-16.50735 48.7283-34.63396c.9869-.74877.4842-2.39977-.8282-1.39964q-23.4077 17.79587-47.9795 34.12596a.09789583.09789584 0 0 1-.1535-.082q.2884-16.31157 1.6643-32.61784.063-.75671.6164-1.28852 5.4478-5.244041 11.1205-10.244666 3.1062-2.738438 5.8023-5.87375.077-.08731-.026-.140229-.2857-.150813-.4101.137583a.1666875.1666875 0 0 1-.2011.0926l-.5741-.169333a.12170833.12170834 0 0 1-.063-.187854l.1879-.261938a.1031875.10583333 85.699994 0 0-.1588-.134937c-5.0165 4.815417-10.623 9.665229-15.8221 14.655274a.07672917.079375 70.89998 0 1-.1323-.0635q1.5822-15.867066 4.0984-31.636233.1535-.955146-.1376-1.426104-.5027-.809625-1.7621-.463021c.074-5.945188.3387-12.0015-.063-17.941396a.17991666.17991667 0 0 1 .2117-.1905q.2804.05027.2778-.272521z"/><path fill="#824c4c" d="M132.16731 187.95471c.8917 12.17613 2.5162 24.34432 6.44 36.04419.418 1.2409-1.2462 1.84679-2.04 1.12183q-.3069-.28045-.5503-1.02658c-3.8153-11.72104-5.4557-24.39458-6.3685-36.46223q-.011-.1561-.087-.34131-.1059-.26458-.045-.36248l-.762-10.90083q-.011-.14817-.127-.23813c-9.0302-6.86594-18.5394-13.53344-28.4083-19.13467-9.154596-5.19641-18.301296-10.34256-26.810296-16.5682-1.0821-.79111-.2645-2.25161.6271-1.5928 8.6228 6.34736 17.907 11.52261 27.183296 16.83015 9.4218 5.38956 18.5102 11.71046 27.178 18.24567a.1508125.15345834 16.699966 0 0 .2434-.13229q-1.0054-15.63159-.7805-31.29228a.52916666.52916668 0 0 0-.164-.38893q-20.8995-20.01309-42.492096-39.43615c-.389-.3519-.5795-.67998-.2196-1.15623.4974-.66146 1.0636-.30956 1.5637.14288q20.907296 18.83039 41.248496 38.25081a.06085417.06085417 0 0 0 .1032-.045q.2646-16.59467 1.7039-33.14965c.032-.34925-.01-.63235-.2037-.94721q-6.5485-10.451038-13.081-20.910017c-.6932-1.108604.8255-1.875896 1.3917-.875771q.1402.248708.1481.261938 5.9585 9.546167 11.9539 19.07381a.05820833.05820833 0 0 0 .1085-.0265q1.4764-16.573496 4.2386-33.019997.1032-.608541.4154-.960437 1.2594-.346604 1.7621.463021.2911.470958.1376 1.426104-2.5162 15.769167-4.0984 31.636229a.07672917.079375 70.89998 0 0 .1323.0635c5.1991-4.990041 10.8056-9.839853 15.8221-14.65527a.1031875.10583333 85.699994 0 1 .1588.134937l-.1879.261938a.12170833.12170834 0 0 0 .063.187854l.5741.169333a.1666875.1666875 0 0 0 .2011-.0926q.1244-.288396.4101-.137583.1032.05292.026.140229-2.6961 3.135312-5.8023 5.87375-5.6727 5.000625-11.1205 10.244662-.5529.53181-.6164 1.28852-1.3759 16.30627-1.6643 32.61784a.09789583.09789584 0 0 0 .1535.082q24.5718-16.33009 47.9795-34.12596c1.3124-1.00013 1.8151.65087.8282 1.39964q-23.7887 18.12661-48.7283 34.63396c-.2752.18257-.3228.41275-.3202.71702.045 5.22552.1455 10.42194.1905 15.67657q.066 7.60412.5292 15.15268a.08202084.08466667 72.799981 0 0 .127.0661q27.2336-16.49942 55.1497-31.877c.635-.34925 1.3044-.4736 1.5267.39158q.1402.5424-.4233.85461-28.4348 15.67127-56.134 32.49348a.27252084.26722916 72.600032 0 0-.127.24871z"/><path fill="#fff" d="M85.825514 90.508669q-.8334-1.875896-1.053-3.190875c-.1588-.971021 1.2806-1.595438 1.9711-1.090083q.3519.256645.6192 1.116541 2.5003 8.022167 10.4933 11.641667c1.0372.468313.1482 2.116671-.8334 2.169581q-.4657.0265-1.3361-.39952-6.7681-3.301998-9.8611-10.247311zm16.898996 6.302375c1.0107-.240771 1.3441-.394229 2.2066-1.095375q.1032-.08467.2408-.08996 1.0768-.0344 1.434.814916c.643 1.531938-2.0082 2.510896-3.0983 2.741084-1.8759.396875-2.3918-1.987021-.7831-2.370667zm93.0337 51.792246a1.1800417 1.1800417 0 0 1-.7628 1.48428l-1.6375.52573a1.1800417 1.1800417 0 0 1-1.4843-.76282l-.044-.13605a1.1800417 1.1800417 0 0 1 .7628-1.48429l1.6375-.52572a1.1800417 1.1800417 0 0 1 1.4843.76282zm-18.7228 15.81409c1.4287-5.38956 5.0112-9.70227 10.0277-12.05706 1.4075-.66146 2.9157 1.32027.9974 2.28335q-6.8341 3.43429-8.8053 11.25273c-.2646 1.05833-2.0611.79375-2.331-.22754q-.1111-.41804.1112-1.25148z"/></svg>