<svg xmlns="http://www.w3.org/2000/svg" xml:space="preserve" viewBox="0 0 43.847449 55.965763"><path fill="#f3699c" d="M42.42477.9321828q-.22681.7301453-.57053 1.3356829-.0567.099406-.0903.1855115c-.0644.1687105-.1113.32272-.19321.4802299q-.66084 1.2607783-1.41549 2.4676533-.18271.291218-.41372.554434.0385-.456428.19671-.886255.15121-.410225.19041-.557934c.0931-.350022.22122-.681143.14491-1.061966q.97166-1.671704 1.72631-3.4344136a.02520156.02520156 0 0 1 .0462 0z"/><path fill="#f482a3" d="M37.89759 2.9140057c.21982-.3647226.58734-.031502.43963.2072127q-.0308.0483-.0336.0539c-1.29928 2.443851-2.70147 4.484478-4.60909 6.301791-.27721.264616-.68114.555134-1.07456.586636-.39483.0315-.47953-.310119-.31432-.613938q.21421-.395525.49773-.652441 1.51699-1.376285 2.97168-3.013687 1.21738-1.369985 2.12253-2.8694777zm2.37595.5355337c.0763.380823-.0518.711944-.14491 1.061966q-.0392.147709-.19041.557934-.15821.429827-.19671.886255-.22822.48793-.60204.889755.006-.65244.0315-1.262878.003-.07211-.0847-.247815z"/><g fill="none" stroke-width="2"><path stroke="#f35f99" d="M42.42478097.9321823q-.22681406.73014526-.57053537 1.3356828-.05670352.09940616-.0903056.1855115c-.064404.16871046-.1113069.32272-.19321198.48022977q-.66084097 1.26077817-1.41548775 2.46765299-.18271133.29121805-.41372565.55443437" vector-effect="non-scaling-stroke"/><path stroke="#f476a0" d="M39.74151462 5.95569373q.03850238-.4564283.1967122-.88625494.15120937-.41022543.1904118-.5579346c.09310577-.3500217.22121371-.68114222.14490898-1.06196583" vector-effect="non-scaling-stroke"/><path stroke="#f68eac" d="M39.1394773 6.8454489q.00630038-.65244046.03150195-1.2628783.00350021-.07210447-.08470526-.24781536" vector-effect="non-scaling-stroke"/><path stroke="#e14083" d="M40.89588618 18.2043531q.00070005 1.70600577-.63283923 3.26920268c-.82885139 2.04482677-2.00352421 3.86913987-3.13759452 5.7326554q-.38642396.63563941-.77704817 1.16347213c-.49703082.67064158-1.04726493 1.30838112-1.52819475 1.98812326-.17991115.25341571-.57403558.71754448-.25761597.90235594q.03360209.01960122.07070439.00980061l.2807174-.0742046a.04550282.04550282 0 0 1 .04760295.07140443c-1.07526666 1.40778727-1.92721948 2.96118358-2.93808215 4.41237355-2.6839664 3.85443896-5.41763587 7.21044702-8.70993998 10.32143989a.03290204.03290204 0 0 0 .02520156.05670351q.0063004-.00070004.02240139.01400087" vector-effect="non-scaling-stroke"/><path stroke="#ec4a8a" d="M4.98856007 54.78862119q.04900304-.27021676.15540963-.49213051c.29751845-.62023846 1.66540325-1.13757053 2.28984196-1.28527969q1.8404141-.435427 3.52821874-1.1403707.94575863-.39482447 1.8887171-.98146084a.03360208.03360208 0 0 0-.0210013-.06160382c-.09800609.01050065-.2030126.11060686-.27441702.15120937q-1.27337895.7224448-2.69796727 1.03046389-.77984834.16871046-.78334856.1694105-2.03992647.4886303-2.67556588.70354362-.4389272.1484092-.81975082.3983247a.0273017.02660165-5.8 0 1-.03990247-.032202q.36682274-.91635681.81345043-1.80261176c.0420026-.08330516.05880365-.15260946.17081059-.16381015q.78964896-.08120504 1.46379075-.21141311 6.0245735-1.16487222 11.00818246-4.67628991c.68884271-.48583012 1.30768108-.99546172 1.91321862-1.55759657q2.01752508-1.87191605 3.80053562-4.01334881a.0420026.0420026 0 0 0-.00420027-.0581036q-.06020373-.05460339-.1421088.04480277-1.7564089 2.1274319-3.95244504 3.79913554-3.05358931 2.32554417-6.55870662 3.88664095a.0210013.02170135 6 0 1-.0259016-.032202q.46202864-.64894022.7791483-1.2614782" vector-effect="non-scaling-stroke"/><path stroke="#f35f99" d="M14.80456862 47.20225086q1.21667543-.61113789 2.1743348-1.20127447 2.38434782-1.46869106 4.69029078-3.23910082c.30241875-.2324144.60063724-.52363246.90585616-.78124843q.35422196-.29891853.6692415-.59783706.56913528-.53903342.97166023-.81695065.77214787-.53133294 1.52819474-1.0871674c.32622023-.24011489.51663203-.51663203.7371457-.84145217a.03990247.03990247 0 0 0-.01960121-.06020373q-.02940182-.0098006-.07210447.00560035-.39902474.14560902-.80434987.04340269a.0854053.08470525 30.7 0 1-.0371023-.14490899q1.97552248-1.82011284 3.80053562-3.9664459" vector-effect="non-scaling-stroke"/><path stroke="#ec4a8a" d="M29.3486703 34.51466428q1.29088003-.27931732 2.645464-.87295412.05810361-.0259016.08820548-.04900304a.03990247.03990247 0 0 0-.03290204-.07070438l-2.2597401.5145319" vector-effect="non-scaling-stroke"/><path stroke="#f35f99" d="M29.78969764 34.03653464q1.06686614-1.29088003 1.97692256-2.5292568.01820113-.02450153.02380148-.05110318.0098006-.04760295.00350022-.05740355a.08260512.08260512 0 0 0-.1323082-.00700044q-.24851541.29961858-.4984309.59433685-.23031429.2709168-.54533382.54953407c-.32552018.28771783-.62723888.5936368-.9695601.85125277q-.57543568.43262682-1.18587352.89885573" vector-effect="non-scaling-stroke"/><path stroke="#ec4a8a" d="m28.46241536 34.28575009-1.58209809.2177135q-.24081493.03290203-.02520156-.07910491 1.75640889-.91075646 3.44421353-2.14283285c.8274513-.60413745 1.4098874-1.2565779 2.08542929-1.93141974q.0532033-.05390334.04970308-.1113069a.032202.032202 0 0 0-.05600347-.01960121q-.24851541.27161684-.5677352.47462942-1.33638285.84985269-2.63356327 1.75780898c-.16871046.11760729-.354922.21701345-.53343307.31991983" vector-effect="non-scaling-stroke"/><path stroke="#f35f99" d="M28.6437266 32.77155621q.1855115-.17151063.36542265-.34302126c.07630473-.07280452.18901172-.09170569.23801476-.21141311q.01330082-.03150195.04060251-.05180321.97166024-.70564375 1.9209191-1.4420894.02730169-.0210013.74974648-.55513442.37872347-.2807174.72874517-.59643698a.09310577.09310577 0 0 1 .15120938.09660599q-.06860425.2226138-.2177135.3983247a.06720417.06720417 0 0 0-.00910056.0742046q.0112007.02310143.01190074.0518032.00140008.10080626.06650412.00560035 2.2534397-3.2825035 3.95874543-6.8618254.05880364-.1225076.08610533-.20441268a.02940182.02940182 0 0 0-.04550282-.032202q-1.22087569.92545738-2.1470331 1.3482836-.6160382.28141744-1.7354076.47672955-.03430212.00560035-.06160381-.016101l-.03570222-.02940182a.07140443.07140443 0 0 0-.06650412-.01190074q-1.74800837.56073477-3.34620745 1.46519084-.23311445.1323082-.43332687.33322066-1.35738415 1.3629845-2.74277004 2.69656717-2.04482677 1.96852205-2.86667772 2.68186627-1.9468207 1.69060481-3.8600393 3.41901197-.09450587.08540529-.1918119.16171002a.03430213.03360208-72 0 0 .03010187.05950369q.26391636-.07700477.52643263-.21841354c.71544436-.38642396 1.41968802-.79594935 2.09242973-1.25307769q2.11693124-1.43788914 3.9776466-3.19919833c.04480277-.04270265.09940616-.0371023.1435089-.096606q.09730602-.13020807.29961857-.28141744.1953121-.14700911.64964027-.61533815.27441702-.28211749.53273303-.50683142.42282621-.36682274.55233424-.48653016.95135898-.8757543 1.8614154-1.53449514.59643698-.43122673 1.6969052-.94225841.1498093-.07000434.32482014-.12810795.16311011-.05390334.33112053-.1113069" vector-effect="non-scaling-stroke"/><path stroke="#ec4a8a" d="M32.22094837 26.31085567q-.4130256.3612224-1.1823733.8274513-.6839424.41512574-2.21983762 1.54289566-.67974214.49913094-1.1095688.8533529-2.53625723 2.09452985-4.4018729 4.8211989-.41652581.60903775-.693743 1.19637417c-.0420026.0889055-.07070438.1435089-.1708106.17641093-1.70740584.56003472-3.24960145.80645-4.91360462 1.09696801a.02520156.02520156 0 0 1-.02240138-.0420026c3.47221526-3.69622915 6.94793074-7.30285275 10.35154175-11.17759297.05040313-.05740356.12460773-.11480712.20441267-.14210881 1.0724665-.36542265 1.92161914-.79594935 2.82397508-1.24467717q.21071306-.1050065.47462943-.1484092 2.97868466-.49073042 5.65635067-1.89081722c.87855446-.45922847 1.7438081-.98846128 2.48655415-1.6486022q.38012357-.33742093.75674692-.67834206.03430213-.03080191-.0063004-.05250326l-.01820112-.00910056q-.02940182-.016101-.05670351.00350022-.29051802.20791289-.5740356.42632643c-.17361076.13370829-.38852408.2275141-.58663636.37242309q-2.5243565 1.84461436-5.57094538 2.70006739" vector-effect="non-scaling-stroke"/><path stroke="#f35f99" d="M33.44812445 23.29366862q.5404335-.16731037.78614874-.53903342.1806112-.27301692.70144349-1.16697235.06230386-.10780668-.00770048-.1421088" vector-effect="non-scaling-stroke"/><path stroke="#ec4a8a" d="M34.9280162 21.44555404c.15470959-.13930863.33322066-.26251627.47392938-.39902473q1.06756619-1.03886441 1.99512369-2.20583676.01890117-.02380147-.00280017-.04550282l-.016101-.016101a.04130256.04130256 0 0 0-.05880365.00070005c-.55373433.5838362-1.10256835 1.18517347-1.74240802 1.68640455" vector-effect="non-scaling-stroke"/><path stroke="#f35f99" d="M35.57695643 20.46619333q.1582098-.37662335.60903776-1.31958181c.49983099-1.04656488 1.0437647-2.4242503 1.47009114-3.81173631a.03990247.03990247 0 0 0-.07210447-.032202q-.37312313.6307391-.6741418 1.18097321-.46202864.84635248-.99896193 1.64650208-1.62060047 2.41864995-3.52961882 4.61678622a.04620286.04550282 44.7 0 0 .00070004.06020374l.04270265.0469029" vector-effect="non-scaling-stroke"/><path stroke="#ec4a8a" d="M32.424661 22.85404136q-1.69270494 1.00246215-3.58282212 1.67310373a.03080191.03080191 0 0 1-.03360208-.04970308q.86525364-.99616176 1.69830528-2.03152595.22471394-.28001736.50263117-.5194322 3.59122264-3.096992 6.41939797-6.90872831.24921545-.3353208.49773086-.6741418.0210013-.02800173.05530343-.032202.0693043-.00910056.10220634-.05740355c.07070438-.10500651.12670785-.28001736.20791289-.40252496q1.30628098-1.9727223 2.45925246-4.03855037.08190508-.14770916.18201128-.42002604.01260078-.03500217-.02310143-.02380148-.01890117.0063004-.03150195.02800174c-.70284358 1.26007812-1.4644908 2.4711532-2.29264214 3.65212641q-.29261814.41792591-.56913528.84705252-.14910925.23101432-.43962726.59013658-.12670785.15680973-.44592764.5838362-.29611836.39622456-.65104036.74624626" vector-effect="non-scaling-stroke"/><path stroke="#f35f99" d="M36.48001242 15.81650506q.59153667-.84915264 1.2033746-1.6808042c.10850673-.14700911.18271133-.35282187.31361944-.49563073.23801476-.25901605.27231689-.44452755.3612224-.83585182q.26741658-1.17537286.4340269-2.4130496" vector-effect="non-scaling-stroke"/><path stroke="#ec4a8a" d="M38.79225577 10.39116871q.59013658-1.10606857 1.16557226-2.31014322.02940182-.06230386-.02380148-.09590594a.04410273.04410273 0 0 0-.06160382.016101l-.94575863 1.73190737" vector-effect="non-scaling-stroke"/><path stroke="#f35f99" d="M38.9266641 9.73312792c-.04760295-.28841788.04060252-.5194322.05110317-.774248q.00700043-.15610968.00700043-.31711966" vector-effect="non-scaling-stroke"/><path stroke="#f577a6" d="m38.9847677 8.64176026.06510404-.59223672" vector-effect="non-scaling-stroke"/><path stroke="#f46b9d" d="m39.04987174 8.04952354.08680538-1.19987439" vector-effect="non-scaling-stroke"/><path stroke="#f577a6" d="m39.13667712 6.84964915.00280017-.00420026" vector-effect="non-scaling-stroke"/><path stroke="#f46b9d" d="M39.1394773 6.8454489q.37382317-.40182492.60203732-.88975517" vector-effect="non-scaling-stroke"/><path stroke="#f68eac" d="M39.13667712 6.84964915q-.84075212 1.20267457-1.81381245 2.2870418-.00770048.00840051-.0098006.01750108-.0014001.0098006 0 .01890117.0049003.03430213.03150195.0112007.8113503-.70774388.98706119-.95415916c.18411141-.25831602.20581276-.371023.53203298-.3969246q.03780235-.00280018.0532033.03220199.04900304.1113069.13300825.18411141" vector-effect="non-scaling-stroke"/><path stroke="#f582a9" d="M38.9847677 8.64176026c-.28911792.46342873-.47322934 1.01716306-.709844 1.43648905q-.19041181.33952105-.39272435.67204167c-.0756047.12460772-.09590595.24151497-.25271567.32272a.12670786.12670786 0 0 0-.04410274.0385024l-.7518466 1.07246648" vector-effect="non-scaling-stroke"/><path stroke="#f68eac" d="M36.83353433 12.18397986c-.56563506.50893155-1.03466414 1.08856749-1.81731266 1.03816436-.65524063-.04130256-.6307391-.52713268-.47112921-1.0129628a.032202.032202 0 0 0-.05250326-.03290204q-2.19393601 2.12533177-4.49847888 4.1309561a.06720417.06720417 0 0 1-.1113069-.04620286q-.12040747-1.71930659.50263116-3.32100589a.02450152.02520156-8.5 0 0-.0385024-.02870178l-4.0665521 3.2194996q-.09730603.07770482.01330082.13440833.064404.03290204.08890551.15190942c.0791049.38922413-.13300824.67764201-.28351757 1.00946258-.15120938.33182058-.20301259.73084531-.34932166 1.03746432q-.44242743.92475733-.80785008 1.89081723" vector-effect="non-scaling-stroke"/><path stroke="#f582a9" d="m24.9418971 20.35488643-.59713702 1.3307825" vector-effect="non-scaling-stroke"/><path stroke="#f68eac" d="M24.34476008 21.68566893q-.20371263.16171003-.36052235.30381884-.25901606.23451453-.37872348.27301692c-.28841788.09310577-.48162986-.0854053-.62163854-.3276203-.2065128-.3563221-.12110751-.88835508.00350021-1.33988308q.4466277-1.61710025 1.45679032-2.92478132a.04270265.04270265 0 0 0-.06160382-.05880365l-1.44908984 1.22997626a.0259016.02520156-9.4 0 1-.04060251-.02870178l.22471393-.55303429q.0049003-.0112007-.00560035-.01820113-.00770048-.00560034-.016101-.0112007a.02240139.02240139 0 0 0-.03360208.00910057l-.29611836.69654319" vector-effect="non-scaling-stroke"/><path stroke="#ee6d99" d="m22.76616221 18.93589846-.13650846.2709168" vector-effect="non-scaling-stroke"/><path stroke="#f68eac" d="M22.62965375 19.20681525q-.42282622.17081059-.43192678.57473563c-.00770048.338821-.2128132.67764201-.24431515.92055707q-.17291072 1.33148255-.49703081 2.63356327c-.11830734.47532947-.42702648 1.04236463-1.02136332.870854q-.47392938-.13720851-.59013659-.66994154-.03640225-.16521024-.09660599-.25901606-.02030126-.03150195-.05740356-.03010186-.09450586.00280017-.12810794-.08120504a.06580408.06580408 0 0 0-.1211075-.00210013c-.09310578.21351324-.28281754.53273303-.50263117.6307391-.23031428.10360643-.48022977.04550283-.59013658-.19881232-.17011055-.37802344.11480711-.81975082.46762899-.9660599a.07770482.07770482 0 0 0 .03290204-.11690724l-.44942787-.62163854a.03640226.03570221 46.9 0 0-.05670351-.00210013c-.25411576.30101866-.55513442.66364114-.96956011.7483464q-.52223238.10710663-.6727417-.36192244-.09590595-.29891854.06090377-.54393373a.0259016.0259016 0 0 0-.03780235-.03430212q-2.86597767 2.20443666-5.44493756 4.74139395-3.822937 3.76203323-5.8859649 8.89125122c-.18621155.46202864-.33812097.9758605-.49773087 1.46659092q-.18621154.57333555-.32972044 1.11376905-.25691592.96886007-.51173172 1.93912022-.01820113.07000434-.064404.07700477-.03150195.0049003-.04410273.03430213-.0259016.0581036-.0581036.07980495" vector-effect="non-scaling-stroke"/><path stroke="#da3676" d="M4.33961984 55.73788004q.19181189-.39412444.3178197-.8113503.2856177-.95205903.70634379-1.85231484.61813832-1.3209819 1.3580842-2.57685976.05670351-.09660599.1694105-.14770915" vector-effect="non-scaling-stroke"/><path stroke="#ec4a8a" d="M10.66451195 49.00486262q-.19741223.3759233-.4403273.73294543-.01050065.016101-.01190073.03150196-.00140009.02240139.00630039.03570221.01890117.03010187.0532033.0210013 1.21177512-.33042048 2.38854808-.77354795.24431514-.09240573.42002604-.24291506.54393372-.46832904.9163568-1.07526667" vector-effect="non-scaling-stroke"/><path stroke="#f476a0" d="M33.63993634 17.59601539q.03780235-.26391636.20301259-.49773086 1.48059179-2.08752942 2.77357195-4.29616635.2016125-.34442135.21701345-.61813832" vector-effect="non-scaling-stroke"/><path stroke="#ec548d" d="M38.79225577 10.39116871q-1.02136332 1.86701575-2.52295642 4.08265311-2.1421328 3.16069595-4.41237355 6.22758609a.02380148.02310143-3.5 0 0 .03500217.0308019q2.45155199-2.30384282 4.58808445-4.91570475m-4.05535142 7.0375363q1.70110546-1.06056575 3.15229543-2.38784803m-.64894023.97936071q-1.41198754 1.2194756-2.99898593 2.14913324a.03430213.03360208-66.7 0 0 .02450152.06230386l1.49459266-.36332252m-1.22717608 3.01718705 1.49459266-.99406162a.04060252.03990247 6.9 0 1 .04970308.0630039l-.25201562.22961424" vector-effect="non-scaling-stroke"/><path stroke="#ec4a8a" d="M33.51322849 25.60941219q-.16871046.07140442-.30591897.21071306-.09660599.09730603-.21981363.16801042c-.15540963.0889055-.27301692.2373147-.40742526.3290204q-.46202864.31571957-.72244478.52223237-1.3790855 1.09556792-2.79457326 2.14143276c-2.11203093 1.56179683-3.99024738 3.45541422-5.37353314 5.69835328" vector-effect="non-scaling-stroke"/><path stroke="#ec548d" d="m23.68951945 34.67917448-.47532946.67204166q-.09800608.13790855.06090377.0791049 2.85687712-1.0598657 5.36863284-2.65876483m-.18131124 1.51419388q.80645-.06860426 1.32728228-.24921545m-.44102734.47812964-1.92721948.35212183" vector-effect="non-scaling-stroke"/><path stroke="#ec4a8a" d="M27.42145082 34.8667861q-.49983099.03780235-1.02976384.08470526c-.11480712.01050065-.18131124-.02660165-.2646164-.0952059q-.02800174-.0224014-.06020374-.00700044-2.54815797 1.22227578-5.66755137 2.11763129c-1.34968367.38642396-2.38784803.6307391-3.63812555.6419398q-.07350455.00070004-.13860859.06370395" vector-effect="non-scaling-stroke"/><path stroke="#da3676" d="M16.62258133 37.67256006q.06720417-.17711098.11900738-.23941485 3.1018923-3.76693353 6.177883-7.1586438c.9611596-1.05986571 1.74310807-1.9097184 2.58666037-2.93108172q.57193546-.69304297 1.16487222-1.36858485.05250325-.06020373.06650412-.1113069a.0532033.0532033 0 0 0-.08680538-.05460338q-.46202865.40392504-.91845694.75114656-.09310578.07070439-.29751845.10920677" vector-effect="non-scaling-stroke"/><path stroke="#ed6190" d="M25.43472765 26.6692779q.20861293-.24291507.41862595-.4613286c2.68256631-2.79457326 5.3469315-5.60104725 7.78658274-8.61193391" vector-effect="non-scaling-stroke"/><path stroke="#ec548d" d="M33.63993634 17.59601539q1.23627665-1.44558962 2.1274319-2.77287191 1.52329443-2.26884066 3.15929586-5.09001556M14.80456862 47.20225086c.69864332-1.71510633 1.4063872-3.00388623 2.83867599-4.16105797q1.08436723-.87505425 1.93702009-1.3888861 3.18379738-1.9160188 6.3052909-3.9307437.09240573-.06020373.03850239-.13020807a.07350456.07350456 0 0 0-.09450586-.01890117q-3.72703106 2.12183155-7.35815618 4.35146977-.98916132.60693763-1.91041844 1.53169496c-.7371457.74064592-1.29298016 1.56179683-1.6871046 2.50125507q-.40322499.96255968-.87715437 1.7774102" vector-effect="non-scaling-stroke"/><path stroke="#f35f99" d="M13.99671854 47.73428384q-.15610968-.08050499-.26951671-.01540095c-.371023.21561337-.67624193.38572391-1.08016697.54743394-.47322934.1904118-.94015828.39762465-1.41968801.57123541q-.20441267.07490465-.40042483.1708106-.02940182.01400086-.04900303.03990247-.07070439.09240572-.11340704-.0434027" vector-effect="non-scaling-stroke"/><path stroke="#ec548d" d="M10.66451195 49.00486262q1.75780898-3.09279175 3.94474456-5.89156526.0112007-.01400087.00420026-.03010187l-.0098006-.02240138a.02380148.02380148 0 0 0-.03990248-.0063004q-2.47815363 2.81557456-4.36267047 6.05537542-.11410707.19601215-.18481145.22961423" vector-effect="non-scaling-stroke"/><path stroke="#f35f99" d="M10.01627177 49.33948336q-.68674258.18901172-1.29298016.49073042-.05390335.0273017-.05740356-.03360208c-.0063004-.13370829.11410707-.2226138.16171002-.30241875q1.17467283-1.967822 2.50405524-3.8341377c.3031188-.42632643.56073477-.8582532.83445174-1.29648038q.29961857-.47952973.63423932-.96535985.7693477-1.11866935 1.54779596-2.23313844.17571089-.25131558.38782404-.42352626c.6468401-.52503255 1.34058311-.90025581 2.08052898-1.27547907.49563073-.25201563 1.03046389-.44172739 1.55409635-.64964028q.4242263-.1694105.85055273-.306619c1.88311675-.60763768 3.84113814-1.20407466 5.58844646-2.032226q1.05286528-.49913094 2.19743624-1.2243759.00420026-.00280018.24011488-.112707.17711098-.08260511.17431081-.27371696m-3.73193137-.18761163c.12950803-.0434027.26251628-.07770482.3612224-.18131124q.57823585-.60343741 2.11903137-2.1372325 2.26604049-2.25413975 4.23526257-3.9454446.62863897-.54043351.95415916-.86665373.15960989-.16030994.47392938-.3920243.21911358-.16171003.46342873-.39972479.45712834-.4452276 1.01646301-.76724757a.09170569.08960556-2.9 0 0 .03570222-.03850238l.1645102-.34162118" vector-effect="non-scaling-stroke"/><path stroke="#ec548d" d="M22.91877167 26.2807538c.1533095.67624193.26181623 1.45189002.17291072 2.14703312q-.0308019.24431514-.06160382.50543133" vector-effect="non-scaling-stroke"/><path stroke="#da3676" d="M23.03007857 28.93321825q-.25551584.30661901-.60833771.55933468" vector-effect="non-scaling-stroke"/><path stroke="#ec548d" d="M22.42174086 29.49255293q-.00070005-.11690725.01820113-.17011055.37242308-1.0402645.32061987-2.13373228" vector-effect="non-scaling-stroke"/><path stroke="#ed6190" d="M22.76056186 27.1887101c-.0420026-1.1305701-.49633077-2.4403513-.61533815-3.23910081q-.36542265-2.44315147.48443004-4.74279404" vector-effect="non-scaling-stroke"/><path stroke="#e14b86" d="m23.5789126 28.39068462-.54883403.54253363" vector-effect="non-scaling-stroke"/><path stroke="#e25789" d="m25.43472765 26.6692779-.94575863.8904552" vector-effect="non-scaling-stroke"/><path stroke="#ed6190" d="M24.48896902 27.5597331q.1386086-.7630473.20511271-1.46519084.09870612-1.03186397.16030994-2.06582807.01470091-.24711532.06020373-.31501953.41092548-.60903776.82115091-1.21877556c.88975516-1.32028185 1.90201792-2.67346574 2.6468641-3.87124q.50893155-.81835074.88345477-1.97482243.00700043-.0210013.00350022-.03920243-.00350022-.02170135-.00980061-.03640226a.02380148.02380148 0 0 0-.04480278.00070004c-.17291072.48302995-.3598223.93245781-.65384053 1.37068498q-.62163854.9275575-1.2936802 1.81871275c-.64544002.85685313-1.20407466 1.6969052-1.80751207 2.5453578" vector-effect="non-scaling-stroke"/><path stroke="#f476a0" d="M25.45992921 22.30870756q-.09800607-.03290204-.05740356-.16030994.48022978-1.52679466.99336159-2.63496336.1918119-.41582578 1.01856315-1.91671883.01750108-.03150195.0147009-.0679042c-.01750108-.2079129-.05110316-.40602518.04130257-.60273738q.33532079-.7147443.92685746-1.26217825" vector-effect="non-scaling-stroke"/><path stroke="#f68eac" d="M28.39731132 15.6638956c-.0434027.16661033-.048303.31361945-.13650846.46552886q-.39482448.67834206-.7805484 1.3643846-.01540095.02800173-.00840051.06020372.0420026.17711098.17571089.2289142c.34442135.13440833.73014526-.17501085.90375603-.4984309q.33672087-.6258388.7791483-1.17957313c.15750977-.19601216.38852409-.5726355.31991984-.8337517-.16871046-.6419398-1.00106207.09450587-1.1984743.31501954" vector-effect="non-scaling-stroke"/><path stroke="#f476a0" d="M28.4519147 15.58619079q.07070439-.32482014-.1904118-.6111379" vector-effect="non-scaling-stroke"/><path stroke="#ed6190" d="m28.2615029 14.9750529.17921111-.2548158a.0469029.0469029 0 0 0-.00140009-.05460338q-.01960121-.02520157-.0518032-.01750109-.01470092.00350022-.02940183.01890117c-.42072608.45502821-.87925451.91495673-1.21737547 1.40568715q-.886955 1.28527968-1.39938676 2.71266817-.07350456.20581276-.14700911.3017187" vector-effect="non-scaling-stroke"/><path stroke="#f476a0" d="M25.59433755 19.08710783q-.1967122.3451214-.32622023.7273451-.02660165.0791049-.11900738.21211314c-.05110316.07280452-.08190507.26321632-.12670785.30521892q-.03920243.03640226-.080505.02310144m-.59713701 1.3307825q-.63563941 2.23453853-1.26427838 4.39137225-.0630039.21491332-.16171003.20371263" vector-effect="non-scaling-stroke"/><path stroke="#ed6190" d="M22.91877167 26.2807538c-.2226138-.9597595-.4823299-1.9937236-.56493502-2.9100804q-.20231255-2.23523858.4935306-4.44667568a.03080191.03080191 0 0 0-.05530343-.02660165l-.02590161.03850239" vector-effect="non-scaling-stroke"/><path stroke="#f476a0" d="M22.76056186 27.1887101q-.25201562.48793025-.37662335.86385355-.3969246 1.1984743-1.05706553 2.19953637-.25831601.3920243-.68744262.82465112c-.70634379.7112441-1.26987873 1.22017565-1.99722382 1.79771145q-.02520156.02030126-.05390334.02450152-.08890551.01330083-.05740356-.03010186" vector-effect="non-scaling-stroke"/><path stroke="#f68eac" d="M18.53089964 32.86886225q1.6114999-2.21983763 2.37244708-4.84570042c.25061554-.8645536.38572392-1.72840715.38082361-2.59436084q-.00070004-.1435089-.1274079-.27861727-.0259016-.0273017-.06370395-.02380148c-.31081927.03150195-.39902473.1918119-.62303862.47462943q-.9450586 1.19707421-1.69270494 2.52295641-.45922847.81345043-.70844392 1.20617478c-.59923715.94645867-1.28107943 1.84881462-1.51489392 2.9793847-.23101432 1.11866936.56213485 1.61850035 1.49949296 1.0094626" vector-effect="non-scaling-stroke"/><path stroke="#f476a0" d="M18.05347004 33.31899015q-.1050065.12950803-.10080625.20091246.00210013.03290204-.02170134.05530343l-1.71230616 1.63810155" vector-effect="non-scaling-stroke"/><path stroke="#f68eac" d="M16.21865629 35.2133076c-.17151063-.27861728-.40042482-.47532948-.68674258-.17991116-.39762465.41092547-1.6325012 1.57089739-1.29438024 2.21703745q.01540095.03010186.05040312.03360208l.18201129.016101" vector-effect="non-scaling-stroke"/><path stroke="#f476a0" d="m14.46994788 37.30013697-.20301259.08120503q-.02870178.01190074-.04760295.0371023l-.19321198.25901606a.06160382.06160382 0 0 1-.11060686-.04410273l.10570656-.80995022q.00420026-.03290204-.0259016-.01820113-.02170135.0112007-.03150196-.00420026-.04410274-.06720416-.00840052-.17781102" vector-effect="non-scaling-stroke"/><path stroke="#ed6190" d="M13.95541598 36.623195q.4921305-.86805382 1.12706987-1.65070234.01050065-.01330082.01260078-.02730169.00210013-.02450152-.00350021-.032202a.04410273.04410273 0 0 0-.06580408-.00350021q-.54323368.56843524-1.05916567 1.30418085" vector-effect="non-scaling-stroke"/><path stroke="#f476a0" d="M13.96661667 36.21366961q-.1001062-.79384922-.05250325-1.22997625.04970308-.44942787.0147009-.725945" vector-effect="non-scaling-stroke"/><path stroke="#ed6190" d="M13.92881433 34.25774835c1.36368454-2.0371263 2.8260752-4.02384946 4.01824911-6.16878244q1.15297148-2.07352855 1.69900534-4.37947151c.02380147-.09870612.00840052-.20721285.03150195-.31431949a.00789685.00789685 0 0 0-.01540096-.00350021q-.5131318 1.8985177-1.29718042 3.468015c-1.08926753 2.18203528-2.76587147 4.45437615-4.22406187 6.61401004" vector-effect="non-scaling-stroke"/><path stroke="#f476a0" d="M14.14092748 33.47369974q-.17781102.12670786-.29261814.2982185c-.08260512.12320763-.3451214.31011922-.48302995.32832035-.5677352.07630473-.59713702-.53833338-.45922847-.90935638q.24641528-.66644132.82605121-.99896193.15820981-.09100564.4081253-.02800174a.0371023.03640226 12.8 0 0 .04480278-.02800173l.22541398-1.04656489a.06650412.06510404-61.3 0 0-.01680104-.06020373q-.12880799-.1323082-.13650847-.27931732c-.01400086-.27721718.05110317-.59433684.14770916-.87995455q.35142179-1.04096454 1.0192632-1.92161913" vector-effect="non-scaling-stroke"/><path stroke="#f68eac" d="M15.42410703 27.94825719q.03010187.20511271-.0098006.29821848-.64894024 1.5064934-.8288514 2.16313411-.1001062.36752279-.1792111.55863463-.01260078.03080191.00770047.05670352c.1386086.17851107.5726355-.02240139.71824453-.12040747.39902474-.26811662.81835074-.72944522 1.11236897-1.16977252q1.0388644-1.55479639 1.71370624-3.30210471c.12040746-.31221936.28351758-.61533815.39972478-.89815569q.12950803-.3129194-.11970742-.52713268-.03080191-.02660165-.07070438-.02450152-.42072609.02310144-.69304297.40672522-.38502387.54253363-1.35248385 1.5274947" vector-effect="non-scaling-stroke"/><path stroke="#f476a0" d="M16.1220503 26.91709326q.0854053-.35212183.35212183-.79594935.74554622-1.24117695 1.54779596-2.45295207a.07770482.07770482 0 0 0-.10570656-.10920677q-.48022977.29821849-.93595802.71544435" vector-effect="non-scaling-stroke"/><path stroke="#ed6190" d="M16.9803035 24.27442942q-.14630906-.09730603-.26041614.06230387-1.5064934 2.10713063-2.7777722 4.36267046c-1.30768108 2.32134392-2.080529 4.84500038-2.00072404 7.47576347.0371023 1.23277643.13370829 2.60836171-.04760296 3.97134621q-.06650412.49913095-.22681406.9758605c-.1372085.40952539-.48443003.75394674-.78264852 1.05916567" vector-effect="non-scaling-stroke"/><path stroke="#f68eac" d="M10.88432558 42.1815396c.01820113-.11060686.02450152-.25131559.08190508-.34932166q.3969246-.67484184.44732773-1.26637851.03570222-.41862595.1533095-.82045087.12670786-.43052669-.13440833-.71334422c-.41652582-.45082795-.85895325.05390334-1.05636549.40532513q-.54393372.96675993-1.16347213 1.88521687c-.22331384.33042049-.4452276.71824453-.51593198 1.04656489-.13580842.62863897.12950803 1.31748168.91215655 1.05776557q.15190941-.05040312.28141744-.01960121" vector-effect="non-scaling-stroke"/><path stroke="#ed6190" d="m9.89026395 43.40731559-2.3598463 3.27060276" vector-effect="non-scaling-stroke"/><path stroke="#f476a0" d="M7.53041765 46.67791835q-.14140876.03570222-.08820547-.17781102.01750109-.07140443-.00770047-.28631775-.0049003-.03920243-.04410274-.03780234c-.1225076.00350021-.23731471.05040312-.34932165.01540095-.54393373-.16661033-.36542266-.74904644-.30941919-1.15297148q.00560035-.03920243.03360209-.06650412.06510403-.06370395.06440399-.15400955a.07560469.07490464 71.8 0 1 .03010187-.06020373q.1260078-.09240573.07000434-.2079129" vector-effect="non-scaling-stroke"/><path stroke="#ed6190" d="M6.92978042 44.54978642c.87085398-1.3307825 1.81031223-2.82187495 2.45435216-4.37177104.26811662-.64473997.42142612-1.34338328.58943654-2.0357262.08610534-.3563221.21701345-.6678414.36402257-.99056141a.05110317.05110317 0 0 0-.01960122-.064404q-.0630039-.03780234-.1015063.03360209c-.22821414.42492634-.38782404.8050499-.52223237 1.31118128q-.47392938 1.7872108-1.46589088 3.47641553-.68114223 1.161372-1.24257703 1.97832265" vector-effect="non-scaling-stroke"/><path stroke="#f476a0" d="M6.98578389 43.88684532q-.42282622-2.28144144-.15680972-4.44807577.05390334-.4389272.03920243-.8162506a.1015063.09870612-29.3 0 1 .01820112-.06160382q.04270265-.05950369.04690291-.12810794.01890117-.26741658-.0098006-.53413312" vector-effect="non-scaling-stroke"/><path stroke="#ed6190" d="M6.92348002 37.89867407q.34722153-1.21667542.84775256-2.37314712c.03010187-.0693043.09590595-.17011055.0952059-.2597161a.03640226.03640226 0 0 0-.0679042-.01680104l-.2338145.43752712" vector-effect="non-scaling-stroke"/><path stroke="#f476a0" d="m7.56471978 35.68653693.20301259-1.21107508a.10850673.10780668-67.9 0 0-.04550283-.10780669q-.33672087-.23171436-.25551584-.661541.09870612-.52293243.5565345-.87855448" vector-effect="non-scaling-stroke"/><path stroke="#f68eac" d="m8.0232482 32.82755968-.25201562 1.4756915a.080505.080505 0 0 0 .08190508.0938058c.53903342-.01750108.70914396-.45362812.96675994-.93105771q.15680972-.29051802.46972912-.5936368.16591028-.16030995.2016125-.25271568c.07700477-.19881232-.03920243-.42142612-.2436151-.47882968-.25201563-.07140443-.75114658.25341571-.99056142.42492634" vector-effect="non-scaling-stroke"/><path stroke="#f476a0" d="M8.2570627 32.56574345c.01260078-.18831167-.01540095-.52993285-.25621588-.45152799-.12180755.03990247-.20581276.2065128-.3080191.30101866" vector-effect="non-scaling-stroke"/><path stroke="#ed6190" d="M7.69282772 32.41523412q-1.65770277 2.5467579-2.0049243 5.56464499" vector-effect="non-scaling-stroke"/><path stroke="#f476a0" d="m5.68790342 37.9798791-.15190941.14280886q-.02310144.02170135-.032202.05250326-.29961858 1.03676427-.46202864 2.10293037a.064404.064404 0 0 0 .0532033.07280451c.09590594.01540096.14140876.10010621.16241006.19461207.26671654 1.22017565.43682708 2.48935433-.30521892 3.55482038" vector-effect="non-scaling-stroke"/><path stroke="#f68eac" d="M4.95215781 44.10035855q-.10780668-.75254665-.10290638-1.467991.00700043-1.0822671.17291072-2.15193342c.0210013-.1372085-.01050065-.20931297-.16171003-.20441267-.42562638.01400087-.47952972.2275141-.61043784.55793459q-.08330516.20931298-.09660599.29261814-.11480712.69374301-.30031862 1.37138502c-.0581036.2128132-.0889055.41232556-.12670785.62443872-.080505.4501279.02310143 1.7179065.80084965 1.43788914q.15050933-.05460339.37452322-.34372131" vector-effect="non-scaling-stroke"/><path stroke="#f476a0" d="M4.90175469 44.21656576q.290518 2.14353289.40602517 4.28006535c.01750108.3129194-.03010187.69444305-.00420026 1.04446475q.0049003.064404-.01820113.1064066-.03780234.06860425-.08750543.07490464" vector-effect="non-scaling-stroke"/><path stroke="#ed6190" d="M5.19787304 49.7224071q-.37452322-1.92091909-.96395976-3.79003497-.00840052-.02800173-.03290204-.01540095-.0259016.01260078-.01960121.04060252.05110317.2226138.10780668.44242742.50683142 1.96222165.64333989 3.98534708c.01820112.26531645.04060251.7063438-.09590595.99336158q-.29611836.62303863-.36752279.81835074-.12460772.3402211-.23801475.52363246" vector-effect="non-scaling-stroke"/><path stroke="#ec4a8a" d="m10.01627177 49.33948336-.29471828.60273737a.09590595.09800608 6.7 0 1-.06440399.0518032q-1.37348515.34442136-2.78127243.5096316a.0469029.04620286-75.2 0 1-.04270264-.0742046l.0581036-.07980494" vector-effect="non-scaling-stroke"/><path stroke="#e14083" d="m6.89127803 50.34964599.1435089-.2597161m9.5877944-12.41736983-6.1890837 7.28045136" vector-effect="non-scaling-stroke"/><path stroke="#e14b86" d="M14.62535751 37.95117733q3.72423089-4.28496565 7.6955771-8.34661746.05390334-.05530343.10080625-.11200694" vector-effect="non-scaling-stroke"/><path stroke="#f582a9" d="M14.46994788 37.30013697c.50613137-.16030994.9646598-.88975516 1.18097321-1.34478337q.09590595-.2016125.5677352-.742046" vector-effect="non-scaling-stroke"/><path stroke="#ec548d" d="M28.2615029 14.9750529q-1.33918302 2.2324384-1.78931093 3.10329239-1.16907248 2.26394036-1.4903924 4.80229772-.00840052.06230387.03010187.01260079l.44802777-.58453624" vector-effect="non-scaling-stroke"/><path stroke="#da3676" d="m24.48896902 27.5597331-.91005642.83095152" vector-effect="non-scaling-stroke"/><path stroke="#ec548d" d="M23.5789126 28.39068462q-.00910057-.0756047.02520156-.17851107.4130256-1.22997626.56003472-2.66086496.13650846-1.32518216.33532079-2.6419638.11550716-.76514743.30241875-1.41828792.3241201-1.1354704.79244913-2.40394904" vector-effect="non-scaling-stroke"/><path stroke="#f582a9" d="m28.4519147 15.58619079-.05460338.07770481" vector-effect="non-scaling-stroke"/><path stroke="#ec548d" d="M13.92881433 34.25774835c-.42842656.64263984-.79594935 1.3370829-1.1501713 2.02312543-.07280452.14000868-.23241442.27511705-.29121806.4403273q-.04620287.12950802-.02380148.37942352.07770482.8694539.1596099 1.75570885a.02450152.02450152 0 0 0 .03990247.01680104q.01400087-.01190074.02310143-.03920243.46972913-1.45399015 1.28037938-2.62026245m-.0112007.40952539q-.89605554 1.56389695-1.28037937 3.34830758a.04550282.04550282 0 0 0 .07840486.03920243q.79384922-.92055707 1.63740151-1.84881462.10430647-.11410707.23451454-.21071306" vector-effect="non-scaling-stroke"/><path stroke="#da3676" d="M14.62535751 37.95117733q-.2856177.43752712-.97866067 1.32168194-.78824887 1.00526232-2.48095381 3.5100176-.6839424 1.01226276-.74064592 1.10256836-.35562205.57473563-.62513875 1.19077382a.10990681.10990681 0 0 0 .1533095.14000868l.48022977-.26321631" vector-effect="non-scaling-stroke"/><path stroke="#ec4a8a" d="M10.43349763 44.95301142q-.10570655.21911358-.25131558.41092547-1.7179065 2.2646404-3.14739512 4.725993" vector-effect="non-scaling-stroke"/><path stroke="#da3676" d="M7.03478693 50.08992989q.1274079-.43822717.2226138-.59643698.68814266-1.13757053 1.26847864-2.3339447c.13370829-.27511705.32342005-.5677352.46832903-.87015394a.064404.064404 0 0 0-.06510403-.09170569q-.02380148.00210013-.07210447.02870178-.032202.01750109-.05670352.05040313c-.5418336.7210447-1.23207638 1.45959048-1.69970538 2.09733002q-1.6647032 2.27304092-2.83517577 4.84360029c-.0693043.15190941-.1260078.34932165-.20861293.51873216q-.09800607.20091245-.14770916.38642395-.06440399.24011489-.1596099.46972912-.11270698.27021676-.21281318.5467339" vector-effect="non-scaling-stroke"/><path stroke="#ec548d" d="m5.19787304 49.7224071.08400521.6370395a.0273017.0273017 0 0 0 .05110317.0098006l.60763767-1.12076948a.1064066.10500651 53.8 0 0 .01050065-.07140443c-.56983533-2.66086496-.51173172-5.48063978-.05670351-8.15340548q.01050065-.06160382-.04970308-.04550282l-.0581036.016101a.04550282.04550282 0 0 1-.05670352-.03850239q-.17781103-1.53029487-.0420026-2.9758845m2.0049243-5.56464498q-.08610535.2597161-.2177135.5047313-.21981363.40952538-.25411576.48583011-1.50299318 3.35320789-1.27197886 7.03823635a.02875509.02875509 0 0 0 .05740356.00350021c.2338145-1.34268324.61953841-2.63286322 1.17887309-3.87824043q.20581276-.45782839.37942352-.88275473" vector-effect="non-scaling-stroke"/><path stroke="#ec548d" d="M6.92348002 37.89867407q-1.15857182 3.65912686-.8631535 7.484164a.02660165.02660165 0 0 0 .04900303.01120069l.87645434-1.50719344m-.05600347.6629411q-.46202865.709844-.71054406 1.5211943-.05530342.17921112-.03150195.37662336.10780668.9065562.28771784 1.79001097a.03080191.03080191 0 0 0 .05600347.01050065l.99896193-1.57019735" vector-effect="non-scaling-stroke"/><path stroke="#ee6d99" d="M9.89026395 43.40731559q.5369333-.56353494.99406163-1.225776" vector-effect="non-scaling-stroke"/><path stroke="#ec548d" d="m16.9803035 24.27442942.00700044.11340703q.00210013.03430213-.01680104.06370395c-.9016559 1.41688785-1.76410937 2.74277004-2.60276136 4.30946717q-1.11166892 2.07842886-1.65630268 4.37177104-.1967122.83095151-.27371697 2.02662564-.03640226.55863463-.01820113.91425668a.03010187.03010187 0 0 0 .05530343.01470091l1.66610329-2.6146621" vector-effect="non-scaling-stroke"/><path stroke="#f582a9" d="m8.2570627 32.56574345-.2338145.26181623M4.9017547 44.21656576l.05040312-.1162072m13.57874183-11.23149631-.4774296.4501279m-1.93141974-6.4018969-.69794327 1.03116394" vector-effect="non-scaling-stroke"/></g><path fill="#f35496" d="M42.42477.9321828c1.09277 3.0465896.76655 6.2737896-.1092 9.3161786q-1.28458 4.459276-3.04869 8.70644-.0385.09241.0511.0476l1.5779-.79805q.00079 1.706005-.63284 3.269203c-.82885 2.044827-2.00352 3.86914-3.13759 5.732656q-.38643.635641-.77705 1.163471c-.49703.670642-1.04727 1.308383-1.5282 1.988124-.17991.253416-.57403.717545-.25761.902356q.0336.01961.0707.0098l.28072-.0742a.04550282.04550282 0 0 1 .0476.07141c-1.07527 1.407787-1.92722 2.961182-2.93808 4.412374-2.68397 3.85444-5.41764 7.210447-8.70994 10.321439a.03290204.03290204 0 0 0 .0252.05671q.006-.000794.0224.014-3.2874 2.507556-7.00044 4.333269c-3.60872 1.773909-7.57937 3.185898-11.3722 4.383672q.049-.270216.15541-.49213c.29752-.620239 1.6654-1.137571 2.28984-1.28528q1.84041-.435427 3.52822-1.14037.94576-.394824 1.88872-.981461a.03360208.03360208 0 0 0-.021-.0616c-.098.0105-.20302.110606-.27442.151209q-1.27338.722445-2.69797 1.030462-.77985.168712-.78335.16941-2.03992.488633-2.67556.703546-.43893.148408-.81975.398325a.02660165.02730169 84.199982 0 1-.0399-.0322q.36683-.916358.81346-1.802612c.042-.08331.0588-.152612.17081-.163811q.78964-.08121 1.46379-.211413 6.02457-1.164873 11.00818-4.676291c.68884-.485831 1.30768-.995461 1.91322-1.557597q2.01752-1.871917 3.80053-4.013348a.0420026.04200261 0 0 0-.004-.0581q-.0602-.0546-.14211.0448-1.75641 2.127433-3.95244 3.799136-3.05359 2.325545-6.55871 3.88664a.0210013.02170135 5.9999846 0 1-.0259-.0322q.46203-.648941.77915-1.26148 1.21668-.611138 2.17434-1.201275 2.38435-1.468689 4.69029-3.239101c.30242-.232412.60064-.523631.90585-.781248q.35423-.298918.66925-.597837.56913-.539033.97165-.816951.77215-.531331 1.5282-1.087168c.32622-.240114.51663-.516631.73715-.841452a.03990247.03990248 0 0 0-.0196-.0602q-.0294-.0098-.0721.0056-.39903.145608-.80436.0434a.0854053.08470526 30.700258 0 1-.0371-.14491q1.97553-1.820114 3.80054-3.966446 1.29088-.279318 2.64546-.872953.0581-.0259.0882-.049a.03990247.03990248 0 0 0-.0329-.07071l-2.25974.514533q1.06686-1.290881 1.97692-2.529258.0182-.0245.0238-.0511.01-.0476.003-.0574a.08260512.08260513 0 0 0-.1323-.007q-.24852.299616-.49844.594336-.23031.270917-.54533.549534c-.32552.287719-.62724.593638-.96956.851252q-.57544.432628-1.18587.898856l-1.5821.217715q-.24082.0329-.0252-.0791 1.75641-.910757 3.44421-2.142834c.82745-.604137 1.40989-1.256578 2.08543-1.931419q.0532-.0539.0497-.111308a.032202.032202 0 0 0-.056-.0196q-.24851.271616-.56773.474628-1.33639.849852-2.63357 1.75781c-.16871.117607-.35492.217014-.53343.319918q.18551-.171508.36542-.343019c.0763-.07281.18902-.09171.23802-.211415q.0133-.0315.0406-.0518.97166-.705644 1.92092-1.442088.0273-.02101.74975-.555135.37872-.280718.72874-.596437a.09310577.09310578 0 0 1 .15121.09661q-.0686.222612-.21771.398322a.06720417.06720417 0 0 0-.009.0742q.0112.0231.0119.0518.001.100806.0665.0056 2.25344-3.282503 3.95874-6.861826.0588-.122507.0861-.204412a.02940182.02940182 0 0 0-.0455-.0322q-1.22087.925457-2.14703 1.348285-.61604.281416-1.73541.476729-.0343.0056-.0616-.01611l-.0357-.0294a.07140443.07140443 0 0 0-.0665-.01191q-1.748.560734-3.3462 1.465191-.23312.132307-.43333.333221-1.35738 1.362983-2.74277 2.696568-2.04483 1.968521-2.86668 2.681864-1.94682 1.690606-3.86004 3.419012-.0945.08541-.19181.161711a.03360208.03430213 17.999931 0 0 .0301.05951q.26392-.077.52643-.218414c.71545-.386424 1.41969-.795951 2.09244-1.253077q2.11693-1.437892 3.97764-3.199199c.0448-.0427.0994-.0371.14351-.09661q.0973-.130207.29962-.281416.19531-.147011.64964-.615339.27442-.282118.53273-.506831.42283-.366824.55234-.486532.95136-.875755 1.86141-1.534496.59644-.431226 1.69691-.942258.14981-.07.32482-.128106.16311-.0539.33112-.111307-.41303.361222-1.18238.82745-.68394.415126-2.21983 1.542896-.67975.499132-1.10957.853353-2.53626 2.094529-4.40188 4.821201-.41652.609036-.69374 1.196372c-.042.08891-.0707.14351-.17081.17641-1.7074.560036-3.2496.80645-4.9136 1.096971a.02520156.02520156 0 0 1-.0224-.042c3.47221-3.696229 6.94793-7.302854 10.35154-11.177596.0504-.0574.1246-.114805.20441-.142107 1.07246-.365424 1.92162-.795949 2.82397-1.244677q.21072-.105008.47463-.14841 2.97869-.490731 5.65636-1.890816c.87855-.459229 1.7438-.988462 2.48655-1.648603q.38012-.33742.75674-.678341.0343-.0308-.006-.0525l-.0182-.0091q-.0294-.01609-.0567.0035-.29052.207912-.57404.426326c-.1736.133709-.38852.227515-.58663.372424q-2.52436 1.844615-5.57095 2.700068.54044-.167312.78615-.539036.18061-.273015.70145-1.166971.0623-.107807-.008-.142108c.15471-.139308.33322-.262516.47393-.399026q1.06756-1.038865 1.99512-2.205836.0189-.0238-.003-.0455l-.0161-.0161a.04130256.04130256 0 0 0-.0588.000688c-.55373.583836-1.10257 1.185174-1.74241 1.686406q.15821-.376623.60904-1.319583c.49983-1.046565 1.04376-2.424251 1.47009-3.811737a.03990247.03990248 0 0 0-.0721-.0322q-.37313.63074-.67415 1.180974-.46202.846352-.99896 1.646502-1.6206 2.418649-3.52962 4.616787a.04620287.04550282 44.700159 0 0 .0008.0602l.0427.0469q-1.69271 1.002464-3.58282 1.673104a.03080191.03080191 0 0 1-.0336-.0497q.86525-.996162 1.6983-2.031527.22471-.280016.50263-.519432 3.59122-3.096992 6.4194-6.908728.24922-.335321.49773-.674142.021-.028.0553-.0322.0693-.0091.10221-.0574c.0707-.105006.12671-.280017.20791-.402525q1.30628-1.972722 2.45926-4.03855.0819-.147709.18201-.420027.0126-.035-.0231-.0238-.0189.0063-.0315.028c-.70285 1.260079-1.4645 2.471154-2.29265 3.652127q-.29261.417926-.56913.847053-.14911.231014-.43963.590136-.12671.15681-.44593.583836-.29612.396225-.65104.746247.59154-.849153 1.20338-1.680805c.1085-.147009.18271-.352821.31362-.49563.23801-.259017.27231-.444528.36122-.835852q.26742-1.175373.43403-2.41305.59013-1.106069 1.16557-2.310143.0294-.0623-.0238-.09591a.04410273.04410274 0 0 0-.0616.0161l-.94576 1.731907c-.0476-.288417.0406-.519432.0511-.774247q.007-.15611.007-.31712l.0651-.592237.0868-1.199874.003-.0042q.37382-.401825.60204-.889755.23101-.263217.41372-.554435.75465-1.206874 1.41549-2.4676527c.0819-.1575099.12881-.3115194.19321-.4802299q.0336-.086105.0903-.1855115.34372-.6055376.57053-1.3356829z"/><path fill="#f79ab5" d="M39.08627 5.3347564q.0882.17571.0847.247815-.0252.610438-.0315 1.262878l-.003.0042q-.84075 1.202674-1.81381 2.287042-.008.0084-.01.0175-.001.0098 0 .0189.005.0343.0315.0112.81135-.707744.98706-.95416c.18411-.258315.20581-.371023.53203-.396924q.0378-.0028.0532.0322.049.111307.13301.184111l-.0651.592237c-.28912.463429-.47323 1.017163-.70985 1.436489q-.19041.339521-.39272.672042c-.0756.124608-.0959.241515-.25271.32272a.12670785.12670786 0 0 0-.0441.0385l-.75184 1.072467c-.56564.508931-1.03467 1.088567-1.81732 1.038164-.65524-.0413-.63074-.527132-.47113-1.012963a.032202.032202 0 0 0-.0525-.0329q-2.19394 2.125332-4.49848 4.130957a.06720417.06720417 0 0 1-.11131-.0462q-.1204-1.719307.50264-3.321006a.02450152.02520156-8.499975 0 0-.0385-.0287l-4.06655 3.2195q-.0973.0777.0133.134408.0644.0329.0889.15191c.0791.389224-.13301.677641-.28352 1.009462-.15121.331821-.20301.730846-.34932 1.037465q-.44243.924757-.80785 1.890818l-.59714 1.330783q-.20371.161708-.36052.303818-.25902.234514-.37872.273016c-.28842.09311-.48164-.08541-.62164-.32762-.20652-.356323-.12111-.888355.003-1.339882q.44663-1.617102 1.45679-2.924783a.04270265.04270265 0 0 0-.0616-.0588l-1.44908 1.229976a.02520156.0259016 80.599971 0 1-.0406-.0287l.22472-.553034q.005-.0112-.006-.0182-.008-.0056-.0161-.0112a.02240139.02240139 0 0 0-.0336.0091l-.29612.696543-.13651.270917q-.42282.170811-.43192.574736c-.008.338821-.21282.677643-.24432.920557q-.17291 1.331484-.49703 2.633565c-.11831.475329-.42702 1.042363-1.02136.870852q-.47393-.137207-.59014-.669941-.0364-.165211-.0966-.259016-.0203-.0315-.0574-.0301-.0945.0028-.12811-.08121a.06580408.06580408 0 0 0-.1211-.0021c-.0931.213513-.28282.532733-.50263.630737-.23032.103608-.48023.0455-.59014-.19881-.17011-.378024.11481-.819751.46763-.96606a.07770482.07770482 0 0 0 .0329-.116909l-.44943-.621639a.03640226.03570221 46.900125 0 0-.0567-.0021c-.25412.301019-.55514.663641-.96956.748347q-.52223.107106-.67274-.361923-.0959-.298919.0609-.543933a.0259016.02590161 0 0 0-.0378-.0343q-2.86598 2.204437-5.44494 4.741394-3.82294 3.762032-5.88596 8.891252c-.18621.462029-.33812.97586-.49773 1.466591q-.18622.573334-.32972 1.113769-.25692.968859-.51174 1.939121-.0182.07-.0644.077-.0315.0049-.0441.0343-.0259.05811-.0581.07981 1.68781-8.700839 7.84889-15.053036 3.1495-3.2468 7.13414-5.402934a.02450152.02380147 71.100051 0 1 .035.01751l.32132 2.098731a.01680104.01680104 0 0 0 .0329.0021q.1155-.355621.28702-.697243c1.06896-2.126732 2.66786-3.916743 4.56288-5.342732q2.21353-1.666103 4.72039-2.849176 1.23908-.584537 2.48795-1.103969a.02660165.02660165 0 0 1 .0343.0364q-.65455 1.366485-.54604 2.89188a.01680104.01680104 0 0 0 .0287.0112c3.04939-2.802974 5.90697-5.869865 8.25141-9.314778z"/><path fill="#f482a3" d="m39.13667 6.8496504-.0868 1.199874q-.084-.07281-.13301-.184111-.0154-.035-.0532-.0322c-.32622.0259-.34792.138608-.53203.396924q-.17571.246415-.98706.95416-.0266.0231-.0315-.0112-.001-.0091 0-.0189.002-.0091.01-.0175.97306-1.084368 1.81381-2.287042z"/><path fill="#e53f7d" d="M38.79225 10.3911694q-1.02136 1.867016-2.52296 4.082654-2.14213 3.160696-4.41237 6.227588a.02310143.02380147 86.499991 0 0 .035.0308q2.45155-2.303843 4.58809-4.915705.35492-.350022.65104-.746246.31922-.427027.44593-.583836.29051-.359123.43962-.590137.27652-.429127.56914-.847053c.82815-1.180973 1.5898-2.392048 2.29264-3.652126q.0126-.0217.0315-.028.0357-.0112.0231.0238-.10011.272317-.18201.420026-1.15297 2.065828-2.45925 4.038551c-.0812.122507-.13721.297518-.20792.402525q-.0329.0483-.1022.0574-.0343.0042-.0553.0322-.24851.338821-.49773.674142-2.82817 3.811737-6.4194 6.908727-.27791.239417-.50263.519433-.83305 1.035365-1.6983 2.031526a.03080191.03080191 0 0 0 .0336.0497q1.89012-.670639 3.58282-1.673103 1.70111-1.060564 3.1523-2.387846c.63984-.501232 1.18867-1.102569 1.74241-1.686406a.04130256.04130256 0 0 1 .0588-.000687l.0161.0161q.0217.0217.003.0455-.92756 1.166971-1.99513 2.205836c-.14071.136509-.31922.259718-.47393.399026q-1.41198 1.219475-2.99898 2.149131a.03360208.03430213 23.299915 0 0 .0245.0623l1.49459-.36332q3.04659-.855454 5.57094-2.700068c.19812-.14491.41303-.238715.58664-.372425q.28352-.218413.57404-.426326.0273-.0196.0567-.0035l.0182.0091q.0406.02169.006.0525-.37662.340921-.75674.678342c-.74275.660141-1.608 1.189373-2.48656 1.648603q-2.67767 1.400085-5.65635 1.890816-.26392.0434-.47463.14841c-.90236.448728-1.75151.879252-2.82397 1.244676-.0798.0273-.15402.08471-.20442.142108-3.40361 3.874741-6.87932 7.481367-10.35154 11.177596a.02520156.02520156 0 0 0 .0224.042c1.66401-.290521 3.2062-.536935 4.91361-1.096971.1001-.0329.12881-.0875.17081-.176411q.27722-.587335.69374-1.196372 1.86562-2.726671 4.40187-4.8212.42983-.354222 1.10957-.853353 1.5359-1.127771 2.21984-1.542897.76935-.466227 1.18237-.82745l1.4946-.994063a.04060252.03990248 6.9000332 0 1 .0497.06301l-.25202.229614q-.16871.0714-.30591.210714-.0966.09731-.21982.16801c-.15541.08891-.27302.237316-.40742.32902q-.46203.315719-.72245.522232-1.37908 1.095568-2.79457 2.141434c-2.11203 1.561796-3.99025 3.455414-5.37353 5.698353l-.47533.672042q-.098.137909.0609.0791 2.85688-1.059865 5.36863-2.658766c.17851-.102905.36473-.202311.53343-.319919q1.29718-.907957 2.63357-1.757809.31922-.203013.56773-.474628a.032202.032202 0 0 1 .056.0196q.003.0574-.0497.111308c-.67554.674841-1.25797 1.327282-2.08543 1.931418q-1.6878 1.232078-3.44421 2.142834-.21561.112007.0252.07911l1.5821-.217715q.80645-.0686 1.32728-.249214l2.25974-.514533a.03990247.03990248 0 0 1 .0329.07071q-.0301.0231-.0882.049-1.35459.593635-2.64547.872953l-1.92722.352121q-.49983.0378-1.02976.08471c-.11481.0105-.18131-.0266-.26462-.0952q-.028-.02241-.0602-.007-2.54816 1.222275-5.66755 2.11763c-1.34969.386424-2.38785.63074-3.63813.64194q-.0735.000794-.13861.0637.0672-.17711.11901-.239414 3.10189-3.766934 6.17788-7.158644c.96116-1.059865 1.74311-1.90972 2.58666-2.931083q.57194-.693042 1.16488-1.368584.0525-.0602.0665-.111307a.0532033.0532033 0 0 0-.0868-.0546q-.46202.403923-.91845.751144-.0931.0707-.29752.109207.20861-.242914.41863-.461328c2.68256-2.794574 5.34693-5.601047 7.78658-8.611933q1.23627-1.44559 2.12743-2.772873 1.52329-2.26884 3.15929-5.090016l.94576-1.731907a.04410273.04410274 0 0 1 .0616-.0161q.0532.0336.0238.09591-.57544 1.204074-1.16557 2.310143z"/><path fill="#f3699c" d="M38.98476 8.6417614q0 .16101-.007.31712c-.0105.254815-.0987.48583-.0511.774247q-1.636 2.821176-3.1593 5.090016-.89115 1.327283-2.12743 2.772873.0378-.263917.20301-.497731 1.48059-2.08753 2.77357-4.296167.20162-.344421.21702-.618138l.75185-1.072467a.12670785.12670786 0 0 1 .0441-.0385c.15681-.08121.17711-.198112.25271-.32272q.20232-.332521.39273-.672042c.23661-.419326.42072-.97306.70984-1.436489zm-.19251 1.749408q-.16661 1.237677-.43403 2.41305c-.0889.391324-.12321.576836-.36122.835852-.13091.142809-.20511.348622-.31362.495631q-.61184.831651-1.20337 1.680804-2.13654 2.611862-4.58809 4.915705a.02310143.02380147 86.499991 0 1-.035-.0308q2.27024-3.066892 4.41237-6.227588 1.5016-2.215638 2.52296-4.082654z"/><path fill="#f482a3" d="M23.35489 14.3828174c.37522-.763747 1.09137-1.276879 1.78931-1.724907.70565-.452928 1.5429-.844252 2.31995-1.236277.39622-.200212.64894.387124.31922.614638q-.83025.571936-1.15227.858954-.81975.730145-1.6395 1.45889-.55024.488631-1.11868.707744c-.59083.228214-.74694-.212113-.51803-.679042zm13.47864-2.198836q-.0154.273717-.21702.618138-1.29298 2.208637-2.77357 4.296167-.16521.233814-.20301.497731c-2.43965 3.010887-5.10402 5.81736-7.78658 8.611934q-.21001.218413-.41863.461327l-.94576.890456q.13861-.763046.20512-1.465189.0987-1.031864.16031-2.06583.0147-.247115.0602-.315018.41093-.609039.82115-1.218777c.88976-1.320281 1.90202-2.673466 2.64686-3.87124q.50894-.818351.88346-1.974822.007-.021.003-.0392-.003-.0217-.01-.0364a.02380147.02380148 0 0 0-.0448.000688c-.17291.48303-.35982.932458-.65384 1.370685q-.62164.927558-1.29368 1.818712c-.64544.856853-1.20408 1.696906-1.80751 2.545358q-.098-.0329-.0574-.160311.48023-1.526794.99336-2.634962.19182-.415825 1.01857-1.916718.0175-.0315.0147-.0679c-.0175-.207912-.0511-.406025.0413-.602737q.33532-.714744.92686-1.262178c-.0434.16661-.0483.313619-.13651.465529q-.39482.678342-.78055 1.364384-.0154.028-.008.0602.042.177111.17572.228914c.34442.134409.73014-.175011.90375-.498431q.33672-.625839.77915-1.179573c.15751-.196012.38852-.572636.31992-.833752-.16871-.64194-1.00106.09451-1.19847.31502q.0707-.32482-.19042-.611138l.17922-.254816a.04690291.04690291 0 0 0-.001-.0546q-.0196-.0252-.0518-.0175-.0147.0035-.0294.0189c-.42073.455028-.87926.914956-1.21738 1.405687q-.88696 1.28528-1.39939 2.712668-.0735.205813-.147.301719-.19672.345121-.32623.727343-.0266.07911-.119.212114c-.0511.0728-.0819.263218-.12671.30522q-.0392.0364-.0805.0231.36543-.96606.80785-1.890817c.14631-.306619.19812-.705644.34932-1.037465.15052-.33182.36263-.620238.28352-1.009462q-.0245-.119008-.0889-.15191-.11061-.0567-.0133-.134408l4.06655-3.2195a.02450152.02520156-8.499975 0 1 .0385.0287q-.62303 1.601699-.50263 3.321006a.06720417.06720417 0 0 0 .11131.0462q2.30454-2.005625 4.49848-4.130957a.032202.032202 0 0 1 .0525.0329c-.15961.485831-.18411.971661.47113 1.012963.78265.0504 1.25168-.529233 1.81731-1.038164z"/><path fill="#e53f7d" d="M28.2615 14.9750544q-1.33919 2.232439-1.78931 3.103292-1.16908 2.26394-1.4904 4.802297-.008.0623.0301.01259l.44802-.584536c.60344-.848452 1.16207-1.688504 1.80752-2.545357q.67204-.891156 1.29368-1.818714c.29401-.438227.48093-.887655.65384-1.370685a.02380147.02380148 0 0 1 .0448-.000688q.006.0147.01.0364.003.0182-.003.0392-.37453 1.156471-.88346 1.974822c-.74484 1.197775-1.75711 2.55096-2.64686 3.871242q-.41023.609737-.82115 1.218776-.0455.0679-.0602.315019-.0616 1.033965-.16031 2.065829-.0665.702144-.20511 1.465189l-.91006.830953q-.009-.07561.0252-.178512.41303-1.229976.56004-2.660864.13651-1.325182.33532-2.641965.11551-.765146.30242-1.418286.32412-1.135473.79245-2.403952.0735-.09591.147-.301719.51244-1.427388 1.39939-2.712668c.33812-.490731.79665-.950659 1.21738-1.405687q.0147-.0154.0294-.0189.0322-.0077.0518.0175a.04690291.04690291 0 0 1 .001.0546z"/><path fill="#f3699c" d="M28.2615 14.9750544q.26111.286318.19041.611138l-.0546.0777q-.59154.547434-.92686 1.262178c-.0924.196712-.0588.394825-.0413.602737q.003.0364-.0147.0679-.82676 1.500893-1.01857 1.91672-.51313 1.108167-.99336 2.634961-.0406.127408.0574.160311l-.44802.584536q-.0385.0497-.0301-.01259.32132-2.538357 1.49039-4.802297.45013-.870854 1.78932-3.103292z"/><path fill="#f79ab5" d="m28.39731 15.6638974.0546-.0777c.19741-.220514 1.02976-.95696 1.19847-.31502.0686.261116-.16241.63774-.31992.833752q-.44243.553734-.77914 1.179573c-.17362.32342-.55934.63284-.90376.498431q-.13371-.0518-.17571-.228914-.007-.0322.008-.0602.38573-.686042.78055-1.364385c.0882-.151909.0931-.298918.13651-.465528z"/><path fill="#f3699c" d="M35.57695 20.4661964q-1.45119 1.327282-3.1523 2.387846l-.0427-.0469a.04620287.04550282 44.700159 0 1-.00079-.0602q1.90902-2.198137 3.52962-4.616786.53693-.80015.99896-1.646502.30102-.550235.67414-1.180974a.03990247.03990248 0 0 1 .0721.0322c-.42633 1.387486-.97026 2.765172-1.47009 3.811737q-.45083.942959-.60904 1.319583z"/><path fill="#f482a3" d="M21.19386 16.8749724c-.11341.235214-.16031.549534-.43613.770748-.23311.187611-.45573.136508-.53553-.16171-.16521-.623739.27092-1.041665.74065-1.348284.25971-.170111.52643.111307.44802.375223-.0364.122508-.15891.244315-.21701.364023zm3.1509 4.810699q-.63565 2.234539-1.26428 4.391372-.063.214913-.16172.203713c-.22261-.95976-.48233-1.993725-.56493-2.910081q-.20231-2.235239.49353-4.446676a.03080191.03080191 0 0 0-.0553-.0266l-.0259.0385.29611-.696544a.02240139.02240139 0 0 1 .0336-.0091q.008.0056.0161.0112.0105.007.006.0182l-.22471.553035a.02520156.0259016 80.599971 0 0 .0406.0287l1.44909-1.229977a.04270265.04270265 0 0 1 .0616.0588q-1.01016 1.307681-1.45679 2.924781c-.12461.451528-.21001.98356-.003 1.339882.14001.242216.33322.420727.62164.327621q.1197-.0385.37872-.273016.15681-.14211.36052-.303818z"/><path fill="#cf2c6f" d="M23.36119 46.0716834q-.0161-.01471-.0224-.014a.03290204.03290204 0 0 1-.0252-.05671c3.29231-3.110992 6.02598-6.466999 8.70995-10.321439 1.01086-1.451192 1.86281-3.004587 2.93808-4.412374a.04550282.04550282 0 0 0-.0476-.07141l-.28072.0742q-.0371.0098-.0707-.0098c-.31642-.184812.0777-.648941.25762-.902357.48093-.679741 1.03116-1.317482 1.52819-1.988124q.39063-.52783.77705-1.163471c1.13407-1.863516 2.30874-3.687828 3.1376-5.732655q.63354-1.563198.63283-3.269204l.40533-.214213a.03500217.03430213 75.800057 0 1 .0504.0308c.0532 5.228625-3.2496 9.564694-6.82402 13.089412a.02030126.02030126 0 0 0 .0168.0343l1.18027-.13861a.03010187.02940182 10.200036 0 1 .0301.0427q-4.47048 8.924153-12.39357 15.022931z"/><path fill="#e53f7d" d="M22.91876 26.2807564c.15332.676241.26182 1.451891.17292 2.147033q-.0308.244314-.0616.505431-.25551.30662-.60834.559335-.00079-.116907.0182-.170112.37242-1.040262.32062-2.133732c-.042-1.13057-.49633-2.44035-.61534-3.239101q-.36542-2.443152.48443-4.742793l.13651-.270917.0259-.0385a.03080191.03080191 0 0 1 .0553.0266q-.69584 2.211437-.49353 4.446676c.0826.916356.34233 1.950321.56494 2.910081z"/><path fill="#f3699c" d="M25.59433 19.0871094q-.46833 1.268478-.79245 2.403951-.18691.653139-.30241 1.418285-.19882 1.316784-.33533 2.641966-.14701 1.430887-.56003 2.660864-.0343.102907-.0252.178512l-.54883.542533q.0308-.261117.0616-.505431c.0889-.695142-.0196-1.470792-.17291-2.147033q.0987.01119.16171-.203713.62864-2.156833 1.26428-4.391372l.59713-1.330783q.0413.01331.0805-.0231c.0448-.042.0756-.232415.12671-.30522q.0924-.133009.119-.212114.12951-.382223.32623-.727345z"/><path fill="#f482a3" d="M22.62965 19.2068174q-.84986 2.299641-.48443 4.742793c.11901.798751.57333 2.108531.61534 3.239101q-.25202.487931-.37663.863854-.39692 1.198475-1.05706 2.199537-.25832.392025-.68745.824651c-.70634.711245-1.26987 1.220176-1.99722 1.797711q-.0252.02029-.0539.0245-.0889.01331-.0574-.0301 1.6115-2.219838 2.37245-4.845701c.25062-.864555.38572-1.728409.38082-2.594361q-.00079-.14351-.1274-.278617-.0259-.0273-.0637-.02381c-.31082.0315-.39902.191813-.62304.474628q-.94506 1.197076-1.6927 2.522959-.45923.81345-.70844 1.206174c-.59924.946457-1.28108 1.848813-1.5149 2.979383-.23101 1.118672.56214 1.618502 1.49949 1.009465q-.105.129508-.1008.200911.002.0329-.0217.0553l-1.7123 1.638101c-.17152-.278617-.40043-.475329-.68675-.179911-.39762.410927-1.6325 1.570897-1.29438 2.217039q.0154.0301.0504.0336l.18201.01609-.20302.08121q-.0287.01191-.0476.0371l-.19321.259017a.06160382.06160382 0 0 1-.11061-.0441l.10571-.80995q.004-.0329-.0259-.0182-.0217.01119-.0315-.0042-.0441-.0672-.008-.177811.49213-.868053 1.12707-1.650704.0105-.01331.0126-.0273.002-.0245-.003-.0322a.04410273.04410274 0 0 0-.0658-.0035q-.54323.568436-1.05917 1.304181-.1001-.79385-.0525-1.229976.0497-.44943.0147-.725946c1.36369-2.037127 2.82608-4.023849 4.01825-6.168781q1.15297-2.073529 1.699-4.379474c.0238-.0987.008-.207214.0315-.31432a.00789685.00789685 0 0 0-.0154-.0035q-.51313 1.898518-1.29718 3.468016c-1.08927 2.182034-2.76587 4.454377-4.22406 6.614012q-.17781.126706-.29262.298217c-.0826.123208-.34512.310118-.48303.328321-.56774.0763-.59714-.538334-.45923-.909357q.24642-.66644.82605-.998963.15821-.091.40813-.028a.0371023.03640226 12.800055 0 0 .0448-.028l.22541-1.046565a.06510404.06650413 28.699904 0 0-.0168-.0602q-.12881-.13231-.13651-.279318c-.014-.277217.0511-.594336.14771-.879954q.35143-1.040966 1.01927-1.921621.0301.205113-.01.29822-.64894 1.506492-.82886 2.163133-.1001.367524-.17921.558635-.0126.0308.008.0567c.13861.178512.57264-.02241.71825-.120406.39902-.268118.81835-.729446 1.11237-1.169773q1.03886-1.554798 1.7137-3.302106c.12041-.312219.28352-.615337.39973-.898155q.1295-.31292-.11971-.527132-.0308-.0266-.0707-.0245-.42072.0231-.69304.406725-.38502.542533-1.35248 1.527495.0854-.352121.35212-.795949.74555-1.241179 1.5478-2.452952a.07770482.07770482 0 0 0-.10571-.109206q-.48023.298217-.93596.715443-.14631-.0973-.26042.06231-1.50649 2.107131-2.77777 4.362669c-1.30768 2.321346-2.08053 4.845-2.00072 7.475766.0371 1.232775.13371 2.60836-.0476 3.971345q-.0665.499131-.22682.97586c-.13721.409525-.48443.753946-.78265 1.059167.0182-.110606.0245-.251317.0819-.349321q.39692-.674844.44733-1.266381.0357-.418624.15331-.820449.1267-.430527-.13441-.713346c-.41653-.450826-.85896.0539-1.05637.405326q-.54393.966761-1.16347 1.885217c-.22331.33042-.44523.718243-.51593 1.046565-.13581.628639.12951 1.317482.91215 1.057764q.15191-.0504.28142-.0196l-2.35984 3.270604q-.14141.0357-.0882-.177813.0175-.0714-.008-.286316-.005-.0392-.0441-.0378c-.12251.0035-.23732.0504-.34933.0154-.54393-.166611-.36542-.749046-.30942-1.152972q.006-.0392.0336-.0665.0651-.0637.0644-.154009a.07560469.07490464 71.800154 0 1 .0301-.06021q.12601-.0924.07-.207912c.87085-1.330783 1.81031-2.821874 2.45435-4.371771.26812-.64474.42143-1.343383.58944-2.035726.0861-.356322.21701-.667843.36402-.990563a.05110317.05110317 0 0 0-.0196-.0644q-.063-.0378-.10151.0336c-.22821.424926-.38782.80505-.52223 1.31118q-.47393 1.787213-1.46589 3.476416-.68114 1.161373-1.24258 1.978324-.42282-2.281441-.15681-4.448077.0539-.438928.0392-.81625a.09870612.10150629 60.699926 0 1 .0182-.0616q.0427-.05951.0469-.128109.0189-.267417-.01-.534133.34722-1.216676.84775-2.373148c.0301-.0693.0959-.170109.0952-.259715a.03640226.03640226 0 0 0-.0679-.0168l-.23381.437525.20301-1.211075a.10780668.10850673 22.099739 0 0-.0455-.107807q-.33672-.231714-.25552-.66154.0987-.522933.55654-.878554l-.25202 1.475692a.08050499.080505 0 0 0 .0819.09381c.53903-.01749.70914-.453628.96675-.931058q.15681-.290518.46973-.593637.16591-.160309.20162-.252715c.077-.198813-.0392-.421425-.24362-.478829-.25201-.07141-.75115.253415-.99056.424926.0126-.188312-.0154-.529934-.25622-.451527-.1218.0399-.20581.206512-.30801.301019q-1.65771 2.546757-2.00493 5.564645l-.15191.142809q-.0231.0217-.0322.0525-.29962 1.036765-.46203 2.102932a.06440399.064404 0 0 0 .0532.0728c.0959.0154.14141.100108.16241.194612.26672 1.220176.43683 2.489356-.30521 3.554823q-.10781-.752547-.10291-1.467994.007-1.082264.17291-2.151933c.021-.137207-.0105-.209311-.16171-.204411-.42563.014-.47953.227512-.61044.557934q-.0833.209312-.0966.292619-.11481.693743-.30032 1.371383c-.0581.212815-.0889.412327-.12671.624441-.0805.450127.0231 1.717905.80085 1.437888q.15051-.0546.37452-.343722.29052 2.143535.40603 4.280066c.0175.31292-.0301.694444-.004 1.044464q.005.06441-.0182.106408-.0378.0686-.0875.0749-.37452-1.920917-.96396-3.790034-.008-.028-.0329-.0154-.0259.01259-.0196.0406.0511.222615.1078.442428.50684 1.962222.64334 3.985348c.0182.265316.0406.706342-.0959.993362q-.29612.623038-.36752.818351-.12461.34022-.23802.523631-1.53239-6.297591-.34372-12.679886.0322-.0217.0581-.07981.0126-.0294.0441-.0343.0462-.007.0644-.077.25482-.970261.51173-1.93912.14351-.540436.32972-1.113769c.15961-.490731.31152-1.004562.49773-1.466591q2.06303-5.129221 5.88597-8.891252 2.57896-2.536957 5.44494-4.741394a.0259016.02590161 0 0 1 .0378.0343q-.15681.245014-.0609.543933.15051.469029.67275.361923c.41442-.08471.71544-.447328.96956-.748347a.03640226.03570221 46.900125 0 1 .0567.0021l.44943.621639a.07770482.07770482 0 0 1-.0329.116909c-.35282.146309-.63773.588036-.46763.96606.10991.244313.35983.302418.59014.19881.21982-.098.40953-.417224.50263-.630737a.06580408.06580408 0 0 1 .12111.0021q.0336.08401.12811.08121.0371-.0013.0574.0301.0602.0938.0966.259016.11621.532734.59014.669941c.59433.171511.90305-.395523 1.02136-.870852q.32412-1.302081.49703-2.633565c.0315-.242914.23661-.581736.24432-.920557q.009-.403925.43192-.574735zm19.12868 5.62905c.57124-1.393087 1.22508-2.753273 1.63881-4.210061a.15120937.15050934 1.4000255 0 1 .1106-.105008c.30172-.0686.36963.145608.32902.394825-.24711 1.528894-.44593 3.025587-1.01786 4.477477-.11201.284218-.81975 1.661203-1.27758 1.279679-.33042-.275117.0812-1.505792.21701-1.836912z"/><path fill="#f3699c" d="M34.92801 21.4455564q.07.0343.008.142108-.52083.893956-.70145 1.166972-.24571.371723-.78614.539035l-1.4946.363321a.03360208.03430213 23.299915 0 1-.0245-.0623q1.587-.929656 2.99899-2.149132zm-6.28429 11.326001q-2.51175 1.598901-5.36863 2.658766-.15891.0588-.0609-.07911l.47532-.672041c.12951-.0434.26252-.07771.36123-.181311q.57823-.603438 2.11903-2.137233 2.26604-2.254139 4.23526-3.945446.62864-.540433.95416-.866653.15961-.160309.47393-.392025.21911-.161708.46343-.399725.45713-.445228 1.01646-.767247a.08960556.09170568 87.099989 0 0 .0357-.0385l.16451-.341622.25202-.229613a.04060252.03990248 6.9000332 0 0-.0497-.06301l-1.49459.994064q-.16801.0574-.33112.111307-.17501.0581-.32482.128106-1.10047.511033-1.6969.942258-.91006.658742-1.86142 1.534496-.12951.119709-.55233.486532-.25832.224713-.53274.506831-.45432.468328-.64964.615339-.20231.151209-.29961.281416c-.0441.05951-.0987.0539-.14351.09661q-1.86072 1.761308-3.97765 3.199199c-.67274.457126-1.37699.866653-2.09243 1.253077q-.26251.141409-.52643.218414a.03360208.03430213 17.999931 0 1-.0301-.05951q.0973-.0763.19181-.161711 1.91322-1.728406 3.86004-3.419012.82185-.713343 2.86668-2.681864 1.38538-1.333585 2.74276-2.696567.20022-.200914.43333-.333222 1.5982-.904457 3.34621-1.465191a.07140443.07140443 0 0 1 .0665.01191l.0357.0294q.0273.0217.0616.01611 1.11937-.195313 1.73541-.476729.92615-.422828 2.14703-1.348285a.02940182.02940182 0 0 1 .0455.0322q-.0273.08191-.0861.204412-1.70531 3.579323-3.95875 6.861826-.0651.0952-.0665-.0056-.0008-.0287-.0119-.0518a.06720417.06720417 0 0 1 .009-.0742q.14911-.17571.21771-.398322a.09310577.09310578 0 0 0-.1512-.09661q-.35002.315719-.72875.596437-.72244.534133-.74975.555135-.94925.736444-1.92091 1.442088-.0273.02029-.0406.0518c-.049.119708-.16171.13861-.23801.211415q-.17991.171511-.36542.343019z"/><path fill="#e53f7d" d="M13.92881 34.2577514c-.42843.642638-.79595 1.337082-1.15017 2.023126-.0728.140007-.23242.275116-.29122.440327q-.0462.129509-.0238.379423.0777.869453.15961 1.755709a.02450152.02450152 0 0 0 .0399.0168q.014-.01191.0231-.0392.46973-1.453989 1.28038-2.620261.51593-.735746 1.05917-1.304182a.04410273.04410274 0 0 1 .0658.0035q.006.0077.003.0322-.002.014-.0126.0273-.63494.78265-1.12707 1.650703-.89606 1.563897-1.28038 3.348308a.04550282.04550282 0 0 0 .0784.0392q.79385-.920557 1.6374-1.848816.10431-.114106.23452-.210711-.28562.437526-.97866 1.321681-.78825 1.005263-2.48096 3.510018-.68394 1.012262-.74064 1.102569-.35562.574733-.62514 1.190773a.10990681.10990682 0 0 0 .15331.140007l.48023-.263215q-.10571.219115-.25132.410927-1.7179 2.26464-3.14739 4.725993.12741-.438227.22261-.596437.68814-1.137571 1.26848-2.333945c.13371-.275117.32342-.567735.46833-.870154a.06440399.064404 0 0 0-.0651-.09171q-.0238.0021-.0721.0287-.0322.01749-.0567.0504c-.54184.721045-1.23208 1.459592-1.69971 2.097331q-1.6647 2.273041-2.83517 4.8436c-.0693.151911-.12601.349322-.20862.518732q-.098.200914-.14771.386424-.0644.240114-.15961.46973-.1127.270217-.21281.546733-.0665-.0287-.0931-.07911-.0203-.0399.001-.109207.35982-1.13057.78615-2.230337.1134-.183412.23801-.523632.0714-.195313.36752-.818351c.13651-.28702.11411-.728046.0959-.993362q-.13651-2.023126-.64334-3.985348-.0567-.219813-.10781-.442428-.006-.028.0196-.0406.0245-.01259.0329.0154.58943 1.869117.96396 3.790035l.084.637039a.02730169.02730169 0 0 0 .0511.0098l.60764-1.120767a.1064066.10500651 53.800174 0 0 .0105-.07141c-.56983-2.660843-.51173-5.480619-.0567-8.153384q.0105-.0616-.0497-.0455l-.0581.01611a.04550282.04550282 0 0 1-.0567-.0385q-.17781-1.530295-.042-2.975883.34722-3.017888 2.00492-5.564645-.0861.259715-.21771.504729-.21981.409525-.25412.485831-1.50299 3.353208-1.27198 7.038237a.02875509.02875509 0 0 0 .0574.0035c.23381-1.342684.61954-2.632864 1.17887-3.878242q.20581-.457827.37942-.882756l.23382-.437525a.03640226.03640226 0 0 1 .0679.0168c.00069.08961-.0651.190412-.0952.259715q-.50053 1.156472-.84776 2.373148-1.15857 3.659127-.86315 7.484163a.02660165.02660165 0 0 0 .049.01119l.87646-1.507193q.56143-.816952 1.24258-1.978324.99196-1.689204 1.46589-3.476417c.1344-.506129.29401-.886253.52223-1.311179q.0385-.07141.10151-.0336a.05110317.05110317 0 0 1 .0196.0644c-.14701.32272-.27792.63424-.36403.990563-.16801.692343-.32132 1.390986-.58943 2.035725-.64404 1.549898-1.5835 3.040989-2.45436 4.371772q-.46202.709845-.71054 1.521195-.0553.17921-.0315.376624.10781.906555.28772 1.790009a.03080191.03080191 0 0 0 .056.0105l.99896-1.570196 2.35985-3.270605q.53693-.563533.99406-1.225775c.29822-.30522.64544-.649642.78265-1.059166q.16031-.476729.22681-.97586c.18131-1.362986.0847-2.73857.0476-3.971346-.0798-2.630766.69305-5.15442 2.00073-7.475765q1.27128-2.255539 2.77777-4.36267.11411-.15961.26042-.0623l.007.113405q.002.0343-.0168.0637c-.90166 1.416889-1.76411 2.742772-2.60276 4.30947q-1.11167 2.078427-1.65631 4.371769-.19671.830953-.27371 2.026626-.0364.558636-.0182.914257a.03010187.03010187 0 0 0 .0553.01471l1.6661-2.61466c1.45819-2.159635 3.1348-4.431977 4.22406-6.614012q.78405-1.569498 1.29719-3.468016a.00789685.00789685 0 0 1 .0154.0035c-.0231.107106-.008.215614-.0315.31432q-.54603 2.305944-1.699 4.379473c-1.19218 2.144932-2.65457 4.131654-4.01825 6.168782z"/><path fill="#f3699c" d="m16.12205 26.9170954-.69795 1.031163q-.66784.880655-1.01926 1.921622c-.0966.285617-.16171.602736-.14771.879953q.008.147008.13651.279318a.06510404.06650413 28.699904 0 1 .0168.0602l-.22541 1.046564a.0371023.03640226 12.800055 0 1-.0448.028q-.24991-.063-.40812.028-.57964.332523-.82605.998964c-.13791.371022-.10851.98566.45922.909357.13791-.0182.40043-.205113.48303-.328322q.11481-.171511.29262-.298217l-1.6661 2.61466a.03010187.03010187 0 0 1-.0553-.01471q-.0182-.355621.0182-.914257.077-1.195673.27371-2.026626.54464-2.293342 1.65631-4.371769c.83865-1.566698 1.7011-2.892581 2.60276-4.30947q.0189-.0294.0168-.0637l-.007-.113405q.45573-.417227.93596-.715444a.07770482.07770482 0 0 1 .1057.109207q-.80225 1.211773-1.54779 2.452952-.26672.443828-.35213.795948z"/><path fill="#f79ab5" d="m15.4241 27.9482584.69795-1.031163q.96745-.984962 1.35248-1.527495.27232-.383625.69304-.406726.0399-.0021.0707.0245.24921.214212.1197.527132c-.1162.282818-.27931.585936-.39972.898154q-.67484 1.747309-1.71371 3.302106c-.29402.440328-.71334.901655-1.11237 1.169774-.1456.098-.57963.298918-.71824.120406q-.0203-.0259-.008-.0567.0791-.191111.17921-.558636.17991-.65664.82885-2.163132.0399-.09311.01-.29822zm3.10679 4.920608-.47743.450127c-.93735.609037-1.7305.109207-1.49949-1.009465.23382-1.130569.91566-2.032926 1.5149-2.979383q.24921-.392723.70844-1.206174.74764-1.325883 1.6927-2.522958c.22402-.282816.31222-.443127.62304-.474629q.0378-.0035.0637.02381.12671.135107.1274.278617c.005.865952-.1302 1.729806-.38082 2.594361q-.76095 2.625863-2.37245 4.845701z"/><path fill="#f35496" d="m33.51322 25.6094134-.16451.341622a.08960556.09170568 87.099989 0 1-.0357.0385q-.55933.322019-1.01646.767247-.24432.238017-.46343.399725-.31432.231716-.47393.392025-.32552.32622-.95416.866653-1.96922 1.691307-4.23526 3.945446-1.5408 1.533795-2.11903 2.137233c-.0987.103605-.23172.137908-.36123.181311 1.38329-2.24294 3.2615-4.136557 5.37354-5.698353q1.41549-1.045866 2.79457-2.141434.26042-.206513.72244-.522232c.13441-.0917.25202-.240115.40743-.32902q.12321-.0707.21981-.168011.13721-.139308.30592-.210714z"/><path fill="#cf2c6f" d="m16.62258 37.6725614-6.18909 7.280453-.48023.263215a.10990681.10990682 0 0 1-.15331-.140007q.26952-.61604.62514-1.190773.0567-.09031.74065-1.102569 1.6927-2.504755 2.48095-3.510018.69305-.884156.97866-1.321681 3.72423-4.284967 7.69558-8.34662.0539-.0553.1008-.112006.35283-.252715.60834-.559335l.54884-.542533.91005-.830953.94576-.890456q.20441-.0385.29752-.109206.45643-.347221.91846-.751145a.0532033.0532033 0 0 1 .0868.0546q-.014.0511-.0665.111308-.59294.675542-1.16487 1.368584c-.84356 1.021363-1.6255 1.871218-2.58666 2.931083q-3.07599 3.39171-6.17789 7.158644-.0518.0623-.119.239413z"/><path fill="#f3699c" d="M22.76056 27.1887114q.0518 1.09347-.32062 2.133732-.0189.0532-.0182.170112-.0469.0567-.1008.112006-3.97135 4.061653-7.69558 8.34662-.13021.09661-.23452.210711-.84355.928259-1.6374 1.848816a.04550282.04550282 0 0 1-.0784-.0392q.38432-1.784411 1.28038-3.348308-.0357.110607.008.177811.01.0154.0315.0042.0301-.01471.0259.0182l-.10571.809951a.06160382.06160382 0 0 0 .11061.0441l.19321-.259016q.0189-.02519.0476-.0371l.20302-.08121c.50613-.160308.96466-.889754 1.18097-1.344784q.0959-.201613.56773-.742046l1.71231-1.638101q.0238-.02241.0217-.0553-.004-.0714.1008-.200912l.47743-.450127q-.0315.0434.0574.0301.0287-.0042.0539-.0245c.72734-.577535 1.29088-1.086467 1.99722-1.797712q.42913-.432625.68745-.82465.66014-1.001062 1.05706-2.199537.12461-.375923.37663-.863854z"/><path fill="#f482a3" d="M4.54963 33.6046114c-.86316 2.302441-1.82012 4.554482-2.47746 6.929729q-.75744 2.737871-.81835 5.580748c-.009.410223-.0854 1.544994-.65454 1.45819-.76514-.116909-.59783-2.466255-.55093-2.980087q.28842-3.158596 1.42109-6.28219c.61673-1.701104 1.29928-3.2566 2.16803-4.770795q.73855-1.286679 1.44559-2.591562c.13091-.242213.45643-.0616.48233.136509q.0133.102907-.0735.287018-.51664 1.096967-.94226 2.23244z"/><path fill="#f3699c" d="M29.78969 34.0365384q-.52083.18061-1.32728.249214.61044-.466228 1.18587-.898856c.34232-.257614.64404-.563533.96956-.851252q.31502-.278617.54534-.549534.24991-.29472.49843-.594336a.08260512.08260513 0 0 1 .13231.007q.006.0098-.004.0574-.006.0266-.0238.0511-.91005 1.238377-1.97692 2.529258zm-21.53263-1.470792-.23382.261815q-.45783.355622-.55653.878555-.0812.429826.25551.66154a.10780668.10850673 22.099739 0 1 .0455.107807l-.20302 1.211075q-.17361.424929-.37942.882756c-.55933 1.245378-.94506 2.535558-1.17887 3.878241a.02875509.02875509 0 0 1-.0574-.0035q-.23101-3.68503 1.27198-7.038237.0343-.07631.25412-.485831.13161-.245015.21771-.50473c.10221-.09451.18621-.261117.30802-.301019.24082-.07841.26882.263216.25622.451528z"/><path fill="#f79ab5" d="m8.02324 32.8275614.23382-.261815c.23941-.171511.73854-.496332.99056-.424926.20441.0574.32062.280016.24361.478829q-.0357.09241-.20161.252714-.31292.30312-.46973.593638c-.25761.47743-.42772.913556-.96676.931058a.08050499.080505 0 0 1-.0819-.0938z"/><path fill="#f482a3" d="M26.84461 47.0685464c-.30172.223313-1.87822 1.312582-2.13303.64054-.077-.201613.0371-.378023.16451-.531334.31642-.380822.61254-.67624 1.02486-1.004562 2.69657-2.146334 5.17962-4.478179 7.38756-7.128542q2.11553-2.540458 2.78897-3.416914.63354-.825349 1.15787-1.689904a.14700911.14700912 0 0 1 .20022-.0504c.1197.0707.1267.14981.0644.272317q-1.21388 2.394148-1.6787 3.223702c-.73575 1.31328-1.73471 2.604161-2.75047 3.817334q-2.76238 3.302106-6.22619 5.867766z"/><path fill="#f3699c" d="M13.92881 34.2577514q.035.276516-.0147.725945-.0476.436126.0525 1.229977-.81065 1.166272-1.28038 2.620261-.009.0273-.0231.0392a.02450152.02450152 0 0 1-.0399-.0168q-.0819-.886256-.15961-1.755709-.0224-.249914.0238-.379423c.0588-.165211.21841-.30032.29122-.440327.35422-.686044.72174-1.380488 1.15017-2.023126zm15.41985.256916q-1.82501 2.146331-3.80053 3.966445a.0854053.08470526 30.700258 0 0 .0371.14491q.40533.102206.80435-.0434.0427-.0154.0721-.0056a.03990247.03990248 0 0 1 .0196.0602c-.22051.324821-.41092.601337-.73714.841451q-.75605.555837-1.5282 1.087168-.40252.277918-.97166.816951-.31502.298919-.66924.597837c-.30522.257617-.60344.548836-.90586.781249q-2.30594 1.770411-4.69029 3.2391-.95766.590138-2.17433 1.201275c.69864-1.715106 1.40639-3.003886 2.83867-4.161057q1.08437-.875054 1.93703-1.388886 3.18379-1.91602 6.30529-3.930745.0924-.0602.0385-.130207a.07350456.07350456 0 0 0-.0945-.01889q-3.72703 2.121831-7.35815 4.35147-.98917.606938-1.91042 1.531694c-.73715.740648-1.29298 1.561798-1.68711 2.501257q-.40322.96256-.87715 1.77741-.15611-.08051-.26952-.0154c-.37102.215615-.67624.385723-1.08017.547434-.47322.190413-.94015.397624-1.41968.571235q-.20442.07491-.40043.17081-.0294.014-.049.0399-.0707.0924-.11341-.0434 1.75781-3.092794 3.94475-5.891567.0112-.014.004-.0301l-.01-.02241a.02380147.02380148 0 0 0-.0399-.0063q-2.47815 2.815574-4.36267 6.055376-.11411.196011-.18481.229614-.68675.189013-1.29298.49073-.0539.0273-.0574-.0336c-.006-.133707.11411-.222612.16171-.302419q1.17468-1.96782 2.50406-3.834138c.30312-.426325.56073-.858252.83445-1.296479q.29962-.479531.63424-.965359.76935-1.118672 1.5478-2.233139.17571-.251317.38782-.423526c.64684-.525034 1.34058-.900256 2.08053-1.27548.49563-.252016 1.03046-.441727 1.5541-.649639q.42422-.169413.85055-.306621c1.88311-.607637 3.84114-1.204074 5.58844-2.032225q1.05287-.499131 2.19744-1.224378.004-.0028.24012-.112707.17711-.0826.17431-.273717z"/><path fill="#f35496" d="M27.42144 34.8667874q.003.191114-.17431.273717-.23591.109908-.24011.112707-1.14457.725247-2.19744 1.224378c-1.74731.828151-3.70533 1.424588-5.58844 2.032225q-.42633.137208-.85055.306621c-.52364.207912-1.05847.397623-1.5541.649639-.73995.375224-1.43369.750446-2.08053 1.27548q-.21211.172209-.38782.423526-.77845 1.114467-1.5478 2.233139-.33462.485828-.63424.965359c-.27372.438227-.53133.870154-.83445 1.296479q-1.32938 1.866318-2.50406 3.834138c-.0476.07981-.16801.168712-.16171.302419q.004.0609.0574.0336.60623-.301717 1.29298-.49073l-.29472.602739a.09590594.09800608 6.6999741 0 1-.0644.0518q-1.37348.344421-2.78127.50963a.04620286.04690291 14.79992 0 1-.0427-.0742l.0581-.07981.14351-.259715q1.42949-2.461353 3.1474-4.725993.14561-.191812.25131-.410927l6.18909-7.280453q.0651-.063.1386-.0637c1.25028-.01119 2.28845-.255516 3.63813-.64194q3.11939-.895356 5.66755-2.11763.0322-.0154.0602.007c.0833.0686.14981.105707.26461.0952q.52993-.0469 1.02976-.08471z"/><path fill="#f79ab5" d="M16.21865 35.2133094q-.47183.540433-.56774.742046c-.21631.45503-.67484 1.184476-1.18097 1.344784l-.18201-.01609q-.035-.0035-.0504-.0336c-.33812-.646141.89675-1.806112 1.29438-2.217039.28632-.295418.51523-.09871.68674.179912z"/><path fill="#e53f7d" d="M14.80456 47.2022534q-.31712.612539-.77914 1.26148a.0210013.02170135 5.9999846 0 0 .0259.0322q3.50512-1.561095 6.55871-3.886639 2.19603-1.671704 3.95244-3.799137.0819-.09941.14211-.0448a.0420026.04200261 0 0 1 .004.0581q-1.78301 2.141432-3.80053 4.013348c-.60554.562137-1.22438 1.071767-1.91322 1.557597q-4.98361 3.511418-11.00818 4.676291-.67414.130207-1.46379.211413c-.11201.01119-.12881.08051-.17081.163811q-.44663.886254-.81345 1.802612a.02660165.02730169 84.199982 0 0 .0399.0322q.38082-.249917.81975-.398325.63564-.214913 2.67557-.703545.004-.000794.78334-.16941 1.42459-.308018 2.69797-1.030463c.0714-.0406.17641-.14071.27442-.151209a.03360208.03360208 0 0 1 .021.0616q-.94296.586637-1.88872.981461-1.6878.704943-3.52822 1.14037c-.62444.147709-1.99232.665041-2.28984 1.28528q-.10641.221914-.15541.49213-.22541.518732-.36682 1.148073-.0112.049-.0483.0154l-.23382-.214214q.19181-.394124.31782-.81135.28562-.952059.70634-1.852317.61814-1.32098 1.35809-2.576859.0567-.0966.16941-.147709l-.0581.07981a.04620286.04690291 14.79992 0 0 .0427.0742q1.40779-.165209 2.78127-.50963a.09590594.09800608 6.6999741 0 0 .0644-.0518l.29472-.602739q.0707-.0336.18481-.229613 1.88452-3.239802 4.36267-6.055377a.02380147.02380148 0 0 1 .0399.0063l.01.02241q.007.01611-.004.0301-2.18693 2.798774-3.94474 5.891568-.19742.375922-.44033.732943-.0105.01611-.0119.0315-.001.02241.006.0357.0189.0301.0532.02101 1.21178-.330422 2.38855-.773549.24432-.09241.42003-.242914.54393-.468328.91635-1.075267.47393-.81485.87716-1.77741c.39412-.939458.94995-1.760609 1.6871-2.501257q.92126-.924756 1.91042-1.531694 3.63112-2.229638 7.35816-4.35147a.07350456.07350456 0 0 1 .0945.01889q.0539.07-.0385.130207-3.1215 2.014726-6.30529 3.930746-.85265.513831-1.93702 1.388885c-1.43229 1.157171-2.14003 2.445951-2.83868 4.161057z"/><path fill="#f3699c" d="M6.92347 37.8986774q.0287.266716.01.534133-.004.0686-.0469.128108a.09870612.10150629 60.699926 0 0-.0182.0616q.0147.377323-.0392.816251-.26602 2.166636.15681 4.448077l-.87646 1.507194a.02660165.02660165 0 0 1-.049-.01119q-.29542-3.825037.86315-7.484163z"/><path fill="#f3699c" d="M5.6879 37.9798834q-.13581 1.445588.042 2.975882a.04550282.04550282 0 0 0 .0567.0385l.0581-.01611q.0602-.01609.0497.0455c-.45503 2.672765-.51313 5.492541.0567 8.153405a.1064066.10500651 53.800174 0 1-.0105.07141l-.60763 1.120767a.02730169.02730169 0 0 1-.0511-.0098l-.084-.63704q.0497-.0063.0875-.0749.0231-.042.0182-.106408c-.0259-.35002.0217-.731543.004-1.044463q-.1155-2.136532-.40602-4.280067l.0504-.116205c.74205-1.065467.57194-2.334647.30522-3.554823-.021-.0945-.0665-.17921-.16241-.194612a.06440399.064404 0 0 1-.0532-.0728q.16241-1.066168.46203-2.102933.009-.0308.0322-.0525z"/><path fill="#f79ab5" d="M10.88432 42.1815434q-.45713.662242-.99406 1.225775-.12951-.0308-.28142.01961c-.78265.259717-1.04796-.429125-.91216-1.057765.0707-.328321.29262-.716145.51594-1.046565q.61953-.918456 1.16347-1.885217c.19741-.351422.63984-.856152 1.05636-.405326q.26112.282819.13441.713346-.1176.401826-.15331.820449-.0504.591537-.44732 1.266381c-.0574.098-.0637.238715-.0819.349321zm-5.93217 1.918819-.0504.116205q-.22401.289118-.37452.343723c-.77775.280017-.88136-.987761-.80085-1.437889.0378-.212113.0686-.411625.1267-.62444q.18552-.67764.30032-1.371383.0133-.08331.0966-.292619c.13091-.330422.18481-.543933.61044-.557935.15121-.0049.18271.06721.16171.204412q-.16591 1.069668-.17291 2.151933-.005.715447.1029 1.467993z"/><path fill="#f3699c" d="M6.92978 44.5497894q.056.115506-.07.207912a.07560469.07490464 71.800154 0 0-.0301.06021q.00069.09031-.0644.154009-.028.0273-.0336.0665c-.056.403926-.23451.986361.30942 1.152972.11201.035.22682-.01191.34932-.0154q.0392-.0013.0441.0378.0252.214913.008.286316-.0532.213514.0882.177813l-.99896 1.570197a.03080191.03080191 0 0 1-.056-.0105q-.17991-.883455-.28772-1.79001-.0238-.197413.0315-.376624.24852-.81135.71055-1.521195z"/><path fill="#cf2c6f" d="m7.03478 50.0899344-.14351.259715q-.1127.0511-.16941.147709-.73994 1.255879-1.35808 2.576859-.42073.900258-.70635 1.852316-.126.417227-.31782.81135l-.80295-.598537q.10011-.276516.21282-.546733.0952-.229616.15961-.46973.0497-.18551.14771-.386424c.0826-.169411.13931-.366821.20861-.518732q1.17047-2.570559 2.83518-4.8436c.46762-.637739 1.15787-1.376286 1.6997-2.097331q.0245-.0329.0567-.0504.0483-.0266.0721-.0287a.06440399.064404 0 0 1 .0651.09171c-.14491.302419-.33462.595037-.46833.870154q-.58033 1.196374-1.26847 2.333945-.0952.15821-.22262.596437z"/><path fill="#f35496" d="M13.99671 47.7342884q-.37242.606938-.91635 1.075266-.17571.150508-.42003.242914-1.17677.443127-2.38855.773549-.0343.0091-.0532-.02101-.008-.01331-.006-.0357.001-.0154.0119-.0315.24292-.357021.44033-.732943.0427.135808.1134.0434.0196-.0259.049-.0399.19601-.0959.40042-.17081c.47953-.173612.94646-.380823 1.41969-.571236.40393-.16171.70914-.331819 1.08017-.547433q.1134-.0651.26951.0154z"/><path fill="#f482a3" d="M2.25209 49.6846084c.34372.419325 1.01016 1.780209.52223 2.254139q-.22472.217014-.51803.112707c-.64824-.231013-.84216-1.655601-.82536-2.220537.006-.192513.10991-.33742.28002-.403225.23382-.09031.40323.08961.54114.256916z"/><path fill="#f79ab5" d="M26.6437 22.5593254c.0182-.688842.73854-1.487593 1.22717-1.983224q1.83762-1.864915 3.58703-3.812436.36752-.408825 1.13336-1.13127c.31363-.296119.57194-.620939.85196-.945059.21701-.250616.64334-.437527.87155-.09871q.13791.204413-.00079.462729c-.61464 1.147371-1.08437 2.235238-1.91112 3.372809q-1.23068 1.693405-2.92408 3.430212c-.61324.630039-1.14387 1.195676-1.97062 1.318882-.40673.0602-.87716-.142809-.86456-.613937zm-1.12147 3.114493c-.58104.09381-.80155-.637739-.60064-1.075968.19181-.417925.92056-1.173271 1.44279-1.038164.41163.106407.41793.529934.27932.861055-.20442.491429-.52434 1.155771-1.12147 1.253077zm-10.00572-1.815214c.43752.15611.27791.686044.0546.943661q-.42773.49563-.62794.905155-.49003 1.003162-1.00246 1.993024-.73015 1.410587-1.97062 3.298603c-.30592.464831-.82255 1.036066-1.40359 1.008764-.82395-.0385-.45433-1.45609-.22471-1.918819q.71614-1.43999 1.6101-2.773572c.82605-1.232077 1.6955-2.305243 2.86807-3.231401.18272-.14491.46623-.308018.69655-.225415zm-.99266 10.957082c-.49003-.591537.32551-1.43859.77774-1.815913.26112-.217715.78125-.403926.80295.130207.0105.261816-.47953.740646-.67484.954159-.19881.217715-.48233.795949-.84845.761648q-.035-.0028-.0574-.0301zm-6.76942 5.082315c-.49213.0308-.81765-.386424-.72175-.868053q.0294-.14701.12671-.375224c.64474-1.509993 1.75361-2.75327 2.70357-4.075653.20301-.282117.56913-.205814.67974.112007.0399.113405-.0448.434726-.10011.594336-.52713 1.514895-.98006 3.160696-2.09593 4.373171-.16031.174313-.35492.224015-.59223.239416zm-.38503 6.210784-.24291-1.495991q-.007-.0392.0182-.0707.39972-.501934.96956-.648941c.42283-.109207.49213.191111.45433.520832-.0798.687443-.49983 1.43229-1.12637 1.733307a.05180321.05110317 72.600101 0 1-.0728-.0385z"/></svg>