<svg xmlns="http://www.w3.org/2000/svg" xml:space="preserve" viewBox="0 0 264.58334 285.75"><path fill="#ee728e" d="M134.67025 59.221689q.045.314854-.2302.386292-.1376.03704-.1323.179916.3255 7.945438-.082 15.893522 0 .04762.042.0635.029.01323.074.01323-.2963.280458-.3466.574146-2.458 14.803437-3.8179 29.715355a.0555625.0555625 0 0 1-.1006.0238q-5.461-8.670394-10.9484-17.319623c-.471-.74348-1.7013-.05556-1.1272.859895q5.887 9.405938 11.7978 18.835688a.67997917.67733334 31.500247 0 1 .1032.42598q-1.2832 14.89339-1.5372 29.83971a.06085417.06085417 0 0 1-.1032.0423q-18.30918-17.4625-37.13163-34.36937-.36777-.33073-.8308-.10055a.71437499.71437502 0 0 0-.35983.87048q.082.23813.38894.48419.37306.30427.38894.3175 19.01825 17.12383 37.49408 34.81652a.41275.40745834 22.70006 0 1 .127.30163q-.1587 14.01233.6694 27.99821a.10847917.10847917 0 0 1-.172.0926c-7.6517-5.76263-15.6527-11.3374-23.96328-16.10783-8.39258-4.81807-16.87777-9.50913-24.65652-15.26382a.56885416.56885418 0 0 0-.80962.13494c-.39952.58738-.10848 1.04246.41804 1.42346 7.88988 5.70971 16.32744 10.40606 24.75706 15.24529 8.47722 4.86569 16.63702 10.6045 24.40252 16.51529a.3889375.39158334 16.699912 0 1 .1482.27782l.6694 9.51177q-.6271-.74348-1.1007-1.48961c-3.2411-5.08529-8.9773-7.97189-14.8352-8.34231-5.37632-.34131-9.73665 2.09815-12.23168 6.95854q-.27781.5424-.92339.48419a.65616666.65616668 0 0 1-.59267-.71173c.30427-3.39725-2.41564-6.05367-5.33664-7.21254q-6.04309-2.39713-12.07823.63235-.82286.41275-1.18269-.37571a.69849999.69850002 0 0 1 .29104-.89693c2.71992-1.55311 3.19352-5.03238 2.09286-7.73113-2.08228-5.10117-8.10948-5.67267-12.88257-5.2705q-.39687.0344-.6006-.0979c-.75142-.4789.28046-1.74625.51594-2.26748 2.56116-5.64621-.61648-12.05971-5.0165-15.7189-3.02948-2.52412-6.49288-4.39208-9.97479-6.15156a.71437499.71437502 0 0 1 .33866-1.35202q1.23031.0291 2.71463.17991c4.78102.48419 11.38237-1.13241 11.64695-7.05114.0291-.66675.75936-.86254 1.2065-.42069 3.50309 3.46604 10.69711 7.4639 15.748 5.30754 2.97657-1.27 3.4634-4.39208 2.413-7.22842-1.70127-4.59316-6.33677-9.74725-11.7475-8.87941-.95779.15346-1.4605-.61384-.66939-1.27529q3.90789-3.28084 3.09562-8.03805c-.6641-3.88408-3.54012-6.712474-6.84212-8.58837-.82021-.465667-.70644-1.156229.12435-1.471083q2.83369-1.0795 4.09575-3.804709c1.97379-4.249208.26194-9.236604-2.03993-12.991042q-.53975-.881062.3175-1.30175a.57943749.57943751 0 0 1 .762.238125c3.302 5.966355 10.2235 8.368771 16.54704 5.516563.79639-.359833 1.07156.293687 1.02393.965729q-.0635.862542-.10583 2.674938c-.0873 3.770312 1.47373 7.958667 4.85246 9.863667 2.94746 1.664229 6.79715 1.592791 9.01965-1.150938q1.41287-1.743604 1.90235-4.860396 1.12183-7.135813-3.45546-13.104813-.36248-.473604-.0661-.939271a.5953125.60060418 25.599905 0 1 .69056-.246062c3.55071 1.177396 8.4269.650875 10.8823-2.280709 2.2278-2.659062 1.1324-7.366.2593-10.559521q-.1773-.642937.3386-1.023937a.33602083.33072917 30.90006 0 1 .2487-.06085c1.6616.264583 3.1301.801687 4.8393.933979 6.6013.518583 7.3739-5.643563 7.313-10.546292-.01-.788458.2382-1.214438 1.0928-1.071563.4656.07673.6032.312209.6217.785813.1032 2.870729.1218 5.741458 1.5558 8.289396z"/><g fill="none" stroke-width="2"><path stroke="#ef7b96" d="M508.99 223.83q.17 1.19-.87 1.46-.52.14-.5.68 1.23 30.03-.31 60.07 0 .18.16.24.11.05.28.05" transform="matrix(.26458333 0 0 .26458334 -.00002 0)" vector-effect="non-scaling-stroke"/><path stroke="#bc4460" d="M507.75 286.33q-1.12 1.06-1.31 2.17-9.29 55.95-14.43 112.31a.21.21 0 0 1-.38.09q-20.64-32.77-41.38-65.46c-1.78-2.81-6.43-.21-4.26 3.25q22.25 35.55 44.59 71.19a2.57 2.56 31.5 0 1 .39 1.61q-4.85 56.29-5.81 112.78a.23.23 0 0 1-.39.16q-69.2-66-140.34-129.9-1.39-1.25-3.14-.38a2.7 2.7 0 0 0-1.36 3.29q.31.9 1.47 1.83 1.41 1.15 1.47 1.2 71.88 64.72 141.71 131.59a1.56 1.54 22.7 0 1 .48 1.14q-.6 52.96 2.53 105.82a.41.41 0 0 1-.65.35c-28.92-21.78-59.16-42.85-90.57-60.88-31.72-18.21-63.79-35.94-93.19-57.69a2.15 2.15 0 0 0-3.06.51c-1.51 2.22-.41 3.94 1.58 5.38 29.82 21.58 61.71 39.33 93.57 57.62 32.04 18.39 62.88 40.08 92.23 62.42a1.48 1.47-73.3 0 1 .56 1.05l2.53 35.95" transform="matrix(.26458333 0 0 .26458334 -.00002 0)" vector-effect="non-scaling-stroke"/><path stroke="#bc4c68" d="m499.62 688.77-3.54-46.95a1.03 1.01-18.3 0 1 .49-.95q93.62-56.78 189.54-109.61a2.54 2.54 0 0 0 1.24-2.8c-.71-2.96-3.03-2.55-5.16-1.38q-94.21 51.85-185.91 107.45-.63.38-.67-.36-2.75-52.41-2.25-104.89a1.31 1.3 73.7 0 1 .58-1.07q84.48-55.94 165.26-117.43c1.38-1.05 2.05-2.45 1.32-4.04q-1.23-2.7-3.65-.87-79.62 60.37-162.76 115.5a.38.38 0 0 1-.59-.32q.97-55.03 5.56-109.82.21-2.44 1.99-4.16c19.25-18.59 39.98-36.05 58.15-55.08 2.61-2.73-.65-6.82-3.73-3.7-17.56 17.76-36.36 34.16-54.76 51.06q-.41.38-.36-.18 5.01-52.86 13.61-105.25.6-3.61.31-4.88c-.62-2.73-3.84-3.81-6.54-2.71" transform="matrix(.26458333 0 0 .26458334 -.00002 0)" vector-effect="non-scaling-stroke"/></g><path fill="#ef839d" d="M134.67025 59.221689c2.6511 3.706813 6.5167 2.57175 10.1177 1.709208.6985-.169333 1.3732.06615 1.1377.92075q-.807 2.923646-1.0504 5.945188c-.5398 6.688667 7.1305 8.6995 12.11 6.998229.8704-.296333 1.1139.695855.6773 1.248834q-3.9714 5.050896-3.6645 11.533188.172 3.672416 2.0452 6.267979 1.3362 1.849437 3.9185 2.211917c3.728.52652 7.1332-1.545167 8.7233-4.881563 1.4341-3.000375 1.4261-5.519209 1.2039-8.773584-.048-.682625.3228-1.164166 1.0372-.849312 6.3076 2.794 12.9037.5715 16.4306-5.278438.7064-1.17475 1.8044-.103187 1.2276.844021q-1.6377 2.680229-2.5161 5.693834-.9605 3.304646.1772 6.532562 1.1536 3.267605 4.6355 4.664605c.6456.259291.4683.957791-.058 1.28852-2.794 1.751542-5.2334 3.71475-6.395 6.648983-1.3811 3.48721-.6535 7.6835 2.5321 9.93246q.463.32808.3651.94191a.59266666.59266668 0 0 1-.6852.48948q-3.9026-.67469-7.0009 1.83886c-2.6141 2.11931-5.125 5.54566-5.5377 8.97731-.4287 3.55864 2.1669 5.75733 5.5562 5.79437 4.7995.0503 9.4985-2.38918 12.8535-5.70441.6323-.62177 1.3626-.51859 1.4419.4445.4049 4.87098 5.0483 6.89768 9.3848 6.88975q3.0189-.008 4.9557-.24607.5-.0635.6667.59267c.1217.48683-.2408.80433-.6747 1.01336-6.3897 3.09297-13.5784 7.32895-15.2611 14.8537q-.9367 4.18836 1.1535 7.8105c.3705.64294.3784 1.47638-.5953 1.37584-4.6461-.48948-10.4272.17198-12.6947 4.86039-1.3414 2.77019-.9948 6.5458 1.9182 8.15975a.58472916.58208335 12.900104 0 1 .299.47625c.053.889-.6376 1.06627-1.3255.71702q-5.3076-2.67493-11.0834-.89693c-3.3946 1.0451-6.5485 3.82323-6.2283 7.57502a.60854166.61118751-9.39992 0 1-.4604.64558q-.6747.16669-.9446-.35719c-2.2622-4.42648-6.1912-6.93208-11.0939-7.15168-6.7972-.30163-13.5361 3.38402-17.8488 8.54339q-.019.0212-.7911.89429-.7753.87842-1.1377 1.82034l-.9367-12.42219a.26722917.27252083 71.699967 0 1 .1297-.25135q24.7703-15.02305 50.1491-29.00098a.67204166.67204168 0 0 0 .3281-.74084c-.1879-.78316-.8017-.67469-1.3653-.36512q-24.9264 13.71864-49.1887 28.42948-.1666.10054-.1772-.0952-.7276-13.86682-.5953-27.75215a.34660417.34395833 73.700076 0 1 .1534-.2831q22.352-14.8008 43.7251-31.07003c.3651-.27781.5424-.64822.3492-1.06891q-.3254-.71438-.9657-.23019-21.0661 15.9729-43.0636 30.55938a.10054167.10054167 0 0 1-.1561-.0847q.2566-14.56002 1.4711-29.05654.056-.64559.5265-1.10067c5.0932-4.9186 10.578-9.538229 15.3855-14.57325.6906-.722313-.172-1.804459-.9869-.978959-4.6461 4.699001-9.6202 9.038169-14.4886 13.509629q-.1084.10054-.095-.0476 1.3256-13.985874 3.601-27.847395.1587-.955146.082-1.291166c-.1641-.722313-1.016-1.008063-1.7304-.717021q-.045 0-.074-.01323-.042-.01587-.042-.0635.4075-7.948084.082-15.893522-.01-.142875.1323-.179916.2752-.07144.2302-.386292z"/><path fill="#891532" d="M132.19115 182.23707c.8546 10.89554 2.2727 21.55031 5.7599 32.01194.3308.99218-1.0292 1.52929-1.7198 1.03981q-.3757-.26723-.6164-1.00806c-3.3259-10.28436-4.8155-21.29896-5.6462-32.04634q-.019-.26458-.095-.6641-.074-.39423-.071-.66675l-.6694-9.51177a.3889375.39158334 16.699912 0 0-.1482-.27782c-7.7655-5.91079-15.9253-11.6496-24.40252-16.51529-8.42962-4.83923-16.86718-9.53558-24.75706-15.24529-.52652-.381-.81756-.83608-.41804-1.42346a.56885416.56885418 0 0 1 .80962-.13494c7.77875 5.75469 16.26394 10.44575 24.65652 15.26382 8.31058 4.77043 16.31158 10.3452 23.96328 16.10783a.10847917.10847917 0 0 0 .172-.0926q-.8281-13.98588-.6694-27.99821a.41275.40745834 22.70006 0 0-.127-.30163q-18.47583-17.69269-37.49408-34.81652-.0159-.0132-.38894-.3175-.30692-.24606-.38894-.48419a.71437499.71437502 0 0 1 .35983-.87048q.46303-.23018.8308.10055 18.82245 16.90687 37.13163 34.36937a.06085417.06085417 0 0 0 .1032-.0423q.254-14.94632 1.5372-29.83971a.67997917.67733334 31.500247 0 0-.1032-.42598q-5.9108-9.429751-11.7978-18.835689c-.5741-.915458.6562-1.603375 1.1272-.859895q5.4874 8.649229 10.9484 17.319624a.0555625.0555625 0 0 0 .1006-.0238q1.3599-14.911919 3.8179-29.715356.05-.293688.3466-.574146c.7144-.291042 1.5663-.0053 1.7304.717021q.077.33602-.082 1.291166-2.2754 13.861521-3.601 27.847395-.013.14817.095.0476c4.8684-4.47146 9.8425-8.810628 14.4886-13.509629.8149-.8255 1.6775.256646.9869.978959-4.8075 5.035021-10.2923 9.65465-15.3855 14.57325q-.471.45508-.5265 1.10067-1.2145 14.49652-1.4711 29.05654a.10054167.10054167 0 0 0 .1561.0847q21.9975-14.58648 43.0636-30.55938.6403-.48419.9657.23019c.1932.42069.016.7911-.3492 1.06891q-21.3731 16.26923-43.7251 31.07003a.34660417.34395833 73.700076 0 0-.1534.2831q-.1323 13.88533.5953 27.75215.011.19579.1772.0952 24.2623-14.71084 49.1887-28.42948c.5636-.30957 1.1774-.41804 1.3653.36512a.67204166.67204168 0 0 1-.3281.74084q-25.3788 13.97793-50.1491 29.00098a.26722917.27252083 71.699967 0 0-.1297.25135z"/><path fill="#fff" d="M91.08015 95.522523q-1.12978-2.360083-1.19328-3.182937c-.11377-1.50548 1.75419-1.94998 2.21192-.41275q2.18811 7.344833 9.45621 10.636254.5715.25929.29898 1.00541c-.41275 1.13507-1.2065 1.05304-2.159.59796q-5.80761-2.77812-8.61483-8.643937zm15.89087 4.725457c.4736-.283102.93133-.764644 1.48696-.677332.79639.124355 1.34673 1.124482.70908 1.799172q-1.19856 1.27-3.00566 1.41287c-.91546.0714-1.43669-1.12977-.89959-1.778.42863-.51329 1.14036-.4154 1.70921-.75671zm81.99333 46.58694a1.0503958 1.0503959 0 0 1-.6605 1.33059l-1.4694.49453a1.0503958 1.0503959 0 0 1-1.3306-.66051l-.041-.12036a1.0503958 1.0503959 0 0 1 .6605-1.33059l1.4694-.49453a1.0503958 1.0503959 0 0 1 1.3306.66051zm-15.9375 11.90185q2.6141-6.14362 8.3953-8.63335c.9048-.38894 2.4421 1.26735.6773 2.15106q-6.2521 3.13267-7.8819 10.05682c-.2408 1.03187-2.1273.72231-2.1246-.71967q0-.65881.9339-2.85486z"/></svg>