<svg xmlns="http://www.w3.org/2000/svg" xml:space="preserve" viewBox="0 0 119.06251 119.0625"><g fill="none" stroke-width="2"><path stroke="#ee7391" d="M241.98 87.13q-8.19 19.73-13.95 39.99-.02.06 0 .13l.08.24" transform="matrix(.26458333 0 0 .26458334 -.0001 0)" vector-effect="non-scaling-stroke"/><path stroke="#bb3c5b" d="M228.11 127.49q-1.95-1.42-2.83-.73a2.43.92-30.5 0 0-1.03 1.28l-3.2 15.57a.2.19 44.3 0 1-.38 0q-5.38-22.06-5.08-44.43.01-.86-.41-1.23-.63-.57-1.6-.01a1.48 1.48 0 0 0-.75 1.27q-.25 25.66 6.41 50.55c.22.82.43 1.44.29 2.35q-3.52 23.13-4.29 46.34a.27.26 26 0 1-.47.16q-18.37-22.53-26.46-50.39-.51-1.76-2.04-1.13a1.18 1.17 70.8 0 0-.68 1.41q8.64 30.34 29.1 54.26a1.4 1.38-65 0 1 .33.93q-.51 31.09 2.28 62.06a.39.38-73.4 0 1-.62.34c-22.54-18.01-38.41-43.48-50.38-69.38q-.92-1.99-2.13-1.11a1.49 1.48-30.5 0 0-.48 1.83c13.35 28.58 29.16 53.49 53.55 72.74q.45.35.49.91 1.39 18.41 4.58 36.6.11.59-.43.34-38.66-17.88-70.48-46.18-.69-.61-1.17-.79-1.19-.43-1.55.85a1.72 1.7 28.8 0 0 .52 1.76q33.08 29.31 73.27 47.74.48.22.61.73l5.4 21.43" transform="matrix(.26458333 0 0 .26458334 -.0001 0)" vector-effect="non-scaling-stroke"/><path stroke="#bd4b67" d="M233.22 335.62q-4.09-11.56-6.31-24.46a.63.63 0 0 1 .27-.63c27.7-18.9 50.71-44.48 72.57-69.64a1.12 1.12 0 0 0-.53-1.81q-1.08-.32-2.08.8c-21.48 24.16-43.41 48.78-70.03 67.42a.85.85 0 0 1-1.33-.59l-4.73-37.32a1.48 1.47 64.1 0 1 .42-1.23q32.8-32.95 53.75-74.47a1.54 1.53-57.7 0 0-.42-1.89q-1.15-.91-2.08.91-20.32 39.78-51.44 71.74a.2.2 0 0 1-.35-.12q-2.78-30.51-2.25-61.15a1.33 1.32 76 0 1 .68-1.14q29.7-16.32 49.21-44.08a1.1 1.1 0 0 0-.07-1.36q-.86-1-1.92-.37-.39.23-.85.88-18.24 25.74-46 41.65-.81.46-.78-.47.69-24.35 4.8-48.35.09-.55.56-.86 16.82-11.1 28.05-27.82c.56-.84.66-1.84-.29-2.38a1.33 1.33 0 0 0-1.76.43q-10.16 15.41-25.28 26a.3.3 0 0 1-.46-.3l3.54-17.52" transform="matrix(.26458333 0 0 .26458334 -.0001 0)" vector-effect="non-scaling-stroke"/></g><path fill="#eb6484" d="M64.0237742 23.05314641q-2.16693748 5.2202293-3.69093746 10.58068777-.00529167.015875 0 .03439584l.02116667.0635q-.5159375-.37570835-.74877083-.19314584a.6429375.24341667-30.50000126 0 0-.27252083.33866667l-.84666665 4.1195626a.05291667.05027083 44.30002112 0 1-.10054167 0q-1.42345831-5.83670847-1.34408332-11.75543779.00264584-.22754167-.10847916-.3254375-.1666875-.15081251-.42333333-.00264584a.39158333.39158334 0 0 0-.1984375.33602084q-.06614583 6.7892085 1.69597915 13.37468784c.05820833.21695834.11377083.381.07672916.62177085q-.93133332 6.11981265-1.13506248 12.26079197a.0714375.06879167 26.00002262 0 1-.12435417.04233334q-4.86039577-5.96106265-7.0008749-13.3323545-.1349375-.46566668-.53975-.29897918a.31220834.3095625 70.80007903 0 0-.17991667.37306251q2.28599998 8.02745854 7.6993749 14.35629203a.37041667.365125-65.00005765 0 1 .0873125.2460625q-.1349375 8.22589605.60325 16.42004208a.1031875.10054167-73.40002283 0 1-.16404167.08995834C51.3661077 65.637835 47.16717024 58.89889732 44.00010778 52.04618881q-.24341666-.52652085-.5635625-.2936875a.39422917.39158334-30.50014063 0 0-.127.4841875c3.53218746 7.56179186 7.71524991 14.15256286 14.16843733 19.24579216q.1190625.09260417.12964583.24077084.36777083 4.87097929 1.21179165 9.68375024.02910417.15610417-.11377083.08995834-10.22879154-4.73075012-18.6478331-12.21845864-.1825625-.16139584-.3095625-.20902084-.31485416-.11377084-.41010416.22489584a.45508333.44979167 28.80007817 0 0 .13758334.46566667q8.75241655 7.7549377 19.38602059 12.63120866.127.05820833.16139583.19314583l1.42874998 5.67002098q-1.91558331-1.59543754-2.77812497-2.00025005c-6.24681242-2.92100007-13.06512483-4.0243126-17.80910394-9.69433358-2.1298958-2.54529173-3.69622912-7.53268769.05291667-9.62818774 1.7092083-.95514586 3.34962495-.61383335 5.1726041-.07672917q.17727083.05291667.08202083-.1031875-3.57187495-5.78908348-3.51102079-12.44335448.01322917-1.39964587.650875-2.9474584c1.30174998-3.16441676 5.01649993-3.3020001 7.43479157-1.43668755a.05027083.047625 8.60000593 0 0 .07672916-.0555625q-1.91822914-5.3472293-1.44991665-11.04106278c.15610417-1.89706254 1.73037498-3.10091674 3.48985413-1.84414587q.14552083.1031875.13758333-.07408334-.25135417-5.41602097 2.53999997-10.14677109c1.25147915-2.12460422 3.24114579-4.24391677 5.7123541-4.52966678q2.14047913-.24870834 3.77031244.82020835z"/><path fill="#f0829d" d="M64.0237742 23.05314641c2.68287496 1.65629171 3.91847911 4.39208345 4.12220827 7.53004186q.26722917 4.12220844-.56356249 8.1756252-.03439583.17727084.12435417.09525 2.6617083-1.34143752 4.41324994.7434792c1.37847915 1.63777087.17727083 3.9766876-1.06097915 5.25462513q-.14816667.1508125.0635.13229167 2.0425833-.174625 3.57452079.55562501c3.20145829 1.52664587 3.63802078 5.53508347 1.77799997 8.37935438q-1.80710414 2.75960423-4.74927077 5.25727096-.238125.20372918.06614583.12964584c.59002083-.142875 1.23560415-.333375 1.72243748-.40745834 4.01902078-.60325002 7.20195824 2.03200005 7.76816657 5.99281265.6746875 4.73604178-1.98966664 9.59908357-5.5218541 12.65766698-3.44752079 2.98714591-7.69408323 5.18318763-11.07810402 7.63322936q-2.02406248 1.4657917-2.97656247 3.61685426-1.08214582-3.05858341-1.66952081-6.4717085a.1666875.1666875 0 0 1 .0714375-.1666875c7.32895824-5.00062513 13.41702066-11.76866696 19.20081226-18.4255838a.29633333.29633334 0 0 0-.14022917-.47889584q-.28575-.08466667-.55033332.21166667c-5.68324993 6.3923335-11.48556236 12.90637532-18.5287706 17.83820878a.22489583.22489584 0 0 1-.35189583-.15610417l-1.25147915-9.87425025a.39158334.3889375 64.1001255 0 1 .111125-.3254375q8.67833322-8.71802106 14.22135398-19.70352134a.40745834.4048125-57.70015014 0 0-.111125-.5000625q-.30427083-.24077085-.55033332.24077083-5.37633327 10.52512527-13.6101665 18.98120881a.05291667.05291667 0 0 1-.09260416-.03175q-.73554166-8.0724377-.5953125-16.17927124a.35189584.34925 76.00006735 0 1 .17991667-.301625q7.8581249-4.31800012 13.02014567-11.66283363a.29104166.29104167 0 0 0-.01852083-.35983335q-.22754167-.26458334-.508-.09789583-.1031875.06085417-.22489583.23283334-4.82599994 6.81037517-12.17083318 11.0198961-.2143125.12170834-.206375-.12435416.1825625-6.44260433 1.26999999-12.79260449.0238125-.14552084.14816666-.22754167 4.45029161-2.93687508 7.4215624-7.36070852c.14816667-.22225.174625-.48683335-.07672916-.62970835a.35189583.35189584 0 0 0-.46566666.11377084q-2.68816663 4.07722926-6.68866658 6.87916684a.079375.079375 0 0 1-.12170833-.079375l.93662499-4.63550012-.02116667-.0635q-.00529167-.01852084 0-.03439584 1.52399998-5.36045847 3.69093745-10.58068777z"/><path fill="#8a1431" d="m60.3540034 33.73173002-.93662498 4.63550011a.079375.079375 0 0 0 .12170833.079375q4.00049995-2.80193757 6.68866658-6.87916683a.35189583.35189584 0 0 1 .46566666-.11377084c.25135417.142875.22489583.40745834.07672917.62970835q-2.9712708 4.42383344-7.4215624 7.36070852-.12435417.08202083-.14816667.22754167-1.08743749 6.35000016-1.26999999 12.79260449-.0079375.2460625.206375.12435417 7.34483324-4.20952094 12.17083318-11.01989611.12170833-.17197917.22489583-.23283334.28045833-.1666875.508.09789583a.29104166.29104167 0 0 1 .01852083.35983335Q65.89702417 49.1384179 58.03889927 53.456418a.35189584.34925 76.00006735 0 0-.17991667.30162501q-.14022916 8.10683354.5953125 16.17927124a.05291667.05291667 0 0 0 .09260416.03175q8.23383323-8.45608354 13.6101665-18.9812088.2460625-.48154169.55033332-.24077085a.40745834.4048125-57.70015014 0 1 .111125.50006251Q67.27550332 62.2326474 58.5971701 70.95066845a.39158334.3889375 64.1001255 0 0-.111125.32543751l1.25147915 9.87425025a.22489583.22489584 0 0 0 .35189583.15610417c7.04320824-4.93183346 12.84552067-11.44587529 18.5287706-17.83820878q.26458333-.29633334.55033332-.21166667a.29633333.29633334 0 0 1 .14022917.47889584c-5.7837916 6.65691684-11.87185402 13.42495867-19.20081226 18.4255838a.1666875.1666875 0 0 0-.0714375.1666875q.587375 3.41312509 1.66952081 6.4717085 1.52929165 4.35504178 3.81264579 7.9454377a.30691667.30427083 55.30011706 0 1-.07408333.40745834c-.38629167.29897918-.68527083.25400001-.9525-.16933333q-2.5982083-4.13808344-4.04018744-8.72860439l-1.42874998-5.67002098q-.03439584-.1349375-.16139583-.19314583-10.63360404-4.87627096-19.3860206-12.63120866a.45508333.44979167 28.80007817 0 1-.13758333-.46566667q.09525-.33866668.41010417-.22489584.127.047625.3095625.20902084 8.41904155 7.48770852 18.64783309 12.21845864.142875.06614583.11377083-.08995834-.84402082-4.81277095-1.21179165-9.68375024-.01058333-.14816667-.12964583-.24077084c-6.45318742-5.0932293-10.63624987-11.6840003-14.16843732-19.24579215a.39422917.39158334-30.50014063 0 1 .127-.48418752q.32014583-.23283334.56356249.29368751c3.16706246 6.8527085 7.3659999 13.59164618 13.32970816 18.35679213a.1031875.10054167-73.40002283 0 0 .16404167-.08995833q-.7381875-8.19414604-.60325-16.42004209a.37041667.365125-65.00005765 0 0-.0873125-.2460625q-5.41337492-6.3288335-7.6993749-14.35629203a.31220834.3095625 70.80007903 0 1 .17991667-.3730625q.4048125-.16668751.53975.29897916 2.14047913 7.37129186 7.0008749 13.3323545a.0714375.06879167 26.00002262 0 0 .12435417-.04233333q.20372916-6.14097932 1.13506248-12.26079197c.03704167-.24077084-.01852083-.40481251-.07672916-.62177085q-1.76212498-6.58547933-1.69597915-13.37468784a.39158333.39158334 0 0 1 .1984375-.33602084q.25664583-.14816667.42333333.00264583.111125.09789584.10847916.32543751-.079375 5.91872932 1.34408332 11.7554378a.05291667.05027083 44.30002112 0 0 .10054167 0l.84666665-4.1195626a.6429375.24341667-30.50000126 0 1 .27252083-.33866668q.23283333-.1825625.74877083.19314584z"/></svg>