<svg xmlns="http://www.w3.org/2000/svg" xml:space="preserve" viewBox="0 0 264.58 285.75"><path fill="#ee728e" d="M134.67 59.22q.05.32-.23.39-.14.04-.13.18.32 7.94-.08 15.9 0 .04.04.05.03.02.07.02-.3.28-.34.57-2.46 14.8-3.82 29.72a.06.06 0 0 1-.1.02q-5.46-8.67-10.95-17.32c-.47-.74-1.7-.05-1.13.86l11.8 18.84a.68.68 31.5 0 1 .1.42q-1.28 14.9-1.54 29.84a.06.06 0 0 1-.1.05q-18.3-17.47-37.13-34.37-.37-.33-.83-.1a.71.71 0 0 0-.36.87q.08.23.39.48l.39.32q19.02 17.12 37.5 34.81a.41.4 22.7 0 1 .12.3q-.16 14.02.67 28a.1.1 0 0 1-.17.1 233.55 233.55 0 0 0-23.97-16.11c-8.39-4.82-16.88-9.51-24.65-15.27a.57.57 0 0 0-.81.14c-.4.59-.11 1.04.41 1.42 7.9 5.71 16.33 10.4 24.76 15.25 8.48 4.86 16.64 10.6 24.4 16.51a.39.4 16.7 0 1 .15.28l.67 9.51q-.63-.74-1.1-1.49c-3.24-5.08-8.98-7.97-14.83-8.34-5.38-.34-9.74 2.1-12.24 6.96q-.27.54-.92.48a.66.66 0 0 1-.6-.7c.31-3.4-2.4-6.06-5.33-7.22q-6.04-2.4-12.08.63-.82.42-1.18-.37a.7.7 0 0 1 .3-.9c2.71-1.55 3.18-5.03 2.08-7.73-2.08-5.1-8.1-5.67-12.88-5.27q-.4.03-.6-.1c-.75-.48.28-1.75.52-2.27 2.56-5.64-.62-12.06-5.02-15.72-3.03-2.52-6.5-4.39-9.97-6.15a.71.71 0 0 1 .33-1.35q1.23.03 2.72.18c4.78.48 11.38-1.13 11.65-7.05.03-.67.76-.86 1.2-.42 3.5 3.46 10.7 7.46 15.75 5.3 2.98-1.26 3.46-4.39 2.41-7.22-1.7-4.6-6.33-9.75-11.74-8.88-.96.15-1.46-.62-.67-1.28q3.9-3.28 3.1-8.04c-.67-3.88-3.55-6.7-6.85-8.58-.82-.47-.7-1.16.12-1.47q2.84-1.08 4.1-3.8c1.97-4.26.26-9.25-2.04-13q-.54-.88.32-1.3a.58.58 0 0 1 .76.24 12.63 12.63 0 0 0 16.55 5.51c.8-.36 1.07.3 1.02.97q-.06.86-.1 2.67c-.1 3.77 1.47 7.96 4.85 9.87 2.94 1.66 6.8 1.59 9.02-1.15q1.41-1.75 1.9-4.86 1.12-7.14-3.46-13.1-.36-.48-.06-.95a.6.6 25.6 0 1 .69-.24c3.55 1.17 8.43.65 10.88-2.29 2.23-2.65 1.13-7.36.26-10.55q-.18-.65.34-1.03a.34.33 30.9 0 1 .25-.06c1.66.26 3.13.8 4.84.93 6.6.52 7.37-5.64 7.31-10.54-.01-.79.24-1.22 1.1-1.07.46.07.6.3.61.78.1 2.87.13 5.74 1.56 8.3z"/><g fill="none" stroke-width="2"><path stroke="#ef7b96" d="M508.99 223.83q.17 1.19-.87 1.46-.52.14-.5.68 1.23 30.03-.31 60.07 0 .18.16.24.11.05.28.05" transform="scale(.26458333 .26458334)" vector-effect="non-scaling-stroke"/><path stroke="#bc4460" d="M507.75 286.33q-1.12 1.06-1.31 2.17-9.29 55.95-14.43 112.31a.21.21 0 0 1-.38.09q-20.64-32.77-41.38-65.46c-1.78-2.81-6.43-.21-4.26 3.25q22.25 35.55 44.59 71.19a2.57 2.56 31.5 0 1 .39 1.61q-4.85 56.29-5.81 112.78a.23.23 0 0 1-.39.16q-69.2-66-140.34-129.9-1.39-1.25-3.14-.38a2.7 2.7 0 0 0-1.36 3.29q.31.9 1.47 1.83l1.47 1.2q71.88 64.72 141.71 131.59a1.56 1.54 22.7 0 1 .48 1.14q-.6 52.96 2.53 105.82a.41.41 0 0 1-.65.35c-28.92-21.78-59.16-42.85-90.57-60.88-31.72-18.21-63.79-35.94-93.19-57.69a2.15 2.15 0 0 0-3.06.51c-1.51 2.22-.41 3.94 1.58 5.38 29.82 21.58 61.71 39.33 93.57 57.62 32.04 18.39 62.88 40.08 92.23 62.42a1.48 1.47-73.3 0 1 .56 1.05l2.53 35.95" transform="scale(.26458333 .26458334)" vector-effect="non-scaling-stroke"/><path stroke="#bc4c68" d="m499.62 688.77-3.54-46.95a1.03 1.01-18.3 0 1 .49-.95q93.62-56.78 189.54-109.61a2.54 2.54 0 0 0 1.24-2.8c-.71-2.96-3.03-2.55-5.16-1.38q-94.21 51.85-185.91 107.45-.63.38-.67-.36-2.75-52.41-2.25-104.89a1.31 1.3 73.7 0 1 .58-1.07q84.48-55.94 165.26-117.43c1.38-1.05 2.05-2.45 1.32-4.04q-1.23-2.7-3.65-.87-79.62 60.37-162.76 115.5a.38.38 0 0 1-.59-.32q.97-55.03 5.56-109.82.21-2.44 1.99-4.16c19.25-18.59 39.98-36.05 58.15-55.08 2.61-2.73-.65-6.82-3.73-3.7-17.56 17.76-36.36 34.16-54.76 51.06q-.41.38-.36-.18 5.01-52.86 13.61-105.25.6-3.61.31-4.88c-.62-2.73-3.84-3.81-6.54-2.71" transform="scale(.26458333 .26458334)" vector-effect="non-scaling-stroke"/></g><path fill="#ef839d" d="M134.67 59.22c2.65 3.7 6.52 2.57 10.12 1.71.7-.17 1.37.07 1.14.92q-.81 2.93-1.05 5.95c-.54 6.69 7.13 8.7 12.1 7 .88-.3 1.12.7.68 1.24Q153.7 81.1 154 87.58q.17 3.67 2.04 6.27 1.34 1.84 3.92 2.2a8.37 8.37 0 0 0 8.73-4.87c1.43-3 1.42-5.52 1.2-8.78-.05-.68.32-1.16 1.04-.85 6.3 2.8 12.9.57 16.43-5.28.7-1.17 1.8-.1 1.22.85q-1.63 2.68-2.51 5.7-.96 3.3.18 6.52 1.15 3.27 4.63 4.67c.65.26.47.96-.06 1.29-2.8 1.75-5.23 3.71-6.4 6.65-1.37 3.48-.65 7.68 2.54 9.93q.46.33.37.94a.6.6 0 0 1-.69.49q-3.9-.67-7 1.84c-2.62 2.12-5.13 5.54-5.54 8.98-.43 3.56 2.17 5.75 5.56 5.8 4.8.04 9.5-2.4 12.85-5.71.63-.63 1.36-.52 1.44.44.4 4.87 5.05 6.9 9.39 6.9q3.02-.02 4.95-.26.5-.06.67.6c.12.48-.24.8-.67 1.01-6.4 3.1-13.58 7.33-15.27 14.85q-.93 4.2 1.16 7.82c.37.64.38 1.47-.6 1.37-4.64-.49-10.42.17-12.7 4.86-1.33 2.77-.99 6.55 1.93 8.16a.58.58 12.9 0 1 .3.48c.05.89-.64 1.06-1.33.71q-5.3-2.67-11.08-.9c-3.4 1.05-6.55 3.83-6.23 7.58a.6.61-9.4 0 1-.46.65q-.68.16-.95-.36a12.62 12.62 0 0 0-11.1-7.15c-6.79-.3-13.53 3.38-17.84 8.54l-.8.9q-.77.88-1.13 1.82l-.94-12.43a.27.27 71.7 0 1 .13-.25q24.77-15.02 50.15-29a.67.67 0 0 0 .33-.74c-.19-.78-.8-.67-1.36-.36q-24.93 13.72-49.2 28.43-.16.1-.17-.1-.73-13.87-.6-27.75a.35.34 73.7 0 1 .16-.28q22.35-14.8 43.72-31.07c.37-.28.55-.65.35-1.07q-.32-.72-.96-.23-21.07 15.97-43.07 30.56a.1.1 0 0 1-.15-.09q.25-14.56 1.47-29.06.05-.64.52-1.1c5.1-4.91 10.58-9.53 15.39-14.57.7-.72-.17-1.8-.99-.98-4.64 4.7-9.62 9.04-14.49 13.51q-.1.1-.09-.05 1.33-13.98 3.6-27.84.16-.96.08-1.3c-.16-.72-1.01-1-1.73-.71q-.04 0-.07-.02-.04-.01-.04-.06.4-7.95.08-15.9-.01-.13.13-.17.28-.07.23-.39z"/><path fill="#891532" d="M132.2 182.24c.85 10.9 2.26 21.55 5.75 32 .33 1-1.03 1.54-1.72 1.05q-.37-.27-.62-1c-3.32-10.3-4.81-21.3-5.64-32.06q-.02-.26-.1-.66-.07-.4-.07-.67l-.67-9.5a.39.4 16.7 0 0-.14-.29c-7.77-5.9-15.93-11.65-24.4-16.51-8.44-4.84-16.87-9.54-24.76-15.25-.53-.38-.82-.83-.42-1.42a.57.57 0 0 1 .8-.14c7.79 5.76 16.27 10.45 24.66 15.27a233.55 233.55 0 0 1 23.97 16.1.1.1 0 0 0 .17-.09q-.83-13.98-.67-28a.41.4 22.7 0 0-.13-.3q-18.47-17.69-37.5-34.81 0-.02-.38-.32-.3-.25-.39-.48a.71.71 0 0 1 .36-.87q.46-.23.83.1 18.82 16.9 37.13 34.37a.06.06 0 0 0 .1-.05q.26-14.94 1.54-29.84a.68.68 31.5 0 0-.1-.42L118 89.6c-.57-.91.66-1.6 1.13-.86q5.49 8.65 10.95 17.32a.06.06 0 0 0 .1-.02q1.36-14.91 3.82-29.72.05-.3.34-.57c.72-.3 1.57 0 1.73.72q.08.33-.08 1.29-2.27 13.86-3.6 27.84-.01.15.1.05c4.86-4.47 9.84-8.8 14.48-13.5.82-.83 1.68.25 1 .97-4.82 5.04-10.3 9.66-15.4 14.57q-.47.46-.52 1.1-1.22 14.5-1.47 29.06a.1.1 0 0 0 .15.09q22-14.6 43.07-30.56.64-.49.96.23c.2.42.02.79-.35 1.07q-21.37 16.26-43.72 31.07a.35.34 73.7 0 0-.15.28q-.14 13.88.6 27.75 0 .2.17.1 24.26-14.71 49.19-28.43c.56-.31 1.17-.42 1.36.36a.67.67 0 0 1-.33.74q-25.38 13.98-50.15 29a.27.27 71.7 0 0-.13.25z"/><path fill="#fff" d="M91.08 95.52q-1.13-2.36-1.2-3.18c-.1-1.5 1.76-1.95 2.22-.41q2.19 7.34 9.46 10.63.57.26.3 1c-.42 1.14-1.21 1.06-2.17.6q-5.8-2.77-8.61-8.64zm15.9 4.73c.46-.29.92-.77 1.48-.68.8.13 1.34 1.13.7 1.8q-1.2 1.27-3 1.41c-.91.07-1.44-1.13-.9-1.78.43-.5 1.14-.41 1.71-.75zm81.98 46.58a1.05 1.05 0 0 1-.66 1.34l-1.47.49a1.05 1.05 0 0 1-1.33-.66l-.04-.12a1.05 1.05 0 0 1 .66-1.33l1.47-.5a1.05 1.05 0 0 1 1.33.66zm-15.93 11.9q2.61-6.14 8.4-8.63c.9-.39 2.43 1.27.67 2.15q-6.25 3.14-7.88 10.06c-.24 1.03-2.13.72-2.13-.72q0-.66.94-2.85z"/></svg>