<svg xmlns="http://www.w3.org/2000/svg" xml:space="preserve" viewBox="0 0 185.20836 224.71944"><defs><clipPath id="a" clipPathUnits="userSpaceOnUse"/></defs><path fill="none" stroke="#8ad5b6" stroke-miterlimit="10" stroke-width=".03527778" d="M110.81769045 50.40135833c-.02469445-6.18772261-1.33702786-12.24844522-3.93347247-18.18216781"/><path fill="none" stroke="#90e7bb" stroke-miterlimit="10" stroke-width=".03527778" d="M106.88421798 32.21919052c-3.22086131-8.05744496-8.00452828-16.0831399-12.74586191-23.22336258-1.42522232-2.14488902-3.70769468-3.1432502-5.39750034-.73377782-5.6444448 8.03980606-11.13366737 17.30375109-14.65086204 26.73702946"/><path fill="none" stroke="#8ad5b6" stroke-miterlimit="10" stroke-width=".03527778" d="M74.0899937 34.99907958c-1.33702787 3.6406669-2.20838904 7.1366949-2.62113906 10.49161177-.72672227 5.96194482.37041669 15.5222232 4.80130586 20.24239017.07761111.08466667.00705555.21872223-.10583334.20461112l-2.66700017-.33513891"/><path fill="none" stroke="#8ad5b6" stroke-miterlimit="10" stroke-width=".03527778" d="M70.61160458 64.58655367c-5.12233365-1.86266679-10.37166732-3.28436132-15.75152877-4.26155583-1.7145001-.31044446-3.39019465-.08819445-3.86644468 1.74272233-.26811113 1.03716674-.48683337 2.97391686-.65263893 5.81377815"/><path fill="none" stroke="#36c279" stroke-miterlimit="10" stroke-width=".03527778" d="M106.88421798 32.21919052c-.41980558-.23283335-.98072228-.10583334-1.68980566.3845278-.23283335.16227779-.82550005.45155558-1.7815279.86783339-.08113889.03527778-.12347222.09877778-.11994444.18697223 0 .03175 0 .06702778-.00352778.10230556-.01058334.0811389-.05291667.12700001-.13405557.1446389l-2.0849168.4480278c-.08819444.0176389-.13405556.07408334-.14111111.1622778l-.0176389.1905c-.00705555.08819446-.11641667.12700001-.17991667.06702779l-.30338891-.28222224c-.05644445-.05291667-.1446389 0-.12347223.07408334l.05644445.21166668c.03527778.12347223-.01058334.20108334-.13758334.22577779l-.86077784.1763889"/><path fill="none" stroke="#78e1ae" stroke-miterlimit="10" stroke-width=".03527778" d="m99.36299528 35.17899626-7.98336161-15.72683433c-.08819445-.1763889-.33866669-.17991667-.4339167-.00705555-2.74813906 4.90361142-5.30225033 9.8777784-7.65880603 14.92250094-.30338891.64558337-.58208337 1.34055564-.83255561 2.0849168"/><path fill="none" stroke="#36c279" stroke-miterlimit="10" stroke-width=".03527778" d="M82.45435533 36.45252412c-.06702778-.12347223-.09172223-.28575002-.07761112-.48330559.01058334-.1128889-.04233333-.15875001-.15169445-.13405556-.22930557.04586111-.4021667.04938889-.51505559.01058333-1.27705563-.47625003-2.2754168-.70908338-2.99508352-.69850004-1.39347231.02469444-2.36713904-.06702779-2.91394463-.27516669-.65969448-.25047224-1.23119452-.2081389-1.71097233.12700001"/><path fill="none" stroke="#72cfa9" stroke-miterlimit="10" stroke-width=".03527778" d="M99.36299528 35.17899626c.51152781.8325556.59972226 1.42169453.26105558 1.763889-2.92452797 2.98802796-5.67972258 6.11363927-8.26205608 9.37683392-.07761112.09877779-.15522223.09877779-.23636113.00352778-2.7587224-3.39725021-5.64797257-6.68866709-8.67127832-9.87072284"/><path fill="none" stroke="#87d4b3" stroke-miterlimit="10" stroke-width=".03527778" d="M50.3409922 67.88149832c-.15875001 4.11338915.04586111 7.94102828 1.36877786 11.77219518"/><path fill="none" stroke="#80c4ac" stroke-miterlimit="10" stroke-width=".03527778" d="M51.70977006 79.6536935c3.59480578 9.51441727 11.96622298 12.98575082 21.09611244 15.54691765 3.63713912 1.01952784 7.05908378 2.49766682 10.27288954 4.43794472"/><path fill="none" stroke="#7ab2a3" stroke-miterlimit="10" stroke-width=".03527778" d="m83.07877204 99.63855587 4.04283358 2.69169462c.08819445.05644445.14111112.15522223.14111112.2575278l.02822223 19.10997342c0 .13758334-.04586112.15522223-.14111112.05997222-4.92125031-5.02002809-10.31875065-9.43327837-16.18897324-13.23975083"/><path fill="none" stroke="#80c4ac" stroke-miterlimit="10" stroke-width=".03527778" d="M70.9608546 108.5179731c-6.1559726-3.94758358-12.74233413-7.55650048-19.75202902-10.8232229-10.05063952-4.68841697-20.57752907-6.97794489-31.58066865-6.87211155-3.45369466.03175-2.77283351 3.29847243-2.53647238 5.55625035.81138894 7.70113938 2.5823335 14.69319537 6.78038931 21.11022355"/><path fill="none" stroke="#7ab2a3" stroke-miterlimit="10" stroke-width=".03527778" d="M23.87207386 117.48911255c4.89655587 7.8740005 11.62402851 13.31383418 20.17889016 16.31950103 4.34975028 1.52752788 9.69433395.92075006 13.94177866 1.2841112 3.85233357.32808335 7.66233381 1.48872231 11.43000072 3.4783891"/><path fill="none" stroke="#77a99e" stroke-miterlimit="10" stroke-width=".03527778" d="M69.4227434 138.57111388c6.66397264 3.75708357 12.24844521 9.52147282 16.7569455 15.75152877"/><path fill="none" stroke="#73a19a" stroke-miterlimit="10" stroke-width=".03527778" d="M86.1796889 154.32264265c.76552782.92075006 1.14300007 1.68627789 1.1394723 2.29658348-.03175001 5.0835281-.05997223 10.3751951-.08466668 15.86794544"/><path fill="none" stroke="#a7dacd" stroke-miterlimit="10" stroke-width=".03527778" d="M87.23449452 172.48717157c-2.36713904-3.15030575-5.09411143-5.84200036-8.18091718-8.07508384"/><path fill="none" stroke="#77a99e" stroke-miterlimit="10" stroke-width=".03527778" d="M79.05357734 164.41208773c-.02469445-1.18180563-.00705556-2.42358348.04586111-3.73238912.11994445-2.73755573.02469445-4.45558362-1.80975011-6.1912504-.7231945-.68086115-1.57338899-1.07950006-2.55411127-1.18886118-3.95463914-.4480278-4.26861138 3.496028-3.98286137 6.41702818"/><path fill="none" stroke="#b5e9db" stroke-miterlimit="10" stroke-width=".03527778" d="M70.7527157 159.71661521c-.05644444.16933335-.14111112.26811113-.25047223.29633336-.07408334.01763889-.17286113-.0176389-.29633336-.10936112-3.36197243-2.45886127-7.150806-4.35327805-11.36650071-5.67972258"/><path fill="none" stroke="#77a99e" stroke-miterlimit="10" stroke-width=".03527778" d="M58.8394094 154.22386487c1.70391677-.89252784 2.54352794-2.24013903 2.52588905-4.03930581-.02822223-3.0621113-1.36877787-3.5771669-4.19100027-4.07105581-6.6216393-1.15711119-13.2291675-2.36008349-19.82611236-3.61244468-2.4518057-.4656667-3.65830578.47272226-3.61950023 2.81869463.0811389 4.72369474.89252784 9.66611172 2.43416682 14.82725093 1.25588897 4.19452804 3.45369467 8.28675052 6.59341709 12.27313966"/><path fill="none" stroke="#73a19a" stroke-miterlimit="10" stroke-width=".03527778" d="M42.7562695 172.4201438c4.7307503 6.07130593 10.773834 10.44575065 18.12925114 13.1303897 3.07622241 1.12183341 5.53508368 2.01436125 7.37305602 2.68111129 6.60047264 2.3883057 12.6823619 5.27050033 18.6972234 8.87941722.20108334.12347223.32455557.34219447.32455557.57502782-.01058333 4.7307503-.04233333 9.53558393-.09172222 14.40744535-.02469445 2.28247237.03527778 4.82247253 2.42358348 5.79261148 2.0214168.82197227 4.40266695-.05291667 5.36575034-2.01436124.33513891-.67733338.50447225-1.75683345.51505559-3.2385002.07761111-10.85144513.09877778-21.70289026.0635-32.55433539-.00352778-1.08655562.10583334-1.83091678.32455558-2.23661125 3.84175024-7.05908378 8.91116723-12.83405637 15.21177873-17.32138998 1.99672235-1.42169454 6.24769484-4.31800027 12.7493897-8.692445 3.55600022-2.39183348 7.97983383-5.99016704 13.27502861-10.7914729"/><path fill="none" stroke="#7ab2a3" stroke-miterlimit="10" stroke-width=".03527778" d="M137.11727544 141.0370307c3.623028-3.32669465 6.97794488-7.4400838 8.39611164-12.31900077.03880556-.13758334.13052779-.2081389.27516668-.20461113l7.9551394.18344446c.1446389.00352778.2081389.07761112.1905.22225001-.54680558 4.15572249-1.75683344 8.07155607-3.62655578 11.74397297"/><path fill="none" stroke="#73a19a" stroke-miterlimit="10" stroke-width=".03527778" d="M150.30763738 140.66308624c-3.33727799 6.55108374-8.49136164 10.68211178-15.46225097 12.38602855-.67733338.16580557-1.13594452.31044447-1.37230564.4339167-2.3106946 1.18180563-2.07433347 5.55625035-.01411112 6.87563932.7549445.48330559 1.67569455.61736115 2.76577796.39863891 10.54100066-2.10961124 17.19086219-8.33966719 21.96041805-17.64947333"/><path fill="none" stroke="#7ab2a3" stroke-miterlimit="10" stroke-width=".03527778" d="M158.18516566 143.10783639c2.63172238-5.9654726 4.03225025-12.26961188 4.2015836-18.91241786.07761111-3.10444464-1.51341677-3.1115002-4.24391694-3.37608354-9.98361174-.97366673-19.60739012-.39863892-29.18177962 2.5646946-9.2039728 2.8539724-17.68475111 6.94619488-25.36472382 12.80583414"/><path fill="none" stroke="#77a99e" stroke-miterlimit="10" stroke-width=".03527778" d="M103.59632888 136.18986373c-2.77636128 2.19075014-5.39750034 4.53672251-7.86694494 7.03438933-.10230556.10583334-.15522223.08466668-.15522223-.0635l-.01763889-14.17813978"/><path fill="none" stroke="#7ab2a3" stroke-miterlimit="10" stroke-width=".03527778" d="M95.55652282 128.98261328c-.00705555-1.04422229.00352778-2.10255569.03527778-3.17852798.02469445-.80433338.44450003-1.21355563 1.06186118-1.61219455 7.46477825-4.80483363 13.01397304-9.60613949 19.7555568-17.02152885 3.559528-3.91583358 7.4577227-7.10494489 11.70163963-9.57086171.10936111-.0635.21872223-.06702778.32808335-.01058333 8.09977829 3.94758358 17.19438997.76552782 22.45783475-6.29002818"/><path fill="none" stroke="#80c4ac" stroke-miterlimit="10" stroke-width=".03527778" d="M150.8967763 91.29888868c1.5875001-2.13430569 2.76577796-4.65313918 3.53836134-7.55650047 1.35819453-5.10822255 1.60161121-10.49866733 1.80975012-15.75505655.07408333-1.82386123-.7231945-2.95627797-2.38477793-3.39372244-3.73238913-.98072228-7.67644493-1.6827501-11.8356952-2.10255569-6.67102819-.67733337-12.52713967.55033337-18.84539007 2.88925019-6.38880596 2.36361126-11.79688963 4.67783362-16.23130658 6.9426671"/><path fill="none" stroke="#c9f3e9" stroke-miterlimit="10" stroke-width=".03527778" d="M106.94771798 72.32297082c.42686114-1.54163899.44802781-3.12913909.0635-4.7625003-.46213891-1.96144457-1.10066673-4.11338915-2.05316679-5.89491704-.16580556-.3033889-.29633335-.6103056-.39511113-.92075006"/><path fill="none" stroke="#87d4b3" stroke-miterlimit="10" stroke-width=".03527778" d="M104.56294006 60.74480342c3.43252799.5785556 5.33752811-.74083338 5.7079448-3.96169469.2398889-2.08138902.42333336-4.20863915.54680559-6.3817504"/><path fill="none" stroke="#72cfa9" stroke-miterlimit="10" stroke-width=".03527778" d="M104.56294006 60.74480342c-1.32997231-.47625003-2.13077792-1.32291675-2.4059446-2.54000016-.10936112-.48683336-.05644445-1.54869454.16227779-3.1891113.39158336-2.93158353.46919447-5.95841705.22577779-9.0769728-.01058333-.16227779-.21166668-.22930557-.3210278-.10583334-1.64747232 1.88383345-3.30905576 3.79236135-4.98475031 5.72911147-.82550005.95250006-1.71097233 1.86266678-1.70744455 3.10091686.0141111 4.40619472.05291667 8.81591722.1128889 13.22211195"/><path fill="none" stroke="#29a16c" stroke-miterlimit="10" stroke-width=".03527778" d="m95.64471727 67.8850261-.04938889-.48330559c-.01058333-.11641667-.07055556-.19402779-.17991668-.2398889-.15169445-.05997223-.26811113-.02116667-.34572224.11641667-.05291667.09877778-.13758334.13758334-.24694446.11994445-.11994445-.01763889-.23636113.00352778-.34572225.0635-.21519445.1128889-.33161113.17286113-.34925002.1763889-2.25072236.79022228-4.45558361 1.72155567-6.61105597 2.7904724-.13052779.06702779-.19755557.17286113-.20108335.3210278l-.01763889 1.77094456c0 .3210278-.32808335.53622225-.6244167.4162778-3.37961133-1.37583342-6.7980282-2.86455573-10.25172287-4.46616695-.7549445-.34925002-1.54516676-1.0265834-2.37066682-2.0355279-.03527778-.04233334-.05291667-.09172223-.05291667-.14816668v-.1446389c0-.09877778-.04938889-.15522223-.14816667-.17286112-.32455558-.04938889-.44097225-.17286112-.3527778-.36688891"/><path fill="none" stroke="#6bc0a1" stroke-miterlimit="10" stroke-width=".03527778" d="M106.94771798 72.32297082c-3.57716689 1.89794456-7.05908377 3.98638914-10.44927843 6.26180595-.32808336.22225001-.47272225.50800003-.70202782.82902783-.11641668.16580557-.1763889.14816668-.17286113-.05291667l.02116667-11.47586183"/><path fill="none" stroke="#29a16c" stroke-miterlimit="10" stroke-width=".03527778" d="M70.61160458 64.58655367c-1.10772229.62794448-2.13430569 1.39700008-3.08327797 2.31069459-.01763889.0141111-.07055556.08113889-.16227779.20461112-.07408333.09525-.16933334.14111112-.2892778.13758334-.12347222-.00352778-.23283334.02822223-.32808335.09877779-.92780561.67027782-1.80622233 1.40405564-2.63172238 2.19780569-.25047224.24341668-.23283335.44097225-.38100003.74083338-.04233333.08819445-.1128889.13052779-.2081389.13052779h-.38805558c-.09877778 0-.1446389.127-.06702778.1905.15169445.12347224.18344445.23636113.09877778.33513892"/><path fill="none" stroke="#87d4b3" stroke-miterlimit="10" stroke-width=".03527778" d="m63.17152078 70.93302629-4.48380584-1.22766675c-.11641667-.03175-.1763889.01411112-.18344445.13052779-.20108335 3.47486133.57150003 6.72747265 2.31422237 9.75430617"/><path fill="none" stroke="#29a16c" stroke-miterlimit="10" stroke-width=".03527778" d="m60.81849286 79.5901935-2.75519462.09877778c-.1128889.00352778-.2257778.04586112-.31397224.11994446-.51152781.43038891-.84313895.43744447-1.54869455.2716389-.58561114-.13758334-1.14652785-.0811389-1.6827501.16227779-.09172223.04233334-.18697224.0635-.2892778.06702778-.66675004.02822223-1.2170834-.17286112-1.65805566-.60325004-.16933334-.16580556-.2575278-.13052778-.26105557.10583334l-.00352778.12347223c0 .09172223-.127.11641668-.16227779.03175-.10936111-.2398889-.25400001-.34572224-.43391669-.31397224"/><path fill="none" stroke="#1c7f5c" stroke-miterlimit="10" stroke-width=".03527778" d="M150.8967763 91.29888868c-1.5063612-.0635-2.78694461-.30691668-3.84527801-.73377782-.05997223-.02116667-.04233334-.10936112.02116667-.10936112h.18697223c.15169445 0 .15875001-.02822222.02116667-.08819445-.13405557-.05997223-.27516669-.07055556-.42333336-.03175-.10230556.02469444-.2081389.00705555-.29986113-.04586112-.18697224-.11641667-.29280558-.2716389-.31750002-.47272225-.01411111-.11641667-.07761112-.19050001-.18697224-.22577779-1.18886118-.3845278-2.41300015-.60325004-3.66536134-.64911115"/><path fill="none" stroke="#80c4ac" stroke-miterlimit="10" stroke-width=".03527778" d="M142.38777577 88.94233298c4.64608363-4.42030584 5.18583366-10.69269512 5.41513923-16.73577883.00352778-.11641668-.04938889-.19050002-.15875-.2257778-3.10797243-1.0089445-6.2723893-1.55222232-9.4932506-1.62983343-2.86455574-.07055556-5.16113922.29633335-6.88975044 1.09713896-5.60211146 2.5964446-6.62869486 9.98361174-3.61950023 15.14122317"/><path fill="none" stroke="#1c7f5c" stroke-miterlimit="10" stroke-width=".03527778" d="M127.64166373 86.58930505c-.42333336.0635-.77258338.22930557-1.04775006.49388892-.73377783.70202782-1.56986121 1.20650008-2.2930557 1.90500012-.44450003.43038892-.90663895.30691669-1.28763897.87841672-.05644445.08466668-.16933335.11994446-.26458335.0811389-.39863892-.15875001-.65616671-.04586112-.77258339.34572224-.02469444.08819445-.00352777.14111112.06702779.15875001.08113889.02116667.11641667.07408334.1128889.15522223-.0176389.27516669-.1622778.39158336-.4339167.3527778-.1128889-.0141111-.21519446.07761112-.20461113.19050002l.0493889.65263893"/><path fill="none" stroke="#6bc0a1" stroke-miterlimit="10" stroke-width=".03527778" d="M119.45721877 88.36377739c-1.52047232-3.40430577-1.98261123-6.84036155-1.38994453-10.31522288"/><path fill="none" stroke="#80c4ac" stroke-miterlimit="10" stroke-width=".03527778" d="m118.06727424 78.04855451.3210278-1.859139c.04586111-.2716389-.05644445-.3527778-.30691669-.24341668-4.49438917 1.94380567-8.76652833 4.17336137-12.81641747 6.69219486-3.18558354 1.98261124-6.2688615 3.98638914-9.24983392 6.0148615-.28222224.1905-.45155558.5115278-.45155558.85372227l-.00352778 2.97391685"/><path fill="none" stroke="#1c7f5c" stroke-miterlimit="10" stroke-width=".03527778" d="M95.5600506 92.48069431c-.37041669.09525-.65969449.29633335-.86783339.60325004-.05997222.08819445-.1446389.15169445-.24694446.19050001-.9630834.33513891-1.6192501.59619448-1.96850012.7866945-.10583334.05644444-.20108335.17991667-.2892778.3668889-.01763889.03880557-.04233333.04586112-.0811389.02822223-.17991667-.09877778-.39158335-.0811389-.63500003.05291667-1.89794457 1.03363896-3.75708357 2.13077791-5.5809448 3.29847243-.5609167.35630558-.80786116.92075006-1.42522231 1.29469453-.04586111.02822222-.0493889.0635-.01058333.10230556l.10936111.1128889c.0493889.04938889.03880556.13405556-.02116666.16933334l-.25400002.14816668c-.01763889.01058333-.02116667.00352777-.01411111-.01411112.03175-.05997222.05997222-.127.09172223-.20108334.02469444-.05997223-.0493889-.10936112-.09525001-.0635-.32808335.3351389-.61383337.3845278-.8501945.1446389-.06702778-.07055557-.14111112-.07761112-.21872223-.0176389-.04586112.03175-.08466668.08466667-.12347223.15522223"/><path fill="none" stroke="#80c4ac" stroke-miterlimit="10" stroke-width=".03527778" d="M60.81849286 79.5901935c2.68463905 3.05152797 6.07483371 5.29872256 10.17411175 6.74158376"/><path fill="none" stroke="#6bc0a1" stroke-miterlimit="10" stroke-width=".03527778" d="M70.9926046 86.33177726c1.06186119.54327781 2.04611125.89958339 2.95980575 1.07244451 4.86127808.9136945 9.23219503 2.71286128 13.10922305 5.39044478.12347223.08466668.18697223.05291667.18697223-.09877778l.14111112-10.8549729c.00352778-.1940278-.1128889-.36688892-.29280557-.43744448-5.80319481-2.27894459-11.51113962-4.86480586-17.13088997-7.7611116-.3845278-.19755557-1.35819453-.63147226-2.92805574-1.30175008"/><path fill="none" stroke="#c9f3e9" stroke-miterlimit="10" stroke-width=".03527778" d="M67.03796547 72.34060971c-.70202782 1.57691677-1.07597229 3.3020002-1.1218334 5.16819477-.07761112 3.37255577 2.12372235 6.34647262 4.84011141 8.21972274.36336114.25047224.44097225.45155558.23636113.60325004"/><path fill="none" stroke="#7ab2a3" stroke-miterlimit="10" stroke-width=".03527778" d="M142.38777577 88.94233298c-4.8895003 3.79588913-11.43705627 2.92100018-14.74611204-2.35302793"/><path fill="none" stroke="#c9f3e9" stroke-miterlimit="10" stroke-width=".03527778" d="m118.06727424 78.04855451-.86077783.00705556c-.10936112.00352778-.20461113.04233334-.27869446.12347223-4.2192225 4.62138918-8.33613942 8.66422277-11.26066738 14.30866757-.15169445.29280557-.19755557.67733337-.13758334 1.15005563"/><path fill="none" stroke="#c9f3e9" stroke-miterlimit="10" stroke-width=".03527778" d="M104.15019003 95.21119448c-3.05152797 1.89441679-5.50686146 4.18747249-7.36600046 6.88622266-.10583334.15522223-.2892778.49388892-.5468056 1.01600006-.1763889.3527778-.39158335.6738056-.64558337.9630834"/><path fill="none" stroke="#a0e5d1" stroke-miterlimit="10" stroke-width=".03527778" d="M119.45721877 88.36377739c-3.77119468 1.0406945-6.26180595 1.78505566-7.46830602 2.23308347-1.4287501.5291667-3.58069467 1.54163899-6.45936152 3.04094464"/><path fill="none" stroke="#13644e" stroke-miterlimit="10" stroke-width=".03527778" d="M95.55652282 128.98261328c-.41980558.6420556-.57502781 1.3793612-.46213892 2.2119168.0176389.12347223-.03527778.20108335-.15522223.23283335-.9136945.25047224-1.827389.51858337-2.73402795.79727783-.20108334.05997223-.36336113.08466667-.4797778.07055556-.10936112-.01058333-.21166669.00352778-.31397225.04233334l-3.26319465 1.33702786c-.10230556.04233333-.19050001.02116667-.2575278-.06702778-.02116666-.02822223-.05291666-.04586112-.09877778-.05644445-.11641667-.0176389-.1905.02822222-.22577779.13758334l-.29280557.89252783"/><path fill="none" stroke="#44957d" stroke-miterlimit="10" stroke-width=".03527778" d="M87.27330008 134.58119696c.15169445-.99130561.03527778-1.67216677-.34219447-2.04611124-4.13102804-4.10280581-9.13341724-8.5936672-15.00363983-13.47258418-.12347223-.10230556-.17991668-.07408334-.16933335.08466667.03175.4162778.13758335.82902783.3210278 1.23825008 2.12725014 4.75897252 4.54025029 9.40505615 7.23900046 13.9347231"/><path fill="none" stroke="#13644e" stroke-miterlimit="10" stroke-width=".03527778" d="M79.31816069 134.3201414c-.56444448-.13758335-.98425006-.10230557-1.26294453.09877778-.09525.06702778-.20461112.09877778-.3210278.08819445-.3986389-.03175-.76552782.05997222-1.10066673.28222224-.09172223.05997222-.19402779.09172222-.3033889.09172222-.86430562-.01058333-1.59808344.07761112-2.1978057.27163891-.95955562.31397224-2.05669458.83608339-3.29494465 1.56986121-.04233334.02469445-.07055556.01411111-.08819445-.03175-.01411112-.03527778-.0176389-.07408334-.01411112-.11641668.01058334-.06702778-.08113889-.09877778-.11641667-.03880555l-1.00541673 1.75330566c-.01763889.02822223-.02822222.02469445-.03527778-.00705555-.01058333-.03175-.02116667-.05997223-.03527778-.09172223-.01763889-.03527778-.06702778-.03880556-.08819445-.00352778-.0493889.0811389-.05997223.2081389-.03175.3845278"/><path fill="none" stroke="#1c7f5c" stroke-miterlimit="10" stroke-width=".03527778" d="M23.87207386 117.48911255c1.47813898-.20108334 2.96333352.05997223 4.45558362.79022228.10936111.05291667.18344445.02469444.22930557-.08819445l.08113889-.2081389c.04586111-.11641668.127-.15522224.24341668-.11994446l1.98613902.59619448c.05644444.0176389.08466667.05644445.08466667.11641668v.127c0 .08466668.09877778.12700001.16227779.07055557.52563892-.46213892 1.10066673-.53269448 1.72861122-.21166668.09172222.04938889.19402779.06702778.29280557.04938889l1.43227787-.2081389"/><path fill="none" stroke="#51a48b" stroke-miterlimit="10" stroke-width=".03527778" d="M34.56829676 118.40280706c3.77119468 4.2015836 8.89352834 7.63058381 14.54855647 8.50900053 3.10797242.47977781 7.9692505.02469445 11.5146674.52563892 2.26483347.3210278 4.43441694.8501945 6.51227818 1.59455566.1763889.0635.33866669-.12347223.25047224-.2892778-2.25425014-4.26155582-4.49438917-9.3627228-4.20511138-14.18872311"/><path fill="none" stroke="#1c7f5c" stroke-miterlimit="10" stroke-width=".03527778" d="M63.18915967 114.55400126c.13758334-.5468056.12700001-1.01600007-.02822222-1.40758342-.0176389-.03880556-.00705556-.07055556.03175-.09172223.03175-.01411111.05997223-.02822223.09172223-.04233334.07055556-.03175.09172223-.0811389.06702778-.15169445-.08819445-.23636113-.03527778-.43038892.16580557-.58208337.07408333-.05997223.15522223-.05997223.23636112-.00705556.16580557.1128889.34572225.14816668.5468056.10230556.07055555-.0141111.12347222-.05291667.15875-.1128889.11994445-.21166667.09525-.3845278-.07055556-.51858336-.11994445-.09877778-.03175-.2892778.11994445-.26811113.27163891.04233334.49388892-.04233333.66322227-.25047223.08819445-.10936112.19755557-.18697224.32808335-.23636113l1.21002786-.44097225c.11994445-.04586111.20108334-.12347223.24694446-.2398889.03880555-.09525001.05291667-.18697224.04233333-.27516669-.00705555-.04233333.01058334-.07055556.05291667-.08466667l.36688891-.11641667c.02469445-.01058334.02822223-.02469445.01058334-.04233334l-.07761112-.07761112c-.0635-.06702778-.04233333-.17991667.04586112-.21166668l1.99319457-.78316671c.10230556-.04233334.1905-.10583334.26105557-.1940278.07408334-.09525.1763889-.16580556.30691668-.21519445.02116667-.01058333.03175-.00352778.03527778.01763889.00352778.04586111.01411112.09172223.03175.13052779.05997223.127.1305278.13405556.21166669.02116666l.0635-.08466667c.0493889-.07055556.15522223-.0635.19755557.01411111.08819445.17286113.24341668.21166668.46213892.1128889"/><path fill="none" stroke="#51a48b" stroke-miterlimit="10" stroke-width=".03527778" d="m95.5106617 113.01941783.04233334 2.51177793c.00352778.11641668.1446389.16933335.22225002.08466668.25047224-.26811113.33866669-.50447226.6244167-.7231945 6.92150044-5.31636144 12.05441743-11.02077847 17.8152789-16.87688995 1.87325012-1.90147234 4.32858361-3.75355579 7.36600047-5.55977812.10936112-.06702779.15875-.1622778.14111112-.2892778-.0176389-.11641667-.06702778-.23636113-.15522223-.36336113"/><path fill="none" stroke="#a0e5d1" stroke-miterlimit="10" stroke-width=".03527778" d="M95.5106617 113.01941783c.18697224.17991668.34219447.28575002.46919448.31397224.12347223.02469445.22930557-.07055556.3210278-.29280557 2.36008348-5.84200037 4.97416698-11.7863063 7.84930605-17.82939002"/><path fill="none" stroke="#57b694" stroke-miterlimit="10" stroke-width=".03527778" d="M63.18915967 114.55400126c.15169446-.63147226.03527778-1.07950007-.3527778-1.34055564-4.8577503-3.25966687-10.678584-6.34294485-17.45544554-9.24983392-2.99508352-1.28411119-5.7573337-2.26483347-8.28675052-2.93863907"/><path fill="none" stroke="#80c4ac" stroke-miterlimit="10" stroke-width=".03527778" d="M37.0941858 101.02497263c-3.34080576-.8995834-7.05908377-1.50283343-11.16188959-1.80975012-.12347223-.01058333-.1763889.04586112-.15875.16933335.81491671 6.32530595 3.13266686 11.94858408 6.96030599 16.86277884"/><path fill="none" stroke="#b5e9db" stroke-miterlimit="10" stroke-width=".03527778" d="M37.0941858 101.02497263c2.57880572 6.59341708 6.60400042 11.94858408 12.0755841 16.06550101.03880556.03175.05291667.08466667.02822222.13052779l-.06702778.12347223c-.05997222.10936111-.14816667.14111112-.26458335.09525-.29280557-.11994445-.72319449-.20108334-1.28411119-.2398889-5.5809448-.39863892-9.66611172-.62794449-12.25902855-.69497227-.37041669-.01058333-1.03716673-.18697223-2.00025013-.53622225-.11641667-.04233334-.20461112-.01411112-.2716389.08819445-.0635.09525-.16933335.15875-.31750002.1905"/><path fill="none" stroke="#418c78" stroke-miterlimit="10" stroke-width=".03527778" d="m87.27330008 134.58119696-.1128889 8.48077832c-.00352778.25752779-.08819445.28575001-.25400001.09172222-2.53647239-3.00919463-5.44688924-5.60563924-7.58825048-8.8335561"/><path fill="none" stroke="#0f5c4a" stroke-miterlimit="10" stroke-width=".03527778" d="M158.18516566 143.10783639c-.09172223-.08819445-.17991668-.14111112-.26105558-.16580557-.13405556-.03880555-.26105557.07055556-.25047223.2081389.06702778.69497227-.27163891 1.01952785-1.01247229.97013896-.3527778-.02469445-.58913893.35983335-.40922225.66322226.13052779.22225001.09877779.42333336-.09525.60325004-.03880556.03880556-.08819445.04938889-.14111112.02822222-.37394447-.15169445-.6914445-.07055556-.95250006.23636113-.0635.07761111-.12700001.07761111-.1940278.00352778-.0458611-.05291667-.10230556-.08466668-.17286112-.10230557-.08113889-.02116666-.17286112-.00352777-.28222224.05291667-.7690556.40569447-1.59102787.68086116-2.4694446.83255561-.09525.0176389-.14816667-.02469444-.15875-.11994445l-.36336114-4.19452804c-.01058333-.11641668-.05997223-.2081389-.15522223-.27516669-.28575002-.2081389-.35630558-.45861114-.20461113-.75141671.07055556-.14111112.03175-.22930557-.11994445-.26811113l-.63500004-.16580556m-13.19036194.37394446c-.23636113-.00705555-.45861114.07761112-.66675004.2575278-.04586112.03880556-.07055556.02822222-.07408334-.03527778l-.00352778-.16227779c-.00352778-.14111112-.07055556-.19755557-.2081389-.16933334-.50447225.10583334-1.01600006.15169445-1.52752787.14111112-1.16769452-.02469445-2.3248057-.13758335-3.47486133-.33513891-.0635.03880555-.1128889.03175-.14816668-.02822223-.03527778-.05644445-.08819445-.08819445-.15522223-.09525l-4.93536142-.5291667"/><path fill="none" stroke="#44957d" stroke-miterlimit="10" stroke-width=".03527778" d="M125.92363585 140.08100287c.16933334-.10230557.29633335-.21519446.37747224-.34572225"/><path fill="none" stroke="#51a48b" stroke-miterlimit="10" stroke-width=".03527778" d="M126.3011081 139.73528062c3.98991691-3.01625019 7.64116714-6.32177817 10.95375068-9.92363951.07761112-.0811389 0-.21166668-.10936112-.19050001-5.46452812 1.09713895-10.69975067 2.76930573-15.70213987 5.01650031"/><path fill="none" stroke="#13644e" stroke-miterlimit="10" stroke-width=".03527778" d="M121.44335779 134.63764141c-.46919448-.23283335-.9313334-.16580556-1.38641676.20461113-.07408334.05997222-.15875.07408333-.24694446.03527778-.15522223-.0635-.29280557-.01411112-.41275002.15169445-.04233334.05644445-.02822223.09172223.04586111.10936112.03880556.01058333.04233334.02822222.01411111.05291667l-.13758334.14111112c-.03880556.03880556-.07408334.03175-.10230556-.01411111l-.11641668-.19755557c-.04938889-.08466667-.12347223-.11641668-.21872223-.09172223l-1.68980566.41275003c-.04586112.01058333-.07055556.04233333-.06702779.08819445.00352778.04938889.02469445.08819445.05997223.1128889.02469445.01763888.02469445.03175 0 .04938888-.37747225.26458335-.7866945.39158336-1.22766674.37394447-.07408334-.00352778-.1446389-.01763889-.21166668-.04233333-.12700001-.0493889-.25047224-.05291667-.3704167-.01411112-.07761111.02469445-.15875.03880556-.24341668.03527778-.50800003-.01763889-1.0089445.02822223-1.49930565.13405557-.50447225.10936112-.9454445.14816667-1.3299723.11641667-.98425006-.07408334-1.96850013-.03880556-2.95275019.10936112-.09877778.01411111-.19755557.01058333-.29280557-.01058333-.2716389-.05644445-.50800003-.01411112-.70908338.127-.06702778.04586112-.14111112.0635-.22225001.05291667l-2.50472238-.37041669c-.06702779-.01058333-.13052779-.03175-.19050002-.07055556-.08819445-.05291667-.1905-.0635-.30691668-.02469444-.08819445.02822222-.17286112.02469444-.25400002-.01058334-.2716389-.11641667-.52211114-.05644444-.74436116.18697224-.06702778.07408334-.15169445.09877778-.25047223.07055556-.08819445-.02469445-.18344446-.0811389-.27869447-.16580557"/><path fill="none" stroke="#4e9b86" stroke-miterlimit="10" stroke-width=".03527778" d="M121.44335779 134.63764141c-4.2509725 1.95086124-8.25147275 4.2968336-12.00855632 7.04144489"/><path fill="none" stroke="#418c78" stroke-miterlimit="10" stroke-width=".03527778" d="M109.43480147 141.6790863c-4.5543614 3.43958355-8.83002833 7.21077823-12.83405636 11.3206396-1.09713896 1.12536118-1.1394723 2.07786124-.91016672 3.55600023"/><path fill="none" stroke="#0c5345" stroke-miterlimit="10" stroke-width=".03527778" d="m95.61296727 156.90850393-.35983336-2.43063905c-.01763889-.10936111.01411112-.20108334.09525001-.27516668.19050001-.17991668.2257778-.38100002.10230556-.60325004-.16227779-.29280557-.24694446-.4480278-.25047224-.4656667-.13052778-.40922224-.2081389-.8325556-.22577779-1.2664723-.00352778-.07055556-.03527778-.11641667-.10230556-.13758334-.05997223-.02116667-.10230556-.07055556-.12347223-.1446389-.01763889-.07055556-.01058333-.127.02116667-.16933334.02822222-.03175.02469444-.0635-.00705556-.09172223-.20461112-.17991668-.38100002-.2716389-.52563892-.27869446-1.86266678-.08819445-3.72886135-.08466667-5.60211146.01763889-.12347223.00705556-.2081389.06702778-.25400002.17991668l-.21519446.52211114c-.05291667.13405557-.14111112.15875001-.26105557.07761112-.23636113-.16227779-.48330559-.12700001-.74083338.10230556-.07055556.05997223-.10936112.13758334-.11641667.22930557-.00705556.0635-.03527778.11641667-.0811389.15522223-.01411111.01058334-.01763889.03175-.00705555.04586112.01058333.01763889.02822222.02116666.04586111.0141111.04233334-.01763888.08466667-.03880555.12347223-.05644444.05291667-.02469445.08466667-.01058333.09172223.0493889l.09525.72319448c.04233334.3210278-.03880555.35630558-.24341668.10936112l-.1128889-.13758334c-.07055555-.08466667-.1446389-.08819445-.22225-.01058334-.35630559.34219447-.44097226.66322227-.25400002.9630834.06702778.10936112.04586111.19050001-.07055556.24694446-.0635.02822222-.14111112.04233333-.23283335.04586111"/><path fill="none" stroke="#7fccb5" stroke-miterlimit="10" stroke-width=".03527778" d="M126.3011081 139.73528062c-1.96497235-.11994445-3.9299447-.02116667-5.88786149.29633335-.45861114.07408334-.9771945.05997223-1.5557501-.03527778-1.04775006-.1763889-2.0849168-.12347223-3.10797242.1622778-.95250006.26105556-1.94380567.36336113-2.87161129.79022226-.10936112.05291667-.22577779.0635-.34572224.03527778-1.17827785-.2716389-1.91205568.5609167-2.72344462 1.18180563-.16227779.11994446-.39158336.00352778-.3845278-.19755556l.01058333-.2892778"/><path fill="none" stroke="#3d8474" stroke-miterlimit="10" stroke-width=".03527778" d="M125.92363585 140.08100287c-5.6444448 4.66019473-11.54994518 8.91822278-17.7200289 12.77761191-.74083338.46213892-2.33891681 1.64041677-4.79777808 3.53483356"/><path fill="none" stroke="#4aa785" stroke-miterlimit="10" stroke-width=".03527778" d="M103.40582887 156.39344834c-2.49766682-.26105557-4.79072252-.19755557-6.88269488.18697223-.34219446.0635-.61736115.05644445-.8325556-.02469444"/><path fill="none" stroke="#0c5345" stroke-miterlimit="10" stroke-width=".03527778" d="M42.7562695 172.4201438c.20461112-.15169446.43038891-.28222225.68086115-.38452781.22930557-.09877778.48330559-.13052779.75847227-.09525.86077783.10936111 1.66158344.38100002 2.39888904.81491671.34572224.20461113.68791671.20108335 1.0265834.03880556.7055556-.33513891 1.39700009-.7055556 2.07080568-1.1077223.08819445-.05291666.17991668-.0635.27516669-.03175l3.01977797.94897229c.09877778.03175.1905.01763889.27869446-.04233334l.2575278-.16933334"/><path fill="none" stroke="#3d8474" stroke-miterlimit="10" stroke-width=".03527778" d="M53.52304795 172.39192157c5.21405589 4.32152805 10.78441735 6.05719482 17.43427888 8.30438941.7373056.25047224 1.33702786.55386115 1.99319457.97366673.1763889.11641667.22930557.07408334.15875-.12347223-1.3123334-3.58422245-2.017889-7.3130838-2.12019457-11.19011182"/><path fill="none" stroke="#0c5345" stroke-miterlimit="10" stroke-width=".03527778" d="M70.9149935 169.06522691c.47272224.22225002.7055556.66675005.70202781 1.32997231-.00352777.2081389.27869447.27516668.37394447.09172223.01058334-.02469445.04233334-.05997223.08819445-.10936112.04586112-.0493889.09172223-.05291667.1446389-.01058333.3210278.26458335.68791671.37041669 1.10066674.3210278.11641667-.0176389.21166668.02116666.28222224.11641667l.07761111.10230556c.08819445.11641667.17991668.12347223.27516669.01411111.1763889-.20108334.37394446-.37747224.5926667-.53622225.01058333-.00705556.02116667-.00705556.03175 0 .03527778.02469444.04233334.05291667.02469445.09172222-.03880556.07408334-.0176389.10230557.0635.09172223.30338891-.04938889.55738893-.1763889.76552783-.37747224.69850004-.6914445 1.41816675-.80080561 2.39536126-.61383338.13052779.02469445.25400002-.05644444.2892778-.18344445.19402779-.70202782.4974167-1.25588897.91016672-1.65805566"/><path fill="none" stroke="#3d8474" stroke-miterlimit="10" stroke-width=".03527778" d="M79.03241067 167.7352546c.0493889 6.11716706.85725005 12.40013968 5.10469477 17.23319554.73025004.82902783 1.65452788 1.77447233 2.7728335 2.82927795.11641668.10936112.17286113.08466668.17286113-.07408333l.15169445-15.23647319"/><path fill="none" stroke="#156e53" stroke-miterlimit="10" stroke-width=".03527778" d="m95.61296727 156.90850393-.03175 6.96383377c0 .16580556.05291667.18344445.15875.05997222 2.27541682-2.63525016 4.83305587-5.1470281 7.6658616-7.53886158"/><path fill="none" stroke="#4e9b86" stroke-miterlimit="10" stroke-width=".03527778" d="M58.8394094 154.22386487c-2.13077791-.16580557-4.38150028-.4656667-6.75569487-.89252784-3.19969465-.57502781-6.39586152-1.18180563-9.59202838-1.82033344-.13052779-.02469445-.18697224.02822222-.16580557.15875.60325004 3.74650024 1.73566678 7.30602824 3.39372244 10.67505623"/><path fill="none" stroke="#418c78" stroke-miterlimit="10" stroke-width=".03527778" d="M45.71960302 162.34480982c1.9085279 3.85586136 4.51202806 7.20725046 7.80344493 10.04711175"/><path fill="none" stroke="#7fccb5" stroke-miterlimit="10" stroke-width=".03527778" d="M70.98907683 170.35639366c-.40569447.5785556-.87136117.85725006-1.39700009.83961117-1.30175008-.0493889-2.2930557-.08466668-3.4466391.14816667-.51152781.10230556-.9948334-.10936112-1.4428612-.63852782-2.8398613-3.34786132-5.09058366-6.78744487-6.74511154-10.31875065-.04586112-.09877778-.14816668-.16227778-.2575278-.16227778-1.96144456.03175-3.8805558.19755556-5.75380591.49388892-.44450003.06702778-1.11477785.09877778-2.01436124.09172222-1.57338899-.0141111-2.97744463.4974167-4.21216693 1.53458343"/><path fill="#3bd37e" d="M106.8841983 32.2192267c-.41980553-.23283332-.98072218-.10583333-1.68980548.38452775-.23283333.16227776-.82549997.45155552-1.78152771.86783326-.08113889.03527778-.12347222.09877777-.11994444.18697221 0 .03175 0 .06702777-.00352778.10230555-.01058333.08113888-.05291667.127-.13405555.14463888l-2.08491659.44802774c-.08819444.01763889-.13405555.07408333-.1411111.16227777l-.0176389.19049998c-.00705555.08819444-.11641666.127-.17991665.06702778l-.30338888-.2822222c-.05644444-.05291667-.14463888 0-.12347222.07408332l.05644444.21166665c.03527778.12347222-.01058333.20108332-.13758332.22577776l-.86077775.17638888-7.98336081-15.72683215c-.08819444-.17638887-.33866666-.17991665-.43391665-.00705555-2.74813879 4.90361074-5.3022498 9.87777703-7.65880527 14.92249887-.30338888.64558329-.58208331 1.34055546-.83255552 2.08491651-.06702778-.12347221-.09172222-.28574998-.07761111-.48330552.01058333-.11288888-.04233333-.15874999-.15169444-.13405554-.22930555.0458611-.40216665.04938888-.51505554.01058333-1.2770555-.47624996-2.27541658-.70908328-2.99508322-.69849995-1.39347217.02469444-2.3671388-.06702777-2.91394433-.27516664-.65969442-.2504722-1.2311944-.20813888-1.71097216.12699999 3.51719431-9.43327707 9.00641633-18.69722082 14.65086056-26.73702577 1.6898055-2.40947204 3.97227763-1.411111 5.3974998.73377773 4.74133315 7.14022168 9.52499964 15.16591552 12.74586063 23.22335936"/><path fill="#b4eede" d="M99.36297637 35.17903203c.51152776.8325555.5997222 1.42169434.26105555 1.76388876-2.92452767 2.98802755-5.67972201 6.11363842-8.26205525 9.37683262-.0776111.09877777-.15522222.09877777-.2363611.00352778-2.75872212-3.39724974-5.64797201-6.68866616-8.67127745-9.87072148.2504722-.74436105.52916664-1.43933322.83255552-2.0849165 2.35655547-5.04472185 4.91066648-10.01888814 7.65880527-14.92249888.09525-.1728611.3457222-.16933332.43391665.00705555l7.98336081 15.72683215"/><path fill="#30b073" d="M106.8841983 32.2192267c2.59644436 5.93372177 3.90877764 11.99444354 3.93347208 18.1821653-.12347221 2.17311094-.30691665 4.30036078-.54680553 6.38174951-.37041665 3.22086087-2.27541658 4.54024966-5.70794423 3.96169415-1.32997217-.47624997-2.1307777-1.32291657-2.40594436-2.53999981-.1093611-.4868333-.05644444-1.54869433.16227778-3.18911087.39158332-2.93158311.46919442-5.95841622.22577777-9.07697154-.01058334-.16227776-.21166666-.22930554-.32102777-.10583332-1.64747216 1.88383319-3.30905543 3.79236082-4.98474981 5.72911067-.82549997.95249993-1.71097216 1.86266653-1.70744438 3.10091644.0141111 4.40619411.05291666 8.815916.11288888 13.22211011l-.04938889-.48330552c-.01058333-.11641666-.07055555-.19402776-.17991666-.23988887-.15169443-.05997222-.2681111-.02116666-.3457222.11641666-.05291667.09877777-.13758333.13758332-.24694444.11994444-.11994444-.0176389-.2363611.00352777-.3457222.06349999-.21519445.11288888-.3316111.1728611-.34925.17638888-2.25072213.79022216-4.45558316 1.72155542-6.6110553 2.790472-.13052778.06702778-.19755555.1728611-.20108333.32102776l-.01763889 1.77094431c0 .32102776-.32808332.53622218-.62441664.41627775-3.37961098-1.37583323-6.79802752-2.86455534-10.25172184-4.46616633-.75494441-.34924997-1.5451666-1.02658326-2.37066657-2.03552763-.03527778-.04233333-.05291667-.09172221-.05291667-.14816665v-.14463888c0-.09877777-.04938889-.15522221-.14816666-.1728611-.32455554-.04938888-.4409722-.1728611-.35277776-.36688886l2.6669999.33513887c.11288888.0141111.18344443-.11994444.10583332-.2046111-4.43088872-4.72016631-5.52802757-14.28044337-4.80130537-20.24238736.41274998-3.35491642 1.28411106-6.85094393 2.62113879-10.49161032.47977776-.33513887 1.05127774-.3774722 1.71097216-.127.54680553.20813888 1.52047216.2998611 2.91394433.27516665.71966664-.01058333 1.71802772.22224999 2.99508322.69849995.11288889.03880555.28575.03527777.51505554-.01058333.1093611-.02469445.16227777.02116666.15169444.13405554-.01411111.19755554.01058333.3598333.0776111.48330552 3.02330545 3.18205532 5.91255534 6.47347174 8.67127746 9.87072148.08113888.09525.15875.09525.2363611-.00352778 2.58233324-3.2631942 5.33752758-6.38880507 8.26205525-9.37683262.33866665-.34219442.2504722-.93133327-.26105555-1.76388876l.86077775-.17638888c.12699999-.02469444.1728611-.10230554.13758332-.22577776l-.05644444-.21166665c-.02116666-.07408332.06702778-.12699999.12347222-.07408332l.30338888.2822222c.0635.05997221.1728611.02116666.17991666-.06702778l.01763888-.19049998c.00705556-.08819444.05291667-.14463888.14111111-.16227777l2.08491659-.44802774c.08113888-.01763889.12347222-.0635.13405555-.14463888.00352778-.03527778.00352778-.07055555.00352778-.10230555-.00352778-.08819444.03880555-.15169443.11994444-.1869722.95602774-.41627775 1.54869438-.7055555 1.7815277-.86783327.70908331-.49036108 1.26999996-.61736107 1.6898055-.38452775"/><path fill="none" stroke="#c9f3e9" stroke-miterlimit="10" d="M4873.1 6915.8c-1.1-4.6-3.6-7.1-7.7-7.4-3.1-.3-5.6.9-7.4 3.4-2.7 3.8-6.1 5.3-10.2 4.4-3.3-.6-5.3-2.5-6.2-5.7l-50.3-178.5" clip-path="url(#a)" transform="matrix(.03527778 0 0 -.03527778 -88.589961 293.67340143)"/><path fill="#ddf7f3" d="M83.32217142 49.69936427c-.03880556.16227776-.127.2504722-.27163888.26105553-.1093611.01058334-.19755555-.03175-.26105555-.11994443-.09525-.13405555-.21519443-.1869722-.35983332-.15522221-.11641666.02116666-.18697221.08819444-.21872221.20108332l-1.77447216 6.29708286c-.85724996-3.64419417-1.15358329-7.18961057-.88899996-10.64330476.00352777-.04233333.05644444-.05997222.08466666-.02822222l3.69005542 4.1874719"/><path fill="#b4eede" d="M104.56292062 60.74483566c.09877777.31044442.22930555.61736106.3951111.92074993.95249996 1.78152764 1.59102771 3.93347192 2.05316658 5.89491622.38452777 1.63336099.3633611 3.22086087-.0635 4.76249964-3.57716653 1.8979443-7.05908306 3.98638859-10.44927738 6.26180509-.32808332.22224998-.4727222.50799996-.70202775.82902771-.11641666.16580554-.17638888.14816666-.1728611-.05291666l.02116666-11.47586025c-.05997222-4.40619411-.09877777-8.815916-.11288888-13.22211011-.00352778-1.2382499.8819444-2.1484165 1.70744438-3.10091644 1.67569438-1.93674985 3.33727765-3.84527748 4.98474981-5.72911067.1093611-.12347222.31044443-.05644444.32102777.10583332.24341665 3.11855532.16580555 6.14538843-.22577777 9.07697154-.21872222 1.64041654-.27163888 2.70227757-.16227778 3.18911087.27516666 1.21708324 1.07597219 2.06374984 2.40594436 2.5399998m-21.2407492-11.04547138 3.82411096 4.05341636c.1728611.18344443.2681111.42686108.26458333.68086106l-.1411111 7.32013834c-.00352779.16933332-.17991667.27869442-.3316111.2046111-1.13947219-.54327774-2.27894437-1.13594437-3.4254721-1.7744721-1.72861105-.96308326-2.75519434-2.29658316-3.0762221-4.0004997l1.77447215-6.29708285c.03175-.11288888.10230555-.17991666.21872221-.20108332.14463889-.03175.26458333.02116666.35983332.1552222.0635.08819445.15169444.13052778.26105555.11994444.14463888-.01058333.23283332-.09877777.27163888-.26105553"/><path fill="#30b073" d="M70.61158856 64.58658537c-1.10772218.6279444-2.13430547 1.3969999-3.08327766 2.31069427-.01763889.0141111-.07055555.08113888-.16227777.2046111-.07408333.09524999-.16933333.1411111-.28927777.13758332-.12347222-.00352778-.23283332.02822222-.32808332.09877777-.92780552.67027772-1.80622215 1.40405545-2.63172212 2.19780539-.25047222.24341665-.23283333.44097219-.38099999.74083327-.04233333.08819444-.11288888.13052777-.20813888.13052777h-.38805554c-.09877777 0-.14463888.127-.06702778.19049999.15169444.12347221.18344444.2363611.09877778.33513886l-4.48380539-1.22766657c-.11641666-.03175-.17638888.0141111-.18344444.13052777-.20108332 3.47486084.57149998 6.72747171 2.31422214 9.75430482l-2.75519434.09877777c-.11288889.00352777-.22577777.0458611-.31397221.11994443-.51152776.43038886-.84313886.43744441-1.54869439.27163887-.58561109-.13758332-1.14652773-.08113888-1.68274994.16227777-.09172221.04233333-.18697221.0635-.28927776.06702777-.66674998.02822222-1.21708329-.1728611-1.6580555-.60324996-.16933332-.16580554-.25752776-.13052776-.26105554.10583333l-.00352778.12347221c0 .09172222-.127.11641666-.16227777.03175-.1093611-.23988887-.254-.3457222-.43391665-.3139722-1.32291662-3.83116638-1.52752772-7.65880498-1.36877773-11.77219356.16580555-2.8398609.38452777-4.77661075.65263887-5.81377734.47624998-1.83091652 2.15194436-2.0531665 3.8664443-1.74272209 5.3798609.97719437 10.62919404 2.39888871 15.75152718 4.26155524"/><path fill="#229164" d="M150.89675221 91.29891669c-1.50636105-.0635-2.78694434-.30691665-3.84527763-.73377772-.05997222-.02116667-.04233333-.1093611.02116666-.1093611h.18697222c.15169444 0 .15875-.02822223.02116666-.08819445-.13405555-.05997221-.27516665-.07055555-.42333331-.03175-.10230556.02469445-.20813888.00705556-.2998611-.0458611-.18697222-.11641666-.29280555-.27163887-.3175-.47272219-.0141111-.11641666-.0776111-.19049998-.1869722-.22577776-1.18886107-.38452775-2.41299992-.60324995-3.66536098-.64911106 4.64608316-4.42030522 5.18583314-10.69269364 5.41513869-16.73577652.00352777-.11641665-.0493889-.19049998-.15875-.22577776-3.1079721-1.00894437-6.27238865-1.5522221-9.49324964-1.6298332-2.86455545-.07055556-5.1611387.2963333-6.88974974 1.0971388-5.6021109 2.59644425-6.6286942 9.98361036-3.61949987 15.14122108-.42333331.0635-.7725833.22930554-1.04774996.49388885-.73377775.70202773-1.56986105 1.20649991-2.29305547 1.90499986-.44449998.43038885-.90663885.30691664-1.28763884.8784166-.05644444.08466666-.16933332.11994443-.26458332.08113888-.39863887-.15874999-.65616664-.0458611-.7725833.3457222-.02469445.08819443-.00352778.1411111.06702777.15874998.08113889.02116667.11641666.07408333.11288889.15522222-.0176389.27516664-.16227778.3915833-.43391666.35277775-.11288888-.01411111-.21519443.0776111-.2046111.19049998l.04938889.65263884-2.10961103-3.43958307c-1.52047217-3.4043053-1.98261104-6.8403606-1.3899444-10.31522145l.32102777-1.85913875c.0458611-.27163886-.05644444-.35277775-.30691666-.24341664-4.49438872 1.9438054-8.76652744 4.1733608-12.81641618 6.69219394-3.18558321 1.98261096-6.26886088 3.98638858-9.24983299 6.01486065-.2822222.19049999-.45155553.51152774-.45155553.85372216l-.00352778 2.97391644c-.37041665.09525-.65969442.29633332-.8678333.60324996-.05997222.08819444-.14463889.15169443-.24694444.19049998-.9630833.33513887-1.61924994.5961944-1.96849992.78669439-.10583333.05644444-.20108333.17991665-.28927777.36688886-.01763889.03880555-.04233333.0458611-.08113889.02822222-.17991666-.09877777-.39158331-.08113888-.63499997.05291666-1.89794438 1.03363881-3.7570832 2.13077762-5.58094424 3.29847198-.56091664.35630553-.80786108.92074993-1.42522217 1.29469434-.0458611.02822222-.04938888.0635-.01058333.10230555l.1093611.11288888c.0493889.04938889.03880556.13405555-.02116666.16933332l-.25399999.14816666c-.01763889.01058333-.02116666.00352778-.0141111-.01411111.03174999-.05997222.05997221-.127.09172221-.20108332.02469444-.05997222-.04938889-.1093611-.09525-.0635-.32808332.33513887-.6138333.38452775-.8501944.14463888-.06702778-.07055555-.14111111-.0776111-.21872222-.01763888-.04586111.03175-.08466667.08466666-.12347222.1552222-3.21380543-1.94027763-6.63574975-3.4184164-10.2728885-4.4379441-9.12988855-2.56116648-17.5013049-6.03249955-21.09611032-15.5469155.17991666-.03175.32455554.07408333.43391665.3139722.03527778.08466666.16227777.05997222.16227777-.03175l.00352778-.12347221c.00352778-.2363611.09172222-.27163887.26105554-.10583333.44097221.43038886.99130552.63147218 1.6580555.60324996.10230555-.00352778.19755555-.02469444.28927776-.06702777.5362222-.24341665 1.09713885-.2998611 1.68274994-.16227777.70555553.16580554 1.03716663.15874999 1.54869439-.27163887.08819444-.07408333.20108332-.11641666.3139722-.11994443l2.75519435-.09877777c2.68463879 3.05152754 6.0748331 5.29872182 10.17411073 6.74158282 1.06186107.54327774 2.04611103.89958327 2.95980544 1.07244436 4.8612776.91369438 9.2321941 2.71286091 13.10922173 5.39044404.12347222.08466666.18697222.05291667.18697222-.09877777l.1411111-10.8549714c.00352778-.19402776-.11288888-.36688886-.29280554-.43744441-5.80319423-2.27894428-11.51113846-4.8648052-17.13088825-7.76111053-.38452776-.19755554-1.3581944-.63147217-2.92805544-1.3017499l-3.8664443-1.40758323c.08466666-.09877777.05291666-.21166665-.09877778-.33513886-.0776111-.0635-.03175-.19049999.06702778-.19049999h.38805554c.09525 0 .16580555-.04233333.20813888-.13052777.14816666-.29986108.13052777-.49741662.38099999-.74083327.82549997-.79374994 1.7039166-1.52752767 2.63172212-2.1978054.09525-.07055554.2046111-.10230554.32808332-.09877776.11994444.00352777.21519444-.04233333.28927777-.13758333.09172222-.1234722.14463888-.19049998.16227777-.2046111.94897219-.91369437 1.97555548-1.68274986 3.08327766-2.31069426l2.88572212 1.01599992c-.08819445.19402776.02822222.31749998.35277776.36688886.09877777.01763889.14816666.07408333.14816666.1728611v.14463888c0 .05644444.01763889.10583332.05291667.14816665.82549996 1.00894437 1.61572216 1.68627766 2.37066657 2.03552763 3.45369432 1.60161099 6.87211086 3.0903331 10.25172184 4.46616633.29633332.11994443.62441664-.09525.62441664-.41627775l.0176389-1.7709443c.00352777-.14816666.07055554-.25399999.20108332-.32102776 2.15547214-1.06891659 4.36033317-2.00024985 6.6110553-2.79047201.0176389-.00352778.13405555-.0635.34925-.17638888.1093611-.05997222.22577776-.08113888.3457222-.0635.1093611.0176389.19402777-.02116666.24694444-.11994443.0776111-.13758332.19402777-.17638888.3457222-.11641666.10936111.04586111.16933333.12347221.17991666.23988887l.0493889.48330552-.02116667 11.47586025c-.00352778.20108332.05644444.2187222.1728611.05291666.22930555-.32102775.37394443-.60677773.70202775-.82902771 3.39019432-2.2754165 6.87211085-4.36386079 10.44927739-6.26180509 4.4344165-2.26483316 9.84249963-4.5790552 16.23130494-6.94266614 6.31824976-2.3389165 12.17436066-3.56658307 18.84538818-2.88924978 4.15924985.41980552 8.10330525 1.12183324 11.835694 2.1025554 1.66158327.4374444 2.45886102 1.56986099 2.38477769 3.39372196-.20813888 5.2563885-.45155554 10.64683253-1.80974993 15.75505437-.7725833 2.90336089-1.95086104 5.42219403-3.53836098 7.55649943"/><path fill="#ddf7f3" d="m63.1715055 70.93305711 3.8664443 1.40758323c-.70202774 1.57691655-1.07597217 3.30199975-1.12183328 5.16819405-.07761111 3.3725553 2.12372214 6.34647175 4.84011093 8.2197216.3633611.25047221.4409722.45155553.2363611.60324996-4.09927763-1.442861-7.48947194-3.69005528-10.17411073-6.74158282-1.74272216-3.0268331-2.51530546-6.27944398-2.31422214-9.75430482.00705556-.11641666.06702778-.16227777.18344444-.13052777l4.48380539 1.22766657m79.21624702 18.0093042c-4.88949982 3.7958886-11.43705513 2.92099978-14.74611056-2.3530276-3.00919433-5.15761072-1.98261103-12.54477683 3.61949987-15.14122108 1.72861104-.8008055 4.02519429-1.16769436 6.88974974-1.0971388 3.22086099.0776111 6.38527754.62088883 9.49324964 1.6298332.1093611.03527778.16227777.1093611.15875.22577776-.22930555 6.04308288-.76905553 12.3154713-5.41513869 16.73577652"/><path fill="#b4eede" d="M67.0379498 72.34064034c1.56986106.67027773 2.54352769 1.10419436 2.92805545 1.3017499 5.6197498 2.89630534 11.32769402 5.48216625 17.13088825 7.76111053.17991666.07055555.29633332.24341665.29280554.4374444l-.1411111 10.85497141c0 .15169444-.0635.18344443-.18697222.09877777-3.87702763-2.67758313-8.24794413-4.47674966-13.10922173-5.39044404-.9136944-.1728611-1.89794437-.52916662-2.95980544-1.07244436.2046111-.15169443.127-.35277775-.2363611-.60324995-2.7163888-1.87324986-4.91772204-4.8471663-4.84011093-8.2197216.0458611-1.86619431.41980554-3.59127751 1.12183329-5.16819406"/><path fill="#229164" d="M136.03351944 84.38341443c-2.4369888-.1964972-4.24673873-2.41899704-4.04212763-4.96816907.2046111-2.54846647 2.34597213-4.45346633 4.78437204-4.25873301 2.4369888.19684998 4.24673873 2.41934982 4.04177485 4.96852185-.20425833 2.54846647-2.34561936 4.45346633-4.78401926 4.25838023"/><path fill="#ddf7f3" d="m118.06725344 78.04858435-.86077774.00705556c-.1093611.00352778-.2046111.04233333-.27869444.12347221-4.21922206 4.62138854-8.33613857 8.66422157-11.26066624 14.30866559-.15169444.29280553-.19755555.67733328-.13758333 1.15005547l-1.37936106 1.57338877c-3.05152766 1.89441652-5.5068609 4.1874719-7.36599972 6.8862217-.10583333.15522221-.28927777.49388885-.54680553 1.01599992-.17638889.35277776-.39158332.6738055-.64558331.96308327l-.03175-11.59580469.00352778-2.97391644c0-.34219442.16933332-.66322217.45155553-.85372216 2.98097211-2.02847207 6.06424978-4.0322497 9.24983299-6.01486065 4.04988874-2.51883315 8.32202746-4.74838853 12.81641618-6.69219394.25047222-.1093611.35277777-.02822222.30691666.24341664l-.32102777 1.85913875"/><path fill="#b4eede" d="M118.06725344 78.04858435c-.59266664 3.47486085-.13052777 6.91091615 1.3899444 10.31522145-3.7711943 1.04069436-6.26180532 1.78505542-7.46830528 2.23308316-1.42874994.52916663-3.5806943 1.54163878-6.45936087 3.04094422-.05997222-.47272219-.0141111-.85724994.13758333-1.15005547 2.92452767-5.64444402 7.04144418-9.68727705 11.26066624-14.30866559.07408334-.08113888.16933333-.11994443.27869444-.12347221l.86077774-.00705556"/><path fill="#166d53" d="M127.64164197 86.5893337c3.30905543 5.27402739 9.85661074 6.14891621 14.74611056 2.35302761 1.25236106.0458611 2.4764999.26458331 3.66536097.64911106.10936111.03527778.1728611.1093611.18697222.22577776.02469444.20108332.13052777.35630553.31749999.47272219.09172222.05291666.19755554.07055555.2998611.0458611.14816666-.03880555.28927776-.02822221.42333331.03175.13758333.05997222.13052778.08819444-.02116666.08819444h-.18697222c-.0635 0-.08113888.08819444-.02116666.1093611 1.05833329.42686108 2.33891658.67027773 3.84527763.73377773-5.26344425 7.05555502-14.35805502 10.23761034-22.45783249 6.2900273-.1093611-.05644444-.21872221-.05291666-.32808332.01058333-4.2439165 2.46591648-8.1421108 5.65502736-11.70163845 9.5708604-6.74158308 7.41538832-12.29077731 12.21669352-19.75555481 17.02152649-.61736109.39863886-1.03716663.80786105-1.06186107 1.61219432-.03175 1.07597214-.04233333 2.1343054-.03527778 3.17852754-.41980554.6420555-.57502776 1.379361-.46213887 2.2119165.01763889.12347221-.03527778.20108332-.15522222.23283331-.9136944.2504722-1.82738882.5185833-2.73402767.79727772-.20108333.05997222-.3633611.08466666-.47977776.07055555-.1093611-.01058333-.21166666.00352778-.31397221.04233333l-3.26319432 1.33702768c-.10230556.04233333-.1905.02116666-.25752777-.06702777-.02116667-.02822222-.05291667-.04586111-.09877778-.05644444-.11641666-.0176389-.19049999.02822222-.22577777.13758332l-.29280554.89252771c.15169444-.99130548.03527778-1.67216654-.34219443-2.04611096-4.13102762-4.10280524-9.13341632-8.59366602-15.00363833-13.47258231-.12347221-.10230555-.17991666-.07408333-.16933332.08466666.03175.41627774.13758332.82902771.32102776 1.2382499 2.12724992 4.75897187 4.54024983 9.40505485 7.23899973 13.93472117-.56444442-.13758332-.98424996-.10230554-1.2629444.09877777-.09525.06702778-.2046111.09877777-.32102776.08819444-.39863888-.03175-.76552775.05997222-1.10066663.2822222-.09172222.05997222-.19402777.09172222-.30338888.09172222-.86430552-.01058333-1.59808327.0776111-2.19780547.27163887-.95955552.3139722-2.05669437.83608327-3.29494432 1.56986099-.04233333.02469444-.07055555.01411111-.08819444-.03175-.01411111-.03527777-.01763889-.07408333-.01411111-.11641666.01058333-.06702777-.08113889-.09877777-.11641666-.03880555l-1.00541663 1.75330542c-.01763889.02822222-.02822222.02469445-.03527778-.00705555-.01058333-.03175-.02116666-.05997222-.03527777-.09172222-.0176389-.03527777-.06702778-.03880555-.08819445-.00352777-.04938888.08113888-.05997222.20813887-.03175.38452775-3.76766652-1.98966652-7.57766638-3.15030532-11.42999956-3.47838863-4.24744429-.36336108-9.59202742.24341665-13.94177726-1.28411102-8.55486079-3.00566644-15.28233276-8.44549936-20.17888813-16.31949876 1.47813883-.20108332 2.96333322.05997221 4.45558317.79022216.1093611.05291666.18344443.02469444.22930554-.08819444l.08113889-.20813887c.0458611-.11641666.127-.15522221.24341666-.11994444l1.98613881.5961944c.05644444.01763889.08466667.05644444.08466667.11641666v.12699999c0 .08466666.09877777.12699999.16227777.07055555.52563887-.46213885 1.10066662-.5326944 1.72861104-.21166665.09172222.04938888.19402777.06702777.29280555.04938888l1.43227772-.20813887c3.7711943 4.20158302 8.89352744 7.63058276 14.54855501 8.50899936 3.1079721.47977774 7.9692497.02469444 11.51466623.52563885 2.26483325.32102775 4.4344165.85019438 6.51227754 1.59455543.17638888.0635.33866665-.1234722.25047221-.28927775-2.25424992-4.26155524-4.49438872-9.36272152-4.20511095-14.18872115.13758332-.54680552.127-1.01599993-.02822222-1.40758323-.0176389-.03880555-.00705556-.07055555.03175-.09172222.03175-.0141111.05997221-.02822222.09172221-.04233333.07055556-.03175.09172222-.08113888.06702778-.15169443-.08819444-.2363611-.03527778-.43038886.16580555-.58208329.07408333-.05997222.15522221-.05997222.2363611-.00705555.16580555.11288888.3457222.14816665.54680553.10230554.07055556-.0141111.12347222-.05291666.15875-.11288888.11994444-.21166665.09525-.38452775-.07055555-.5185833-.11994444-.09877776-.03175-.28927775.11994444-.26811108.27163887.04233333.49388887-.04233333.6632222-.2504722.08819443-.1093611.19755554-.18697221.32808331-.2363611l1.21002774-.44097219c.11994444-.0458611.20108332-.12347221.24694443-.23988887.03880556-.09525.05291667-.1869722.04233333-.27516664-.00705555-.04233333.01058334-.07055555.05291667-.08466666l.36688887-.11641666c.02469445-.01058334.02822222-.02469445.01058334-.04233333l-.07761111-.0776111c-.0635-.06702778-.04233333-.17991666.0458611-.21166666l1.99319438-.7831666c.10230555-.04233334.19049999-.10583333.26105554-.19402777.07408333-.09525.17638888-.16580554.30691666-.21519443.02116666-.01058333.03175-.00352778.03527777.01763889.00352778.0458611.01411111.09172221.03175.13052777.05997222.12699999.13052778.13405554.21166666.02116666l.0635-.08466666c.04938889-.07055555.15522222-.0635.19755555.01411111.08819444.1728611.24341665.21166665.46213887.11288888 5.870222 3.80647194 11.2677218 8.2197216 16.18897161 13.239749.09525.09525.1411111.07761111.1411111-.05997221l-.02822221-19.10997078c0-.10230555-.05291667-.20108332-.1411111-.25752776l-4.04283319-2.69169424c.03880555-.07055555.0776111-.12347222.12347222-.15522221.0776111-.05997222.15169444-.05291667.21872221.01763888.2363611.23988887.5221111.19049999.85019441-.14463888.04586111-.0458611.11994444.00352778.09525.0635-.03175.07408333-.05997222.1411111-.09172222.20108332-.00705555.01763889-.00352778.02469444.01411111.0141111l.254-.14816665c.05997221-.03527777.07055555-.11994443.02116666-.16933332l-.1093611-.11288888c-.03880556-.03880555-.03527779-.07408333.01058332-.10230555.6173611-.37394441.86430553-.93838881 1.42522217-1.29469434 1.82386105-1.16769436 3.68299986-2.26483317 5.58094424-3.29847198.24341666-.13405554.45508331-.15169443.63499997-.05291666.03880556.01763889.0635.01058333.08113889-.02822222.08819444-.1869722.18344444-.31044442.28927777-.36688886.34924998-.19049999 1.00541663-.45155552 1.96849992-.78669439.10230555-.03880555.18697222-.10230554.24694444-.19049998.20813888-.30691664.49741665-.50799996.8678333-.60324996l.03175 11.59580469-.08113889 8.94291599.04233333 2.51177759c.00352778.11641665.14463889.16933332.22225.08466666.2504722-.2681111.33866665-.50447219.62441664-.7231944 6.92149974-5.3163607 12.05441621-11.02077694 17.8152771-16.87688761 1.87324994-1.90147208 4.32858318-3.75355527 7.36599973-5.55977736.1093611-.06702777.15875-.16227776.1411111-.28927775-.01763888-.11641666-.06702777-.2363611-.15522221-.36336109l-.04938889-.65263884c-.01058333-.11288888.09172222-.2046111.2046111-.19049998.27163888.03880555.41627777-.0776111.43391666-.35277775.00352777-.08113889-.03175-.13405555-.11288889-.15522222-.07055555-.01763888-.09172222-.07055555-.06702777-.15874998.11641666-.3915833.37394443-.50447219.7725833-.3457222.09525.03880555.20813888.00352778.26458332-.08113888.38099999-.57149996.84313886-.44802775 1.28763884-.8784166.72319442-.69849995 1.55927772-1.20297213 2.29305547-1.90499986.27516666-.26458331.62441665-.43038886 1.04774996-.49388885"/><path fill="#8cdbc3" d="m119.45719784 88.3638058 2.10961103 3.43958307c.08819444.127.13758333.24694443.15522221.36336109.0176389.12699999-.03175.22224998-.1411111.28927775-3.03741655 1.80622209-5.4927498 3.65830528-7.36599972 5.55977736-5.7608609 5.85611067-10.89377737 11.5605269-17.81527711 16.87688762-.28575.2187222-.37394443.4550833-.62441665.72319439-.0776111.08466666-.2187222.03175-.22224999-.08466666l-.04233333-2.5117776c.18697222.17991666.34219443.28574999.46919443.3139722.12347222.02469445.22930555-.07055554.32102776-.29280553 2.36008325-5.84199956 4.97416648-11.78630466 7.84930526-17.82938754l1.37936106-1.57338877c2.87866656-1.49930544 5.03061093-2.51177759 6.45936087-3.04094422 1.20649996-.44802774 3.69711097-1.1923888 7.46830528-2.23308316"/><path fill="#229164" d="M70.96083855 108.51799872c-.21872222.09877777-.37394443.05997222-.46213887-.11288888-.04233333-.0776111-.14816666-.08466666-.19755555-.0141111l-.0635.08466665c-.08113888.11288888-.15169444.10583333-.21166666-.02116666-.01763889-.03880556-.02822222-.08466666-.03175-.13052777-.00352777-.02116667-.0141111-.02822222-.03527777-.01763889-.13052778.04938889-.23283333.11994444-.30691666.21519443-.07055555.08819444-.15875.15169443-.26105554.19402776l-1.99319437.78316661c-.08819444.03175-.10936111.14463888-.04586111.21166665l.0776111.0776111c.0176389.0176389.01411112.03175-.01058333.04233334l-.36688887.11641666c-.04233333.0141111-.05997222.04233333-.05291667.08466666.01058334.08819443-.00352777.17991665-.04233333.27516664-.0458611.11641666-.127.19402776-.24694443.23988887l-1.21002774.4409722c-.13052777.04938888-.23988888.12699998-.32808332.23636108-.16933332.20813888-.39158332.29280554-.6632222.2504722-.15169443-.02116666-.23988887.16933333-.11994443.2681111.16580555.13405554.19049999.30691664.07055555.5185833-.03527778.05997221-.08819444.09877776-.15875.11288887-.20108332.04586111-.38099998.01058334-.54680553-.10230554-.08113889-.05291667-.16227777-.05291667-.2363611.00705555-.20108333.15169443-.254.3457222-.16580555.58208329.02469444.07055555.00352778.11994444-.06702778.15169443-.03175.01411111-.05997222.02822222-.09172222.04233333-.03880555.02116667-.04938888.05291667-.03175.09172222.15522222.3915833.16580555.86077771.02822223 1.40758323.15169444-.63147218.03527777-1.07949992-.35277777-1.34055546-4.85774982-3.25966642-10.67858293-6.34294397-17.45544379-9.24983263-2.99508322-1.28411102-5.75733311-2.26483317-8.28674968-2.93863867-3.34080543-.89958327-7.05908307-1.50283322-11.16188847-1.80974987-.12347222-.01058333-.17638889.04586111-.15875.16933332.81491664 6.32530508 3.13266655 11.94858244 6.9603053 16.86277651l1.83444437 2.15547206-1.43227772.20813887c-.09877778.0176389-.20108333 0-.29280555-.04938888-.62794442-.32102775-1.20297217-.2504722-1.72861104.21166665-.0635.05644444-.16227777.01411111-.16227777-.07055555v-.127c0-.0599722-.02822223-.09877776-.08466667-.11641665l-1.98613881-.5961944c-.11641666-.03527777-.19755555.00352778-.24341666.11994444l-.08113889.20813887c-.0458611.11288888-.11994444.1411111-.22930554.08819444-1.49224995-.73024995-2.97744434-.99130548-4.45558317-.79022216-4.1980554-6.4170273-5.96899977-13.40908233-6.78038863-21.11022064-.2363611-2.2577776-.91722219-5.52449958 2.53647212-5.55624958 11.00313848-.10583332 21.53002697 2.18369428 31.58066548 6.8721106 7.00969418 3.26672197 13.59605505 6.87563837 19.75202704 10.8232214"/><path fill="#b4eede" d="M104.15017063 95.21122195c-2.87513878 6.04308288-5.48922201 11.98738798-7.84930526 17.82938754-.09172221.22224999-.19755554.31749998-.32102776.29280554-.127-.02822222-.28222221-.13405555-.46919443-.3139722l.08113889-8.942916c.25399999-.28927775.46919442-.6103055.6455833-.96308326.25752777-.52211107.44097221-.8607777.54680554-1.01599992 1.85913882-2.6987498 4.31447206-4.99180518 7.36599972-6.8862217"/><path fill="#ddf7f3" d="M37.09417316 101.02499929c2.57880545 6.59341617 6.60399975 11.94858243 12.07558287 16.06549879.03880556.03175.05291667.08466666.02822223.13052776l-.06702778.12347222c-.05997222.1093611-.14816666.1411111-.26458332.09524999-.29280555-.11994444-.72319442-.20108332-1.28411107-.23988887-5.58094423-.39863886-9.66611074-.6279444-12.25902731-.69497217-.37041666-.01058333-1.03716663-.1869722-2.00024993-.53622218-.11641666-.04233333-.2046111-.01411111-.27163888.08819444-.0635.09524999-.16933332.15874998-.31749998.19049998-3.82763875-4.91419407-6.14538866-10.53747143-6.9603053-16.8627765-.01763889-.12347222.03527778-.17991666.15875-.16933333 4.1028054.30691665 7.82108304.9101666 11.16188847 1.80974987"/><path fill="#8cdbc3" d="M37.09417316 101.02499929c2.52941657.6738055 5.29166646 1.65452765 8.28674968 2.93863867 6.77686086 2.90688866 12.59769397 5.99016621 17.4554438 9.24983263.38805553.26105554.5044722.70908328.35277776 1.34055546-.28927777 4.82599963 1.95086103 9.92716591 4.20511095 14.18872115.08819444.16580554-.07408333.35277775-.25047221.28927775-2.07786104-.74436105-4.24744429-1.27352768-6.51227754-1.59455543-3.54541653-.5009444-8.40669412-.0458611-11.51466623-.52563885-5.65502757-.8784166-10.7773607-4.30741634-14.548555-8.50899936l-1.83444438-2.15547206c.14816666-.03175.25399999-.09525.31749998-.19049998.06702778-.10230555.15522222-.13052777.27163888-.08819444.9630833.34924997 1.62983327.52563885 2.00024993.53622218 2.59291657.06702777 6.67808308.29633331 12.25902731.69497217.56091665.03880555.99130552.11994443 1.28411107.23988887.11641666.0458611.2046111.01411111.26458332-.09525l.06702778-.1234722c.02469444-.04586111.01058333-.09877778-.02822223-.13052777-5.47158312-4.11691636-9.49677742-9.47208262-12.07558287-16.0654988"/><path fill="#71bda6" d="m87.27328238 134.58121898-.11288888 8.48077714c-.00352778.25752776-.08819445.28574998-.254.09172221-2.53647212-3.00919421-5.44688868-5.60563846-7.58824971-8.83355489-2.6987499-4.52966632-5.1117498-9.1757493-7.23899973-13.93472117-.18344444-.40922219-.28927776-.82197216-.32102776-1.2382499-.01058334-.15875.0458611-.18697221.16933332-.08466666 5.870222 4.8789163 10.8726107 9.36977707 15.00363833 13.47258231.3774722.37394442.49388887 1.05480548.34219443 2.04611096"/><path fill="#166d53" d="M158.18514082 143.10785723c-.09172221-.08819444-.17991666-.1411111-.26105554-.16580555-.13405555-.03880555-.26105555.07055555-.25047221.20813888.06702777.69497217-.27163888 1.0195277-1.01247219.97013881-.35277776-.02469444-.58913886.3598333-.4092222.66322217.13052777.22224999.09877777.4233333-.09525.60324996-.03880556.03880555-.08819444.04938888-.1411111.02822222-.37394444-.15169443-.69144443-.07055555-.95249997.2363611-.0635.0776111-.127.0776111-.19402777.00352777-.04586111-.05291666-.10230555-.08466666-.1728611-.10230555-.0811389-.02116666-.17286111-.00352778-.28222222.05291666-.76905552.40569442-1.59102772.68086106-2.46944435.8325555-.09525.01763888-.14816666-.02469445-.15875-.11994444l-.3633611-4.19452746c-.01058332-.11641666-.05997221-.20813887-.1552222-.27516665-.28575-.20813887-.35630555-.45861107-.20461111-.7514166.07055555-.1411111.03175-.22930554-.11994444-.2681111l-.63499998-.16580554c1.86972216-3.67241639 3.07974989-7.58824943 3.62655542-11.74397134.0176389-.14463887-.0458611-.2187222-.19049999-.22224998l-7.95513859-.18344443c-.14463888-.00352778-.2363611.06702777-.27516666.2046111-1.41816661 4.8789163-4.77308315 8.99230487-8.3961108 12.31899907-.2363611-.00705556-.45861109.0776111-.66674997.25752775-.0458611.03880556-.07055555.02822223-.07408333-.03527777l-.00352778-.16227777c-.00352777-.1411111-.07055555-.19755554-.20813888-.16933332-.5044722.10583333-1.01599996.15169444-1.52752772.1411111-1.1676944-.02469444-2.32480546-.13758332-3.47486098-.33513886-.0635.03880555-.11288888.03175-.14816666-.02822222-.03527777-.05644444-.08819444-.08819444-.15522221-.09525l-4.93536093-.52916662c.16933333-.10230555.29633332-.21519443.3774722-.3457222 3.98991652-3.01624977 7.64116639-6.3217773 10.9537496-9.92363814.0776111-.08113888 0-.21166665-.10936111-.19049998-5.46452757 1.0971388-10.6997496 2.76930535-15.7021383 5.01649962-.46919443-.23283332-.9313333-.16580554-1.38641661.2046111-.07408333.05997221-.15875.07408332-.24694444.03527777-.15522222-.0635-.29280554-.0141111-.41274998.15169443-.04233334.05644444-.02822222.09172222.0458611.1093611.03880556.01058334.04233334.02822223.01411112.05291667l-.13758333.1411111c-.03880556.03880555-.07408333.03175-.10230555-.01411111l-.11641667-.19755554c-.04938888-.08466666-.12347221-.11641666-.21872221-.09172222l-1.6898055.41274997c-.0458611.01058334-.07055554.04233333-.06702777.08819444.00352778.04938889.02469445.08819444.05997222.11288888.02469445.01763889.02469445.03175 0 .04938889-.3774722.26458331-.78669441.3915833-1.22766662.37394441-.07408333-.00352778-.14463888-.01763889-.21166666-.04233333-.127-.04938888-.2504722-.05291666-.37041665-.0141111-.0776111.02469443-.15875.03880554-.24341666.03527777-.50799998-.01763889-1.0089444.02822222-1.4993055.13405554-.5044722.1093611-.9454444.14816666-1.32997217.11641666-.98424996-.07408333-1.96849992-.03880555-2.95274989.1093611-.09877777.01411111-.19755554.01058334-.29280554-.01058333-.27163888-.05644444-.50799998-.0141111-.7090833.127-.06702778.0458611-.14111111.06349999-.22225.05291665l-2.50472213-.37041663c-.06702777-.01058334-.13052777-.03175-.1905-.07055555-.08819443-.05291667-.19049998-.0635-.30691665-.02469445-.08819444.02822222-.1728611.02469445-.25399999-.01058333-.27163887-.11641666-.52211109-.05644444-.74436108.1869722-.06702777.07408334-.15169444.09877778-.25047221.07055556-.08819444-.02469444-.18344444-.08113888-.27869444-.16580554 7.67997194-5.85963845 16.1607494-9.95186037 25.36472127-12.80583237 9.57438853-2.96333311 19.19816595-3.53836085 29.18177668-2.56469425 2.7304999.26458331 4.32152762.27163886 4.24391651 3.37608308-.16933333 6.64280505-1.56986105 12.94694346-4.20158318 18.91241524"/><path fill="#105a49" d="m95.5565043 128.98263607.01763888 14.17813782c0 .14816665.05291666.16933332.15522222.0635 2.46944435-2.49766648 5.09058314-4.84363853 7.86694414-7.03438836.09525.08466666.1905.1411111.27869444.16580554.09877777.02822222.18344444.00352778.25047221-.07055555.22225-.24341665.4727222-.30338887.74436108-.18697221.08113889.03527778.16580555.03880555.254.01058333.11641666-.03880555.2187222-.02822222.30691665.02469445.05997222.03880555.12347222.05997221.1905.07055555l2.50472212.37041663c.08113889.01058334.15522222-.00705555.22225-.05291666.20108332-.1411111.43744442-.18344443.7090833-.12699999.09525.02116667.19402777.02469444.29280554.01058333.98424997-.14816665 1.96849993-.18344443 2.9527499-.1093611.38452776.03175.82549996-.00705555 1.32997216-.11641666.4903611-.10583332.99130552-.15169443 1.4993055-.13405554.08466667.00352777.16580555-.01058334.24341666-.03527778.11994444-.03880555.24341666-.03527777.37041665.01411111.06702778.02469444.13758333.03880555.21166666.04233333.4409722.01763889.85019441-.1093611 1.22766662-.37394441.02469445-.0176389.02469445-.03175 0-.04938889-.03527777-.02469444-.05644444-.0635-.05997222-.11288888-.00352777-.0458611.02116667-.0776111.06702778-.08819444l1.68980549-.41274997c.09525-.02469444.16933333.00705556.21872221.09172222l.11641667.19755554c.02822222.0458611.0635.05291666.10230555.01411111l.13758333-.1411111c.02822222-.02469444.02469444-.04233333-.01411111-.05291666-.07408333-.0176389-.08819445-.05291667-.04586111-.1093611.11994444-.16580555.25752776-.21519443.41274998-.15169444.08819444.03880555.1728611.02469444.24694444-.03527777.45508331-.37041664.91722218-.43744442 1.38641661-.2046111-4.25097206 1.95086096-8.25147191 4.29683301-12.0085551 7.04144391-4.55436094 3.43958308-8.83002745 7.21077724-12.83405508 11.32063804-1.09713884 1.12536103-1.13947218 2.07786095-.91016663 3.55599973l-.0776111.35277775-.35983333-2.4306387c-.01763889-.1093611.01411111-.20108332.09525-.27516665.1905-.17991665.22577777-.38099997.10230555-.60324995-.16227777-.29280554-.24694443-.44802775-.25047221-.46566664-.13052777-.40922219-.20813888-.83255549-.22577777-1.26647212-.00352778-.07055555-.03527778-.11641666-.10230555-.13758333-.05997222-.02116666-.10230555-.07055555-.12347222-.14463887-.01763889-.07055555-.01058333-.127.02116667-.16933332.02822222-.03175.02469444-.0635-.00705556-.09172222-.2046111-.17991665-.38099999-.27163887-.52563887-.27869442-1.8626666-.08819444-3.72886097-.08466666-5.6021109.01763889-.12347222.00705555-.20813888.06702777-.25399999.17991665l-.21519444.52211107c-.05291666.13405555-.1411111.15874999-.26105554.0776111-.2363611-.16227776-.48330554-.12699999-.7408333.10230555-.07055556.05997222-.10936111.13758333-.11641667.22930554-.00705555.0635-.03527778.11641666-.08113889.15522221-.0141111.01058333-.01763888.03175-.00705555.04586111.01058333.01763889.02822222.02116666.0458611.01411111.04233334-.01763889.08466667-.03880555.12347223-.05644444.05291666-.02469444.08466666-.01058333.09172222.04938888l.09525.7231944c.04233332.32102775-.03880556.35630552-.24341667.1093611l-.11288888-.13758333c-.07055555-.08466666-.14463888-.08819443-.22225-.01058333-.35630553.34219442-.4409722.66322217-.25399998.96308326.06702777.1093611.0458611.19049999-.07055556.24694443-.0635.02822222-.1411111.04233333-.23283332.0458611-4.50849983-6.23005508-10.09297184-11.99444353-16.75694381-15.75152658-.02822223-.17638888-.0176389-.30338887.03175-.38452775.02116666-.03527778.07055555-.03175.08819444.00352777.0141111.03175.02469444.05997222.03527777.09172222.00705556.03175.01763889.03527777.03527778.00705555l1.00541663-1.75330542c.03527777-.05997222.127-.02822222.11641666.03880555-.00352778.04233333 0 .08113889.01411111.11641666.01763889.04586111.0458611.05644444.08819444.03175 1.23824995-.73377772 2.3353888-1.2558888 3.29494432-1.569861.5997222-.19402776 1.33349995-.2822222 2.19780547-.27163886.10936111 0 .21166666-.03175.30338888-.09172222.33513888-.22224998.70202775-.3139722 1.10066663-.2822222.11641666.01058333.22577777-.02116666.32102776-.08819444.27869444-.20108331.69849998-.23636109 1.2629444-.09877777 2.14136103 3.22791643 5.05177759 5.82436068 7.58824971 8.8335549.16580555.19402776.25047222.16580554.254-.09172222l.11288888-8.48077714.29280554-.89252771c.03527778-.1093611.10936111-.15522221.22577777-.13758332.04586111.01058333.07761111.02822222.09877778.05644444.06702777.08819443.15522221.1093611.25752777.06702777l3.26319432-1.33702768c.10230555-.03880555.2046111-.05291666.3139722-.04233333.11641667.01411111.27869444-.01058333.47977777-.07055555.90663885-.27869442 1.82033326-.54680551 2.73402767-.79727772.11994444-.03175.1728611-.1093611.15522222-.23283331-.11288889-.8325555.04233333-1.569861.46213887-2.2119165"/><path fill="#8cdbc3" d="M126.30108647 139.73530192c-1.96497215-.11994443-3.9299443-.02116666-5.8878609.29633332-.45861109.07408332-.9771944.05997221-1.55574993-.03527778-1.04774996-.17638887-2.0849166-.12347221-3.1079721.16227777-.95249997.26105553-1.9438055.36336108-2.87161101.79022216-.1093611.05291666-.22577777.0635-.34572221.03527777-1.17827773-.27163886-1.91205548.56091663-2.72344434 1.18180547-.16227777.11994444-.39158332.00352778-.38452777-.19755554l.01058334-.28927776c3.75708319-2.7446109 7.75758304-5.09058295 12.0085551-7.04144391 5.0023887-2.24719427 10.23761073-3.91936082 15.7021383-5.01649962.1093611-.02116667.18697221.1093611.1093611.19049998-3.3125832 3.60186084-6.96383307 6.90738837-10.95374958 9.92363814"/><path fill="#71bda6" d="M126.30108647 139.73530192c-.08113889.13052777-.20813888.24341665-.37747221.3457222-5.64444423 4.6601941-11.54994401 8.91822155-17.72002711 12.77761015-.7408333.46213885-2.33891658 1.64041654-4.7977776 3.53483307-2.49766657-.26105554-4.79072204-.19755555-6.88269418.1869722-.34219444.0635-.6173611.05644444-.83255553-.02469444-.22930555-1.47813878-.18697221-2.4306387.91016663-3.55599973 4.00402763-4.1098608 8.27969414-7.88105496 12.83405508-11.32063804l-.01058334.28927776c-.00705555.20108332.22225.31749998.38452777.19755554.81138886-.62088884 1.5451666-1.45344433 2.72344434-1.18180547.11994444.02822222.2363611.0176389.3457222-.03527777.92780553-.42686108 1.91911105-.52916663 2.87161101-.79022216 1.02305552-.28574998 2.06022215-.33866664 3.1079721-.16227777.57855554.09525 1.09713885.1093611 1.55574995.03527778 1.9579166-.31749998 3.92288874-.41627775 5.88786089-.29633332"/><path fill="#084b41" d="M137.11725273 141.03705183c-5.29519425 4.80130519-9.71902741 8.39963825-13.27502728 10.7914714-6.5016942 4.37444412-10.75266626 7.27074946-12.74938841 8.6924438-6.30061087 4.48733299-11.37002735 10.26230478-15.2117772 17.32138758-.21872222.40569441-.32808333 1.15005547-.32455555 2.23661094.03527778 10.85144363.01411111 21.70288725-.0635 32.55433088-.01058333 1.48166655-.17991666 2.56116647-.51505553 3.23849975-.9630833 1.9614443-3.34433321 2.83633312-5.3657498 2.01436096-2.38830547-.97013881-2.44827769-3.51013862-2.42358324-5.79261067.04938888-4.87186074.08113888-9.67669372.09172222-14.40744336 0-.23283331-.12347222-.45155552-.32455555-.57502773-6.01486088-3.6089164-12.09674954-6.49111062-18.69722152-8.879416-1.83797215-.66674995-4.29683317-1.55927766-7.37305528-2.6811109-7.35541639-2.6846387-13.3984995-7.05908281-18.12924931-13.1303879.2046111-.15169444.43038887-.2822222.68086108-.38452776.22930555-.09877777.48330554-.13052777.7584722-.09524999.86077774.1093611 1.66158327.38099997 2.3988888.8149166.3457222.2046111.68791663.20108332 1.02658329.03880556.70555553-.33513887 1.39699995-.7055555 2.07080548-1.10772214.08819444-.05291666.17991666-.0635.27516665-.03175l3.01977767.94897215c.09877777.03175.19049999.01763889.27869443-.04233333l.25752777-.16933332c5.21405536 4.32152745 10.78441626 6.05719399 17.43427712 8.30438826.73730553.2504722 1.33702773.55386107 1.99319437.9736666.17638888.11641666.22930555.07408333.15875-.12347222-1.31233329-3.58422195-2.01788882-7.31308278-2.12019437-11.19011026l-.07408333-1.29116657c.4727222.22224998.70555553.66674995.70202775 1.32997212-.00352778.20813887.27869443.27516665.37394443.09172222.01058333-.02469445.04233333-.05997222.08819444-.1093611.04586111-.0493889.09172222-.05291667.14463889-.01058334.32102776.26458331.68791664.37041664 1.10066662.32102775.11641666-.01763888.21166666.02116667.28222221.11641666l.07761111.10230555c.08819444.11641666.17991666.12347221.27516666.0141111.17638888-.2010833.37394443-.37747218.59266664-.53622217.01058333-.00705556.02116667-.00705556.03175 0 .03527778.02469444.04233333.05291666.02469444.09172221-.03880555.07408333-.01763888.10230555.0635.09172222.30338888-.04938889.55738887-.17638888.76552775-.3774722.69849997-.69144439 1.41816661-.8008055 2.39536102-.61383328.13052777.02469444.254-.05644444.28927777-.18344443.19402777-.70202773.49741665-1.2558888.91016663-1.65805543.04938889 6.1171662.85724997 12.40013795 5.10469425 17.23319314.73024998.82902772 1.65452772 1.77447209 2.77283323 2.82927757.11641666.1093611.1728611.08466666.1728611-.07408333l.15169445-15.23647108c.02469444-5.49274958.05291666-10.78441585.08466666-15.86794324.00352778-.61030551-.37394443-1.37583323-1.13947218-2.29658316.09172222-.00352778.16933333-.0176389.23283332-.04586111.11641667-.05644444.13758333-.13758332.07055556-.24694443-.18697222-.29986109-.10230555-.62088884.25399999-.96308326.0776111-.0776111.15169444-.07408333.22224999.01058333l.11288888.13758333c.2046111.24694442.28575.21166665.24341666-.1093611l-.09525-.7231944c-.00705555-.05997221-.03880555-.07408332-.09172221-.04938888-.03880556.01763889-.08113889.03880555-.12347222.05644444-.01763889.00705555-.03527778.00352778-.04586111-.01411111-.01058333-.01411111-.00705556-.03527778.00705555-.0458611.04586111-.03880556.07408334-.09172222.0811389-.15522222.00705555-.09172221.0458611-.16933332.11641665-.22930554.25752777-.22930554.5044722-.26458331.7408333-.10230554.11994445.08113888.20813889.05644444.26105555-.07761111l.21519444-.52211107c.04586111-.11288888.13052777-.1728611.254-.17991665 1.87324992-.10230555 3.7394443-.10583333 5.6021109-.0176389.14463887.00705556.32102776.09877778.52563886.27869443.03175.02822222.03527778.05997222.00705556.09172222-.03175.04233333-.03880556.09877777-.02116667.16933332.02116667.07408332.0635.12347221.12347222.14463887.06702777.02116667.09877777.06702778.10230555.13758333.01763889.43391663.09525.85724993.22577777 1.26647212.00352778.0176389.08819444.1728611.25047221.46566664.12347222.22224998.08819444.4233333-.10230555.60324995-.08113889.07408333-.11288889.16580554-.09525.27516665l.35983332 2.4306387-.03175 6.96383281c0 .16580554.05291667.18344443.15875.05997222 2.27541658-2.6352498 4.83305537-5.1470274 7.66586082-7.53886054 2.45886102-1.89441653 4.0569443-3.07269422 4.7977776-3.53483307 6.1700831-3.8593886 12.07558288-8.11741606 17.72002711-12.77761015l4.93536093.52916663c.06702777.00705555.11994444.03880555.15522221.09524999.03527778.05997222.08466667.06702777.14816666.02822222 1.15005552.19755554 2.30716658.31044442 3.47486098.33513886.51152776.01058334 1.02305552-.03527777 1.52752772-.1411111.13758333-.02822222.2046111.02822222.20813888.16933332l.00352778.16227777c.00352778.0635.02822222.07408333.07408333.03527777.20813888-.17991665.43038888-.2645833.66674998-.25752775m13.19036061-.37394442.63499998.16580554c.15169444.03880556.1905.127.11994444.2681111-.15169444.29280553-.08113889.54327773.2046111.7514166.09525.06702778.14463889.15875.15522222.27516665l.3633611 4.19452746c.01058333.09525.0635.13758332.15875.11994444.87841662-.15169444 1.70038882-.42686108 2.46944434-.8325555.1093611-.05644444.20108333-.07408332.28222221-.05291666.07055556.01763889.127.04938889.1728611.10230555.06702778.07408333.13052778.07408333.19402778-.00352778.26105554-.30691664.57855553-.38805552.95249996-.2363611.05291667.02116667.10230555.01058334.1411111-.02822221.19402778-.17991665.22577778-.38099997.09525-.60324996-.17991665-.30338886.05644445-.68791661.40922221-.66322217.7408333.04938889 1.07949996-.27516664 1.01247219-.97013881-.01058334-.13758333.11641666-.24694443.2504722-.20813888.0811389.02469445.16933334.0776111.26105555.16580555-4.76955537 9.30980485-11.41941623 15.53985994-21.96041584 17.64947089-1.09008329.2187222-2.01083325.08466666-2.76577767-.39863886-2.06022214-1.3193888-2.29658325-5.6938329.01411111-6.87563837.2363611-.12347221.6949722-.2681111 1.3723055-.43391664 6.97088863-1.70391653 12.12497177-5.834944 15.46224942-12.38602684"/><path fill="#105a49" d="M58.83939456 154.22388417c-2.1307777-.16580555-4.38149984-.46566664-6.75569419-.89252771-3.19969432-.57502774-6.39586087-1.18180547-9.59202742-1.8203332-.13052777-.02469444-.18697221.02822222-.16580555.15874999.60324998 3.74649971 1.7356666 7.30602722 3.3937221 10.67505475 1.9085277 3.85586082 4.5120276 7.20724945 7.80344415 10.04711035l-.25752777.16933332c-.08819444.05997222-.17991666.07408333-.27869443.04233333l-3.01977767-.94897215c-.09525-.03175-.18697221-.02116666-.27516665.03175-.67380553.40216664-1.36524995.77258327-2.07080548 1.10772214-.33866666.16227776-.68086109.16580554-1.0265833-.03880555-.73730552-.43391664-1.53811105-.7055555-2.3988888-.81491661-.27516665-.03527778-.52916664-.00352778-.75847219.09525-.25047221.10230554-.47624998.2328333-.68086108.38452774-3.1397221-3.98638859-5.33752758-8.0786105-6.59341642-12.27313796-1.54163883-5.1611385-2.3530277-10.1035548-2.43416658-14.82724888-.03880555-2.34597205 1.1676944-3.28436087 3.61949987-2.81869424 6.5969442 1.25236102 13.20447172 2.45533315 19.82611036 3.61244418 2.82222212.49388885 4.16277762 1.00894436 4.19099984 4.07105524.0176389 1.79916654-.82197219 3.14677755-2.52588879 4.03930526"/><path fill="#8cdbc3" d="M58.83939456 154.22388417c4.21569429 1.32644434 8.00452748 3.22086086 11.36649957 5.67972179.12347222.09172222.22225.12699999.29633332.1093611.10936111-.02822222.19402778-.12699999.25047222-.2963333l.16227777 9.3486104.07408333 1.29116657c-.40569443.5785555-.87136108.85724993-1.39699995.83961105-1.30174995-.04938889-2.29305547-.08466667-3.44663876.14816665-.51152776.10230555-.9948333-.1093611-1.44286105-.63852773-2.839861-3.34786086-5.09058315-6.78744393-6.74511086-10.31874922-.04586111-.09877777-.14816666-.16227777-.25752777-.16227777-1.96144437.03175-3.8805554.19755554-5.75380534.49388885-.44449998.06702778-1.11477773.09877778-2.01436103.09172222-1.57338883-.01411111-2.97744434.49741663-4.21216651 1.53458322-1.6580555-3.36902753-2.79047212-6.92855504-3.3937221-10.67505475-.02116666-.13052777.03527778-.18344443.16580555-.15875 3.19616655.63852774 6.3923331 1.24530547 9.59202742 1.8203332 2.37419435.42686108 4.6249165.72672217 6.75569419.89252772"/><path fill="#105a49" d="m79.05356047 164.41210562-.02116667 3.32316642c-.41274998.40216663-.71613886.9560277-.91016663 1.65805543-.03527778.12699999-.15875.20813887-.28927777.18344443-.9771944-.18697221-1.69686105-.0776111-2.39536102.61383328-.20813888.20108332-.46213887.32808331-.76552775.3774722-.08113888.01058333-.10230555-.01763889-.0635-.09172222.0176389-.03880555.01058334-.06702777-.02469444-.09172221-.01058333-.00705556-.02116667-.00705556-.03175 0-.21872221.15874999-.41627776.33513886-.59266664.53622218-.09525.1093611-.18697222.10230555-.27516666-.01411111l-.0776111-.10230555c-.07055556-.09525-.16580556-.13405554-.28222222-.11641666-.41274998.04938889-.77963886-.05644444-1.10066662-.32102775-.05291667-.04233333-.09877778-.03880555-.14463889.01058333-.0458611.04938889-.0776111.08466666-.08819444.1093611-.09525.18344444-.3774722.11641666-.37394443-.09172221.00352778-.66322217-.22930555-1.10772214-.70202775-1.32997212l-.16227777-9.3486104c-.28575-2.92099979.02822222-6.86505505 3.98286096-6.4170273.98072218.1093611 1.8309166.50799996 2.55411101 1.18886102 1.83444438 1.73566653 1.92969438 3.45369418 1.80974994 6.19124953-.05291667 1.30880546-.07055556 2.55058314-.04586111 3.73238861"/><path fill="#229164" d="M103.40580955 156.39346734c-2.83280545 2.39183315-5.39044424 4.90361074-7.66586082 7.53886054-.10583333.12347221-.15875.10583332-.15875-.05997222l.03175-6.9638328.07761111-.35277776c.21519444.08113888.4903611.08819444.83255553.02469444 2.09197214-.38452775 4.3850276-.44802774 6.88269418-.1869722"/><path fill="#71bda6" d="M70.98906077 170.35641073c.10230555 3.87702748.80786108 7.60588831 2.12019436 11.19011026.07055556.19755555.0176389.23988888-.15874999.12347222-.65616664-.41980553-1.25588884-.7231944-1.99319437-.9736666-6.64986086-2.24719427-12.22022176-3.9828608-17.43427712-8.30438826-3.29141654-2.8398609-5.89491645-6.19124953-7.80344415-10.04711035 1.23472217-1.0371666 2.63877768-1.54869433 4.2121665-1.53458322.8995833.00705556 1.56986106-.02469444 2.01436104-.09172222 1.87324993-.2963333 3.79236097-.46213885 5.75380534-.49388885.1093611 0 .21166666.0635.25752777.16227777 1.65452771 3.53130529 3.90524985 6.97088836 6.74511086 10.31874922.44802776.52916663.9313333.74083328 1.44286105.63852773 1.1535833-.23283332 2.14488881-.19755554 3.44663876-.14816665.52563887.01763888.99130552-.26105554 1.39699995-.83961105"/><path fill="#084b41" d="M118.89592841 171.01363568c-2.5114249-.44908608-4.18006373-2.88678034-3.72392208-5.44724126.45755276-2.56187203 2.86349712-4.27284412 5.37562758-3.82587471 2.5114249.44908608 4.18006373 2.88678034 3.72392208 5.44688848-.45755276 2.5622248-2.86349712 4.2731969-5.37562758 3.82622749"/><path fill="#71bda6" d="M79.05356047 164.41210562c3.08680544 2.23308316 5.81377756 4.9247774 8.18091636 8.07508272l-.15169444 15.23647108c0 .15874999-.05644445.18344443-.1728611.07408333-1.11830552-1.05480548-2.04258326-2.00024985-2.77283324-2.82927757-4.24744428-4.83305519-5.05530536-11.11602694-5.10469425-17.23319314l.02116667-3.32316642"/><path fill="#084b41" d="M111.2727537 191.3819647c4.9565276-1.11124992 9.48266631-3.17147199 11.13013847-8.34319382.5362222-1.68627765.29280554-3.71122194.8678333-5.39044404 1.01952774-2.98449977 4.99886092-4.02519414 7.07672196-1.48166655 1.19591662 1.46755544 1.03716662 3.1996942.79727774 5.24227738-.77611108 6.58636062-4.66019426 11.97327688-10.3681385 15.1553322-4.53672205 2.52941647-10.40694405 3.57011083-15.69155496 3.88408303-2.94569433.17638888-4.2933054-1.73213876-3.41136098-4.37797189 1.56986105-4.68488853 2.18016658-9.30980485 1.83797215-13.87474895-.14816666-1.97908319-.57502776-3.91583304.45155554-5.52802736 1.91558326-2.99861089 6.2476942-2.23308317 7.5282775.93133326.20813887.50799996.32808331 1.23472213.3633611 2.1801665.14816665 3.83469416-.10230556 7.64822165-.75141665 11.44058247-.02469444.13758332.03175.19402777.16933333.16227777"/></svg>