<svg xmlns="http://www.w3.org/2000/svg" xmlns:xlink="http://www.w3.org/1999/xlink" viewBox="0 0 1161.8 1161.3"><defs><linearGradient id="a" x1="0" x2="1" y1="0" y2="0" gradientTransform="scale(-16940.53 16940.53) rotate(16.4 -4.2 -9.1)" gradientUnits="userSpaceOnUse" spreadMethod="pad"><stop offset="0" stop-color="#198aa6"/><stop offset=".2" stop-color="#198aa6"/><stop offset="1" stop-color="#31adcc"/></linearGradient><linearGradient xlink:href="#a" id="b" x1="2.3" x2="2.3" y1="-1.5" y2="-1.5" gradientTransform="scale(-16940.53 16940.53) rotate(16.4 -4.2 -9.1)" gradientUnits="userSpaceOnUse" spreadMethod="pad"/><linearGradient xlink:href="#a" id="c" x1="0" x2="1" y1="0" y2="0" gradientTransform="scale(-16940.53 16940.53) rotate(16.4 -4.2 -9.1)" gradientUnits="userSpaceOnUse" spreadMethod="pad"/><clipPath id="d" clipPathUnits="userSpaceOnUse"/></defs><g transform="translate(-967.7 -201.3)"><circle cx="1550.4" cy="783.4" r="579.2" fill="url(#b)" style="font-variation-settings:normal;-inkscape-stroke:none"/><path fill="url(#c)" d="M54666.6 3129.8h-4810.3a153195 153195 0 0 0-360.1 1496.7c-26.2 110.5-51.2 220.4-76.2 327.1-12.7 54.5-25.1 108.3-37.3 161.5 55 13 110.7 26.9 167.3 41.6 2356.8 613.5 2022.9 2278.1 1677.5 3027.7-743.1 1612.8 2966.8 988.7 2853.8 3410.1-88.7 1900.2-1832.1 2349.8-1950.4 3450-171.5 1594.5 1536.4 1530 1899.9 2744.3 757.9 2531.4-1918.2 2089.4-1391.1 3874 527.1 1784.7 810.5 4127.4-415.7 4459.5-84.8 23-168.4 34-250.4 34-1103.4 0-1944.1-1992.6-2358.6-3674.4-445.4-1806.8-1962.7-277.7-3155.8-2642.9-766.3-1519.1 905.2-2525.3 488.2-3667.9l-2210.3 80.1s-788.3-185.4-1022.4-200.3c-127.3-8.1-280.8-10.6-402.5-13.1-41.9-1.3-79.9-1.9-111.8-3.2-46.1-1.8-79.1-4.9-92.9-8.7v.1s-670-24.6-1147.9-612.1c-478-587.6-762.8-1729-1135.2-3505.1l1080.9-694.3a19147 19147 0 0 1-38-164.3c-6.9-29.3 6.8-59.3 30.5-67.4a37 37 0 0 1 12.5-2.2c19.3 0 36.7 16 41.8 39.7l22.5 98-70.5-1878.7-68.7-1826.9c0-229.1-117-876.7-276.4-1652h-5721.4a51979.4 51979.4 0 0 1-1025.4 1083.1h1411.5c91.8 0 166.7 75 166.7 166.7v3149.4c0 91.7-74.9 166.7-166.7 166.7h-221.6c0 78.3-63.9 142.3-142.4 142.3h-244v388a68.9 68.9 0 0 1-68.8 68.8h-49.8v227.3h49.8c38 0 68.8 30.8 68.8 68.6v289.9h186.3c62 0 118.5-25.3 159.1-66a223.8 223.8 0 0 0 65.8-158.8 89.8 89.8 0 0 1 89.6-89.7 89.8 89.8 0 0 1 89.7 89.7 403.3 403.3 0 0 1-119 285.6c-73 73-174 118.5-285.2 118.5h-304.9v25.2a99 99 0 0 1-98.8 98.8h-.1a99.1 99.1 0 0 1-98.8-98.8v-25.2h-297.7a89.7 89.7 0 0 1 0-179.3h179.2v-289.9a68.8 68.8 0 0 1 68.6-68.6h49.9v-227.3h-49.9a68.9 68.9 0 0 1-68.6-68.8v-388h-244.1c-78.5 0-142.4-64-142.4-142.3h-221.6a167.2 167.2 0 0 1-163.3-133.5l-.3-1.3v-.1l-.5-2.6v-.2l-.2-1.1v-.2l-.2-1.2v-.1l-.2-1.2-.1-.3-.1-1-.1-.4-.1-1v-.2l-.2-1.3v-.2l-.2-1v-.4l-.1-.9v-.4l-.2-1.2v-.3l-.1-.9v-.5l-.1-.9-.1-.3v-1.3l-.1-.2v-1.1l-.1-.3v-1.3l-.1-1.3v-.2l-.1-1.1v-1.7l-.1-1.2v-2909c-1302.1 1302.7-2829.9 2671.5-4275.3 3577.8-757.2 474.7-1218.5 668.3-1466.4 668.3-911.2 0 1064.9-2617.8 1839.8-3504.8 0 0-2067.8 1278.7-3129.4 1278.7-279.3 0-488.8-88.5-572.9-312.1-403.3-1073.3 2756-2162.9 2756-2162.9s-905.1 231.4-1804.9 231.4c-852.1 0-1699.5-207.4-1769.7-1015.3-71.6-822.6 1968.3-1933 4458.9-2589.9v-296.6h-3713.6c-1447 2516-2319.6 5404.6-2438.9 8486.3-9.3 241.5-14 484.1-14 728 0 10224.7 8288.6 18513.3 18513.3 18513.3 4520.7 0 8662.5-1620.9 11877.5-4312.2V3129.8" clip-path="url(#d)" transform="matrix(.03128023 0 0 -.03128023 208.4 1166.5)"/></g></svg>