<svg xmlns="http://www.w3.org/2000/svg" xmlns:xlink="http://www.w3.org/1999/xlink" viewBox="0 0 1920 1080"><defs><linearGradient id="a" x1="0" x2="1" y1="0" y2="0" gradientTransform="matrix(-16250.6 4785.34 4785.34 16250.6 46439.2 13802)" gradientUnits="userSpaceOnUse" spreadMethod="pad"><stop offset="0" stop-color="#198aa6"/><stop offset=".178" stop-color="#198aa6"/><stop offset="1" stop-color="#31adcc"/></linearGradient><linearGradient xlink:href="#a" id="b" x1="2.318" x2="2.342" y1="-1.487" y2="-1.504"/><linearGradient xlink:href="#a" id="c"/><clipPath id="d"><path d="M54666.6 3129.8h-4810.3l-360.1 1496.7-76.2 327.1-37.3 161.5 167.3 41.6c2356.8 613.5 2022.9 2278.1 1677.5 3027.7-743.1 1612.8 2966.8 988.7 2853.8 3410.1-88.7 1900.2-1832.1 2349.8-1950.4 3450-171.5 1594.5 1536.4 1530 1899.9 2744.3 757.9 2531.4-1918.2 2089.4-1391.1 3874 527.1 1784.7 810.5 4127.4-415.7 4459.5-84.8 23-168.4 34-250.4 34-1103.4 0-1944.1-1992.6-2358.6-3674.4-445.4-1806.8-1962.7-277.7-3155.8-2642.9-766.3-1519.1 905.2-2525.3 488.2-3667.9l-2210.3 80.1s-788.3-185.4-1022.4-200.3c-127.3-8.1-280.8-10.6-402.5-13.1l-111.8-3.2c-46.1-1.8-79.1-4.9-92.9-8.7v.1s-670-24.6-1147.9-612.1c-478-587.6-762.8-1729-1135.2-3505.1l1080.9-694.3-38-164.3c-6.9-29.3 6.8-59.3 30.5-67.4 4.2-1.5 8.4-2.2 12.5-2.2 19.3 0 36.7 16 41.8 39.7l22.5 98-70.5-1878.7-68.7-1826.9c0-229.1-117-876.7-276.4-1652h-5721.4l-1025.4 1083.1h1411.5c91.8 0 166.7 75 166.7 166.7v3149.4c0 91.7-74.9 166.7-166.7 166.7h-221.6c0 78.3-63.9 142.3-142.4 142.3h-244v388c0 37.9-30.8 68.8-68.8 68.8h-49.8v227.3h49.8c38 0 68.8 30.8 68.8 68.6v289.9h186.3c62 0 118.5-25.3 159.1-66 40.6-40.5 65.8-96.8 65.8-158.8 0-49.4 40.2-89.7 89.6-89.7 49.5 0 89.7 40.3 89.7 89.7 0 111.1-45.6 212.2-119 285.6-73 73-174 118.5-285.2 118.5h-304.9v25.2c0 54.3-44.4 98.8-98.8 98.8h-.1c-54.3 0-98.8-44.5-98.8-98.8v-25.2h-297.7c-49.5 0-89.6-40.2-89.6-89.7s40.1-89.6 89.6-89.6h179.2v-289.9c0-37.8 30.9-68.6 68.6-68.6h49.9v-227.3h-49.9c-37.7 0-68.6-30.9-68.6-68.8v-388h-244.1c-78.5 0-142.4-64-142.4-142.3h-221.6c-80.4 0-147.8-57.6-163.3-133.5-.1-.4-.2-.8-.3-1.3v-.1c-.1-.9-.3-1.7-.5-2.6v-.2c-.1-.4-.1-.7-.2-1.1v-.2c-.1-.4-.2-.8-.2-1.2v-.1c-.1-.4-.2-.8-.2-1.2 0-.1-.1-.2-.1-.3 0-.4-.1-.7-.1-1 0-.1-.1-.2-.1-.4 0-.3-.1-.6-.1-1v-.2c-.1-.4-.2-.8-.2-1.3v-.2c-.1-.4-.1-.7-.2-1v-.4c0-.3-.1-.6-.1-.9v-.4c-.1-.4-.1-.8-.2-1.2v-.3c0-.3-.1-.6-.1-.9v-.5c-.1-.3-.1-.6-.1-.9 0-.1 0-.2-.1-.3v-1.3c-.1-.1-.1-.2-.1-.2v-1.1c-.1-.1-.1-.2-.1-.3v-1.3c-.1-.5-.1-.9-.1-1.3v-.2c0-.4-.1-.7-.1-1.1v-1.7c-.1-.4-.1-.8-.1-1.2v-2909c-1302.1 1302.7-2829.9 2671.5-4275.3 3577.8-757.2 474.7-1218.5 668.3-1466.4 668.3-911.2 0 1064.9-2617.8 1839.8-3504.8 0 0-2067.8 1278.7-3129.4 1278.7-279.3 0-488.8-88.5-572.9-312.1-403.3-1073.3 2756-2162.9 2756-2162.9s-905.1 231.4-1804.9 231.4c-852.1 0-1699.5-207.4-1769.7-1015.3-71.6-822.6 1968.3-1933 4458.9-2589.9v-296.6h-3713.6c-1447 2516-2319.6 5404.6-2438.9 8486.3-9.3 241.5-14 484.1-14 728 0 10224.7 8288.6 18513.3 18513.3 18513.3 4520.7 0 8662.5-1620.9 11877.5-4312.2V3129.8"/></clipPath></defs><circle cx="1550.408" cy="783.355" r="579.151" fill="url(#b)"/><path fill="url(#c)" d="M54666.6 3129.8h-4810.3l-360.1 1496.7-76.2 327.1-37.3 161.5 167.3 41.6c2356.8 613.5 2022.9 2278.1 1677.5 3027.7-743.1 1612.8 2966.8 988.7 2853.8 3410.1-88.7 1900.2-1832.1 2349.8-1950.4 3450-171.5 1594.5 1536.4 1530 1899.9 2744.3 757.9 2531.4-1918.2 2089.4-1391.1 3874 527.1 1784.7 810.5 4127.4-415.7 4459.5-84.8 23-168.4 34-250.4 34-1103.4 0-1944.1-1992.6-2358.6-3674.4-445.4-1806.8-1962.7-277.7-3155.8-2642.9-766.3-1519.1 905.2-2525.3 488.2-3667.9l-2210.3 80.1s-788.3-185.4-1022.4-200.3c-127.3-8.1-280.8-10.6-402.5-13.1l-111.8-3.2c-46.1-1.8-79.1-4.9-92.9-8.7v.1s-670-24.6-1147.9-612.1c-478-587.6-762.8-1729-1135.2-3505.1l1080.9-694.3-38-164.3c-6.9-29.3 6.8-59.3 30.5-67.4 4.2-1.5 8.4-2.2 12.5-2.2 19.3 0 36.7 16 41.8 39.7l22.5 98-70.5-1878.7-68.7-1826.9c0-229.1-117-876.7-276.4-1652h-5721.4l-1025.4 1083.1h1411.5c91.8 0 166.7 75 166.7 166.7v3149.4c0 91.7-74.9 166.7-166.7 166.7h-221.6c0 78.3-63.9 142.3-142.4 142.3h-244v388c0 37.9-30.8 68.8-68.8 68.8h-49.8v227.3h49.8c38 0 68.8 30.8 68.8 68.6v289.9h186.3c62 0 118.5-25.3 159.1-66 40.6-40.5 65.8-96.8 65.8-158.8 0-49.4 40.2-89.7 89.6-89.7 49.5 0 89.7 40.3 89.7 89.7 0 111.1-45.6 212.2-119 285.6-73 73-174 118.5-285.2 118.5h-304.9v25.2c0 54.3-44.4 98.8-98.8 98.8h-.1c-54.3 0-98.8-44.5-98.8-98.8v-25.2h-297.7c-49.5 0-89.6-40.2-89.6-89.7s40.1-89.6 89.6-89.6h179.2v-289.9c0-37.8 30.9-68.6 68.6-68.6h49.9v-227.3h-49.9c-37.7 0-68.6-30.9-68.6-68.8v-388h-244.1c-78.5 0-142.4-64-142.4-142.3h-221.6c-80.4 0-147.8-57.6-163.3-133.5-.1-.4-.2-.8-.3-1.3v-.1c-.1-.9-.3-1.7-.5-2.6v-.2c-.1-.4-.1-.7-.2-1.1v-.2c-.1-.4-.2-.8-.2-1.2v-.1c-.1-.4-.2-.8-.2-1.2 0-.1-.1-.2-.1-.3 0-.4-.1-.7-.1-1 0-.1-.1-.2-.1-.4 0-.3-.1-.6-.1-1v-.2c-.1-.4-.2-.8-.2-1.3v-.2c-.1-.4-.1-.7-.2-1v-.4c0-.3-.1-.6-.1-.9v-.4c-.1-.4-.1-.8-.2-1.2v-.3c0-.3-.1-.6-.1-.9v-.5c-.1-.3-.1-.6-.1-.9 0-.1 0-.2-.1-.3v-1.3c-.1-.1-.1-.2-.1-.2v-1.1c-.1-.1-.1-.2-.1-.3v-1.3c-.1-.5-.1-.9-.1-1.3v-.2c0-.4-.1-.7-.1-1.1v-1.7c-.1-.4-.1-.8-.1-1.2v-2909c-1302.1 1302.7-2829.9 2671.5-4275.3 3577.8-757.2 474.7-1218.5 668.3-1466.4 668.3-911.2 0 1064.9-2617.8 1839.8-3504.8 0 0-2067.8 1278.7-3129.4 1278.7-279.3 0-488.8-88.5-572.9-312.1-403.3-1073.3 2756-2162.9 2756-2162.9s-905.1 231.4-1804.9 231.4c-852.1 0-1699.5-207.4-1769.7-1015.3-71.6-822.6 1968.3-1933 4458.9-2589.9v-296.6h-3713.6c-1447 2516-2319.6 5404.6-2438.9 8486.3-9.3 241.5-14 484.1-14 728 0 10224.7 8288.6 18513.3 18513.3 18513.3 4520.7 0 8662.5-1620.9 11877.5-4312.2V3129.8" clip-path="url(#d)" transform="matrix(.03128 0 0 -.03128 208.37896 1166.4804)"/></svg>