<svg xmlns="http://www.w3.org/2000/svg" baseProfile="tiny" version="1.2" viewBox="0 0 512 512"><g fill="none" stroke-width="2"><path stroke="#84c3fe" d="m511.71 242.96-.67-.13a.95.93 72.2 0 1-.53-.28l-120.7-120.59" vector-effect="non-scaling-stroke"/><path stroke="#c6e1fa" d="M389.81 121.96q-2.43-2.09-4.65-4.53c-32.42-35.47-80.66-58.26-129.11-57.4" vector-effect="non-scaling-stroke"/><path stroke="#d1eaff" d="M256.05 60.03q-41.28.04-78.6 19.46c-38.82 20.19-69.2 53.99-87.73 93.46q-7.58 16.16-11.38 29.27" vector-effect="non-scaling-stroke"/><path stroke="#84c3fe" d="M78.34 202.22q.4-.2.16.54-.16.53.23.92l77.53 77.52" vector-effect="non-scaling-stroke"/><path stroke="#d1d180" d="M156.26 281.2q-14.59 16.53-14.57 40.55.03 27.75-.02 55.49-.05 28.13 22.72 46.06" vector-effect="non-scaling-stroke"/><path stroke="#84c3fe" d="M164.39 423.3q-.45.06.76 1.27 43.5 43.68 87.18 87.43" vector-effect="non-scaling-stroke"/><path stroke="#b2d8fe" d="M256.01 180.79q-16.89.32-28.34 12.92" vector-effect="non-scaling-stroke"/><path stroke="#b8bbc4" d="m227.67 193.71-6.47 8.78a.62.61-41.1 0 1-1.03-.07q-8.46-15.2-25.43-20.4" vector-effect="non-scaling-stroke"/><path stroke="#b2d8fe" d="M194.74 182.02q-11.85-3.08-22.26.91-14.89 5.71-22.67 19.64a.57.57 0 0 1-1.01-.02q-4.09-8.16-12.29-13.67" vector-effect="non-scaling-stroke"/><path stroke="#b8bbc4" d="M136.51 188.88q-9.7-8.36-23.76-8.11-7.47.14-14.61 3.32" vector-effect="non-scaling-stroke"/><path stroke="#b2d8fe" d="M98.14 184.09q-12.19 5.86-19.8 18.13" vector-effect="non-scaling-stroke"/><path stroke="#a7cff9" d="M389.81 121.96q31 35.52 45.15 80.26a.51.51 0 0 1-.22.59q-.1.05-.29-.07-.1-.07-.18-.22-6.65-11.6-18.56-17.68-.46-.23-.62-.11" vector-effect="non-scaling-stroke"/><path stroke="#9fa4ae" d="M415.09 184.73q-.63-.57-1.63-.94-21.29-7.76-37.37 5.62" vector-effect="non-scaling-stroke"/><path stroke="#a7cff9" d="M376.09 189.41c-4.36 1.73-9.74 9.33-11.95 13.21a.69.68 44.9 0 1-1.19 0c-9.44-16.36-27.31-25.55-46.17-20.02" vector-effect="non-scaling-stroke"/><path stroke="#9fa4ae" d="M316.78 182.6q-15.75 5.38-24.02 20.05a.69.69 0 0 1-1.2.01q-3.18-5.59-7.65-9.93" vector-effect="non-scaling-stroke"/><path stroke="#a7cff9" d="M283.91 192.73q-11.62-11.19-27.9-11.94" vector-effect="non-scaling-stroke"/><path stroke="#b2c07e" d="M164.39 423.3q15.65 11.67 35.36 11.69 28.61.02 56.37-.01" vector-effect="non-scaling-stroke"/><path stroke="#b1b687" d="M256.12 434.98q26.53.02 52.43 0 11.77-.01 17.79-1.41c21.72-5.08 38.85-23.09 43.08-44.9q1.12-5.79 1.16-19.93.1-38.16-.02-49.75-.24-21.63-15.23-38.54" vector-effect="non-scaling-stroke"/><path stroke="#b8a345" d="M182.83 264.23q-2.56 1.06-4.94 2-12.32 4.83-21.3 14.6" vector-effect="non-scaling-stroke"/><path stroke="#6b94c3" d="M156.59 280.83q.65-.88.38-1.32-29.32-47.6-58.83-95.42m96.6-2.07 16.13 79.97" vector-effect="non-scaling-stroke"/><path stroke="#b2c07e" d="M210.87 261.99c-11.19-.17-18.27-.04-28.04 2.24" vector-effect="non-scaling-stroke"/><path stroke="#5d86b1" d="M283.91 192.73 270 261.94m106.09-72.53q-23.14 37.64-45.94 74.23-.28.03-.56.57" vector-effect="non-scaling-stroke"/><path stroke="#b1b687" d="M329.59 264.21q-1.74-.24-3.47-.65-2.6-.63-5.24-1.13c-5.95-1.14-13.26-.42-19.41-.45" vector-effect="non-scaling-stroke"/><path stroke="#a98a3c" d="M355.33 280.45q-10.67-11.4-25.74-16.24" vector-effect="non-scaling-stroke"/><path stroke="#fe804f" d="M256.25 383.93c12.56-6.72 23.86-14.87 32.72-26.16 6.38-8.12 10.55-19.57 7.62-29.47-5.82-19.64-32.43-20.1-40.6-1.96" vector-effect="non-scaling-stroke"/><path stroke="#fe975c" d="M255.99 326.34q-.65-.19-.56-.85" vector-effect="non-scaling-stroke"/><path stroke="#fec409" d="M255.43 325.49q.83.49.82-.74-.4-41.5-.11-62.74" vector-effect="non-scaling-stroke"/><path stroke="#ffa153" d="M255.43 325.49c-8.23-15.94-30.88-16.77-38.74-.08-6.9 14.63 4.07 31.05 14.47 40.69q11.24 10.41 24.8 17.65" vector-effect="non-scaling-stroke"/><path stroke="#ff8a46" d="M255.96 383.75q.35.42.29.18" vector-effect="non-scaling-stroke"/></g><path fill="#a3d4ff" d="M248.4 0h15.08c74.47 2.55 143.75 36.58 190.39 93.62q52.84 64.62 57.84 149.34l-.67-.13a.95.93 72.2 0 1-.53-.28l-120.7-120.59q-2.43-2.09-4.65-4.53c-32.42-35.47-80.66-58.26-129.11-57.4q-41.28.04-78.6 19.46c-38.82 20.19-69.2 53.99-87.73 93.46q-7.58 16.16-11.38 29.27.4-.2.16.54-.16.53.23.92l77.53 77.52q-14.59 16.53-14.57 40.55.03 27.75-.02 55.49-.05 28.13 22.72 46.06-.45.06.76 1.27 43.5 43.68 87.18 87.43h-3.83q-5.05-.41-10.12-.75c-68.86-4.66-133.43-37.09-177.98-90.24Q3.76 353.43 0 263.63v-15.37Q3.5 160.89 57.55 94.3C104.09 36.95 173.69 2.64 248.4 0Z"/><path fill="#fff" d="m256.05 60.03-.04 120.76q-16.89.32-28.34 12.92l-6.47 8.78a.62.61-41.1 0 1-1.03-.07q-8.46-15.2-25.43-20.4-11.85-3.08-22.26.91-14.89 5.71-22.67 19.64a.57.57 0 0 1-1.01-.02q-4.09-8.16-12.29-13.67-9.7-8.36-23.76-8.11-7.47.14-14.61 3.32-12.19 5.86-19.8 18.13 3.8-13.11 11.38-29.27c18.53-39.47 48.91-73.27 87.73-93.46q37.32-19.42 78.6-19.46Z"/><path fill="#e9edf5" d="M256.05 60.03c48.45-.86 96.69 21.93 129.11 57.4q2.22 2.44 4.65 4.53 31 35.52 45.15 80.26a.51.51 0 0 1-.22.59q-.1.05-.29-.07-.1-.07-.18-.22-6.65-11.6-18.56-17.68-.46-.23-.62-.11-.63-.57-1.63-.94-21.29-7.76-37.37 5.62c-4.36 1.73-9.74 9.33-11.95 13.21a.69.68 44.9 0 1-1.19 0c-9.44-16.36-27.31-25.55-46.17-20.02q-15.75 5.38-24.02 20.05a.69.69 0 0 1-1.2.01q-3.18-5.59-7.65-9.93-11.62-11.19-27.9-11.94l.04-120.76Z"/><path fill="#65b1fc" d="m389.81 121.96 120.7 120.59a.95.93 72.2 0 0 .53.28l.67.13q-.01.84.29 1.16v25.38q-.76 6.49-1.43 12.97-6.63 64.38-42.99 117.67-27.56 40.41-67.56 67.66-52.2 35.55-115.56 42.57-7.53.83-15.09 1.63h-17.04q-43.68-43.75-87.18-87.43-1.21-1.21-.76-1.27 15.65 11.67 35.36 11.69 28.61.02 56.37-.01 26.53.02 52.43 0 11.77-.01 17.79-1.41c21.72-5.08 38.85-23.09 43.08-44.9q1.12-5.79 1.16-19.93.1-38.16-.02-49.75-.24-21.63-15.23-38.54l59.76-95.72q.16-.12.62.11 11.91 6.08 18.56 17.68.08.15.18.22.19.12.29.07a.51.51 0 0 0 .22-.59q-14.15-44.74-45.15-80.26Z"/><path fill="#707789" d="m136.51 188.88 46.32 75.35q-2.56 1.06-4.94 2-12.32 4.83-21.3 14.6.65-.88.38-1.32-29.32-47.6-58.83-95.42 7.14-3.18 14.61-3.32 14.06-.25 23.76 8.11Z"/><path fill="#65b1fc" d="m194.74 182.02 16.13 79.97c-11.19-.17-18.27-.04-28.04 2.24l-46.32-75.35q8.2 5.51 12.29 13.67a.57.57 0 0 0 1.01.02q7.78-13.93 22.67-19.64 10.41-3.99 22.26-.91Zm61.27-1.23q16.28.75 27.9 11.94L270 261.94l-13.86.07-14.78-.04-13.69-68.26q11.45-12.6 28.34-12.92Zm120.08 8.62q-23.14 37.64-45.94 74.23-.28.03-.56.57-1.74-.24-3.47-.65-2.6-.63-5.24-1.13c-5.95-1.14-13.26-.42-19.41-.45l15.31-79.38c18.86-5.53 36.73 3.66 46.17 20.02a.69.68 44.9 0 0 1.19 0c2.21-3.88 7.59-11.48 11.95-13.21Z"/><path fill="#555a66" d="m415.09 184.73-59.76 95.72q-10.67-11.4-25.74-16.24.28-.54.56-.57 22.8-36.59 45.94-74.23 16.08-13.38 37.37-5.62 1 .37 1.63.94Z"/><path fill="#707789" d="M194.74 182.02q16.97 5.2 25.43 20.4a.62.61-41.1 0 0 1.03.07l6.47-8.78 13.69 68.26-30.49.02-16.13-79.97Z"/><path fill="#555a66" d="m316.78 182.6-15.31 79.38-31.47-.04 13.91-69.21q4.47 4.34 7.65 9.93a.69.69 0 0 0 1.2-.01q8.27-14.67 24.02-20.05Z"/><path fill="#65b1fc" d="M98.14 184.09q29.51 47.82 58.83 95.42.27.44-.38 1.32l-.33.37-77.53-77.52q-.39-.39-.23-.92.24-.74-.16-.54 7.61-12.27 19.8-18.13Z"/><path fill="#fdba12" d="m270 261.94 31.47.04c6.15.03 13.46-.69 19.41.45q2.64.5 5.24 1.13 1.73.41 3.47.65 15.07 4.84 25.74 16.24 14.99 16.91 15.23 38.54.12 11.59.02 49.75-.04 14.14-1.16 19.93c-4.23 21.81-21.36 39.82-43.08 44.9q-6.02 1.4-17.79 1.41-25.9.02-52.43 0l.13-51.05c12.56-6.72 23.86-14.87 32.72-26.16 6.38-8.12 10.55-19.57 7.62-29.47-5.82-19.64-32.43-20.1-40.6-1.96q-.65-.19-.56-.85.83.49.82-.74-.4-41.5-.11-62.74l13.86-.07Z"/><path fill="#ffce00" d="m210.87 261.99 30.49-.02 14.78.04q-.29 21.24.11 62.74.01 1.23-.82.74c-8.23-15.94-30.88-16.77-38.74-.08-6.9 14.63 4.07 31.05 14.47 40.69q11.24 10.41 24.8 17.65.35.42.29.18l-.13 51.05q-27.76.03-56.37.01-19.71-.02-35.36-11.69-22.77-17.93-22.72-46.06.05-27.74.02-55.49-.02-24.02 14.57-40.55l.33-.37q8.98-9.77 21.3-14.6 2.38-.94 4.94-2c9.77-2.28 16.85-2.41 28.04-2.24Z"/><path fill="#ff468c" d="M256.25 383.93q.06.24-.29-.18l.03-57.41c8.17-18.14 34.78-17.68 40.6 1.96 2.93 9.9-1.24 21.35-7.62 29.47-8.86 11.29-20.16 19.44-32.72 26.16Z"/><path fill="#ff73a5" d="M255.43 325.49q-.09.66.56.85l-.03 57.41q-13.56-7.24-24.8-17.65c-10.4-9.64-21.37-26.06-14.47-40.69 7.86-16.69 30.51-15.86 38.74.08Z"/></svg>