<svg xmlns="http://www.w3.org/2000/svg" baseProfile="tiny" version="1.2" viewBox="0 0 512 512"><g fill="none" stroke-width="2"><path stroke="#5f6dd5" d="M512 266.5 384.9 139.02" vector-effect="non-scaling-stroke"/><path stroke="#b99f82" d="M384.9 139.02q-29.23-31.71-68.52-46.43" vector-effect="non-scaling-stroke"/><path stroke="#5f6dd5" d="M316.38 92.59q-8.95-10.07-18.83-18.92" vector-effect="non-scaling-stroke"/><path stroke="#b99f82" d="M297.55 73.67c-10.08-13.28-24.52-20.85-41.42-20.87" vector-effect="non-scaling-stroke"/><path stroke="#baa979" d="M256.13 52.8q-23.93.24-39.66 18.7-6.12 7.17-9.26 17.04-.15.49-.65.65c-30.8 9.92-56.64 25.45-78.65 49.23q-.38.41.1 1.32" vector-effect="non-scaling-stroke"/><path stroke="#ba7ccc" d="M178.78 190.64c-29.01 24.84-20.9 62.04-.63 89.33" vector-effect="non-scaling-stroke"/><path stroke="#5f6dd5" d="M178.15 279.97q-1.08-.25-1.6-.77-26.28-26.23-52.54-52.48-.13-.51-.69-.41" vector-effect="non-scaling-stroke"/><path stroke="#baa979" d="M123.32 226.31 89.6 206.56a.34.34 0 0 0-.49.2q-12.49 43.23-2.86 87.26a1.45 1.44 61.4 0 1-.38 1.31 51.26 51.26 0 0 0-8.33 61.66q4.71 8.27 13.73 15.85" vector-effect="non-scaling-stroke"/><path stroke="#5f6dd5" d="M91.27 372.84q68.44 68.6 136.76 136.88.46.07.38.81" vector-effect="non-scaling-stroke"/><path stroke="#a4925c" d="M256.08 155.49c-19.36-.65-36.02-10.4-45.22-27.25a.51.5-23.3 0 0-.61-.24q-27.52 9.96-48.58 30.23a.93.93 0 0 1-1.1.14l-32.56-18.63" vector-effect="non-scaling-stroke"/><path stroke="#a38865" d="M297.55 73.67q4.75 6.94 7.47 14.7.18.5.68.67l10.68 3.55m68.52 46.43-33.68 19.6q-.44.26-.81-.1-21-20.24-48.4-30.28-.49-.18-.76.27-15.07 25.88-45.17 26.98" vector-effect="non-scaling-stroke"/><path stroke="#a4925c" d="M91.27 372.84q17.29 11.73 37.24 9.56c1.75-.19 4.14-.85 6.23-1.17a1.17 1.16 62.1 0 1 .96.3q34.64 32.93 81.25 44.02a.3.3 0 0 0 .36-.29l.02-38.49a.62.61-81.8 0 0-.44-.59q-28.29-8.62-50.51-28.07a.58.58 0 0 1-.12-.72c19.51-34.51-3.99-75.71-43.52-77.06q-.53-.02-.63-.55-4.67-26.89 1.21-53.47" vector-effect="non-scaling-stroke"/><path stroke="#a464ae" d="M178.15 279.97q13.12 17.51 30.33 31.82 20.05 16.66 42.72 29.53 3.53 2 4.8 2.85" vector-effect="non-scaling-stroke"/><path stroke="#a44ea2" d="M256 344.17q28.63-14.52 52.6-35.34c22.62-19.66 43.22-46.24 43.61-77.58q.13-10.78-3.22-19.61c-7.66-20.2-29.05-33.49-50.26-31.69-19.88 1.69-34.23 12.82-42.76 31" vector-effect="non-scaling-stroke"/><path stroke="#a464ae" d="M255.97 210.95c-8.88-19.32-26.32-31.33-47.44-30.83q-16.32.39-29.75 10.52" vector-effect="non-scaling-stroke"/></g><path fill="#7584f2" d="M248.4 0h15.08c74.29 2.54 143.65 36.51 190.19 93.33q54.89 67.03 58.33 155.3v17.87L384.9 139.02q-29.23-31.71-68.52-46.43-8.95-10.07-18.83-18.92c-10.08-13.28-24.52-20.85-41.42-20.87q-23.93.24-39.66 18.7-6.12 7.17-9.26 17.04-.15.49-.65.65c-30.8 9.92-56.64 25.45-78.65 49.23q-.38.41.1 1.32l50.77 50.9c-29.01 24.84-20.9 62.04-.63 89.33q-1.08-.25-1.6-.77-26.28-26.23-52.54-52.48-.13-.51-.69-.41L89.6 206.56a.34.34 0 0 0-.49.2q-12.49 43.23-2.86 87.26a1.45 1.44 61.4 0 1-.38 1.31 51.26 51.26 0 0 0-8.33 61.66q4.71 8.27 13.73 15.85 68.44 68.6 136.76 136.88.46.07.38.81c-66.73-7.39-128.11-40.58-170.18-92.04Q3.49 351.56 0 263.62v-15.61q3.57-87.07 57.42-153.57C103.98 36.95 173.65 2.67 248.4 0Z"/><path fill="#ffce00" d="m256.13 52.8-.05 102.69c-19.36-.65-36.02-10.4-45.22-27.25a.51.5-23.3 0 0-.61-.24q-27.52 9.96-48.58 30.23a.93.93 0 0 1-1.1.14l-32.56-18.63q-.48-.91-.1-1.32c22.01-23.78 47.85-39.31 78.65-49.23q.5-.16.65-.65 3.14-9.87 9.26-17.04 15.73-18.46 39.66-18.7Z"/><path fill="#fdba12" d="M256.13 52.8c16.9.02 31.34 7.59 41.42 20.87q4.75 6.94 7.47 14.7.18.5.68.67l10.68 3.55q39.29 14.72 68.52 46.43l-33.68 19.6q-.44.26-.81-.1-21-20.24-48.4-30.28-.49-.18-.76.27-15.07 25.88-45.17 26.98l.05-102.69Z"/><path fill="#4855b7" d="M297.55 73.67q9.88 8.85 18.83 18.92l-10.68-3.55q-.5-.17-.68-.67-2.72-7.76-7.47-14.7Zm-41.47 81.82q30.1-1.1 45.17-26.98.27-.45.76-.27 27.4 10.04 48.4 30.28.37.36.81.1l33.68-19.6L512 266.5v3q-1.52 16.85-2.18 21.5c-10.2 71.8-49.75 135.89-109.62 176.69q-53.04 36.14-117.48 42.87-6.66.69-13.34 1.44H242.5l-14.09-1.47q.08-.74-.38-.81-68.32-68.28-136.76-136.88 17.29 11.73 37.24 9.56c1.75-.19 4.14-.85 6.23-1.17a1.17 1.16 62.1 0 1 .96.3q34.64 32.93 81.25 44.02a.3.3 0 0 0 .36-.29l.02-38.49a.62.61-81.8 0 0-.44-.59q-28.29-8.62-50.51-28.07a.58.58 0 0 1-.12-.72c19.51-34.51-3.99-75.71-43.52-77.06q-.53-.02-.63-.55-4.67-26.89 1.21-53.47.56-.1.69.41 26.26 26.25 52.54 52.48.52.52 1.6.77 13.12 17.51 30.33 31.82 20.05 16.66 42.72 29.53 3.53 2 4.8 2.85 28.63-14.52 52.6-35.34c22.62-19.66 43.22-46.24 43.61-77.58q.13-10.78-3.22-19.61c-7.66-20.2-29.05-33.49-50.26-31.69-19.88 1.69-34.23 12.82-42.76 31-8.88-19.32-26.32-31.33-47.44-30.83q-16.32.39-29.75 10.52l-50.77-50.9 32.56 18.63a.93.93 0 0 0 1.1-.14q21.06-20.27 48.58-30.23a.51.5-23.3 0 1 .61.24c9.2 16.85 25.86 26.6 45.22 27.25Z"/><path fill="#ff73a5" d="m255.97 210.95.03 133.22q-1.27-.85-4.8-2.85-22.67-12.87-42.72-29.53-17.21-14.31-30.33-31.82c-20.27-27.29-28.38-64.49.63-89.33q13.43-10.13 29.75-10.52c21.12-.5 38.56 11.51 47.44 30.83Z"/><path fill="#ff468c" d="m256 344.17-.03-133.22c8.53-18.18 22.88-29.31 42.76-31 21.21-1.8 42.6 11.49 50.26 31.69q3.35 8.83 3.22 19.61c-.39 31.34-20.99 57.92-43.61 77.58q-23.97 20.82-52.6 35.34Z"/><path fill="#ffce00" d="M123.32 226.31q-5.88 26.58-1.21 53.47.1.53.63.55c39.53 1.35 63.03 42.55 43.52 77.06a.58.58 0 0 0 .12.72q22.22 19.45 50.51 28.07a.62.61-81.8 0 1 .44.59l-.02 38.49a.3.3 0 0 1-.36.29q-46.61-11.09-81.25-44.02a1.17 1.16 62.1 0 0-.96-.3c-2.09.32-4.48.98-6.23 1.17q-19.95 2.17-37.24-9.56-9.02-7.58-13.73-15.85a51.26 51.26 0 0 1 8.33-61.66 1.45 1.44 61.4 0 0 .38-1.31q-9.63-44.03 2.86-87.26a.34.34 0 0 1 .49-.2l33.72 19.75Z"/><path fill="#fdba12" d="M389.84 279.7c3.25-18.04 2.42-35.3-1.07-53.08q-.1-.52.36-.79l33.25-19.19a.36.35 67.7 0 1 .52.22q12.32 42.64 3.07 86.13a1.67 1.67 0 0 0 .48 1.55 51.12 51.12 0 0 1 1.17 72.89 51.37 51.37 0 0 1-49.94 13.58 1.2 1.19 30.3 0 0-1.13.29q-34.66 33.13-81.44 44.26-.44.1-.44-.35v-38.4q0-.44.42-.57 28.73-8.81 51.19-28.68.39-.35.15-.81c-18.05-34.88 3.83-73.66 42.78-76.48q.54-.04.63-.57Z"/></svg>