<svg xmlns="http://www.w3.org/2000/svg" xmlns:xlink="http://www.w3.org/1999/xlink" viewBox="0 0 1920 1080"><defs><linearGradient id="a" x1="0" x2="1" y1="0" y2="0" gradientTransform="matrix(-28823.9 8487.81 8487.81 28823.9 54485.8 17734.9)" gradientUnits="userSpaceOnUse" spreadMethod="pad"><stop offset="0" stop-color="#3b9bb3"/><stop offset=".178" stop-color="#3b9bb3"/><stop offset="1" stop-color="#50b9d4"/></linearGradient><linearGradient xlink:href="#a" id="b" x1="1.517" x2="1.542" y1="-1.041" y2="-1.059"/><linearGradient xlink:href="#a" id="c"/><clipPath id="d"><path d="M24289.8 11616.1c-2516.1 3455.9-4000.6 7711.4-4000.6 12313.5 0 5049.2 1787.2 9680.9 4763.1 13297.6h29614.3l-.2-10681.8c-3214.8 2691.1-7356.6 4312-11877.3 4312-10224.7 0-18513.3-8288.6-18513.3-18513.3 0-243.9 4.7-486.5 14-728"/></clipPath></defs><ellipse cx="1498.928" cy="423.852" fill="url(#b)" rx="654.655" ry="667.525"/><path fill="url(#c)" d="M24289.8 11616.1c-2516.1 3455.9-4000.6 7711.4-4000.6 12313.5 0 5049.2 1787.2 9680.9 4763.1 13297.6h29614.3l-.2-10681.8c-3214.8 2691.1-7356.6 4312-11877.3 4312-12234.292 0-18829.709-10661.326-18499.3-19241.3" clip-path="url(#d)" transform="matrix(.031236 0 0 -.031236 210.60473 1166.146)"/></svg>