<svg xmlns="http://www.w3.org/2000/svg" xml:space="preserve" viewBox="0 0 53.97 85.3"><g fill="#231f20"><path d="M4.13 55.54c.63.47 1.31.07 1.36-.52l4.84-.03c.06.58.74.98 1.37.5.5-.66.04-1.38-.59-1.38a.8.8 0 0 0-.78.73l-4.84.03a.8.8 0 0 0-.8-.71c-.62 0-1.07.73-.56 1.38m18.18-1.4c-.25.37-.01.73.31.75l.1 2.68c-.33.04-.54.42-.26.76.37.27.76 0 .75-.34a.46.46 0 0 0-.41-.43l-.1-2.67c.23-.03.4-.22.39-.45-.02-.35-.42-.58-.78-.3m5.23-8.91c-.21.67.33 1.13.83 1l1.43 4.09c-.47.22-.61.9-.03 1.3.7.23 1.18-.37 1-.9a.7.7 0 0 0-.84-.45L28.5 46.2a.7.7 0 0 0 .38-.88c-.19-.53-.93-.7-1.34-.08M26.5 55.55c.4.03.58-.32.45-.59l2.07-1.33c.19.24.59.23.73-.15.04-.42-.36-.6-.63-.44a.4.4 0 0 0-.14.53l-2.07 1.33a.4.4 0 0 0-.54-.1c-.27.17-.27.61.13.75m21.34-4.61c-.47-.35-.97-.05-1 .37h-3.57c-.04-.42-.54-.72-1.01-.37-.37.48-.03 1.02.43 1.02a.6.6 0 0 0 .58-.53h3.56c.03.3.28.53.58.53.47 0 .8-.54.43-1.02m-14.3-25.97c.26.28.62.15.7-.13l2.3.42c-.03.28.26.53.6.36.3-.27.15-.65-.15-.7a.38.38 0 0 0-.44.27l-2.3-.42a.38.38 0 0 0-.31-.4c-.3-.06-.58.24-.4.6M12.11 35.12c-.17-.7-.86-.8-1.23-.43l-3.35-2.74c.3-.43.06-1.1-.65-1.13-.72.17-.82.93-.38 1.29.28.23.7.2.95-.05l3.34 2.74c-.2.3-.15.7.14.94.43.36 1.16.12 1.18-.62m32.39-24.4c-.24-.69-.96-.74-1.31-.33L39.5 7.84c.27-.47-.04-1.14-.77-1.11-.73.23-.76 1.03-.29 1.36.32.22.74.15.98-.13l3.69 2.55c-.19.33-.1.74.22.96.47.33 1.2.02 1.17-.74M9.47 19.82c-.05-.84-.83-1.12-1.35-.77l-3.3-3.94c.43-.44.3-1.27-.52-1.46-.88.04-1.16.9-.73 1.42.28.33.77.4 1.12.15L8 19.16c-.3.3-.32.8-.04 1.13.43.5 1.33.39 1.52-.47m9.7-15.41c.5.06.75-.38.6-.72l2.7-1.53c.22.3.73.31.93-.15.08-.53-.4-.8-.76-.6a.51.51 0 0 0-.21.66L19.72 3.6a.51.51 0 0 0-.67-.15c-.35.2-.38.75.11.96m-4.15 19.06c-.26.3-.09.66.2.7l-.17 2.45c-.3.01-.52.34-.3.68.31.28.7.07.72-.25a.4.4 0 0 0-.34-.42l.17-2.45a.4.4 0 0 0 .4-.37c.02-.32-.33-.57-.68-.34M40.93 41.6c.38.22.72-.06.7-.38l2.66-.37c.08.32.48.49.79.18.23-.4-.08-.76-.42-.72a.44.44 0 0 0-.38.46l-2.65.37a.44.44 0 0 0-.5-.34c-.33.05-.53.48-.2.8m-2.69-3.06c-.39.19-.37.62-.1.8L36.9 41.7c-.3-.13-.67.1-.6.53.2.41.66.38.82.07.1-.2.04-.44-.14-.56l1.24-2.36c.2.09.44 0 .55-.2.16-.3-.08-.7-.53-.63m-8.2-27.21c.58.58 1.34.28 1.49-.3l4.95.77c-.03.6.6 1.12 1.32.74.62-.6.27-1.4-.37-1.5a.82.82 0 0 0-.92.6l-4.96-.77a.82.82 0 0 0-.69-.86c-.64-.1-1.22.56-.81 1.32"/><path d="M5.08 43.22c.23.35.64.26.77-.02l2.42.8c-.07.3.2.62.6.48.36-.24.25-.68-.06-.78a.42.42 0 0 0-.52.22l-2.42-.8a.42.42 0 0 0-.27-.5c-.32-.1-.67.2-.52.6m10.1-23.06c-.58.38-.44 1.06.02 1.27l-1.4 3.98c-.5-.12-1.02.32-.81.98.39.6 1.12.43 1.3-.08a.7.7 0 0 0-.36-.86l1.4-3.98c.34.09.7-.1.81-.44.19-.51-.28-1.1-.96-.87M11.5 37.32c-.64-.19-1.06.33-.93.8l-3.82 1.42c-.21-.44-.87-.56-1.23 0-.2.67.37 1.1.87.92.32-.12.5-.47.4-.8l3.83-1.42c.14.3.5.46.83.34.5-.19.64-.9.05-1.26m11.47-25.26c.27-.6-.17-1.07-.65-1.01l-.83-3.9c.46-.14.67-.75.18-1.18-.62-.3-1.12.2-1.01.7.07.34.38.55.71.51l.83 3.9a.65.65 0 0 0-.44.75c.1.5.77.75 1.2.23m24.12 14.16c-.43-.71-1.25-.6-1.53-.05l-4.71-1.9c.17-.6-.33-1.25-1.13-1.04-.75.44-.6 1.32.02 1.57.4.16.85-.01 1.05-.39l4.7 1.91c-.11.41.09.85.5 1.01.6.25 1.33-.27 1.1-1.11M27.58 43.1c-.42.22-.38.69-.08.87l-1.28 2.63c-.33-.13-.73.14-.64.6.23.45.74.4.9.06a.48.48 0 0 0-.18-.62l1.28-2.63c.23.09.5 0 .6-.23.17-.34-.1-.78-.6-.68M5.35 9.38c.67.36 1.25-.12 1.22-.68l4.58-.7c.14.55.84.83 1.37.29.39-.7-.15-1.32-.74-1.23a.76.76 0 0 0-.65.8l-4.58.7a.76.76 0 0 0-.85-.57c-.6.09-.92.84-.35 1.39m30.02 5.77c.41.3.84.04.88-.33h3.1c.04.37.47.63.88.33.32-.42.03-.89-.37-.89a.5.5 0 0 0-.5.46h-3.11a.5.5 0 0 0-.5-.46c-.4 0-.7.47-.38.89M20.11 45.08c.51.21.9-.17.85-.57l3.28-.8c.14.39.66.55 1.01.13.24-.53-.2-.95-.62-.85a.55.55 0 0 0-.41.62l-3.29.8a.55.55 0 0 0-.65-.37c-.42.1-.62.67-.17 1.04"/><path d="M5.83 8.2c0-.42-.38-.58-.65-.43L3.66 5.71c.23-.2.19-.62-.22-.74-.44-.01-.6.41-.4.68a.4.4 0 0 0 .55.1l1.53 2.07a.42.42 0 0 0-.06.57c.2.26.65.23.77-.2M22.5 44.62c.41.06.63-.3.5-.58l2.27-1.23c.17.26.6.28.77-.1.07-.44-.33-.66-.62-.5-.2.1-.27.33-.19.53l-2.26 1.23a.42.42 0 0 0-.55-.14c-.3.16-.32.61.08.8m3.18-19.46c-.2-.68-.9-.76-1.25-.37l-3.48-2.6c.28-.45.01-1.1-.7-1.1-.72.2-.78.96-.33 1.3.3.22.7.17.95-.1l3.48 2.61a.71.71 0 0 0 .17.94c.45.34 1.17.07 1.16-.68m18.14-2.22c-.31-.34-.75-.18-.84.15l-2.77-.5c.03-.34-.32-.65-.73-.44-.36.32-.18.79.18.85.24.05.47-.1.53-.33l2.78.51c-.02.24.14.45.37.5.36.06.7-.3.48-.74M17.16 16.2c.84-.09 1.08-.89.7-1.38l3.77-3.5c.46.41 1.28.24 1.43-.6-.08-.87-.96-1.1-1.45-.65a.84.84 0 0 0-.1 1.13l-3.76 3.5a.84.84 0 0 0-1.13 0c-.5.46-.32 1.36.54 1.5m2.22 10.18c-.21-.37-.64-.32-.8-.05l-2.38-1.06c.1-.3-.14-.65-.56-.55-.4.2-.33.67-.02.8.2.1.44.01.55-.18l2.38 1.07c-.06.2.03.44.23.53.31.14.7-.12.6-.56m-13.1 18.2c.66-.12.8-.78.46-1.15l2.78-3.01c.4.3 1.03.1 1.1-.56-.12-.7-.84-.82-1.2-.43a.67.67 0 0 0 0 .9l-2.77 3.02a.67.67 0 0 0-.9.08c-.36.39-.17 1.09.53 1.15m35.01-11.7c.1.81.9 1.02 1.36.65l3.48 3.57c-.39.46-.2 1.25.6 1.38.85-.1 1.06-.96.61-1.42a.82.82 0 0 0-1.1-.06l-3.48-3.58a.82.82 0 0 0-.03-1.1c-.45-.47-1.31-.28-1.44.56M21.05 38.7c-.84-.13-1.28.59-1.04 1.17l-4.56 2.4c-.35-.52-1.18-.56-1.55.2-.14.87.65 1.33 1.24 1.02.39-.2.55-.67.38-1.07L20.1 40c.23.36.7.49 1.1.28.59-.3.66-1.22-.14-1.59m-8-19.3c-.5-.3-.95.05-.95.47l-3.5.37c-.1-.42-.62-.66-1.04-.26-.32.51.07 1 .53.95.3-.03.51-.28.51-.58l3.51-.37c.06.3.33.5.63.47.45-.05.73-.61.31-1.05m26.9-17c.31.24.65.04.68-.26h2.43c.03.3.37.5.69.26.25-.33.02-.7-.3-.7a.4.4 0 0 0-.4.37h-2.42a.4.4 0 0 0-.4-.36c-.3 0-.54.36-.29.69M36.7 39.68c.48-.05.62-.51.4-.8l2.17-2c.27.24.74.14.83-.33-.05-.5-.55-.64-.83-.38a.48.48 0 0 0-.06.64l-2.17 2a.48.48 0 0 0-.65 0c-.28.27-.19.78.31.87m10.85 2.62c-.08-.69-.73-.87-1.13-.56l-2.89-3.04c.34-.38.19-1.05-.49-1.17-.71.08-.9.8-.52 1.2a.7.7 0 0 0 .92.06l2.88 3.04a.69.69 0 0 0 .02.92c.37.4 1.1.25 1.21-.45M31.62 27.95c.26.7 1 .73 1.35.3l3.84 2.45c-.25.5.08 1.16.83 1.1.73-.26.74-1.07.24-1.39a.75.75 0 0 0-.99.17l-3.84-2.46a.75.75 0 0 0-.26-.97c-.5-.32-1.23.03-1.17.8m9.08 13.6c-.61-.46-1.26-.07-1.32.49h-4.65c-.06-.56-.7-.95-1.32-.5-.48.64-.04 1.34.56 1.34.4 0 .72-.3.76-.7h4.65c.04.4.36.7.76.7.6 0 1.05-.7.56-1.33M15.96 2.6c-.74.02-1 .7-.71 1.17l-3.56 2.81c-.38-.4-1.11-.3-1.3.42 0 .78.76 1.04 1.22.68.3-.24.37-.67.17-.99l3.56-2.81c.26.27.7.31 1 .07.46-.37.37-1.16-.38-1.35m16.33 12.68c.43-.1.5-.53.27-.77l1.74-2.07c.27.19.69.04.71-.4-.1-.45-.57-.52-.8-.25a.44.44 0 0 0 .03.6l-1.74 2.07a.44.44 0 0 0-.6.08c-.22.27-.07.72.39.74"/><path d="M34.36 12.68c-.51.16-.55.7-.25.95l-1.9 2.68c-.35-.2-.83.02-.82.55.17.54.75.57 1 .22a.54.54 0 0 0-.1-.71l1.9-2.68c.24.14.54.08.7-.15.25-.35.03-.88-.53-.86m2.3-3.52c-.38-.17-.68.11-.64.42l-2.49.55c-.1-.3-.49-.42-.76-.1-.18.39.13.7.46.64a.42.42 0 0 0 .32-.46l2.48-.56c.07.2.28.33.5.28.31-.07.47-.5.13-.77M26.25 41.52c-.1-.46-.55-.55-.8-.32l-2.15-1.93c.21-.28.07-.72-.4-.77-.48.1-.57.6-.3.85.2.16.47.15.64 0l2.14 1.92c-.14.2-.12.47.06.63.28.25.77.11.8-.38m2.5-30.66c.19.41.63.4.82.14l2.38 1.35c-.14.3.08.7.53.64.43-.18.4-.67.1-.84a.45.45 0 0 0-.59.13l-2.37-1.36a.45.45 0 0 0-.19-.57c-.3-.18-.73.05-.67.51M9.15 29.91c-.77-.16-1.21.5-1.02 1.05l-4.36 2.06c-.3-.5-1.09-.57-1.46.13-.17.8.55 1.26 1.12 1a.8.8 0 0 0 .4-1L8.2 31.1a.8.8 0 0 0 1.02.32c.56-.27.67-1.12-.07-1.5m33.3-20.05c-.34.28-.21.7.1.8l-.6 2.63c-.32-.04-.62.28-.44.68.3.35.74.2.82-.14a.44.44 0 0 0-.3-.52l.6-2.63c.23.03.44-.11.5-.34.07-.34-.27-.68-.69-.48M24.4 32.57c-.17.7.4 1.13.92.97l1.72 4.07c-.47.25-.56.97.06 1.33.73.19 1.18-.45.96-.98a.72.72 0 0 0-.89-.4l-1.72-4.07a.72.72 0 0 0 .32-.92c-.22-.53-1-.66-1.37 0m16.2 4.13c.19-.45-.15-.79-.5-.73l-.74-2.87c.33-.12.47-.58.09-.89-.47-.2-.83.18-.73.56.06.24.3.4.55.35L40 36a.48.48 0 0 0-.3.58c.1.37.59.53.9.13M29.48 18.1c.44.67 1.22.52 1.47-.01l4.57 1.67c-.15.57.35 1.18 1.11.95.7-.45.52-1.29-.07-1.5a.8.8 0 0 0-.99.4L31 17.95a.8.8 0 0 0-.5-.95c-.59-.22-1.27.3-1.02 1.1m18.04 24.68c-.48-.35-.98-.05-1.03.38h-3.61c-.04-.43-.55-.73-1.02-.38-.38.49-.04 1.03.43 1.03a.6.6 0 0 0 .59-.54h3.61c.03.3.28.54.6.54.46 0 .8-.54.43-1.03m-13.23-4.74c-.5-.24-.92.14-.88.55l-3.36.69c-.12-.4-.65-.59-1.02-.17-.26.53.16.97.6.88a.56.56 0 0 0 .44-.61l3.36-.68c.09.27.36.44.65.38.44-.08.65-.65.2-1.04m-15.72-6.62c-.08-.56-.62-.7-.94-.43l-2.42-2.41c.26-.32.12-.86-.43-.94-.58.08-.71.67-.4.98.2.2.53.22.75.03l2.43 2.42a.56.56 0 0 0 .03.75c.32.31.9.18.98-.4M8.38 37.43c.5.37 1.03.06 1.07-.4h3.8c.04.46.57.77 1.07.4.4-.52.04-1.08-.45-1.08a.62.62 0 0 0-.62.56h-3.8a.62.62 0 0 0-.61-.56c-.5 0-.85.56-.46 1.08M3.01 6.05c.41 0 .57-.37.4-.63l2-1.5c.2.23.61.19.73-.2 0-.43-.41-.59-.67-.4a.4.4 0 0 0-.1.55l-2 1.49a.4.4 0 0 0-.54-.06c-.26.2-.23.64.18.75"/><path d="M8.22 4.87c-.19-.78-.97-.9-1.39-.49L3.1 1.28C3.42.77 3.16.03 2.36 0c-.81.18-.92 1.04-.44 1.44A.8.8 0 0 0 3 1.4l3.74 3.1a.8.8 0 0 0 .14 1.06c.49.4 1.3.14 1.34-.7M2.74 35.8c.45.34.92.05.96-.36h3.41c.04.41.52.7.96.36.36-.46.04-.97-.4-.97-.3 0-.53.22-.56.5h-3.4a.56.56 0 0 0-.56-.5c-.44 0-.77.51-.41.97M48.4 15.5c.48-.05.61-.51.4-.8l2.14-2c.27.23.74.13.82-.34-.05-.5-.55-.64-.83-.38a.48.48 0 0 0-.05.65l-2.15 2a.48.48 0 0 0-.65.02c-.27.25-.18.77.32.85M11.79 35.12c-.63-.18-1.03.32-.9.79l-3.73 1.4c-.21-.42-.85-.54-1.2.02-.2.65.37 1.07.85.89a.65.65 0 0 0 .4-.78l3.72-1.41c.15.3.5.44.82.32.48-.18.62-.87.04-1.23M29.01 5.66c.18.73.92.84 1.31.44l3.57 2.92c-.31.46-.06 1.16.7 1.2.76-.18.86-1 .4-1.37a.75.75 0 0 0-1.01.06L30.4 5.99a.75.75 0 0 0-.14-1c-.47-.38-1.24-.12-1.26.67m7.1 5.54c.48.36 1 .05 1.05-.4h3.71c.05.45.57.76 1.05.4.4-.5.04-1.06-.44-1.06a.6.6 0 0 0-.6.55h-3.72a.6.6 0 0 0-.6-.55c-.49 0-.84.55-.45 1.06m-25.81.49c-.01-.44-.42-.6-.7-.43L7.97 9.13c.24-.22.19-.66-.24-.77-.46 0-.62.44-.4.72.13.18.39.22.58.1l1.64 2.13a.44.44 0 0 0-.05.6c.22.27.69.22.8-.22m15.96 31.5c.83-.03 1.12-.81.77-1.32l3.94-3.24c.43.44 1.25.31 1.45-.5-.03-.87-.88-1.15-1.4-.73a.83.83 0 0 0-.15 1.11l-3.94 3.23a.83.83 0 0 0-1.12-.06c-.5.42-.4 1.32.45 1.52m12.88-.57c.46-.07.57-.51.36-.78l1.99-2c.26.21.7.1.77-.36-.07-.48-.55-.59-.81-.33a.46.46 0 0 0-.03.62l-1.99 2.01a.46.46 0 0 0-.62.03c-.26.26-.15.75.33.81m3.04-23.58c.01-.47-.42-.67-.73-.49l-1.69-2.38c.27-.23.23-.7-.22-.85-.5-.02-.7.46-.48.77.15.2.42.26.63.14l1.69 2.37a.48.48 0 0 0-.08.64c.22.3.73.28.88-.2M32.68 44c-.04.46.36.68.67.53l1.46 2.41c-.27.2-.27.66.16.84.48.05.7-.4.52-.71a.46.46 0 0 0-.6-.18l-1.47-2.41c.2-.14.25-.4.12-.61-.18-.31-.68-.32-.86.13m16.7-5.6c-.7.02-.95.65-.68 1.08l-3.34 2.55c-.35-.37-1.02-.29-1.21.37 0 .72.7.98 1.13.65a.69.69 0 0 0 .16-.91l3.34-2.55c.24.26.64.3.93.08.43-.33.36-1.07-.33-1.26m-21.39-1c.28-.38.04-.79-.3-.82v-2.88c.34-.04.58-.44.3-.82-.4-.3-.82-.03-.82.35 0 .24.18.44.43.47v2.88a.47.47 0 0 0-.43.47c0 .37.43.65.82.35m6.54-3.97c-.48.64-.07 1.33.52 1.38v4.9c-.6.05-1 .73-.52 1.38.66.5 1.4.04 1.4-.59a.8.8 0 0 0-.73-.8v-4.89a.8.8 0 0 0 .73-.8c0-.62-.74-1.09-1.4-.58M11.15 17.48c.08-.38-.24-.6-.5-.5l-1.02-2.16c.25-.15.28-.54-.06-.72-.4-.09-.63.27-.5.55.1.18.3.27.5.2l1 2.16a.4.4 0 0 0-.15.5c.13.28.55.33.73-.03m32.1 8.58c-.57-.58-1.31-.29-1.46.3l-4.87-.78c.04-.6-.58-1.11-1.3-.74-.6.59-.26 1.39.37 1.49.41.06.8-.2.9-.6l4.88.77a.8.8 0 0 0 .67.85c.63.1 1.2-.55.8-1.3m-13.11-8.82c-.5.5-.24 1.16.27 1.29l-.63 4.3c-.53-.02-.97.53-.63 1.15.52.54 1.22.23 1.3-.33a.71.71 0 0 0-.53-.8l.63-4.3c.36.01.69-.24.74-.61.08-.56-.5-1.06-1.15-.7M8.55 31.24c.33.26.69.05.72-.25l2.55.04c.03.3.38.53.72.28.27-.34.03-.73-.3-.73-.21 0-.4.16-.42.37l-2.54-.04a.42.42 0 0 0-.41-.39c-.33 0-.58.37-.32.72m32.6.2c.1.53.63.64.92.37l2.45 2.24c-.24.32-.08.83.46.89.56-.1.66-.68.34-.97a.54.54 0 0 0-.73 0l-2.45-2.24a.54.54 0 0 0-.06-.73c-.32-.29-.89-.13-.94.43"/><path d="M40.66 40.9c.44-.2.42-.7.11-.9l1.4-2.65c.33.14.75-.12.67-.6-.22-.47-.75-.43-.93-.09a.5.5 0 0 0 .17.64l-1.39 2.66a.5.5 0 0 0-.62.23c-.18.35.08.8.59.72m4.43-26.96c-.5-.15-.84.26-.73.64l-3.03 1.15c-.17-.35-.69-.44-.97 0-.16.53.3.88.69.73.26-.1.4-.38.32-.64l3.02-1.15c.12.25.4.36.67.27.39-.15.5-.71.03-1m-6.01 26.83c.35-.2.3-.6.05-.75l1.01-2.24c.29.1.61-.14.53-.53-.2-.37-.63-.31-.77-.02a.4.4 0 0 0 .17.51L39.06 40a.4.4 0 0 0-.5.22c-.13.29.1.65.52.56M10.1 14.26c.54.29 1.02-.1.99-.56l3.72-.59c.12.45.69.67 1.12.23.3-.57-.13-1.07-.61-1a.62.62 0 0 0-.52.66l-3.73.59a.62.62 0 0 0-.7-.46c-.48.07-.74.69-.27 1.13M44.54 3.02c.17.45.64.47.86.19l2.44 1.58c-.16.31.05.74.53.7.47-.16.47-.68.16-.88a.48.48 0 0 0-.64.1l-2.44-1.58a.48.48 0 0 0-.16-.62c-.32-.2-.79.01-.75.51m-33 40.76c.12.43.56.5.79.26l2.12 1.7c-.18.27-.02.68.43.7.45-.12.5-.6.22-.82a.45.45 0 0 0-.6.04l-2.12-1.69a.45.45 0 0 0-.1-.6c-.27-.21-.73-.05-.73.41M6 12.53c.52.39 1.07.06 1.12-.42h3.96c.04.48.6.8 1.11.42.42-.54.04-1.13-.47-1.13a.65.65 0 0 0-.64.59H7.13a.65.65 0 0 0-.65-.6c-.5 0-.88.6-.47 1.14m37.52 29.3c-.75-.1-1.13.54-.9 1.05l-4.01 2.2c-.32-.45-1.06-.47-1.37.21-.12.78.6 1.17 1.11.88.34-.19.48-.6.32-.96l4.01-2.2c.22.31.64.42.99.23.51-.29.56-1.1-.15-1.4m-7.9-19.61c.72-.28.75-1.05.3-1.4l2.57-4c.51.26 1.2-.09 1.15-.86-.27-.77-1.12-.78-1.45-.26a.78.78 0 0 0 .18 1.04l-2.58 4a.78.78 0 0 0-1.01.26c-.33.52.02 1.28.83 1.22"/><path d="M41.13 3.11c.27.32.66.2.75-.1l2.46.58c-.04.3.25.59.63.42.33-.27.19-.7-.13-.77a.41.41 0 0 0-.48.27l-2.46-.57c.03-.2-.1-.4-.31-.46-.32-.07-.64.24-.46.63m-8.7 21.96c-.37.14-.4.54-.16.73l-1.35 2.07c-.27-.14-.63.04-.6.44.14.4.57.41.75.14a.4.4 0 0 0-.09-.54l1.36-2.07c.18.1.41.04.53-.14.17-.27 0-.67-.43-.63m-24.7 5.28c-.13-.4-.56-.43-.76-.2L4.8 28.68c.16-.28-.02-.66-.45-.65-.43.14-.45.6-.17.8.19.13.43.09.58-.08l2.16 1.49c-.1.19-.06.43.13.56.28.2.7.01.68-.44m24.66 4.22c-.2-.37-.61-.33-.77-.06l-2.32-1.08c.1-.3-.14-.64-.55-.55-.39.2-.33.65-.03.79.2.1.43.01.54-.17l2.33 1.08c-.08.2.02.43.21.52.3.14.69-.1.59-.53m2.86-21.64c.6.45 1.22.07 1.28-.47h4.51c.05.54.68.92 1.28.47.47-.6.04-1.29-.54-1.29-.39 0-.7.3-.74.68h-4.51a.74.74 0 0 0-.74-.68c-.58 0-1.01.68-.54 1.3M5.5 20.11c-.06.52.4.77.76.61l1.63 2.77c-.32.23-.32.75.17.96.55.07.8-.44.6-.8a.53.53 0 0 0-.68-.2l-1.64-2.78a.53.53 0 0 0 .15-.7c-.21-.35-.78-.37-.99.14m34.42-.84c.12.52.65.61.93.33l2.52 2.13c-.23.33-.06.83.48.87.55-.12.63-.7.3-.98a.54.54 0 0 0-.72.03l-2.51-2.13a.54.54 0 0 0-.1-.72c-.32-.27-.88-.1-.9.47m-7.18-7.6c-.8.08-1.03.84-.67 1.3l-3.6 3.28c-.43-.4-1.2-.24-1.35.54.07.83.9 1.06 1.36.64a.8.8 0 0 0 .1-1.07l3.59-3.27a.8.8 0 0 0 1.07 0c.46-.42.31-1.27-.5-1.41M6.18 5.83c-.25-.62-.91-.63-1.21-.24L1.49 3.44c.22-.45-.09-1.04-.75-.98-.66.25-.65.97-.2 1.25.3.19.68.1.88-.16L4.9 5.7c-.15.3-.05.69.25.87.45.28 1.1-.04 1.03-.74M27.62 9.3c-.7.06-.93.73-.62 1.15l-3.25 2.85c-.38-.36-1.07-.23-1.22.46.05.74.78.96 1.2.59a.7.7 0 0 0 .1-.95l3.26-2.85a.7.7 0 0 0 .95.02c.42-.37.3-1.12-.42-1.27m-9.51 4.6c-.11.38.2.62.47.55l.86 2.25c-.26.13-.33.52 0 .73.4.12.65-.22.54-.52a.4.4 0 0 0-.47-.24l-.85-2.25a.4.4 0 0 0 .2-.5c-.12-.29-.54-.37-.75-.02m17.1 22.74c.17-.46-.2-.8-.55-.73l-.87-2.92c.34-.13.47-.61.07-.91-.49-.19-.84.22-.73.6a.5.5 0 0 0 .57.34l.87 2.92a.5.5 0 0 0-.3.6c.11.38.63.52.94.1m-4.57 2.12c-.14.38.16.65.45.6l.7 2.36c-.28.1-.38.5-.06.74.4.15.68-.18.6-.48a.4.4 0 0 0-.47-.29l-.7-2.36a.4.4 0 0 0 .24-.49c-.09-.3-.5-.42-.76-.08"/><path d="M27.96 34.04c.79-.1 1-.85.65-1.31l3.53-3.32c.44.4 1.21.22 1.35-.56-.08-.82-.9-1.04-1.37-.61a.8.8 0 0 0-.08 1.06l-3.54 3.32a.8.8 0 0 0-1.07.01c-.45.43-.3 1.27.53 1.4M14.69 3.2c.35.27.72.05.76-.28l2.68.02c.03.33.4.55.76.3.28-.37.03-.77-.32-.78a.44.44 0 0 0-.44.4l-2.68-.02a.44.44 0 0 0-.44-.4c-.34 0-.6.4-.32.76m20.88 42.31c.43-.13.46-.58.21-.8l1.58-2.23c.29.16.7-.02.68-.47-.14-.45-.62-.47-.83-.18-.13.19-.1.45.08.6l-1.58 2.24a.45.45 0 0 0-.59.13c-.2.29-.02.73.45.71m-3.86-5.78c-.05-.54-.55-.7-.88-.47l-2.17-2.47c.28-.29.18-.82-.35-.93-.56.04-.73.6-.44.92.18.21.5.24.72.08l2.17 2.47c-.2.2-.2.51-.02.72.28.32.86.23.97-.32m-.78-18.87c.37.22.71-.03.71-.35l2.6-.25c.05.3.44.49.75.2.24-.38-.05-.74-.38-.71a.43.43 0 0 0-.39.43l-2.59.25a.43.43 0 0 0-.46-.34c-.33.03-.54.44-.24.77m13.6-2.3c-.08-.42-.5-.5-.73-.3l-1.93-1.78c.19-.25.07-.66-.36-.7-.45.07-.53.53-.28.76.17.15.42.15.58 0l1.93 1.79a.43.43 0 0 0 .05.57c.25.24.7.11.74-.33M28.98 4.58c-.84-.03-1.18.74-.88 1.28l-4.2 2.96c-.4-.47-1.24-.41-1.5.4-.04.87.8 1.22 1.35.84a.84.84 0 0 0 .24-1.1l4.22-2.97c.28.33.76.4 1.12.15.55-.38.5-1.3-.34-1.56m-2.76 20.9c-.48-.41-1.05-.12-1.13.35l-3.92-.26c-.02-.47-.54-.83-1.08-.48-.44.5-.11 1.12.4 1.15.33.02.62-.22.67-.54l3.92.25c.01.33.27.6.6.62.51.03.92-.53.54-1.09m-.73 13.5c-.25.33-.04.69.27.72v2.54c-.31.03-.52.39-.27.72.34.27.72.03.72-.3 0-.22-.16-.4-.37-.42V39.7c.2-.03.37-.2.37-.42 0-.33-.38-.57-.72-.3M9 29.69c.57-.46.37-1.15-.14-1.34l1.1-4.32c.53.09 1.04-.43.76-1.1-.47-.6-1.22-.36-1.36.2-.1.37.11.74.46.87l-1.1 4.32a.73.73 0 0 0-.82.54c-.14.56.4 1.13 1.1.83m16.66 6.94c-.07-.6-.64-.77-1-.5l-2.48-2.68c.3-.33.17-.91-.42-1.02-.63.06-.8.68-.47 1.03a.6.6 0 0 0 .8.07l2.5 2.68a.6.6 0 0 0 0 .81c.32.35.96.23 1.07-.39M8.48 39.78c.2.6.83.63 1.12.27l3.17 2.13c-.22.4.05.96.67.93.62-.2.64-.88.23-1.16a.63.63 0 0 0-.83.13l-3.18-2.13a.63.63 0 0 0-.2-.82c-.4-.27-1.02 0-.98.65M2.74.08c-.36.28-.24.72.08.83L2.1 3.6c-.33-.06-.66.26-.49.68.3.37.76.22.85-.12a.45.45 0 0 0-.28-.54L2.9.94c.23.03.45-.1.51-.33.1-.35-.24-.7-.67-.53"/><path d="M25.02 4.48c-.71.16-.84.87-.47 1.25l-2.9 3.34c-.44-.3-1.12-.08-1.17.64.15.74.92.86 1.3.43a.72.72 0 0 0-.03-.98l2.9-3.34c.3.22.72.18.97-.1.38-.44.15-1.2-.6-1.24M11.94 43.07c-.17-.37-.57-.34-.73-.1l-2.18-1.13c.1-.27-.1-.61-.5-.55-.38.18-.34.61-.06.76.18.1.41.03.52-.14l2.18 1.13a.4.4 0 0 0 .19.51c.28.15.65-.07.58-.48M43.71.89c.27.33.68.2.78-.09l2.54.64c-.05.31.25.61.64.45.36-.28.21-.72-.12-.8a.43.43 0 0 0-.5.27L44.5.72a.43.43 0 0 0-.32-.48c-.32-.08-.66.24-.48.65m-2.66 17.46c-.64.4-.52 1.15-.01 1.4l-1.68 4.34c-.54-.15-1.13.31-.93 1.05.42.68 1.22.52 1.44-.04a.76.76 0 0 0-.37-.96l1.67-4.34c.38.1.78-.09.92-.46.22-.56-.27-1.22-1.04-1M21.92 29.77c-.37.49-.06 1 .4 1.05v3.73c-.46.04-.77.56-.4 1.05.5.39 1.06.04 1.06-.44a.61.61 0 0 0-.55-.61V30.8a.61.61 0 0 0 .55-.6c0-.49-.56-.84-1.06-.45m10.32 7.65c-.15-.78-.92-.95-1.36-.56l-3.57-3.3c.36-.47.13-1.23-.66-1.32-.82.14-.98 1-.52 1.42a.8.8 0 0 0 1.08 0l3.57 3.32a.8.8 0 0 0 .08 1.07c.47.42 1.3.2 1.38-.63m-12.55-.67c.24.5.8.46 1.01.11l3.03 1.54c-.15.38.15.85.7.75.52-.25.47-.85.07-1.05a.56.56 0 0 0-.72.2l-3.03-1.53c.1-.26 0-.57-.26-.7-.4-.2-.91.11-.8.68m22.77 7.46c.08.51.59.64.89.38l2.3 2.24c-.25.3-.11.8.4.87.55-.08.67-.64.37-.92-.2-.2-.5-.2-.7-.03l-2.3-2.23a.53.53 0 0 0-.05-.7c-.3-.3-.85-.16-.91.39m-26.2-24.5c-.09-.54-.61-.66-.92-.4l-2.39-2.28c.25-.31.1-.83-.43-.9-.56.1-.68.67-.37.96.2.2.52.2.73.02l2.4 2.27a.54.54 0 0 0 .04.73c.31.3.88.15.94-.4M35.3 32.26c.01.38.37.51.6.36l1.47 1.81c-.2.2-.15.57.22.67.4-.01.53-.4.34-.64a.38.38 0 0 0-.5-.08l-1.47-1.81a.38.38 0 0 0 .03-.51c-.19-.24-.6-.2-.69.2"/><path d="M27.08 36.48c-.4-.44-.96-.25-1.09.17l-3.57-.74c.05-.44-.4-.84-.93-.59-.48.41-.25 1.02.21 1.11.3.07.6-.12.7-.4l3.57.73a.6.6 0 0 0 .47.66c.46.1.91-.37.64-.94m14.37-32.1c-.77.11-.96.86-.6 1.3l-3.32 3.35c-.44-.37-1.19-.17-1.3.6.11.8.93.97 1.36.54.28-.29.3-.74.04-1.04l3.33-3.35c.3.25.76.24 1.04-.05.43-.43.25-1.25-.55-1.35M29.59 29.45c.02-.75-.66-1.06-1.15-.78l-2.67-3.79c.43-.36.37-1.11-.35-1.35-.8-.03-1.1.73-.76 1.22.23.32.66.4 1 .22l2.66 3.78a.76.76 0 0 0-.13 1.01c.35.5 1.16.45 1.4-.3m15.73 17.36c.53-.07.67-.59.42-.9l2.34-2.29c.3.26.82.13.9-.4-.07-.56-.63-.69-.94-.4-.2.2-.2.52-.04.73l-2.33 2.29a.54.54 0 0 0-.72.03c-.3.3-.18.86.37.94m-2.8-3.54c-.46.28-.37.8-.02.98l-1.16 3.06c-.38-.1-.8.22-.65.74.3.47.87.36 1.02-.04a.54.54 0 0 0-.27-.67l1.16-3.05c.26.07.54-.07.64-.33.15-.4-.2-.86-.73-.7"/><path d="M27.89 27.23c-.04-.74-.73-.99-1.18-.68l-2.86-3.48c.38-.39.27-1.11-.45-1.29-.77.03-1.02.79-.65 1.24.25.3.67.35.99.14l2.86 3.48c-.27.27-.3.7-.05 1 .37.44 1.16.34 1.34-.41M14.96 8.1c-.6.04-.79.6-.53.95l-2.76 2.36c-.32-.3-.9-.2-1.03.38.03.62.65.8 1 .5a.6.6 0 0 0 .1-.8l2.76-2.35a.6.6 0 0 0 .8.03c.36-.3.26-.94-.34-1.07m3.81 14.28c-.38.69.1 1.3.7 1.28l.65 4.81c-.57.14-.87.86-.32 1.43.72.41 1.38-.14 1.3-.77a.8.8 0 0 0-.83-.68l-.65-4.8a.8.8 0 0 0 .6-.89c-.08-.62-.86-.97-1.45-.38m.46-5.67c.58.26 1.04-.18.98-.64l3.8-.87c.15.44.75.64 1.17.15.27-.6-.22-1.1-.7-.98a.64.64 0 0 0-.5.7l-3.8.88a.64.64 0 0 0-.75-.43c-.49.12-.72.77-.2 1.2m19.4-14.63c-.15.38.14.66.44.62l.63 2.43c-.29.1-.4.5-.08.75.4.17.7-.15.62-.47a.41.41 0 0 0-.47-.3l-.63-2.43c.2-.08.32-.29.26-.5-.08-.3-.5-.44-.77-.1M45 28.17c-.13-.57-.7-.68-1.02-.38l-2.7-2.37c.25-.35.07-.9-.52-.96-.6.13-.7.75-.35 1.06.23.2.58.2.8-.02l2.7 2.37a.59.59 0 0 0 .09.79c.35.3.96.13 1-.49m-29.8-5.1c.05-.4-.3-.6-.57-.47l-1.17-2.13c.24-.17.25-.56-.11-.73-.41-.06-.62.32-.47.6.1.18.32.25.51.17l1.18 2.12a.4.4 0 0 0-.13.52c.16.28.59.3.75-.08m29.28-9.35c-.53-.64-1.31-.4-1.52.18l-4.92-1.19c.08-.6-.5-1.18-1.27-.86-.68.55-.39 1.4.25 1.55.42.1.84-.13.98-.54l4.93 1.2c-.06.42.2.82.62.93.64.15 1.29-.47.93-1.27m1.36 16.13c-.59.48-.37 1.2.16 1.4l-1.1 4.52c-.56-.09-1.1.45-.8 1.16.5.62 1.29.36 1.43-.23a.76.76 0 0 0-.5-.9l1.11-4.52c.39.06.76-.19.86-.57.14-.59-.43-1.18-1.16-.86M25.74 10.27c.3.49.84.4 1.04.04l3.17 1.3c-.12.4.22.84.76.7.5-.3.4-.9 0-1.06a.56.56 0 0 0-.72.26l-3.17-1.3a.56.56 0 0 0-.33-.69c-.4-.16-.9.19-.75.75m8.33 24.03c.28-.4.03-.8-.32-.84l-.03-2.97c.36-.03.6-.45.31-.84-.4-.3-.85-.02-.84.36 0 .26.2.46.44.48l.02 2.97a.49.49 0 0 0-.43.49c0 .38.45.66.85.35M14.59 44.95c.78.33 1.38-.27 1.29-.9l5.04-1.28c.21.6 1.02.83 1.56.17.35-.82-.32-1.45-.97-1.29a.85.85 0 0 0-.63.96l-5.04 1.29a.85.85 0 0 0-1.02-.54c-.65.17-.93 1.04-.23 1.6M24.65 9c.62.46 1.28.07 1.33-.5h4.7c.06.57.72.96 1.33.5.5-.64.05-1.34-.56-1.34-.4 0-.73.3-.77.7h-4.7a.77.77 0 0 0-.76-.7c-.61 0-1.06.7-.57 1.34m17.76-7.04c.09.54.62.66.93.4l2.44 2.31c-.25.32-.1.85.45.91.56-.09.68-.67.36-.97a.55.55 0 0 0-.74-.02l-2.44-2.3a.55.55 0 0 0-.05-.75c-.32-.3-.9-.15-.95.42M34.7 46.41c.44.04.64-.35.5-.64l2.26-1.42c.2.26.64.25.8-.16.04-.45-.39-.66-.68-.48a.44.44 0 0 0-.16.57l-2.27 1.42a.44.44 0 0 0-.58-.1c-.3.18-.3.65.13.81m9.22-16.55c-.42 0-.58.39-.41.65l-2.04 1.54c-.21-.23-.63-.18-.74.22 0 .44.42.6.68.4a.42.42 0 0 0 .1-.56l2.04-1.54c.15.16.4.19.57.05.26-.2.22-.65-.2-.76"/><path d="M22.9 40.76c-.48-.22-.86.13-.82.51l-3.13.66c-.11-.37-.6-.54-.95-.15-.24.5.16.9.56.82a.53.53 0 0 0 .41-.58l3.13-.65c.08.25.34.41.6.36.41-.09.61-.62.2-.97m8.26.3c-.13.43.21.72.54.64l.94 2.63c-.3.15-.4.6-.01.85.45.14.76-.24.63-.59a.46.46 0 0 0-.54-.28l-.93-2.64c.2-.1.31-.34.23-.57-.12-.34-.6-.45-.86-.04m-21.4-2.12c-.34-.64-1.06-.56-1.33-.1l-4.02-1.86c.17-.5-.23-1.1-.95-.95-.67.35-.57 1.13-.04 1.37.34.16.74.03.93-.3l4.02 1.87c-.12.35.04.74.38.9.52.24 1.18-.19 1.02-.93M22.74 21.8c.35.33.8.14.87-.21l2.94.35c0 .35.37.65.8.4.35-.36.12-.83-.26-.88a.48.48 0 0 0-.53.38l-2.94-.34a.48.48 0 0 0-.43-.5c-.38-.04-.7.37-.45.8M10.51 48.7c.64-.04.86-.65.59-1.04l3.03-2.54c.35.33.98.23 1.13-.4-.03-.68-.7-.9-1.09-.56a.65.65 0 0 0-.12.86l-3.03 2.54a.65.65 0 0 0-.87-.04c-.4.33-.3 1.03.36 1.17m35.67-8.56c.39-.42.16-.93-.26-1.02l.4-3.47c.42.01.76-.44.48-.93-.43-.42-.99-.15-1.04.3-.03.3.17.56.45.62l-.4 3.47c-.29 0-.54.2-.57.5-.05.45.43.84.94.53m-16.49-22.7c.2.33.6.27.72.02l2.23.88c-.08.28.15.58.53.48.35-.2.28-.62-.01-.74a.4.4 0 0 0-.5.19l-2.22-.88a.4.4 0 0 0-.23-.48c-.29-.11-.63.14-.52.53m10.4 13.75c-.41-.08-.64.28-.53.58L37.2 32.9c-.16-.27-.59-.3-.78.08-.09.44.3.68.61.53.2-.1.29-.34.21-.54l2.34-1.16c.12.19.36.26.56.16.3-.15.35-.61-.05-.8M42.62 10c.56-.1.68-.66.4-.98l2.36-2.57c.33.26.88.1.94-.47-.1-.6-.71-.7-1.02-.37-.2.22-.2.55 0 .77l-2.37 2.57a.57.57 0 0 0-.76.06c-.31.34-.15.93.45.99m-1.74 36.45c-.06-.59-.63-.75-.98-.49l-2.47-2.65c.29-.33.16-.9-.42-1.01-.62.06-.78.68-.46 1.03a.6.6 0 0 0 .8.06l2.47 2.65a.6.6 0 0 0 0 .8c.33.35.96.23 1.06-.39M28 18.83c-.5.63-.1 1.32.48 1.39l-.12 4.86c-.58.05-1 .72-.54 1.37.64.52 1.38.08 1.4-.55a.8.8 0 0 0-.7-.81l.11-4.87a.8.8 0 0 0 .75-.77c.01-.63-.7-1.1-1.38-.62m16.84 24.05c.34.37.82.2.92-.17l3.06.56c-.04.37.34.7.8.48.4-.36.19-.87-.2-.94a.5.5 0 0 0-.59.36l-3.05-.55a.5.5 0 0 0-.42-.55c-.4-.07-.77.33-.52.8m-7.36-23.59c.35-.4.12-.86-.26-.93l.26-3.2c.39-.01.7-.44.41-.89-.4-.37-.91-.1-.94.31-.03.28.16.51.43.56l-.26 3.2a.54.54 0 0 0-.52.5c-.04.4.42.75.88.45"/><path d="M38.61 45c.5-.14.57-.66.29-.92l1.96-2.55c.33.21.82.02.83-.51-.14-.53-.71-.59-.96-.26a.53.53 0 0 0 .05.71l-1.96 2.55a.53.53 0 0 0-.7.12c-.25.33-.06.86.5.87M23.63 13.3c.24-.44-.07-.82-.43-.8l-.42-3.01c.36-.09.55-.54.2-.9-.45-.25-.87.1-.81.48a.5.5 0 0 0 .51.43l.42 3a.5.5 0 0 0-.38.56c.06.39.55.6.91.24M35.1 25.74c-.2.33.02.64.3.65l.19 2.34c-.29.05-.46.4-.2.69.34.22.67-.03.65-.34a.39.39 0 0 0-.38-.35l-.18-2.35c.2-.03.33-.21.32-.41-.03-.3-.4-.5-.7-.23m.15-4.11c.55-.54.26-1.25-.3-1.4l.71-4.65c.57.03 1.06-.56.7-1.24-.56-.58-1.33-.25-1.42.36-.06.4.2.76.58.86l-.7 4.66a.77.77 0 0 0-.81.65c-.1.6.54 1.15 1.24.76m5.2-5.38c.53-.16.58-.7.28-.96l1.94-2.69c.35.2.84 0 .84-.55-.17-.54-.75-.58-1-.23a.54.54 0 0 0 .08.72l-1.95 2.69a.54.54 0 0 0-.71.15c-.26.34-.04.89.53.87m-3.07 8.5c-.02.75.67 1.05 1.15.77l2.67 3.73c-.42.36-.36 1.1.36 1.33.78.03 1.09-.72.74-1.2a.75.75 0 0 0-.99-.22l-2.67-3.72a.75.75 0 0 0 .12-1c-.34-.49-1.15-.44-1.38.3m-22.06 18.6c-.35.28-.23.72.1.84l-.71 2.7c-.34-.05-.66.27-.49.7.3.37.77.22.86-.13a.46.46 0 0 0-.29-.55l.7-2.7c.24.04.46-.1.52-.34.1-.35-.24-.7-.69-.52M32.07 7.67c.63-.1.78-.7.48-1.07l2.71-2.76c.37.3.98.14 1.06-.5-.09-.65-.76-.8-1.11-.44a.63.63 0 0 0-.03.86l-2.72 2.76a.63.63 0 0 0-.85.04c-.35.36-.2 1.03.46 1.11m-13.41-.91c.42-.07.52-.49.31-.73l1.82-1.87c.25.2.66.09.71-.34-.06-.44-.51-.54-.75-.3a.43.43 0 0 0-.02.58l-1.82 1.88a.43.43 0 0 0-.57.03c-.24.24-.13.7.32.75"/><path d="M41.65 29.94c.46.53 1.12.31 1.27-.18l4.17.9c-.06.51.45.98 1.08.7.56-.48.3-1.19-.24-1.3a.7.7 0 0 0-.81.47l-4.17-.9a.7.7 0 0 0-.54-.77c-.54-.11-1.07.42-.76 1.08M45.87 45c-.2-.74-.94-.85-1.33-.44l-3.63-2.91c.3-.47.04-1.18-.72-1.2-.77.18-.86 1-.4 1.38.31.25.76.21 1.03-.07l3.62 2.91a.76.76 0 0 0 .16 1.01c.47.38 1.25.11 1.27-.68M26.7 21.86c-.03-.82-.8-1.1-1.3-.77l-3.2-3.91c.44-.43.32-1.25-.48-1.45-.86.03-1.15.87-.74 1.38.28.34.75.4 1.1.17l3.19 3.91c-.3.3-.34.78-.07 1.11.42.51 1.3.4 1.5-.44m10.53-1.69c-.27-.33-.67-.21-.77.08l-2.5-.64c.06-.3-.24-.6-.63-.44-.34.27-.2.7.12.78.2.06.42-.06.5-.26l2.49.64c-.04.21.1.42.3.48.33.08.66-.23.49-.64m16.42-3.7c-.58-.2-.98.24-.9.68l-3.55 1.08c-.17-.41-.76-.56-1.12-.07-.22.6.28 1.03.74.89.3-.1.48-.4.42-.7l3.55-1.09a.6.6 0 0 0 .74.35c.46-.14.63-.77.12-1.14M40.32 31.32c.3-.55-.08-1.04-.54-1.02l-.49-3.8c.45-.1.7-.67.27-1.12-.57-.33-1.1.1-1.03.6.04.32.32.55.64.54l.5 3.8a.63.63 0 0 0-.5.68c.07.5.69.78 1.15.32M16.91 43.24c-.38-.5-.98-.34-1.15.1l-3.66-1.06c.09-.45-.34-.9-.92-.68-.52.39-.34 1.03.14 1.17.31.09.63-.08.75-.37l3.66 1.05c-.06.31.13.62.44.71.47.14.98-.31.74-.92M42.79 4.38c-.26.35-.04.72.28.75V7.8c-.32.03-.54.4-.28.76.36.27.76.02.76-.32a.44.44 0 0 0-.4-.44V5.13c.23-.02.4-.2.4-.43 0-.35-.4-.6-.76-.32M42.6 35.7c-.39.52-.06 1.08.42 1.13v3.97c-.48.05-.8.6-.42 1.13.54.41 1.14.04 1.14-.48a.65.65 0 0 0-.6-.65v-3.97c.34-.04.6-.31.6-.65 0-.52-.6-.9-1.14-.48M12.13 8.86c.45-.02.6-.45.4-.72l2.1-1.77c.24.23.68.15.78-.29-.02-.46-.49-.61-.76-.38a.45.45 0 0 0-.08.6l-2.1 1.78a.45.45 0 0 0-.6-.03c-.27.23-.2.71.26.81m17.82-6.98c-.33.34-.15.77.2.85l-.4 2.86c-.34-.02-.63.35-.4.76.35.35.81.14.86-.23a.47.47 0 0 0-.36-.52l.38-2.86c.24.01.46-.16.49-.4.05-.37-.34-.7-.77-.46m.6 15.72c.52.15.86-.27.76-.65l3.1-1.15c.18.36.7.46 1 0 .17-.54-.3-.9-.7-.75-.26.1-.4.39-.33.65l-3.1 1.15a.54.54 0 0 0-.68-.27c-.4.14-.52.72-.04 1.02m10.66.01c.1-.47-.3-.75-.64-.63l-1.23-2.7c.3-.18.36-.66-.07-.89-.5-.11-.78.33-.62.68.1.23.37.33.6.25l1.24 2.7a.48.48 0 0 0-.2.62c.16.35.68.42.92-.03m-19.53 28.4c.13.44.58.5.81.24l2.23 1.7c-.18.28 0 .7.45.7.47-.12.5-.62.22-.84a.46.46 0 0 0-.62.06l-2.23-1.69a.46.46 0 0 0-.1-.6c-.3-.22-.76-.05-.76.43"/><path d="M40.04 7.81c-.43.59-.06 1.2.47 1.26v4.45c-.53.05-.9.68-.47 1.26.6.46 1.27.04 1.27-.53 0-.38-.29-.7-.66-.73V9.07a.73.73 0 0 0 .66-.72c0-.58-.66-1-1.27-.54m-3.83 21.54c-.5-.24-.9.12-.86.52l-3.29.62c-.1-.39-.62-.57-.99-.17-.26.51.15.95.57.87a.55.55 0 0 0 .44-.6l3.29-.62c.07.27.34.44.62.39.43-.08.65-.63.22-1.01m9.73-21.67c.22-.33 0-.66-.29-.67l-.12-2.42c.3-.05.48-.4.22-.7-.34-.24-.7 0-.68.32a.4.4 0 0 0 .39.38L45.58 7a.4.4 0 0 0-.35.42c.02.31.4.52.71.25m-7.59 4.55c-.23-.32-.61-.24-.73.03l-2.3-.75c.07-.29-.19-.58-.56-.45-.34.23-.24.64.06.74.2.07.4-.03.48-.22l2.3.75c-.04.2.07.4.26.47.3.1.63-.18.5-.57m1 16c.19.53.75.57 1.02.24l2.87 1.94c-.2.36.04.87.6.85.57-.2.58-.8.21-1.06a.57.57 0 0 0-.75.12l-2.87-1.94a.57.57 0 0 0-.18-.74c-.37-.25-.94 0-.9.59"/><path d="M40.3 35.75c.65-.42.52-1.19 0-1.44l1.67-4.48c.56.15 1.17-.34.95-1.1-.44-.69-1.27-.51-1.48.07-.15.38.03.8.4.98l-1.68 4.48c-.4-.1-.8.1-.94.48-.22.58.3 1.25 1.07 1.01m-2.83-13.04c-.35.47-.05.97.38 1.02v3.6c-.43.05-.73.55-.38 1.03.5.37 1.03.03 1.03-.44a.6.6 0 0 0-.53-.58v-3.61a.6.6 0 0 0 .53-.6c0-.46-.54-.8-1.03-.42M24.3 13.4c-.23-.76-1.01-.84-1.4-.4L19 10.16c.3-.5-.01-1.22-.8-1.22-.8.24-.85 1.09-.35 1.46.34.24.8.19 1.06-.12l3.9 2.85a.8.8 0 0 0 .21 1.04c.5.37 1.3.06 1.28-.77m11.16-6.13c.04.66.66.86 1.06.59l2.6 3.03c-.33.35-.21.99.42 1.13.69-.04.9-.72.56-1.11a.66.66 0 0 0-.88-.1l-2.61-3.04a.66.66 0 0 0 .03-.88c-.34-.4-1.04-.29-1.18.38m13.36 34.46c-.57-.5-1.24-.17-1.34.38l-4.61-.38c0-.56-.62-1-1.26-.6-.54.6-.16 1.32.44 1.37.4.03.74-.24.8-.62l4.62.38c0 .38.3.71.7.74.59.05 1.08-.6.65-1.27M32.54 4.95c.56.07.84-.41.67-.8l3-1.68c.25.34.8.36 1.04-.16.08-.58-.46-.88-.85-.66a.57.57 0 0 0-.24.73l-3 1.68a.56.56 0 0 0-.74-.17c-.4.22-.42.83.12 1.06m-3.44 33.5c-.61.05-.8.63-.54 1l-2.83 2.48c-.33-.3-.93-.2-1.06.4.05.65.68.84 1.05.52a.62.62 0 0 0 .1-.83l2.82-2.48c.23.22.59.23.83.02.37-.32.26-.98-.37-1.1m-7.5 8.71c.76.2 1.23-.41 1.07-.97l4.45-1.77c.27.51 1.04.64 1.45-.03.22-.8-.47-1.3-1.04-1.06a.78.78 0 0 0-.46.95l-4.45 1.77a.78.78 0 0 0-1-.37c-.57.23-.72 1.06-.02 1.48M46 9.8c-.39-.43-.93-.24-1.05.17l-3.47-.69c.05-.42-.38-.8-.9-.56-.46.4-.23.99.22 1.07.3.06.58-.11.66-.4l3.47.7c-.03.28.16.56.46.62.45.09.88-.37.6-.9M11.57 37.08c-.48.16-.51.67-.22.9L9.6 40.56c-.33-.18-.8.03-.77.54.17.5.72.52.94.19a.5.5 0 0 0-.1-.68l1.76-2.57a.5.5 0 0 0 .66-.16c.23-.33.01-.83-.52-.8M43.21 13c-.65.19-.73.86-.35 1.2l-2.49 3.34c-.43-.26-1.05 0-1.05.68.2.69.93.75 1.25.31a.68.68 0 0 0-.1-.91l2.5-3.34c.3.18.68.11.9-.17.32-.44.05-1.13-.66-1.11M8.83 19.75c-.33-.25-.7-.04-.72.27H5.55c-.03-.31-.39-.52-.72-.27-.27.34-.03.73.3.73.22 0 .4-.17.42-.38h2.56c.02.21.2.38.42.38.33 0 .57-.39.3-.73m-.35-8.68c-.06-.8-.81-1.04-1.3-.7L4 6.7c.4-.42.27-1.2-.51-1.37-.83.05-1.08.88-.67 1.35a.8.8 0 0 0 1.07.12l3.2 3.67a.8.8 0 0 0-.03 1.07c.41.48 1.26.35 1.43-.47M2.93 40.49c.4.24.78-.05.77-.4l2.84-.32c.08.34.5.53.84.2.25-.41-.06-.81-.43-.77a.47.47 0 0 0-.42.48L3.7 40a.47.47 0 0 0-.51-.37c-.37.04-.6.5-.25.85m28.47-26.8c-.33-.6-1-.54-1.26-.1l-3.81-1.74c.17-.48-.22-1.04-.9-.9-.63.34-.53 1.07-.03 1.3.32.15.7.02.88-.28l3.8 1.74a.7.7 0 0 0 .36.85c.5.23 1.12-.18.96-.87m-3.12-8.25c.13.42.57.46.78.21l2.2 1.57c-.16.28.02.69.47.67.44-.13.46-.6.18-.81a.44.44 0 0 0-.6.07l-2.2-1.57A.44.44 0 0 0 29 5c-.29-.2-.73-.02-.71.44m-4.84.96c.49.04.7-.39.55-.7l2.5-1.58c.22.28.7.27.87-.18.05-.5-.42-.73-.75-.53a.48.48 0 0 0-.17.63l-2.5 1.57a.48.48 0 0 0-.65-.11c-.32.2-.32.72.15.9M36.6 23.26c-.05-.53-.56-.68-.86-.44l-2.19-2.36c.26-.29.15-.8-.37-.9-.55.06-.7.6-.41.91.19.2.5.22.7.06l2.2 2.36a.5.5 0 0 0 0 .7c.28.31.84.2.93-.33m.32 21.3c.54-.07.68-.6.43-.91l2.4-2.34c.3.26.84.13.92-.4-.07-.58-.64-.71-.95-.41-.2.2-.22.52-.05.74l-2.4 2.33a.55.55 0 0 0-.73.03c-.31.3-.2.88.38.96"/><path d="M35.42 1.83c-.09.38.23.61.5.52l.95 2.19c-.25.14-.3.52.04.72.4.1.64-.26.51-.54a.4.4 0 0 0-.48-.21L36 2.32a.4.4 0 0 0 .17-.5c-.13-.28-.54-.34-.74.01m-4.1 23.74c.16.47.65.5.88.2l2.53 1.69c-.17.32.04.76.54.74.49-.17.5-.71.17-.93a.5.5 0 0 0-.66.1l-2.53-1.67a.5.5 0 0 0-.16-.65c-.32-.22-.81 0-.78.52m-3.07-14c-.43.56-.07 1.17.45 1.22v4.35c-.52.05-.88.66-.45 1.23.59.45 1.24.04 1.24-.52a.71.71 0 0 0-.65-.71v-4.35a.71.71 0 0 0 .65-.7c0-.57-.65-.98-1.24-.53m.67 13.6c-.41-.31-.85-.05-.88.33l-3.15.04c-.04-.38-.49-.64-.9-.32-.32.43-.02.9.39.9a.52.52 0 0 0 .5-.48l3.16-.04a.5.5 0 0 0 .51.46c.41 0 .7-.47.37-.9M51.76 9.73c-.32-.36-.77-.2-.88.13L48 9.26c.04-.36-.32-.68-.75-.48-.39.33-.2.82.17.9a.5.5 0 0 0 .56-.34l2.88.61c-.03.25.13.48.38.53.37.08.74-.3.52-.75M32.5 44.53c-.06-.5-.56-.65-.86-.4l-2.21-2.3c.25-.3.13-.8-.39-.89-.54.06-.67.61-.39.91.2.2.5.21.7.05l2.21 2.3c-.17.2-.17.5.02.7.29.3.84.18.92-.36m-1.83 18.48c.48.2.85-.16.8-.54l3.07-.75c.13.36.62.52.95.12.22-.5-.18-.9-.58-.8a.52.52 0 0 0-.4.59l-3.07.75a.52.52 0 0 0-.62-.34c-.4.1-.57.63-.15.97m-1.8 4.72c.5-.67.07-1.4-.55-1.45v-5.16c.62-.05 1.05-.78.55-1.45-.7-.54-1.47-.05-1.47.62 0 .44.33.8.76.83v5.16a.84.84 0 0 0-.76.84c0 .66.77 1.15 1.47.61"/><path d="M31.28 58.1c-.47-.17-.8.2-.72.55l-2.85.9c-.14-.34-.61-.45-.9-.05-.17.48.23.82.6.7a.49.49 0 0 0 .33-.57l2.85-.9c.1.24.36.36.6.28.37-.11.5-.63.09-.92m-1.75 2.23c-.3.65.17 1.18.7 1.13l.85 4.31c-.5.15-.75.83-.21 1.3.67.34 1.24-.2 1.13-.75a.72.72 0 0 0-.78-.58l-.86-4.3a.72.72 0 0 0 .5-.84c-.1-.56-.83-.84-1.33-.27"/><path d="M31.99 63.6c.23-.6-.22-1.03-.68-.95l-1.02-3.73c.43-.16.6-.77.1-1.16-.61-.25-1.07.26-.94.74.09.32.4.51.72.45l1.02 3.73a.63.63 0 0 0-.39.76c.13.48.79.68 1.19.16m-6.83 8.1c.23.42.7.37.87.07L28.64 73c-.11.33.15.72.61.63.44-.23.38-.74.04-.9a.47.47 0 0 0-.6.2l-2.62-1.24a.47.47 0 0 0-.24-.59c-.34-.16-.77.12-.67.6m4.38 13.2c.11-.6-.38-.92-.8-.76l-1.6-3.28c.37-.23.42-.83-.12-1.1-.61-.12-.95.43-.74.85.14.28.46.4.75.3l1.61 3.28a.6.6 0 0 0-.23.77c.21.43.86.5 1.13-.06"/><path d="M30.6 72.5c-.76.01-1.05.71-.75 1.2l-3.72 2.82c-.38-.42-1.14-.33-1.35.4 0 .8.77 1.1 1.25.73.32-.25.4-.68.19-1.02l3.72-2.82c.26.29.7.34 1.02.1.49-.37.41-1.2-.36-1.4m-4.08-8.88c.77-.05 1.02-.77.7-1.23l3.58-3.02c.4.4 1.15.27 1.33-.47-.04-.8-.83-1.06-1.3-.66-.3.25-.35.7-.13 1.02l-3.58 3.01a.77.77 0 0 0-1.03-.04c-.46.4-.35 1.21.43 1.39m.44 16.33c.22.64.9.67 1.21.29l3.44 2.28c-.24.44.05 1.05.73 1.01.67-.23.68-.96.24-1.25a.68.68 0 0 0-.9.14l-3.44-2.3a.68.68 0 0 0-.22-.87c-.44-.3-1.11 0-1.06.7"/><path d="M26.97 62.88c-.33.45-.05.93.36.97v3.42c-.4.04-.7.52-.36.97.47.36.98.03.98-.4 0-.3-.22-.54-.5-.57v-3.42c.28-.03.5-.26.5-.56 0-.44-.51-.76-.98-.4m19.5-5.96c-.58.52-.33 1.24.21 1.4l-.93 4.63c-.57-.06-1.08.5-.75 1.2.53.61 1.3.32 1.43-.28a.77.77 0 0 0-.54-.9l.94-4.61c.4.04.76-.22.84-.61.12-.6-.48-1.18-1.2-.83"/><path d="M47.44 66.5c.37-.5.05-1.04-.4-1.08v-3.84c.45-.04.77-.58.4-1.08-.52-.4-1.1-.04-1.1.46 0 .33.25.6.57.62v3.84a.63.63 0 0 0-.57.62c0 .5.58.86 1.1.46m-.25-7c.2-.63-.31-1.05-.78-.93l-1.35-3.8c.44-.21.57-.86.02-1.23-.66-.2-1.1.35-.93.85.12.32.46.5.79.42l1.35 3.8a.66.66 0 0 0-.35.82c.17.5.87.65 1.25.08"/><path d="M51.18 62.35c-.51-.44-1.1-.14-1.2.35l-4.09-.3c0-.5-.55-.88-1.12-.52-.47.53-.13 1.17.4 1.2.35.03.66-.21.72-.55l4.09.3c0 .34.27.63.62.66.53.03.96-.55.58-1.14m-5.44-2.57c.42-.03.54-.43.36-.68l1.92-1.68c.22.2.63.13.71-.28-.03-.43-.46-.56-.7-.34a.42.42 0 0 0-.07.56l-1.91 1.68a.42.42 0 0 0-.56 0c-.25.21-.18.66.25.74m-3.3 6.18c.2-.4-.1-.73-.42-.7l-.51-2.65c.31-.1.46-.51.14-.8-.42-.22-.77.11-.7.45.04.23.25.38.48.36l.5 2.66a.44.44 0 0 0-.3.5c.06.35.5.52.81.18"/><path d="M42.3 65.9c.78.15 1.2-.51 1-1.06l4.3-2.15c.3.5 1.09.55 1.44-.15.16-.81-.57-1.25-1.13-.97a.79.79 0 0 0-.38.99l-4.3 2.15a.79.79 0 0 0-1.02-.29c-.56.28-.64 1.13.1 1.49m-8.17.77c.33.42.85.28.99-.09l3.17.88c-.07.39.3.77.8.58.45-.34.28-.9-.13-1.01a.54.54 0 0 0-.64.33l-3.17-.88a.54.54 0 0 0-.39-.61c-.41-.12-.84.28-.63.8m16.17-5.76c-.56.34-.45.98-.02 1.2l-1.44 3.7c-.46-.12-.97.28-.8.9.36.59 1.05.45 1.24-.03a.65.65 0 0 0-.32-.82l1.44-3.7c.32.08.66-.08.78-.4.19-.48-.23-1.05-.88-.85m-15.28 1.03c.23-.55-.2-.97-.63-.9l-.92-3.51c.42-.16.58-.72.12-1.1-.58-.24-1.02.23-.9.69.08.3.37.48.67.43l.92 3.52a.6.6 0 0 0-.37.7c.12.46.73.66 1.11.17m5.33-7.97c.02.82.78 1.11 1.3.78l3.12 3.94c-.44.42-.33 1.23.47 1.44.86-.01 1.15-.85.75-1.36a.82.82 0 0 0-1.1-.18l-3.12-3.93c.3-.3.34-.77.07-1.11-.4-.51-1.29-.41-1.5.42"/><path d="M41.78 64.15c.79-.15.95-.93.55-1.37l3.3-3.6c.46.36 1.22.13 1.3-.67-.15-.82-1-.97-1.42-.5a.8.8 0 0 0 0 1.07l-3.29 3.6a.8.8 0 0 0-1.07.1c-.43.46-.2 1.3.63 1.37m-2.74-2.45c-.5-.21-.88.17-.82.56l-3.2.8c-.13-.37-.65-.52-.99-.1-.22.51.2.92.62.81a.54.54 0 0 0 .4-.6l3.2-.8c.09.25.36.4.64.34.4-.1.6-.66.15-1.01m-1.98 4.5c.5.36 1.02.05 1.06-.4h3.75c.04.45.56.76 1.06.4.39-.51.03-1.08-.45-1.08a.61.61 0 0 0-.61.56h-3.75a.61.61 0 0 0-.6-.56c-.5 0-.85.57-.46 1.07"/><path d="M46.4 65.66c-.34-.26-.7-.05-.74.26l-2.6-.02c-.02-.32-.38-.54-.72-.29-.27.35-.03.74.3.75.22 0 .4-.17.43-.38l2.6.02c.01.22.19.4.41.4.34 0 .59-.39.32-.74"/><path d="M42.66 66.87c.77.3 1.34-.28 1.24-.89l4.9-1.32c.22.58 1.01.8 1.53.15.33-.8-.33-1.41-.97-1.24a.83.83 0 0 0-.6.94l-4.9 1.32a.83.83 0 0 0-1-.52c-.63.17-.9 1.03-.2 1.56"/><path d="M41.54 59.06c-.28.8.34 1.35.95 1.23l1.53 4.9c-.58.25-.77 1.06-.1 1.56.83.3 1.43-.4 1.23-1.03a.84.84 0 0 0-.98-.57l-1.53-4.91c.4-.17.62-.6.49-1.03-.2-.63-1.08-.87-1.59-.15m8.6 10.48c.24-.45-.08-.85-.46-.83l-.48-3.1c.37-.1.57-.57.2-.94-.47-.26-.9.1-.83.51.04.27.27.45.54.44l.47 3.1a.52.52 0 0 0-.39.58c.06.4.57.63.95.24m-9.69 4.23c.44-.59.07-1.22-.47-1.27V68c.54-.05.91-.68.47-1.27-.6-.46-1.28-.04-1.28.54 0 .39.3.7.67.74v4.5a.74.74 0 0 0-.67.72c0 .58.67 1.01 1.28.54m7.87-13.36c.43-.21.4-.69.1-.88l1.31-2.6c.33.12.73-.14.65-.6-.22-.46-.73-.4-.9-.07-.11.22-.04.5.17.62l-1.31 2.61a.48.48 0 0 0-.6.23c-.17.34.1.78.58.7"/><path d="M46.33 61.31c.36.14.62-.14.57-.42l2.25-.65c.1.27.48.37.71.06.15-.37-.16-.65-.45-.57a.4.4 0 0 0-.28.44l-2.25.65a.38.38 0 0 0-.46-.23c-.3.08-.41.48-.1.72m-.9 3.57c.15.64.8.73 1.14.39l3.11 2.55c-.27.4-.05 1.01.61 1.04.67-.15.76-.86.35-1.19a.66.66 0 0 0-.88.05l-3.1-2.55a.66.66 0 0 0-.13-.88c-.4-.33-1.08-.1-1.1.59m-1.56 5.54c.12-.68-.45-1.05-.93-.87l-1.88-3.75c.43-.27.48-.96-.14-1.27-.7-.13-1.09.5-.85 1a.7.7 0 0 0 .87.33l1.89 3.75a.69.69 0 0 0-.26.9c.25.48.99.55 1.3-.1M27.8 73.03c.02-.8-.7-1.12-1.22-.82l-2.83-3.98c.45-.38.38-1.17-.38-1.42-.83-.03-1.16.77-.8 1.29a.8.8 0 0 0 1.06.22l2.83 3.98a.8.8 0 0 0-.13 1.07c.37.51 1.23.46 1.47-.34"/><path d="M24.34 67.8c.67.37 1.27-.1 1.25-.66l4.63-.6c.13.55.82.85 1.37.32.4-.7-.12-1.33-.72-1.25-.4.05-.68.4-.67.79l-4.63.6a.77.77 0 0 0-.84-.6c-.6.08-.95.83-.39 1.4m-.72 2.74c-.03.77.65 1.08 1.15.81l2.63 3.84c-.43.36-.38 1.12.34 1.36.8.04 1.12-.71.78-1.21a.76.76 0 0 0-1-.23l-2.63-3.84c.3-.25.36-.69.14-1.02-.34-.5-1.16-.46-1.41.3"/><path d="M30.47 67.8c-.65-.34-1.2.13-1.17.66l-4.4.7c-.13-.52-.8-.78-1.31-.26-.36.67.16 1.26.73 1.17.37-.06.63-.4.6-.77l4.4-.7c.1.36.45.6.82.54.57-.1.88-.82.33-1.34M.8 60.9c.65-.21.69-.88.3-1.2l2.35-3.42c.44.24 1.05-.04 1.02-.72-.22-.67-.95-.7-1.26-.26-.2.3-.13.69.13.9L1 59.62a.68.68 0 0 0-.9.2c-.3.45 0 1.12.7 1.09M7 55.06c-.45.32-.32.85.05 1.01l-1 3.2c-.4-.08-.8.29-.63.8.33.48.9.33 1.04-.09a.55.55 0 0 0-.31-.67l1-3.2c.28.05.56-.1.64-.38.13-.41-.25-.87-.79-.67m35.86-4.03c-.5-.2-.86.18-.8.57l-3.13.86c-.14-.37-.65-.5-.98-.09-.21.52.22.9.62.8a.53.53 0 0 0 .39-.61l3.13-.86c.1.25.37.4.64.33.4-.12.58-.67.13-1M9.6 55.85c.49.15.81-.25.72-.61l2.96-1.07c.16.35.66.44.94.01.17-.5-.27-.85-.65-.71a.51.51 0 0 0-.33.61l-2.95 1.06a.51.51 0 0 0-.64-.26c-.39.13-.5.68-.05.97m22.35-9.82c-.41.13-.45.55-.22.76l-1.55 2.11c-.27-.16-.66.01-.66.44.13.43.59.46.79.19a.43.43 0 0 0-.06-.58l1.55-2.11c.19.11.43.07.57-.11.2-.28.03-.7-.42-.7"/><path d="M13.4 51.3c-.2.52.2.91.62.84l.91 3.35c-.39.15-.54.69-.1 1.04.56.22.97-.23.85-.66a.57.57 0 0 0-.64-.41l-.92-3.35c.27-.1.43-.4.35-.68-.12-.43-.7-.6-1.06-.14m10.76 2.86c.66.14 1.03-.4.87-.87l3.7-1.7c.25.42.91.49 1.23-.1.16-.68-.45-1.07-.93-.85a.67.67 0 0 0-.35.83l-3.7 1.7a.67.67 0 0 0-.86-.27c-.48.22-.57.94.04 1.26M3.62 57.02c.14-.37-.15-.65-.44-.6l-.65-2.36c.27-.1.38-.49.06-.73-.39-.16-.68.16-.6.47.06.2.26.32.46.29l.66 2.35a.4.4 0 0 0-.25.49c.09.3.5.43.76.1"/><path d="M30.16 51.07c-.13-.43-.57-.47-.79-.23l-2.2-1.6c.17-.29 0-.7-.45-.69-.44.13-.48.61-.2.82.2.14.45.1.6-.07l2.2 1.61c-.12.2-.07.45.12.59.28.2.73.03.72-.43m3.12 1.89c-.41.02-.55.4-.38.66l-1.92 1.61c-.21-.2-.62-.14-.7.26.01.43.43.56.68.35a.4.4 0 0 0 .07-.55l1.93-1.61c.15.14.38.16.55.02.25-.21.19-.65-.23-.74M49.5 55.6c-.34-.26-.7-.05-.74.26l-2.63-.05c-.02-.31-.38-.54-.73-.29-.28.35-.04.75.3.76.22 0 .4-.17.43-.38l2.62.05c.02.21.2.39.42.4.34 0 .6-.39.33-.75m-4.2-10.98c-.74.05-.98.76-.66 1.21l-3.47 2.98c-.4-.38-1.13-.25-1.3.48.05.78.82 1.02 1.27.63.3-.25.35-.68.12-1l3.47-2.98c.28.27.71.28 1.01.03.45-.39.33-1.19-.44-1.35m-2.14 11.65c.6-.42.43-1.12-.06-1.33l1.35-4.19c.52.12 1.06-.36.83-1.04-.43-.62-1.19-.42-1.36.12-.12.36.06.73.4.88l-1.35 4.19a.72.72 0 0 0-.84.48c-.17.54.33 1.14 1.03.89m-17.73-8.1c-.4.36-.23.88.16 1l-.65 3.28c-.4-.04-.77.36-.53.86.37.43.93.22 1.01-.2a.55.55 0 0 0-.38-.64l.66-3.28c.28.02.54-.16.6-.44.08-.43-.35-.84-.87-.58"/><path d="M30.87 49.16c-.44.58-.07 1.2.46 1.25v4.43c-.53.05-.9.67-.46 1.25.6.46 1.26.04 1.26-.53a.72.72 0 0 0-.66-.72V50.4a.72.72 0 0 0 .66-.72c0-.57-.66-.99-1.26-.53"/><path d="M34.8 58.13c.17-.57-.29-.95-.72-.84l-1.25-3.45c.4-.2.52-.78.01-1.11-.6-.2-1 .32-.83.77.1.3.42.45.71.38l1.25 3.45a.6.6 0 0 0-.3.75c.15.44.79.58 1.13.05m3.75-10.52c-.23.59.22 1.03.69.95l1.02 3.77c-.45.17-.62.78-.11 1.17.61.26 1.08-.25.95-.74a.64.64 0 0 0-.73-.46l-1.02-3.77a.63.63 0 0 0 .4-.76c-.13-.5-.8-.7-1.2-.16m-23.52 9.6c.6.07.88-.45.69-.85l3.1-1.87c.27.35.86.34 1.08-.2.07-.62-.5-.91-.9-.67a.6.6 0 0 0-.23.77l-3.11 1.87a.6.6 0 0 0-.79-.15c-.4.24-.41.88.16 1.1m30.35-5.73c-.71.13-.87.83-.51 1.23l-3.01 3.23c-.43-.33-1.12-.12-1.2.6.13.74.9.89 1.29.47a.73.73 0 0 0 0-.98l3.02-3.22c.3.22.71.2.97-.08.39-.42.2-1.17-.56-1.25"/><path d="M44.6 51.82c-.03-.39-.39-.51-.62-.35l-1.5-1.8c.2-.21.13-.59-.24-.68-.4.02-.53.41-.34.65a.4.4 0 0 0 .52.07l1.5 1.8a.39.39 0 0 0-.02.52c.2.24.6.18.7-.21m-11.93 1.06c.47.37 1 .07 1.04-.37l3.68.06c.03.45.54.76 1.03.41.39-.5.05-1.05-.42-1.06a.6.6 0 0 0-.61.54l-3.67-.07a.6.6 0 0 0-.6-.55c-.47-.01-.82.53-.45 1.04m-4.16 1.84c-.24.32-.04.66.25.69l-.03 2.4c-.3.03-.5.37-.26.69.32.25.68.03.69-.28a.4.4 0 0 0-.35-.4l.03-2.41a.4.4 0 0 0 .36-.39c0-.31-.35-.54-.69-.3m-21.9-4.3c.66.14 1.04-.42.87-.89l3.75-1.76c.25.43.92.49 1.24-.1.15-.7-.47-1.1-.95-.87a.68.68 0 0 0-.35.85l-3.75 1.77a.68.68 0 0 0-.87-.27c-.48.23-.57.95.06 1.28m21.31 2.64c.27.29.64.15.71-.13l2.35.41c-.02.29.27.54.62.36.3-.27.14-.66-.16-.72a.39.39 0 0 0-.45.29l-2.35-.41a.39.39 0 0 0-.32-.42c-.3-.05-.58.26-.4.62m-5.7-6.49c-.34.46-.05.94.37.98v3.46c-.42.04-.7.52-.37.98.47.36.99.03.99-.42 0-.3-.23-.53-.52-.56v-3.46a.57.57 0 0 0 .52-.56c0-.45-.52-.78-.99-.42m28.44 8.71c0-.59-.55-.8-.92-.57l-2.17-2.86c.31-.3.25-.87-.32-1.03-.61 0-.83.6-.55.96.18.25.52.3.78.14l2.17 2.85a.59.59 0 0 0-.07.8c.28.36.92.3 1.08-.29M8.54 54.4c-.4-.29-.81-.04-.84.32l-2.99.02c-.03-.36-.45-.6-.84-.31-.31.4-.03.85.36.85.26 0 .46-.2.48-.45l2.99-.01c.02.24.23.44.49.44.38 0 .66-.45.35-.86"/><path d="M36.24 52.73c-.4-.08-.64.26-.54.55l-2.33 1.07c-.15-.27-.56-.31-.76.05-.1.43.28.68.58.54.2-.1.29-.32.22-.52l2.32-1.07c.1.19.34.27.54.17.3-.13.36-.58-.03-.79m-15.73-5.3c-.78-.02-1.1.68-.82 1.18l-3.9 2.7c-.38-.44-1.15-.39-1.4.35-.04.81.74 1.14 1.24.8a.78.78 0 0 0 .24-1.03l3.9-2.7c.26.3.7.38 1.04.14.5-.34.47-1.18-.3-1.43m13.26-.62c.47.62 1.21.43 1.42-.1l4.54 1.31c-.1.56.42 1.12 1.14.85.65-.48.42-1.28-.17-1.45a.77.77 0 0 0-.93.46l-4.53-1.31a.77.77 0 0 0-.55-.9c-.58-.16-1.21.4-.92 1.14m7.07 8.82c-.67-.33-1.23.16-1.18.7l-4.48.83c-.15-.53-.84-.79-1.35-.24-.35.7.2 1.28.77 1.18a.75.75 0 0 0 .6-.8l4.49-.82c.1.37.47.6.85.53.58-.1.88-.85.3-1.38m10.3-8.02c-.79-.35-1.4.23-1.33.86l-5.1 1.15c-.2-.6-1-.86-1.56-.21-.37.81.28 1.47.94 1.32.44-.1.72-.51.66-.95l5.1-1.15c.14.41.57.67 1 .57.66-.15.97-1.02.28-1.6m-15.8.93c-.18-.38-.6-.36-.76-.1l-2.25-1.21c.12-.29-.1-.64-.5-.58-.4.18-.37.63-.08.78.19.1.43.04.54-.13l2.25 1.2c-.08.2 0 .43.19.53.29.16.68-.06.6-.5M13.39 50.2c-.51.18-.55.72-.24.97l-1.85 2.75c-.35-.2-.84.04-.81.58.18.54.76.55 1 .2a.54.54 0 0 0-.1-.72l1.85-2.75c.24.13.55.06.7-.17.25-.36.01-.9-.55-.86m5.71 7.46c.65-.3.62-1 .19-1.3l2.07-3.8c.48.21 1.08-.15.98-.85-.3-.68-1.06-.63-1.33-.14a.7.7 0 0 0 .23.93l-2.07 3.8a.71.71 0 0 0-.9.31c-.27.5.1 1.16.83 1.05"/><path d="M18.32 52.55c-.2-.44-.68-.43-.89-.13l-2.6-1.43c.15-.33-.1-.75-.58-.68-.46.2-.43.73-.1.91.23.12.5.05.64-.15l2.6 1.43a.5.5 0 0 0 .2.62c.35.18.8-.07.73-.57m10.24 1.2c.77-.28.8-1.1.32-1.47l2.73-4.23c.54.28 1.27-.08 1.21-.9-.29-.82-1.18-.83-1.53-.28a.82.82 0 0 0 .18 1.1l-2.72 4.22a.82.82 0 0 0-1.07.28c-.36.55.02 1.36.88 1.29m8.7-.91c.17.6.79.68 1.1.34l3.05 2.33c-.24.4-.01.98.62.98.63-.17.7-.84.3-1.15a.63.63 0 0 0-.84.08l-3.05-2.34a.63.63 0 0 0-.15-.83c-.4-.3-1.03-.07-1.03.59m5.76-2c.54-.05.7-.56.45-.88l2.43-2.25c.3.27.83.15.92-.38-.05-.56-.61-.72-.93-.42-.2.19-.23.5-.06.72L43.4 49.9a.54.54 0 0 0-.73 0c-.32.3-.2.87.35.97m-22.44.78c.33.25.69.03.71-.27h2.55c.03.3.38.52.72.27.26-.35.02-.73-.3-.73-.23 0-.4.17-.42.38h-2.55a.42.42 0 0 0-.4-.38c-.34 0-.58.38-.31.73"/><path d="M18.51 51.42c-.33.44-.05.91.36.95v3.38c-.41.04-.7.51-.36.96.46.35.97.03.97-.4a.55.55 0 0 0-.5-.56v-3.38c.27-.03.5-.26.5-.55 0-.44-.51-.76-.97-.4m-9.3.04c.44.33.9.05.94-.35h3.34c.04.4.5.68.94.35.35-.45.04-.95-.4-.95a.55.55 0 0 0-.54.5h-3.34a.55.55 0 0 0-.54-.5c-.43 0-.75.5-.4.95m17.38-6.64c-.43.36-.27.89.12 1.03l-.8 3.32c-.41-.06-.8.34-.58.85.37.46.94.27 1.04-.17a.56.56 0 0 0-.36-.66l.8-3.32c.29.04.56-.14.63-.42.1-.43-.32-.87-.85-.63m2.66 6.82c.63.47 1.3.07 1.36-.5h4.84c.06.57.73.97 1.37.5.5-.66.04-1.38-.58-1.38a.8.8 0 0 0-.8.72h-4.83a.8.8 0 0 0-.78-.72c-.63 0-1.09.72-.58 1.38m-11.79-3.6c-.3-.63-.99-.58-1.26-.15L12.43 46c.19-.47-.18-1.05-.86-.93-.65.32-.58 1.06-.1 1.3.33.17.71.05.9-.25l3.77 1.9c-.13.32.01.7.33.86.49.25 1.13-.14 1-.85m23.58 3.35c.34-.46.05-.94-.37-.97l-.01-3.44c.41-.05.7-.53.36-.98-.47-.36-.99-.03-.99.42 0 .3.23.53.52.56l.01 3.44a.56.56 0 0 0-.5.56c0 .45.51.77.98.4"/><path d="M13.91 47.54c-.49-.2-.85.19-.78.57l-3.1.86c-.14-.36-.64-.5-.97-.08-.2.51.22.9.62.78a.53.53 0 0 0 .38-.6l3.1-.86c.1.25.36.4.63.32.4-.11.56-.66.12-1m5.27 2.65c-.8.1-1 .86-.64 1.32l-3.52 3.38c-.45-.38-1.22-.2-1.35.59.1.83.93 1.04 1.39.6a.8.8 0 0 0 .07-1.08l3.52-3.38a.8.8 0 0 0 1.08-.02c.45-.44.28-1.29-.55-1.41m3.73.94c.1.62.7.78 1.05.48l2.72 2.7c-.3.36-.14.97.48 1.06.65-.09.8-.75.45-1.1a.63.63 0 0 0-.85-.04l-2.71-2.7a.64.64 0 0 0-.04-.85c-.35-.35-1.01-.2-1.1.45m14 4.65c.65-.18.73-.84.37-1.17l2.5-3.24c.41.26 1.03.01 1.04-.65-.18-.68-.9-.75-1.22-.33a.67.67 0 0 0 .07.9l-2.5 3.24a.67.67 0 0 0-.88.15c-.32.42-.07 1.1.63 1.1m-4.21-3.9c.52 0 .72-.47.52-.8l2.55-1.91c.26.28.78.23.93-.27 0-.55-.52-.75-.86-.5a.52.52 0 0 0-.13.69l-2.55 1.9a.52.52 0 0 0-.7-.06c-.33.24-.29.8.24.96"/><path d="M26.52 53.97c-.56-.08-.85.4-.68.8l-3.02 1.66c-.24-.34-.8-.36-1.03.16-.09.58.45.88.84.66a.57.57 0 0 0 .24-.72l3.02-1.67c.16.23.48.32.74.17.4-.21.43-.82-.11-1.06m15.04-5.38c-.61-.46-1.26-.07-1.32.49h-4.66c-.05-.56-.7-.95-1.31-.5-.49.64-.05 1.34.55 1.34.4 0 .73-.3.76-.7h4.66c.04.4.36.7.76.7.6 0 1.04-.7.56-1.33m4.86 1.3c.45.21.82-.12.78-.5l3.01-.6c.11.35.58.52.92.14.23-.47-.15-.86-.54-.78a.5.5 0 0 0-.4.54l-3 .61a.5.5 0 0 0-.59-.35c-.39.08-.58.6-.18.94"/><path d="M36.46 49.48c-.14.35.13.62.41.57l.63 2.26c-.27.1-.37.47-.07.7.38.16.66-.15.58-.44a.38.38 0 0 0-.44-.28l-.63-2.26a.38.38 0 0 0 .24-.46c-.08-.3-.48-.41-.72-.1m-12.74-2.54c-.21.5.16.88.55.82l.75 3.18c-.37.12-.53.63-.12.97.5.23.91-.18.81-.6a.53.53 0 0 0-.59-.4l-.75-3.17a.53.53 0 0 0 .35-.63c-.1-.41-.64-.6-1-.17m-9.84.44c-.28.37-.05.76.29.8v2.78c-.34.03-.57.42-.3.79.38.29.8.03.8-.33a.46.46 0 0 0-.41-.46v-2.79a.46.46 0 0 0 .41-.45c0-.36-.42-.63-.8-.34"/><path d="M12.05 49.55c-.07.6.46.9.86.71l1.85 3.18c-.37.26-.37.86.18 1.1.63.08.93-.5.69-.91a.6.6 0 0 0-.78-.24l-1.84-3.19a.6.6 0 0 0 .17-.79c-.23-.41-.89-.44-1.13.14m35.16 5.1c.31-.37.1-.8-.26-.85l.16-2.92c.35-.01.62-.4.35-.8-.38-.33-.83-.08-.85.3-.02.25.16.46.4.5l-.15 2.92a.48.48 0 0 0-.46.45c-.02.38.4.68.81.4m-21.03-5.48c.78 0 1.08-.7.79-1.2l3.82-2.81c.38.42 1.15.35 1.38-.4.01-.81-.77-1.12-1.27-.75a.78.78 0 0 0-.2 1.03l-3.82 2.81a.78.78 0 0 0-1.04-.1c-.5.36-.44 1.2.34 1.42m3.48 7.02c-.38-.58-1.06-.45-1.27.01l-3.96-1.42c.13-.49-.3-1.02-.97-.82-.6.4-.44 1.12.07 1.3.34.13.7-.03.86-.35l3.95 1.42c-.08.34.1.7.44.82.5.18 1.1-.28.88-.96"/><path d="M52.04 48.76c-.82-.04-1.17.7-.88 1.23l-4.13 2.8c-.38-.47-1.19-.43-1.46.35-.05.85.76 1.2 1.3.84.35-.24.45-.7.25-1.07l4.13-2.8c.27.33.74.4 1.09.16.53-.36.5-1.24-.3-1.51m-40.26 6.21c.09.4.49.47.7.26l1.9 1.62c-.17.25-.04.63.37.66.42-.1.48-.53.24-.74a.4.4 0 0 0-.55.02l-1.9-1.62a.4.4 0 0 0-.07-.54c-.25-.21-.67-.08-.7.34m10.92 1.46c.54-.37.4-1.01-.04-1.2l1.27-3.82c.47.11.97-.31.76-.94-.39-.57-1.08-.4-1.24.1-.1.32.05.67.36.8l-1.27 3.81a.66.66 0 0 0-.77.43c-.17.5.28 1.05.93.82m13.5-.2c-.66-.5-1.36-.08-1.42.52h-5.04c-.06-.6-.77-1.03-1.43-.53-.52.68-.05 1.44.6 1.44.44 0 .79-.33.83-.75h5.04c.04.42.39.75.82.75.65 0 1.13-.75.6-1.44m15.9-.55c-.42-.32-.87-.05-.9.34h-3.24c-.03-.39-.48-.66-.9-.34-.34.44-.04.92.38.92.27 0 .5-.21.52-.48h3.23c.03.27.25.48.53.48.41 0 .72-.48.38-.92m-17.38-33.6c-.41.16-.43.59-.18.8l-1.47 2.22c-.28-.15-.67.04-.65.48.15.43.62.44.81.15a.44.44 0 0 0-.09-.58l1.47-2.23c.2.1.45.04.57-.15.2-.28 0-.72-.46-.68m9.76-7.12c.24-.33.04-.67-.26-.7v-2.49c.3-.03.5-.37.26-.7-.34-.26-.71-.02-.71.3 0 .21.16.38.37.4v2.49a.4.4 0 0 0-.37.4c0 .32.37.56.7.3m-36.7 24.1c-.4.13-.43.54-.2.74L6.1 41.86c-.27-.15-.64.02-.63.44.13.4.58.43.76.16a.41.41 0 0 0-.07-.55l1.46-2.06c.18.1.42.05.54-.12.19-.27.02-.68-.41-.67m34.94-.18c-.53.26-.5.84-.13 1.08l-1.62 3.19c-.4-.16-.9.15-.8.73.26.55.9.5 1.1.08a.59.59 0 0 0-.2-.76l1.62-3.2c.28.12.6 0 .74-.27.21-.41-.1-.96-.71-.85m.67-10.14c-.27.47.07.9.47.89l.43 3.29c-.39.09-.6.59-.22.98.49.28.94-.1.89-.52a.54.54 0 0 0-.56-.47l-.44-3.3a.54.54 0 0 0 .42-.6c-.05-.43-.59-.67-.99-.27M33.1 39.6c.2-.33-.04-.64-.32-.63l-.25-2.33c.27-.05.43-.4.17-.68-.34-.2-.67.05-.63.35.02.2.19.34.38.34l.26 2.32a.38.38 0 0 0-.3.42c.02.3.4.48.69.2m7.94-3.62c.31.55.94.48 1.17.06l3.56 1.56c-.15.44.22.96.84.81.58-.32.47-1 .01-1.2a.64.64 0 0 0-.8.28l-3.56-1.56a.64.64 0 0 0-.35-.78c-.46-.2-1.03.19-.87.83M24.22 16.58c-.27.55.13 1 .58.96l.67 3.65c-.43.13-.64.7-.19 1.1.57.3 1.05-.15.96-.62a.6.6 0 0 0-.65-.5l-.68-3.65a.6.6 0 0 0 .43-.7c-.09-.47-.7-.71-1.12-.24M42.47 44.6c-.64-.2-1.07.3-.96.8l-3.9 1.33c-.2-.45-.86-.59-1.24-.03-.22.67.34 1.13.85.96a.68.68 0 0 0 .44-.8l3.9-1.35c.14.32.5.48.83.36.5-.17.67-.88.08-1.27m-9.52-3.63c-.6-.45-1.25-.07-1.3.5H27c-.06-.57-.7-.95-1.31-.5-.49.63-.05 1.33.55 1.33.4 0 .72-.3.76-.7h4.63c.04.4.36.7.76.7.6 0 1.04-.7.55-1.33m4.38-26.21c-.22-.45-.72-.41-.92-.1l-2.76-1.37c.13-.35-.14-.77-.64-.68-.47.23-.42.77-.06.95a.5.5 0 0 0 .65-.19l2.77 1.38a.5.5 0 0 0 .24.63c.36.18.83-.1.72-.62m-9.2 33.54c.72 0 1-.65.73-1.1l3.54-2.58c.36.4 1.07.33 1.28-.36.02-.75-.7-1.04-1.16-.7a.72.72 0 0 0-.2.94l-3.54 2.58a.72.72 0 0 0-.96-.1c-.46.33-.41 1.1.31 1.32m-17.26-6.66c-.02.4.33.57.59.44l1.3 2.03c-.23.18-.21.58.16.72.4.03.59-.36.42-.62a.4.4 0 0 0-.51-.14l-1.3-2.03a.4.4 0 0 0 .08-.53c-.17-.26-.6-.26-.74.13"/><path d="M30.14 35.45c.72-.18.82-.91.43-1.3l2.82-3.52c.46.3 1.15.04 1.17-.7-.19-.75-.98-.84-1.35-.38-.24.3-.2.73.07 1l-2.82 3.52a.74.74 0 0 0-.99.15c-.36.46-.1 1.22.67 1.23m-7.78 3.47c-.36-.27-.75-.04-.78.29h-2.73c-.03-.33-.42-.56-.77-.29-.29.37-.03.78.32.78.24 0 .43-.18.45-.4h2.73c.02.22.21.4.45.4.35 0 .61-.4.33-.78m4.99 2.56c-.41.13-.45.55-.21.76l-1.55 2.14c-.27-.16-.67.01-.66.44.13.43.6.46.8.19a.43.43 0 0 0-.07-.58l1.54-2.14c.2.11.44.07.57-.12.2-.27.03-.7-.42-.7M9.8 44.4c.46-.62.07-1.29-.5-1.34v-4.74c.57-.06.96-.72.5-1.34-.65-.5-1.36-.05-1.36.57 0 .4.31.73.7.77v4.74a.77.77 0 0 0-.7.77c0 .61.71 1.06 1.36.57m19.03-25.31c.43-.18.42-.64.15-.84l1.42-2.41c.3.14.7-.08.65-.54-.18-.44-.67-.43-.86-.11-.12.2-.06.46.13.6l-1.42 2.42a.46.46 0 0 0-.59.18c-.18.31.05.75.52.7m8.67 10.74c.22.32.6.25.71-.01l2.22.8c-.07.27.17.57.54.45.34-.21.25-.62-.03-.72a.39.39 0 0 0-.48.2l-2.22-.8a.39.39 0 0 0-.24-.46c-.3-.1-.62.15-.5.54m8.56-1.3c-.4-.33-.86-.09-.92.3l-3.19-.17c-.01-.39-.44-.68-.88-.39-.35.42-.08.91.33.93.28.02.51-.18.55-.44l3.19.17c0 .26.22.48.5.5.4.02.73-.44.42-.9M23.53 45.19c-.4-.47-.97-.29-1.12.14l-3.63-.86c.06-.45-.38-.87-.94-.63-.5.4-.28 1.03.2 1.14.3.08.61-.1.71-.4l3.64.86a.6.6 0 0 0 .46.68c.47.11.94-.35.68-.93m21.36-23.76c.03-.5-.41-.72-.74-.55l-1.68-2.56c.29-.24.26-.74-.2-.9-.53-.05-.76.45-.54.78a.5.5 0 0 0 .66.17l1.68 2.56a.5.5 0 0 0-.11.67c.22.34.76.33.93-.17"/><path d="M21.08 39.22c-.06.42.3.63.59.5l1.26 2.26c-.26.18-.27.6.12.78.44.06.66-.34.5-.64a.42.42 0 0 0-.55-.18l-1.26-2.25a.42.42 0 0 0 .13-.56c-.16-.29-.62-.31-.8.1m12.47 9.03c.36.27.75.05.78-.29h2.76c.03.34.42.56.78.3.3-.38.03-.8-.33-.8a.45.45 0 0 0-.45.42h-2.76a.45.45 0 0 0-.45-.42c-.36 0-.62.42-.33.8m-10.86-32.5c-.36.27-.25.71.07.83l-.76 2.68c-.33-.06-.66.25-.5.67.29.38.76.25.86-.1a.46.46 0 0 0-.28-.55l.76-2.67c.23.04.46-.1.52-.33.1-.34-.23-.7-.67-.53m10.2-5.38c-.43.29-.33.79 0 .95l-1.07 2.95c-.37-.1-.76.22-.62.72.3.45.83.33.97-.05a.51.51 0 0 0-.26-.64l1.08-2.95c.26.07.52-.06.62-.31.13-.39-.2-.83-.72-.67m-10.14.1c-.4.32-.27.8.08.93l-.84 2.96c-.36-.07-.73.28-.55.75.32.42.84.26.95-.12a.5.5 0 0 0-.3-.6l.83-2.96c.25.05.5-.1.58-.36.1-.38-.26-.78-.75-.6m7.13 36.43c.3-.55-.1-1.03-.56-1.01l-.55-3.78c.45-.11.69-.69.24-1.13-.57-.32-1.08.12-1.01.6.05.33.33.56.65.54l.55 3.79a.63.63 0 0 0-.47.7c.07.48.69.76 1.15.3m8.4-27.51c.24.39.7.3.84 0l2.64.99c-.09.33.2.68.65.55.4-.25.3-.74-.04-.87a.46.46 0 0 0-.58.23l-2.63-.98a.46.46 0 0 0-.29-.56c-.34-.13-.74.18-.6.64M22.14 29.86c.16.35.54.34.7.11l2.04 1.14c-.11.26.08.6.46.54.36-.16.34-.57.08-.72a.38.38 0 0 0-.5.12l-2.04-1.14a.38.38 0 0 0-.17-.5c-.26-.14-.62.06-.57.45m6.1 7.26c.43.32.9.04.93-.35h3.27c.03.4.5.67.92.35.34-.45.03-.94-.4-.94-.27 0-.5.22-.52.49h-3.27a.54.54 0 0 0-.53-.49c-.43 0-.74.5-.4.94m1.4-14.86c-.04.6.5.87.9.66l2.06 3.1c-.35.28-.32.88.25 1.09.64.04.9-.56.64-.96a.6.6 0 0 0-.8-.2l-2.05-3.1a.6.6 0 0 0 .13-.8c-.27-.4-.93-.4-1.13.2m5.4 13.14c-.35-.38-.85-.2-.95.18l-3.2-.56c.04-.39-.36-.73-.83-.5-.41.38-.2.91.22.99.27.04.53-.13.6-.39l3.2.56c-.03.27.15.52.43.57.41.07.8-.36.54-.85M45 22.41c-.42-.05-.62.3-.5.59l-2.23 1.25c-.17-.26-.59-.27-.76.12-.06.43.34.65.62.48a.4.4 0 0 0 .18-.53l2.23-1.25c.12.17.36.23.55.13.29-.17.31-.62-.1-.79M19 14.86c-.27.62.2 1.11.7 1.04l.94 4.04c-.47.16-.67.8-.15 1.24.64.29 1.16-.24 1.03-.76a.68.68 0 0 0-.75-.51l-.95-4.04a.68.68 0 0 0 .45-.8c-.12-.52-.82-.76-1.27-.2"/></g></svg>