<svg xmlns="http://www.w3.org/2000/svg" xml:space="preserve" viewBox="0 0 53.972481 85.300529"><g fill="#231f20"><path d="M4.126567 55.542971c.638371.46976 1.313168.0631 1.364863-.52076l4.840848-.035c.06036.58321.740717.98011 1.372148.50098.499594-.66091.03677-1.3829-.590144-1.37838-.413554.003-.747308.3223-.783045.7258l-4.840848.035c-.04163-.40315-.379898-.71747-.793452-.71435-.62692.005-1.07933.73274-.57037 1.38671m18.18519-1.39643c-.25014.35978-.0153.72649.30809.74662l.0916 2.67455c-.32127.042-.53048.42361-.25639.7657.37261.26611.76465-.00026.75286-.34659-.008-.22863-.18909-.40835-.41286-.42223l-.0913-2.67455c.22204-.0288.39066-.22031.38268-.44895-.0118-.34624-.42084-.58563-.77472-.29455m5.22838-8.91877c-.21337.67584.32543 1.12893.83439 1.00403l1.42662 4.08488c-.47566.21891-.61512.90898-.0274 1.30518.70325.23176 1.17994-.3681.99502-.89718-.12177-.34903-.48779-.53915-.83959-.45276l-1.42696-4.08452c.32924-.15162.49716-.52839.37539-.87742-.18492-.52907-.93154-.7015-1.33746-.0822m-1.04047 10.327c.40245.0295.58286-.32855.44721-.59431l2.07574-1.32705c.18422.23488.58459.2217.72684-.15612.0364-.42014-.35874-.6054-.62762-.43367-.17728.11345-.23453.34139-.14051.52492l-2.07609 1.32705c-.12732-.16237-.35804-.20609-.53532-.0926-.26888.17173-.26645.60819.12975.75182m21.34131-4.61638c-.46803-.34937-.96693-.0534-1.00821.37609h-3.56515c-.0413-.42952-.54019-.72546-1.00786-.37609-.37158.48433-.0344 1.01827.42742 1.01827.30462 0 .55199-.23315.58044-.53047h3.56515c.0288.29732.27616.53047.58078.53047.46177 0 .79865-.53394.42743-1.01827m-14.30016-25.96982c.26124.28033.6179.14745.69457-.12524l2.30264.41563c-.0232.2824.26437.53186.60714.36047.29629-.26922.14086-.65329-.15716-.70741-.19671-.0354-.38372.0863-.4368.27478l-2.30264-.41564c.0163-.19532-.11622-.37469-.31294-.41043-.29837-.0538-.57835.25188-.39481.60784m-21.430471 10.14765c-.169653-.6873-.864921-.79381-1.234065-.42258l-3.342072-2.74255c.291778-.43437.0517-1.09565-.655367-1.12791-.720595.16792-.815656.92807-.382675 1.28299.28553.23452.697003.20608.952003-.0504l3.342417 2.74257c-.201919.30045-.149532.70914.135998.94368.432981.35491 1.159473.11379 1.183761-.62588m32.387171-24.39053c-.23315-.69596-.96033-.7473-1.31074-.33306l-3.68346-2.552432c.26472-.473227-.0388-1.136229-.77229-1.110209-.7303.234531-.7643 1.027289-.28726 1.357923.31467.218224.73725.154389.97941-.132183l3.6838 2.552431c-.18318.32717-.0947.74523.21997.96346.47704.33063 1.20769.0201 1.17057-.74593m-35.025302 9.09191c-.04753-.84064-.836819-1.1175-1.349942-.76466l-3.304601-3.93915c.436452-.44374.301145-1.26911-.518328-1.46201-.879145.0385-1.156697.90552-.72892 1.41587.282408.33653.769512.39377 1.124084.14988l3.304601 3.9388c-.301837.30669-.330285.79623-.04787 1.13276.428123.51 1.330167.38753 1.520983-.47149m9.690745-15.408657c.50584.06419.75737-.375389.60402-.719552l2.70891-1.534168c.21614.308775.72267.319183.92772-.147796.0739-.527696-.41182-.788249-.76292-.589799-.23141.131143-.31884.414941-.21268.65294l-2.70925 1.534167c-.14953-.213713-.43784-.284143-.66925-.153346-.35075.198797-.37712.749736.11345.957554m-4.1546 19.057747c-.26263.30392-.084.66092.20886.71019l-.17347 2.44696c-.29698.008-.52458.33549-.30739.67341.31433.27859.69735.0732.71955-.24355.0149-.2092-.13288-.39031-.33549-.4243l.17347-2.44732c.20539-.005.37747-.16341.39239-.37261.0226-.31676-.32751-.57419-.67792-.34278m25.91813 18.14703c.38407.21199.72476-.0597.71123-.38371l2.6527-.36776c.0749.31537.47704.48398.78894.1759.22621-.39863-.0794-.76118-.42327-.71365-.22655.0316-.38649.2307-.37712.45448l-2.6527.3681c-.052-.21822-.2602-.36636-.48676-.33479-.34347.0475-.53949.47947-.21302.80143m-2.68219-3.06418c-.39343.18701-.37157.61895-.10269.79555l-1.24031 2.35155c-.29768-.12212-.66647.10409-.59847.53394.19012.41355.65953.37713.82016.0725.10582-.20088.0382-.44513-.1478-.5676l1.23997-2.35155c.20608.0847.44582.002.55198-.19845.16063-.30427-.0746-.71262-.52284-.63595m-8.19715-27.21218c.57384.58702 1.33121.28414 1.48178-.30357l4.95291.77402c-.0361.60576.59258 1.12513 1.31838.74141.62102-.59188.26887-1.40684-.37262-1.50711-.42327-.0663-.81739.204-.92182.61062l-4.95256-.77402c.025-.41911-.26819-.79658-.69145-.86284-.64115-.10027-1.2254.56828-.81462 1.32149"/><path d="M5.075794 43.224181c.238697.34278.644616.25431.769515-.0281l2.422332.80455c-.06904.30114.203306.61477.599858.48294.361859-.24495.253265-.68382-.06036-.78826-.207123-.0687-.427777.034-.514166.22934l-2.422334-.80453c.04753-.20816-.068-.42257-.274777-.49126-.313632-.10443-.663347.18249-.520064.59534m10.100109-23.06663c-.57349.38475-.43923 1.05782.0243 1.27223l-1.399205 3.97904c-.495775-.12246-1.021738.31815-.815307.97734.394471.60437 1.122695.43784 1.303792-.0777.1197-.33966-.04336-.70742-.363933-.85591l1.399203-3.9787c.34278.0847.70013-.0999.81947-.43992.18145-.51521-.28241-1.10084-.96831-.87637m-3.675812 17.15964c-.64045-.18769-1.056778.32785-.929452.80455l-3.818417 1.42141c-.21545-.44373-.868043-.56169-1.229553-.00098-.204696.66647.369141 1.10396.863531.92009.326125-.12143.498207-.46976.410432-.79935l3.818417-1.42141c.148837.30669.506878.45795.833001.33652.494738-.18422.64288-.89025.05204-1.26077m11.468093-25.25938c.27234-.59153-.16654-1.06684-.64497-1.01167l-.83022-3.889544c.459-.14502.66577-.758411.17555-1.187229-.61443-.29247-1.11854.199491-1.01098.703248.0708.332367.38302.547816.71365.510001l.83023 3.889544c-.31745.10026-.51451.42431-.44339.75667.10755.50376.76847.74697 1.21013.22898m24.11335 14.16c-.4309-.71261-1.24899-.58875-1.53348-.043l-4.71179-1.9106c.1759-.58979-.32473-1.24828-1.13033-1.037-.75008.44061-.59083 1.32704.0191 1.57441.4028.16307.85452-.0125 1.05158-.38996l4.71144 1.9106c-.12143.40801.0805.84861.48294 1.01202.61027.24737 1.34196-.27755 1.11055-1.11645m-19.49661 16.89007c-.425.21891-.38615.69214-.0847.87671l-1.27882 2.62391c-.33098-.12385-.72788.13739-.63837.6068.22308.44686.7369.3903.90274.0506.10928-.22412.0264-.48988-.18215-.61755l1.27883-2.62356c.22863.0854.48918-.0128.59847-.23731.16549-.33964-.10651-.77923-.59605-.67965M5.348489 9.377781c.669595.35805 1.253147-.11969 1.222617-.679997l4.583768-.695267c.137039.544348.836123.827451 1.369369.286917.383022-.694919-.154387-1.315596-.748-1.225391-.391697.05933-.664391.407308-.64288.794841l-4.584115.695267c-.09472-.376431-.458306-.627963-.849654-.568636-.593962.08986-.923206.842371-.351104 1.392266m30.024507 5.76961c.40696.30392.84064.0465.87672-.32716h3.10095c.0357.37365.46976.63108.87672.32716.323-.42084.0298-.88539-.37192-.88539-.26472 0-.48017.20296-.5048.46109h-3.10095c-.025-.25813-.24008-.46109-.50514-.46109-.40141 0-.69458.46455-.37158.88539m-15.25875 29.92876c.50826.21787.90204-.16549.84445-.57037l3.28274-.79207c.13357.3865.65884.54817 1.01168.12247.23453-.52838-.19463-.94505-.61963-.84271-.28068.0677-.45658.33757-.41668.61755l-3.28309.79206c-.0923-.26714-.37192-.42708-.65225-.35943-.42534.1027-.61686.66925-.16722 1.0325"/><path d="M5.827961 8.197842c.0024-.420142-.381981-.58251-.64843-.422919l-1.523065-2.06429c.231062-.207472.189429-.622759-.213022-.744186-.43888-.0084-.604021.414938-.406961.682429.130449.176247.370878.219961.555103.109634L5.115 7.822801c-.15994.143287-.18943.386144-.05898.562737.197063.267142.650166.234185.771942-.187696m16.680175 36.413409c.41667.0614.63177-.29768.51034-.58425l2.2624-1.2233c.17347.25847.59153.27512.76847-.10721.0694-.43437-.32751-.6578-.62033-.49925-.19325.10444-.27027.33723-.18665.53568l-2.26205 1.2233c-.12004-.17901-.357-.24181-.55025-.13738-.29281.1582-.32369.6127.0781.79241m3.18664-19.44805c-.20018-.68244-.90239-.75911-1.25696-.37054l-3.47321-2.60725c.27408-.44894.005-1.10188-.70672-1.10361-.71574.20018-.77784.96657-.32821 1.30449.29699.22273.70846.17624.9534-.0923l3.47321 2.60726c-.18943.31051-.119.7185.17763.94125.44998.33757 1.16884.0638 1.16086-.67931m18.13489-2.21973c-.31433-.33861-.74488-.17902-.83786.14953l-2.77552-.50722c.0292-.34035-.3171-.64149-.731-.4361-.35804.32404-.17139.78754.18804.85347.23696.0434.46282-.10304.52735-.33029l2.77517.50688c-.0201.23557.13947.45207.37643.49543.35943.0659.6977-.30183.47739-.7317m-26.66717-6.7504c.83716-.0892 1.07447-.89129.69665-1.38603l3.76881-3.49715c.4649.41355 1.28263.23731 1.43425-.59119-.0822-.87602-.96242-1.10985-1.45021-.65675-.32231.29871-.35492.7879-.0937 1.12998l-3.7688 3.49715c-.32162-.28622-.81184-.29004-1.1338.009-.48815.4531-.32058 1.34786.54678 1.49531m2.21278 10.17991c-.20886-.37365-.63143-.32473-.78721-.0493l-2.38764-1.06511c.10096-.3001-.14467-.64738-.56239-.55302-.39343.21302-.32716.67133-.018.80941.204.0909.43923.009.54713-.18179l2.38764 1.06545c-.0697.20747.026.43749.23002.52839.30947.13807.69457-.11866.59049-.55407M6.276955 44.579611c.659533-.12386.797268-.7761.465595-1.14525l2.773435-3.01698c.395511.2994 1.034227.10755 1.102227-.55996-.120735-.69111-.834737-.82121-1.193819-.43055-.236961.25777-.232104.64842-.0028.90377l-2.773435 3.01665c-.273389-.20678-.663347-.17903-.900308.0788-.359083.39066-.169308 1.09112.529082 1.15357m35.015235-11.69706c.10547.81011.88921 1.02209 1.36035.64427l3.47807 3.57765c-.391.46038-.20122 1.24967.60576 1.37804.84792-.0996 1.05504-.9586.60437-1.42176-.29698-.30565-.77229-.32647-1.09807-.0652l-3.47807-3.57764c.27061-.31849.26298-.79414-.034-1.0998-.45033-.46317-1.3149-.28067-1.43841.56447m-20.245 5.81017c-.83474-.13114-1.27362.5846-1.03596 1.16226l-4.5633 2.40845c-.34312-.52215-1.18168-.56378-1.54423.19949-.148491.87047.64357 1.32635 1.23476 1.01411.38996-.20574.54886-.67134.38476-1.07066l4.56329-2.40846c.23731.36116.71123.49231 1.10119.28658.59118-.3119.66161-1.22297-.14051-1.59177m-7.994188-19.30372c-.496471-.2956-.956859.0475-.953041.47461l-3.509296.36845c-.085-.41841-.606799-.65814-1.031104-.26576-.315368.51486.07147 1.00544.52596.9579.299756-.0316.519368-.28657.516592-.58216l3.509296-.36845c.05898.28935.326469.49335.626225.46178.454492-.0475.731004-.60819.315368-1.04637M39.943937 2.390419c.31849.237999.65849.03643.68659-.25639h2.42858c.0281.292818.3681.494389.68659.25639.25327-.32994.0236-.693534-.29108-.693534-.20747 0-.37608.158553-.39551.361164h-2.42858c-.0194-.202611-.18804-.361164-.39551-.361164-.31433 0-.544.363594-.29108.693534m-3.2432 37.286652c.48086-.0496.6186-.50965.40245-.79414l2.16976-2.00045c.26645.23834.73586.13843.82468-.33654-.0458-.50306-.55025-.63906-.83127-.3799-.18561.1707-.20539.45172-.0559.64843l-2.1701 2.00046c-.18388-.1648-.46525-.16792-.65052.003-.28136.25917-.18665.77333.31086.85937m10.84985 2.61835c-.0798-.68174-.73551-.86805-1.13519-.55615l-2.88133-3.04197c.3334-.38232.18249-1.04707-.4937-1.16398-.71296.0745-.89649.79345-.52318 1.18758.24598.25985.64496.2824.92147.0666l2.88133 3.04197c-.23037.26471-.22967.66403.0166.92389.37296.39413 1.10119.25015 1.21395-.45795m-15.92904-14.34228c.26332.69977 1.00543.7251 1.34647.29038l3.84478 2.46084c-.25222.49196.0815 1.15531.82711 1.10154.73482-.26575.73968-1.07413.24182-1.39296-.32821-.21025-.75599-.12941-.99191.17104l-3.84443-2.46084c.17416-.34036.0683-.76258-.26021-.97282-.49786-.31849-1.2299.0246-1.16363.80282m9.0788 13.59476c-.61096-.45657-1.26251-.0701-1.31628.49127h-4.65663c-.0538-.56135-.70567-.94784-1.31629-.49127-.48537.63213-.0451 1.32947.55788 1.32947.39794 0 .72094-.30427.75841-.69249h4.65663c.0371.38822.36012.69249.75806.69249.60298 0 1.04325-.69734.55822-1.32947M15.958947 2.605174c-.74315.02011-1.00786.709493-.70984 1.171267l-3.561683 2.814376c-.380244-.396552-1.112287-.298367-1.303451.419798.01111.776798.769165 1.044289 1.230594.679656.304268-.240429.367063-.668554.160982-.987737l3.561678-2.814376c.26299.274082.69423.311897.9985.07147.46108-.364633.37643-1.163982-.37678-1.354452m16.33115 12.688975c.43159-.10131.50306-.53603.27339-.76952l1.74025-2.07261c.26992.18561.6852.0402.71053-.40245-.10027-.45207-.57523-.51695-.80039-.24841-.14884.17694-.13392.43471.025.59639l-1.74025 2.07262c-.18666-.12872-.44304-.0985-.59188.0784-.22517.26853-.0794.7251.38337.74557"/><path d="M34.359937 12.677181c-.51104.1648-.55476.69666-.25431.95617l-1.89706 2.67386c-.34417-.19775-.83162.0191-.81809.5558.16549.53637.74523.56759.99086.22135.16202-.22864.11866-.53811-.0888-.71782l1.89672-2.67387c.238.1367.54469.0753.70672-.15334.24563-.34625.0246-.88331-.53603-.86215m2.3023-3.517968c-.38025-.171389-.68209.112062-.64462.418058l-2.48582.55129c-.0951-.29316-.48884-.42257-.76084-.10651-.18423.39517.13357.71504.45553.64392.21233-.0472.34867-.24806.32265-.45969l2.48583-.55129c.0659.20261.27443.32716.48675.27998.32196-.0715.47427-.49578.14051-.775758m-10.4141 32.361498c-.0916-.46247-.55025-.55441-.80733-.31918l-2.1368-1.92691c.20747-.27963.0683-.72684-.40106-.77021-.48398.0895-.57072.59188-.29386.84134.18249.16445.45692.15855.63455-.004l2.13681 1.92655c-.14329.1936-.12109.46699.0614.63178.27686.24945.76744.11172.80629-.37921m2.50074-30.65906c.17833.41113.62345.40384.81462.13357l2.37411 1.35827c-.136.30184.0836.68868.52804.63421.43194-.18076.41077-.66474.10339-.84064-.20296-.11622-.45658-.0552-.58876.13184l-2.37446-1.35792c.0944-.20886.0184-.45831-.18457-.57453-.30739-.1759-.73516.0513-.67237.5152M9.151989 29.912051c-.775757-.15751-1.215674.49439-1.017226 1.04463l-4.369011 2.06602c-.29941-.50271-1.082106-.57626-1.452984.12317-.174511.80837.547817 1.26737 1.113676.99989.373307-.1766.541227-.60576.404185-.98636l4.36901-2.06568c.206777.34763.645308.48988 1.018617.31329.565511-.26749.669246-1.11714-.06627-1.49496m33.289561-20.05555c-.33583.28623-.20122.70325.1086.8056l-.5957 2.62806c-.32369-.0416-.62518.27686-.44582.68.2949.35458.74454.19533.82191-.14501.051-.22448-.0798-.44582-.29386-.5166l.59569-2.62772c.22378.0285.43714-.11484.48814-.33931.077-.34035-.2602-.67792-.67896-.48502m-18.03948 22.71588c-.17242.7029.40662 1.12894.91662.96796l1.72464 4.06787c-.47045.255-.56655.96727.0583 1.3319.73204.18978 1.1782-.45311.95477-.9801-.1471-.34764-.53289-.51694-.88573-.40592l-1.72429-4.06752c.32508-.17625.47149-.57142.32404-.91905-.22308-.52666-.99537-.65294-1.36833.005m16.20104 4.12857c.18423-.44859-.15681-.78859-.51104-.73308l-.7362-2.8678c.33687-.12178.47183-.58425.094-.88817-.46594-.1988-.82571.1825-.7303.55406.0628.24494.30149.39586.54643.35735l.73655 2.8678c-.23314.0843-.36984.33134-.3067.57628.0954.37156.59431.5322.90725.13356m-11.1215-18.59983c.4361.66647 1.21394.52006 1.46756-.0114l4.56954 1.66601c-.1478.57002.35318 1.18237 1.1161.95304.70221-.44721.51972-1.28888-.0722-1.50468-.39031-.14225-.81635.0409-.9919.40835l-4.56954-1.66566c.10234-.39413-.10582-.80872-.49647-.95096-.59154-.2158-1.27327.3112-1.02313 1.10535m18.03358 24.67817c-.47427-.35422-.9801-.0541-1.02174.38163h-3.61546c-.0416-.43575-.54746-.73585-1.02173-.38163-.37678.49092-.035 1.03249.43332 1.03249.30878 0 .55962-.23662.58841-.53776h3.61546c.0288.30114.27964.53776.58841.53776.46837 0 .81011-.54157.43333-1.03249m-13.22708-4.73712c-.50757-.23938-.92112.13531-.87741.54816l-3.35941.68452c-.12143-.39689-.64843-.58008-1.02209-.16097-.25708.52769.16306.96587.59847.8774.28692-.0586.47531-.32578.44513-.61131l3.35941-.6845c.084.27442.36186.4465.64878.38821.43506-.0888.65017-.65675.20712-1.04151m-15.72539-6.62412c-.0815-.55406-.62102-.69075-.93986-.42639l-2.42372-2.41366c.26298-.31987.12421-.85868-.43055-.93778-.580089.0777-.712273.66891-.39863.9815.20712.20608.53324.2151.7539.0323l2.42337 2.41365c-.18145.221-.17139.54712.0357.75321.31398.3126.90447.17798.97976-.4028m-10.180263 6.01143c.497858.37192 1.028676.0568 1.07239-.40002h3.79344c.04406.45691.574879.77194 1.072393.40002.39517-.51486.0364-1.08314-.454841-1.08314-.324041 0-.587022.24805-.617552.56411h-3.79344c-.03018-.31606-.293511-.56411-.617551-.56411-.491268 0-.850001.56828-.454839 1.08314M3.011852 6.051663c.408001 0 .563778-.374347.406961-.632123l1.996291-1.491495c.202613.223431.605757.180409.721288-.21094.0055-.426387-.406612-.584246-.665084-.391-.170345.127327-.211287.361165-.103041.539491L3.371976 5.357091c-.140163-.154388-.376083-.181449-.546776-.05412-.25847.193247-.223777.633165.186652.748696"/><path d="M8.220804 4.867221c-.186306-.774716-.968307-.899268-1.38637-.483981L3.091647 1.27362c.331675-.486757.06592-1.232679-.72996-1.273617-.812188.184225-.923902 1.038738-.439226 1.441535.319878.265409.782697.236612 1.072044-.05066L6.737291 4.5005c-.229329.336531-.172776.797268.146756 1.063023.484672.402451 1.304492.136 1.336757-.696308M2.738809 35.803151c.446858.3341.923902.0513.963104-.35943h3.407991c.0392.41077.516246.69353.96345.35943.35492-.46248.03261-.97282-.408693-.97282-.291084 0-.527695.22273-.554757.50688H3.701913c-.02706-.28415-.263673-.50688-.554756-.50688-.441308 0-.763613.51034-.408348.97282m45.661428-20.305c.47809-.0531.61201-.51209.39482-.79415l2.14652-2.00739c.26679.23557.73378.13288.81878-.34104-.0489-.50064-.55268-.63213-.83058-.37227-.18353.17139-.20122.45137-.051.64635l-2.14652 2.00739c-.18457-.16306-.46455-.1641-.64808.008-.2779.25985-.18041.77124.31606.85347m-36.610464 19.62009c-.626922-.18006-1.030759.32612-.904125.79138l-3.723703 1.40926c-.213022-.43228-.851044-.54435-1.201454.006-.196715.65259.366717 1.0769.848963.89441.318144-.12038.484326-.46178.396552-.78339l3.723702-1.40927c.14745.29907.49786.44477.816003.32439.482248-.18249.62345-.87359.04406-1.23232m17.215846-29.46394c.18214.731695.92286.843758 1.31525.447552l3.56515 2.914642c-.31016.463166-.0531 1.167106.70047 1.200066.76708-.18076.86666-.990169.40488-1.367638-.30461-.248755-.7428-.21788-1.0141.05586l-3.56516-2.91464c.21441-.320226.15751-.755634-.1471-1.004737-.46143-.377471-1.2351-.119001-1.25939.668899m7.10047 5.543056c.4878.36429 1.00786.0559 1.05088-.39204h3.71676c.043.4479.56309.75633 1.05054.39204.38718-.5048.0357-1.06129-.44547-1.06129-.31745 0-.57558.24321-.60507.55303h-3.71676c-.0298-.30982-.28761-.55303-.60506-.55303-.48156 0-.83301.55649-.44582 1.06129m-25.808503.48815c-.0073-.44062-.414245-.6016-.689717-.42813L7.962681 9.13042c.237307-.223081.183876-.657449-.240429-.775062-.460388.0013-.623797.449285-.410429.724757.140511.181797.393775.221694.584245.101654l1.645187 2.128122c-.1641.15405-.18908.40939-.04857.59119.213019.27547.687287.23037.804899-.21475m15.954023 31.50906c.83335-.0386 1.11541-.81739.77125-1.32913l3.93464-3.23278c.43506.4368 1.25384.3112 1.45333-.4989-.0291-.87082-.88539-1.15462-1.39504-.73586-.33584.27616-.3976.75806-.1596 1.11159l-3.93429 3.23279c-.30115-.30184-.78547-.3348-1.12166-.0586-.50965.41841-.39725 1.31352.45137 1.51093m12.88291-.56273c.45831-.0684.57003-.51486.35076-.77785l1.99039-2.00913c.26541.2165.71053.10062.77472-.35803-.0656-.47982-.55441-.58772-.81219-.32752-.17.17174-.17694.44131-.0253.6231l-1.9904 2.00914c-.18353-.14988-.4531-.14052-.6231.0313-.25778.2602-.14502.748.33514.80906m3.03711-23.57906c.0114-.47739-.42223-.66959-.72823-.4937l-1.6889-2.37688c.26679-.23106.22794-.70394-.22655-.85035-.4989-.018-.69527.45935-.47635.76743.14432.20296.41667.25743.62831.13565l1.6889 2.37689c-.18457.15994-.22274.43541-.0784.63837.21857.30773.73447.27963.88123-.19741m-9.49158 24.94488c-.0444.46005.36082.67654.66855.52805l1.46409 2.41366c-.27374.20434-.26923.66369.15959.83682.48016.0527.70325-.39482.51347-.70742-.1249-.20608-.38441-.27789-.59743-.1752l-1.46408-2.41401c.18942-.1412.24563-.40453.12073-.61061-.18978-.31259-.68972-.32161-.86492.12871m16.69717-5.5892c-.68833.007-.94437.6415-.67549 1.07344l-3.34069 2.55035c-.34624-.37296-1.02555-.29351-1.21359.36845-.002.71956.69596.97872 1.12859.64843.28553-.21788.35041-.61339.1648-.9121l3.34068-2.55035c.23939.25811.63802.2994.92356.0815.43263-.33028.36636-1.07169-.32786-1.25974m-21.3871-1.003c.28275-.37851.043-.78235-.30462-.81565v-2.8855c.34764-.0333.58737-.43714.30462-.81565-.39205-.30046-.82398-.0277-.82398.34589 0 .24633.18873.44651.42916.46976v2.8855c-.24043.0229-.42916.22308-.42916.46975 0 .37366.43193.64635.82398.3459m6.54051-3.96378c-.47948.64148-.0736 1.32565.51589 1.3822v4.88943c-.58945.0565-.99537.74071-.51589 1.38221.66404.50931 1.39608.0472 1.39608-.58599 0-.41771-.31988-.75702-.72719-.79622v-4.88943c.40731-.0392.72719-.37851.72719-.79622 0-.63317-.73204-1.09529-1.39608-.58598m-23.376132-15.96411c.0791-.38198-.241816-.60021-.51347-.50306l-1.011677-2.15762c.248061-.1471.285531-.5329-.05863-.71678-.398288-.0874-.625881.26819-.494738.54747.08639.18457.297674.26784.485717.20088l1.011676 2.15762c-.171735.10165-.242511.31745-.156123.50202.131144.27929.549898.33167.737246-.0305m32.092961 8.57878c-.56273-.5787-1.30831-.2831-1.45818.2949l-4.86826-.77472c.0371-.59569-.58009-1.10847-1.29478-.73273-.61235.58043-.26784 1.38255.36255 1.48316.41598.0659.80456-.19845.90794-.59813l4.86826.77473c-.0253.41181.26159.78407.67757.85035.63039.10026 1.20666-.5558.8049-1.29756m-13.12125-8.8258c-.5048.50306-.23592 1.15843.27581 1.28402l-.63143 4.30726c-.52631-.0264-.97212.52388-.63282 1.15114.51903.53429 1.22401.2217 1.30554-.33618.0541-.3681-.18388-.70811-.53776-.79518l.63143-4.30726c.36394.0184.68972-.23939.74349-.60715.0819-.55787-.50341-1.05955-1.15426-.69665M8.550053 31.241611c.329592.25569.690063.0503.724756-.25605l2.547233.0447c.02394.30739.376776.52527.715388.28137.271309-.34103.03713-.72683-.292469-.73273-.217878-.004-.397593.15959-.421532.37156l-2.547231-.0447c-.01665-.21267-.19047-.38233-.408001-.38615-.32994-.006-.577308.37158-.318144.72199m32.594294.1929c.10234.53359.63073.64357.92875.374l2.4494 2.23742c-.24112.32092-.0843.8375.45657.89093.55892-.0996.66231-.67792.34521-.96796-.20921-.19116-.52562-.18596-.7317.00026l-2.44939-2.23741c.16687-.22205.14294-.53741-.0663-.72857-.3171-.2897-.88365-.13427-.93257.43124"/><path d="M40.660367 40.906971c.44304-.21267.41667-.70047.11241-.89857l1.39053-2.65999c.33653.13669.75182-.12004.67375-.60541-.21649-.46594-.74626-.42257-.92632-.0781-.119.22724-.0413.50271.1693.63975l-1.39053 2.65999c-.2328-.0947-.50341-.00098-.62206.2262-.18007.34451.0867.80421.59292.71608m4.43076-26.96172c-.50931-.14572-.83682.2661-.73343.64392l-3.02288 1.14871c-.17347-.35075-.6918-.44096-.97595.006-.15889.53012.29907.87429.69076.72545.25813-.0982.39274-.37573.32127-.63698l3.02288-1.14906c.1197.24285.40488.36081.66301.26263.39169-.14884.50514-.71019.0344-1.00092m-6.01212 26.83024c.35318-.19533.30878-.59397.0496-.74246l1.01445-2.24678c.28276.0965.61096-.13392.52388-.52804-.19949-.37192-.63178-.31155-.76327-.0204-.0867.1922-.0101.41425.16896.51694l-1.01445 2.24678c-.19533-.0666-.41251.0229-.49925.21476-.13149.29108.10929.65537.52007.55927M10.10642 14.261651c.54643.28831 1.018962-.10338.991209-.55926l3.726828-.58772c.11379.44235.68416.6696 1.11541.2269.30843-.56725-.13184-1.06961-.61443-.99363-.31849.0503-.5388.33479-.51937.65016l-3.726827.58772c-.07875-.306-.375736-.50896-.694227-.45866-.482594.076-.746613.68972-.278593 1.13449M44.542267 3.020114c.16549.446858.63907.465247.85764.189082l2.44419 1.580311c-.16202.312939.0489.7369.52422.704635.46941-.167226.47497-.682777.15856-.887473-.20886-.13496-.4819-.085-.63317.106164l-2.44419-1.58031c.11206-.21649.0458-.485716-.16306-.621023-.31641-.204695-.78443.01216-.74419.508614M11.545873 43.782411c.113103.43055.551288.49127.780269.25431l2.127085 1.6941c-.17971.27582-.0226.68973.42257.70325.45172-.11241.50411-.59084.22864-.81045-.18145-.14467-.43992-.12316-.59813.0406l-2.127084-1.69411c.123857-.19081.08709-.44755-.09437-.59222-.275816-.21926-.730306-.0611-.738981.40453m-5.535768-31.25407c.519022.38788 1.072738.0593 1.118534-.41736h3.956846c.04545.47669.599166.80524 1.118185.41736.412514-.53706.03817-1.12963-.474264-1.12963-.33792 0-.612351.25847-.643921.58841H7.128638c-.03158-.32994-.30635-.58841-.644267-.58841-.512432 0-.886432.59257-.474267 1.12963m37.514933 29.3022c-.74279-.10304-1.12026.53914-.90031 1.04775l-4.00958 2.2107c-.31294-.45761-1.05747-.4812-1.36659.20192-.11761.77472.59257 1.16607 1.11159.87985.34278-.18874.47635-.60437.32404-.95617l4.00959-2.2107c.21649.3164.63906.42535.98184.23661.51902-.28623.56724-1.09598-.15058-1.40996m-7.90224-19.60455c.72962-.272.75772-1.04533.30566-1.40163l2.57325-3.99779c.51173.26367 1.20353-.0819 1.14941-.85867-.27478-.76605-1.1168-.77333-1.45021-.2557-.21996.34173-.13704.78721.1759 1.03388l-2.5736 3.99779c-.35353-.18249-.7938-.0732-1.01376.26818-.33306.51764.0222 1.28125.83335 1.21394"/><path d="M41.130117 3.114134c.26541.315715.65641.192552.7539-.09645l2.45321.57384c-.0406.302184.255.586328.63317.421184.33341-.273387.18735-.695268-.13045-.769512-.20955-.04892-.41737.07182-.48468.271654l-2.45321-.574186c.0281-.208856-.10442-.409042-.31398-.458307-.31779-.07424-.63559.239043-.45796.631777m-8.69223 21.951917c-.38128.13948-.39863.54261-.16445.72996l-1.35618 2.07505c-.26576-.13913-.62796.0386-.60229.44374.14051.40037.57939.4073.75494.13843.11588-.17729.0746-.41008-.0878-.5395l1.35654-2.07539c.18353.0965.41355.0413.52942-.136.17556-.26888-.007-.66821-.4302-.63629m-24.694129 5.28563c-.138083-.40731-.564124-.43576-.768474-.19255l-2.163148-1.48733c.154388-.27791-.02498-.66578-.454492-.64878-.427427.13878-.445816.60332-.16549.79588.184574.12698.432289.0888.573492-.0795l2.163171 1.48768c-.106858.1922-.05412.4368.130794.56378.28033.19255.707411.01.684167-.43923m24.656309 4.21497c-.19879-.36914-.61373-.32751-.77055-.06l-2.32311-1.07968c.10304-.29247-.13218-.63628-.54296-.55024-.38857.20296-.33063.65293-.0298.79275.19845.0922.43021.0152.5388-.16964l2.32346 1.07967c-.0715.20226.0191.42916.21753.52144.30079.13982.68208-.10616.58667-.53428m2.85948-21.63308c.59223.4427 1.224.0677 1.27639-.47635h4.51507c.052.544.68382.91905 1.27605.47635.47045-.61304.0437-1.28923-.54088-1.28923-.3858 0-.69908.29525-.73517.67168h-4.51506c-.0361-.37643-.34937-.67168-.73517-.67168-.58459 0-1.01167.67619-.54123 1.28923m-29.758058 7.18512c-.05759.52388.401411.7761.754248.61131l1.634086 2.77239c-.315022.22898-.316755.75251.169654.95617.546431.067.807327-.43992.595695-.799-.139469-.23696-.434368-.32231-.678614-.20817l-1.633738-2.77239c.217878-.15855.285877-.45761.146061-.69458-.211633-.35908-.78131-.37642-.987392.13427m34.414338-.84306c.12143.52561.64982.61477.93535.33653l2.51393 2.12813c-.22725.32751-.0521.83404.48606.867.55094-.1197.63213-.69735.30669-.97317-.21475-.18179-.52873-.16514-.72614.0274l-2.51393-2.12813c.15717-.22655.12213-.5388-.0926-.72059-.32577-.27582-.88226-.10027-.90932.46282m-7.18027-7.58966c-.79102.0774-1.02174.83266-.66925 1.30276l-3.58735 3.26956c-.43576-.39482-1.20909-.23488-1.35931.54574.0704.8278.89926 1.05573 1.36382.63247.30635-.27929.34139-.74106.0978-1.06615l3.58736-3.26921c.30114.27269.76396.28033 1.07031.001.4649-.42326.31433-1.2698-.50341-1.41621M6.179063 5.834837c-.244939-.623798-.910717-.636636-1.210473-.242512L1.491213 3.436789c.219267-.443735-.08812-1.034229-.755635-.975943-.655021.247369-.649122.972125-.198796 1.251413.296982.183877.679308.106164.886778-.16653l3.477377 2.155536c-.151611.307041-.05135.683818.245633.868043.450329.279286 1.101882-.03781 1.032493-.734471m21.437404 3.468355c-.70533.05516-.92355.723369-.6179 1.147679l-3.24839 2.84768c-.3806-.35839-1.0717-.22967-1.21846.46247.0482.73759.78166.95478 1.2025.58598.27755-.2432.31675-.65328.10512-.9468l3.2484-2.84768c.26332.24806.67479.26298.95235.0198.42083-.3688.30149-1.12443-.42362-1.269107m-9.51031 4.596607c-.10929.3792.19741.6238.47878.54712l.85312 2.25407c-.26194.12872-.32959.51486.003.72719.39516.119.6519-.22205.54157-.51382-.0729-.19255-.27963-.29317-.47426-.24008l-.85278-2.25407c.18075-.0892.26922-.30149.19637-.49404-.11068-.29178-.52874-.37713-.74593-.0264m17.10275 22.74363c.17243-.46733-.19047-.80351-.55198-.73308l-.86388-2.91603c.34138-.13808.46281-.6179.0635-.91557-.48607-.18666-.84098.21857-.72927.59604.0739.24945.32473.39516.57453.34659l.86388 2.91603c-.23626.0951-.36671.35423-.29316.60333.11206.37746.63039.52388.93639.10269m-4.56573 2.11425c-.14051.37817.153.65121.44582.59465l.69561 2.36336c-.27651.11137-.37538.49994-.0524.74175.39343.15162.68139-.17589.59153-.48189-.0597-.20192-.26228-.32057-.46489-.28137l-.69596-2.36335c.19151-.077.29802-.28657.23834-.48849-.0898-.306-.50965-.42536-.75806-.0847"/><path d="M27.956467 34.037221c.78894-.0881 1.00891-.84515.65051-1.3097l3.53706-3.31362c.44026.38823 1.21012.21787 1.34925-.56343-.0812-.82537-.91176-1.04186-1.37007-.6127-.30219.28311-.33098.74419-.0829 1.06546l-3.53705 3.31327c-.30462-.26819-.76674-.26957-1.06892.0136-.45797.42917-.29629 1.27188.52214 1.40719M14.685337 3.200523c.35006.266103.72753.0458.76083-.277553l2.68497.02011c.0284.323695.40245.549552.75668.288999.28241-.362552.0316-.766389-.31607-.769166-.22932-.0019-.41702.17243-.44026.396206l-2.68462-.02011c-.0198-.223777-.2047-.400716-.43403-.402451-.34763-.0028-.60436.397593-.3275.763961m20.88785 42.314162c.42639-.13878.46143-.58321.2099-.799l1.57753-2.23846c.28796.16445.69458-.0177.68209-.46628-.13947-.44721-.6238-.47184-.82815-.18215-.13496.19117-.0978.44964.076.59917l-1.57753 2.23811c-.19915-.11345-.45519-.0614-.5898.12976-.20435.29004-.0184.73794.44998.71885m-3.86595-5.78661c-.0427-.53672-.55129-.70186-.87394-.46906l-2.17045-2.46848c.27269-.29038.17381-.816-.35284-.92702-.56135.0375-.7258.59604-.44478.91558.18527.21094.49751.24042.72059.0791l2.17011 2.46883c-.18839.20054-.19914.51382-.0139.72476.28102.31987.8559.22828.96518-.3237m-.77334-18.8704c.36499.22066.70638-.0298.70603-.3452l2.59198-.25396c.0607.30947.44443.48918.75945.20157.23558-.37851-.0475-.74245-.38302-.70984-.22169.0219-.38475.20886-.38441.42709l-2.59198.25395c-.042-.21406-.23835-.36602-.46004-.34416-.3355.0326-.54262.44478-.23801.77055m13.59588-2.29153c-.0788-.42292-.49682-.51174-.73378-.29976l-1.93037-1.78154c.19255-.25326.0701-.66265-.3577-.70706-.44304.0763-.52734.53394-.2772.76466.16479.1523.41529.14953.57904.003l1.93037 1.78154c-.13287.1752-.11553.425.0493.5773.25014.23072.69943.10999.74036-.33791M28.983757 4.580303c-.84306-.02531-1.18722.738633-.87949 1.280554l-4.21497 2.958354c-.40523-.473918-1.24066-.409734-1.50364.391348-.0375.880532.80421 1.232332 1.34994.848962.36013-.25257.45935-.733431.24633-1.108472l4.21497-2.958009c.28033.327512.76605.39794 1.12617.145369.54608-.383022.50133-1.294087-.33931-1.558106m-2.75886 20.902428c-.48954-.41702-1.05921-.12698-1.13484.34277l-3.92042-.25118c-.0153-.47566-.54296-.83612-1.08176-.48467-.4427.50618-.10963 1.11714.39829 1.1494.33479.0215.6231-.21753.67549-.54226l3.92076.25153c.0104.32855.26576.60229.6009.6238.50758.0326.91592-.53082.54158-1.08939m-.73794 13.49214c-.2498.33445-.0382.6911.26887.72059v2.54862c-.30704.0295-.51867.38615-.26887.72059.34624.26541.72788.0247.72788-.30565 0-.21753-.16653-.39447-.37921-.41494v-2.54862c.21268-.0205.37921-.19706.37921-.41494 0-.32994-.38164-.57106-.72788-.30565m-16.491784-9.28342c.567247-.45935.362205-1.15496-.145714-1.3371l1.09737-4.32044c.533245.0822 1.045677-.43125.766042-1.1057-.472531-.59917-1.223308-.35492-1.365208.20469-.09402.36915.112408.74072.46386.86666l-1.097371 4.32044c-.368798-.0568-.727533.17104-.821206.54019-.142246.55961.401062 1.1324 1.102227.83126m16.651024 6.93846c-.0635-.5964-.6349-.76536-.98739-.49614l-2.49033-2.68496c.29455-.33098.16896-.91349-.42084-1.02173-.62415.0586-.79068.68555-.46802 1.03318.21267.22932.561.25257.8049.0666l2.49033 2.68497c-.204.22898-.20677.578.006.80767.3223.34764.95998.22829 1.0651-.3896m-17.16866 3.15437c.207818.58979.828147.6238 1.120962.2661l3.172071 2.1257c-.219266.40662.04823.96762.672715.93535.618942-.20921.637331-.88539.226553-1.16051-.270958-.1818-.630041-.12178-.832656.12558l-3.172416-2.12534c.151959-.28137.07078-.63629-.200183-.81809-.410778-.27512-1.029025-.00098-.987046.65121M2.736727.08431c-.355265.280675-.233143.713307.08049.830227l-.71192 2.670742c-.330287-.05482-.651554.259857-.483287.680002.288654.375041.755981.22898.848268-.116918.06071-.227939-.06453-.460043-.281367-.540534l.71192-2.671088c.228286.03781.452408-.10096.51347-.328899.09229-.345898-.240429-.705329-.677574-.523532"/><path d="M25.016157 4.483507c-.7081.153692-.83682.861798-.46767 1.250023l-2.90077 3.338949c-.4361-.310859-1.11923-.0843-1.17231.638022.15127.74176.92529.86076 1.30103.42812.24806-.28518.23071-.70671-.0243-.975244l2.90076-3.339296c.30149.215102.72129.173123.969-.112062.37574-.432286.14988-1.182716-.60575-1.228512M11.941384 43.067371c-.174509-.36255-.573491-.34035-.73551-.0909l-2.178784-1.1338c.111716-.27582-.09922-.61547-.496121-.5506-.38094.17764-.34486.61132-.0628.75807.186307.0968.411473.0329.523533-.13947l2.178783 1.13415c-.07702.19046 0 .41181.185958.50861.282062.14675.658146-.0722.58494-.48606M43.708227.888197c.26991.332022.67757.210941.78373-.08707l2.53405.638714c-.0479.312594.25396.61235.64878.447552.35075-.27755.20678-.71747-.12143-.800042-.21649-.05447-.43402.06696-.50757.273042l-2.53405-.638404c.033-.21649-.10096-.426389-.31745-.480858-.3282-.08291-.66334.236266-.48606.647041m-2.65443 17.457309c-.64497.40523-.51937 1.1515-.0156 1.40337l-1.67537 4.33884c-.54227-.15197-1.13692.31606-.93154 1.04949.4146.67965 1.22296.52041 1.4398-.0416.14329-.37054-.0243-.78132-.37261-.95548l1.67537-4.33883c.37504.10512.77507-.0864.91835-.45727.21684-.56169-.27443-1.22296-1.03839-.99849m-19.13615 11.4136c-.36498.48884-.0559 1.01028.39308 1.05331v3.72647c-.44894.0431-.75806.56447-.39308 1.05332.50619.38822 1.06407.0361 1.06407-.44652 0-.31849-.24356-.57696-.55407-.6068v-3.72647c.31051-.0298.55407-.28831.55407-.6068 0-.48259-.55788-.83474-1.06407-.44651m10.31938 7.65314c-.14398-.78409-.91801-.95061-1.35793-.55891l-3.56897-3.30773c.35735-.46837.13219-1.22748-.66022-1.31178-.82086.14016-.97907.98738-.51659 1.41586.30496.28241.76881.27859 1.07308.008l3.56932 3.30807c-.24737.32369-.2158.78686.0888 1.06927.46247.42846 1.29513.20677 1.3725-.62241m-12.5502-.67167c.24702.49821.79831.46108 1.01792.11379l3.02948 1.53314c-.14988.38267.14675.84861.69457.75286.52353-.25154.46698-.85035.0746-1.0488-.25881-.13115-.56932-.0392-.72128.20088l-3.02914-1.53278c.10339-.26473-.007-.56933-.2654-.70048-.39204-.19845-.90794.11033-.80074.68139m22.77312 7.45539c.0829.51798.5898.63941.88505.38822l2.29813 2.23118c-.24217.30287-.10582.80594.41424.87324.54261-.0795.65954-.63455.36186-.92355-.19637-.19082-.50167-.19533-.70602-.0215l-2.29813-2.23117c.16757-.20955.15404-.51451-.0423-.70533-.29767-.289-.84931-.15578-.9128.38892m-26.1995-24.50527c-.0905-.53324-.61443-.65363-.91661-.39169l-2.3925-2.27801c.247021-.31467.101306-.83231-.436102-.89649-.558575.0874-.673411.66127-.363595.95617.204349.19463.519369.19637.728227.0153l2.39284 2.278c-.17104.21754-.15369.53221.0507.72684.30982.29525.87706.15231.93708-.41008m19.02999 12.57552c.0142.38163.36949.51417.60507.35873l1.46304 1.81519c-.20192.19706-.1478.57246.22204.66717.39898-.01.53221-.40003.34278-.63525-.1249-.15508-.34521-.18526-.50792-.0777l-1.46305-1.8152c.13947-.13634.15682-.35803.0319-.51311-.18943-.23488-.59986-.18735-.69388.20018"/><path d="M27.080797 36.484531c-.39621-.44789-.9579-.255-1.0887.16688l-3.57383-.7421c.0482-.43957-.3903-.83995-.93188-.58702-.47322.40799-.24667 1.01341.21649 1.10951.30531.0635.6016-.11865.69215-.41078l3.57383.74245c-.0333.30392.16618.5891.47149.6526.46281.0961.91176-.36914.64045-.93154m14.36608-32.103373c-.765.112756-.95305.857635-.58806 1.297556l-3.33028 3.347274c-.44165-.362551-1.18549-.170348-1.29443.595003.10755.80108.9239.98323 1.35514.54955.2845-.28588.29664-.73586.0444-1.040125l3.32992-3.347275c.30566.250491.75564.236267 1.04013-.04996.43125-.433327.24459-1.248635-.55684-1.352024m-11.85563 25.072984c.0212-.75736-.66577-1.06545-1.15253-.78824l-2.66519-3.78268c.425-.36499.36602-1.11577-.35457-1.35064-.79103-.0323-1.1057.72441-.76049 1.21428.22759.32335.65987.41148.99641.21962l2.66519 3.78303c-.29386.25223-.35631.68903-.12872 1.01237.34521.48988 1.16364.44825 1.3999-.30774m15.73025 17.36295c.53116-.0715.66751-.58598.41841-.89406l2.33594-2.29154c.30288.25501.82017.12802.9017-.40141-.0676-.55614-.63177-.68902-.93431-.39238-.19949.19566-.21163.50756-.0392.72059l-2.33594 2.29153c-.20955-.17624-.52145-.17-.72094.0257-.30253.29698-.18007.86318.37435.94159m-2.81091-3.54192c-.45171.28727-.36047.81116-.006.98636l-1.16016 3.05584c-.38164-.10443-.79762.2269-.65051.74175.2942.47566.86179.36082 1.01202-.035.0989-.26124-.0205-.5492-.26576-.67028l1.16017-3.05585c.26367.0722.54435-.0642.64323-.32508.15022-.39586-.19776-.85868-.73343-.6977"/><path d="M27.887427 27.230261c-.0347-.73724-.72441-.98635-1.17647-.68139l-2.86468-3.47876c.38614-.38545.27408-1.10986-.4427-1.28541-.7709.0264-1.02104.78443-.65016 1.23475.24494.29733.67098.35146.98392.14052l2.86468 3.47876c-.26714.26645-.29594.69527-.0513.99225.37123.45067 1.16295.35041 1.33676-.40072m-12.9298-19.132684c-.59292.03886-.78304.597431-.53082.956859l-2.757472 2.356415c-.315714-.30496-.897187-.20435-1.027984.37504.03261.61998.646003.81011 1.003349.50515.235574-.20158.272696-.54539.09853-.7938l2.757137-2.356417c.21857.210937.56377.227937.79934.02671.35735-.305307.26507-.940901-.34208-1.069963m3.81495 14.27761c-.38475.69492.10617 1.31282.69319 1.28923l.65814 4.80615c-.57175.13462-.87845.8618-.32092 1.428.72129.41113 1.37874-.14154 1.29339-.7643-.0562-.41043-.41632-.70082-.8219-.68452l-.65849-4.80615c.39551-.0933.66405-.46976.60784-.88053-.0853-.62241-.86735-.97802-1.45125-.38788m.4531-5.66205c.58356.25847 1.04325-.17868.98254-.64705l3.80072-.86908c.14884.4479.75286.64149 1.16607.15508.2779-.6068-.21163-1.0939-.70394-.98114-.32439.0743-.53151.38302-.48954.70671l-3.80037.86943c-.10304-.30981-.42362-.49786-.74835-.42361-.49231.11241-.72129.76396-.20713 1.18966M38.632497 2.08511c-.15577.380593.13427.668554.43472.621023l.62969 2.432048c-.28587.103734-.39967.496471-.0784.753899.39586.167572.70047-.156469.61894-.471491-.0538-.207818-.25673-.33549-.4642-.302184l-.63004-2.432048c.19775-.07217.31294-.282062.25916-.48988-.0815-.314673-.50514-.450326-.76986-.111367m6.35455 26.086401c-.12282-.57558-.6977-.68243-1.01445-.38406l-2.7037-2.36787c.25396-.35318.0722-.90898-.51452-.95477-.60332.12073-.7022.74939-.35214 1.05608.23106.20227.57349.18978.79241-.0166l2.70405 2.36786c-.1759.24424-.14294.58529.0881.78755.35007.3067.96033.1256 1.00023-.48814m-29.80455-5.09932c.0538-.39447-.28761-.59396-.55753-.4767l-1.177865-2.12604c.24251-.16688.25396-.56205-.10894-.72545-.41147-.0618-.618593.31571-.465938.59118.100611.1818.321613.25223.508265.17104l1.177868 2.12605c-.16758.11518-.22482.34-.12421.52145.15265.27547.58217.3001.74835-.0815m29.28206-9.35072c-.52978-.63976-1.31872-.39759-1.5196.18249l-4.92862-1.19417c.0867-.60784-.50376-1.1841-1.26737-.85763-.67584.54504-.38857 1.39608.24979 1.55047.42084.102.84099-.13739.98011-.53845l4.92897 1.19417c-.0604.42014.20366.82537.62484.92737.63837.15473 1.28298-.47045.93188-1.26425m1.3548 16.12853c-.58841.48433-.3681 1.20874.16376 1.39436l-1.10639 4.52062c-.55754-.0811-1.08766.45935-.78964 1.16086.49855.62137 1.27986.35978 1.42314-.22585.0947-.38616-.1242-.7723-.49195-.90066l1.10639-4.52029c.38579.0563.75806-.18526.85277-.5714.14329-.58529-.42916-1.17856-1.15808-.85764m-20.07706-19.57541c.28866.4819.84099.40037 1.03458.033l3.17415 1.30206c-.12039.3976.2158.84342.7598.70291.50757-.29525.40245-.89372-.009-1.06233-.27095-.11137-.57661.006-.71053.2602l-3.1738-1.30206c.0829-.27513-.0521-.5728-.32335-.68417-.41112-.16861-.90621.18353-.75216.75043m8.32411 24.02142c.28796-.39135.0385-.80491-.31953-.83648l-.0222-2.96737c.35735-.0371.60056-.45414.3067-.84133-.40523-.306-.84757-.0222-.8448.36221.002.25327.19776.45796.44512.47981l.0226 2.96738c-.24736.0257-.43992.23315-.43783.48641.003.38441.44928.66161.85.34937m-19.47935 10.65789c.78756.32509 1.38603-.27339 1.28923-.89579l5.04069-1.28784c.21371.59257 1.0259.83092 1.56088.16791.35041-.81877-.31918-1.45194-.97178-1.28506-.4309.10999-.6963.52908-.62935.95929l-5.04068 1.28784c-.1478-.40973-.58182-.65017-1.01237-.54019-.652944.16689-.936393 1.0436-.23662 1.59384m10.06611-35.945033c.61686.461083 1.27466.07078 1.32878-.495778h4.70138c.0541.566555.71227.956861 1.32878.495778.48988-.638371.0455-1.34231-.56343-1.34231-.40175 0-.72788.307387-.76535.69943h-4.70138c-.0375-.392043-.36359-.69943-.76535-.69943-.60887 0-1.0533.703939-.56343 1.34231m17.7536-7.03906c.093.542613.62658.664043.93397.396898l2.43933 2.314436c-.25049.320573-.10131.847227.44582.911758.56828-.0902.68416-.674451.36845-.974207-.20852-.197756-.52909-.198796-.74176-.01387l-2.43968-2.314434c.17347-.222042.15578-.542266-.0527-.740022-.31606-.299756-.89337-.153-.95339.419451m-7.70692 44.441233c.4368.0368.63698-.35006.49231-.64009l2.27072-1.41726c.19706.25709.63247.24737.79137-.16132.044-.45588-.38268-.66196-.67688-.47844-.19394.12109-.25882.3681-.1589.56864l-2.27072 1.41724c-.13635-.17797-.38649-.22793-.58043-.10685-.29421.18353-.29664.65745.13253.81808m9.22096-16.55354c-.41875.002-.57627.38754-.4139.65122l-2.03966 1.54215c-.20955-.22795-.6231-.18146-.73932.22064-.003.43784.42049.59744.68486.3976.17416-.1315.21475-.37192.10269-.55441l2.03966-1.54215c.14502.15751.38753.18388.56169.052.26402-.19949.22586-.65086-.19602-.76709"/><path d="M22.897397 40.755711c-.47461-.22066-.85798.13044-.81531.5152l-3.1294.65468c-.11518-.36983-.60714-.53776-.95373-.14537-.23696.49335.15681.89997.56204.81531.26749-.0559.44165-.306.41216-.5721l3.1294-.65433c.0795.25535.33931.41459.6068.35873.40522-.0847.60298-.61546.18804-.97212m8.26341.3001c-.13565.43714.21406.72788.54227.64566l.93569 2.63292c-.30669.14329-.39412.58945-.0132.84306.45484.14711.76084-.24181.63942-.58286-.0798-.22481-.31711-.34659-.54401-.28934l-.93569-2.63328c.21198-.0989.31918-.34277.23939-.56793-.12109-.34104-.60403-.44964-.86388-.0482m-21.395772-2.11494c-.345552-.63837-1.063023-.56482-1.333981-.10096l-4.024502-1.8596c.177634-.50653-.231408-1.10084-.941593-.95027-.672023.35284-.570023 1.13137-.04857 1.37215.343816.1589.744531.0247.931879-.29594l4.024848 1.8596c-.122816.35006.0347.74244.378512.90134.52145.24078 1.180289-.1863 1.013409-.92632m12.97832-17.14997c.35145.33341.79137.13808.86735-.21198l2.93788.34729c-.008.35838.37435.65086.7938.40834.35319-.36289.12767-.83577-.25292-.88053-.25118-.0298-.47774.13843-.53012.38025l-2.93789-.34729c.006-.24771-.17555-.46386-.42673-.49335-.3806-.0451-.71019.36186-.45137.79727m-12.236566 26.89234c.64739-.0354.861452-.64288.59084-1.03804l3.036416-2.53925c.34104.33652.97698.23314 1.12651-.39759-.0284-.67688-.69596-.89164-1.089387-.56274-.259164.21718-.30392.59188-.116572.86527l-3.036764 2.53925c-.23592-.2328-.612697-.25535-.871861-.0382-.393429.32855-.300101 1.02348.360818 1.17127m35.671646-8.56385c.39135-.41564.1589-.93328-.25396-1.02071l.39482-3.46419c.42222.008.765-.44443.47704-.93743-.42916-.41459-.98531-.14641-1.03631.30253-.0336.29594.16549.56204.45103.62276l-.39517 3.46384c-.29178-.005-.54574.20921-.57939.50515-.0513.44859.43021.83543.94194.52805m-16.48484-22.69786c.20539.33341.58945.27235.72129.0149l2.2218.88122c-.0805.2779.15751.58599.53533.48364.3511-.2099.27304-.62588-.0149-.74002-.18978-.0753-.40141.009-.49265.187l-2.22215-.88158c.0559-.1922-.0406-.39863-.23037-.47392-.28796-.11414-.63005.13531-.51833.52874m10.40506 13.74993c-.42118-.0777-.65294.27929-.54018.57523l-2.34358 1.15982c-.16723-.26889-.59119-.30115-.78513.0808-.0867.43888.30878.68035.61235.53013.20019-.0992.28692-.33307.20886-.53742l2.34392-1.16016c.11554.18631.35388.25882.55407.15993.30357-.15022.35145-.61096-.0503-.80837m2.51808-21.17373c.56205-.10512.67931-.660916.39725-.975591l2.36335-2.569088c.33688.255.88088.09159.93917-.477042-.1027-.588758-.71088-.699778-1.01688-.367063-.20192.219613-.1981.552329-.003.76986l-2.36335 2.569434c-.23314-.17659-.56516-.152651-.76708.06661-.306.332717-.14467.9298.45033.98288m-1.73438 36.45642c-.0649-.59084-.63143-.75667-.97976-.48918l-2.47576-2.6534c.29108-.32889.16514-.90586-.4198-1.01132-.61825.06-.78165.68138-.46108 1.0252.21163.22656.55684.24876.79796.0638l2.47541 2.6534c-.20122.22759-.20296.57349.009.8004.32057.34347.952.22343 1.05435-.38893m-12.88091-27.62286c-.49231.62692-.10513 1.31733.47981 1.3881l-.1183 4.86514c-.58772.042-1.00821.71296-.54678 1.36313.64808.52284 1.3881.0804 1.40337-.54956.0101-.41563-.29975-.76083-.70429-.80975l.11831-4.86514c.40661-.0291.73308-.35908.74315-.77472.0153-.63004-.70221-1.10778-1.37527-.6172m16.83594 24.04604c.34625.37262.81982.19672.92251-.16479l3.0555.55683c-.0319.3747.34937.70638.8049.47983.39378-.357.18839-.86701-.20712-.93917-.26125-.0475-.50966.11345-.58043.36359l-3.0555-.55684c.0219-.25916-.1537-.4975-.41459-.54504-.39586-.0722-.76813.33272-.52527.80559m-7.35824-23.59676c.34867-.39447.11969-.86492-.26368-.93396l.26472-3.20572c.38926-.005.69249-.43159.41285-.87811-.40765-.36983-.91279-.1065-.94714.30878-.0226.27374.16861.51347.43367.56135l-.26436 3.20538c-.26923.003-.49717.20886-.51972.48259-.0344.41529.42084.75772.88366.45969"/><path d="M38.611337 45.005031c.50757-.14155.57141-.66092.28727-.92703l1.96541-2.54584c.32959.20747.816.0143.82433-.51243-.14086-.53221-.70811-.58598-.96241-.25604-.16792.21753-.13809.52249.0586.70671l-1.96576 2.54585c-.22794-.14328-.53082-.0954-.69874.12212-.25465.32994-.059.86492.49127.86666m-14.97045-31.69711c.23973-.43506-.0683-.82121-.43541-.8056l-.41737-3.00554c.35735-.085.54852-.540528.1988-.893712-.45137-.25639-.86215.0902-.80802.479469.0357.256737.26124.438183.51486.427433l.41771 3.00554c-.24702.0586-.41459.29455-.37886.55128.0541.38927.54366.61096.90829.24113m11.4622 12.43189c-.20643.32647.0142.6401.2994.64531l.18319 2.34983c-.28102.0493-.45068.39342-.19602.68346.33792.21996.67271-.0295.64912-.33375-.016-.20088-.18214-.3518-.37955-.35562l-.18318-2.34982c.19463-.034.33549-.2092.31987-.40974-.0236-.30461-.39308-.49924-.69283-.22967m.14849-4.11054c.54886-.54158.26089-1.25176-.29213-1.39054l.70464-4.65628c.56933.0309 1.05469-.56204.69041-1.24204-.55858-.58078-1.32288-.24633-1.41413.357-.06.39759.19567.76674.578.86284l-.70463 4.65628c-.39378-.0215-.74696.25569-.80733.65363-.0913.60298.53949 1.14872 1.24517.75911m5.20756-5.37514c.51868-.16168.56794-.69874.2668-.96449l1.94633-2.68566c.3459.2033.84133-.0108.83335-.55407-.16202-.544-.74835-.58147-1.00023-.23383-.16618.22967-.12559.5433.0826.72684l-1.94598 2.68566c-.23939-.14052-.55025-.0815-.71643.14779-.25223.34798-.0337.89337.53359.87776m-3.06972 8.49482c-.0153.75043.66751 1.05053 1.14768.77194l2.669 3.72717c-.41841.36498-.35422 1.10778.36117 1.33538.78408.0257 1.09008-.72615.74453-1.20909-.22794-.31849-.65711-.40245-.98913-.2099l-2.669-3.72717c.28934-.25223.34798-.6852.12004-1.00369-.3459-.4826-1.15635-.43542-1.38429.31536m-22.05461 18.57862c-.35735.28588-.23141.72268.0864.83891l-.70429 2.70404c-.3341-.0534-.657099.26645-.484323.69041.293853.37713.765353.22725.856593-.12316.0604-.23106-.0677-.4649-.28761-.54505l.70429-2.70439c.23106.0372.45691-.10442.51694-.33549.0912-.35041-.24737-.71157-.68799-.52527m16.73707-35.657425c.62692-.0961.77749-.708102.47635-1.067185l2.7155-2.761294c.36394.295247.97316.134266 1.05886-.494389-.0919-.65641-.76223-.802125-1.11402-.444429-.23211.235919-.23974.605061-.0316.853471l-2.7155 2.761639c-.25188-.204346-.62068-.19012-.85278.0458-.3518.35735-.19498 1.025206.46316 1.10639m-13.41546-.914883c.42222-.06765.52145-.480858.31641-.721634l1.81935-1.874169c.24702.197409.6571.08639.71192-.337917-.0649-.442349-.51764-.537758-.75321-.294901-.15543.160287-.1589.409042-.0174.575922l-1.81935 1.873821c-.17069-.136348-.41945-.125593-.57488.0347-.23557.242859-.12698.692493.3171.744185"/><path d="M41.650527 29.943331c.45831.527 1.11645.30704 1.27327-.18457l4.16709.90101c-.0604.51277.4479.98495 1.0828.69457.55649-.47184.29768-1.18133-.24216-1.29791-.35596-.077-.70394.13288-.81253.47288l-4.1671-.901c.0416-.35457-.18839-.68972-.54434-.76674-.53984-.11657-1.06858.42223-.75703 1.08176m4.21775 15.05441c-.19047-.73725-.93951-.84307-1.33225-.43992l-3.62656-2.90943c.30843-.4708.0427-1.1789-.71851-1.20527-.77299.18942-.86562 1.00751-.39621 1.38463.31017.24841.75182.21303 1.02347-.0659l3.62656 2.90978c-.21336.32543-.15195.76465.15786 1.01306.46976.37678 1.24829.10859 1.26564-.68694m-19.15454-23.13465c-.0337-.82571-.80421-1.10951-1.31282-.77124l-3.18318-3.91591c.43507-.42882.31468-1.241-.48675-1.44292-.86319.0243-1.14872.87116-.73656 1.37839.27201.33445.74905.39794 1.10084.1641l3.18283 3.91591c-.3008.29663-.33619.77645-.0642 1.11125.41251.50688 1.29964.40036 1.49982-.43958m10.52407-1.69133c-.26367-.3282-.66543-.21128-.77125.0812l-2.48929-.64184c.0486-.30739-.24633-.60368-.63594-.44374-.34625.27096-.20712.70429.11519.78756.21267.0548.42742-.0635.50063-.26576l2.48929.64184c-.0336.21232.0972.4198.30982.47461.32231.0833.65363-.22898.48155-.63386m16.41858-3.7015c-.57211-.20643-.97941.24009-.89025.6807l-3.55301 1.0821c-.17139-.41563-.75841-.55892-1.11854-.0687-.22342.595.27478 1.02486.73482.8847.30358-.0923.47947-.39968.41772-.70464l3.55301-1.0821c.11865.28761.43576.44477.73933.35249.46039-.14017.6342-.77472.11692-1.14456m-13.33602 14.8459c.30739-.54538-.0756-1.03527-.5381-1.02035l-.48849-3.79135c.45102-.1027.69735-.67376.26159-1.1234-.56551-.32855-1.08731.10305-1.02382.59397.0416.32403.32335.5551.64323.54469l.48884 3.79135c-.31225.0711-.52631.36603-.48433.69007.0631.49092.67723.77646 1.14108.31502m-23.41288 11.9264c-.37712-.49647-.97628-.33965-1.14525.0892l-3.659516-1.05053c.0843-.45311-.340694-.90377-.923552-.68277-.523879.38753-.335144 1.03457.138775 1.17092.312594.0895.635248-.077.75182-.37331l3.659523 1.05019c-.0583.31328.12698.62553.43957.71539.47392.136.97733-.31295.73863-.91905m25.88205-38.864227c-.26159.350061-.0399.723715.28172.754594v2.669007c-.32161.03053-.54331.404184-.28172.754247.36256.278245.76223.02569.76223-.31988 0-.22794-.17451-.413205-.3969-.434367V5.132978c.22239-.02152.3969-.206777.3969-.434716 0-.345552-.39967-.598125-.76223-.319878m-.18665 31.332137c-.38996.52213-.0597 1.07897.4198 1.12477v3.9794c-.47947.0458-.80976.60264-.4198 1.12478.54053.41459 1.13623.0385 1.13623-.47704 0-.34001-.26021-.61617-.59188-.64774v-3.9794c.33167-.0316.59188-.30773.59188-.64774 0-.51555-.5957-.89164-1.13623-.47703M12.130121 8.863966c.448593-.02741.594309-.449634.40453-.722675l2.094126-1.77529c.238.231756.67827.157163.77923-.281022-.0229-.469061-.48676-.614776-.75806-.385103-.17902.151959-.20817.411818-.077.600553L12.479169 8.07572c-.164796-.160286-.426041-.174163-.605062-.02256-.271308.230022-.203308.711575.256041.810799m17.819489-6.980074c-.33029.336879-.1471.768471.19255.847574l-.38441 2.854967c-.34833-.01353-.63906.354227-.40973.766391.34763.349716.81149.137388.8611-.232451.033-.243898-.12698-.466979-.36186-.522143l.38441-2.854621c.24078.009.45415-.163755.4871-.407655.05-.369837-.34138-.697349-.76916-.452062m.60576 15.715326c.51936.1537.85798-.26436.75563-.65155l3.10164-1.14767c.17417.36047.7036.45761.9978.003.16758-.54053-.29767-.89649-.69943-.748-.26506.0982-.40522.38059-.3341.64808l-3.10164 1.14768c-.12074-.24945-.41078-.37262-.67584-.27443-.40175.14849-.52318.72163-.0441 1.02312m10.66042.0111c.102-.47462-.29455-.74905-.63351-.63109l-1.23615-2.69499c.31051-.18007.36116-.65988-.0652-.89233-.49474-.11276-.78166.32716-.62137.67618.10547.23037.36775.33619.60194.255l1.23649 2.69468c-.21476.12456-.30531.39239-.19984.62276.16029.34902.6807.41841.91766-.0302m-19.52404 28.40152c.12733.44028.57939.49092.80837.24182l2.23082 1.68717c-.17728.2883-.005.7095.45276.71227.46143-.12733.50341-.62068.21441-.83925-.19047-.14432-.45588-.11518-.61408.0572l-2.23083-1.68752c.12282-.19914.0781-.46212-.1124-.60645-.28901-.21857-.75252-.0437-.74905.43471"/><path d="M40.043157 7.812393c-.43645.583899-.067 1.207004.46941 1.25835v4.451588c-.53637.0517-.90586.67445-.46941 1.25869.60437.46386 1.27119.0427 1.27119-.53359 0-.38059-.29108-.68937-.66231-.7251V9.070743c.37123-.03538.66231-.344511.66231-.724756 0-.576614-.66682-.997454-1.27119-.533594m-3.83472 21.534198c-.49162-.24008-.89927.1197-.8618.52249l-3.28205.62346c-.1131-.38823-.62415-.5735-.99364-.16966-.25708.51036.14641.94299.57141.86215.28033-.0531.46733-.31121.44166-.58945l3.28204-.6238c.0781.26853.3466.43992.62727.38649.425-.0804.64184-.63108.21511-1.01168m9.73269-21.662565c.22205-.32994.004-.659533-.28969-.673064l-.12039-2.425109c.29074-.04267.47531-.392043.2217-.69839-.34174-.236612-.69354.01075-.67827.325082.0104.207123.17729.36741.38059.376777l.12039 2.425457c-.20122.02949-.35145.205733-.34139.412857.0156.314327.39031.525614.70706.25639m-7.59 4.546645c-.22759-.3237-.6113-.238-.72822.0302l-2.2964-.75043c.0638-.28553-.19532-.58112-.57002-.45449-.34104.23384-.23661.64878.0611.74592.19602.0638.40453-.034.48537-.21961l2.29639.75043c-.0441.19741.0663.39967.26228.46386.29733.0971.62692-.1759.48954-.56586m1.00994 15.99704c.187.53499.74904.5676 1.01549.24425l2.87023 1.93454c-.20018.36845.041.8774.60715.84965.56169-.18805.58008-.80074.20851-1.05123-.24529-.16549-.57106-.11205-.75529.11172l-2.86988-1.93488c.13808-.25466.0656-.57662-.17972-.74176-.37157-.25049-.93292-.004-.89649.58771"/><path d="M40.294337 35.754571c.65919-.42361.5218-1.19.001-1.44361l1.67641-4.48177c.55961.15022 1.16606-.33792.9468-1.09008-.43402-.69458-1.26356-.52215-1.48074.0583-.14329.38302.0336.80351.39343.97906l-1.67607 4.48177c-.38684-.10373-.79657.0975-.93951.48051-.21719.58043.29559 1.25523 1.07863 1.01584m-2.8328-13.04878c-.35388.47323-.0541.97838.38059 1.02v3.60922c-.43471.0416-.73447.54677-.38059 1.02.48988.37608 1.03041.035 1.03041-.43263 0-.30809-.23592-.55857-.53671-.58737v-3.60922c.30079-.0288.53671-.27929.53671-.58736 0-.46768-.54053-.80872-1.03041-.43264m-13.15977-9.30319c-.2321-.75563-1.0141-.83057-1.40233-.39377l-3.89822-2.84769c.29837-.50271-.0107-1.22504-.80143-1.216366-.79275.232796-.85069 1.085576-.34589 1.454366.33306.24356.78963.18596 1.05816-.11622l3.89822 2.84803c-.20609.34763-.12178.80004.21128 1.04325.5048.36879 1.29964.0545 1.28021-.7716m11.15585-6.128688c.0454.653285.66231.860757 1.05782.581124l2.61106 3.030514c-.33514.34972-.22134.99052.41841 1.13207.68348-.0389.89025-.71643.55233-1.10882-.22308-.25882-.60263-.29837-.87602-.10512l-2.61072-3.030174c.23141-.242165.24841-.623105.0253-.881923-.33792-.392389-1.03874-.287959-1.1782.382329m13.36482 34.460478c-.56759-.50201-1.24413-.17277-1.34335.37852l-4.60979-.38164c-.007-.55995-.62067-.99607-1.26286-.59431-.5322.58634-.15335 1.31282.44339 1.36209.39412.0326.73863-.24251.80733-.62345l4.60979.38163c.005.38719.3001.71505.69388.74766.59708.0496 1.08973-.60471.66161-1.2705M32.540237 4.950835c.55962.07321.84029-.412514.67168-.794146l3.00554-1.687516c.23834.342778.799.35596 1.02763-.159938.084-.583899-.45275-.874637-.84202-.656065-.25674.144329-.35492.457961-.23835.721983l-3.00588 1.687168c-.16445-.236961-.48329-.316409-.74038-.172081-.38926.218572-.42049.828143.12178 1.060595m-3.43921 33.503976c-.61409.0479-.80421.62969-.53811.99918l-2.82825 2.47888c-.33133-.31189-.93292-.19984-1.06094.40246.042.64253.68069.83162 1.04672.51069.24181-.21198.27581-.56898.0919-.82433l2.82825-2.47923c.22933.21579.58772.22898.82919.017.36637-.32092.26229-.97872-.3688-1.10465m-7.50084 8.7186c.75807.20365 1.23338-.41424 1.07101-.97108l4.45089-1.77426c.26541.5159 1.03527.63699 1.44535-.0319.22273-.78929-.46386-1.28819-1.04013-1.05817-.38024.15161-.57314.56586-.46073.95096l-4.45089 1.7739c-.18319-.35665-.60819-.52457-.98843-.37295-.57627.22967-.73135 1.06406-.0271 1.48351m24.39854-37.38179c-.38684-.42985-.92876-.23869-1.05158.1707l-3.4635-.689024c.043-.425349-.3844-.809066-.9062-.559961-.45449.398634-.23002.982185.21822 1.071345.29594.059.58147-.11969.66647-.40279l3.4635.68867c-.0298.29421.16549.56864.46143.62727.44825.0892.8788-.36429.61166-.90621m-34.437588 27.29514c-.481553.16549-.513123.67029-.223776.91072l-1.749963 2.56874c-.32994-.18111-.788249.0329-.765697.54157.166185.50514.71643.52458.942983.19187.149531-.21962.103041-.51209-.09715-.67863l1.75031-2.56873c.227939.12524.517286.0618.666818-.15786.226899-.33272.0077-.83752-.523532-.80768m31.647845-24.08143c-.65363.19463-.72406.86839-.35006 1.20665l-2.48478 3.34034c-.43124-.26055-1.05643.00078-1.05504.68243.19498.6852.93014.74176 1.25176.30912.21232-.28553.16618-.67965-.0923-.91349l2.48478-3.34068c.29837.18041.68937.11102.9017-.17417.32161-.43263.0562-1.12061-.65607-1.1102m-34.376524 6.74173c-.335835-.25084-.693531-.0385-.723369.26957H5.551365c-.02949-.30808-.38753-.52041-.723021-.26957-.266449.34729-.02464.73031.306347.73031.218572 0 .396206-.16723.416674-.3806h2.557639c.02048.21337.198104.3806.416676.3806.331327 0 .573143-.38302.306693-.73031m-.355265-8.67662c-.05968-.79414-.810798-1.0422-1.289576-.69943l-3.193925-3.66611c.404879-.427431.262287-1.205615-.516246-1.373536-.830574.0517-1.077597.876719-.664043 1.351679.273041.312941.73447.358736 1.065451.121775l3.193928 3.666112c-.279981.29559-.298369.75876-.02531 1.07204.413551.47462 1.264592.34313 1.429736-.47253m-5.547574 29.4198c.405574.23557.776106-.0465.769515-.39308l2.843863-.32891c.07251.33897.497858.52909.838901.20713.251532-.42014-.06661-.81531-.435062-.77263-.242857.0281-.418756.23695-.4139.47669l-2.844211.32855c-.04996-.23418-.26888-.39759-.511737-.36948-.36845.0427-.588063.49959-.247369.85173m28.469528-26.80491c-.32855-.60264-1.00647-.53082-1.26113-.0919l-3.80835-1.7465c.16653-.47912-.22135-1.03943-.89233-.89545-.63386.33514-.53533 1.07066-.042 1.29686.32509.14918.7036.0212.87984-.28206l3.80836 1.74615c-.11518.33133.035.70186.36012.85104.49335.22621 1.11507-.17937.95548-.8781m-3.12385-8.242946c.13565.421532.57384.457961.78825.210246l2.20411 1.566779c-.16307.283798.0153.685899.45796.675491.44235-.136347.46871-.614428.18318-.817388-.18839-.13392-.44374-.09853-.59188.07285l-2.20411-1.56678c.11276-.196022.0624-.448941-.12594-.582858-.28553-.20296-.72857-.02082-.71157.441653m-4.83079.957901c.48259.03886.70221-.389267.54123-.708798l2.50213-1.574411c.21857.283448.69943.270612.87324-.181103.0468-.503757-.42534-.729615-.74939-.525614-.21371.134265-.28449.407307-.17312.628306l-2.50213 1.574414c-.15126-.19602-.42777-.250492-.64149-.115877-.32404.204-.32473.727533.14953.903083m13.14762 16.855382c-.0555-.52353-.55718-.67202-.86631-.43576l-2.18606-2.3571c.25881-.29039.14848-.80178-.36915-.89684-.54782.0513-.69423.60159-.41112.9069.187.20122.49265.22169.70671.0586l2.18572 2.35676c-.17902.20088-.18144.50758.005.7088.2831.3053.84271.20088.935-.34139m.31467 21.30696c.54366-.0718.68521-.59813.43125-.91419l2.39874-2.33768c.30947.26194.83925.13393.92494-.40765-.0677-.56933-.64461-.70776-.95512-.40488-.20504.19984-.21857.51902-.043.73759l-2.39874 2.33768c-.21406-.18144-.53325-.1759-.73829.0239-.31051.30253-.18734.88296.38025.96519"/><path d="M35.419497 1.833927c-.0892.380245.22585.607144.50028.517287l.95443 2.186067c-.25257.140164-.30045.525267.0392.718513.39621.09819.63317-.251185.50966-.534288-.0815-.187-.29074-.276163-.48052-.21406l-.95408-2.18607c.17451-.09714.25119-.311204.16965-.497857-.12351-.283104-.54122-.346939-.73863.01041m-4.10881 23.737622c.16723.46767.65988.4923.89094.20747l2.52642 1.67606c-.17278.32404.0416.76813.53741.74036.49092-.16826.50306-.70532.1759-.92216-.2158-.14328-.50064-.0944-.66058.10269l-2.52641-1.67605c.11934-.22413.0538-.5055-.16202-.64879-.32717-.21718-.81705.003-.78166.52042m-3.07527-14.00666c-.42604.57002-.0652 1.17821.45831 1.22852v4.34576c-.52353.0503-.88435.6585-.45831 1.22852.5898.45275 1.24101.042 1.24101-.52076 0-.37157-.28449-.67306-.6467-.70776v-4.34576c.36221-.0347.6467-.33654.6467-.70776 0-.56274-.65121-.97351-1.24101-.52075m.67654 13.58615c-.41668-.30391-.85452-.0378-.88678.34209l-3.14917.0347c-.0406-.37886-.48433-.63558-.89407-.3223-.32335.43124-.0205.89961.38719.89509.26922-.003.48536-.21128.50792-.47391l3.14952-.0347c.0281.26194.24875.4656.51798.46282.40765-.005.70047-.47947.36741-.90378m22.84806-15.418c-.31815-.3629-.77229-.20886-.87915.13149l-2.88341-.609914c.0402-.354573-.31259-.679309-.75078-.476695-.38302.327858-.20192.817389.17139.896489.24632.052.48641-.0944.56031-.329592l2.88307.609912c-.0278.24529.13253.47635.37885.52839.37331.0791.73725-.29524.51972-.75008m-19.25793 34.80638c-.0645-.51763-.56447-.65572-.86666-.41632l-2.20862-2.29675c.25119-.29281.13253-.79726-.38232-.88226-.54192.0607-.67688.60853-.391.9062.18873.19602.4923.21094.70116.0454l2.20897 2.29674c-.17382.20226-.1707.50618.018.70255.28588.29732.83856.18353.92044-.35562m-1.83251 18.47945c.47774.20366.84653-.15716.79207-.53706l3.08013-.74939c.12628.36255.61928.51313.94992.11275.21926-.49612-.18423-.88677-.58321-.78963-.26332.0642-.42777.31745-.38996.58008l-3.08048.74974c-.0871-.25049-.35006-.40002-.61304-.33619-.39898.0972-.578.62935-.15543.9697m-1.80235 4.72602c.50515-.67619.0774-1.39713-.54365-1.45681v-5.15309c.62102-.0593 1.0488-.78061.54365-1.45646-.69978-.53706-1.47137-.05-1.47137.61756 0 .44026.33688.79796.76639.8389v5.15309c-.42951.0413-.76639.39864-.76639.83891 0 .6675.77159 1.15461 1.47137.6179"/><path d="M31.275637 58.090901c-.46212-.16167-.78685.20122-.71157.55511l-2.85254.89961c-.1412-.33341-.61512-.44443-.901-.0468-.1752.4812.22898.82328.59847.7067.2439-.0767.38302-.32576.33064-.57071l2.85288-.89927c.0975.23037.35423.35457.59813.2779.36949-.11657.50445-.62866.085-.92251m-1.74199 2.22805c-.31085.64912.16619 1.18167.69562 1.12928l.85104 4.31142c-.50965.15266-.7487.82642-.21441 1.30866.67411.33376 1.23962-.20122 1.12929-.75979-.0725-.36845-.41355-.612-.77992-.57558l-.85104-4.31142c.35249-.10546.57557-.46039.50271-.82884-.10998-.55823-.83647-.83855-1.33329-.27373"/><path d="M31.987907 63.595801c.23141-.58877-.2203-1.02556-.68139-.94611l-1.0193-3.72683c.43749-.16583.60436-.77229.10512-1.1612-.612-.2498-1.07413.255-.94194.73794.0871.31814.4014.51034.72024.45518l1.01931 3.72683c-.30253.11484-.47565.44026-.38857.75841.13184.48294.78651.68242 1.18653.15578m-6.82326 8.10347c.22169.41771.68972.37331.86839.0729l2.61176 1.23268c-.1183.32889.14502.71816.60853.62379.43923-.2262.37713-.73377.0389-.89371-.22308-.10512-.48502-.0198-.60853.18804l-2.61211-1.23267c.0819-.2276-.0187-.48364-.24182-.58911-.33827-.15959-.76986.11518-.66508.59813m4.37907 13.19828c.11033-.58841-.38719-.91385-.80143-.75772l-1.61015-3.2824c.37678-.23175.42396-.82502-.10894-1.09772-.61339-.12316-.95269.42813-.74418.85348.13739.28032.46385.40279.75043.2949l1.61015 3.28205c-.2609.16028-.3636.49335-.22621.77402.20851.425.85243.49404 1.13033-.0666"/><path d="M30.604317 72.504861c-.76466.006-1.05123.70915-.75425 1.19035l-3.72058 2.82096c-.38302-.41562-1.13796-.32958-1.3496.40523-.005.79901.76986 1.08939 1.25176.72407.3178-.24078.39135-.68001.18596-1.01272l3.72093-2.82131c.26472.28761.70741.33514 1.02521.0943.4819-.36567.41112-1.18931-.35943-1.40094m-4.08279-8.87749c.76535-.0447 1.01619-.76397.69423-1.2306l3.58146-3.01525c.40488.39655 1.15635.27199 1.33051-.47497-.0361-.80038-.82641-1.05157-1.29027-.66092-.306.25743-.35735.70082-.13461 1.02348l-3.58146 3.0156c-.27998-.27443-.7258-.29941-1.0318-.0416-.46351.39065-.35075 1.21186.43194 1.38428m.43576 16.33532c.22655.63698.89718.67168 1.21255.28379l3.43713 2.28703c-.23592.44061.0552 1.04603.73031 1.00925.66856-.22864.68625-.95929.24113-1.25558-.29386-.19532-.68174-.12941-.89997.13878l-3.43678-2.28703c.16306-.30461.0743-.68833-.21962-.88366-.44477-.29628-1.11228.002-1.06475.70742"/><path d="M26.972897 62.884561c-.33515.44895-.0513.92772.36116.96728v3.42187c-.41251.0395-.69631.51832-.36116.96726.4649.3563.97733.0329.97733-.41008 0-.29248-.22378-.52978-.50896-.55718v-3.42187c.28518-.0274.50896-.26472.50896-.55719 0-.44304-.51243-.76639-.97733-.41009m19.48968-5.95036c-.57557.51417-.32334 1.23823.22239 1.40476l-.93708 4.61881c-.56759-.0597-1.08211.50896-.75217 1.20666.52943.60853 1.3097.31224 1.43113-.28588.0801-.39482-.15682-.77645-.53429-.89164l.93709-4.61881c.39239.0413.75945-.21787.83959-.61234.12143-.59813-.4819-1.17543-1.20666-.82156"/><path d="M47.437487 66.500371c.37539-.50307.0572-1.03909-.40454-1.08349v-3.83265c.46178-.044.77993-.58042.40454-1.08314-.52041-.39933-1.0946-.0371-1.0946.45935 0 .32751.25084.59327.57002.62379v3.83265c-.31918.0305-.57002.29663-.57002.6238 0 .49647.57419.85868 1.0946.45969m-.24945-6.99534c.19671-.63143-.30774-1.05262-.78235-.93432l-1.34682-3.80801c.44339-.20608.57106-.85104.0212-1.21845-.65745-.21371-1.10049.34799-.92598.84098.11484.32544.45761.50168.78547.4198l1.34682 3.80767c-.30635.14294-.46212.49508-.34694.82051.17417.493.87186.65156 1.24864.0718"/><path d="M51.175757 62.352711c-.50757-.44061-1.105-.14294-1.18861.34694l-4.0925-.3008c-.0111-.49647-.55892-.87845-1.12548-.51659-.46698.52422-.12524 1.16571.40488 1.20457.34972.0257.65329-.221.71123-.55961l4.0925.30045c.008.34347.272.63212.62172.65779.52977.0388.96171-.54572.57626-1.13275m-5.43516-2.5729c.41598-.0336.54366-.42813.36256-.67792l1.91233-1.6851c.22516.21094.63247.13393.71816-.27442-.0295-.43541-.46281-.5624-.71018-.34417-.16341.14398-.18596.3858-.0607.55892l-1.91233 1.68475c-.15578-.14572-.39864-.15405-.56205-.01-.24736.21823-.1759.66404.25223.74801m-3.29905 6.17726c.19359-.39829-.0978-.72753-.42361-.697l-.50792-2.65478c.31398-.092.46351-.50549.13669-.80421-.41355-.20746-.76327.1197-.69735.46352.0434.22654.25223.37781.47739.35665l.50792 2.65478c-.21718.0635-.35561.28102-.31225.50757.0659.34382.5114.51868.81913.17347"/><path d="M42.309367 65.905721c.77506.13947 1.19798-.51868.98843-1.06164l4.29997-2.15137c.30878.49335 1.08905.5492 1.44223-.15473.15578-.80803-.5728-1.24864-1.12964-.96971-.3674.18353-.52491.61409-.38024.98983l-4.29963 2.15137c-.21371-.34105-.65293-.47323-1.02-.28935-.55684.2786-.64114 1.12616.0989 1.4856m-8.17008.77125c.33028.42568.84688.28518.98912-.087l3.17172.87568c-.069.39238.30219.77818.80421.58216.44929-.33965.28033-.89718-.13045-1.01063-.27096-.0749-.54816.0718-.64635.32925l-3.17172-.87569c.0475-.2713-.11518-.53948-.38614-.61442-.41078-.11345-.84203.27894-.63039.80074m16.16739-5.76163c-.55268.3459-.44582.98461-.0153 1.2011l-1.43911 3.71225c-.46386-.13079-.97351.26958-.79831.89754.35423.58216 1.04603.44651 1.23233-.034.12317-.3171-.0198-.6689-.31779-.81843l1.4391-3.71226c.32092.0902.6637-.0732.78651-.3903.18631-.48086-.23349-1.04742-.88747-.8559m-15.2754 1.0311c.22412-.55094-.19567-.96658-.63004-.89684l-.91662-3.51416c.41286-.15091.57627-.71885.11137-1.09007-.57245-.24148-1.01237.22793-.89337.68312.0781.3001.37157.48398.67202.43576l.91662 3.51415c-.28553.10443-.45172.40834-.37331.70844.11865.4552.7317.65017 1.11333.1596m5.32518-7.96574c.0243.82294.78825 1.11402 1.29859.7827l3.12593 3.93604c-.43818.42221-.32716 1.23232.46872 1.44222.86006-.0146 1.15392-.85486.74904-1.36451-.26714-.33619-.74141-.40489-1.09425-.1759l-3.12593-3.93568c.30288-.29178.34347-.76952.0763-1.1057-.40488-.50966-1.28992-.41355-1.49843.42083"/><path d="M41.783057 64.148811c.78443-.14988.94576-.92667.5499-1.36485l3.28864-3.6002c.47184.35457 1.23095.12385 1.3097-.67098-.14641-.82156-.99641-.97351-1.42245-.50723-.28102.30739-.27374.77229 0 1.07517l-3.28864 3.60053c-.32613-.24528-.78998-.21058-1.07101.0968-.42569.46628-.1974 1.29928.63386 1.37075m-2.74429-2.45285c-.49821-.20783-.8788.16999-.81878.56481l-3.1974.80455c-.13391-.37608-.64808-.52873-.98877-.10963-.22378.51798.19914.92078.61304.81635.27339-.0686.44235-.33375.40106-.60645l3.19705-.8049c.0926.2602.36706.41355.64045.34451.4139-.10409.5957-.65919.15335-1.00924m-1.97652 4.49738c.49162.3674 1.0155.0565 1.05886-.39483h3.74522c.0434.45138.56759.76223 1.05886.39483.38996-.50828.0361-1.06928-.44894-1.06928-.31988 0-.58009.24495-.60992.55719h-3.74522c-.0298-.31224-.28969-.55719-.60992-.55719-.48502 0-.8389.561-.44894 1.06928"/><path d="M46.399087 65.658001c-.33757-.25812-.70289-.0465-.7362.26576l-2.59372-.0281c-.0267-.31294-.38719-.53221-.73031-.28171-.27373.34936-.0329.74036.30288.74417.22169.002.40349-.16548.42673-.38128l2.59372.0281c.0184.21614.19637.38787.41807.3903.33584.004.58528-.38233.31883-.73725"/><path d="M42.655957 66.869171c.7716.30774 1.34821-.2831 1.24621-.88886l4.90018-1.31559c.21545.57522 1.01029.79796 1.5241.14466.33203-.80246-.3282-1.41169-.9631-1.24135-.41841.11241-.67237.52423-.60194.94298l-4.90018 1.31595c-.14884-.39794-.57523-.62726-.99363-.51486-.6349.1707-.90101 1.02903-.21164 1.55707"/><path d="M41.540897 59.060251c-.28102.79345.34 1.3541.94923 1.22678l1.52584 4.90954c-.57419.24078-.76813 1.05436-.0867 1.54874.82537.30427 1.41655-.38822 1.2188-1.02417-.13011-.41944-.55719-.66022-.97837-.57245l-1.52584-4.9092c.3969-.16653.61235-.60714.48189-1.02658-.1974-.6356-1.0769-.87117-1.58481-.15266m8.59612 10.48244c.24286-.45415-.0812-.85035-.46143-.82954l-.47114-3.10996c.36949-.0926.56169-.5669.19498-.92876-.47115-.25986-.89233.10477-.83162.50723.0403.26575.27651.45067.53949.43645l.4708 3.10962c-.25535.0642-.42604.31085-.3858.57661.0611.4028.57141.62623.94472.23835m-9.68586 4.2285c.44061-.5898.0677-1.2188-.47427-1.2705v-4.4953c.54192-.052.91488-.68104.47427-1.27083-.61027-.46803-1.28368-.0434-1.28368.53879 0 .38407.29421.69596.66855.73204v4.4953c-.37434.0357-.66855.34764-.66855.7317 0 .58216.67341 1.00717 1.28368.5388m7.87241-13.3603c.42847-.21372.39551-.68833.0957-.87707l1.31456-2.61176c.32994.12837.73065-.12802.64704-.59952-.21787-.45066-.73308-.4007-.90343-.0625-.11241.22309-.0326.49058.17451.62103l-1.31421 2.61177c-.22828-.0888-.49022.007-.60263.22967-.17.33827.0968.782.58841.68833"/><path d="M46.329007 61.310841c.35909.13636.62137-.1412.56968-.42048l2.25545-.64566c.10408.26437.47323.36117.70603.0555.1471-.37365-.16272-.65051-.45484-.5669-.1929.0552-.30704.24737-.27131.44062l-2.2558.64565c-.0718-.18283-.27061-.28553-.46316-.23037-.29213.0836-.4087.4826-.0861.72164m-.9128 3.5655c.15786.63871.80421.73724 1.14699.39239l3.10684 2.54688c-.27096.40384-.0475 1.01827.60992 1.04776.66925-.15647.75702-.86284.35458-1.19244-.26541-.21753-.64739-.19115-.8847.0472l-3.10685-2.54688c.18735-.27929.13843-.65919-.12698-.87672-.40245-.32994-1.07759-.10547-1.0998.58182m-1.55324 5.54028c.12108-.67792-.45484-1.04707-.92946-.86318l-1.88561-3.75737c.4309-.27061.47912-.95304-.1367-1.26112-.70671-.13531-1.09112.50237-.84688.98877.16133.32128.53776.45867.86596.33134l1.88562 3.75735c-.29802.18735-.41286.57142-.25188.89233.24425.48641.98531.55927 1.29895-.0881m-16.0591 2.60654c.018-.79901-.7081-1.11993-1.21984-.82468l-2.83207-3.97419c.44616-.38754.3799-1.17856-.38129-1.42245-.83473-.0295-1.16224.7702-.79553 1.28506.24217.33965.69839.4302 1.05227.22585l2.83207 3.97455c-.30843.26749-.37192.72857-.1301 1.06823.36671.51485 1.2299.46628 1.47449-.33237"/><path d="M24.341017 67.797931c.66647.37573 1.26494-.0926 1.24655-.65781l4.63234-.59881c.12559.55164.82363.85208 1.37284.31953.40106-.69145-.12629-1.32843-.72615-1.25106-.39585.0513-.67826.39585-.66543.78651l-4.63234.59881c-.0871-.38128-.44755-.64287-.84341-.59188-.59985.0777-.94818.82816-.3844 1.39471m-.72268 2.74637c-.0305.76154.65641 1.08003 1.14941.80698l2.63327 3.83715c-.43194.36152-.38198 1.11716.33966 1.36244.79518.042 1.12096-.71504.77992-1.21186-.22517-.32786-.65884-.42188-.99954-.23315l-2.63327-3.83715c.29872-.25014.36706-.68867.1419-1.01618-.34104-.49717-1.16468-.46559-1.41135.29177"/><path d="M30.467277 67.801051c-.64531-.33861-1.20215.12455-1.16815.66231l-4.39469.70186c-.1353-.52146-.80871-.7879-1.31629-.26506-.36255.66993.15786 1.26147.72719 1.17057.37539-.06.63455-.3962.61096-.76778l4.39469-.7022c.0937.36081.44443.59951.82016.53949.56898-.0909.87915-.81566.32613-1.33919M.813293 60.905971c.64184-.21823.686247-.89025.302184-1.21186l2.342192-3.4132c.438186.24286 1.049492-.0402 1.022085-.71746-.219267-.67377-.952003-.70186-1.255228-.25986-.200186.29143-.13947.68173.126285.90413l-2.342538 3.41284c-.302878-.16793-.688673-.0843-.88886.20747-.303224.442-.01353 1.11541.69388 1.07794m6.186285-5.84559c-.446512.32196-.321267.85383.05309 1.01237l-1.007167 3.20503c-.397939-.0843-.8049.28033-.623105.7997.330288.47045.905513.31849 1.035964-.0965.08604-.27409-.05343-.56239-.312594-.67168l1.007512-3.20502c.275126.0583.554411-.0982.640453-.37193.130794-.41529-.253959-.86908-.794144-.67202m35.86245-4.03382c-.49577-.19463-.86353.18631-.79622.57419l-3.13772.86076c-.14017-.36811-.65051-.50827-.97768-.0878-.21025.51556.21545.90413.62172.79276.26818-.0736.42951-.33826.38302-.6068l3.13772-.86041c.0968.25466.37088.40002.63906.32647.40627-.11137.57419-.66265.1301-.99919m-33.265618 4.82178c.491961.15022.817392-.24391.723369-.6127l2.956621-1.06337c.162368.34381.664389.44026.947841.0111.163757-.51243-.275126-.85451-.658146-.71677-.252571.0909-.387878.35804-.323001.61304l-2.956622 1.06372c-.112059-.23801-.386835-.35769-.639408-.2668-.383022.13774-.503062.68105-.05066.97177m22.350904-9.81804c-.41078.12558-.45207.54989-.2151.76118l-1.54978 2.11356c-.2727-.16237-.66509.005-.66127.43402.12559.43055.58875.46316.78929.18908.13253-.18041.102-.42846-.0617-.57454l1.54943-2.11355c.18873.11206.43437.067.5669-.1138.20053-.27373.0305-.70567-.41772-.69595"/><path d="M13.405817 51.293661c-.207815.52874.197756.92077.611309.84896l.915231 3.34449c-.39239.14919-.54192.69319-.094 1.04221.54955.22412.9638-.22933.84514-.6623-.0781-.28588-.36047-.45796-.64635-.40835l-.915224-3.3445c.271304-.10304.426734-.39516.348674-.6807-.11865-.43333-.706022-.61234-1.064758-.13981m10.766928 2.86051c.65329.13913 1.03007-.40695.867-.87324l3.70428-1.70694c.24841.42673.90863.49542 1.22712-.0916.15439-.6807-.45171-1.07413-.93118-.85313-.31676.14572-.46213.50654-.34937.82885l-3.70427 1.70694c-.17174-.29525-.54054-.4191-.85695-.27304-.47982.221-.57418.93708.0434 1.26216M3.61662 57.021631c.145023-.374-.142592-.64947-.434368-.59778l-.655716-2.35918c.276512-.10617.380594-.49092.06349-.73621-.38892-.15647-.680001.16479-.595002.4701.05586.20157.255695.32231.457614.28657l.655716 2.35919c-.191165.0736-.300102.28033-.243898.48156.08465.30565.500285.43055.752164.0958"/><path d="M30.160577 51.065371c-.1308-.42604-.57106-.46872-.79033-.22273l-2.19508-1.60668c.16826-.28311-.006-.69007-.45103-.6859-.44685.13079-.47982.61131-.19567.81947.1877.13739.44512.10512.59639-.0649l2.19509 1.60701c-.11623.19568-.069.45068.11865.58807.28414.20817.73239.0312.72198-.43437m3.11621 1.89152c-.41042.0239-.54504.40973-.37226.65987l-1.92066 1.61709c-.21684-.21267-.61998-.14571-.71331.25466.0194.4295.44339.56412.6918.35456.1641-.13807.19186-.37608.0722-.54885l1.92066-1.61743c.15023.1471.38927.16028.55302.0222.24876-.20955.18805-.64981-.23141-.7421m16.22464 2.65374c-.33896-.26367-.70984-.0531-.74592.26229l-2.62113-.05c-.0243-.31641-.38718-.54088-.73586-.29073-.27998.35076-.0396.748.3001.7546.22378.004.40905-.16376.43403-.38164l2.62113.05c.0166.21857.19532.39343.41945.39794.3393.006.59465-.38128.3282-.74246m-4.19832-10.9782c-.74696.0517-.98461.75667-.66508 1.20908l-3.46732 2.98334c-.39932-.38338-1.13241-.25362-1.29478.47739.0441.78164.81844 1.01895 1.26772.63246.29594-.25465.34139-.68867.12074-1.00127l3.46697-2.98333c.27616.26506.71192.28484 1.0082.0298.44894-.38615.32994-1.18757-.43645-1.34751m-2.13853 11.64295c.58702-.41702.42812-1.11507-.0607-1.32601l1.34821-4.18687c.52006.1138 1.05643-.36013.82294-1.04151-.42812-.61929-1.18272-.42535-1.35723.11692-.11518.35769.0649.73655.40315.88227l-1.34821 4.18721c-.35978-.0791-.72719.12351-.84237.48121-.17451.54227.32508 1.14004 1.03423.88678m-17.73244-8.09758c-.408.36672-.22725.88053.16098.99745l-.65572 3.28483c-.40349-.0413-.76778.36394-.53186.85902.37747.43125.93154.21892 1.01654-.20643.0559-.28033-.11345-.55129-.38198-.63213l.65571-3.28447c.27929.0281.53949-.15682.59535-.4375.085-.42534-.34486-.83403-.85902-.58077"/><path d="M30.865557 49.164481c-.43367.58009-.0666 1.19938.46664 1.25037v4.42349c-.53325.051-.90031.67029-.46664 1.25037.60055.46108 1.26287.0427 1.26287-.53012 0-.37782-.28935-.68487-.6578-.72025v-4.42349c.36845-.0354.6578-.34242.6578-.72024 0-.5728-.66232-.99121-1.26287-.53013"/><path d="M34.797427 58.134961c.17486-.57557-.28657-.95548-.71712-.8448l-1.24829-3.45413c.40176-.19047.51381-.77714.0118-1.10812-.59917-.19047-.99849.323-.83682.77055.10651.29489.41911.4531.71678.37678l1.24829 3.45378c-.2779.13184-.41737.4531-.31051.74835.16167.44721.79692.58667 1.13588.0576m3.75424-10.52997c-.23557.59396.21961 1.03666.68521.95756l1.01827 3.76707c-.44201.16619-.61235.77783-.10964 1.17231.61756.25395 1.08557-.25466.95374-.74245-.0871-.32196-.40384-.5166-.72615-.46178l-1.01826-3.76707c.306-.11518.48155-.44305.39447-.76501-.13184-.48779-.79207-.69144-1.19764-.16063m-23.51731 9.6144c.59188.0586.87117-.46212.68104-.85833l3.10928-1.87555c.26193.35283.85277.34867 1.07655-.20227.0694-.61756-.50549-.90587-.90829-.663-.26541.16028-.35839.49369-.22724.76777l-3.10893 1.87556c-.1811-.2439-.51972-.31711-.78512-.15682-.4028.24286-.41564.88574.16271 1.11264m30.34543-5.73561c-.71157.12802-.86527.82953-.51139 1.2299l-3.01213 3.22619c-.42361-.32578-1.11298-.1242-1.19174.59431.12421.74488.89233.89129 1.28229.47323.25743-.27548.25535-.69631.0104-.97317l3.01247-3.22654c.29282.22551.71297.19845.97005-.077.39031-.41806.19186-1.17404-.55996-1.2469"/><path d="M44.594657 51.819271c-.0205-.38475-.38129-.51243-.61616-.3518l-1.50572-1.80581c.20018-.20262.13947-.58009-.23523-.6696-.4021.0163-.53012.41251-.33514.64635.12872.15439.3511.1811.51382.0701l1.50572 1.80617c-.13843.13981-.15231.36359-.0236.51798.19498.23384.60784.17902.69631-.21337m-11.9257 1.05712c.47531.36881.99468.0732 1.04533-.36879l3.67271.0666c.0344.44339.54261.75772 1.0311.40627.3917-.49162.0545-1.04811-.42118-1.05678-.31398-.006-.57315.23002-.60784.53568l-3.67271-.0666c-.0239-.30669-.27442-.55128-.58806-.55718-.47565-.009-.833.53533-.45935 1.04081m-4.15425 1.84745c-.24043.31329-.0448.65295.24563.68453l-.0305 2.41053c-.29074.0243-.49509.35908-.26298.67826.32438.25501.68798.032.69214-.28032.002-.20608-.153-.37504-.35353-.3969l.0302-2.41054c.20123-.0166.36082-.18214.36359-.38787.004-.31225-.35422-.5447-.68451-.29769m-21.907505-4.29614c.664734.1353 1.042205-.42293.872552-.89477l3.745909-1.76731c.256388.4309.92737.49474 1.245511-.10442.150228-.69284-.468368-1.08662-.953736-.85764-.319877.15092-.464206.51833-.346939.8448l-3.745909 1.76731c-.177285-.29802-.552674-.42049-.8729-.26957-.485023.22898-.574533.95721.05551 1.2816m21.317707 2.64714c.26818.28381.63039.14572.70672-.13253l2.34843.40731c-.0219.28761.27304.53949.62102.3629.29976-.27651.13878-.66682-.16549-.71955-.20053-.0347-.38996.0906-.44269.2831l-2.34844-.40731c.0153-.19914-.12108-.38094-.32196-.41563-.30392-.0527-.58702.26055-.39759.62171m-5.70334-6.49054c-.33862.45345-.0517.93743.36463.97732v3.45691c-.41633.0399-.70325.52353-.36463.97733.46941.36013.98739.0333.98739-.41459 0-.29525-.22621-.53498-.51417-.56274v-3.45691c.28796-.0277.51417-.26748.51417-.56308 0-.44755-.51798-.77437-.98739-.41424m28.43622 8.70819c-.006-.58772-.54713-.80595-.91627-.57662l-2.17635-2.8522c.31849-.29524.25049-.87497-.31468-1.03561-.61373-.002-.83543.59396-.55336.96346.18595.24355.52353.29906.77853.1405l2.1767 2.85185c-.22031.20435-.2557.5447-.0697.78825.28172.36914.91488.31293 1.07517-.27963m-42.11987-.88956c-.393082-.29004-.809063-.0402-.841675.31953l-2.982988.0163c-.03643-.35942-.455532-.60471-.845144-.31016-.308429.40696-.02394.85208.362205.85001.255-.00098.460736-.19776.483285-.44652l2.983337-.0163c.02498.24841.233144.44234.488142.44096.386144-.002.665778-.45032.352838-.85382"/><path d="M36.241737 52.733461c-.40939-.0874-.64565.25465-.544.54678l-2.32276 1.06718c-.15578-.26749-.56933-.3112-.76951.0565-.0968.42674.2824.67376.5832.53533.19845-.0909.29004-.3171.21961-.51903l2.32277-1.06718c.10755.18492.33861.26299.53706.17173.3008-.13807.36047-.58702-.0264-.79136m-15.73649-5.29708c-.7768-.0288-1.09911.67307-.81913 1.17474l-3.90446 2.69815c-.37018-.43923-1.14073-.3858-1.38845.35076-.0402.81149.73274 1.14108 1.23858.79171.3334-.23071.42812-.67341.23453-1.02035l3.90446-2.69815c.25604.30393.70324.37227 1.037.14156.50584-.34937.4708-1.18932-.30253-1.43842m13.26906-.61165c.46594.61651 1.20908.42395 1.41967-.10687l4.53277 1.31248c-.10582.56135.41945 1.12131 1.14282.84931.65051-.47878.41876-1.2816-.16827-1.4516-.38753-.11241-.7879.0929-.93326.4604l-4.53277-1.31282c.0729-.38823-.15578-.77577-.54296-.88782-.58702-.17-1.21221.38475-.918 1.13692m7.06612 8.8199c-.66786-.33133-1.22643.15508-1.17925.70394l-4.4776.81947c-.15058-.53012-.84515-.78686-1.35237-.24077-.35492.69353.19081 1.28645.77089 1.18063.38233-.0701.63942-.41979.60715-.79969l4.47726-.81913c.10443.36637.46871.60229.85104.53255.58008-.10616.88053-.85417.30288-1.377m10.29439-8.02923c-.782-.34902-1.3999.23558-1.3201.86353l-5.10002 1.15219c-.19775-.60124-1.00716-.86318-1.56331-.21233-.37469.81254.27998 1.46756.94056 1.31838.43575-.0985.714-.51208.65884-.94645l5.10001-1.1522c.13669.41598.56621.6696 1.00161.57106.66058-.14917.97039-1.02172.28241-1.59418m-15.80588.92043c-.17624-.37851-.59049-.36046-.76188-.10408l-2.24574-1.20527c.11935-.28449-.0951-.63976-.50757-.57765-.39794.17937-.36602.62969-.0753.78581.19185.10305.42673.0399.54504-.13773l2.24574 1.20527c-.0826.19672-.006.42743.1863.53047.29109.15613.68382-.0663.6134-.49682m-21.951577 1.66428c-.512083.17867-.543652.71642-.234184.97142l-1.852658 2.74569c-.352142-.19152-.839246.0388-.813226.58078.179713.5374.766043.55544 1.006124.19983.158204-.23453.107204-.54609-.106856-.72268l1.852658-2.74533c.243552.13219.551635.0628.70984-.17174.24008-.35526.0041-.89232-.561698-.85797m5.716527 7.45954c.64427-.29594.61825-.99988.18388-1.29304l2.06949-3.80246c.48225.20574 1.08731-.15473.98601-.85624-.3008-.67723-1.0658-.62762-1.33364-.13531-.17694.32474-.0718.72406.22863.92702l-2.06949 3.80211c-.33341-.1419-.7258-.0136-.90274.31121-.26784.49265.10582 1.1619.83786 1.04671"/><path d="M18.319177 52.547501c-.20053-.44201-.68243-.42674-.88504-.13045l-2.5965-1.43078c.14259-.3296-.102-.74523-.582858-.67827-.4649.20331-.433675.72754-.09749.9128.222048.12213.495778.0517.635598-.15335l2.59649 1.43079c-.0985.22793-.0118.49716.2099.61928.33619.18527.79623-.0683.7199-.57002m10.2375 1.21081c.77159-.28726.80213-1.10465.32439-1.48177l2.72452-4.22573c.54088.27928 1.27292-.0856 1.21602-.90725-.29004-.8101-1.18064-.81877-1.53347-.2713-.2328.36081-.14537.8323.18492 1.0932l-2.72417 4.22573c-.37401-.19325-.8396-.0784-1.0724.28275-.35283.54748.0226 1.35481.88019 1.28437m8.70021-.91071c.17069.60507.79137.67896 1.10812.33861l3.04822 2.3356c-.24633.39447-.0135.9742.61547.98184.63455-.17069.6963-.84793.30149-1.15045-.26055-.19949-.62484-.16237-.84376.0732l-3.04856-2.33559c.17035-.2727.11172-.63421-.14883-.83371-.39482-.30252-1.03285-.067-1.03215.5905m5.76267-1.98966c.53914-.0566.69283-.57279.44998-.89164l2.43031-2.24713c.29906.26681.82572.1544.92425-.37885-.0521-.56413-.61825-.71574-.93293-.42465-.20781.1922-.22932.50688-.0617.72752l-2.43031 2.24713c-.20643-.18456-.52214-.18769-.72996.004-.31467.29109-.20782.86735.35041.96345m-22.44353.77889c.33341.24909.68937.0382.71886-.26819h2.54202c.0295.30634.38511.51728.71886.26819.26472-.34521.0243-.72615-.30496-.72615-.21718 0-.39343.16653-.4139.37816h-2.54202c-.0205-.21163-.19706-.37816-.41425-.37816-.32924 0-.56933.38094-.30461.72615"/><path d="M18.510347 51.415781c-.33133.44339-.051.91626.3563.95547v3.37954c-.4073.0388-.68763.51173-.3563.95512.45865.35215.96484.0326.96484-.40487 0-.289-.22101-.52319-.50272-.55025v-3.37954c.28171-.027.50272-.26159.50272-.55025 0-.43783-.50619-.75736-.96484-.40522m-9.302154.0451c.438184.32717.905166.05.944023-.35214h3.338256c.03851.4021.505838.67931.943675.35214.34798-.45345.0323-.95339-.400021-.95339-.285185 0-.516941.21858-.543654.49682h-3.338256c-.02671-.27824-.258469-.49682-.543653-.49682-.432287 0-.748003.49994-.40037.95339m17.378214-6.63939c-.43125.35701-.26784.88887.12351 1.02417l-.80421 3.32334c-.40973-.0583-.79796.34-.57765.85451.36741.45553.9409.26194 1.04533-.16861.0687-.2838-.093-.56725-.3636-.66058l.80421-3.32333c.2831.0402.55649-.13774.62519-.42153.10408-.43056-.3178-.86492-.85278-.62797m2.66172 6.81911c.63421.47391 1.31074.0725 1.3666-.51h4.8346c.0562.58251.73274.98391 1.36694.51.50376-.65642.0465-1.38047-.57973-1.38047-.41286 0-.74835.31606-.78721.71885h-4.8346c-.0385-.40279-.37401-.71885-.78721-.71885-.62588 0-1.08315.72405-.57939 1.38047m-11.78485-3.60852c-.30878-.61721-.99294-.56933-1.26425-.13739l-3.767068-1.89117c.184571-.476-.185615-1.05331-.86527-.93223-.649122.31433-.576265 1.05748-.08847 1.30241.321962.16167.706716.0465.894758-.25222l3.76672 1.89117c-.12767.32924.0101.70671.33203.86839.48779.24494 1.1272-.14051.99155-.84896m23.5867 3.34589c.33549-.45311.0475-.93328-.36741-.97109l-.0163-3.44164c.4146-.0416.69804-.52457.35874-.97456-.46906-.35631-.98288-.0284-.9808.41738.001.29385.22759.5315.51451.55787l.016 3.44129c-.28657.0288-.51069.26889-.50931.56274.002.44582.51902.76882.98462.40801"/><path d="M13.914431 47.538731c-.49092-.19047-.853125.18769-.784777.57072l-3.098173.86283c-.139816-.36324-.644959-.49994-.966572-.0829-.205736.5107.21649.89303.617551.78132.264715-.0739.423268-.3362.376082-.60126l3.098173-.86283c.09645.25119.368104.39412.632818.32022.401062-.11172.564814-.6571.124898-.98808m5.267586 2.6364c-.7931.0982-1.00543.86353-.63872 1.32704l-3.52143 3.38093c-.44825-.38546-1.221579-.20436-1.352374.58424.09229.83022.931534 1.03805 1.387754.6002.3008-.28865.32405-.75355.0704-1.07412l3.52144-3.38093c.31016.26646.77541.26229 1.0762-.0267.45623-.43783.28276-1.28472-.5433-1.41065m3.72856.94644c.0909.62103.69526.77437 1.05296.47843l2.71411 2.70544c-.2949.35839-.13947.96241.4819 1.05123.65016-.0867.79865-.74905.4472-1.09945-.2321-.23106-.59743-.24112-.84445-.0368l-2.71411-2.70544c.20366-.24771.19221-.61304-.0395-.8441-.35145-.35041-1.01341-.19984-1.09807.45067m14.007 4.65178c.64427-.18042.72441-.84029.36325-1.17822l2.49276-3.23729c.41876.26298 1.03631.017 1.04602-.65225-.17971-.67548-.90031-.74279-1.22331-.32369-.21302.27651-.17416.66439.0756.89788l-2.49276 3.2373c-.28969-.18181-.67445-.12004-.88712.15646-.323.41945-.0739 1.09876.62553 1.09981m-4.21046-3.89822c.52214 0 .72129-.47913.52075-.80906l2.55452-1.90852c.25951.28588.77541.23106.92356-.26992.007-.54573-.52041-.74766-.85105-.50063-.21822.16306-.27061.46247-.13218.69075l-2.55452 1.90852c-.17971-.19775-.48155-.23245-.69978-.0693-.33098.24701-.28657.81009.2387.95824"/><path d="M26.516327 53.970301c-.55996-.0767-.84411.408-.67723.79137l-3.02011 1.6719c-.23661-.34451-.79796-.36117-1.03041.15404-.0874.58424.44859.87845.83959.66196.25813-.14294.35839-.45623.24321-.72129l3.01976-1.67225c.16376.23835.4826.31988.74072.17694.391-.21648.42604-.82675-.11553-1.06267m15.0433-5.38277c-.6113-.45692-1.2632-.0701-1.31698.49161h-4.6594c-.0538-.5617-.70602-.94853-1.31698-.49161-.48537.63247-.0451 1.33051.55822 1.33051.39829 0 .72164-.30495.75876-.69318h4.6594c.0371.38823.36047.69318.75841.69318.60333 0 1.04394-.69804.55857-1.33051m4.8582 1.29825c.45449.21475.82468-.12004.78617-.48954l3.00796-.60957c.10825.35562.57974.52006.91488.14502.23037-.47184-.14502-.86492-.53463-.78582-.25708.052-.42604.29109-.39933.54678l-3.00797.60922c-.0749-.24562-.32334-.40036-.58043-.34833-.38961.0791-.58285.58703-.18665.93224"/><path d="M36.455797 49.476041c-.13947.35804.13566.62276.41564.57349l.62518 2.26205c-.26541.10165-.36567.4701-.0617.70533.37227.15092.6519-.15682.57106-.44964-.0534-.19324-.24494-.30947-.43853-.27512l-.62518-2.26204c.18353-.0704.28796-.26819.23453-.46144-.0808-.29316-.47878-.4132-.72094-.0926m-12.73269-2.54272c-.21302.48987.15543.87186.54677.81808l.75009 3.17485c-.37366.12698-.53221.63351-.12282.97629.50931.22898.91384-.18353.8167-.59466-.0642-.27131-.3237-.44235-.59431-.40522l-.75008-3.17485c.25847-.0877.4139-.357.35006-.62831-.0972-.41112-.64357-.59881-.99641-.16618m-9.847193.44096c-.27339.36602-.04197.75633.294205.7886v2.78869c-.336184.0323-.567595.42258-.294205.78825.378512.29039.796223.027.796223-.33444 0-.23801-.18249-.4316-.414589-.45381v-2.78869c.232099-.0225.414589-.21615.414589-.45415 0-.36116-.417711-.62484-.796223-.33445"/><path d="M12.053792 49.554801c-.07008.59847.452411.89093.85729.70567l1.844335 3.18317c-.36221.25917-.36845.85764.18561 1.0946.62449.0811.92668-.49612.68798-.90829-.15751-.272-.49369-.37226-.77402-.24425l-1.844333-3.18317c.250838-.17902.330981-.52075.173468-.79275-.239039-.41217-.890246-.4368-1.13033.14502m35.160265 5.09169c.30704-.36742.0867-.7893-.26333-.84203l.15751-2.91984c.35353-.0149.6179-.41043.35249-.80907-.38024-.32543-.83231-.0729-.85278.30531-.0135.24945.16653.46212.4087.49856l-.15751 2.92018c-.2446.01-.44651.20262-.46005.45206-.0201.37817.40211.67792.81497.39483m-21.03184-5.47333c.7775.005 1.07864-.70637.78339-1.19971l3.82259-2.8175c.38371.42812 1.15253.3511 1.37769-.39309.0156-.81253-.76743-1.11888-1.26251-.75389-.32682.24077-.40765.68624-.20331 1.02728l-3.82293 2.8175c-.26506-.29594-.71469-.35076-1.04116-.10998-.49509.36498-.43472 1.20388.34624 1.42939m3.47287 7.01478c-.3799-.57419-1.05123-.44443-1.26806.0156l-3.95616-1.42003c.12559-.49299-.31016-1.02001-.96831-.81877-.60506.38926-.44373 1.1161.0687 1.29998.33792.12143.70532-.0388.8552-.35735l3.95581 1.42002c-.0867.34104.0951.6984.43298.81983.51243.18387 1.09911-.27444.87984-.95929"/><path d="M52.035127 48.759951c-.81565-.0378-1.1612.69597-.87221 1.22575l-4.12823 2.79529c-.38441-.46524-1.19417-.41668-1.46166.35457-.0506.85174.75841 1.20596 1.29305.84375.35249-.23869.45622-.70254.25638-1.06891l4.12824-2.7953c.26576.32162.73517.3976 1.08766.1589.53463-.3622.50653-1.24448-.30323-1.51405m-40.257844 6.21369c.0909.39864.490919.46768.708104.25709l1.90088 1.61917c-.17312.24771-.0416.63212.36637.65815.41772-.0895.48051-.52736.23453-.7369-.16236-.13844-.40037-.12629-.55024.0191l-1.900886-1.61882c.119694-.17138.09367-.408-.0687-.54643-.245981-.20954-.668205-.0781-.690063.34868m10.913339 1.45924c.54019-.37504.40176-1.01342-.0427-1.21047l1.27049-3.80871c.47358.10894.96762-.31849.76084-.94264-.38475-.56932-1.07516-.39968-1.23961.0937-.1086.32543.0524.67272.35943.80907l-1.2705 3.80871c-.32751-.0753-.66473.10581-.77333.43124-.16445.493.28588 1.0436.93535.81913m13.50602-.2106c-.66161-.49474-1.36729-.0767-1.42592.53116l-5.04312-.003c-.0579-.60749-.76326-1.02659-1.42522-.53255-.52562.68451-.0493 1.43981.60367 1.44015.4309.00026.78096-.32925.82155-.74939l5.04277.002c.0403.42049.38996.75043.82086.75043.65329.00025 1.13033-.75459.60541-1.43946m15.89643-.55257c-.42326-.31642-.87498-.0486-.9121.34034h-3.22654c-.0375-.38891-.48885-.65676-.91212-.34034-.33618.43783-.0312.92112.38685.92112.27547 0 .49924-.21094.52527-.47982h3.22654c.0257.26888.24945.47982.52526.47982.41772 0 .72303-.48329.38684-.92112m-17.38234-33.59195c-.41147.14849-.43194.58286-.18006.78581l-1.46895 2.23118c-.28588-.15128-.67653.0392-.65051.476.14988.43193.6231.44096.81323.15195.12559-.19081.0815-.44165-.0926-.58182l1.46894-2.23151c.19775.10478.44547.0458.57106-.14467.19012-.28901-.005-.7199-.46108-.68694m9.75803-7.11678c.24355-.32612.0375-.67376-.26229-.70255v-2.48583c.29976-.0285.50584-.37642.26229-.70255-.33758-.25881-.70984-.0239-.70984.29802 0 .21233.16271.38476.36983.40453v2.48583c-.20712.0198-.36983.1922-.36983.40488 0 .32161.37226.55684.70984.29767M7.745528 39.064041c-.393081.12836-.425001.53775-.192898.7369l-1.45333 2.06394c-.265409-.15127-.640104.017-.628654.4302.129061.41216.575572.43472.763612.16758.124206-.17625.08986-.4146-.07043-.55234l1.45333-2.06394c.183531.10478.41945.0566.543654-.11969.188042-.26749.01631-.68036-.415287-.66265m34.942032-.18076c-.52631.25916-.48918.84098-.12351 1.07378l-1.6275 3.19184c-.40349-.15925-.89614.15231-.79657.73065.26367.55337.89545.49544 1.10639.0819.13913-.27271.0434-.60056-.2099-.76154l1.6275-3.19185c.27928.11033.6009-.005.74002-.27755.21059-.41321-.11345-.95894-.71643-.84722m.67304-10.14384c-.26645.47461.0677.89961.46941.88574l.43194 3.29419c-.39205.0902-.60507.58703-.22552.97698.49231.2845.94507-.0916.88921-.51832-.0371-.28137-.28241-.48191-.56031-.47219l-.43194-3.2942c.27097-.0624.45658-.31918.41945-.60054-.0559-.42674-.58979-.67342-.99224-.27166m-10.26456 10.85782c.19463-.32994-.0337-.6342-.31676-.63038l-.25257-2.32415c.27721-.0576.43472-.40385.17382-.68382-.34208-.20782-.66613.0497-.63351.35075.0215.19845.19116.34347.38683.3407l.25292 2.3245c-.19186.0395-.32612.21718-.30461.41598.0326.30079.40453.48259.69388.20642m7.94318-3.62621c.31433.55233.9409.47427 1.16919.0635l3.55717 1.5529c-.14606.44652.22274.95929.84168.81427.58147-.32126.47773-1.00092.017-1.2018-.30392-.13287-.65224-.008-.8101.27617l-3.55717-1.5529c.10096-.30879-.0441-.64913-.34798-.782-.46074-.20088-1.02972.18491-.86978.82987m-16.82067-19.38842c-.26854.54539.1294.99988.57695.96033l.67897 3.65015c-.43229.12421-.64011.69145-.19325 1.10362.56621.28796 1.0488-.15855.96102-.63143-.0583-.3119-.34381-.52076-.65363-.49335l-.67862-3.65015c.29872-.0857.49023-.38337.43229-.69527-.0878-.47288-.69873-.71608-1.12373-.2439m18.25388 28.01747c-.64322-.20608-1.07725.30566-.96067.79102l-3.89891 1.34335c-.20678-.45414-.86388-.58979-1.24378-.0312-.22378.66925.3459 1.12616.85104.952.33306-.1145.51555-.46282.43507-.79865l3.8989-1.34336c.14294.31433.50133.476.83474.36116.5048-.17381.67202-.88503.0836-1.2743m-9.51968-3.62726c-.60818-.45414-1.25661-.0694-1.31039.48919h-4.63546c-.0534-.55858-.70221-.94333-1.31039-.48919-.48294.6297-.0448 1.32393.5558 1.32393.39585 0 .71747-.30323.75459-.68972h4.63546c.0371.38649.35874.68972.75494.68972.60021 0 1.03839-.69423.55545-1.32393m4.3815-26.21267c-.22759-.45137-.72822-.41425-.92598-.0975l-2.76198-1.37458c.13357-.34867-.13878-.77021-.63595-.68-.47461.23175-.4191.77541-.0614.95374.23592.11726.51763.0319.65398-.18735l2.76233 1.37492c-.0926.24113.009.51694.24529.63455.3577.17799.82468-.10581.72372-.62379m-9.21438 33.53797c.71782.009.99954-.646.72962-1.10326l3.54434-2.57951c.35179.39725 1.06198.33064 1.27396-.35526.0191-.75009-.70221-1.037-1.16121-.7029-.30288.2203-.38024.63108-.19359.94714l-3.54434 2.57985c-.2432-.27478-.6578-.32786-.96067-.10721-.45901.3341-.40766 1.10882.31189 1.32115m-17.255739-6.65707c-.02845.39482.323003.57106.583208.43749l1.304492 2.03411c-.230021.18075-.216144.57349.154387.71261.411819.0347.593267-.35318.424308-.61651-.111367-.17381-.335143-.22967-.514859-.13704l-1.304492-2.03411c.158899-.1249.201573-.35145.08986-.52526-.168958-.26333-.596735-.26021-.7369.12871"/><path d="M30.143227 35.453081c.71574-.18595.81774-.91383.42535-1.29443l2.82132-3.52734c.45761.29906 1.14524.0395 1.16953-.69978-.18492-.75042-.9801-.83959-1.34543-.38267-.24078.30149-.20608.73065.0656.99398l-2.82132 3.52734c-.31641-.20713-.74314-.14675-.98392.15473-.36567.45658-.10408 1.21256.6689 1.22817m-7.78776 3.46767c-.35873-.26819-.74141-.0409-.77298.28831h-2.73423c-.0319-.32925-.41425-.5565-.77298-.28831-.28519.37122-.0264.78096.32751.78096.23384 0 .42361-.17902.44547-.40697h2.73423c.0219.22795.21164.40697.44513.40697.35422 0 .61269-.40974.32785-.78096m4.99316 2.5566c-.41217.12871-.45102.55579-.21129.76673l-1.54596 2.13645c-.27512-.16132-.6689.01-.66231.44096.12906.43264.59535.46213.79554.18527.13183-.18249.0996-.43159-.0663-.57765l1.54562-2.13645c.19047.11171.43749.0645.56967-.11797.20019-.27686.0264-.71019-.425-.69734m-17.543353 2.91949c.46455-.62172.07147-1.28471-.49994-1.33953v-4.7392c.57141-.0545.96449-.71782.49994-1.33953-.643227-.49369-1.353066-.0458-1.353066.56794 0 .40488.309818.73377.704981.77159v4.7392c-.395163.0378-.704981.36671-.704981.7716 0 .61373.709839 1.06163 1.353066.56793m19.038663-25.31168c.42291-.17798.42049-.63386.14571-.83266l1.4176-2.41643c.30773.14294.70671-.0777.65571-.5336-.18041-.44408-.67618-.42812-.85971-.11518-.12143.20643-.0618.46698.12836.60437l-1.41759 2.41643c-.21268-.0989-.46906-.0239-.59015.18249-.18353.31329.0441.7539.52007.69458m8.66863 10.74229c.21268.32196.58911.24911.71088-.009l2.21764.79692c-.0704.27651.17382.5721.54296.459.33931-.21822.24876-.62553-.0382-.72857-.18977-.0683-.39551.0215-.47982.20018l-2.21763-.79692c.0486-.19117-.0531-.39135-.24251-.45934-.28727-.10339-.61617.15369-.49335.53775m8.56004-1.28887c-.40175-.3348-.86214-.094-.91939.28831l-3.18872-.16966c-.0163-.38614-.44825-.67445-.88331-.3844-.35527.41528-.0791.90897.33376.93084.27235.0146.50479-.18215.54435-.44652l3.18872.16965c.0111.26715.22134.48745.49369.50203.41286.0218.74003-.43958.4309-.89025m-22.54241 16.63958c-.39239-.46907-.97212-.28796-1.11819.14016l-3.63349-.86075c.0618-.44791-.37539-.87013-.93639-.62658-.49543.40349-.28103 1.02937.18977 1.14074.31051.0736.61894-.10443.71955-.40037l3.63385.86076c-.0427.30981.153.60714.46351.68069.47045.11137.94298-.35144.68139-.93465m21.36317-23.75757c.0312-.50168-.41737-.72129-.74592-.54852l-1.68162-2.56665c.29004-.23246.26784-.73101-.20435-.90309-.52388-.0389-.74939.45553-.53151.7879.14364.21927.42812.28727.65572.16792l1.68127 2.56666c-.20053.16063-.25153.44859-.1079.6682.21753.33237.76118.323.93431-.17242"/><path d="M21.075267 39.222231c-.0559.41946.30808.63074.59466.5048l1.26078 2.25719c-.25744.17798-.26854.59848.1183.77125.43749.0638.65641-.33827.49335-.63074-.1079-.19289-.34278-.2668-.54123-.18006l-1.26043-2.25684c.17798-.12317.238-.36221.13045-.5551-.16341-.29248-.62068-.31676-.79588.0895m12.46416 9.0416c.3622.27062.74904.0413.78096-.29143h2.76268c.0319.33271.41876.56205.78131.29143.28761-.37538.0264-.78894-.33133-.78894-.23592 0-.42778.18041-.44998.41077h-2.76268c-.0222-.23036-.21372-.41077-.44998-.41077-.3577 0-.61894.41356-.33098.78894m-10.86234-32.49714c-.36151.27651-.24563.71365.068.83578l-.75772 2.67456c-.33132-.0607-.65918.25083-.49647.67583.28415.38164.75633.24217.85452-.10408.0649-.22863-.0576-.46351-.27443-.54816l.75772-2.67421c.22898.0416.45657-.0944.52145-.323.0982-.34625-.23072-.71262-.67307-.53672m10.20593-5.37236c-.43021.28067-.33688.78269.006.9468l-1.07933 2.94551c-.36741-.0961-.76292.22656-.61582.71886.28762.45345.83092.33653.97039-.0451.0923-.25153-.0253-.5263-.26228-.6401l1.07898-2.94552c.25431.0663.5218-.0673.61408-.31918.13982-.38129-.19949-.82156-.71192-.66127m-10.13898.10512c-.39967.30565-.27165.78894.0749.9239l-.83786 2.95558c-.36602-.067-.72857.27721-.54851.74696.31398.42154.83578.26784.94437-.11518.0715-.25223-.0638-.51243-.30322-.60576l.83751-2.95523c.25327.0461.50445-.10408.57627-.35665.10824-.38268-.255-.78756-.7435-.59362m7.12193 36.42138c.29872-.55024-.0923-1.03388-.55476-1.01133l-.54989-3.78338c.44963-.10998.68659-.68486.24355-1.1272-.57107-.31954-1.08558.12038-1.01446.61026.0472.32335.33272.5499.65225.53429l.55025 3.78303c-.31086.0763-.52007.37469-.47323.69804.0715.48988.69006.765 1.14629.29629m8.39837-27.504c.2491.38857.70047.30774.85035.001l2.63882.98913c-.0888.32959.19845.68694.6415.55788.40938-.25535.30773-.74384-.034-.87186-.22517-.0847-.47323.0194-.57662.23141l-2.63882-.98913c.0614-.22759-.0572-.46906-.28241-.55337-.34173-.12802-.73933.17347-.59882.6349m-16.12055 10.44805c.15577.34972.53602.34.697.10755l2.03896 1.14179c-.11379.25881.0767.58771.45588.53775.36776-.15785.3459-.57142.0819-.71921-.17451-.0975-.39065-.0434-.50202.11761l-2.03896-1.14177c.0787-.17902.0122-.39169-.16203-.48919-.26436-.1478-.62796.0496-.57071.44547m6.10059 7.2507c.42881.32057.88608.0493.9239-.34451h3.26782c.0378.39377.49509.66508.9239.34451.34035-.44374.0316-.93327-.39169-.93327-.27929 0-.50584.21406-.53221.48641h-3.26782c-.0264-.27235-.25292-.48641-.53221-.48641-.42326 0-.73239.48953-.39169.93327m1.39331-14.85666c-.0344.60784.51035.87117.90759.65953l2.05388 3.09852c-.34971.28345-.31953.88748.25362 1.09286.63455.0437.90447-.55684.63871-.95824-.17555-.26472-.52075-.34521-.79553-.1988l-2.05388-3.09886c.24181-.19603.30218-.54505.12663-.81011-.2661-.40106-.92425-.38649-1.13102.2151m5.41156 13.13445c-.36394-.38615-.85659-.19949-.96102.17868l-3.19011-.55893c.0305-.391-.36949-.73413-.84306-.49473-.40801.37503-.19013.90585.22308.97802.27235.0479.53047-.12213.60263-.38337l3.19011.55857c-.0211.27062.16376.51798.43645.56551.41321.0725.79831-.35248.54192-.84375m9.9485-12.98318c-.41495-.0545-.62276.3053-.49786.58841l-2.2277 1.25037c-.17659-.25396-.59223-.26403-.76188.1183-.0624.43298.33549.64844.62414.48642.19047-.10687.26298-.33932.1766-.53498l2.22804-1.25038c.12178.17555.35839.23453.54851.12768.28866-.16168.3119-.61374-.0899-.78582m-25.99515-7.54837c-.2713.62206.19637 1.10778.69319 1.04012l.94784 4.03387c-.47531.16064-.67758.80386-.15786 1.24031.64635.29143 1.16086-.23175 1.03839-.75424-.0812-.34451-.41077-.56239-.75425-.5159l-.94749-4.03352c.32855-.11137.52631-.45311.44547-.79762-.12282-.52249-.81635-.76188-1.26529-.21302"/></g></svg>