<svg xmlns="http://www.w3.org/2000/svg" xml:space="preserve" viewBox="0 0 65.226669 53.898022"><g fill="#231f20"><path d="M4.298497 20.9927237c-.210591-.414595-.670982-.379207-.852085-.08674l-2.545494-1.25731c.122121-.321264-.129757-.708449-.587022-.623796-.435758.214754-.383371.714696-.05378.87741.217531.107551.476349.02811.601594-.173817l2.545497 1.256964c-.08466.222387.0097.476.227245.583551.329593.162717.758757-.09957.664042-.576265m45.937246-2.817847c.39447.496471 1.00023.323695 1.16259-.116222l3.74418.986001c-.0756.462819.36671.911412.95443.673757.52388-.405572.3178-1.059555-.16723-1.187227-.31988-.0843-.64426.09229-.75631.396203l-3.74418-.986001c.052-.319877-.14328-.633165-.46316-.717471-.48502-.127675-.9867.339654-.73031.95096m-5.06185-6.355588c.40869.661614 1.17196.538798 1.43286.02672l4.41828 1.743372c-.1589.552675.31467 1.163287 1.0651.958941.697-.418063.54053-1.244821-.0319-1.470678-.37747-.148837-.79796.01907-.97872.373308l-4.41793-1.743372c.10998-.381981-.0826-.792063-.46004-.940901-.5721-.225857-1.25107.27096-1.02764 1.052615"/><path d="M51.92049 19.1501247c.60541.131143.95651-.374.80698-.806982l3.44025-1.57025c.22933.396552.84098.462473 1.13831-.08083.14537-.630736-.41529-.997453-.86076-.794144-.29385.133916-.42985.468019-.32647.767429l-3.4406 1.57025c-.1582-.274084-.49994-.390307-.7938-.256041-.44547.203306-.53567.867002.0361 1.170573m4.79436 5.224217c-.20262.422227.10755.769166.45241.734819l.55267 2.806398c-.33202.09888-.48745.537409-.13982.85139.43854.217183.80664-.130797.73482-.494043-.0472-.239734-.26888-.398288-.50722-.374695l-.55268-2.806049c.22933-.06869.3747-.29941.32751-.539144-.0718-.363592-.54435-.546084-.86769-.178676m-7.90607-5.809504c.0916-.561696-.38891-.85937-.77853-.701512l-1.60564-3.079438c.35249-.229326.38372-.793451-.12906-1.040125-.58529-.102695-.89476.428818-.68694.827797.13739.262982.44998.371573.71955.262636l1.60564 3.079436c-.2439.158553-.33375.47739-.19671.740371.20781.39898.82086.449633 1.07169-.08917m-.54365-13.836997c.026.411124.4132.544.663.369837l1.62958 1.916494c-.21198.218572-.14329.622065.25847.713656.4302-.02186.56308-.446857.35179-.695267-.13912-.163755-.37747-.190124-.55024-.06939l-1.62958-1.916494c.14641-.151265.1589-.390654.0194-.554411-.21094-.248407-.6519-.185266-.74246.235574m3.1381 18.335765c.67063-.01943.90829-.642532.63871-1.058859l3.20989-2.54723c.34417.357347 1.00474.26749 1.17613-.381289-.0114-.701513-.69631-.941247-1.11229-.611308-.27409.217532-.33029.60437-.14363.891983l-3.20989 2.547579c-.238-.247368-.62762-.280329-.9017-.06279-.41563.329939-.33757 1.051576.34278 1.221921"/><path d="M56.59793 23.8643407c.29663-.754591-.28276-1.314552-.87325-1.212206l-1.30623-4.776319c.56031-.212673.77402-.989473.13427-1.488025-.78443-.320224-1.37631.327165-1.20701.945758.11137.408002.51452.65398.92286.583205l1.30658 4.775973c-.38753.147102-.60957.564125-.49786.972126.16931.618593 1.00821.874288 1.52064.199488m1.24447-8.583982c.37643.132532.64149-.162019.58078-.450675l2.32519-.727183c.11449.271653.50028.362896.73377.03955.14364-.391348-.18491-.670982-.48606-.576613-.19879.06209-.31259.264713-.27061.464204l-2.32519.727185c-.0791-.18804-.28796-.289694-.48676-.227591-.30114.09436-.41216.511042-.0711.751122m-11.01568.05482c.48572.402103 1.03978.109286 1.10708-.351797l3.84583.19047c.0215.465592.54365.811494 1.06684.459347.42673-.502366.0916-1.096329-.40661-1.120962-.32856-.01632-.60784.222043-.65433.54088l-3.84583-.190123c-.0146-.32196-.26922-.586674-.59778-.602981-.49785-.02465-.8899.533245-.5152 1.075166m6.12175 9.98319c-.29768.306001-.13045.695616.17694.766392l-.33896 2.584354c-.31537-.01075-.57731.322654-.36845.694918.31537.315368.73447.121776.77853-.213019.0288-.220654-.11657-.422227-.32925-.471144l.33897-2.584355c.21822.0077.41077-.149532.43957-.370532.0441-.334797-.31086-.629695-.69735-.406614m-1.11923 2.94205c.48572-.554062.16237-1.210472-.374-1.304492l.35041-4.484545c.54435-.0097.96553-.608184.5721-1.230595-.57245-.514859-1.27708-.143287-1.32253.437491-.0298.383021.23904.717124.60992.78235l-.35041 4.484195c-.37643.0066-.69388.294898-.72406.67792-.0455.580777.59326 1.057127 1.23857.637676"/><path d="M53.93378 18.8663297c-.75876.14953-.91072.902736-.52492 1.324614l-3.16444 3.505134c-.459-.340697-1.19278-.113104-1.26425.657103.14606.79484.97039.937431 1.38013.483285.27026-.299407.26055-.74939-.006-1.041165l3.16444-3.50513c.31745.235571.76639.199489 1.03666-.09992.41008-.454146.18422-1.259391-.62137-1.323922m-8.48308-14.499653c.25986.314327.64705.19602.74593-.08882l2.41921.588412c-.043.298367.24667.581469.62171.421532.33168-.267145.19117-.68486-.12212-.761188-.20643-.0503-.41286.06696-.48121.264022l-2.41921-.588409c.0298-.206431-.0996-.405573-.30635-.455533-.31328-.07633-.63004.230367-.45796.619983m12.38992 20.682116c-.31745-.526306-.92148-.435408-1.13207-.03261l-3.47738-1.413778c.13045-.435409-.23904-.92182-.83369-.76639-.55406.324736-.43715.979063.0132 1.162247.29698.120735.63073-.0087.77645-.28692l3.47703 1.413433c-.0899.301145.059.626921.35596.747657.45032.182835.99086-.204001.82051-.823638m.67216-9.3809c-.71192.269224-.73621 1.025207-.29282 1.371452l-2.49866 3.919379c-.50098-.255696-1.17613.08534-1.11958.84445.272.747657 1.09494.751472 1.41864.243552.21337-.334796.13045-.770206-.17624-1.009595l2.49865-3.919377c.3466.17694.77645.06835.98982-.266449.3237-.50792-.0271-1.252455-.81981-1.183412m-7.00264 5.235667c.21164-.531858-.19567-.928757-.61269-.85833l-.9076-3.374681c.39621-.148492.54921-.695962.0992-1.049842-.55268-.228285-.97247.226899-.85486.663697.0777.288307.36151.463165.64982.414593l.90759 3.374684c-.27374.102692-.43159.396203-.35388.684511.11727.437144.7088.619981 1.07239.145368m10.84777.120735c.007.398634.37573.544002.62484.386491l1.49184 1.923779c-.21476.202268-.16549.595003.21892.701166.41632-.0021.56343-.407306.37018-.65641-.12733-.164447-.35665-.200184-.52908-.09125l-1.49184-1.923779c.14849-.139818.17069-.37088.0434-.53533-.19325-.249101-.62241-.207469-.72823.195328m-8.59752-11.965953c.0108-.577654-.51485-.808022-.884-.593267l-2.0577-2.866068c.32161-.281021.27166-.853125-.27928-1.027288-.60368-.01907-.83821.559961-.57176.931184.1759.244942.50584.309124.76118.160635l2.0577 2.866068c-.22238.194287-.26714.527695-.0912.772636.26645.371225.89025.334103 1.06511-.2439"/><path d="M61.36453 11.4529197c-.33827.645654.12559 1.202147.66335 1.168146l.70568 4.395379c-.52145.135655-.78756.809412-.26437 1.316637.67029.362205 1.26216-.158896 1.17057-.728225-.0604-.37539-.39655-.634207-.76847-.610615l-.70567-4.395379c.36047-.09402.59916-.445125.53879-.820513-.0916-.569327-.81635-.879145-1.33988-.32543m-15.33161-.821552c.41251-.01249.55823-.39586.39204-.651553l1.9727-1.568168c.21198.219612.61825.163754.72302-.235225-.007-.431246-.42881-.578696-.68416-.375391-.16861.13392-.20296.371922-.0878.548861l-1.9727 1.568166c-.14676-.15196-.38615-.172081-.55476-.03816-.25535.203306-.20712.647041.21163.751472m17.22487 11.240848c-.30531.473918.0128.934655.42951.945756l.23731 3.434009c-.41113.06835-.66301.568635-.29525.995718.49127.325776.98288-.03435.95235-.479123-.0205-.293511-.26159-.516247-.54955-.523881l-.23731-3.434009c.28414-.04719.49231-.301142.47218-.594653-.0309-.444431-.56759-.733778-1.00924-.343817m-13.17434-.0739c-.39343-.118654-.65191.197061-.57593.490918l-2.3578.857289c-.13045-.274082-.53151-.349715-.75702-.0062-.12906.409388.22204.681387.5277.570369.20122-.07321.30877-.28692.25638-.490226l2.35746-.857289c.0902.189429.31016.284144.51139.21094.30531-.111021.40002-.545043.0378-.775756m6.38369-2.069844c-.73031-.01595-1.02312.648085-.75286 1.115758l-3.63072 2.591292c-.35423-.407652-1.07725-.346245-1.29964.349369-.0264.76292.70498 1.061982 1.17509.726146.31016-.221348.39273-.638717.20573-.961717l3.63073-2.591294c.24494.281716.66647.339307.97663.117961.47011-.335492.425-1.124433-.30496-1.347515"/><path d="M60.74594 14.1881937c-.0194.669941.58772.943328 1.01861.698389l2.35364 3.348316c-.37643.322654-.32508.98635.3119 1.195206.69978.02914.97907-.639755.6741-1.07343-.20122-.286226-.58355-.364633-.88122-.195328l-2.35364-3.348662c.2602-.222736.31606-.609225.11484-.895105-.30462-.433675-1.02868-.397939-1.23823.270614m2.63293 6.588039c.0347-.717473-.61027-1.022779-1.07691-.769166l-2.45217-3.635235c.40974-.337572.36811-1.04984-.30981-1.286453-.74905-.0458-1.06199.66543-.74419 1.136229.20955.31051.61755.402449.93986.226899l2.45252 3.635581c-.28345.233144-.35111.646001-.14155.956513.31779.470797 1.0939.447204 1.33225-.264368m.0708 1.95674c-.21128-.406614-.66508-.367758-.84063-.07806l-2.51948-1.217066c.11761-.317795-.13392-.697-.5839-.609919-.42743.215449-.37157.707757-.0454.865268.21545.104083.46975.0236.59118-.176592l2.51948 1.217063c-.0812.219614.0139.469064.22898.573146.32647.157509.74696-.104777.64982-.573838m-10.24479-6.16894c-.28449-.266799-.63733-.107553-.69666.174508l-2.36578-.264713c.005-.287962-.30461-.521451-.6408-.32439-.28241.293511-.0985.673064.20782.707411.20227.02256.38371-.113796.42465-.308778l2.36578.264718c-.003.199142.14364.372264.3459.394816.30635.03435.56968-.294897.35909-.643572"/><path d="M59.54587 17.1604267c-.3223-.593962-.99016-.524573-1.24169-.09263l-3.74869-1.726719c.1648-.471839-.21649-1.024515-.87741-.883656-.62484.329245-.52908 1.053655-.0437 1.277432.32022.14745.69318.0222.86735-.276512l3.74833 1.726719c-.11379.326125.0333.691104.35354.838554.48536.223777 1.09841-.174511.94228-.863185m-.8271 2.518434c-.79935-.08084-1.17786.622064-.92217 1.158086l-4.20525 2.527109c-.35319-.47739-1.15149-.472878-1.45541.270959-.0947.834391.68104 1.225044 1.22573.897881.35943-.215798.48572-.666473.30878-1.037005l4.20526-2.527455c.24424.330288.70151.429859 1.06094.214063.54435-.327164.56343-1.195901-.21788-1.503638m-12.04818-6.425326c.3858-.259858.29456-.712265-.0177-.856248l.93709-2.679068c.33375.08188.68729-.21545.54782-.65849-.26645-.406615-.75633-.293511-.87742.05343-.0801.22898.0302.476.24598.575573l-.93743 2.679069c-.23071-.05655-.47079.068-.55094.296979-.12143.346941.19117.740371.6526.588757m13.97404-3.150214c-.33931.418064-.085.88886.30912.942983l-.13253 3.285867c-.39725.02185-.68868.470799-.38407.91488.43229.360123.93709.06939.95409-.356306.0114-.280676-.19429-.517288-.46698-.554411l.13253-3.285866c.27478-.01527.4989-.234531.51035-.515206.017-.425696-.46247-.755981-.92251-.431941m-10.69096 10.392927c-.11865-.400023-.53081-.444084-.73828-.21545l-2.04244-1.525149c.15994-.263673.001-.646695-.41667-.646349-.4198.118308-.45519.568637-.19047.766044.17451.130102.41598.102349.55927-.05551l2.04243 1.5248c-.11067.18249-.0687.421878.10581.551981.26437.197755.6859.03608.68035-.400367m5.37133 6.631057c.77818-.0055 1.06996-.721288.76777-1.210819l3.78685-2.870231c.38961.423265 1.15774.335836 1.37319-.411818.005-.813227-.7827-1.108819-1.27327-.737246-.32369.245284-.39863.692144-.18978 1.030757l-3.78684 2.869885c-.26923-.292817-.71991-.341389-1.04325-.0961-.49058.371919-.41876 1.210124.36533 1.425574m8.72137-10.97405c-.38753.165144-.38407.583553-.1308.765002l-1.2927 2.223536c-.28275-.130102-.64808.0739-.59986.492308.16723.40696.62241.390307.78999.102349.11032-.189778.0545-.428817-.12039-.554411l1.29235-2.223536c.19567.0902.4309.02011.54122-.169653.16758-.287962-.0434-.691799-.47981-.635595"/><path d="M62.12156 18.6234697c-.30531.243552-.19811.61686.0732.716084l-.60263 2.308886c-.28518-.0458-.56135.227245-.4139.589104.25049.322653.65329.194633.73135-.104431.0517-.197407-.0576-.396898-.24529-.465592l.60299-2.308883c.19706.03157.38995-.08917.44165-.286574.0781-.299062-.21094-.60749-.58737-.448594m-16.64721 2.962521c.65641.469755 1.33711.04649 1.38186-.548513l4.92585-.101999c.0694.592571.76709.987043 1.40337.490918.49925-.679307.0184-1.407534-.61963-1.39435-.42084.0087-.75598.337918-.78686.74939l-4.92585.102c-.0479-.409736-.39655-.724758-.81739-.716083-.63802.01319-1.08835.76049-.56135 1.418637m16.54972 2.234636c-.0735-.43055-.49682-.527346-.74072-.315368l-1.93384-1.838085c.19915-.254308.0812-.672022-.35284-.723717-.45102.07112-.54365.534634-.29316.772636.16549.157164.4198.158204.58841.01179l1.93384 1.837739c-.13773.175898-.12386.429858.0416.587022.25049.238001.70845.122124.75668-.332022m.22377.893031c-.11171.498206.30288.790677.66058.669942l1.27431 2.845599c-.32821.186307-.38615.690409.06.938819.51936.123163.82502-.336531.65987-.704981-.10894-.243205-.38337-.35735-.63073-.273735l-1.27431-2.8456c.2269-.129061.32439-.409736.21545-.652942-.1648-.36845-.71158-.446511-.96519.0229m1.04602 3.919034c-.31432-.270268-.68208-.08466-.73204.21753l-2.52607-.172429c-.008-.306697-.34763-.540532-.69596-.315369-.28657.325082-.0736.719552.25362.742105.21579.01457.40244-.138776.43679-.347634l2.52607.17243c.006.211978.16965.389266.3858.403838.32682.02256.59153-.339656.35179-.700471m-8.45631-18.109912c-.4302-.198447-.77645.120735-.73655.468717l-2.83033.601245c-.10513-.334103-.55094-.485022-.86353-.128712-.21303.446856.14467.81392.51104.736204.24181-.05135.39898-.278245.37157-.519022l2.82999-.601245c.0728.231062.30843.374695.55024.323346.36637-.07806.544-.558571.16757-.880533"/><path d="M56.63054 28.8706817c.46316.213368.83543-.130102.79276-.504797l3.04648-.648777c.1131.359429.59361.521451.92945.137734.22932-.481204-.15578-.876021-.55025-.792063-.26055.05551-.42951.299756-.39967.55892l-3.04648.648779c-.0784-.248756-.33237-.403146-.59257-.347634-.39447.08396-.58529.601594-.17972.947838m.77437-7.08208c.48294.04337.70672-.383022.54886-.704981l2.52052-1.551862c.21614.28588.69769.277899.87637-.172775.0517-.504103-.41911-.734819-.74558-.533594-.2151.132532-.28865.404878-.17937.627614l-2.52051 1.551861c-.14954-.197756-.42605-.254653-.64115-.122122-.32647.200878-.33237.725105.14086.905859m2.03723-7.266652c.43714-.58494.067-1.209431-.4708-1.26078v-4.460603c.53776-.0517.90794-.67584.4708-1.261127-.60576-.464552-1.27396-.04302-1.27396.534635 0 .381286.29177.690755.66369.726492v4.460603c-.37192.03538-.66369.345205-.66369.726145 0 .577654.6682.999532 1.27396.534635m-14.49271 5.692933c.50167.0055.69734-.452756.50826-.771247l2.47195-1.806862c.24633.277206.7421.229675.88955-.249797.0122-.523879-.49231-.72337-.81218-.489185-.21129.15439-.26472.441308-.13392.661615l-2.47195 1.806516c-.17034-.19151-.46004-.227593-.67098-.07321-.32023.233838-.28345.774719.21927.922166m4.8457 4.745441c.37123-.15057.3747-.548857.13704-.725451l1.26599-2.093779c.26679.128367.6179-.05968.57869-.458307-.15265-.389961-.58563-.381634-.74973-.110676-.10825.179022-.059.406961.10547.529431l-1.26599 2.093434c-.18457-.08847-.40939-.02602-.51763.152654-.16376.271306.0302.658839.44616.612694m5.71688-14.450732c.18075-.523532-.23072-.88886-.63109-.802125l-1.03006-3.221683c.37643-.161326.49994-.697697.0489-1.01931-.54469-.195674-.93014.262981-.79657.68035.0881.275122.37019.431245.64705.371226l1.03006 3.221682c-.26055.111714-.39968.402451-.31155.677919.13322.417023.7133.567247 1.04324.09194m-7.6854 14.962815c.29073.3629.73482.234534.85243-.08847l2.74949.712268c-.0541.339654.27166.667512.70221.491614.38302-.299062.23002-.778187-.12629-.870472-.23487-.06106-.47218.06938-.55336.292817l-2.74985-.712616c.0375-.234876-.10651-.463856-.34173-.524919-.35596-.09229-.72268.252225-.5329.699777m-3.11586 16.749564c.66404.06731.97872-.516592.76605-.961717l3.49368-2.099332c.29316.396898.95651.393084 1.20908-.224817.0788-.693186-.56586-1.017921-1.01826-.745921-.29837.17937-.4035.553369-.25674.861452l-3.49334 2.098986c-.20296-.27443-.58286-.357001-.88122-.177634-.45241.271654-.46837.993288.18075 1.248983m2.82756-3.969338c-.11727-.659879-.76778-.803858-1.13935-.476346l-2.98646-2.799112c.30253-.392389.11727-1.031798-.5492-1.106391-.69111.113798-.82815.825719-.44131 1.188269.25535.239043.64565.238002.90274.01179l2.98646 2.799111c-.20956.271305-.18527.660921.0697.899961.38684.362553 1.08835.179715 1.15739-.517288"/><path d="M46.61023 35.3463127c-.29178.271309-.15404.642532.1294.722676l-.43471 2.394579c-.29386-.02498-.55337.274081-.37573.630736.27998.308777.67965.14745.73585-.162714.0371-.204696-.0892-.398982-.28518-.454492l.43471-2.394579c.20331.01736.38996-.120386.42709-.325082.0562-.310164-.26125-.601594-.63143-.411124"/><path d="M45.423 37.1934207c.13739.521103.6682.593614.94437.306694l2.57741 2.046599c-.21683.334103-.026.834737.51278.850349.54643-.136696.60923-.716083.27547-.981146-.22031-.174857-.5329-.148491-.72406.04996l-2.57742-2.046597c.14988-.231062.10512-.541574-.11518-.716432-.33376-.26506-.884-.07285-.89337.490574"/><path d="M49.83121 38.3563617c.069-.812533-.65016-1.185838-1.19-.917307l-2.63223-4.227115c.47913-.366369.46178-1.176127-.29802-1.47276-.84827-.08291-1.23233.71088-.89164 1.25835.22482.361165.68417.482249 1.05748.296634l2.63188 4.227116c-.33133.253265-.425.718857-.20018 1.079676.34104.54747 1.22296.553021 1.52271-.244594m-21.84852-.796572c-.24009.617552.23487 1.073085.71712.987738l1.08211 3.898214c-.45727.175552-.62935.810798-.10548 1.216023.64219.259164 1.1234-.271305.98358-.776103-.0926-.333062-.42257-.5329-.75598-.473921l-1.08211-3.897868c.31641-.121428.49613-.462816.40384-.795879-.14016-.504796-.82641-.711228-1.24308-.158204m11.98711 1.442227c-.57176.208512-.59847.812879-.24737 1.09425l-2.03584 3.110314c-.39829-.209205-.94125.0569-.90343.664737.21024.600205.86839.611307 1.13206.20851.17417-.265755.11172-.614778-.13114-.809411l2.03584-3.110314c.27547.144673.62033.06211.79415-.203654.26367-.403144-.01-1.001961-.64427-.954432m1.3156-1.569556c-.65607-.364286-1.24031.09853-1.2188.652943l-4.5411.614775c-.12663-.540185-.81288-.83092-1.34855-.304959-.38962.680349.13183 1.302413.7199 1.222962.38822-.05273.663-.392389.64808-.775757l4.5411-.614778c.0874.373309.44269.627614.83057.575227.58806-.0798.92529-.817738.3688-1.370413m-24.457175 6.428795c.586328-.09159.725797-.664738.442695-1.000227l2.534048-2.592335c.341736.275125.911412.122817.989822-.465592-.0881-.61443-.71574-.748696-1.043944-.41286-.21649.221349-.222735.566901-.02707.799003l-2.534048 2.592682c-.236266-.19047-.581819-.176246-.798309.0451-.328204.335839-.179366.96033.436798 1.034228"/><path d="M32.3229 37.6576267c-.39655-.271654-.79657-.01145-.816.343121l-2.93095.119695c-.0486-.352143-.46871-.578696-.84133-.275468-.289.410428.006.837859.38545.822593.25049-.01041.44582-.210245.45935-.455533l2.93095-.119346c.0336.243204.24459.426387.49508.416328.37955-.01561.63872-.465595.31745-.85139m-10.68991 4.15946c.43125-.693185-.0406-1.353065-.64392-1.359657l-.424649-4.968178c.593959-.108592.946799-.838901.404179-1.449167-.718855-.459695-1.422796.0732-1.367632.716779.03608.424654.390653.741409.808022.745918l.42431 4.96818c-.41078.07494-.706023.447552-.669944.871858.05516.643574.839254 1.049494 1.469634.474267"/><path d="M21.9494 38.4486497c.49509-.663002.0756-1.370067-.53324-1.428353v-5.053178c.60888-.05863 1.02833-.765694.53324-1.428696-.68624-.526308-1.442919-.04857-1.442919.605757 0 .43194.330289.782347.751469.822939v5.053178c-.42118.04024-.751469.391002-.751469.822596 0 .654326.756679 1.132062 1.442919.605757m18.08007-.588412c-.19532.458655.15127.812534.5159.759452l.72199 2.956273c-.34799.121429-.49231.595002-.1079.912107.47669.209897.85104-.177634.75771-.560656-.0618-.252573-.3053-.410429-.55753-.374001l-.72163-2.956275c.24043-.08361.38371-.336184.32196-.588755-.0933-.382676-.60437-.554065-.9305-.148145"/><path d="M43.80661 38.1329327c-.58529-.448593-1.21984-.08292-1.27848.459001l-4.50154-.05516c-.0454-.543308-.67098-.924594-1.26702-.490572-.47635.60541-.059 1.285066.52388 1.292003.38475.0048.70047-.285878.7414-.660573l4.50155.05551c.0316.37539.34.673757.72476.678614.5832.007 1.01688-.661961.55545-1.27882m.23696-1.023818c.0264.433674.43402.574879.69804.39204l1.71215 2.025435c-.22447.230021-.153.65537.27026.753553.45345-.02152.59501-.469409.37331-.732042-.14641-.172776-.39759-.201573-.58008-.07494l-1.7125-2.025781c.15543-.158899.16896-.411472.0226-.584594-.22169-.262286-.68694-.197409-.78374.246328m-18.60538-.480168c.086.555105.62831.687635.9461.420145l2.45009 2.40117c-.26124.323-.11761.862493.43923.937432.58112-.08257.70914-.676533.39169-.987391-.2092-.205388-.53637-.211633-.75598-.02672l-2.44974-2.40117c.18041-.223427.16757-.550245-.042-.755285-.3171-.310859-.90829-.171044-.97941.411815m-9.881886-1.819347c-.257082.344165-.03955.710879.276513.741412v2.621824c-.316064.03053-.533595.397592-.276513.741409.355961.27304.748695.02531.748695-.314328 0-.224121-.171386-.405919-.389958-.427081v-2.621825c.218572-.02115.389958-.20296.389958-.427085 0-.339653-.392734-.587368-.748695-.314327"/><path d="M30.67702 32.8983057c.18596.825371 1.0141.96935 1.46408.534982l3.92667 3.358029c-.35943.512083-.0885 1.307617.75563 1.363473.86492-.18353.99676-1.089043.48815-1.523759-.33549-.286918-.82745-.262979-1.13866.03713l-3.92666-3.357683c.24875-.354225.19567-.843758-.13982-1.130675-.50826-.435063-1.38255-.16445-1.42939.71851"/><path d="M36.63883 39.2906727c.82988.03157 1.17509-.717819.87637-1.254188l4.17473-2.878906c.39516.469755 1.2181.413551 1.48351-.373308.0441-.867002-.78165-1.21984-1.32218-.847227-.35666.24598-.45831.718861-.25154 1.089738l-4.17472 2.878906c-.27339-.325082-.75113-.398288-1.10778-.152306-.54088.37296-.50411 1.270146.32161 1.537291m15.63102-15.032902c-.65016.389267-.54087 1.133801-.0454 1.395392l-1.75794 4.279154c-.53638-.162367-1.13727.290389-.94854 1.024167.39794.684513 1.20492.543307 1.43252-.01075.15022-.365673-.008-.777492-.35007-.958248l1.75795-4.2795c.37053.112408.77263-.06939.92286-.435062.22759-.554411-.24702-1.222271-1.01133-1.015148m1.02972 13.460562c.49993-.129757.57141-.638022.29767-.904126l1.97131-2.46223c.31953.208856.7997.0281.81704-.488144-.12906-.524227-.68416-.586676-.93951-.267839-.16861.210245-.14433.510001.0451.694226l-1.97131 2.462233c-.221-.144675-.51867-.102695-.68729.107898-.255.318837-.0728.846878.46699.857982M47.0446 8.4976887c-.48468-.09819-.7598.309123-.6356.653285l-2.73076 1.292006c-.187-.313982-.67653-.359778-.90794.07737-.10929.505492.34243.79241.69631.624838.23314-.110327.33826-.37851.25222-.616511l2.73076-1.292351c.12941.217185.40349.306349.63664.196022.35388-.167572.41841-.698738-.0416-.934655M8.134957 27.7344557c.230021.377123.663697.309816.81392.01978l2.503517 1.005084c-.09194.313286.174858.661961.601942.548165.397245-.235225.311206-.70533-.01319-.835431-.214063-.0857-.453451.0084-.557185.208858l-2.503865-1.005085c.06384-.216491-.04406-.44998-.258122-.536022-.32439-.130103-.711575.149878-.587022.594656M45.46359 3.4455517c-.60923-.394819-1.20388.01387-1.21915.550593l-4.42348.296284c-.0867-.529776-.73031-.855204-1.28159-.382672-.42049.631428.042 1.265637.61477 1.227472.37817-.02531.66544-.335144.67619-.70637l4.42348-.296285c.06.366369.38649.6349.76431.609571.5728-.03851.94645-.728919.44547-1.298593m-22.81823 23.015288c-.4812.69943-.0229 1.407533.60403 1.443269l.20261 5.181199c-.62206.0843-1.02382.826062-.48919 1.485941.72441.512432 1.48144-.008 1.45507-.67896-.0174-.442694-.37019-.788941-.80386-.813575l-.20261-5.181198c.4302-.05829.75494-.430899.73759-.873594-.026-.670982-.8212-1.130329-1.50364-.563082m-3.337903-17.855947c-.47496.09056-.573146.561002-.333408.826411l-1.993169 2.179475c-.285879-.215104-.745576-.07529-.793453.40592.08847.497511.603329.590144.861452.307733.17-.185957.165837-.467674.00026-.651204l1.99317-2.179475c.197409.148836.47843.128021.648429-.05829.258124-.282411.120389-.78686-.383367-.830574m19.512669 3.517623c-.75355.221348-.83751.996758-.40835 1.387761l-2.87613 3.835765c-.49543-.302183-1.21637-.0041-1.21741.78131.221.789982 1.06754.85798 1.44015.361163.24563-.327512.19428-.782004-.10235-1.052268l2.87578-3.835768c.34278.208859.79311.130797 1.03874-.197061.37262-.496816.0701-1.28992-.75043-1.280902m-1.4287-1.242044c.4309-.316062.30531-.83196-.06-.982879l.9534-3.120725c.38683.07876.77957-.278939.59847-.781655-.32439-.454489-.88192-.302184-1.00544.102-.0812.26645.0566.54539.30913.64982l-.95305 3.120722c-.26783-.05446-.5381.09992-.61963.366369-.12316.404184.25396.842023.77714.646349"/><path d="M19.388987 25.2208777c.300796.377817.762229.245979.885391-.08917l2.851842.748349c-.0572.352492.27998.69388.72754.51243.39863-.309124.24112-.806981-.12837-.904123-.24355-.06384-.49058.07078-.57557.302529l-2.852198-.748695c.03956-.243551-.109286-.4819-.352838-.546085-.36949-.09679-.751122.259513-.555797.72476m16.587883 8.465329c-.27269-.431594-.77264-.345898-.94055-.008l-2.91083-1.115081c.10062-.363592-.21406-.761534-.70532-.62241-.4545.279286-.34625.820511.0305.96484.24876.0954.52388-.01769.64011-.251184l2.91082 1.114718c-.0697.251529.0593.519368.30808.614429.37678.144673.81913-.185961.66717-.697349m-1.29339-32.403818c-.58772.158553-.66613.758065-.34035 1.068575l-2.29535 2.922967c-.37886-.242858-.94264-.02428-.95721.584247.15786.616166.81254.68347 1.10986.304961.19602-.249797.1641-.602635-.0611-.817392l2.295-2.922967c.26229.167919.6127.115185.80872-.134611.29733-.378512.0763-.998841-.55961-1.00578m13.12022 12.354178c-.62207-.14745-.99433.366714-.84896.816348l-3.58112 1.55117c-.22828-.4139-.85798-.494043-1.17577.06037-.16237.648081.40834 1.037696.8722.836818.306-.132533.45276-.474267.35214-.785126l3.58112-1.551167c.1582.286225.50792.41251.81392.280326.46386-.200877.57002-.884001-.0135-1.208737m-34.771312-8.240134c.40592.655716 1.162249.533246 1.420718.02498l4.382543 1.723943c-.157163.548166.312939 1.153228 1.057124.949923.690412-.415633.53429-1.235107-.03331-1.458188-.374347-.147451-.791024.01978-.970044.371226l-4.382195-1.723946c.108591-.379204-.08293-.785469-.457266-.932574-.567593-.223427-1.239962.269921-1.017575 1.044637m-1.569556 26.893034c.513473.154736.851045-.257428.751472-.641144l3.076662-1.119576c.170348.358042.69388.456574.987737.0084.168612-.534632-.290043-.889551-.688328-.744531-.26298.09576-.403145.374694-.334451.640103l-3.076659 1.119576c-.117613-.247716-.404533-.371227-.667166-.275472-.398633.14502-.521798.711575-.04927 1.012717m31.395276-20.46709c.41633-.557184.0638-1.151492-.44789-1.20076v-4.246887c.51173-.04926.86422-.643573.44789-1.20076-.57661-.442349-1.21255-.04094-1.21255.509309 0 .362551.27755.657449.63143.691451v4.246887c-.35388.034-.63143.3289-.63143.691453 0 .550245.63594.951656 1.21255.509307m-29.286568-4.175767c.203309.670983.896491.740369 1.242738.354225l3.44754 2.54064c-.266102.444779.0055 1.086615.706716 1.08176.704288-.203309.758757-.959984.312245-1.288884-.294551-.217182-.700122-.167917-.939164.09923l-3.447888-2.540641c.184225-.307736.111021-.709492-.183531-.926329-.446511-.329248-1.152879-.05309-1.138656.680001"/><path d="M13.128462 31.8390987c-.3799.153694-.383716.561002-.14086.741758l-1.296165 2.14027c-.273042-.131489-.632124.06036-.592227.468369.155429.398982.598472.390656.766389.113449.110676-.182836.06072-.415978-.107204-.541226l1.296168-2.14027c.188735.0909.418756.02741.529429-.155429.167921-.277206-.02984-.673758-.45553-.626921m16.387348.508614c-.66022.12698-.79518.780961-.46143 1.149065l-2.76441 3.033293c-.3976-.29802-1.03631-.103041-1.10154.56586.12386.69145.8396.81843 1.19764.425695.23592-.259164.22932-.650512-.001-.905167l2.76442-3.032947c.27512.206082.66508.176247.90135-.08257.35804-.393084.16514-1.093901-.53464-1.153228m11.99778-1.465127c-.3792-.190122-.69839.08534-.67306.398287l-2.5507.455879c-.0847-.302183-.47947-.449979-.76951-.140165-.20366.393779.10581.732737.4361.67376.21788-.03886.36498-.237656.34764-.453798l2.55104-.455879c.0583.208857.26506.344163.48294.305307.33064-.05933.50341-.484327.17555-.783391m5.44627-1.695495c-.0257.746962.65016 1.055045 1.13171.784432l2.60587 3.747295c-.42153.35735-.36811 1.098065.34104 1.33433.78061.03643 1.09529-.708102.75806-1.19347-.22273-.31988-.64878-.409737-.98184-.22239l-2.60586-3.747295c.29177-.247369.35596-.677574.13322-.997799-.33757-.485369-1.1449-.449289-1.3822.294897m-22.85362.289348c-.49127-.367061-1.01584-.05621-1.05886.395165h-3.746602c-.04337-.45137-.567595-.762226-1.058861-.395165-.390307.508614-.03643 1.069962.448942 1.069962.319877 0 .580081-.245284.609919-.55753h3.746602c.0298.312246.2897.55753.60992.55753.48502 0 .83925-.561348.44894-1.069962m7.76416-3.386478c-.14467.365674.136.637674.42223.58841l.62935 2.316864c-.272.102695-.37608.479123-.0666.721287.38025.156122.66751-.157164.58633-.457266-.0538-.197755-.2491-.317449-.44721-.283451l-.62935-2.316864c.18804-.07112.29594-.27304.24217-.471142-.0812-.299756-.4878-.424654-.7369-.09783"/><path d="M46.19251 36.6580917c.66647.200186 1.10396-.335144.97456-.833001l3.99223-1.457148c.22169.464206.90135.591881 1.28194.0093.21823-.69388-.37747-1.153923-.89441-.965186-.34104.124204-.52284.48641-.43333.83092l-3.99188 1.456802c-.15335-.320921-.52562-.480859-.86666-.35631-.51694.188737-.67619.924248-.0624 1.314555"/><path d="M52.16369 34.9546187c.37435.12455.63143-.171389.56621-.455879l2.28668-.759105c.11796.266799.50098.35041.72649.02671.1353-.389612-.19464-.660574-.49092-.562043-.19533.06488-.30427.267145-.25951.46386l-2.28633.759103c-.0819-.184571-.29005-.281367-.48538-.21649-.29628.09818-.39863.512429-.0572.743839M35.32671 8.2072997c.18769.579041.79067.627265 1.08418.286225l3.03538 2.145474c-.22343.390654.0232.942637.63178.926676.60749-.188735.64184-.846186.24875-1.124085-.25951-.183184-.61027-.133571-.81357.102349l-3.03503-2.145478c.15439-.269918.0839-.617205-.17521-.800735-.39308-.277899-1.00126-.02602-.97628.609574m-23.601621 28.915692c.184574-.50792-.211286-.87082-.603327-.792409l-.954431-3.159928c.369837-.151613.498552-.672718.06384-.993982-.528736-.199492-.911758.242162-.7879.651552.08153.269918.354225.426737.625186.372265l.954432 3.159928c-.255696.104776-.396206.386492-.314676.65641.123857.409042.687289.56482 1.01688.106164"/><path d="M36.8522 9.4961797c.45449.486757 1.07482.255347 1.20804-.218572l4.00334.720593c-.0406.49092.46004.923902 1.05574.626228.5152-.468715.24459-1.13623-.27408-1.229554-.34209-.06176-.66682.150224-.75911.478082l-4.00334-.720942c.0278-.339307-.20261-.651204-.54469-.712962-.51868-.09333-1.00508.438186-.6859 1.057127m-20.657138.140857c-.462819-.345898-.956514-.05309-.997454.371921h-3.527334c-.0406-.425003-.534288-.717819-.997105-.371921-.367409.478776-.034 1.007167.422919 1.007167.301143 0 .546084-.230716.574186-.524573h3.527334c.02845.293857.273043.524573.574532.524573.45692 0 .79033-.528391.422922-1.007167M26.2924 6.6335807c.43089.162368.74383-.171043.68104-.505492l2.70023-.781309c.12525.316408.56794.431248.84584.06418.1752-.448248-.19706-.778879-.54678-.677574-.23071.06661-.36706.297674-.32369.528736l-2.70023.78131c-.0864-.218921-.32509-.341043-.5558-.27443-.34972.101305-.4878.579389-.10061.864574m24.00406 27.81277c-.20539-.460734-.70672-.447898-.91904-.140857l-2.69087-1.502942c.15023-.341735-.10165-.775411-.60194-.708798-.48432.208509-.45518.753899-.10651.948531.22968.12837.51486.05655.66162-.155773l2.69051 1.503289c-.10373.236266-.0153.516592.21476.644962.34833.194633.8278-.06627.75147-.588412m-6.69281.415636c.58112-.301492.52596-.949227.1124-1.200413l1.73956-3.597418c.45345.168267.99572-.190816.87117-.83335-.30704-.610961-1.01029-.531164-1.2358-.06558-.14849.307391-.034.670983.25188.844454l-1.73956 3.597416c-.31363-.116225-.66959.01944-.81808.326818-.22552.465941.14883 1.066494.81843.928065m-7.87449 1.739209c.33965.343816.78443.163059.87151-.183534l2.91811.440616c-.0194.356653.35249.660572.77853.432286.36359-.35041.15369-.828838-.22412-.886083-.24945-.03747-.48051.122817-.54053.362551l-2.91811-.440603c.0132-.246673-.16064-.468023-.40974-.505837-.37817-.0569-.7199.338612-.47565.780614m3.01733-30.025208c.35978.268531.74349.04094.77506-.289349h2.74187c.0316.330289.41529.55788.77506.289349.28553-.372265.0264-.783043-.3289-.783043-.23418 0-.4243.179367-.44616.408001h-2.74187c-.0219-.228634-.21198-.408001-.44616-.408001-.35527 0-.61443.410778-.3289.783043m-6.87461 13.84359c-.1367.715043.46698 1.112983.97143.924943l1.94391 3.996397c-.45935.280675-.51903 1.001268.12802 1.335025.74522.152306 1.15981-.516595.90794-1.034228-.16584-.341389-.56239-.491613-.91072-.361511l-1.94425-3.996746c.3178-.193938.44408-.598471.2779-.93986-.25153-.517633-1.03388-.60437-1.37423.07598"/><path d="M46.31672 8.4432167c-.29317-.749736-1.09252-.766735-1.45368-.293857l-4.17369-2.596149c.26437-.5329-.10408-1.242738-.9062-1.174393-.78721.296287-.78166 1.166758-.24113 1.502942.35666.222044.81601.129063 1.0658-.197755l4.17369 2.596152c-.18284.36845-.0632.821553.29351 1.043593.54053.336184 1.32392-.04337 1.2417-.880533m-16.60281 27.631324c.31988.23904.66127.03643.68937-.257431h2.43934c.0281.29386.36949.496471.68971.257431.25396-.33133.0232-.696657-.29247-.696657-.20851 0-.37781.159594-.39724.3629h-2.43934c-.0194-.203306-.18873-.3629-.3969-.3629-.31606 0-.54677.365327-.29247.696657m17.91458-2.433435c.41703-.422227.18874-.965535-.23799-1.067189l.49785-3.589437c.43819.0184.80594-.442697.51937-.962412-.43575-.441653-1.02035-.176593-1.08488.288307-.0423.306696.15786.588064.4531.658493l-.49785 3.589436c-.30323-.01282-.57245.203655-.61478.510351-.0645.464898.42604.878797.96518.572451m-18.69207-8.06878c-.47079.167572-.49682.66335-.21024.896494l-1.69064 2.539599c-.32543-.174511-.77298.04059-.74557.53949.16861.49439.70879.507226.92771.178326.14433-.216836.0958-.503756-.10234-.664734l1.69029-2.539948c.22551.120735.50861.05516.65328-.162019.21892-.328899-.002-.822248-.52249-.787208m-.60888-1.83982c-.58147.07771-.73204.640796-.45969.97837l-2.56146 2.504212c-.33133-.279635-.89788-.141901-.98843.437835.0732.608534.69041.755635 1.02243.431248.21857-.214062.2328-.555451.0444-.788941l2.56146-2.504211c.22898.193244.57072.186999.78929-.02671.33202-.32439.19879-.944718-.408-1.031798m-11.590218 5.111463c-.51035.525265-.223084 1.193821.30496 1.314901l-.577655 4.435277c-.541225-.0184-.990167.554411-.631084 1.192779.542266.540534 1.261127.207818 1.335719-.366714.04926-.378858-.200532-.724411-.565514-.808022l.577309-4.43528c.374349.01249.704289-.257429.753554-.636287.07494-.574532-.534636-1.08037-1.197289-.696654m-9.656026 1.148024c.105815.570369.669593.690409.989124.404879l2.602743 2.402557c-.259513.341388-.09472.893717.482246.953736.597083-.103041.711225-.719898.374-1.031103-.222387-.20539-.559961-.201918-.781307-.0041l-2.602397-2.402559c.17937-.236267.156123-.573143-.06627-.778533-.337225-.311205-.942982-.148488-.998145.455187m30.82248 1.061286c.5898-.240429.59361-.872898.21545-1.153227l2.00461-3.331314c.42466.20296.98184-.0968.91801-.730309-.24321-.619288-.93188-.604716-1.19139-.173122-.17139.284489-.0926.647041.16896.840633l-2.00462 3.331316c-.29351-.140164-.65051-.04024-.8219.244247-.25951.431591.05 1.046715.71088.971776m15.92522-4.459561c-.68381.171386-.7872.864225-.41632 1.230248l-2.71898 3.338253c-.43368-.289001-1.09111-.04753-1.12062.656758.17001.716778.92703.80837 1.27917.376081.2321-.285184.20261-.694572-.0538-.947837l2.71862-3.337908c.29975.199838.70671.146061.93916-.139124.35214-.432286.10929-1.155309-.62727-1.176471"/><path d="M48.3706 4.4627777c-.7036-.302532-1.24898.227939-1.16988.788595l-4.54699 1.093206c-.18423-.535327-.91141-.759797-1.4006-.170694-.32543.731001.26819 1.308656.85694 1.167105.38857-.09333.63247-.466633.578-.854164l4.54665-1.09321c.12767.370186.51451.591881.90308.498553.58876-.141552.85486-.92598.2328-1.429391m-24.67644 8.999964c.81809-.08673 1.05054-.870124.68209-1.353759l3.68554-3.412847c.45379.404878 1.2528.233143 1.40198-.575919-.0794-.855899-.93916-1.085228-1.41655-.643226-.31468.291429-.34729.769511-.0923 1.103963l-3.68554 3.412846c-.31398-.27998-.79276-.284144-1.10778.0073-.47739.441999-.31467 1.316635.53255 1.461655m21.79753 12.396504c-.25014.368104-.008.737595.32092.754248l.12282 2.714108c-.32543.04614-.53359.436452-.25153.780268.38128.266104.77645-.0087.76049-.360469-.0104-.231757-.19671-.412164-.42396-.423614l-.12282-2.71411c.22517-.03192.39447-.228285.38372-.460389-.016-.35145-.43402-.589798-.78964-.290042"/><path d="M50.49769 4.9755557c-.70672-.270613-1.2247.274777-1.12444.82537l-4.44707 1.259391c-.2033-.521105-.93015-.714002-1.39019-.113103-.29247.735164.31676 1.282289.89268 1.119226.3799-.10755.6061-.486063.53672-.866653l4.44741-1.25974c.14052.360818.53152.564124.91142.456574.57592-.163063.80802-.948187.17347-1.421065m-.45033 20.580465c-.74211.227245-.81635.994675-.38788 1.37631l-2.79946 3.824315c-.493-.293162-1.20214.0097-1.19451.785819.22759.778533 1.06476.836126 1.42731.341042.23939-.326816.18353-.77541-.11276-1.039083l2.79946-3.824318c.34104.202613.78513.120389 1.02451-.206429.36255-.495084.0545-1.276044-.75667-1.257656m-23.78168 5.75469c-.23106.309123-.0354.639063.24876.66647v2.357456c-.28415.02741-.47982.357348-.24876.666471.32023.245633.67341.02289.67341-.282409 0-.201572-.15439-.364981-.35076-.384062v-2.357456c.19637-.01907.35076-.182489.35076-.384062 0-.305306-.35318-.528041-.67341-.282408"/><path d="M26.32536 32.8261437c.31744-.301837.16132-.708452-.15127-.793104l.44929-2.638132c.323.0236.60506-.308428.40522-.698389-.3112-.335838-.74904-.153695-.80698.188042-.0385.225163.10269.437837.31918.496123l-.44928 2.638477c-.22343-.01632-.42743.137042-.4656.362553-.0583.341735.29421.65849.69944.44443m-12.675797-20.002465c-.174162-.470104-.671673-.489879-.902041-.199143l-2.570131-1.66427c.170694-.329247-.05065-.77541-.55094-.741757-.493695.175552-.49994.717819-.167225.933269.219612.142243.506878.08986.666124-.111022l2.570131 1.663924c-.118308.22759-.04892.511388.170694.653286.333063.215798.825022-.01179.783388-.534287m21.917917-9.822906c-.26541.545738.13392.997454.58043.955821l.69492 3.640437c-.4309.125939-.63559.69284-.18769 1.102228.56655.285184 1.04602-.16306.95616-.634551-.0593-.311206-.34555-.518328-.65467-.489534l-.69457-3.640092c.29767-.08708.48779-.385102.42846-.696308-.0902-.471145-.70081-.711225-1.12304-.238001m-18.796846 4.336748c.23904.372613.671675.295247.815308.0011l2.530926.948881c-.085.31606.19047.658838.615472.534982.39239-.244594.29524-.71331-.0326-.836128-.216147-.08118-.4538.0184-.553026.221695l-2.530934-.94855c.05898-.218572-.05482-.44998-.270963-.530818-.327858-.123162-.709143.166185-.574183.608879m14.201286-5.685995c-.36533.249796-.27547.680349.0226.815307l-.87464 2.556906c-.31814-.07598-.65294.209204-.51694.63039.25604.385103.72164.274427.83509-.05655.0746-.218572-.0319-.453102-.23801-.54643l.87464-2.556944c.21996.05239.4479-.06801.52284-.286226.1131-.331329-.187-.703942-.62553-.556492"/><path d="M26.70144 30.0953797c-.74592.153347-.88956.896146-.50619 1.308656l-3.08811 3.476337c-.45484-.332021-1.17543-.101652-1.23996.657105.15022.781307.9631.915227 1.36278.464897.26402-.296979.25084-.740022-.0142-1.025206l3.08811-3.476336c.31467.229329.75633.190123 1.02-.106856.40002-.449983.17139-1.241352-.62241-1.298597m5.69537 2.899377c.50098-.38788.33584-.995373-.10165-1.162944l1.03214-3.728561c.46143.08153.91523-.354573.68521-.945064-.39898-.52839-1.0547-.330634-1.18862.152306-.0881.318491.0843.644616.3865.760493l-1.0318 3.72856c-.31919-.0562-.63456.134961-.72268.453798-.13357.482593.32716.989819.9409.741412m3.85207-10.486601c-.19047-.594307-.80837-.646697-1.1109-.298022l-3.10338-2.212782c.23107-.399675-.0198-.966922-.64357-.953042-.6238.190816-.66196.864921-.25986 1.151492.26507.188735.62519.13947.83439-.101306l3.10303 2.212782c-.15959.276163-.0888.632819.17625.821899.4021.286571 1.02659.03088 1.00404-.621021m-4.55705-18.522073c.31294.596735.97976.537063 1.23649.110327l3.71191 1.775292c-.17104.468019.20088 1.024512.8618.893369.62796-.318837.54296-1.042556.0621-1.272576-.3171-.151611-.69075-.03227-.86839.26298l-3.71156-1.77529c.1183-.323696-.0232-.689369-.34035-.841329-.48086-.229675-1.09737.158205-.952.847227m9.2966 27.333995c-.1367.466979.23973.770553.58702.677574l1.0377 2.783842c-.3237.157165-.4094.632819-.00027.896495.48607.149183.80491-.269572.67064-.630044-.0888-.237653-.34278-.363247-.58321-.299062l-1.03734-2.783846c.22342-.10859.33375-.36949.24493-.607489-.13426-.360472-.64947-.468369-.91939-.03747m17.55298-1.509536c-.47322-.653286-1.2528-.468369-1.48386.08118l-4.70138-1.467206c.12213-.583553-.4139-1.178902-1.17439-.910717-.68902.485714-.4642 1.328431.14468 1.518556.40175.125244.82363-.08049.98357-.460391l4.70138 1.466863c-.0847.403489.14571.81288.54747.938124.60888.190124 1.27292-.375389.98253-1.166412"/><path d="M41.80997 3.6738367c-.58182-.434716-1.20249-.06661-1.25384.468023h-4.43528c-.0513-.534636-.67202-.902739-1.25419-.468023-.46177.602289-.0427 1.266677.53186 1.266677.37886 0 .6866-.290042.72233-.659879h4.43528c.0354.369837.34347.659879.72233.659879.57418 0 .99363-.664388.53151-1.266677m-28.646121 33.232318c.472533-.142246.522143-.63039.250838-.874288l1.792288-2.423375c.312594.188042.764656-.0024.762228-.495777-.142245-.495775-.674799-.535327-.906901-.221348-.153001.207123-.119.492308.06869.661269l-1.791943 2.423027c-.21649-.129757-.499247-.07876-.652247.128021-.232103.313978-.03886.811491.477043.802471m22.250985-20.397281c.77853-.07702 1.00439-.82086.65676-1.282984l3.52629-3.223071c.42917.387879 1.19.229674 1.33676-.538795-.0704-.814616-.88643-1.038046-1.343-.620678-.30115.275125-.33515.729615-.0947 1.049146l-3.52629 3.223072c-.29664-.268186-.75217-.275123-1.05366 0-.45657.417367-.30704 1.250369.49786 1.39331m20.1166 8.532288c-.36983.318144-.21891.778878.12421.890246l-.646 2.909091c-.35804-.0444-.69007.309123-.48954.753902.32786.390998.82433.212672.90795-.164104.0555-.24841-.0902-.492654-.32717-.569674l.646-2.908744c.24737.03053.4826-.129061.53776-.377817.0836-.376431-.29074-.74835-.75321-.5329m-28.39528-9.00586c-.55059-.417023-1.14316-.07044-1.19521.437489l-4.2174-.02706c-.0454-.508615-.63351-.862494-1.189303-.452411-.443043.569677-.04857 1.203882.497853 1.20735.36013.0024.65468-.271654.69041-.622756l4.21775.02672c.0316.351797.32231.629696.68278.631777.54608.0034.94888-.625532.51312-1.201105m4.43146-7.161878c.45831-.000781.63247-.421186.45623-.71088l2.23984-1.6778c.22829.250489.68104.20157.81045-.238001.005-.479124-.45761-.655716-.74765-.438532-.19151.143285-.23731.406266-.11519.606449l-2.24019 1.677801c-.15751-.173122-.42291-.203305-.61408-.06002-.29039.217531-.25084.711572.21059.840982m-9.28029 11.522216c-.1419-.366023-.5322-.37539-.70914-.145369l-2.032721-1.272922c.129754-.259511-.04892-.606449-.440616-.574184-.384408.143634-.383022.568288-.119694.733083.173816.10894.397942.06419.520409-.09506l2.032722 1.272923c-.0895.179713-.0319.400715.1419.509653.26333.164798.646-.01943.60714-.428123"/><path d="M31.23906 10.0679357c.19359.82086 1.02105.956166 1.46513.518328l3.94887 3.307723c-.35284.514165-.0749 1.304496.76743 1.351333.86041-.191511.98253-1.095637.47114-1.524108-.33757-.282408-.8278-.253612-1.13518.04892l-3.94853-3.307375c.2439-.355614.18631-.843413-.15126-1.126167-.51139-.428124-1.38013-.149531-1.4176.731348m8.61486 6.717796c-.38857-.146063-.67063.154734-.61373.456225l-2.43448.705676c-.1131-.285185-.51243-.388572-.76257-.05725-.15786.403839.17798.701859.49334.610615.20817-.06036.33064-.268531.29143-.477043l2.43448-.705676c.0784.197409.29351.307391.50133.247369.31537-.09159.43992-.522838.0902-.77992m.27894-12.95924c.70394.296979 1.24482-.235574 1.1619-.794146l4.52826-1.12027c.18735.5329.91418.75182 1.39816.160981.31988-.731349-.27616-1.303801-.86249-1.158432-.38683.09542-.62796.469409-.57071.8559l-4.52826 1.119922c-.12941-.36845-.51694-.587022-.90378-.491268-.58633.145023-.84688.929106-.22308 1.427313m-2.73354 26.788257c-.60714-.07182-.90482.457615-.71747.869084l-3.23383 1.866189c-.26228-.368104-.86978-.375389-1.1109.186653-.0836.633513.50168.94125.92043.699779.27652-.159594.37852-.500634.24911-.785127l3.23382-1.866188c.18145.254309.5277.336533.80421.176939.41875-.241816.44477-.902391-.14537-1.147329m-23.548533 3.859012c.344857.51347.947492.392735 1.139349-.0222l3.563419 1.251065c-.109635.444084.285184.914881.875329.729615.541226-.35353.391693-1.005431-.06974-1.167451-.304614-.106858-.633513.0392-.766392.326122l-3.563417-1.251064c.07598-.307042-.08951-.62692-.394124-.733778-.461429-.162021-.985656.253614-.784429.867698M31.17974 5.3349847c-.53846-.0087-.75148.481899-.55025.825369l-2.66554 1.925516c-.26263-.299061-.79553-.250838-.95651.262981-.0163.562735.52422.77992.86943.530469.22759-.164449.28657-.472532.14745-.709839l2.66554-1.925516c.18179.206778.49265.24737.72024.08293.34521-.24945.30878-.830574-.23036-.9919"/><path d="M30.83349 8.9258117c.13739.397246.55406.422572.75217.183183l2.12292 1.440495c-.14884.272348.0284.650165.44824.631081.41668-.138079.43194-.592225.15682-.778878-.18145-.123163-.42292-.08431-.55996.08118l-2.12292-1.440148c.10304-.188389.05-.427428-.13149-.550245-.27478-.186655-.69146-.0048-.66578.433328m15.65288 12.525565c.13947-.821899-.56135-1.263207-1.13415-1.035616l-2.32207-4.530686c.51937-.332367.57037-1.159124-.17832-1.525842-.85694-.156814-1.31594.619289-1.01549 1.205964.19845.387185.65606.549553 1.05192.392389l2.32206 4.530686c-.35908.229675-.49438.695962-.29593 1.083147.30079.586674 1.19867.667165 1.57198-.120042m-8.48892-9.027718c.0524-.5329-.41633-.784086-.77333-.612697l-1.69099-2.798763c.3178-.23592.31329-.768125-.18283-.969349-.55615-.0621-.81531.455879-.59639.81843.14432.239043.44478.322654.69145.204001l1.69098 2.798762c-.21961.163064-.28518.468024-.14085.707064.21892.362553.79796.374002 1.00196-.147448m-15.17792 18.446091c.40349-.438531.15473-.975943-.27721-1.062331l.37088-3.620315c.44062.0028.79276-.472878.48676-.984269-.4531-.427428-1.03041-.14051-1.07829.328206-.0316.309124.17937.584592.47808.644614l-.37053 3.61997c-.30496-.0019-.56725.225163-.59916.534286-.0479.469063.45934.866656.98947.539839m-.0656-11.906624c.0801-.808024-.63074-1.18931-1.17196-.9298l-2.561109-4.245153c.481899-.357696.476-1.164331-.276166-1.469986-.84341-.09436-1.236839.690412-.905165 1.240311.218919.362551.674103.489531 1.048452.310163l2.561108 4.244808c-.33306.247369-.43298.709492-.21441 1.072044.33202.5499 1.20978.567595 1.51925-.222387m-10.833884 9.350372c.476346.358388.986347.05794 1.029716-.380594l3.638355.01179c.04059.438531.54886.742104 1.027289.387185.380593-.493002.03817-1.038738-.432981-1.040474-.310857-.0011-.564124.236267-.593959.539491l-3.638358-.01179c-.02811-.303225-.279632-.541921-.59049-.542962-.471146-.0019-.817044.542267-.439572 1.037352m28.543424-.562735c-.0735.470104.32959.716778.65467.582858l1.35793 2.567702c-.29386.193246-.31711.665083.11275.869084.49023.08292.74627-.363246.57037-.695614-.11588-.219267-.37816-.308777-.60298-.216144l-1.35757-2.567701c.20296-.133571.27685-.400716.16063-.619979-.1759-.332717-.68868-.371922-.8958.0798"/><path d="M22.20996 30.0985027c-.28103.376431-.043.777838.30287.811144v2.868847c-.3459.03296-.5839.434367-.30287.810798.38961.299061.81947.02775.81947-.343819 0-.245284-.1877-.444081-.42674-.466979v-2.868847c.23904-.02324.42674-.222041.42674-.467328 0-.371572-.42986-.642878-.81947-.343816m5.55797-11.476419c-.44894-.01978-.63872.384408-.47878.675837l-2.27037 1.543535c-.21198-.255692-.6578-.227939-.80456.197064-.0267.469061.41911.663001.71297.463164.19394-.131837.25049-.387533.14016-.589104l2.27003-1.543535c.14675.17694.40522.218224.59916.08639.29421-.199838.27755-.685554-.16861-.83335m-16.462637 18.641071c.38198.141552.657452-.154735.600206-.450328l2.385558-.70394c.112406.279286.504448.378858.748346.05273.153001-.397244-.17798-.687981-.486754-.596736-.204001.06002-.323349.265064-.283798.46941l-2.385557.703594c-.07771-.192897-.288999-.300102-.493001-.240083-.308777.09124-.428817.514859-.085.765351M47.71211 7.1657857c-.52909-.226553-.93847.172776-.87845.593961l-3.41597.826411c-.13912-.402105-.6859-.570023-1.05296-.126634-.24356.549899.20296.983574.6453.87637.29213-.07044.47496-.351451.43333-.642532l3.41632-.826759c.0961.278248.38718.44443.67896.373655.44269-.107206.64184-.696655.17347-1.074472m-12.14359 23.293535c-.3903-.08743-.61928.237652-.52457.517633l-2.22874.999882c-.14641-.257083-.54123-.302187-.73551.04753-.0964.406615.26402.646003.55267.516595.19013-.08534.27964-.300796.21406-.494389l2.22874-.999535c.10131.177634.32127.25396.51174.168613.28865-.129408.34972-.557879-.0184-.756327m-28.790438 7.232304c.532554-.2151.537757-.785818.19741-1.039429l1.81727-2.999296c.382327.184225.885737-.08465.829879-.656062-.217878-.559268-.838901-.54782-1.074125-.159245-.155429.256041-.08534.583205.150227.758409l-1.817271 2.999294c-.264368-.127325-.586676-.03817-.741758.217878-.235571.388574.04197.944372.638368.878451M24.03174 6.3858657c.43228-.370531.25742-.908289-.1426-1.039086l.76084-3.39203c.41737.05239.8056-.359083.5728-.878451-.38129-.456921-.96102-.250143-1.05956.189082-.0652.290042.10374.574878.3806.66543l-.76084 3.392029c-.289-.03643-.56343.149187-.62866.439226-.0985.439227.33758.873596.87742.6238"/><path d="M26.22197 8.5684637c.13565-.551983-.31919-.886432-.7199-.760147l-1.35411-3.194966c.36914-.200186.44512-.759452-.0458-1.046023-.57488-.148838-.92529.35596-.75008.769857.11587.272695.41875.40592.69561.318491l1.35445 3.194969c-.25534.138429-.37053.448593-.25465.721634.1752.4139.782.512778 1.07447-.0038m-3.00693 3.764654c-.36289.313632-.21371.766388.12386.875328l-.62969 2.860864c-.35215-.04302-.67758.305309-.47982.742105.323.383716.8108.207471.89233-.163061.0538-.244247-.0895-.483981-.323-.559615l.62969-2.860516c.24355.02948.47427-.127676.52805-.372268.0815-.370532-.28727-.735165-.74142-.522837m8.7526 15.937021c.19672.52041.74904.538453 1.00231.21441l2.86434 1.826291c-.18701.366368.0621.859717.6172.81843.54643-.198447.5492-.800041.17798-1.036656-.24459-.156123-.56274-.0954-.73794.128715l-2.86433-1.826637c.1294-.253266.05-.567246-.19464-.723369-.37088-.236613-.91523.01978-.86492.598816m22.32453 5.926425c.34729-.219264.27825-.621369.007-.756675l.89719-2.341495c.29247.08084.61234-.17243.50063-.567246-.22447-.366023-.66023-.27894-.77645.02428-.0767.200183.0142.421185.20226.514859l-.89718 2.341495c-.20227-.05586-.41772.04788-.49439.248064-.11588.303224.14988.658839.56135.536714m4.83323-3.62343c.62171-.28449.59777-.963453.17971-1.246903l2.00219-3.662988c.46455.198796 1.0488-.147797.95235-.824329-.289-.653635-1.02694-.607146-1.28611-.132879-.17104.31294-.0704.698044.21892.89441l-2.00219 3.662992c-.32126-.137388-.69977-.01423-.87081.298715-.25917.474265.0999 1.120614.80594 1.010982m-15.69666-16.144522c.13079-.68035-.44374-1.0599-.92356-.881229l-1.8478-3.806276c.43749-.266795.49509-.952695-.12039-1.271185-.70949-.145715-1.105.49092-.86561.983919.15786.325085.53498.468369.867.34486l1.84746 3.806622c-.30254.184225-.42327.569328-.26541.89441.23939.493002.98392.576268 1.30831-.07112m-16.76413 16.8186c-.30531-.287266-.68556-.11692-.74974.186307l-2.54376-.291084c.006-.309817-.32612-.561696-.68833-.350755-.30427.315022-.10755.723715.22204.761184.21718.02498.41286-.121081.45727-.330981l2.54341.291084c-.004.214408.1537.401062.37088.425695.3296.03781.61339-.315714.38823-.69145"/><path d="M28.55791 4.0093267c-.38892-.117959-.64531.194287-.57037.485022l-2.33317.845493c-.12871-.271307-.52527-.346592-.74869-.007-.12802.404879.21892.674451.5211.564819.19949-.07217.306-.283452.25431-.484676l2.33282-.845492c.0892.187694.30635.281368.50584.209205.30218-.109634.39586-.538798.0382-.767432m10.78878 3.147445c.13045.844104.95478 1.046372 1.43841.639758l3.72371 3.653276c-.39725.491266-.17937 1.311432.66751 1.425576.884-.124898 1.07898-1.027984.59674-1.501211-.31815-.312245-.81566-.321958-1.14976-.04094l-3.72405-3.653274c.27477-.339654.25534-.836474-.0628-1.14872-.48225-.473224-1.38151-.260897-1.48976.625533m-29.285911-.71672c.385798.187694.704983-.09437.67584-.410083l2.572905-.490226c.08882.304611.489531.449634.778879.132876.201573-.400366-.114836-.739328-.448247-.675838-.219613.04197-.366368.244247-.345898.46247l-2.572905.490226c-.06141-.210591-.272-.344857-.491962-.302878-.333061.06349-.503062.495084-.168612.793453m13.600731 9.983884c-.58286.42639-.41355 1.12339.0798 1.328085l-1.29131 4.216013c-.52319-.106858-1.05366.375736-.80976 1.055737.43784.61443 1.19139.409042 1.35862-.136693.11032-.360472-.076-.737249-.41703-.8788l1.29131-4.216011c.36186.0739.72719-.134265.83752-.494389.16722-.546084-.34209-1.137964-1.04915-.873942m3.36601 7.288163c.61582.460388 1.27292.07078 1.32739-.495082h4.69548c.0541.565857.71123.95547 1.3274.495082.48918-.637327.0451-1.340576-.56309-1.340576-.40106 0-.72684.307043-.76431.69839h-4.69548c-.0378-.391347-.36359-.69839-.76465-.69839-.60819 0-1.05193.703249-.56274 1.340576"/><path d="M44.25381 9.0625037c-.30739.251187-.19394.629004.0826.726841l-.58528 2.353292c-.29039-.04337-.5676.237307-.41355.603327.25846.324736.66612.189778.7421-.114836.05-.201224-.0632-.402797-.25466-.470451l.58529-2.352946c.20088.02984.39517-.09506.44513-.296285.076-.304613-.221-.614778-.6016-.448942m-31.453236 16.584415c-.02811-.427777-.431249-.564819-.690413-.382676l-1.700349-1.988657c.219959-.227939.147101-.647389-.270962-.741409-.447204.0236-.584246.466287-.363938.723715.14502.17.393082.196715.57245.07078l1.70035 1.988657c-.151959.157512-.1641.406961-.01873.576614.219961.257777.678614.190819.771596-.247021m40.860472 11.04344c.13739-.584246-.3459-.932921-.76778-.795533l-1.46235-3.359764c.38823-.215104.46247-.806635-.059-1.103964-.60854-.151611-.97352.385104-.78409.820166.1249.287266.44617.424654.73794.329594l1.46235 3.359765c-.26853.148836-.38683.477389-.26159.764656.18908.435062.83057.533591 1.13449-.01491m-39.547281-15.874936c.553021-.118654.655022-.671675.367756-.975594l2.272107-2.602049c.339656.243898.873596.06835.916616-.495775-.116571-.579737-.721287-.674105-1.015494-.336879-.193937.222388-.181447.551288.01736.761533l-2.272108 2.602048c-.234876-.168267-.562734-.136348-.757022.08604-.294205.336879-.119348.923207.470797.960677M40.10753.9579927c-.48016.439919-.25916 1.047757.20296 1.182022l-.73898 3.905849c-.47947-.04406-.9069.441308-.62102 1.026248.4531.507225 1.10813.24841 1.20388-.257428.0631-.333412-.1412-.652943-.46073-.745921l.73898-3.905501c.33167.03018.63837-.192552.70151-.525962.0958-.505838-.41945-.986002-1.0266-.679307m4.14142 35.958916c-.38995-.309468-.82224-.06939-.86804.295593l-3.03746-.08847c-.0243-.367063-.442-.631432-.8493-.345206-.32821.403145-.0545.866657.33896.877759.25951.0077.476-.18492.50757-.437144l3.03746.08812c.017.253614.22204.458655.48155.465941.39308.01145.69353-.435063.38926-.856594m-8.57183-2.220068c.38857-.07598.46663-.461778.26922-.677919l1.62194-1.792639c.23488.174857.61062.05863.64774-.33549-.0746-.407306-.49612-.480512-.70637-.24841-.13843.153-.13392.383716.003.533248l-1.62194 1.792637c-.16237-.120736-.39239-.102695-.53082.05066-.21024.232103-.0951.644613.31745.677919m-11.92801-14.783106c-.80872-.150573-1.25488.534286-1.03909 1.102923l-4.505705 2.221108c-.319877-.517288-1.134839-.580431-1.508147.152652-.167573.843064.590839 1.307964 1.174392 1.020348.384755-.189774.552327-.638714.403143-1.031797l4.505707-2.221108c.221.357695.67896.498205 1.06406.308431.58356-.287616.67688-1.172312-.0944-1.552557m15.16335 15.328838c.39828-.0077.54296-.376082.3851-.624838l1.91927-1.494617c.20227.214063.595.164104.70013-.219959-.003-.416327-.40835-.56239-.65676-.368798-.1641.127675-.19949.357001-.0902.528736l-1.91927 1.494617c-.13982-.148143-.37088-.17-.53498-.04233-.24841.193593-.20609.62241.19671.727184m12.56165-7.06057c-.16515.73586.4472 1.167799.97559.989471l1.88215 4.203177c-.48502.275468-.57037 1.020003.0885 1.387063.76674.182143 1.21845-.497163.97455-1.041511-.16063-.359083-.5662-.527695-.93153-.404187l-1.88215-4.20352c.33549-.19047.47947-.605065.31884-.964147-.2439-.544349-1.05123-.65988-1.42592.03365m-3.92111 6.377792c.0912-.432632-.27096-.681042-.57939-.572796l-1.13484-2.449394c.28206-.165144.32647-.602288-.0624-.812188-.45102-.101306-.71054.300451-.56343.617555.0968.209205.33583.304959.5492.23002l1.13484 2.44974c-.19498.114144-.27651.358392-.17937.567596.14676.317449.62103.378858.83544-.03054"/><path d="M35.00162 3.6034077c.78721.280675 1.34439-.33445 1.21984-.939166l4.87555-1.503983c.23765.570022 1.04463.764307 1.53694.08916.30357-.818779-.38233-1.406841-1.0141-1.211862-.41633.128369-.65641.551634-.57003.970044l-4.87554 1.503637c-.16445-.394124-.60125-.608533-1.01757-.480163-.63144.194632-.86736 1.067185-.15509 1.572329M45.236 35.3983497c.069-.463164-.32959-.702553-.64843-.568633l-1.3548-2.516355c.28726-.192206.30669-.657103-.11761-.854167-.48294-.07806-.7317.362555-.55615.688677.11553.214755.37435.300796.59466.208164l1.35514 2.516355c-.19879.132876-.26957.396203-.15369.611306.17555.325777.68035.360819.88088-.08534m-7.44117-1.280207c-.37018-.14641-.646.137734-.59604.427776l-2.34704.637328c-.10374-.275122-.48503-.38094-.73066-.06731-.15786.385102.15959.676532.46351.593959.20053-.05447.32161-.252225.28727-.453103l2.3467-.637327c.0718.19047.27651.299756.47704.245284.30392-.08257.4302-.494388.0992-.746613m-3.81529-15.935285c.0822.69388.75078.882615 1.15739.564124l2.94032 3.092968c-.33862.390307-.18388 1.067186.50514 1.184799.72614-.07737.91141-.810104.53082-1.210473-.25154-.264368-.6578-.286572-.93917-.06627l-2.94031-3.093315c.23418-.269572.23245-.676533-.0187-.9409-.38059-.400716-1.122-.252571-1.23545.469063m-8.50939 13.067486c.15924.530122.70637.586326.9801.282061l2.71619 2.01225c-.21093.35041.002.857635.5558.855208.55615-.159245.60055-.75633.24876-1.016881-.23211-.171735-.55198-.133919-.74141.07667l-2.7162-2.012249c.14572-.242511.0888-.559616-.14293-.731697-.3518-.260551-.91003-.04406-.90031.534636m23.05172-7.195879c-.4309.563429-.0781 1.17335.44338 1.229208l-.0479 4.330503c-.52249.04406-.88851.646349-.47045 1.219145.58321.457615 1.23614.05516 1.24239-.505492.004-.370183-.27582-.673757-.63629-.712267l.0479-4.330502c.36116-.03053.64773-.327858.6519-.698041.006-.560656-.63803-.97733-1.23094-.532554"/><path d="M24.01959 30.3875047c.62762.445122 1.27501.03851 1.31525-.528737l4.69618-.117961c.0687.564472.73586.937778 1.34023.461778.47322-.649818.0114-1.341962-.59674-1.326699-.40106.01007-.71921.325431-.74696.717819l-4.69653.117959c-.0475-.390307-.38094-.689369-.78234-.679306-.60819.01527-1.03458.72996-.52909 1.355147m-12.834337-1.025556c-.371227.453451-.09679.966574.332021 1.027289l-.1589 3.573826c-.432285.0222-.751471.509307-.421878.993637.468715.393776 1.018962.0798 1.039779-.383022.01353-.305308-.209205-.563778-.505838-.60541l.158896-3.574174c.299065-.01527.543657-.252919.557533-.558225.02048-.462819-.499939-.824678-1.001613-.473921m23.549917-1.032144c.62866-.02428.84584-.610615.58911-.998495l2.98541-2.417823c.32578.332021.94437.24147 1.09911-.36845-.0174-.657449-.66162-.875675-1.04845-.562735-.255.206775-.30392.569675-.12629.837861l-2.98542 2.417822c-.22551-.229675-.59084-.257082-.84584-.0503-.38683.312941-.30669.988778.33237 1.142128m7.1199-18.829466c-.69527-.0399-.9971.582858-.75529 1.03735l-3.54815 2.345658c-.32369-.400367-1.0148-.366715-1.25037.289001-.051.726146.63559 1.035616 1.09494.732043.30323-.20053.39586-.595349.22898-.909677l3.54781-2.345657c.22412.276857.62345.345898.92667.145714.4597-.303919.44374-1.057125-.24459-1.294432m-.74071 29.410081c.0618.483289.52873.610614.8101.386143l2.06811 2.137151c-.23349.274082-.12143.744878.35942.822247.5055-.05794.63005-.569676.36221-.846534-.17659-.182835-.46004-.195674-.65467-.04059l-2.06811-2.137148c.16167-.189429.15786-.472879-.0187-.655716-.26783-.276858-.78373-.168959-.85832.334449m20.98777 10.009209c-.81635-.0971-1.21672.61478-.96484 1.16815l-4.34924 2.50803c-.35249-.49509-1.16919-.50515-1.49392.25049-.11241.85174.67445 1.26598 1.23753.94125.37157-.21441.50931-.67307.33515-1.0554l4.34888-2.50837c.24391.34243.70984.45276 1.08142.23869.56308-.32508.59847-1.21359-.19498-1.54284m-8.75364-4.887338c.47947-.253265.43021-.789981.086-.995715l1.42176-2.992009c.37678.136693.82398-.163755.71748-.695614-.25848-.504797-.84064-.434716-1.02487-.04753-.12143.255695-.0243.556143.21372.698736l-1.42176 2.991663c-.26055-.09437-.5551.02011-.67653.275816-.18388.387531.12975.883308.68416.764654m2.6194-6.004832c-.12039-.382676-.51729-.41841-.71296-.195328l-1.98658-1.432859c.14988-.256042-.009-.62137-.41008-.614778-.40176.120389-.42847.553369-.17105.738981.16966.122471.40107.09194.53637-.0621l1.98658 1.432862c-.10339.176939-.0593.406265.11033.528736.25743.185612.65988.0236.64739-.395511m-7.71559.616165c.35873.228634.70498-.01282.71192-.327163l2.58955-.191512c.0531.309816.4316.497859.75251.218919.24356-.371573-.0298-.741063-.36532-.71643-.221.01632-.38823.199143-.39308.416327l-2.58956.191512c-.0368-.214409-.22898-.370532-.45033-.353879-.33514.02465-.55129.430551-.25569.762226"/><path d="M50.12993 38.6044237c.67202-.460389.50584-1.252105-.0427-1.500167l1.60563-4.706931c.58599.139121 1.20111-.386492.95062-1.161208-.47184-.708452-1.32878-.504102-1.5366.105817-.13739.402103.0593.833697.43853 1.005084l-1.60563 4.706933c-.40523-.0961-.82433.12559-.96172.527696-.20782.60957.3452 1.294778 1.15184 1.022776"/><path d="M52.0662 41.1311867c-.1818-.459347-.67272-.467328-.89302-.175898l-2.5684-1.5817c.16064-.327858-.0673-.762225-.55926-.718165-.4826.184225-.47635.718514-.14398.923207.21961.13496.50132.07667.65363-.12455l2.5684 1.58135c-.11103.226899-.0364.504452.18318.639758.33272.204694.81218-.03054.75945-.544002m3.52977-4.418972c-.55303.188388-.59119.767432-.25986 1.044636l-2.01746 2.942396c-.37816-.208858-.90447.03538-.88088.618941.18943.580429.82086.604717 1.08211.223428.17243-.251184.12004-.587369-.10929-.779225l2.0178-2.942396c.26125.144674.59362.07251.76605-.178675.26124-.381286.0114-.961371-.59847-.929105m-7.17541-1.246553c.13635.499593.64704.564816.91037.286571l2.49449 1.945291c-.20573.323001-.018.802472.49995.813227.52387-.136348.57938-.693878.25638-.945757-.21302-.166185-.51347-.138082-.69561.05447l-2.4945-1.945291c.14225-.223429.0965-.52145-.11657-.687635-.32335-.251879-.85035-.06245-.85451.479126"/></g></svg>