<svg xmlns="http://www.w3.org/2000/svg" xml:space="preserve" viewBox="0 0 65.23 53.9"><g fill="#231f20"><path d="M4.3 21c-.21-.42-.67-.39-.85-.1L.9 19.66c.12-.32-.13-.71-.59-.63-.43.22-.38.72-.05.88.22.11.48.03.6-.17L3.41 21c-.09.22 0 .47.22.58.33.16.76-.1.67-.58m45.94-2.82c.39.5 1 .33 1.16-.11l3.74.98c-.07.47.37.92.96.68.52-.4.31-1.06-.17-1.19a.63.63 0 0 0-.76.4l-3.74-.99a.63.63 0 0 0-.46-.72c-.49-.12-1 .34-.73.95m-5.07-6.35c.41.66 1.18.54 1.44.03l4.42 1.74c-.16.55.31 1.16 1.06.96.7-.42.54-1.25-.03-1.47a.78.78 0 0 0-.98.37l-4.42-1.74a.78.78 0 0 0-.46-.94c-.57-.23-1.25.27-1.03 1.05"/><path d="M51.92 19.15c.6.13.96-.37.8-.8l3.45-1.58c.23.4.84.47 1.14-.08.14-.63-.42-1-.86-.8a.62.62 0 0 0-.33.78l-3.44 1.57a.62.62 0 0 0-.8-.26c-.44.2-.53.87.04 1.17m4.8 5.22c-.2.43.1.77.45.74l.55 2.8c-.33.1-.49.54-.14.86.44.21.8-.13.73-.5a.47.47 0 0 0-.5-.37l-.55-2.8c.22-.08.37-.3.32-.55-.07-.36-.54-.54-.87-.18m-7.9-5.8c.09-.57-.39-.86-.78-.7l-1.6-3.09c.35-.23.38-.79-.13-1.04-.59-.1-.9.43-.7.83.15.26.46.37.73.26l1.6 3.08a.57.57 0 0 0-.2.74c.21.4.83.45 1.08-.09m-.54-13.83c.02.4.4.54.66.37L50.56 7c-.21.22-.15.63.26.72.43-.02.56-.45.35-.7a.41.41 0 0 0-.55-.07l-1.63-1.91c.14-.15.16-.4.02-.56-.21-.25-.65-.18-.74.24m3.13 18.33c.67-.02.91-.64.64-1.06l3.21-2.54c.35.35 1 .27 1.18-.38-.01-.7-.7-.95-1.11-.62a.67.67 0 0 0-.15.9l-3.2 2.54a.67.67 0 0 0-.91-.06c-.42.33-.34 1.05.34 1.22"/><path d="M56.6 23.86c.3-.75-.28-1.31-.88-1.2l-1.3-4.78c.56-.22.77-1 .13-1.5-.78-.31-1.37.33-1.2.95.1.41.51.66.92.59l1.3 4.77a.81.81 0 0 0-.5.97c.18.62 1.02.88 1.53.2m1.24-8.58c.38.13.64-.16.58-.45l2.33-.73c.11.27.5.37.73.04.15-.39-.18-.67-.48-.57a.4.4 0 0 0-.27.46l-2.33.73a.4.4 0 0 0-.49-.23c-.3.1-.4.51-.07.75m-11.01.06c.48.4 1.04.1 1.1-.36l3.85.2c.02.46.54.8 1.07.45.42-.5.09-1.1-.41-1.12a.63.63 0 0 0-.65.54l-3.85-.19a.63.63 0 0 0-.6-.6c-.5-.02-.89.53-.51 1.08m6.12 9.98c-.3.3-.13.7.18.76l-.34 2.59c-.32-.01-.58.32-.37.7.31.3.73.12.78-.22a.43.43 0 0 0-.33-.47l.34-2.58c.21 0 .4-.15.44-.38.04-.33-.32-.62-.7-.4m-1.12 2.94c.48-.55.16-1.21-.37-1.3l.35-4.49c.54 0 .96-.6.57-1.23-.57-.51-1.28-.14-1.32.44-.03.38.23.72.6.78l-.35 4.48a.74.74 0 0 0-.72.68c-.04.58.6 1.06 1.24.64"/><path d="M53.93 18.87c-.75.15-.9.9-.52 1.32l-3.17 3.5c-.45-.33-1.19-.1-1.26.66.15.8.97.94 1.38.49a.77.77 0 0 0 0-1.04l3.16-3.51c.32.24.77.2 1.04-.1.4-.45.18-1.26-.63-1.32m-8.48-14.5c.26.31.65.2.75-.1l2.42.6c-.05.3.24.58.62.42.33-.27.19-.69-.12-.76a.4.4 0 0 0-.49.26l-2.41-.59a.4.4 0 0 0-.31-.45c-.31-.08-.63.23-.46.62m12.4 20.68c-.33-.53-.93-.44-1.14-.03l-3.48-1.42c.13-.43-.24-.92-.83-.76-.56.32-.44.98.01 1.16.3.12.63-.01.78-.29l3.47 1.41c-.09.3.06.63.36.75.45.19 1-.2.82-.82m.67-9.38c-.7.27-.73 1.02-.29 1.37l-2.5 3.92c-.5-.26-1.17.08-1.12.84.27.75 1.1.75 1.42.25a.76.76 0 0 0-.18-1.01l2.5-3.92c.35.17.78.07 1-.27.32-.5-.03-1.25-.83-1.18m-7 5.23c.21-.53-.2-.93-.61-.85l-.91-3.38c.4-.15.55-.7.1-1.05-.55-.23-.97.23-.86.66.08.3.37.47.65.42l.91 3.37c-.27.1-.43.4-.35.69.12.44.7.62 1.07.14m10.85.12c0 .4.37.55.62.4l1.5 1.91c-.22.2-.17.6.21.7.42 0 .57-.4.37-.65a.4.4 0 0 0-.53-.1l-1.49-1.92a.4.4 0 0 0 .05-.53c-.2-.25-.63-.2-.73.2m-8.6-11.97c.01-.58-.51-.81-.88-.6L50.82 5.6c.32-.28.27-.85-.28-1.03-.6-.02-.84.56-.57.93.17.25.5.31.76.16l2.06 2.87a.58.58 0 0 0-.1.77c.27.37.9.34 1.07-.24"/><path d="M61.36 11.45c-.33.65.13 1.2.67 1.17l.7 4.4c-.52.13-.78.8-.26 1.31.67.37 1.26-.16 1.17-.73a.73.73 0 0 0-.77-.6l-.7-4.4c.36-.1.6-.45.53-.82-.09-.57-.81-.88-1.34-.33m-15.33-.82c.42-.01.56-.4.4-.65l1.97-1.57c.21.22.62.17.72-.23 0-.43-.43-.58-.68-.38a.41.41 0 0 0-.1.55l-1.96 1.57a.41.41 0 0 0-.56-.04c-.25.2-.2.65.21.75m17.23 11.24c-.3.48.01.94.43.95l.23 3.43c-.4.07-.66.57-.3 1 .5.32 1-.04.96-.48a.56.56 0 0 0-.55-.53l-.24-3.43c.29-.05.5-.3.48-.6-.03-.44-.57-.73-1.01-.34m-13.18-.07c-.39-.12-.65.2-.57.49l-2.36.86c-.13-.28-.53-.35-.76-.01-.13.41.22.68.53.57.2-.07.3-.29.26-.49l2.35-.86c.1.2.31.29.52.21.3-.1.4-.54.03-.77m6.39-2.07c-.73-.02-1.03.65-.76 1.11l-3.63 2.6c-.35-.41-1.07-.35-1.3.34-.02.77.7 1.07 1.18.73.3-.22.4-.64.2-.96l3.64-2.6c.24.29.66.35.97.13.47-.34.43-1.13-.3-1.35"/><path d="M60.75 14.19c-.02.67.58.94 1.01.7l2.36 3.34c-.38.33-.33 1 .31 1.2.7.03.98-.64.67-1.07a.67.67 0 0 0-.88-.2l-2.35-3.35c.26-.22.32-.6.11-.9-.3-.43-1.02-.39-1.23.28m2.63 6.59c.03-.72-.61-1.03-1.08-.77l-2.45-3.64c.41-.34.37-1.05-.31-1.28-.75-.05-1.06.66-.74 1.13.2.31.61.4.94.23l2.45 3.63a.72.72 0 0 0-.14.96c.31.47 1.1.45 1.33-.26m.07 1.95c-.21-.4-.67-.36-.84-.08l-2.52-1.21c.12-.32-.13-.7-.58-.61-.43.21-.38.7-.05.86.22.1.47.03.6-.17l2.51 1.21c-.08.22.01.47.23.58.33.15.75-.1.65-.58M53.2 16.56c-.28-.26-.63-.1-.7.18l-2.36-.27c0-.28-.3-.52-.64-.32-.28.3-.1.67.21.7.2.03.38-.1.42-.3l2.37.26c0 .2.14.38.35.4.3.03.57-.3.35-.65"/><path d="M59.55 17.16c-.33-.6-1-.52-1.25-.1l-3.74-1.72c.16-.47-.22-1.02-.88-.88-.63.33-.53 1.05-.05 1.27.32.15.7.03.87-.27l3.75 1.73c-.11.32.03.69.35.83.49.23 1.1-.17.95-.86m-.83 2.52c-.8-.08-1.18.62-.92 1.16l-4.2 2.52c-.36-.47-1.16-.47-1.46.28-.1.83.68 1.22 1.22.9a.8.8 0 0 0 .31-1.04l4.2-2.53a.8.8 0 0 0 1.07.21c.54-.32.56-1.2-.22-1.5m-12.05-6.43c.39-.26.3-.7-.02-.85l.94-2.68c.33.08.69-.22.55-.66-.27-.4-.76-.3-.88.05-.08.23.03.48.25.58l-.94 2.68a.47.47 0 0 0-.55.3c-.12.34.19.74.65.58m13.97-3.15c-.33.42-.08.9.31.95l-.13 3.28c-.4.02-.69.47-.38.92.43.36.93.07.95-.36a.54.54 0 0 0-.47-.55l.14-3.29c.27-.01.5-.23.5-.51.02-.43-.46-.76-.92-.44M49.95 20.5c-.11-.4-.53-.45-.73-.22l-2.05-1.52c.16-.27 0-.65-.41-.65-.42.12-.46.57-.2.77.18.13.42.1.57-.06l2.04 1.52a.42.42 0 0 0 .1.56c.27.2.69.03.68-.4m5.38 6.63c.77 0 1.06-.72.76-1.21l3.79-2.87c.39.42 1.16.33 1.37-.42 0-.8-.78-1.1-1.27-.73a.78.78 0 0 0-.19 1.03L56 25.8a.78.78 0 0 0-1.04-.1c-.5.37-.42 1.21.37 1.43m8.72-10.98c-.4.17-.39.59-.13.77l-1.3 2.22c-.28-.13-.65.08-.6.5.17.4.63.38.8.1a.42.42 0 0 0-.13-.56l1.3-2.22c.2.09.43.02.54-.17.16-.29-.05-.7-.48-.64"/><path d="M62.12 18.62c-.3.25-.2.62.07.72l-.6 2.3c-.28-.04-.56.24-.41.6.25.32.65.2.73-.1a.4.4 0 0 0-.25-.47l.6-2.31a.4.4 0 0 0 .45-.29c.08-.3-.21-.6-.59-.45M45.47 21.6c.66.47 1.34.04 1.39-.55l4.92-.1c.07.59.77.98 1.4.49.5-.68.02-1.41-.61-1.4a.8.8 0 0 0-.8.75l-4.92.1a.8.8 0 0 0-.81-.71c-.64.01-1.1.76-.57 1.42m16.55 2.23c-.07-.43-.5-.53-.74-.31l-1.93-1.84c.2-.26.08-.67-.35-.73-.45.07-.55.54-.3.78.17.15.42.15.6 0l1.93 1.85a.44.44 0 0 0 .04.58c.25.24.7.12.75-.33m.23.9c-.11.5.3.78.66.66l1.27 2.85c-.33.19-.38.69.06.94.52.12.83-.34.66-.7a.51.51 0 0 0-.63-.28L63 25.34a.51.51 0 0 0 .21-.65c-.16-.37-.7-.45-.96.02m1.04 3.92c-.31-.27-.68-.08-.73.22l-2.52-.17c-.01-.3-.35-.54-.7-.32-.29.33-.07.72.25.74a.4.4 0 0 0 .44-.34l2.53.17c0 .21.17.39.38.4.33.03.6-.34.35-.7m-8.45-18.1c-.43-.2-.78.11-.74.46l-2.83.6c-.1-.33-.55-.48-.86-.13-.22.45.14.82.5.74.25-.05.4-.28.38-.52l2.83-.6c.07.23.3.37.55.32.37-.07.54-.56.17-.88"/><path d="M56.63 28.87c.46.21.84-.13.8-.5l3.04-.65c.11.36.6.52.93.13.23-.48-.16-.87-.55-.79a.51.51 0 0 0-.4.56l-3.05.65a.51.51 0 0 0-.59-.35c-.4.09-.59.6-.18.95m.77-7.08c.49.04.71-.38.55-.7l2.52-1.56c.22.29.7.28.88-.17.05-.5-.42-.74-.74-.53a.48.48 0 0 0-.18.62L57.9 21a.48.48 0 0 0-.65-.12c-.32.2-.33.73.14.9m2.04-7.26c.44-.58.07-1.2-.47-1.26V8.8c.54-.05.9-.68.47-1.26-.6-.47-1.27-.04-1.27.53 0 .39.29.7.66.73v4.46a.73.73 0 0 0-.66.73c0 .57.67 1 1.27.53m-14.5 5.7c.51 0 .7-.46.52-.78l2.47-1.8c.25.27.74.23.89-.25.01-.53-.5-.73-.81-.5a.5.5 0 0 0-.14.67l-2.47 1.8a.5.5 0 0 0-.67-.07c-.32.24-.28.78.22.92m4.85 4.75c.37-.15.37-.55.13-.73l1.27-2.09c.26.13.62-.06.58-.46-.16-.39-.59-.38-.75-.1a.4.4 0 0 0 .1.52l-1.26 2.1a.4.4 0 0 0-.52.15c-.16.27.03.66.45.61m5.71-14.45c.18-.52-.23-.89-.63-.8l-1.03-3.22c.38-.17.5-.7.05-1.02-.54-.2-.93.26-.8.68.1.27.37.43.65.37l1.03 3.22c-.26.11-.4.4-.31.68.13.41.71.56 1.04.09m-7.68 14.96c.29.37.73.24.85-.09l2.75.72c-.06.34.27.66.7.49.38-.3.23-.78-.13-.87a.46.46 0 0 0-.55.29l-2.75-.71a.47.47 0 0 0-.34-.53c-.36-.09-.72.25-.53.7M44.7 42.22c.66.07.98-.51.77-.96l3.49-2.1c.3.4.96.4 1.21-.22.08-.7-.57-1.02-1.02-.75-.3.18-.4.55-.26.86l-3.49 2.1a.67.67 0 0 0-.88-.18c-.45.27-.47 1 .18 1.25m2.83-3.97c-.12-.66-.77-.8-1.14-.47l-2.99-2.8c.3-.4.12-1.03-.55-1.1-.69.1-.82.82-.44 1.18.26.24.65.24.9.01l3 2.8a.67.67 0 0 0 .06.9c.39.36 1.09.18 1.16-.52"/><path d="M46.61 35.35c-.3.27-.15.64.13.72l-.44 2.4c-.29-.03-.55.27-.37.62.28.31.68.15.74-.16a.4.4 0 0 0-.29-.45l.43-2.4a.4.4 0 0 0 .43-.32c.06-.31-.26-.6-.63-.41"/><path d="M45.42 37.2c.14.51.67.59.95.3l2.57 2.05c-.21.33-.02.83.52.85.54-.14.6-.72.27-.98a.54.54 0 0 0-.72.05l-2.58-2.05a.54.54 0 0 0-.11-.72c-.34-.26-.89-.07-.9.5"/><path d="M49.83 38.36c.07-.82-.65-1.19-1.19-.92l-2.63-4.23c.48-.36.46-1.17-.3-1.47-.85-.08-1.23.71-.9 1.26.23.36.7.48 1.07.3l2.63 4.22a.82.82 0 0 0-.2 1.08c.34.55 1.22.55 1.52-.24m-21.85-.8c-.24.62.24 1.07.72.99l1.08 3.9c-.46.17-.63.8-.1 1.21.64.26 1.12-.27.98-.77a.66.66 0 0 0-.76-.48l-1.08-3.9c.32-.12.5-.46.4-.8-.13-.5-.82-.7-1.24-.15M39.97 39c-.57.21-.6.81-.25 1.1l-2.03 3.1c-.4-.2-.94.06-.9.67.2.6.86.61 1.13.21a.6.6 0 0 0-.14-.81l2.04-3.11a.6.6 0 0 0 .8-.2c.26-.4-.02-1-.65-.96m1.32-1.57c-.66-.36-1.24.1-1.22.66l-4.54.61c-.13-.54-.82-.83-1.35-.3-.4.68.13 1.3.72 1.22.39-.05.66-.4.64-.78l4.55-.61c.08.37.44.63.83.57.58-.08.92-.81.37-1.37m-24.46 6.43c.58-.09.72-.66.44-1l2.53-2.6c.35.28.92.13 1-.46-.1-.61-.72-.75-1.05-.41a.6.6 0 0 0-.03.8l-2.53 2.6a.6.6 0 0 0-.8.04c-.33.33-.18.96.44 1.03"/><path d="M32.32 37.66c-.4-.27-.8-.01-.81.34l-2.93.12c-.05-.35-.47-.58-.85-.28-.28.42.01.84.39.83a.48.48 0 0 0 .46-.46l2.93-.12c.03.25.24.43.5.42.37-.02.63-.47.31-.85m-10.69 4.16c.43-.7-.04-1.36-.64-1.36l-.43-4.97c.6-.1.95-.84.4-1.45-.71-.46-1.41.07-1.36.72.04.42.4.74.8.74l.43 4.97a.82.82 0 0 0-.67.87c.06.65.84 1.05 1.47.48"/><path d="M21.95 38.45c.5-.66.08-1.37-.53-1.43v-5.05c.6-.06 1.02-.77.53-1.43-.69-.53-1.44-.05-1.44.6 0 .44.33.79.75.83v5.05a.83.83 0 0 0-.75.82c0 .66.75 1.13 1.44.6m18.08-.58c-.2.46.15.81.52.76l.72 2.96c-.35.12-.5.6-.11.9.48.22.85-.17.76-.55a.5.5 0 0 0-.56-.38l-.72-2.95a.5.5 0 0 0 .32-.6c-.1-.37-.6-.55-.93-.14"/><path d="M43.8 38.13c-.58-.45-1.21-.08-1.27.46l-4.5-.05c-.05-.55-.67-.93-1.27-.5-.48.61-.06 1.3.52 1.3.39 0 .7-.29.74-.66l4.5.05c.04.38.35.68.73.68.58 0 1.02-.66.56-1.28m.23-1.02c.03.43.44.57.7.4l1.71 2.02c-.22.23-.15.65.27.75.46-.02.6-.47.38-.73a.43.43 0 0 0-.58-.08l-1.72-2.02a.43.43 0 0 0 .03-.59c-.22-.26-.69-.2-.79.25m-18.6-.48c.08.55.63.69.94.42l2.45 2.4c-.26.32-.11.86.44.94.58-.08.71-.68.4-.99a.56.56 0 0 0-.76-.03l-2.45-2.4a.56.56 0 0 0-.04-.75c-.32-.31-.91-.17-.98.4m-9.88-1.81c-.26.34-.04.71.27.74v2.62c-.31.03-.53.4-.27.74.35.28.75.03.75-.31 0-.22-.18-.4-.4-.43v-2.62c.22-.02.4-.2.4-.43 0-.34-.4-.58-.75-.31"/><path d="M30.68 32.9c.18.82 1.01.97 1.46.53l3.93 3.36c-.36.51-.1 1.3.75 1.36.87-.18 1-1.08.5-1.52a.85.85 0 0 0-1.15.04l-3.92-3.36a.85.85 0 0 0-.14-1.13c-.51-.44-1.39-.16-1.43.72"/><path d="M36.64 39.3c.83.02 1.17-.73.88-1.26l4.17-2.88c.4.47 1.22.41 1.48-.38.05-.86-.78-1.22-1.32-.84a.83.83 0 0 0-.25 1.09l-4.17 2.88a.83.83 0 0 0-1.11-.16c-.54.38-.5 1.27.32 1.54m15.63-15.03c-.65.39-.54 1.13-.05 1.4l-1.75 4.27c-.54-.16-1.14.3-.95 1.03.4.68 1.2.54 1.43-.01a.76.76 0 0 0-.35-.96l1.76-4.28c.37.11.77-.07.92-.44.23-.55-.25-1.22-1.01-1.01m1.03 13.46c.5-.13.57-.64.3-.9l1.97-2.47c.32.21.8.03.82-.49-.13-.52-.69-.58-.94-.26a.52.52 0 0 0 .04.69l-1.97 2.46a.52.52 0 0 0-.69.11c-.25.32-.07.85.47.86M47.04 8.5c-.48-.1-.76.3-.63.65l-2.73 1.3c-.19-.32-.68-.37-.91.07-.1.5.34.8.7.63a.5.5 0 0 0 .25-.62l2.73-1.3c.13.22.4.31.64.2.35-.17.41-.7-.05-.93M8.14 27.73c.22.38.66.31.8.02l2.51 1c-.09.32.18.67.6.56.4-.24.32-.7 0-.84a.44.44 0 0 0-.57.21l-2.5-1a.44.44 0 0 0-.26-.54c-.32-.13-.71.15-.59.6m37.33-24.3c-.6-.39-1.2.02-1.22.56l-4.42.3c-.09-.54-.73-.86-1.28-.39-.42.63.04 1.27.61 1.23a.73.73 0 0 0 .68-.7l4.42-.3c.06.36.39.63.77.6.57-.03.94-.72.44-1.3M22.65 26.47c-.49.7-.03 1.4.6 1.44l.2 5.19c-.62.08-1.02.82-.49 1.48.73.51 1.48 0 1.46-.68a.85.85 0 0 0-.8-.81l-.2-5.18a.85.85 0 0 0 .73-.88c-.03-.67-.82-1.13-1.5-.56M19.3 8.6c-.48.1-.58.57-.34.83l-1.99 2.18c-.28-.21-.74-.07-.8.4.1.5.61.6.87.31a.48.48 0 0 0 0-.65l2-2.18c.19.15.47.13.64-.05.26-.29.12-.8-.38-.84m19.51 3.52c-.75.22-.84 1-.4 1.39l-2.88 3.84c-.5-.3-1.22 0-1.22.78.22.79 1.07.86 1.44.36a.79.79 0 0 0-.1-1.05l2.87-3.84c.34.2.8.13 1.04-.2.37-.5.07-1.29-.75-1.28m-1.43-1.24c.43-.32.3-.83-.06-.98l.95-3.12c.4.08.78-.28.6-.78-.32-.46-.88-.3-1 .1-.08.26.05.54.3.65l-.95 3.12a.54.54 0 0 0-.62.36c-.12.4.26.85.78.65"/><path d="M19.39 25.22c.3.38.76.25.88-.09l2.86.75c-.06.35.28.7.72.51.4-.3.24-.8-.12-.9a.48.48 0 0 0-.58.3l-2.85-.75a.48.48 0 0 0-.36-.54c-.36-.1-.75.26-.55.72m16.59 8.47c-.28-.44-.78-.35-.94-.01l-2.91-1.12c.1-.36-.22-.76-.71-.62-.45.28-.35.82.03.97a.5.5 0 0 0 .64-.26L35 33.77a.5.5 0 0 0 .31.61c.38.15.82-.18.67-.7m-1.3-32.4c-.58.16-.66.76-.34 1.07l-2.3 2.92c-.37-.24-.93-.02-.95.59.16.61.81.68 1.11.3a.6.6 0 0 0-.06-.81l2.3-2.93a.6.6 0 0 0 .8-.13c.3-.38.08-1-.56-1M47.8 13.63c-.62-.15-1 .36-.85.81L43.37 16c-.22-.41-.85-.49-1.17.06-.16.65.4 1.04.87.84.3-.13.45-.47.35-.78L47 14.56c.16.3.51.42.82.29.46-.2.57-.89-.02-1.21M13.03 5.4c.4.65 1.16.53 1.42.02l4.39 1.73c-.16.54.3 1.15 1.05.95.7-.42.54-1.24-.03-1.46a.77.77 0 0 0-.97.37L14.5 5.28a.77.77 0 0 0-.46-.93c-.57-.22-1.24.27-1.02 1.05m-1.57 26.89c.52.15.85-.26.75-.64l3.08-1.12c.17.36.7.46.99 0 .17-.53-.3-.88-.69-.74-.26.1-.4.38-.33.64l-3.08 1.12a.54.54 0 0 0-.67-.27c-.4.14-.52.7-.05 1.01m31.4-20.47c.41-.55.06-1.15-.45-1.2V6.37c.51-.04.86-.64.45-1.2-.58-.44-1.21-.04-1.21.51 0 .37.27.66.63.7v4.24a.7.7 0 0 0-.63.7c0 .54.63.94 1.2.5M13.58 7.65c.2.67.9.74 1.24.35l3.45 2.54c-.26.45 0 1.09.7 1.08.71-.2.77-.96.32-1.29a.7.7 0 0 0-.94.1L14.9 7.9a.7.7 0 0 0-.18-.92c-.45-.33-1.15-.06-1.14.68"/><path d="M13.13 31.84c-.38.15-.39.56-.14.74l-1.3 2.14c-.27-.13-.63.06-.6.47.16.4.6.39.78.11a.41.41 0 0 0-.11-.54l1.3-2.14c.18.1.41.03.52-.15.17-.28-.03-.68-.45-.63m16.39.5c-.66.13-.8.79-.47 1.16l-2.76 3.03c-.4-.3-1.04-.1-1.1.57.12.69.84.81 1.2.42a.67.67 0 0 0 0-.9l2.76-3.04c.27.21.66.18.9-.08.36-.4.17-1.1-.53-1.15m12-1.47c-.39-.19-.7.09-.68.4l-2.55.46c-.08-.3-.48-.45-.77-.14-.2.39.1.73.44.67a.43.43 0 0 0 .34-.45l2.56-.46c.05.21.26.34.48.3.33-.05.5-.48.17-.78m5.45-1.7c-.03.75.65 1.06 1.13.8l2.6 3.74c-.41.36-.36 1.1.35 1.33.78.04 1.1-.7.76-1.19a.75.75 0 0 0-.98-.22l-2.61-3.75c.3-.25.36-.68.13-1-.34-.48-1.14-.45-1.38.3m-22.85.29c-.5-.37-1.02-.06-1.06.4H19.3c-.04-.46-.57-.77-1.06-.4-.39.5-.03 1.07.45 1.07.32 0 .58-.25.61-.56h3.75c.03.31.29.56.6.56.5 0 .85-.56.46-1.07m7.76-3.39c-.14.37.14.64.42.59l.63 2.32c-.27.1-.37.47-.06.72.38.15.66-.16.58-.46a.4.4 0 0 0-.45-.28l-.62-2.32a.4.4 0 0 0 .24-.47c-.08-.3-.49-.43-.74-.1"/><path d="M46.2 36.66c.66.2 1.1-.34.97-.83l3.99-1.46c.22.46.9.59 1.28 0 .22-.69-.38-1.15-.9-.96a.7.7 0 0 0-.43.83l-3.99 1.46a.7.7 0 0 0-.87-.36c-.51.2-.67.93-.06 1.32"/><path d="M52.16 34.95c.38.13.64-.17.57-.45l2.29-.76c.11.27.5.35.72.03.14-.4-.2-.66-.49-.57a.4.4 0 0 0-.26.47l-2.28.76a.4.4 0 0 0-.49-.22c-.3.1-.4.51-.06.74M35.33 8.21c.18.58.79.62 1.08.28l3.04 2.15c-.23.39.02.94.63.93.6-.2.64-.85.25-1.13a.6.6 0 0 0-.82.1L36.48 8.4a.6.6 0 0 0-.18-.8c-.39-.28-1-.03-.97.6m-23.6 28.92c.18-.5-.22-.87-.6-.79l-.96-3.16c.37-.15.5-.67.06-1-.53-.2-.91.25-.79.66.08.27.36.42.63.37l.95 3.16c-.25.1-.4.39-.31.66.12.4.69.56 1.02.1"/><path d="M36.85 9.5c.46.48 1.08.25 1.21-.22l4 .72c-.04.49.46.92 1.06.62.51-.46.24-1.13-.27-1.23a.67.67 0 0 0-.76.48l-4-.72a.67.67 0 0 0-.55-.71c-.52-.1-1 .44-.69 1.06m-20.65.14c-.47-.35-.96-.06-1 .37h-3.53c-.04-.43-.53-.72-1-.37-.36.48-.03 1 .43 1 .3 0 .54-.23.57-.52h3.53c.03.3.27.52.57.52.46 0 .8-.52.43-1m10.1-3c.42.16.74-.18.67-.51l2.7-.78c.13.31.57.43.85.06.17-.45-.2-.78-.55-.68a.46.46 0 0 0-.32.53l-2.7.78a.46.46 0 0 0-.56-.27c-.35.1-.48.58-.1.86m24 27.82c-.2-.46-.7-.45-.91-.14l-2.7-1.5c.16-.35-.1-.78-.6-.72-.48.21-.45.76-.1.95a.5.5 0 0 0 .66-.15l2.69 1.5a.5.5 0 0 0 .21.64c.35.2.83-.06.76-.58m-6.7.41c.58-.3.53-.95.12-1.2l1.74-3.6c.45.17 1-.19.87-.83-.31-.61-1.01-.53-1.24-.06-.15.3-.03.67.25.84l-1.74 3.6a.65.65 0 0 0-.81.32c-.23.47.14 1.07.81.93m-7.87 1.74c.34.34.78.16.87-.18l2.92.44c-.02.35.35.66.78.43.36-.35.15-.83-.23-.89a.48.48 0 0 0-.54.37l-2.92-.44a.48.48 0 0 0-.4-.5c-.38-.07-.73.33-.48.77m3.02-30.02c.36.26.74.04.77-.3h2.74c.04.34.42.56.78.3.28-.38.02-.79-.33-.79a.45.45 0 0 0-.45.41h-2.74a.45.45 0 0 0-.44-.4c-.36 0-.62.4-.33.78m-6.88 13.84c-.13.71.47 1.11.97.92l1.95 4c-.46.28-.52 1 .13 1.34.74.15 1.16-.52.9-1.04a.73.73 0 0 0-.9-.36l-1.95-4c.32-.19.44-.6.28-.94-.26-.51-1.04-.6-1.38.08"/><path d="M46.32 8.44c-.3-.75-1.1-.76-1.46-.3L40.7 5.56c.26-.53-.1-1.24-.9-1.17-.8.3-.79 1.17-.25 1.5a.8.8 0 0 0 1.07-.2l4.17 2.6a.8.8 0 0 0 .3 1.04c.54.34 1.32-.04 1.24-.88m-16.6 27.63c.31.24.66.04.68-.25h2.44c.03.3.37.5.7.25.25-.33.02-.7-.3-.7a.4.4 0 0 0-.4.37H30.4a.4.4 0 0 0-.4-.36c-.31 0-.54.36-.29.7m17.92-2.44c.42-.42.19-.96-.24-1.07l.5-3.59c.44.02.8-.44.52-.96-.44-.44-1.02-.17-1.09.29a.6.6 0 0 0 .46.66l-.5 3.59a.6.6 0 0 0-.62.5c-.06.47.43.89.97.58m-18.7-8.07c-.46.17-.49.67-.2.9L27.03 29c-.32-.18-.77.04-.74.54.17.5.7.5.93.18a.5.5 0 0 0-.1-.67l1.69-2.54c.22.12.5.06.65-.16.22-.33 0-.82-.52-.79m-.61-1.84c-.58.08-.73.64-.46.98l-2.56 2.5c-.33-.27-.9-.14-1 .44.08.61.7.76 1.03.43a.59.59 0 0 0 .04-.78l2.57-2.5a.6.6 0 0 0 .79-.04c.33-.32.2-.94-.41-1.03m-11.6 5.11c-.5.53-.22 1.2.31 1.32l-.58 4.43c-.54-.01-.99.56-.63 1.2.55.54 1.26.2 1.34-.37a.73.73 0 0 0-.57-.8l.58-4.44c.38 0 .7-.26.75-.64.08-.57-.53-1.08-1.2-.7M7.09 30c.1.57.67.7.99.4l2.6 2.4c-.26.35-.1.9.49.96.6-.1.7-.72.37-1.03a.58.58 0 0 0-.78 0l-2.6-2.4a.58.58 0 0 0-.07-.78c-.34-.31-.94-.15-1 .45m30.82 1.06c.6-.24.6-.87.22-1.15l2-3.33c.43.2.99-.1.92-.73-.24-.62-.93-.6-1.19-.17-.17.28-.1.64.17.84l-2 3.33a.64.64 0 0 0-.83.24c-.26.43.05 1.05.71.97m15.93-4.46c-.68.18-.79.87-.42 1.23l-2.72 3.34c-.43-.29-1.09-.05-1.12.66.17.72.93.8 1.28.38a.7.7 0 0 0-.05-.95l2.72-3.34c.3.2.7.15.94-.14.35-.43.1-1.16-.63-1.18"/><path d="M48.37 4.46c-.7-.3-1.25.23-1.17.8l-4.55 1.08c-.18-.53-.9-.76-1.4-.17-.32.73.27 1.31.86 1.17.39-.1.63-.47.58-.85l4.54-1.1c.13.37.52.6.9.5.6-.14.86-.92.24-1.43m-24.68 9c.82-.08 1.05-.87.69-1.35l3.68-3.41c.46.4 1.25.23 1.4-.58-.08-.86-.94-1.09-1.41-.64a.82.82 0 0 0-.1 1.1L24.27 12a.82.82 0 0 0-1.1.01c-.49.44-.32 1.32.52 1.46m21.8 12.4c-.25.37 0 .74.32.75l.13 2.72c-.33.04-.54.43-.26.78.39.26.78-.01.76-.36a.45.45 0 0 0-.42-.43l-.12-2.71c.22-.03.4-.23.38-.46-.01-.35-.43-.59-.79-.3"/><path d="M50.5 4.98c-.7-.28-1.23.27-1.13.82l-4.44 1.26c-.2-.52-.93-.71-1.4-.11-.29.73.32 1.28.9 1.12.38-.11.6-.49.54-.87l4.44-1.26c.14.36.53.56.91.46.58-.17.81-.95.18-1.42m-.45 20.58c-.74.22-.82 1-.4 1.37l-2.79 3.83c-.5-.3-1.2 0-1.2.78.23.78 1.07.84 1.43.34a.78.78 0 0 0-.11-1.04l2.8-3.82c.34.2.78.12 1.02-.2.37-.5.06-1.28-.75-1.26M26.27 31.3c-.24.31-.04.64.24.67v2.35c-.28.03-.48.36-.24.67.32.25.67.02.67-.28a.4.4 0 0 0-.35-.39v-2.35a.4.4 0 0 0 .35-.39c0-.3-.35-.52-.67-.28"/><path d="M26.33 32.83c.31-.3.16-.71-.16-.8l.45-2.64c.33.03.6-.3.4-.7-.3-.33-.74-.15-.8.2-.04.22.1.43.32.5l-.45 2.63a.44.44 0 0 0-.46.36c-.06.34.29.66.7.45m-12.68-20c-.17-.48-.67-.5-.9-.2l-2.57-1.67c.17-.33-.05-.78-.55-.74-.5.17-.5.72-.17.93.22.14.5.1.67-.1l2.57 1.65a.5.5 0 0 0 .17.66c.33.21.82-.01.78-.54M35.57 3c-.27.55.13 1 .58.96l.7 3.64c-.44.12-.64.69-.2 1.1.57.28 1.05-.16.96-.64a.6.6 0 0 0-.65-.48l-.7-3.64a.6.6 0 0 0 .43-.7c-.09-.47-.7-.71-1.12-.24m-18.8 4.34c.24.37.67.3.82 0l2.53.95c-.09.31.19.66.61.53.4-.24.3-.71-.03-.83a.44.44 0 0 0-.55.22l-2.53-.95a.44.44 0 0 0-.28-.53c-.32-.12-.7.16-.57.6m14.2-5.68c-.36.25-.27.68.02.82l-.87 2.55c-.32-.07-.65.21-.52.63.26.39.72.28.84-.05a.44.44 0 0 0-.24-.55l.87-2.56c.22.06.45-.06.53-.28.11-.33-.19-.7-.63-.56"/><path d="M26.7 30.1c-.74.15-.89.9-.5 1.3l-3.1 3.48c-.45-.33-1.17-.1-1.23.66.15.78.96.91 1.36.46a.76.76 0 0 0-.01-1.02l3.08-3.48c.32.23.76.2 1.02-.1.4-.46.18-1.25-.62-1.3m5.7 2.9c.5-.4.33-1-.1-1.17l1.03-3.73c.46.08.91-.35.68-.94-.4-.53-1.05-.33-1.19.15-.08.32.09.65.39.76l-1.03 3.73a.63.63 0 0 0-.72.45c-.14.49.32 1 .94.74m3.85-10.48c-.2-.6-.8-.65-1.11-.3L32.04 20c.23-.4-.03-.97-.65-.96-.62.2-.66.87-.26 1.16.27.18.63.14.84-.1l3.1 2.2a.62.62 0 0 0 .17.83c.4.29 1.03.03 1-.62M31.7 3.99c.31.6.98.53 1.24.1l3.71 1.78c-.17.47.2 1.03.86.9.63-.32.55-1.05.06-1.28a.67.67 0 0 0-.86.27l-3.72-1.78a.67.67 0 0 0-.34-.84c-.48-.23-1.1.16-.95.85M41 31.32c-.14.47.24.77.59.68l1.03 2.78c-.32.16-.4.63 0 .9.49.15.8-.27.67-.63a.49.49 0 0 0-.58-.3l-1.04-2.78a.48.48 0 0 0 .25-.61c-.14-.36-.65-.47-.92-.04m17.55-1.5c-.47-.66-1.25-.48-1.48.07l-4.7-1.47c.12-.58-.42-1.17-1.18-.9-.69.48-.46 1.32.15 1.51a.8.8 0 0 0 .98-.46l4.7 1.47a.8.8 0 0 0 .55.94c.6.19 1.27-.38.98-1.17"/><path d="M41.81 3.67c-.58-.43-1.2-.06-1.25.47h-4.44c-.05-.53-.67-.9-1.25-.47-.47.6-.05 1.27.53 1.27.38 0 .69-.29.72-.66h4.44c.03.37.34.66.72.66.57 0 1-.66.53-1.27M13.16 36.91c.48-.15.53-.63.25-.88l1.8-2.42c.31.19.76 0 .76-.5-.14-.5-.68-.53-.9-.22a.5.5 0 0 0 .06.66l-1.8 2.43a.5.5 0 0 0-.64.12c-.24.32-.04.82.47.8m22.25-20.4c.78-.07 1-.81.66-1.27L39.6 12c.43.4 1.19.23 1.33-.54-.07-.81-.88-1.03-1.34-.62a.78.78 0 0 0-.1 1.05l-3.52 3.23a.78.78 0 0 0-1.05 0c-.46.41-.31 1.25.5 1.39m20.11 8.53c-.37.32-.22.78.13.9l-.65 2.9c-.36-.04-.69.31-.49.75.33.4.82.22.9-.16a.49.49 0 0 0-.32-.57l.65-2.9a.5.5 0 0 0 .53-.39c.09-.37-.29-.74-.75-.53m-28.4-9c-.54-.42-1.14-.08-1.19.43l-4.22-.02c-.04-.51-.63-.87-1.19-.46-.44.57-.04 1.2.5 1.21a.7.7 0 0 0 .7-.62l4.21.02a.7.7 0 0 0 .68.64c.55 0 .95-.63.52-1.2m4.43-7.17c.46 0 .63-.42.45-.7l2.24-1.69c.23.26.68.2.81-.23 0-.48-.45-.66-.74-.44-.2.14-.24.4-.12.6L31.97 8.1a.46.46 0 0 0-.61-.06c-.3.22-.25.71.2.84M22.3 20.4c-.14-.37-.53-.38-.71-.15l-2.03-1.27c.13-.26-.05-.6-.45-.58-.38.15-.38.57-.11.74.17.1.4.06.52-.1l2.03 1.27a.4.4 0 0 0 .14.51c.26.17.65-.02.6-.42"/><path d="M31.24 10.07c.2.82 1.02.95 1.46.52l3.95 3.3c-.35.52-.07 1.3.77 1.36.86-.2.98-1.1.47-1.53a.84.84 0 0 0-1.13.05l-3.95-3.3a.84.84 0 0 0-.15-1.13c-.51-.43-1.38-.15-1.42.73m8.61 6.72c-.38-.15-.67.15-.61.45l-2.43.7c-.12-.28-.52-.38-.77-.05-.15.4.18.7.5.61.2-.06.33-.27.29-.48l2.43-.7c.08.2.3.3.5.25.32-.1.44-.53.1-.78m.27-12.96c.7.3 1.25-.24 1.16-.8l4.53-1.12c.19.53.92.75 1.4.16.32-.73-.27-1.3-.86-1.16a.76.76 0 0 0-.57.86L41.26 2.9a.76.76 0 0 0-.9-.5c-.59.15-.85.94-.23 1.44M37.4 30.6c-.6-.07-.9.46-.72.87l-3.23 1.87c-.26-.37-.87-.38-1.11.19-.09.63.5.94.92.7.27-.16.38-.5.25-.79l3.23-1.86c.18.25.53.33.8.17.42-.24.45-.9-.14-1.15m-23.55 3.86c.35.52.95.4 1.14-.02l3.56 1.25c-.1.45.29.92.88.73.54-.35.4-1-.07-1.17a.62.62 0 0 0-.77.33l-3.56-1.25a.62.62 0 0 0-.4-.73c-.46-.17-.98.25-.78.86M31.18 5.33c-.54 0-.75.49-.55.83l-2.67 1.93c-.26-.3-.8-.25-.95.26-.02.56.52.78.87.53a.54.54 0 0 0 .14-.71l2.67-1.93c.18.21.5.25.72.09.35-.25.3-.83-.23-1"/><path d="M30.83 8.93c.14.4.56.42.76.18l2.12 1.44c-.15.27.03.65.45.63.41-.14.43-.6.15-.78a.42.42 0 0 0-.56.08l-2.12-1.44a.42.42 0 0 0-.13-.55c-.28-.18-.7 0-.67.44M46.5 21.45c.14-.82-.56-1.26-1.14-1.03l-2.32-4.53c.52-.34.57-1.16-.18-1.53-.86-.16-1.31.62-1.01 1.2.2.4.65.55 1.05.4l2.32 4.53c-.36.23-.5.7-.3 1.08.3.59 1.2.67 1.58-.12M38 12.42c.06-.53-.4-.78-.77-.6l-1.69-2.8c.32-.24.32-.78-.18-.98-.56-.06-.82.46-.6.82.15.24.45.32.7.2l1.69 2.8a.54.54 0 0 0-.14.71c.21.36.8.38 1-.15M22.82 30.87c.4-.44.15-.98-.28-1.06l.37-3.62c.44 0 .8-.48.49-.99-.45-.42-1.03-.14-1.08.33a.6.6 0 0 0 .48.65l-.37 3.62a.6.6 0 0 0-.6.53c-.05.47.46.87.99.54m-.07-11.9c.08-.81-.63-1.2-1.17-.94l-2.56-4.24c.48-.36.48-1.17-.28-1.47-.84-.1-1.23.69-.9 1.24a.8.8 0 0 0 1.05.3l2.56 4.25a.81.81 0 0 0-.22 1.08c.34.55 1.21.56 1.52-.23m-10.83 9.35c.48.36.99.06 1.03-.38l3.64.01c.04.44.55.75 1.03.4.38-.5.03-1.05-.44-1.05a.6.6 0 0 0-.6.54l-3.63-.01a.6.6 0 0 0-.59-.54c-.47 0-.82.54-.44 1.03m28.54-.56c-.07.47.33.72.66.58l1.36 2.57c-.3.2-.32.67.1.87.5.08.76-.36.58-.7a.48.48 0 0 0-.6-.21l-1.36-2.57c.2-.13.28-.4.16-.62-.18-.33-.69-.37-.9.08"/><path d="M22.21 30.1c-.28.37-.04.78.3.81v2.87c-.34.03-.58.43-.3.8.39.3.82.04.82-.33a.47.47 0 0 0-.43-.47V30.9a.47.47 0 0 0 .43-.47c0-.37-.43-.64-.82-.34m5.56-11.48c-.45-.02-.64.39-.48.68l-2.27 1.54c-.21-.25-.66-.23-.8.2-.03.47.41.66.7.46.2-.13.26-.39.15-.59l2.27-1.54c.14.18.4.22.6.09.3-.2.27-.69-.17-.84M11.3 37.26c.38.14.65-.15.6-.45l2.38-.7c.11.28.5.38.75.05.15-.4-.18-.69-.49-.6a.4.4 0 0 0-.28.47l-2.39.7a.4.4 0 0 0-.49-.23c-.3.09-.43.51-.08.76m36.4-30.1c-.53-.22-.94.18-.88.6l-3.41.83c-.14-.4-.69-.57-1.06-.13-.24.55.2.98.65.88.3-.07.47-.36.43-.65l3.42-.82c.1.27.39.44.68.37.44-.1.64-.7.17-1.07M35.57 30.46c-.4-.09-.62.24-.53.52l-2.22 1c-.15-.26-.55-.3-.74.04-.1.41.26.65.55.52a.4.4 0 0 0 .22-.5l2.23-1c.1.18.32.26.5.18.3-.13.36-.56-.01-.76m-28.8 7.23c.54-.21.55-.78.2-1.04l1.82-3c.39.19.89-.08.83-.65-.22-.56-.84-.55-1.07-.16a.57.57 0 0 0 .15.76l-1.82 3a.57.57 0 0 0-.74.21c-.24.4.04.95.64.88M24.03 6.4c.43-.37.26-.91-.14-1.04l.76-3.4c.42.06.8-.35.57-.87-.38-.46-.96-.25-1.06.19-.06.29.1.57.38.66l-.76 3.4a.57.57 0 0 0-.63.43c-.1.44.34.88.88.63"/><path d="M26.22 8.57c.14-.55-.32-.89-.72-.76l-1.35-3.2c.37-.2.44-.76-.05-1.04-.57-.15-.92.35-.75.77.12.27.42.4.7.32l1.35 3.2a.57.57 0 0 0-.25.71c.17.42.78.52 1.07 0m-3 3.76c-.37.32-.22.77.12.88l-.63 2.86c-.35-.04-.68.3-.48.74.32.39.81.2.9-.16a.48.48 0 0 0-.33-.56l.63-2.86c.24.03.47-.13.53-.37.08-.37-.3-.74-.74-.53m8.75 15.94c.2.52.75.54 1 .21l2.86 1.83c-.18.37.07.86.62.82.55-.2.55-.8.18-1.04a.56.56 0 0 0-.74.13l-2.86-1.83a.56.56 0 0 0-.2-.72c-.37-.24-.91.02-.86.6m22.32 5.93c.35-.22.28-.62 0-.76l.9-2.34c.3.08.62-.17.5-.57-.22-.36-.65-.28-.77.03a.4.4 0 0 0 .2.51l-.9 2.34a.41.41 0 0 0-.49.25c-.11.3.15.66.56.54m4.84-3.63c.62-.28.6-.96.18-1.24l2-3.67c.46.2 1.05-.14.95-.82-.29-.65-1.03-.6-1.29-.13-.17.3-.07.7.22.89l-2 3.66a.68.68 0 0 0-.87.3c-.26.48.1 1.12.8 1.01m-15.7-16.14c.14-.68-.43-1.06-.91-.88l-1.85-3.8c.44-.28.5-.96-.12-1.28-.71-.15-1.1.5-.87.98a.7.7 0 0 0 .87.35l1.85 3.8a.7.7 0 0 0-.27.9c.24.5.98.58 1.3-.07M26.68 31.25c-.31-.29-.7-.12-.75.18l-2.55-.29c0-.3-.32-.56-.69-.35-.3.32-.1.73.23.76.21.03.4-.12.45-.33l2.55.3c0 .2.15.4.37.42.33.04.61-.32.39-.7"/><path d="M28.56 4c-.4-.1-.65.2-.57.5l-2.34.84c-.12-.27-.52-.35-.74 0-.13.4.21.67.52.56a.4.4 0 0 0 .25-.49l2.33-.84c.1.19.31.28.51.2.3-.1.4-.53.04-.76m10.79 3.15c.13.84.95 1.04 1.44.64l3.72 3.65c-.4.5-.18 1.31.67 1.43.88-.13 1.08-1.03.6-1.5a.85.85 0 0 0-1.16-.05L40.9 7.68a.85.85 0 0 0-.06-1.15c-.49-.47-1.39-.26-1.5.63m-29.28-.72c.39.19.7-.1.68-.41l2.57-.49c.09.3.49.45.78.13.2-.4-.12-.74-.45-.67a.43.43 0 0 0-.35.46l-2.57.49a.43.43 0 0 0-.5-.3c-.32.06-.5.5-.16.79m13.6 9.98c-.58.43-.41 1.13.08 1.33l-1.29 4.22c-.52-.1-1.05.37-.81 1.05.44.62 1.2.41 1.36-.13a.72.72 0 0 0-.42-.88l1.3-4.22a.7.7 0 0 0 .83-.5c.17-.54-.34-1.13-1.05-.87m3.37 7.3c.61.45 1.27.06 1.32-.5h4.7c.05.56.71.95 1.33.5.49-.65.04-1.35-.57-1.35-.4 0-.72.3-.76.7h-4.7a.77.77 0 0 0-.76-.7c-.6 0-1.05.7-.56 1.34"/><path d="M44.25 9.06c-.3.25-.19.63.09.73l-.59 2.35c-.29-.04-.57.24-.41.6.26.33.66.2.74-.1a.4.4 0 0 0-.25-.48l.58-2.35c.2.03.4-.1.45-.3.07-.3-.23-.61-.6-.45M12.8 25.65c-.03-.43-.43-.57-.69-.39l-1.7-1.98c.22-.23.15-.65-.27-.75-.45.03-.59.47-.37.73.15.17.4.2.58.07l1.7 1.99a.43.43 0 0 0-.02.57c.22.26.68.2.77-.24m40.86 11.04c.14-.58-.34-.93-.77-.8l-1.46-3.35c.39-.22.46-.81-.06-1.1-.6-.16-.97.38-.78.81a.6.6 0 0 0 .74.33l1.46 3.36a.6.6 0 0 0-.26.77c.19.43.83.53 1.13-.02M14.11 20.82c.56-.12.66-.68.37-.98l2.27-2.6c.34.24.88.07.92-.5-.12-.58-.72-.67-1.02-.33a.57.57 0 0 0 .02.76l-2.27 2.6a.57.57 0 0 0-.76.08c-.3.34-.12.93.47.97m26-19.86c-.48.44-.26 1.05.2 1.18l-.74 3.9c-.48-.04-.9.45-.62 1.03.45.5 1.1.25 1.2-.26a.65.65 0 0 0-.46-.74l.74-3.9c.33.02.64-.2.7-.53.1-.5-.42-.99-1.02-.68m4.14 35.96c-.4-.31-.82-.07-.87.3l-3.04-.1c-.02-.36-.44-.63-.85-.34-.32.4-.05.87.34.88a.5.5 0 0 0 .51-.44l3.04.09a.5.5 0 0 0 .48.46c.4.01.7-.43.39-.85m-8.57-2.22c.39-.08.46-.46.27-.68l1.62-1.8c.23.18.6.06.65-.33-.08-.4-.5-.48-.71-.25a.4.4 0 0 0 0 .54l-1.62 1.79a.4.4 0 0 0-.53.05c-.21.23-.1.64.32.68M23.75 19.9c-.8-.15-1.26.54-1.04 1.1l-4.5 2.23c-.33-.52-1.14-.58-1.51.15-.17.84.59 1.3 1.17 1.02a.82.82 0 0 0 .4-1.03l4.51-2.22a.8.8 0 0 0 1.06.3c.59-.28.68-1.17-.1-1.55m15.17 15.33c.4 0 .55-.37.39-.62l1.92-1.5c.2.22.6.17.7-.22 0-.41-.41-.56-.66-.37a.4.4 0 0 0-.09.53l-1.92 1.5a.4.4 0 0 0-.53-.04c-.25.19-.21.62.2.72m12.55-7.06c-.16.74.45 1.17.98 1l1.88 4.2c-.48.27-.57 1.01.1 1.38.76.18 1.2-.5.97-1.04a.75.75 0 0 0-.94-.4l-1.88-4.2c.34-.2.48-.61.32-.97-.24-.55-1.05-.66-1.43.03m-3.92 6.38c.1-.43-.27-.68-.58-.57l-1.13-2.45c.28-.17.33-.6-.06-.81-.45-.1-.71.3-.57.61.1.21.34.3.55.23l1.14 2.45a.44.44 0 0 0-.18.57c.14.32.62.38.83-.03"/><path d="M35 3.6c.79.28 1.35-.33 1.22-.94l4.88-1.5c.23.57 1.04.76 1.53.09.3-.82-.38-1.4-1.01-1.21a.84.84 0 0 0-.57.97l-4.88 1.5a.84.84 0 0 0-1.01-.48c-.63.2-.87 1.07-.16 1.57m10.24 31.8c.06-.46-.33-.7-.65-.57l-1.36-2.52c.29-.19.3-.65-.11-.85-.49-.08-.74.36-.56.69.11.21.37.3.6.2l1.35 2.52c-.2.14-.27.4-.15.61.17.33.68.36.88-.08m-7.45-1.28c-.37-.15-.64.14-.6.43l-2.34.63c-.1-.27-.48-.38-.73-.06-.16.38.16.67.46.59a.4.4 0 0 0 .3-.45l2.34-.64c.07.19.28.3.48.24.3-.08.43-.49.1-.74m-3.82-15.94c.08.7.75.89 1.16.57l2.94 3.09c-.34.39-.19 1.07.5 1.18.73-.07.91-.8.53-1.2a.7.7 0 0 0-.94-.07l-2.94-3.1a.7.7 0 0 0-.01-.94c-.39-.4-1.13-.25-1.24.47m-8.51 13.07c.16.53.7.59.98.28l2.72 2.01c-.21.36 0 .86.55.86.56-.16.6-.76.25-1.02a.55.55 0 0 0-.74.08l-2.72-2.01a.55.55 0 0 0-.14-.73c-.35-.26-.91-.05-.9.53m23.05-7.2c-.43.57-.08 1.18.45 1.23l-.05 4.33c-.53.05-.9.65-.47 1.22.58.46 1.23.06 1.24-.5a.7.7 0 0 0-.64-.71l.05-4.33a.71.71 0 0 0 .65-.7c0-.56-.64-.98-1.23-.54"/><path d="M24.02 30.39c.63.44 1.27.04 1.31-.53l4.7-.12c.07.57.74.94 1.34.46.47-.65.01-1.34-.6-1.32a.77.77 0 0 0-.74.71l-4.7.12a.77.77 0 0 0-.78-.68c-.61.02-1.04.73-.53 1.36m-12.83-1.03c-.38.46-.1.97.33 1.03l-.16 3.57c-.43.03-.75.51-.42 1 .47.39 1.02.08 1.04-.39a.59.59 0 0 0-.51-.6l.16-3.58c.3-.01.54-.25.56-.55.02-.47-.5-.83-1-.48m23.55-1.03c.62-.02.84-.61.58-1l2.99-2.42c.33.34.94.24 1.1-.36-.02-.66-.66-.88-1.05-.57-.25.2-.3.57-.13.84l-2.98 2.42a.63.63 0 0 0-.85-.05c-.38.31-.3.99.34 1.14M41.86 9.5c-.7-.04-1 .58-.76 1.04l-3.55 2.34c-.32-.4-1.01-.36-1.25.3-.05.72.64 1.03 1.1.72.3-.2.4-.6.23-.9l3.54-2.35a.7.7 0 0 0 .93.14c.46-.3.44-1.05-.24-1.29m-.75 29.41c.07.48.53.61.81.39L44 41.43c-.23.28-.12.75.36.83.5-.06.63-.57.36-.85a.49.49 0 0 0-.65-.04L42 39.23a.49.49 0 0 0-.02-.65c-.27-.28-.78-.17-.86.33m21 10.01c-.82-.1-1.22.61-.97 1.17l-4.35 2.5c-.35-.49-1.17-.5-1.5.26-.1.85.68 1.26 1.24.94a.84.84 0 0 0 .34-1.06l4.35-2.5c.24.34.7.45 1.08.23.56-.32.6-1.21-.2-1.54m-8.75-4.89c.48-.25.43-.79.08-1l1.43-2.99c.37.14.82-.16.71-.7-.25-.5-.84-.43-1.02-.04a.54.54 0 0 0 .21.7l-1.42 3a.54.54 0 0 0-.68.27c-.18.39.13.88.69.76m2.62-6c-.12-.39-.52-.42-.72-.2l-1.98-1.43c.15-.26-.01-.62-.41-.62-.4.12-.43.56-.17.74.17.13.4.1.53-.06l1.99 1.43a.4.4 0 0 0 .11.53c.26.19.66.03.65-.4m-7.72.62c.36.23.7 0 .71-.32l2.6-.2c.05.31.43.5.75.22.24-.37-.03-.74-.37-.71a.43.43 0 0 0-.4.41l-2.58.2a.43.43 0 0 0-.45-.36c-.34.03-.55.43-.26.76"/><path d="M50.13 38.6c.67-.46.5-1.25-.04-1.5l1.6-4.7c.59.14 1.2-.39.95-1.16-.47-.71-1.33-.5-1.53.1a.8.8 0 0 0 .44 1l-1.61 4.71a.82.82 0 0 0-.96.53c-.21.61.34 1.3 1.15 1.02"/><path d="M52.07 41.13c-.19-.46-.68-.47-.9-.17l-2.57-1.59c.17-.32-.06-.76-.55-.71-.49.18-.48.71-.15.92.22.13.5.08.66-.13l2.56 1.59a.5.5 0 0 0 .19.64c.33.2.8-.04.76-.55m3.53-4.42c-.56.2-.6.77-.26 1.05l-2.02 2.94c-.38-.21-.9.03-.88.62.19.58.82.6 1.08.22a.58.58 0 0 0-.1-.78l2-2.94c.27.14.6.07.77-.18.27-.38.02-.96-.6-.93m-7.17-1.24c.14.5.65.56.91.28l2.5 1.95c-.21.32-.02.8.5.81.52-.14.57-.7.25-.95a.52.52 0 0 0-.7.06l-2.49-1.95a.52.52 0 0 0-.11-.68c-.33-.26-.86-.07-.86.48"/></g></svg>