<svg xmlns="http://www.w3.org/2000/svg" xml:space="preserve" viewBox="0 0 29.61 39.92"><g fill="#231f20"><path d="M18.56 30.16c.07.5.54.62.82.38l2.13 2.14c-.24.28-.12.76.37.83.51-.07.63-.59.36-.86a.5.5 0 0 0-.67-.04l-2.12-2.13a.5.5 0 0 0-.03-.67c-.27-.27-.8-.16-.86.35m4.7-4.47c-.53.17-.57.72-.26.98l-1.92 2.77c-.36-.2-.86.02-.84.57.18.55.77.58 1.02.22a.55.55 0 0 0-.1-.73l1.93-2.76c.25.13.56.07.73-.17.24-.36.01-.9-.56-.88m-6.47 3.22c-.23.31-.03.64.25.67v2.36c-.28.03-.48.36-.25.67.33.24.68.02.68-.28a.4.4 0 0 0-.35-.39v-2.36c.2-.02.35-.18.35-.38 0-.3-.35-.53-.68-.29m12 10.6c.32-.77-.27-1.36-.88-1.26l-1.29-4.97c.59-.21.82-1.01.17-1.54-.81-.34-1.44.32-1.27.96.11.43.52.69.95.62l1.28 4.97a.84.84 0 0 0-.53 1c.17.64 1.03.92 1.58.23m-7.54-11.6c-.05-.5-.53-.65-.83-.43l-2.1-2.32c.27-.28.17-.78-.34-.88-.53.04-.68.58-.4.88.17.2.47.22.68.06l2.08 2.33a.51.51 0 0 0 0 .68c.27.3.81.21.91-.31"/><path d="M20.22 26.21c-.3-.37-.75-.23-.87.1l-2.82-.71c.05-.35-.28-.68-.72-.5-.39.3-.23.8.13.89.25.06.49-.07.57-.3l2.82.7c-.04.25.1.48.35.54.36.1.74-.26.54-.72m4.19-19.17c-.71.28-.73 1.04-.28 1.38l-2.46 3.96c-.51-.25-1.18.1-1.12.86.28.75 1.1.74 1.43.23a.76.76 0 0 0-.19-1.01l2.46-3.96c.35.17.78.06 1-.28.31-.51-.05-1.25-.84-1.18m-7.1-1.17c.35.26.73.04.76-.29h2.72c.03.33.41.55.77.29.28-.37.02-.78-.33-.78a.44.44 0 0 0-.44.4h-2.72a.44.44 0 0 0-.44-.4c-.35 0-.61.4-.33.78"/><path d="M18.7 26.36c.38-.62-.04-1.2-.57-1.2l-.41-4.37c.52-.1.83-.75.35-1.28-.64-.4-1.26.07-1.2.64.03.37.35.65.71.65l.4 4.38a.72.72 0 0 0-.58.77c.06.57.75.92 1.3.4m-2.37-2.43c-.34.26-.24.68.06.8l-.74 2.56c-.32-.07-.63.23-.48.64.27.37.72.24.82-.1a.44.44 0 0 0-.26-.52l.74-2.55c.22.04.44-.1.5-.31.1-.33-.21-.68-.64-.52m4.4-8.12c.3-.4.04-.8-.32-.84v-2.99c.36-.03.61-.45.32-.84-.4-.31-.85-.03-.85.36 0 .25.2.46.44.48v2.99a.49.49 0 0 0-.44.48c0 .39.44.67.85.36M20.99.05c-.36.28-.24.73.08.85l-.76 2.73c-.34-.06-.68.26-.5.7.28.38.76.24.86-.12a.46.46 0 0 0-.28-.56l.76-2.73c.24.05.47-.1.53-.33.1-.35-.24-.72-.69-.54m3.96 17.99c-.72.18-.82.91-.43 1.3l-2.86 3.54c-.46-.3-1.16-.05-1.18.7.18.75.98.85 1.35.39a.75.75 0 0 0-.06-1l2.86-3.54c.32.2.75.15 1-.15.36-.46.1-1.22-.68-1.24m4.31-4.62c-.32-.24-.66-.04-.7.26h-2.44c-.03-.3-.38-.5-.7-.26-.25.33-.02.7.3.7a.4.4 0 0 0 .4-.37h2.45c.02.2.19.37.4.37.31 0 .55-.37.3-.7M5.31 11.56c.24-.37 0-.72-.33-.73L4.8 8.17c.32-.06.51-.44.23-.78-.38-.25-.77.03-.74.38.01.22.2.4.42.4l.19 2.66a.44.44 0 0 0-.37.46c.03.35.44.57.78.27M.17 16.29c.41.24.79-.05.78-.4l2.9-.32c.07.35.5.54.85.22.25-.43-.07-.83-.44-.79a.48.48 0 0 0-.43.48l-2.89.32a.48.48 0 0 0-.51-.38c-.38.04-.6.5-.26.87m15.25-14.9c-.5.23-.48.78-.14 1l-1.62 2.93c-.37-.16-.84.11-.77.65.23.53.82.5 1.03.11a.55.55 0 0 0-.17-.71l1.62-2.93c.25.12.56.02.7-.23.2-.38-.08-.9-.65-.81"/><path d="M20.88 17.94c-.41.1-.48.51-.26.74l-1.67 2c-.26-.18-.66-.03-.68.4.1.43.55.49.77.23a.43.43 0 0 0-.03-.58l1.68-2c.18.12.42.1.57-.08.21-.26.07-.7-.38-.71m-1.94-5.6c.36-.47.06-.98-.38-1.02V7.67c.44-.04.74-.55.38-1.03-.5-.38-1.04-.03-1.04.44 0 .31.24.56.54.6v3.64a.6.6 0 0 0-.54.59c0 .47.55.82 1.04.44m6.9 9.52c.14-.37-.15-.65-.44-.6l-.64-2.33c.28-.1.38-.48.07-.73-.38-.15-.67.17-.59.47.06.2.25.32.45.28l.64 2.33a.4.4 0 0 0-.24.48c.08.3.5.42.74.1M11.08 11.83c.34-.46.05-.94-.37-.98V7.37c.42-.04.7-.53.37-.99-.48-.36-1-.03-1 .42 0 .3.23.54.52.57v3.48a.57.57 0 0 0-.52.56c0 .45.52.78 1 .42"/><path d="M20.33 23.03c.12-.41-.21-.67-.52-.6l-.9-2.42c.28-.13.35-.55 0-.78-.42-.13-.7.24-.58.55.07.21.3.32.5.26l.9 2.42a.43.43 0 0 0-.2.53c.11.32.56.41.8.04m-1.33-.2c-.42.03-.55.43-.37.69l-1.95 1.7c-.23-.22-.65-.14-.74.27.03.44.47.58.72.36.17-.15.2-.4.07-.57l1.95-1.7c.16.15.4.16.58.01.25-.22.18-.67-.26-.76m3.83-.1c-.41-.05-.61.32-.48.6l-2.2 1.3c-.2-.25-.6-.25-.77.13-.05.44.35.64.64.48a.42.42 0 0 0 .16-.54l2.2-1.3c.13.17.37.22.56.11.28-.16.3-.62-.1-.78M17.1 10.66c-.31-.24-.64-.04-.67.25h-2.36c-.03-.29-.36-.49-.67-.25-.25.32-.03.67.28.67a.4.4 0 0 0 .39-.35h2.36c.02.2.18.35.39.35.3 0 .53-.35.28-.67"/><path d="M19.92 16.32c-.35.15-.35.53-.12.7l-1.17 2.01c-.26-.12-.6.07-.55.45.15.37.57.35.72.09a.38.38 0 0 0-.11-.5l1.17-2.02c.18.08.4.02.5-.16.15-.26-.05-.62-.44-.57m4.1-2.46c-.1-.44-.53-.53-.77-.3l-2.01-1.82c.2-.26.06-.69-.38-.73-.46.09-.54.56-.28.8.17.15.43.15.6 0l2.02 1.8a.44.44 0 0 0 .05.6c.27.24.73.1.76-.35m4.88-5.73c-.56-.42-1.16-.07-1.21.45h-4.27c-.05-.52-.65-.87-1.21-.45-.45.58-.04 1.22.51 1.22a.7.7 0 0 0 .7-.64h4.27a.7.7 0 0 0 .7.64c.55 0 .95-.64.5-1.22"/><path d="M23.96 19.84c.34-.6-.09-1.15-.6-1.13l-.57-4.2c.5-.12.77-.75.29-1.25-.63-.36-1.2.12-1.14.67a.7.7 0 0 0 .72.6l.57 4.2a.7.7 0 0 0-.53.77c.07.54.75.85 1.26.34M7.92 27c.8.08 1.17-.61.91-1.14l4.16-2.5c.35.48 1.13.47 1.44-.26.09-.83-.68-1.21-1.21-.89a.8.8 0 0 0-.31 1.02l-4.15 2.5a.8.8 0 0 0-1.05-.21c-.54.32-.56 1.18.21 1.48m.8-3.94c-.38-.2-.7.07-.68.38l-2.54.4c-.08-.3-.46-.45-.76-.15-.2.39.1.73.42.68a.42.42 0 0 0 .35-.45l2.54-.4c.05.2.26.35.47.31.33-.05.5-.47.2-.77m10.05-6.98c-.43-.25-.82.04-.81.4l-2.99.34c-.07-.35-.52-.55-.88-.21-.26.44.07.85.46.8a.5.5 0 0 0 .43-.5l2.99-.33a.5.5 0 0 0 .54.39c.38-.04.61-.52.26-.9m-5.36-2.34c-.36.36-.17.82.2.91l-.47 3.08c-.37-.02-.7.37-.45.82.37.38.87.16.93-.24a.5.5 0 0 0-.38-.57l.46-3.07a.5.5 0 0 0 .53-.43c.06-.4-.36-.76-.82-.5"/><path d="M21.25 12.52c-.65.19-.73.86-.35 1.2l-2.49 3.31c-.42-.26-1.05 0-1.05.68.2.68.93.74 1.25.31a.68.68 0 0 0-.1-.9L21 13.78c.3.18.69.12.9-.17.32-.43.06-1.11-.65-1.1M18.2 22.88c.08-.5-.34-.77-.68-.63l-1.4-2.74c.3-.2.34-.7-.11-.92-.52-.1-.8.37-.62.73.12.23.4.33.64.24l1.4 2.73a.5.5 0 0 0-.18.66c.18.35.72.4.95-.07m1.72-14.83c-.2.35.05.66.34.65l.32 2.43c-.29.06-.44.43-.16.71.36.21.69-.06.65-.38a.4.4 0 0 0-.41-.34l-.32-2.43a.4.4 0 0 0 .3-.44c-.04-.31-.43-.5-.72-.2m5.2 7.26c.2-.6-.27-1.03-.73-.93l-1.2-3.73c.43-.19.58-.8.05-1.18-.63-.23-1.07.3-.92.79.1.32.43.5.75.43l1.2 3.73a.64.64 0 0 0-.36.79c.15.48.83.66 1.2.1M24.2.61c-.6.36-.51 1.05-.05 1.3l-1.67 3.96c-.5-.16-1.06.26-.89.94.37.64 1.12.51 1.33 0a.7.7 0 0 0-.31-.89l1.66-3.96a.7.7 0 0 0 .86-.4c.22-.5-.22-1.13-.93-.94m-8.77 3.9c.8.2 1.29-.48 1.1-1.06l4.64-2.05c.3.54 1.12.64 1.53-.08.2-.85-.54-1.35-1.15-1.09a.83.83 0 0 0-.45 1.03L16.45 3.3a.83.83 0 0 0-1.06-.36c-.6.27-.74 1.16.03 1.57M8.64 20.9c.44-.6.07-1.22-.47-1.27v-4.48c.54-.05.91-.68.47-1.27-.6-.46-1.28-.04-1.28.54 0 .38.3.7.67.73v4.48a.73.73 0 0 0-.67.73c0 .58.67 1 1.28.54m2.79-8.62c-.44.17-.45.63-.18.84l-1.52 2.42c-.31-.15-.73.06-.69.53.17.46.68.46.88.14a.47.47 0 0 0-.12-.62l1.53-2.42c.21.1.48.04.6-.17.2-.3-.02-.77-.5-.72M9 27.5c.25-.34.04-.7-.28-.73v-2.6c.32-.03.53-.4.28-.74-.35-.27-.74-.02-.74.31 0 .22.17.4.38.43v2.6a.43.43 0 0 0-.38.42c0 .34.39.58.74.31"/><path d="M17.65 21.16c-.4-.27-.79 0-.8.36l-2.92.18c-.05-.35-.48-.57-.84-.26-.28.42.02.84.4.81a.48.48 0 0 0 .45-.46l2.92-.18c.03.24.25.42.5.4.37-.02.62-.48.3-.85m-6.9 2.8c.2.63.86.67 1.17.3l3.3 2.3c-.23.42.04 1.02.7 1 .66-.21.69-.92.26-1.22a.66.66 0 0 0-.88.12l-3.3-2.3a.66.66 0 0 0-.2-.87c-.43-.3-1.09-.02-1.05.67m17.7-13.55c-.6-.46-1.25-.07-1.3.49H22.5c-.05-.56-.7-.95-1.31-.5-.49.64-.05 1.33.55 1.33.4 0 .72-.3.76-.69h4.64c.04.39.36.7.76.7.6 0 1.04-.7.56-1.33"/><path d="M14.75 20.4c-.54-.18-.9.25-.8.65l-3.22 1.14c-.18-.38-.72-.49-1.03-.02-.19.55.29.93.7.78.28-.1.43-.39.36-.66L14 21.15c.12.26.42.4.7.3.41-.15.55-.74.06-1.06m-1.84-3.71c-.18-.37-.58-.34-.74-.09l-2.2-1.12c.1-.27-.1-.61-.5-.55-.39.19-.35.62-.06.77.19.1.41.03.52-.15l2.2 1.12a.4.4 0 0 0 .2.51c.28.14.66-.08.58-.5m14.76-2.96c-.11-.52-.62-.6-.9-.34l-2.44-2.1c.23-.31.06-.8-.47-.84-.53.11-.62.67-.3.95.2.17.51.16.7-.03l2.44 2.1a.53.53 0 0 0 .08.7c.32.27.86.1.9-.44m-13.91-1.82c-.25.33-.04.68.26.7v2.5c-.3.04-.5.39-.26.71.34.26.71.03.71-.3a.41.41 0 0 0-.37-.4v-2.5a.4.4 0 0 0 .37-.41c0-.33-.37-.56-.71-.3"/><path d="M15.91 5.3c-.64.35-.56 1.07-.1 1.34l-1.87 4.03c-.5-.18-1.1.23-.95.94.35.68 1.13.58 1.37.05a.73.73 0 0 0-.3-.93l1.88-4.03c.35.12.74-.03.9-.38.24-.52-.18-1.18-.93-1.01m1.67 12.76c-.26.35-.04.72.28.75v2.63c-.32.03-.54.4-.28.75.36.27.75.02.75-.32 0-.22-.17-.4-.4-.43v-2.63c.23-.02.4-.2.4-.43 0-.34-.4-.6-.75-.32m-.93-5.73c.03.44.45.59.72.4l1.76 2.07c-.22.24-.15.67.28.77.47-.02.61-.48.38-.75a.45.45 0 0 0-.6-.08l-1.75-2.07a.45.45 0 0 0 .02-.6c-.23-.26-.7-.2-.8.26M9.06 2.7c-.74.4-.66 1.23-.13 1.54L6.75 8.88c-.58-.2-1.27.26-1.1 1.08.4.78 1.3.67 1.58.07a.84.84 0 0 0-.33-1.08l2.19-4.63c.4.15.85-.03 1.04-.43.28-.6-.2-1.36-1.06-1.18m-2.86 14.1c.07-.6-.45-.9-.86-.71l-1.83-3.2c.37-.25.38-.85-.18-1.09-.62-.08-.92.5-.69.9.16.28.5.38.77.25l1.83 3.2a.6.6 0 0 0-.17.79c.23.4.88.44 1.13-.14"/><path d="M16.5 11.09c-.62.42-.47 1.14.03 1.36l-1.47 4.27c-.53-.12-1.1.35-.87 1.06.43.64 1.2.46 1.4-.1a.74.74 0 0 0-.4-.91l1.47-4.27c.37.09.75-.11.88-.48.2-.55-.31-1.17-1.04-.93m5.63 5.17c-.37.5-.05 1.03.4 1.07v3.8c-.45.05-.77.58-.4 1.08.52.4 1.09.03 1.09-.46a.62.62 0 0 0-.57-.62v-3.8a.62.62 0 0 0 .57-.61c0-.5-.57-.86-1.09-.46"/><path d="M17.33 25.68c.76-.03 1.02-.73.71-1.2l3.61-2.9c.4.4 1.14.29 1.33-.45-.02-.79-.8-1.05-1.26-.68a.76.76 0 0 0-.16 1.01l-3.6 2.9a.76.76 0 0 0-1.03-.06c-.46.38-.37 1.2.4 1.38M17.23 14c-.48.66-.07 1.36.54 1.42v5c-.6.05-1.02.75-.53 1.4.68.53 1.43.06 1.43-.59a.82.82 0 0 0-.75-.81v-5a.82.82 0 0 0 .75-.82c0-.64-.75-1.12-1.43-.6"/><path d="M18 15.39c.08.65.7.82 1.08.52l2.75 2.88c-.32.37-.17 1 .47 1.11.68-.07.85-.76.5-1.13a.65.65 0 0 0-.88-.06l-2.75-2.88a.65.65 0 0 0-.02-.88c-.36-.37-1.05-.23-1.15.44m-9.9-3.01c-.28.36-.05.75.28.78v2.76c-.33.03-.56.42-.29.78.38.29.8.03.8-.33a.45.45 0 0 0-.42-.45v-2.76a.45.45 0 0 0 .41-.45c0-.36-.41-.62-.79-.33M23.17 14c.17.42.62.44.83.17l2.36 1.5c-.15.3.05.7.5.67.46-.17.46-.66.15-.86a.46.46 0 0 0-.6.11l-2.36-1.5c.1-.2.04-.46-.17-.59-.3-.2-.75.02-.7.5M22.1 5.89c.66.2 1.1-.32.97-.81l3.98-1.4c.21.47.88.6 1.27.03.22-.69-.36-1.15-.88-.97a.7.7 0 0 0-.44.82l-3.97 1.4a.69.69 0 0 0-.86-.37c-.51.18-.68.9-.07 1.3M4.5 14.01c-.14-.44-.6-.48-.82-.22l-2.3-1.63c.18-.3 0-.71-.47-.7-.46.14-.48.64-.19.85.2.14.46.1.62-.08l2.29 1.63c-.12.2-.07.47.13.6.3.22.76.03.74-.45"/><path d="M24.4 8.87c.37-.22.32-.65.03-.8l1.07-2.44c.3.1.65-.15.55-.58-.22-.4-.68-.32-.82 0-.09.2 0 .44.19.55l-1.06 2.43a.44.44 0 0 0-.54.24c-.14.32.13.7.57.6"/><path d="M25.9 6.32c-.68.13-.82.8-.48 1.17l-2.85 3.1c-.4-.3-1.06-.11-1.13.57.12.71.85.85 1.22.45a.69.69 0 0 0 0-.93l2.86-3.1c.28.22.68.19.92-.08.37-.4.18-1.12-.54-1.18m-3.88 3c.62-.49.4-1.23-.14-1.44l1.24-4.61c.57.1 1.12-.45.83-1.17-.5-.65-1.3-.4-1.47.2-.1.4.12.8.5.93l-1.24 4.61a.78.78 0 0 0-.89.57c-.16.6.42 1.22 1.17.9m7.55 9.06c-.31-.5-.88-.39-1.07 0l-3.34-1.26c.1-.42-.25-.87-.82-.7-.51.32-.39.94.05 1.1.28.1.6-.03.73-.3l3.34 1.26c-.08.3.07.6.36.7.43.17.93-.21.75-.8m-15.2 7.1c.12-.37-.16-.62-.43-.56l-.7-2.22c.26-.11.35-.48.04-.7-.37-.14-.64.17-.55.46.06.19.25.3.45.26l.69 2.22a.38.38 0 0 0-.22.47c.09.28.49.39.72.06m1.86 6.12c.17.39.6.38.78.12l2.27 1.3c-.13.28.08.65.5.6.41-.18.4-.64.1-.8a.43.43 0 0 0-.56.12l-2.27-1.29a.43.43 0 0 0-.18-.55c-.3-.16-.7.06-.64.5m6.13-7.96c-.6.14-.7.74-.38 1.07l-2.42 2.87c-.37-.26-.95-.06-.99.55.14.63.8.72 1.11.35.2-.24.19-.6-.03-.83l2.42-2.87c.26.18.62.14.82-.1.32-.38.12-1.01-.53-1.04m-1.13 9.93c.59-.36.48-1.04.03-1.28l1.58-3.9c.49.14 1.03-.28.86-.94-.37-.63-1.1-.5-1.3.01a.7.7 0 0 0 .32.87l-1.58 3.91a.7.7 0 0 0-.84.4c-.2.51.23 1.12.93.93"/><path d="M17.82 36.58c.44-.22.41-.71.1-.91l1.38-2.7c.34.13.76-.14.68-.63-.23-.47-.76-.42-.94-.07a.5.5 0 0 0 .18.65l-1.38 2.7a.5.5 0 0 0-.63.24c-.18.35.1.82.6.72m-2.73-4.41c.25-.33.04-.7-.27-.72V28.9c.31-.03.52-.39.27-.72-.34-.27-.72-.03-.72.3 0 .22.16.4.37.42v2.55a.42.42 0 0 0-.37.41c0 .33.38.58.72.3m1.55 4.57c.5-.4.32-1-.12-1.17l.98-3.77c.46.07.91-.37.67-.96-.41-.53-1.07-.32-1.2.17-.08.32.1.65.4.76l-.97 3.77a.64.64 0 0 0-.72.47c-.13.5.35 1 .96.73m6.9-6.22c-.6.45-.4 1.16.1 1.36l-1.24 4.37c-.54-.1-1.08.4-.82 1.1.46.63 1.24.4 1.4-.16a.74.74 0 0 0-.45-.9l1.25-4.37c.38.07.75-.15.86-.52.16-.57-.38-1.17-1.1-.88m2.83-2.31c-.18-.82-1-.96-1.44-.53l-3.88-3.34c.35-.5.09-1.29-.75-1.35-.85.18-.99 1.08-.48 1.51.33.28.81.26 1.12-.03l3.88 3.33c-.25.35-.2.83.14 1.12.5.43 1.36.16 1.41-.71m-23.8 5.76c.02.61.6.83.98.58l2.34 2.95c-.32.32-.24.92.36 1.08.64-.01.86-.64.56-1.02a.62.62 0 0 0-.82-.13l-2.35-2.95a.62.62 0 0 0 .06-.83c-.3-.38-.97-.3-1.12.32m23.05 2.77c.35-.3.2-.74-.12-.85l.6-2.77c.34.04.65-.3.46-.72-.32-.37-.79-.2-.87.16-.05.24.1.47.32.54l-.6 2.77a.46.46 0 0 0-.5.37c-.08.36.27.7.71.5"/><path d="M17.2 36.59c.8.19 1.28-.47 1.1-1.05l4.57-1.97c.3.53 1.1.63 1.5-.07.21-.83-.52-1.33-1.1-1.07a.8.8 0 0 0-.46 1l-4.58 1.97a.82.82 0 0 0-1.04-.36c-.6.26-.73 1.13.02 1.55m-4.1-6.09c.05.45.48.57.75.36l1.89 2c-.22.24-.12.68.32.76.47-.05.59-.53.34-.78a.45.45 0 0 0-.6-.05l-1.9-1.98a.45.45 0 0 0 0-.6c-.25-.27-.73-.17-.8.3m-8.97 3.63c.45.34.94.06.98-.36h3.46c.04.42.52.7.98.36.36-.47.03-.98-.42-.98-.3 0-.53.22-.56.51H5.12a.57.57 0 0 0-.56-.51c-.45 0-.78.51-.42.98m13.13-9.33c-.45.61-.07 1.27.5 1.32v4.67c-.57.06-.95.71-.5 1.32.64.49 1.34.05 1.34-.56 0-.4-.3-.72-.7-.76v-4.67c.4-.03.7-.36.7-.76 0-.6-.7-1.04-1.34-.56"/><path d="M23.64 29.4c-.72.24-.76.99-.33 1.35l-2.6 3.81c-.48-.27-1.16.05-1.13.8.25.76 1.06.79 1.4.3a.76.76 0 0 0-.15-1.02l2.6-3.81c.34.18.76.09.99-.24.33-.5 0-1.24-.78-1.2m-7.97 6.83c.26-.54-.13-.99-.57-.95l-.67-3.6c.43-.12.63-.68.2-1.08-.56-.29-1.04.15-.95.62.05.3.34.51.64.48l.67 3.6a.6.6 0 0 0-.43.68c.09.47.69.71 1.1.25"/><path d="M27.69 33.5c-.37-.69-1.14-.6-1.43-.11l-4.3-2c.18-.54-.25-1.18-1.01-1.02-.72.38-.62 1.21-.06 1.47.37.17.8.03 1-.32l4.3 2c-.13.38.04.8.4.97.57.26 1.27-.2 1.1-1m-16.1-3.68c-.38.5-.06 1.05.4 1.09v3.84c-.46.04-.78.58-.4 1.08.52.4 1.1.04 1.1-.46a.64.64 0 0 0-.58-.62V30.9c.32-.03.57-.3.57-.63 0-.5-.57-.86-1.1-.46m11-2.08c-.45-.27-.86.05-.86.43l-3.17.38c-.08-.38-.56-.6-.94-.23-.28.47.08.9.49.86a.52.52 0 0 0 .46-.53l3.17-.38c.06.27.3.45.58.42.4-.05.65-.56.27-.95m-28.77 76.06c-.78.04-1.04.77-.72 1.25l-3.66 3.06c-.4-.4-1.17-.28-1.35.48.03.81.84 1.07 1.3.68a.78.78 0 0 0 .15-1.05l3.66-3.05c.28.28.74.3 1.05.04.48-.4.36-1.23-.43-1.41m-6.73.81c-.52.18-.56.72-.26.98l-1.93 2.75c-.35-.2-.85.02-.83.57.17.55.76.58 1.01.22a.55.55 0 0 0-.1-.73l1.94-2.75c.24.14.56.08.72-.15.25-.36.03-.9-.55-.89"/></g></svg>