<svg xmlns="http://www.w3.org/2000/svg" xml:space="preserve" viewBox="0 0 29.61121 39.922703"><g fill="#231f20"><path d="M18.55778 30.1648638c.0694.48849.54365.611307.82571.379899l2.12328 2.136107c-.2328.280675-.11311.755635.37504.8278.51104-.06557.63039-.585635.35526-.862147-.18145-.182489-.46837-.191857-.66335-.03227l-2.12327-2.135761c.16098-.194285.15335-.481205-.0281-.663694-.27478-.276858-.79554-.160635-.86458.350061m4.70034-4.473441c-.52353.173122-.56378.719205-.25327.983574l-1.92621 2.760253c-.35491-.200184-.85381.02637-.83577.577308.17416.548858.76951.576614 1.01896.218918.1648-.23592.11761-.553369-.0968-.735859l1.92621-2.760599c.24529.13843.55961.07285.72406-.162716.24945-.357693.0184-.906899-.55718-.880879m-6.46314 3.22203c-.23141.309469-.0354.639756.2491.667165v2.360229c-.28449.02741-.48051.357696-.2491.667166.32057.245982.6741.02289.6741-.282754 0-.201573-.15439-.365328-.3511-.384412v-2.360229c.19671-.01873.3511-.182492.3511-.384411 0-.305652-.35353-.528736-.6741-.282754m12.00064 10.6056c.31884-.777839-.27339-1.366942-.88712-1.269451l-1.28368-4.969912c.5839-.211981.8167-1.014107.16133-1.540413-.80872-.34347-1.43148.318837-1.26529.96241.10963.424654.52388.685554.94818.618246l1.28368 4.969912c-.40384.14641-.63976.575227-.53012.999882.16618.643572 1.0318.921125 1.57302.229326m-7.53484-11.591602c-.0461-.509307-.53081-.660921-.83473-.43645l-2.08685-2.322413c.25605-.278248.15682-.776452-.34485-.876719-.53256.04163-.68313.573491-.41286.874288.17833.19845.47496.223085.6852.06765l2.0865 2.322762c-.17694.192206-.18388.48988-.006.688329.27027.300796.81531.207817.91315-.31745"/><path d="M20.22101 26.2142598c-.29976-.369837-.75321-.235571-.87152.09576l-2.81784-.71192c.0531-.347633-.28206-.681388-.72129-.498553-.39031.308432-.23071.797963.13427.889901.24077.06106.48294-.0739.56481-.303225l2.81785.712267c-.0371.240429.11206.474267.35284.534981.36463.09229.73794-.262632.54088-.719206m4.18825-19.169811c-.71122.277899-.72753 1.036309-.27894 1.379433l-2.46431 3.958929c-.50584-.251184-1.17925.09819-1.11437.85937.28067.746961 1.10674.741758 1.42592.22898.21059-.338266.12247-.774022-.18769-1.010982l2.46431-3.959276c.34971.173817.77957.06002.99017-.278246.31918-.512431-.0406-1.255922-.83509-1.178208m-7.10567-1.177513c.35665.26645.73725.04094.76847-.286919h2.71827c.0312.327858.41148.553369.76813.286919.2831-.369144.0264-.776104-.32578-.776104-.2321 0-.42084.177633-.44235.404185h-2.71827c-.0215-.226552-.21024-.404185-.44235-.404185-.35214 0-.60922.40696-.32612.776104"/><path d="M18.7028 26.3585878c.37573-.613737-.0444-1.192433-.57662-1.194165l-.40592-4.3763c.5225-.09957.82919-.745573.34694-1.279859-.63663-.400715-1.25384.07355-1.2011.64045.0347.374.34902.650858.71712.652247l.40592 4.375951c-.36116.06904-.61928.399326-.58459.77298.0524.5669.74627.919738 1.29825.408696m-2.36856-2.436904c-.34798.261938-.24008.681041.059.80039l-.74454 2.55313c-.31641-.06036-.63247.235225-.47981.643225.26888.367062.72163.236959.81808-.09367.0638-.21788-.0517-.443737-.25847-.526308l.74453-2.55313c.21857.04163.43749-.08673.50098-.30496.0965-.330635-.21545-.683473-.63975-.518674m4.39538-8.121166c.29247-.391695.0447-.80941-.31503-.844104v-2.98507c.35978-.03434.6075-.452063.31503-.843758-.40523-.310858-.85243-.0288-.85243.357695 0 .255348.19532.462124.44408.486063v2.98507c-.24876.02394-.44408.231061-.44408.486409 0 .386491.4472.668553.85243.357695m.26471-15.753146c-.36775.283449-.24736.72892.0729.852084l-.76118 2.730415c-.33792-.06002-.67133.258818-.50341.691798.29143.387532.77228.243552.87082-.10998.0652-.23349-.0607-.472532-.28207-.557879l.76119-2.730416c.23384.04163.4649-.09818.53012-.331327.0985-.353878-.23834-.725798-.68833-.544696m3.95997 17.989521c-.72232.183879-.82883.916267-.43575 1.302065l-2.86087 3.538091c-.45969-.30392-1.15357-.04649-1.18237.698044.18249.757367.98288.851389 1.35341.39308.2446-.302184.21164-.734818-.0604-1.001615l2.86121-3.53809c.31745.210246.74766.151959.9919-.150573.37054-.457961.11137-1.220881-.66716-1.241002m4.30621-4.618115c-.32161-.240082-.66473-.03643-.69318.258816h-2.45218c-.0284-.295245-.37157-.498898-.69318-.258816-.25569.333061-.0236.700471.29386.700471.20955 0 .37955-.160286.39932-.364634h2.45217c.0194.204348.18978.364634.39933.364634.31745 0 .54921-.36741.29386-.700471M5.3248 11.5595268c.236615-.36741-.01007-.724064-.332713-.732738l-.184574-2.660334c.318491-.05308.513473-.44096.228634-.77194-.380594-.251879-.761534.02706-.737595.371919.01562.227246.202268.399674.425695.405573l.184574 2.66068c-.220308.03678-.381635.233144-.365677.460389.02394.344512.439921.568635.781656.266451m-5.154483 4.726359c.410429.241471.788595-.04302.783737-.395164l2.890701-.318491c.07182.344512.502716.540185.851044.215103.257777-.426042-.06315-.828839-.43749-.787553-.247023.02741-.426736.238347-.423613.481899l-2.890704.31849c-.04962-.238347-.270959-.405225-.51798-.378163-.374695.04128-.600206.504449-.255695.863879M15.42456 1.3973138c-.4989.224817-.48259.768125-.14918.996758l-1.61813 2.922273c-.37088-.161327-.83994.11345-.76569.65537.22828.523879.81877.490226 1.02833.111714.13842-.249796.0593-.558226-.17105-.71643l1.61778-2.922274c.25674.111715.55996.01457.69839-.235225.20956-.378164-.0753-.896839-.64045-.812186"/><path d="M20.88366 17.9355858c-.41563.09888-.48329.518328-.26125.742796l-1.67259 2.003926c-.2609-.178328-.66127-.03678-.68417.389959.0978.435757.5558.497165.77264.237655.14294-.171389.12767-.419799-.0257-.575227l1.6726-2.003923c.18041.123508.42743.09367.57037-.07737.21649-.259511.0746-.699431-.37192-.717817m-1.94216-5.589547c.35734-.477736.0548-.987737-.38441-1.030064v-3.643213c.43922-.04233.74175-.551981.38441-1.030064-.49474-.379552-1.04048-.03504-1.04048.436797 0 .311205.23835.564124.54227.593267v3.643215c-.30392.02914-.54227.282062-.54227.593613 0 .471838.54574.816003 1.04048.436451m6.89057 9.518986c.14467-.368796-.13843-.64184-.42709-.591531l-.6401-2.331786c.27373-.104081.37747-.483632.0649-.726837-.38336-.155777-.67202.160286-.5891.46247.0548.199145.25188.319185.45102.284492l.64045 2.331781c-.18908.07182-.29732.275471-.24251.474614.0829.302183.49266.426736.74245.09679m-14.755-10.035922c.34104-.456226.0524-.942982-.36671-.983227v-3.478418c.4191-.0399.70775-.527001.36671-.983227-.47218-.362205-.99294-.03331-.99294.417022 0 .29698.22724.53845.51729.566205v3.478418c-.29005.02775-.51729.269225-.51729.566206 0 .450674.52076.779574.99294.417021"/><path d="M20.32648 23.0255388c.11865-.406269-.20921-.670288-.51174-.589104l-.90551-2.421987c.28136-.137042.35561-.551288-.00026-.780268-.42327-.129408-.70047.235225-.58321.54886.0774.207124.29871.315714.50757.259856l.90586 2.421987c-.19463.09472-.29039.32196-.21302.529082.11727.313636.56586.40696.80039.03158m-1.32297-.194634c-.42292.03157-.5551.431592-.37296.686593l-1.95396 1.700351c-.22759-.215794-.64219-.140164-.73204.274777.0274.442348.46663.574187.7199.354225.16688-.145366.19116-.391349.0652-.567593l1.95431-1.700353c.15716.149187.40384.158899.57106.01387.25292-.220308.18319-.67376-.25153-.76188m3.82883-.103031c-.41668-.0458-.61721.319183-.48607.599858l-2.20514 1.299289c-.1818-.250489-.59847-.251879-.76015.134614-.0534.434713.34972.642185.63525.473919.18839-.111022.25639-.345553.16584-.53949l2.2048-1.299294c.12594.173471.36394.227594.55233.116572.28553-.168264.29941-.621369-.10686-.78547m-5.73318-12.072115c-.31016-.231757-.64114-.03574-.66855.249449h-2.3644c-.0274-.285185-.35838-.481206-.66855-.249449-.24633.320918-.0229.675144.28345.675144.20192 0 .36602-.154735.3851-.351797h2.3644c.0191.197062.18318.351797.3851.351797.30635 0 .52978-.354226.28345-.675144"/><path d="M19.91743 16.3174578c-.35179.149531-.34832.529431-.11865.694227l-1.173 2.018148c-.25674-.117959-.58841.06695-.54435.446858.15161.369491.56482.354227.71678.09299.10026-.172429.0496-.389266-.10929-.503064l1.173-2.018149c.17764.08154.391.01804.49127-.154041.15196-.261592-.0396-.62796-.43576-.57696m4.09701-2.461191c-.0867-.436103-.51971-.522838-.76187-.300449l-2.01746-1.815887c.19568-.264021.0638-.6859-.37851-.726145-.45692.08466-.5381.558573-.27686.793451.17243.155429.43125.149531.59847-.0041l2.01746 1.815883c-.13531.18249-.1138.440612.0583.595695.26124.235225.72406.104776.76049-.35839m4.87346-5.727281c-.56031-.419102-1.15843-.06418-1.2077.450675h-4.27325c-.0493-.514859-.64739-.869777-1.20805-.450675-.44512.580084-.0413 1.220188.51243 1.220188.36498 0 .66162-.279634.69562-.635594h4.27325c.034.35596.33064.635594.69562.635594.55337 0 .95755-.640104.51208-1.220188"/><path d="M23.96379 19.8385498c.33758-.606797-.0905-1.148024-.60367-1.128248l-.5669-4.202482c.49994-.116918.76951-.752165.2831-1.247595-.62969-.361164-1.20527.121082-1.13206.66543.0486.359083.36255.61339.71747.599859l.5669 4.202481c-.34556.08084-.58113.409738-.5329.768471.0735.544348.75633.856943 1.26806.342084m-16.04145 7.172978c.78929.08014 1.16363-.613735.91141-1.143166l4.15391-2.493457c.34867.47184 1.13692.467676 1.43737-.266795.0944-.823635-.67202-1.210125-1.20978-.887125-.35492.213022-.48016.657449-.30565 1.023817l-4.15391 2.493457c-.24113-.326122-.69249-.425-1.04741-.21198-.53811.323002-.55719 1.180983.21406 1.485249m.78825-3.942624c-.37192-.195674-.69319.07112-.67376.381289l-2.534742.402797c-.07806-.300797-.466287-.454838-.759106-.153695-.209551.386144.09056.727878.418758.675837.21649-.0347.36602-.228286.352838-.442694l2.534742-.402797c.0538.208164.25604.345898.47253.311551.3282-.05239.50757-.470102.18874-.772288m10.05674-6.982508c-.425-.248409-.81462.04684-.80872.410777l-2.98611.337573c-.0753-.355961-.5211-.556839-.87984-.219614-.26506.440614.0677.855901.45449.812186.255-.0288.44027-.247366.43611-.499245l2.98611-.337574c.052.246328.28136.418064.53636.389266.38684-.04371.6186-.522837.2616-.893369m-5.36057-2.349129c-.36151.358736-.17069.826757.19463.917656l-.45865 3.074232c-.37573-.01978-.69492.372268-.4538.820514.36984.382674.8736.160633.93293-.237655.0392-.262632-.13011-.505838-.38268-.568633l.45831-3.074234c.25985.01353.493-.169654.53186-.432286.0597-.39794-.3577-.75737-.8226-.499594"/><path d="M21.2476 12.5177738c-.65051.191858-.72268.861798-.3518 1.199024l-2.48131 3.316049c-.42812-.260551-1.05053-.0024-1.05123.675841.19186.682428.92321.740368 1.24448.310856.21198-.283102.16722-.675492-.0892-.908982l2.48131-3.31605c.29628.180408.6852.112409.89718-.170695.32127-.42951.0593-1.11437-.64947-1.106043m-3.03746 10.358927c.0847-.49647-.33861-.763615-.68486-.626573l-1.40024-2.738742c.31398-.200185.3452-.699778-.10686-.921819-.51763-.09506-.79553.373308-.61408.728227.11934.233836.39586.332368.63524.237653l1.40025 2.738741c-.21718.138429-.29906.420146-.17937.653981.18145.35492.72372.404187.94992-.07147m1.71493-14.823001c-.19533.349022.0503.661267.34589.650859l.31954 2.421292c-.28796.06661-.44443.431941-.1648.718165.36186.208859.69423-.06799.65294-.381633-.0274-.206776-.20782-.353878-.41216-.346593l-.31988-2.421292c.19914-.04614.33549-.234879.30808-.441654-.0413-.313634-.43437-.494736-.72961-.199144m5.20409 7.260061c.20886-.607144-.26853-1.030064-.73239-.929104l-1.19798-3.733072c.43576-.187348.578-.80941.0552-1.181677-.63178-.226205-1.07759.306001-.92251.789635.10234.318837.42951.499593.75043.429511l1.19798 3.733419c-.30149.129409-.46247.466981-.36012.785818.15508.483635.82745.657105 1.20943.10547M24.19138.6153098c-.60645.35596-.51104 1.048105-.0534 1.294432l-1.666 3.957542c-.49613-.154735-1.05782.260552-.88817.942982.3636.638716 1.11403.513818 1.32948.0014.14259-.337919-.00079-.721635-.31711-.891982l1.66566-3.957542c.34312.107205.71782-.05863.86006-.396552.2158-.512777-.21961-1.136228-.93049-.950268m-8.77584 3.909673c.80976.187347 1.28992-.484328 1.09737-1.067534l4.64414-2.043822c.29975.536022 1.11957.635594 1.52827-.08812.20642-.843411-.5388-1.345779-1.1404-1.081064-.39655.17451-.58528.620328-.45206 1.023819l-4.64413 2.043822c-.20747-.370879-.66335-.532553-1.0599-.358042-.6016.264715-.73448 1.153228.0267 1.570943m-6.77469 16.370704c.43923-.587718.0673-1.214637-.47253-1.266678v-4.480035c.53984-.05169.91176-.678961.47253-1.266676-.60818-.466634-1.27917-.04303-1.27917.537063 0 .383021.29282.693879.66648.729613v4.480035c-.37366.03608-.66648.346939-.66648.729615 0 .580428.67099 1.003695 1.27917.537063m2.78662-8.616945c-.43714.168266-.44963.633165-.17555.844799l-1.52411 2.420252c-.30912-.15543-.72337.05655-.6859.523531.16966.459002.67619.458308.8736.145021.13045-.206776.0777-.474267-.11172-.620675l1.52376-2.420252c.21406.107551.47809.0392.60819-.167571.19741-.313287-.0212-.770207-.50827-.725105m-2.41852 15.232737c.255-.341042.0392-.704983-.27408-.734818v-2.600661c.31329-.02984.52908-.394125.27408-.735164-.35283-.270963-.74245-.02498-.74245.311896 0 .222044.17.402451.38684.423268v2.600661c-.21684.02048-.38684.201224-.38684.423265 0 .336879.38962.582513.74245.311553"/><path d="M17.65469 21.1565728c-.40037-.262286-.79345.0052-.80524.359083l-2.91707.181797c-.0559-.349369-.47913-.566205-.84376-.256388-.27929.415287.0236.834738.40141.811145.24945-.01561.43992-.218918.4479-.463511l2.91707-.181797c.0385.241816.25291.419796.50202.404183.37782-.0236.62622-.477387.29767-.854512m-6.8982 2.805008c.20851.625187.8618.672369 1.17682.300796l3.30495 2.296743c-.2387.425.0333 1.020695.69214.998146.65606-.209554.68764-.921821.25951-1.219148-.28241-.196366-.66196-.139471-.87984.117612l-3.30494-2.297088c.16479-.293857.0857-.669246-.19637-.865613-.42813-.297328-1.08454-.01943-1.05227.668552m17.71197-13.553895c-.60957-.455532-1.25974-.06974-1.31352.48988h-4.64552c-.0538-.559615-.70394-.945412-1.31351-.48988-.48398.630736-.0448 1.326351.55683 1.326351.3969 0 .71956-.303919.75668-.691104h4.64552c.0375.387185.35978.691104.75668.691104.60159 0 1.04082-.695615.55684-1.326351"/><path d="M14.74734 20.3908788c-.53429-.167572-.89199.258815-.79276.66092l-3.22723 1.133453c-.17417-.375737-.7199-.485023-1.03215-.02011-.18214.556493.29282.932574.71053.785819.27582-.09679.4257-.386491.357-.664734l3.22759-1.133453c.12004.259856.41806.392389.69388.295592.41806-.146755.55336-.737248.0631-1.057471m-1.8353-3.715739c-.17972-.3629-.58078-.336533-.74072-.08361l-2.20307-1.118186c.10929-.278246-.10616-.617553-.50479-.548512-.38129.182837-.34035.618246-.0552.763267.18839.09541.41425.0288.52492-.145715l2.20307 1.11784c-.0756.192552.004.414246.1922.510001.28554.144675.66127-.0798.58356-.495081m14.76194-2.970154c-.11415-.513123-.62831-.604022-.90864-.334796l-2.43372-2.092399c.22412-.31745.0572-.812186-.46698-.848268-.53776.112756-.62103.674798-.306.945759.20816.178673.51381.164796.70775-.02116l2.43344 2.092394c-.15508.219612-.12282.523878.085.702553.31502.270959.85867.104428.8892-.444084m-13.90742-1.816923c-.24529.327858-.0375.67792.26402.706717v2.501782c-.30149.0288-.50931.378858-.26402.707063.33965.260552.71435.02394.71435-.299756 0-.213715-.16376-.387532-.37192-.407307v-2.501782c.20816-.01978.37192-.193246.37192-.406961 0-.324041-.3747-.560655-.71435-.299756"/><path d="M15.91479 5.3062838c-.6401.345552-.56725 1.064411-.10339 1.336065l-1.86931 4.029012c-.50688-.178675-1.10292.23002-.95339.941941.35249.67341 1.13241.572451 1.37457.05066.1596-.344164.026-.74592-.29489-.933962l1.86931-4.029011c.35075.123511.74384-.03365.90377-.377817.24182-.521798-.18457-1.182718-.92667-1.016881m1.66323 12.767037c-.25812.345551-.0396.714001.2779.744531v2.633622c-.31745.03018-.53602.398979-.2779.744185.35769.274428.75217.02568.75217-.315368 0-.225166-.17244-.408001-.3917-.428817v-2.633622c.21926-.02115.3917-.204001.3917-.428817 0-.34104-.39448-.590144-.75217-.315714m-.92355-5.734222c.0285.444777.44685.587717.71677.399329l1.7635 2.070188c-.22933.236614-.15439.67237.27998.771248.4649-.02359.60818-.483634.37955-.751818-.15057-.17694-.40835-.205042-.595-.0746l-1.76315-2.07019c.15821-.163408.17139-.422572.0208-.599512-.22863-.267838-.70533-.19949-.80247.255348m-7.58341-9.624457c-.74072.393083-.66266 1.222616-.12976 1.539372l-2.18641 4.630258c-.583209-.209898-1.273619.256388-1.106742 1.078289.401063.779226 1.301022.668899 1.584472.06938.18666-.39551.0357-.860063-.33271-1.079328l2.18641-4.629912c.40315.145021.85798-.03331 1.04464-.428817.2831-.599512-.20366-1.364514-1.0599-1.179248m-2.865378 14.090963c.07321-.597778-.447552-.892677-.853126-.709145l-1.828024-3.191152c.363245-.257083.372613-.855554-.180062-1.094942-.623799-.08431-.92876.491266-.692145.904472.156123.272694.491613.374348.772288.247715l1.828025 3.190804c-.251533.17798-.333409.519023-.17694.791717.236613.413206.887473.440962 1.129984-.139469"/><path d="M16.49695 11.0904638c-.612.415981-.46351 1.135534.0344 1.362432l-1.47276 4.270482c-.53151-.128021-1.09217.347634-.86666 1.051922.42639.64496 1.20527.461775 1.39609-.09124.12559-.364981-.0513-.757371-.39551-.914534l1.47241-4.270481c.36775.08847.74904-.111368.87498-.476348.19082-.553022-.30982-1.177514-1.0429-.932227m5.63499 5.169055c-.37226.498552-.0569 1.030411.40107 1.074474v3.799682c-.45796.04407-.77333.575573-.40107 1.074125.51625.395858 1.08523.03678 1.08523-.45553 0-.324389-.24841-.588062-.56516-.618595v-3.799682c.31675-.03054.56516-.294206.56516-.618941 0-.491962-.56898-.851391-1.08523-.455533"/><path d="M17.33065 25.6806688c.75806-.02741 1.02208-.733432.71366-1.201801l3.6099-2.904578c.3917.401408 1.13797.294204 1.3267-.440266-.0184-.793104-.79449-1.058863-1.26217-.682778-.30842.248062-.36879.6859-.15577 1.009942l-3.60956 2.904577c-.27096-.27755-.71123-.312246-1.01966-.06418-.46733.376427-.37365 1.191389.3969 1.379086m-.0916-11.687014c-.48988.655716-.0749 1.355494.52735 1.413086v4.999401c-.60229.05759-1.01723.757371-.52735 1.413087.67896.520756 1.42766.04822 1.42766-.599166 0-.427081-.32682-.77402-.74349-.813921v-4.999401c.41667-.0399.74349-.386838.74349-.81392 0-.647391-.7487-1.119922-1.42766-.599166"/><path d="M17.99712 15.3900878c.0784.647389.70256.822247 1.08141.524226l2.75054 2.88064c-.31537.364982-.16965.996413.47357 1.104658.67758-.07321.84897-.757716.49301-1.130678-.23523-.245979-.61443-.266102-.87637-.06002l-2.75054-2.880642c.21822-.252225.21579-.632125-.0191-.878104-.35631-.373308-1.04776-.233491-1.15254.439919m-9.90375-3.013171c-.27096.362205-.0416.749043.29143.780962v2.761987c-.33306.03227-.56239.418756-.29143.780961.37504.287614.78859.02672.78859-.330981 0-.236265-.1804-.427776-.41077-.44998v-2.761987c.23037-.02221.41077-.213715.41077-.449634 0-.358042-.41355-.618941-.78859-.331328m15.08147 1.629229c.16306.42743.61755.440614.82502.17347l2.36024 1.494964c-.153.301837.0531.707063.5093.671675.44894-.164449.44964-.659532.14398-.853125-.20157-.127673-.46316-.07702-.60645.107551l-2.36023-1.494963c.10582-.208511.0396-.466634-.16202-.594308-.30565-.193592-.75251.01839-.70984.494736m-1.07794-8.112839c.65814.206083 1.09841-.319184.97594-.81392l3.97385-1.396433c.21441.462818.88643.597431 1.27084.02463.22447-.685206-.36047-1.148371-.87498-.967615-.33966.119347-.52388.476348-.43958.81843l-3.97384 1.396433c-.14815-.320225-.51521-.483287-.85452-.36394-.51485.181103-.68139.907942-.0777 1.302412m-17.596785 8.115267c-.141206-.438185-.597084-.475654-.81947-.218572l-2.291538-1.627495c.169653-.294899-.01595-.712961-.476001-.701859-.459696.141551-.487104.638717-.190124.849309.195674.139123.461083.102001.615124-.07564l2.291538 1.627495c-.117266.204-.06488.466981.130795.605756.296982.21094.75737.02151.739676-.459001"/><path d="M24.39088 8.8690078c.37816-.215796.32438-.644961.043-.801431l1.06268-2.437598c.306.09992.6571-.153.55753-.576961-.22031-.398286-.6859-.326817-.82364-.0111-.0906.208164-.005.446858.18978.554757l-1.06267 2.437599c-.21164-.06904-.44478.03053-.53568.239041-.13738.315715.12733.705329.56899.595695"/><path d="M25.89867 6.3193478c-.67722.126633-.81947.796227-.47946 1.175432l-2.85116 3.094703c-.40592-.307736-1.06163-.111368-1.13241.574185.12317.709492.85625.843758 1.22539.443042.24356-.264368.23904-.66543.004-.928064l2.85115-3.094355c.28067.212674.68104.184572.92459-.0798.36915-.400715.17521-1.120615-.54192-1.185146m-3.87533 2.998254c.61374-.484675.40279-1.232331-.13878-1.43425l1.2306-4.613257c.57037.09506 1.12547-.448593.83473-1.174391-.4982-.647737-1.30553-.395858-1.46512.201919-.10513.393777.11136.794492.48606.933962l-1.23094 4.613257c-.39413-.06558-.78131.174165-.88643.568288-.15959.597429.41528 1.217758 1.16988.904472m7.55114 9.053739c-.31502-.492308-.88678-.391-1.0769-.0028l-3.34103-1.25731c.11276-.417022-.25014-.870473-.81184-.707758-.51867.322655-.391.941943.0416 1.104657.28519.107204.59951-.02394.731-.292125l3.34069 1.256964c-.0781.288653.0718.594308.357.701859.43298.162716.93708-.218918.75945-.803513m-15.20776 7.092499c.12698-.359429-.15404-.612694-.42986-.555103l-.69214-2.221803c.25986-.108938.34728-.477388.0389-.701163-.374-.137388-.64115.176244-.55164.464205.0593.189775.25257.298715.44304.258816l.69215 2.221457c-.17937.07563-.27686.275121-.21753.464897.0895.287615.48779.394124.71712.06869m1.86463 6.113795c.1707.391697.59535.384062.77715.125592l2.26725 1.290963c-.12941.288307.0808.657105.5048.604023.41147-.17347.39031-.634899.0968-.802125-.19394-.110327-.43541-.05169-.56135.12698l-2.26725-1.290616c.0895-.199491.0166-.437144-.17694-.547471-.29386-.167225-.70151.0503-.64045.492654m6.13251-7.957409c-.59917.138774-.69978.741758-.38198 1.066839l-2.42234 2.870234c-.374-.258472-.95131-.05795-.98773.556143.13773.627961.79657.719206 1.1102.347634.20678-.245288.18735-.602981-.0326-.827798l2.42234-2.870233c.25847.178675.61443.138083.8212-.107205.31398-.371918.1131-1.006126-.52908-1.035614m-1.13796 9.925598c.59049-.358041.48675-1.036307.0336-1.271881l1.57927-3.91001c.48953.14502 1.03527-.270961.85902-.938819-.36636-.621717-1.10118-.488492-1.30588.01769-.13496.334103.0115.708798.32474.871858l-1.57927 3.910012c-.33861-.100613-.70394.06765-.8389.401757-.20435.506184.23176 1.112289.92737.919389"/><path d="M17.81567 36.5811688c.44651-.219962.41494-.713656.10478-.911412l1.38047-2.708558c.34243.135307.76049-.129061.67619-.619982-.22413-.46941-.76015-.420145-.93917-.06939-.11796.231411-.0364.509656.17833.646349l-1.38082 2.708212c-.23661-.09333-.50966.0045-.62762.235919-.17867.350757.0961.813575.60784.718861m-2.73249-4.411687c.24979-.334449.0382-.691104-.26888-.720593v-2.548966c.30704-.02949.51867-.386145.26888-.720596-.34625-.265755-.72788-.02465-.72788.305655 0 .217531.16653.39447.3792.414941v2.548966c-.21267.02048-.3792.197407-.3792.415287 0 .32994.38163.571061.72788.305306m1.54596 4.565034c.49855-.398981.32196-1.008554-.12178-1.169882l.97803-3.774357c.46594.07424.91626-.372613.67445-.963798-.41078-.525962-1.06823-.315368-1.19486.173122-.0836.322654.0954.648431.4021.760144l-.97768 3.774359c-.32231-.05135-.63698.146408-.72059.469061-.12663.488839.34624.991901.96033.731351m6.90028-6.227223c-.59222.450329-.40453 1.165372.10721 1.366596l-1.25072 4.366932c-.54053-.100268-1.07794.40696-.81392 1.102574.46247.624837 1.23476.399328 1.39678-.166186.10686-.373305-.0919-.758062-.44582-.897186l1.25037-4.366928c.374.06904.74662-.15196.85347-.525269.16168-.565511-.374-1.165717-1.09737-.880533m2.83415-2.30819c-.18214-.81739-1.00161-.961718-1.44778-.5329l-3.87809-3.332354c.35666-.505838.0906-1.294087-.74488-1.350984-.85659.179367-.98878 1.075166-.48675 1.506758.33132.284492.81843.262286 1.1272-.03435l3.8781 3.332356c-.24668.349716-.19568.834738.13565 1.119228.50237.431594 1.36798.165838 1.41655-.707757m-23.798328 5.759201c.01907.616511.59188.834043.973861.585633l2.345658 2.946559c-.328204.316758-.244592.923556.352145 1.08037.644264-.01145.863884-.64149.559964-1.023125-.20019-.251529-.555801-.30253-.820168-.130795l-2.345315-2.946558c.226899-.218922.257083-.576963.05655-.828493-.303573-.381634-.966921-.309124-1.122698.316409m23.058311 2.772048c.35006-.305306.2033-.743145-.12421-.846881l.59639-2.774129c.34104.03956.65502-.299062.46109-.721288-.31433-.370185-.78617-.197061-.86354.162022-.051.236958.0892.468715.31572.540531l-.59639 2.77413c-.23592-.02741-.459.125938-.50966.362899-.0774.359429.28172.71088.7206.502716"/><path d="M17.20645 36.5853318c.79414.190121 1.27118-.465941 1.08627-1.040473l4.57821-1.973393c.29074.529082 1.09529.632817 1.5026-.07494.20886-.827105-.51937-1.326351-1.11229-1.070657-.39135.168613-.57974.605064-.45206 1.002309l-4.57822 1.973047c-.20123-.365674-.64808-.528042-1.03908-.359778-.59293.255695-.73031 1.127903.0146 1.543884m-4.09528-6.082896c.0531.446165.48259.567246.74418.362553l1.89013 1.988658c-.21788.250491-.11865.685899.32439.761533.46698-.04961.58598-.520756.34139-.778187-.16167-.17-.42292-.184225-.60367-.04267l-1.89013-1.988312c.15092-.173471.14953-.435063-.0118-.605063-.24495-.25743-.72129-.162368-.7945.30149m-8.970132 3.641134c.453796.338958.937777.05169.978023-.364982H8.57772c.0399.416674.52423.70394.97768.364982.36047-.469758.0337-.987737-.41459-.987737-.29525 0-.53533.226203-.56309.51451H5.119081c-.02775-.288307-.267839-.51451-.563432-.51451-.447898 0-.774716.517979-.414591.987737m13.131672-9.331294c-.45762.612697-.0701 1.266331.49265 1.320108v4.670502c-.56274.05412-.95027.707411-.49265 1.320105.6342.486758 1.33363.0451 1.33363-.559612 0-.398982-.3053-.723023-.69457-.760493v-4.670502c.38927-.03712.69457-.361164.69457-.760493 0-.604716-.69943-1.046023-1.33363-.559615"/><path d="M23.63663 29.3936168c-.714.246674-.7598.996064-.32994 1.352371l-2.5913 3.817032c-.48987-.268186-1.16953.051-1.13518.805594.24806.749736 1.06476.776797 1.40059.282755.22135-.326123.15162-.760491-.14606-1.007165l2.59164-3.817033c.33896.185614.76813.0902.98982-.235918.33549-.494389.009-1.243432-.77957-1.197636m-7.97025 6.821875c.26541-.537063-.12629-.984614-.56759-.946104l-.66613-3.595682c.4257-.121776.63109-.68035.19117-1.086616-.55788-.284143-1.03319.155429-.9468.621021.0569.30739.33826.513124.64322.486411l.66613 3.595682c-.29455.0843-.48329.377471-.42639.684513.0864.465941.68763.706021 1.10639.240775"/><path d="M27.68507 33.4975668c-.36915-.684164-1.13727-.606103-1.42801-.110326l-4.30517-1.997333c.19082-.541921-.24598-1.178902-1.00647-1.018962-.7199.376776-.61201 1.210126-.0545 1.468942.36811.170695.79727.02775.99815-.315368l4.30552 1.997333c-.13218.375043.0361.795185.40384.96588.55753.258471 1.2639-.197408 1.08661-.990166m-16.09834-3.683113c-.37643.503757-.0576 1.041168.40522 1.085574v3.839237c-.46282.04441-.78165.581471-.40522 1.085228.52145.40002 1.09633.03713 1.09633-.460042 0-.328206-.25119-.594657-.57107-.625186v-3.839237c.31988-.03088.57107-.297325.57107-.625183 0-.497166-.57488-.860412-1.09633-.460391m10.99486-2.089271c-.45275-.262632-.86631.05273-.85832.439572l-3.1752.371227c-.0815-.378512-.55649-.590145-.93674-.230368-.28032.469756.0753.910369.48641.862491.27131-.03191.46733-.26506.46178-.532899l3.1752-.370878c.0562.261592.30079.443735.5721.411818.41147-.04787.65606-.558574.27477-.950963M-6.19351 103.789585c-.78027.0427-1.03839.77473-.71192 1.25107l-3.65987 3.05897c-.41112-.40592-1.17716-.28137-1.35757.47843.034.81565.8382 1.07482 1.31212.67861.31294-.26125.36672-.71296.14121-1.04255l3.65987-3.05898c.28414.28068.73829.30775 1.05088.0465.47392-.39621.36186-1.23372-.43472-1.41205m-6.72473.81531c-.52249.17035-.56517.7147-.25708.97941l-1.9335 2.74186c-.35284-.20122-.8507.0222-.83578.57142.17104.54817.76466.57835 1.0148.22343.16515-.23453.12004-.55094-.093-.73413l1.93314-2.7422c.24425.13912.55754.0752.72268-.15891.25049-.35526.0226-.90377-.55129-.88088"/><path d="M-13.53996 103.904425c.0149.38823.37678.5225.61617.36429l1.49114 1.84398c-.20504.20088-.14953.58286.2269.67827.40558-.01.54088-.408.34798-.64669-.12767-.15752-.35179-.18805-.51728-.0784l-1.49115-1.84399c.1419-.13912.1589-.36464.0316-.52215-.19325-.23869-.61027-.18977-.70533.2047"/><path d="M-16.16907 107.862315c.70984-.22725.77194-.96519.35562-1.32635l2.64194-3.70601c.47739.27582 1.15462-.0236 1.13796-.76882-.22793-.74488-1.03284-.78998-1.37492-.31016-.22585.31676-.16688.74661.12108.99641l-2.64194 3.70601c-.32994-.19082-.75564-.10617-.98149.21024-.34209.48017-.0368 1.22609.74175 1.19868m16.38423 11.2464c-.19568-.47669-.70741-.47843-.93327-.17208l-2.69814-1.61536c.1634-.34381-.0802-.79379-.59258-.7414-.50064.19809-.48745.75493-.13773.96414.23036.13808.52318.0739.67965-.13808l2.6985 1.61535c-.11311.23766-.0316.52631.19914.66439.34937.20921.84618-.0423.78443-.57696m1.86584 2.57256c-.53186-.085-.81253.37053-.66196.73933l-2.9129 1.52757c-.21789-.33341-.75217-.36116-.98462.12455-.0961.55476.40835.84654.78547.64878.24876-.13045.3511-.42709.24702-.68208l2.91256-1.52758c.15092.23036.45275.31502.70152.18457.37747-.1981.42395-.77854-.087-1.01514m-5.67836-7.08208c-.64184-.0114-.89719.57279-.65814.98253l-3.18179 2.28806c-.31259-.35699-.94784-.30079-1.14108.31122-.0208.67062.62275.93083 1.03492.63419.27165-.19532.34278-.56204.17763-.84549l3.18179-2.28806c.21614.24667.58667.29593.85867.10061.41182-.29628.37019-.98913-.272-1.18306"/><path d="M-4.01438 109.884975c-.36152.64357.0913 1.22054.63663 1.2018l.58425 4.46928c-.53186.12212-.82086.79622-.306 1.32531.66751.38614 1.28159-.12386 1.20596-.70291-.05-.38163-.38268-.65363-.7598-.64079l-.58424-4.46928c.36775-.0843.61929-.43263.56933-.81461-.0756-.5787-.80005-.9135-1.34613-.3688m5.85565 14.3588c-.3237.30253-.16966.71469.14572.80281l-.4774 2.66137c-.32647-.0267-.61408.306-.41598.70186.31156.34209.75529.16203.81739-.18249.0406-.22759-.10026-.44338-.31814-.50445l.47738-2.66136c.22552.0188.43299-.13497.47358-.36221.0622-.34451-.29143-.66786-.70255-.45553m-13.93553-10.88212c.12663.83335.93917 1.03493 1.41725.63525l3.66369 3.61407c-.39309.48363-.18042 1.29339.65432 1.40858.87255-.12109 1.06753-1.01168.59292-1.47971-.31294-.30877-.80351-.31987-1.13415-.0434l-3.66368-3.61442c.272-.3341.25396-.82467-.059-1.13345-.47461-.46803-1.36208-.2609-1.47137.61304m1.9675-3.32957c.20434.3348.58945.27443.72267.0166l2.22423.88955c-.0815.27859.15612.58771.53499.48606.35248-.2092.27546-.62657-.0125-.74176-.19014-.076-.40281.008-.49474.18596l-2.22423-.88955c.0562-.1922-.0399-.39967-.23003-.47565-.28796-.11518-.63143.13391-.5204.52873"/><path d="M-5.95447 116.666605c-.66717-.1929-1.09841.34555-.96449.84098l-3.9683 1.49427c-.2262-.46073-.90551-.58113-1.27951.004-.21059.69457.38823 1.14767.90239.95408.33896-.12768.51659-.49092.42396-.83335l3.9683-1.49461c.15647.31883.52943.47461.86839.34728.51416-.19359.66543-.92945.0493-1.31247m-3.06903-8.5486c.25813.33202.66127.22169.7716-.069l2.4768.68069c-.0534.30635.23661.60715.62831.45344.35041-.2654.21822-.70046-.1027-.78859-.21163-.0583-.42778.0566-.50445.25743l-2.47645-.68035c.0368-.21197-.0906-.42118-.30219-.47912-.32057-.0881-.65676.21823-.49092.62554"/><path d="M-6.65875 117.204365c-.54435-.46351-1.17717-.14052-1.26113.38163l-4.35757-.27685c-.017-.52839-.60367-.92876-1.20249-.53776-.49161.56274-.12108 1.24169.44339 1.27743.37227.0236.69284-.24216.75043-.60298l4.35791.27651c.0114.36533.29594.6696.66821.69318.56447.0357 1.01757-.59048.60125-1.21116m5.73386 3.35976c.44791.0416.65676-.35353.5114-.65225l2.34323-1.43355c.19984.2661.64704.25986.81391-.15786.0493-.46767-.38683-.68313-.6904-.49717-.20019.12213-.26888.37505-.16827.58182l-2.34357 1.43321c-.13809-.18388-.39447-.23765-.59467-.11518-.30356.18561-.3105.67202.12837.84098"/><path d="M-8.16586 117.267855c-.0316.39516.31883.57488.58078.44304l1.29026 2.04903c-.2321.17901-.22169.57314.1485.71538.4125.0382.59742-.34867.43055-.61408-.11033-.1752-.33376-.23279-.51487-.14156l-1.29026-2.04902c.16063-.12385.20504-.35041.0947-.52561-.16722-.26541-.59604-.26575-.73967.12282"/><path d="M-7.28914 119.103505c-.55511.15544-.62415.72407-.31295 1.01515l-2.1479 2.78939c-.36082-.22654-.89302-.0145-.90135.5617.15508.58251.77576.64045 1.054.27894.18354-.238.15023-.57211-.0652-.77333l2.1479-2.78939c.24945.15647.58113.10339.76465-.13496.27791-.36116.0635-.94645-.53913-.9475m.18734 2.48756c.29976.56864.93535.5107 1.17959.10304l3.54296 1.68648c-.16237.44651.19359.97664.82363.8507.59812-.30532.5159-.99537.0569-1.21395-.30253-.14398-.65884-.0295-.8278.25257l-3.54295-1.68681c.11241-.30879-.0232-.65746-.32577-.80144-.45901-.21857-1.04637.15266-.90656.80941m-7.46822-7.27914c.35665.26645.73724.0406.76882-.28692h2.71861c.0312.32751.41182.55337.76848.28692.2831-.36915.026-.77645-.32613-.77645-.2321 0-.42083.17764-.44235.40453h-2.71861c-.0219-.22689-.2106-.40453-.4427-.40453-.35214 0-.60922.4073-.32612.77645m4.59591 2.88724c-.17139-.36672-.5728-.34937-.73898-.10028l-2.1774-1.16814c.11588-.27582-.0919-.61998-.49231-.55961-.3851.17381-.35422.61027-.0725.76153.1863.0999.41355.0385.52838-.13357l2.1774 1.1678c-.0798.19081-.005.41424.18075.51416.28206.15126.66266-.0645.59466-.48189m11.77791 2.83484c.0618-.68729-.5454-1.00612-1.00335-.78131l-2.21035-3.58875c.40696-.30773.39551-.99329-.24633-1.2476-.71748-.0736-1.04603.59674-.7598 1.0613.18873.30669.57696.41112.89372.25569l2.21035 3.58874c-.28137.21269-.3629.60646-.17382.91315.28623.46455 1.03249.47288 1.28958-.20122"/><path d="M-11.00036 117.406975c-.25014.45935.076.86353.46212.84514l.45554 3.15924c-.37539.0913-.57384.57141-.20435.94125.47669.26714.90655-.0999.84757-.50897-.0389-.26991-.2772-.45935-.544-.4465l-.45588-3.15924c.25951-.0635.43437-.31225.39551-.58217-.059-.40939-.57522-.63975-.95651-.24875m2.98576 8.21831c.61998-.10859.75634-.71886.44998-1.06892l2.63501-2.79703c.36775.28518.96866.11276 1.04013-.51243-.10548-.64948-.77334-.77958-1.11472-.41737-.22516.23904-.22482.60541-.0128.84723l-2.63535 2.79737c-.25397-.19741-.61999-.17555-.84515.0631-.34104.36255-.17139 1.02138.48294 1.088m-5.27349-7.86374c-.13115.5152.29143.83162.66716.71678l1.24101 2.9986c-.34694.18422-.42223.70671.0347.97837.53637.14398.86805-.32543.70742-.71366-.10617-.25604-.38823-.38301-.64809-.30357l-1.241-2.9986c.24008-.12732.35006-.41667.2439-.67271-.16064-.38857-.72719-.48606-1.00509-.005m9.53599 2.72972c-.23454.68868.30807 1.16641.83334 1.05018l1.37041 4.22643c-.49369.21405-.65258.91938-.0586 1.33952.71678.25397 1.22019-.35074 1.04256-.89822-.11693-.36081-.48849-.56447-.85174-.48432l-1.37041-4.22642c.34139-.1478.52249-.53082.40558-.89199-.17765-.54712-.94021-.74175-1.37111-.11518"/><path d="M-2.88128 122.085455c-.30981-.57071-.95165-.5041-1.19347-.0892l-3.60228-1.66045c.15856-.45345-.20781-.98497-.84306-.84966-.60055.31607-.50861 1.01271-.0423 1.22782.30774.1419.66648.0215.8337-.26541l3.60193 1.66046c-.10963.31328.0319.66403.33966.80594.46628.2151 1.05573-.16723.90585-.82953m-13.56468-43.97909c.36845.64392 1.0998.55094 1.36521.0711l4.15565 1.8027c-.16931.5218.26263 1.11888.98461.94819.67758-.37643.55476-1.16919.0166-1.40268-.35527-.15404-.76153-.007-.94472.32439l-4.15599-1.8027c.11727-.36082-.0534-.75772-.40834-.91176-.53811-.23349-1.20111.21857-1.01307.97074m2.54827 21.33818c-.60888.22656-.63316.87151-.25639 1.16918l-2.15033 3.33376c-.42673-.22066-1.00439.0673-.95963.71538.22863.63941.93118.64635 1.20978.21441.18353-.28484.11483-.65676-.14572-.86249l2.15033-3.33375c.2949.15265.66231.0618.84619-.22307.27824-.4316-.0177-1.06893-.69423-1.01342"/><path d="M-19.42648 84.307535c.82467.10616 1.23649-.61027.98704-1.17196l4.42209-2.49485c.3518.50411 1.17752.52215 1.51335-.23869.12178-.86041-.66994-1.2868-1.24273-.96345-.37782.21302-.52145.67514-.34868 1.06372l-4.42209 2.49484c-.24355-.34867-.71331-.46456-1.09113-.25153-.5728.323-.6172 1.22122.18215 1.56192m8.14892 8.93474c-.21233-.81808-1.04395-.93535-1.47935-.4871l-4.02902-3.22655c.34243-.52284.0465-1.309-.7983-1.3371-.85799.21094-.96033 1.11923-.43854 1.53729.34417.27547.83474.23592 1.13588-.0739l4.02902 3.22654c-.23662.36151-.16827.84896.17589 1.12478.5218.41772 1.38603.11935 1.40442-.76396m-2.90007-7.36796c.40175-.0534.50584-.44235.31779-.67584l1.7694-1.72984c.22898.19324.62032.0982.68277-.30253-.0506-.42049-.47704-.5218-.70602-.29768-.15127.1478-.16098.38337-.0309.5447l-1.76939 1.73019c-.15855-.13358-.39447-.12941-.54574.0184-.22898.22412-.13704.65259.28207.71261"/><path d="M-11.6481 93.670735c-.66994.50793-.45969 1.31595.11831 1.54458l-1.42211 4.9321c-.61096-.11414-1.21949.45796-.92251 1.24448.5218.70706 1.3947.45379 1.57892-.18527.12143-.42119-.10234-.8566-.50202-1.01445l1.42211-4.93244c.42257.0791.84376-.17.96518-.59154.18423-.63871-.41979-1.31802-1.23788-.99746"/><path d="M-17.63801 94.219255c.0746.66578.714.85104 1.10604.54817l2.79946 2.98437c-.32716.37157-.18319 1.02174.47635 1.13866.697-.069.87914-.77055.51659-1.15705-.23904-.255-.62831-.27894-.89961-.0693l-2.79911-2.98403c.2262-.25743.22724-.6474-.0122-.90239-.36255-.38649-1.07412-.24946-1.18757.44165"/><path d="M-13.04973 97.307365c.35561-.7251-.17417-1.32774-.76882-1.27396l-.91107-4.8464c.5735-.16584.84827-.91974.25362-1.46617-.75286-.38128-1.39262.21337-1.27466.84098.0777.4139.45796.69076.86908.65364l.91107 4.8464c-.39655.11484-.65017.5107-.57245.92459.11796.62762.93014.94957 1.49323.32092m-.30774-14.85665c.1877.36741.59604.33549.75633.0756l2.26066 1.11125c-.10755.28518.11657.6283.52214.55267.38649-.19151.33897-.6349.0461-.77888-.19325-.0951-.42257-.0243-.53325.15543l-2.261-1.11125c.0746-.19741-.01-.42222-.20296-.51729-.29282-.14363-.67272.0899-.58807.51244m1.30519 3.75354c-.42743.68.0337 1.33086.62727 1.33988l.39551 4.88734c-.58425.10443-.93466.82121-.40384 1.42349.70498.45554 1.39956-.0659 1.34821-.69873-.0336-.41772-.38059-.73101-.79137-.7369l-.39551-4.88769c.40418-.0722.69631-.43715.66265-.85451-.0513-.63317-.82051-1.03597-1.44292-.47288m-10.14001.23626c.3518-.37053.14606-.83473-.22343-.91453l.36637-3.09887c.37782.008.68625-.39481.43055-.83751-.38267-.37226-.88122-.13427-.92875.26714-.0312.26472.14606.50342.40141.55892l-.36637 3.09887c-.26125-.006-.48954.18527-.52076.44998-.0475.40141.38198.74904.84098.476"/><path d="M-17.41493 83.658415c.48745.36428 1.00751.0559 1.05019-.39205h3.71538c.0427.4479.56273.75633 1.05018.39205.38684-.50446.0357-1.06094-.44547-1.06094-.31745 0-.57523.2432-.60471.55267h-3.71538c-.0295-.30947-.28727-.55267-.60472-.55267-.4812 0-.83231.55648-.44547 1.06094m-1.49982 10.48069c.28414.41668.77472.31503.92911-.0247l2.91359 1.00023c-.0871.36289.23766.74453.71817.59014.43923-.29143.31364-.82225-.0638-.95166-.24875-.0857-.51659.0354-.6231.27026l-2.9136-1.00022c.06-.25084-.0767-.51069-.32578-.59605-.37712-.12974-.80247.21199-.63455.71192"/><path d="M-15.63756 86.675745c.19013-.64253-.32716-1.06164-.80594-.935l-1.41933-3.83646c.44617-.21545.56586-.87013.004-1.23441-.6689-.20678-1.10952.36845-.92564.86526.12143.32786.4708.50133.80178.41356l1.41933 3.8368c-.30843.14884-.46074.50792-.33965.83578.18387.49682.89267.64669 1.26563.0545m-9.38542 1.1966c.51867-.37956.3681-1.00023-.0711-1.18202l1.14976-3.75355c.46559.0954.93812-.33445.72094-.93951-.38996-.54712-1.0606-.36463-1.20943.12143-.0985.32057.0673.65641.37087.782l-1.14976 3.75354c-.32195-.0659-.64704.11935-.74522.43992-.14884.48606.30461 1.01341.93396.77819"/><path d="M-16.39076 82.921855c-.0212-.47218-.46213-.63282-.75252-.43853l-1.82767-2.23221c.24771-.24633.17728-.71053-.28137-.82398-.49335.0156-.65502.50028-.41841.78963.15612.19047.42916.22586.62969.0916l1.82803 2.23221c-.17139.17035-.19082.44478-.0347.63559.23696.28901.74419.22621.85694-.2543"/><path d="M-16.73874 76.867415c-.42986.0111-.58321.40939-.41147.67653l-2.06117 1.62507c-.21962-.22933-.64323-.17313-.75425.24216.006.44894.44408.60402.71123.39378.1759-.13878.21267-.3865.094-.57141l2.06117-1.62472c.15196.15855.40106.18075.5773.042.26715-.21059.21857-.67306-.21684-.78339m-2.86502 12.62133c-.32578.77611.26194 1.37075.87741 1.27846l1.24274 4.98623c-.58633.20747-.82642 1.00855-.17451 1.54075.80663.35077 1.43563-.30669 1.27465-.95269-.10616-.4257-.51833-.69041-.94402-.62692l-1.24274-4.98621c.40557-.14364.64531-.57072.53914-.99676-.16097-.64601-1.0252-.93119-1.57267-.24286m7.76173-8.93613c-.37261-.48017-.95512-.32162-1.11541.0978l-3.57625-.98843c.0777-.4427-.3407-.87776-.9069-.65676-.50688.38268-.31676 1.01168.1464 1.1397.30566.0843.61825-.0808.72927-.37088l3.5766.98843c-.0538.306.12976.60853.43506.69284.46317.12802.94958-.31398.71123-.90274"/><path d="M-15.36833 81.492465c.0357-.42569-.34104-.62102-.6238-.48016l-1.38047-2.21313c.25049-.19221.24112-.61651-.15682-.7716-.44443-.043-.64531.37296-.46663.65954.11796.18908.35839.25257.55406.15508l1.38047 2.21347c-.17347.13254-.22238.37643-.10443.56552.17868.28657.6408.289.79762-.12872m-.75633 21.36976c.42015-.5624.0645-1.16225-.45241-1.21187v-4.28747c.51694-.0496.87256-.64948.45241-1.21187-.58216-.44651-1.22435-.0413-1.22435.51382 0 .36637.28067.66369.63767.69805v4.28747c-.357.034-.63767.33168-.63767.69804 0 .55511.64219.96033 1.22435.51383m-4.47309-15.58905c.5492-.31606.46836-.94055.0579-1.16607l1.53035-3.5537c.44617.14363.95513-.2269.80768-.84306-.323-.578-.99988-.47114-1.19833-.0111-.1308.30357-.005.65051.27963.80628l-1.5307 3.5537c-.30843-.0992-.64704.0472-.77784.35111-.1981.46004.18943 1.02521.83127.86284m-1.5411 2.03759c.38891.29074.80351.0448.83786-.3126h2.96355c.034.35735.44894.60334.83752.3126.30877-.4021.0288-.84619-.35527-.84619-.25292 0-.45865.19395-.48225.44096h-2.96355c-.0239-.24701-.22933-.44096-.4826-.44096-.38371 0-.66404.44409-.35526.84619m-.63282-9.5117c-.46004.3112-.35007.85208.0232 1.02312l-1.11264 3.20364c-.39898-.0971-.82051.25882-.65259.78825.31918.48502.90412.34867 1.0481-.0663.0951-.27373-.0371-.56863-.29524-.68694l1.11263-3.20398c.27617.0673.56274-.0822.6578-.35596.14398-.41494-.23037-.88435-.78131-.70186"/><path d="M-13.38765 89.631675c-.34555-.59882-1.02694-.51001-1.27258-.0618l-3.87913-1.66669c.15612-.48676-.24841-1.04187-.92078-.88019-.63039.35283-.51347 1.09147-.0111 1.30727.33167.14259.70984.005.87984-.30566l3.87913 1.6667c-.1079.33653.052.70603.38372.84827.50236.21615 1.11853-.20747.9409-.90794"/><path d="M-12.50851 86.627175c-.62102.36602-.52214 1.07551-.0524 1.32739l-1.70069 4.05989c-.50896-.15786-1.08384.26922-.90899.96831.37435.65398 1.14317.52492 1.36313-.00098.14537-.34694-.002-.73968-.32682-.91385l1.7007-4.06023c.3518.10929.73551-.0611.88053-.408.22031-.52596-.22689-1.16433-.95547-.97247m-5.91289 15.54984c.34729-.18665.30877-.57662.0576-.72441l1.01723-2.18225c.27477.0975.59847-.12351.51798-.50966-.19047-.36533-.61339-.31155-.74523-.0288-.0867.1863-.0149.40418.1589.50653l-1.01723 2.18224c-.19012-.0673-.40349.0177-.49023.20401-.13183.28275.0989.6415.50098.55233m-3.12939-24.18868c-.43194-.0708-.66161.29871-.54053.59882l-2.37168 1.23371c-.17625-.27165-.61061-.29593-.80074.0985-.0798.45067.32925.68902.63664.52943.20261-.10547.28657-.34625.20261-.55372l2.37203-1.23372c.12177.18804.36706.25743.56967.15196.30705-.15959.3466-.63143-.068-.82502"/><path d="M-13.27143 94.011795c.42605-.28658.32578-.78652-.0187-.94577l1.03769-2.95835c.36845.0909.75946-.23696.60542-.72684-.29352-.44929-.83474-.32509-.96901.0583-.0888.25257.0326.52596.27096.63594l-1.0377 2.95835c-.255-.0628-.52041.0746-.60887.32752-.13462.38301.21024.81808.72024.65085m-1.50571 1.2476c-.56586.11691-.67446.6807-.38303.99363l-2.3408 2.64091c-.34555-.25154-.89233-.076-.94055.49994.11483.59292.73169.69387 1.03492.35179.19983-.22585.18943-.56204-.0118-.77819l2.3408-2.64124c.23904.17381.57418.14363.77402-.0819.30323-.34209.12906-.94229-.47357-.98496"/><path d="M-19.88549 95.495995c-.26644.55996.14572 1.01758.6016.97108l.74279 3.71191c-.43853.13254-.64287.71366-.18144 1.1279.58147.28588 1.06718-.17624.97108-.6571-.0635-.31711-.35804-.52631-.67306-.49404l-.74315-3.71191c.30357-.0916.49474-.39794.43125-.71505-.0965-.48086-.72268-.72024-1.14907-.23279m1.64415-7.23786c-.41043.13809-.44027.56725-.19567.77367l-1.50364 2.17532c-.27963-.15612-.67064.0236-.65467.45622.13877.4309.60679.45068.80143.16862.12836-.18561.0905-.43506-.0788-.57765l1.50398-2.17532c.19325.10789.43993.0552.56829-.13044.19498-.28172.0111-.71262-.44096-.69042"/><path d="M-17.53705 95.614995c-.24633-.66022-.94576-.68624-1.26841-.27721l-3.6172-2.3297c.23905-.46282-.0739-1.08904-.77679-1.04012-.69319.24841-.70013 1.01029-.23176 1.31213.30912.19879.71261.1242.9357-.15891l3.61719 2.33005c-.16549.31988-.0666.71817.24216.91731.46872.30149 1.15948-.0198 1.09911-.75355m6.29938 4.22955c-.1471.38787.15266.67062.45415.61477l.69735 2.43516c-.28519.11241-.38996.51106-.0597.76188.40315.15925.70221-.17554.61166-.4909-.0593-.20817-.26715-.33134-.47566-.29283l-.69769-2.43517c.19741-.0777.30843-.29212.24875-.50028-.0902-.31538-.52075-.44096-.77888-.0926"/><path d="M-15.71735 95.418285c-.48329-.49058-1.11819-.23419-1.24239.25951l-4.15877-.63421c.0284-.50861-.50098-.94229-1.10847-.6179-.51937.49855-.22135 1.18133.3171 1.2632.35561.0545.68555-.17346.77159-.5152l4.15842.63421c-.0194.35179.2276.66785.58286.72198.53845.0822 1.0266-.48086.67966-1.11159m2.67872-18.26187c-.50306.67306-.077 1.39088.54088 1.4502v5.12951c-.6179.0593-1.04394.77714-.54088 1.44986.69631.53463 1.46478.0496 1.46478-.61478 0-.43818-.33549-.79414-.76327-.83508v-5.12951c.42778-.0409.76327-.39689.76327-.83508 0-.66439-.76847-1.14941-1.46478-.61512m1.71423 13.02377c-.1818-.748-.93708-.86631-1.33988-.46455l-3.62136-2.99444c.31919-.47114.0607-1.1907-.70776-1.22852-.78373.17972-.8899 1.00509-.42083 1.39297.30912.25604.75632.2269 1.03492-.051l3.62135 2.99444c-.22065.32577-.16514.77055.14433 1.02624.46906.38788 1.25974.12837 1.28923-.67514"/><path d="M-21.42104 98.519235c.74002.2151 1.2188-.38198 1.07065-.93189l4.40406-1.65247c.25014.51173 1.00335.646 1.41933-.002.23418-.7702-.42951-1.27361-.99988-1.05955-.37643.1412-.57384.544-.47115.92425l-4.40405 1.65247c-.17278-.35388-.58667-.527-.96276-.38614-.57037.21405-.73933 1.03006-.0562 1.45576m2.94343-15.02261c-.85624.0295-1.15531.82606-.80802 1.35584l-4.08036 3.27303c-.44165-.4538-1.28437-.33445-1.49912.49509.0194.89509.89545 1.19658 1.42384.77263.34867-.27964.41771-.77368.17763-1.1397l4.08036-3.27338c.30565.31398.80282.35353 1.15149.0739.52839-.42396.42396-1.34439-.44582-1.55741m5.68114 18.70838c-.0409.51416.41529.748.75599.57661l1.67814 2.66623c-.30184.23315-.2883.74558.1929.93084.53706.0496.77749-.4538.56031-.799-.14329-.22759-.43437-.30288-.66994-.18457l-1.67815-2.66588c.20886-.16134.2668-.45588.12351-.68383-.21753-.3452-.77541-.34589-.96276.1596"/><path d="M-18.52722 83.975165c-.38753.0864-.45553.47461-.25257.68625l-1.57823 1.83808c-.23973-.16895-.61304-.0427-.6401.35319.0853.40557.50965.46837.714.23037.13496-.15717.1242-.38788-.0163-.53429l1.57823-1.83809c.16584.11692.39551.0926.53047-.0642.20435-.23834.0784-.64843-.33549-.67132m-3.70461 8.0653c.32577-.37677.10408-.81913-.25882-.88019l.21684-3.03259c.36775-.009.64982-.41529.38129-.83439-.38927-.34555-.86388-.0913-.89199.30149-.0187.25915.1648.48363.41564.52595l-.21684 3.0326c-.25431.006-.46767.20262-.48606.46178-.0281.39274.40557.71192.83994.42535"/><path d="M-21.34471 90.707535c.26853-.44305-.0354-.85833-.41841-.85799l-.30531-3.14847c.37608-.0732.59465-.53915.24598-.92217-.45935-.28657-.90204.0566-.86249.46455.026.26888.25326.46733.51798.46733l.3053 3.14848c-.2602.0507-.44477.289-.41875.55787.0395.40766.53984.65989.9357.2904"/><path d="M-22.76543 90.538575c-.0253.60297.51798.8559.90863.6408l2.07921 3.04196c-.34243.28553-.30392.884.26715 1.07898.62935.0347.88851-.56411.61928-.95824-.17763-.25986-.5211-.3348-.79102-.18596l-2.07921-3.04197c.23661-.19776.29143-.54469.1138-.80456-.26923-.39412-.92148-.37018-1.11784.22899m15.52972 1.56435c-.75079-.23627-1.25384.3629-1.11472.92806l-4.53624 1.59038c-.2439-.52839-1.01098-.68244-1.45021-.0291-.25639.78165.41043 1.31074.99815 1.10466.38753-.13566.59812-.54262.50202-.93362l4.53623-1.59037c.16896.36532.58772.55164.97525.41598.58737-.20608.77819-1.03561.0895-1.48594m-10.23575-14.28841c-.50792-.37955-1.04984-.0583-1.0946.40835h-3.87149c-.0448-.46663-.58668-.7879-1.0946-.40835-.40349.52562-.0375 1.10535.46421 1.10535.33063 0 .59916-.25292.63039-.57557h3.87149c.0309.32265.29976.57557.63039.57557.50133 0 .86735-.57973.46421-1.10535m11.60513 24.9762c-.59604-.34903-1.14351.0649-1.13518.57557l-4.19173.47184c-.10547-.4996-.731-.78166-1.23476-.30878-.37261.61825.0944 1.20145.63733 1.14039.35804-.0402.6179-.34728.61235-.70013l4.19173-.47183c.0729.34555.39447.58667.75251.54643.54296-.0611.86873-.73343.36775-1.25349m-5.85252-12.97104c.39586-.24113.32543-.69631.0212-.85382l1.05505-2.62564c.32855.0968.69422-.18319.57522-.63108-.24667-.41668-.73967-.32648-.87637.0135-.0898.22447.009.47565.21892.58459l-1.05504 2.62564c-.22725-.067-.47219.0461-.56239.27061-.13669.34.15682.74627.62345.61617m.13358 10.95774c-.17659-.71018-.89545-.81912-1.27639-.43506l-3.45899-2.82929c.30114-.44964.052-1.13276-.67931-1.16503-.74453.17486-.84133.96068-.39343 1.32705.29559.24181.72059.21197.98427-.0538l3.45899 2.82963c-.20816.31086-.15335.73343.14225.97525.44789.36637 1.19867.11588 1.22261-.64878"/><path d="M-17.43019 87.629135c-.60611.46594-.40939 1.19938.11761 1.40337l-1.26078 4.49357c-.55614-.10027-1.1057.42395-.83057 1.13726.47877.63907 1.27084.40315 1.43424-.17867.1079-.38406-.0985-.77819-.46316-.91939l1.26078-4.49357c.38476.0694.76604-.15994.87394-.54399.16306-.58182-.39065-1.19557-1.13206-.89858m1.79853-11.8976c-.16653.38371.12212.68277.42847.64045l.58806 2.48513c-.29247.0996-.41667.49612-.0957.7643.39863.17902.71504-.14398.63906-.46593-.0503-.21199-.25361-.34625-.46559-.31711l-.58807-2.48478c.20227-.0687.32404-.27963.27374-.49196-.076-.32196-.50376-.46872-.77992-.1301"/><path d="M-17.5995 82.249145c-.43541.58285-.0666 1.20422.46871 1.25557v4.44083c-.53532.0513-.90412.67271-.46871 1.25558.60298.46246 1.26806.0427 1.26806-.53256 0-.3792-.29038-.68763-.66057-.72302v-4.44083c.37019-.0357.66057-.34382.66057-.72302 0-.57523-.66508-.99502-1.26806-.53255m6.45932 13.32977c-.32612.78096.26576 1.37769.88401 1.28437l1.25661 5.01154c-.58945.20956-.82953 1.01515-.17347 1.54944.81149.35145 1.44327-.31051 1.28056-.95964-.10721-.42812-.52214-.69353-.94993-.629l-1.25661-5.01189c.40765-.14468.64808-.57453.54088-1.00266-.16271-.64912-1.03215-.93465-1.58205-.24216m-.88643-3.37191c.49717-.66543.0763-1.37526-.53498-1.43391v-5.07156c.61131-.0586 1.03215-.76847.53498-1.4339-.68867-.52839-1.44812-.0489-1.44812.60819 0 .43333.33167.78512.75424.82571v5.07156c-.42257.0406-.75424.39274-.75424.82607 0 .65676.75945 1.13623 1.44812.60784"/><path d="M-16.94483 88.046855c.42154-.0579.52909-.46698.33064-.71088l1.84988-1.82386c.24113.20157.65155.0999.71539-.32058-.0548-.4413-.50306-.54574-.74245-.30982-.1582.15613-.16723.4035-.0298.57246l-1.85023 1.82386c-.16688-.13947-.41459-.13392-.57245.0218-.23973.23626-.1412.68555.29906.74696m7.1258 2.9639c-.59743-.027-.85035.51105-.63802.89892l-3.02323 2.05146c-.28241-.3407-.87568-.30462-1.07101.2609-.0364.62449.55649.8833.94819.61755.25812-.17521.33375-.5152.187-.78374l3.02323-2.05146c.19498.23558.53915.29109.79727.11588.3917-.26575.37019-.91244-.22343-1.10951"/><path d="M-8.67483 92.867585c-.0802-.38407-.46281-.45692-.67479-.25917l-1.79402-1.58655c.17034-.23454.051-.60542-.33966-.63768-.40245.0784-.47045.49716-.238.70256.15335.13564.38129.12836.52804-.009l1.79402 1.58656c-.11795.16237-.0971.38961.0563.52526.23245.20539.63941.0867.6682-.3223m-14.99512-13.85035c.0604-.43992-.32058-.66335-.62172-.53256l-1.31248-2.37341c.27097-.18562.28415-.62692-.12073-.80976-.459-.0691-.69041.35215-.52041.65953.11206.20262.35839.28172.5669.19117l1.31247 2.37376c-.18734.12837-.25153.37886-.13947.58182.17.30739.64982.33514.83544-.0906m7.65106 7.8561c-.48121-.35943-.99433-.0552-1.03701.38684h-3.66715c-.0423-.442-.5558-.74627-1.03665-.38684-.38233.49787-.0354 1.04706.43957 1.04706.31328 0 .56759-.23974.59708-.54538h3.66715c.0295.30564.2838.54538.59709.54538.47496 0 .8219-.5492.43992-1.04706m-2.61246-4.14211c-.255-.31051-.63698-.19463-.73517.0853l-2.38174-.58563c.043-.29386-.24147-.57349-.6113-.41702-.32786.26229-.19047.67445.11796.75043.20365.05.4073-.0652.47496-.25882l2.38174.58564c-.0295.2033.0971.39967.3008.44998.30842.0756.62136-.22551.45275-.60992m7.29753 12.65254c-.12976-.36567-.51451-.38614-.69596-.16375l-1.97062-1.31525c.13565-.25258-.0309-.60021-.41841-.57974-.38371.13079-.39447.55025-.13912.72059.16827.11241.391.0746.51625-.0791l1.97096 1.31525c-.094.17451-.0434.39481.12525.50722.255.17036.63837-.00077.61165-.40522m-1.92864-7.50813c.44929-.0743.55233-.51485.33272-.7702l1.92621-2.00566c.26402.20886.69978.0881.75598-.36393-.0718-.47046-.55406-.56933-.80351-.30948-.1648.17139-.16723.43646-.0153.61305l-1.92622 2.00565c-.18248-.14432-.4472-.13114-.612.0403-.24945.25986-.13079.73794.34209.79032m-6.14395-9.35592c.61582.15474.99225-.35145.85347-.79969l3.57695-1.49462c.22135.4139.84619.50133 1.16884-.0451.16965-.64149-.39239-1.03596-.85555-.84237-.30566.12767-.45623.46525-.36013.77541l-3.5766 1.49462c-.15335-.28623-.49925-.41633-.8049-.28866-.46317.19359-.57731.87047-.002 1.20041m-6.98468-38.748476c-.67237.473573-.49404 1.27084.0631 1.514047l-1.55776 4.773196c-.59326-.132533-1.20735.406266-.94367 1.185145.48571.708798 1.34786.490921 1.54978-.127326.13287-.408001-.0711-.840982-.45658-1.0089l1.55776-4.773546c.41009.09159.83058-.137734.96345-.545389.20192-.618247-.36567-1.302757-1.17612-1.017227m-1.01164 9.415943c.374.217881.71608-.04233.71019-.361856l2.62355-.301492c.067.312941.459.48849.77368.191857.23245-.387876-.0607-.752163-.40071-.713307-.22413.02568-.3865.218226-.38233.439572l-2.62356.301146c-.0461-.216145-.24806-.366715-.47219-.341043-.34.03886-.54261.460388-.22863.785123m.3171 5.10765c.2616-.714698-.29455-1.22678-.84618-1.117494l-1.33329-4.449849c.52075-.212327.70359-.945758.0926-1.398861-.74315-.282409-1.28368.33792-1.1109.914185.11379.380246.49751.60194.8788.526309l1.33329 4.450195c-.36013.146409-.55858.542615-.44478.922861.17278.576267.96518.797267 1.43043.152654"/><path d="M-22.15482 47.866718c-.204-.690756-.91557-.766735-1.27361-.372613l-3.52249-2.632925c.27652-.455186.002-1.116107-.71816-1.116107-.72441.204001-.78582.980452-.32959 1.321494.30114.224817.71781.177286.96518-.0954l3.52248 2.633272c-.19116.314328-.119.727533.18215.95235.45622.341042 1.18341.06245 1.17404-.690063m5.46465.111708c.21094-.806984-.44894-1.307964-1.03943-1.131719l-1.9165-4.71838c.54643-.285531.66994-1.105004-.0441-1.535904-.84028-.231408-1.3659.501676-1.11749 1.112637.16376.403145.60507.605411 1.01376.483289l1.9165 4.71838c-.37817.197409-.55372.650165-.38997 1.053308.24807.610962 1.13589.770207 1.57719.0184"/><path d="M-23.96203 38.021608c-.0801.821556.64323 1.207699 1.19278.942982l2.61176 4.310033c-.48953.364635-.48155 1.184801.28345 1.49427.85729.09437 1.25592-.704288.91766-1.262513-.22308-.36845-.68625-.496471-1.06615-.313287l-2.61176-4.310379c.33861-.251877.43923-.721982.21614-1.090086-.33826-.558225-1.23059-.574532-1.54388.22898m4.04081 11.397317c-.50619.07876-.62692.573146-.38267.862839l-2.18816 2.236375c-.29489-.238002-.78651-.106509-.85451.401062.0756.530125.61756.646697.90101.357.187-.191162.19255-.48953.0236-.689714l2.18815-2.236029c.20365.16445.50167.152308.68867-.03886.28345-.289694.15543-.828838-.37608-.892677m-3.1478 77.201034c-.53671-.40106-1.10951-.0614-1.15704.43194h-4.0925c-.0475-.49334-.62033-.833-1.15704-.43194-.42639.5558-.0396 1.16884.49057 1.16884.34971 0 .63351-.26783.66647-.60887h4.0925c.033.34104.31676.60887.66647.60887.53013 0 .91696-.61304.49057-1.16884m-7.318-67.356612c-.45553.609571-.0697 1.260083.49023 1.313859v4.646913c-.55996.05378-.94576.703939-.49023 1.313513.63109.483981 1.32705.04476 1.32705-.556838 0-.397246-.30392-.719555-.6911-.756675v-4.646913c.38718-.03712.6911-.359777.6911-.756675 0-.601939-.69596-1.041165-1.32705-.557184"/><path d="M-29.41072 64.72799c.13947.563777.70984.650512 1.01237.345898l2.74291 2.247477c-.23939.356652-.042.89892.5381.92494.59084-.138429.66821-.761531.31294-1.052615-.23418-.192204-.57141-.168612-.78096.04198l-2.74256-2.247475c.16514-.246675.12213-.581818-.11241-.774024-.35526-.291081-.95096-.09263-.97039.513819m8.34182 12.831915c.4257-.56932.0652-1.17682-.45796-1.22712v-4.340918c.52319-.0503.88366-.657798.45796-1.227125-.58945-.452411-1.23961-.04198-1.23961.52041 0 .370877.28379.672022.64565.706715v4.340918c-.36186.0347-.64565.33583-.64565.70671 0 .56239.65016.97282 1.23961.52041m-3.66091-7.678129c-.19428-.337919-.578-.288654-.71712-.03643l-2.18364-.943677c.0885-.274081-.13878-.587368-.51798-.497165-.35561.19845-.29039.614432-.008.7369.18665.08049.39967.0031.49612-.171387l2.18364.943674c-.0611.189778.0288.397942.21511.478778.28275.122124.63073-.115877.53151-.510695m-1.7534-15.412801c.20157.41841.66231.392738.84931.104431l2.51566 1.308656c-.12872.318491.11484.710185.57314.635246.43992-.205042.39794-.705676.0722-.875329-.2151-.111714-.47531-.03781-.60437.161326l-2.51566-1.308656c.0888-.219958-.00026-.475308-.2151-.587022-.32578-.169653-.7598.08361-.67515.561348m7.24723 16.318659c-.31919.32196-.14537.737942.18075.816003l-.38475 2.74256c-.33515-.0146-.61652.33722-.39829.73481.33237.33792.77957.13635.82953-.21891.0326-.23419-.12004-.44964-.34555-.50376l.38476-2.742905c.23175.01041.43783-.154733.47079-.389266.0496-.355266-.32473-.672021-.73724-.438532m-3.24771-7.925144c.51139.381981 1.05678.05829 1.10188-.411123h3.89648c.0451.469409.59049.793104 1.10154.411123.40592-.52943.0378-1.112983-.46699-1.112983-.33306 0-.60332.255-.63455.579735h-3.89648c-.0312-.324735-.30183-.579735-.63455-.579735-.5048 0-.87325.583553-.46733 1.112983"/><path d="M-14.37747 64.501786c-.82156.152652-.99468.964839-.58251 1.425228l-3.46038 3.750418c-.49196-.373654-1.28749-.136-1.37388.695267.14883.860411 1.03769 1.024166 1.4856.538452.29593-.320227.29073-.806984.006-1.125474l3.46038-3.750419c.34035.25847.82572.224471 1.12131-.09576.44825-.485717.21371-1.358616-.65606-1.437718"/><path d="M-19.70473 67.013975c.42153.171043.73898-.15057.68521-.482246l2.68531-.703939c.11588.315368.55024.439918.83335.0843.18422-.438185-.17486-.773677-.52284-.682432-.22933.06002-.36984.28449-.33237.513819l-2.68566.70394c-.0801-.217877-.31259-.344857-.54192-.284838-.34798.09125-.49612.55996-.12108.851391m3.69109-2.993743c-.21996-.375389-.64774-.316409-.80039-.03365l-2.44592-1.0318c.0958-.306693-.16064-.653981-.58286-.549552-.39482.224817-.31815.688675-.001.822247.2092.08813.44617-.000261.55198-.196021l2.44593 1.031799c-.0666.211981.0357.443389.24494.531512.31675.13392.7022-.13496.58771-.574532m-10.91932 9.385413c.57349-.05482.74176-.601939.48676-.943328l2.60482-2.364046c.31502.28657.87602.171735.986-.393779-.05-.599858-.65016-.766735-.98739-.460388-.22273.201919-.24875.536368-.0725.772287l-2.60482 2.364396c-.21788-.198104-.55337-.204349-.77576-.0024-.33757.30635-.22967.920085.3629 1.027289m9.32019-4.539794c.22239.319878.6009.238.71782-.02531l2.25684.753553c-.0649.281021.18839.573492.55823.45137.33757-.227939.23696-.637328-.0552-.734818-.1929-.06453-.39864.03088-.47947.213021l-2.25687-.753533c.0447-.194287-.0628-.394124-.2557-.458655-.29212-.09749-.61825.169307-.48572.554411"/><path d="M-13.85429 64.990971c-.4243-.366022-.92147-.116225-.98982.292121l-3.41249-.239734c-.0108-.4139-.46837-.730655-.93952-.427776-.38788.43853-.1013.972125.3407 1.003349.29143.02048.544-.185961.59118-.468715l3.4125.239735c.007.286571.22829.526308.52007.546776.44165.03088.80039-.457266.47738-.945756m-3.48154-12.401361c-.44026-.01874-.62483.378163-.46767.663348l-2.2218 1.518208c-.20851-.250144-.64531-.222042-.78825.194979-.0253.459697.41216.648777.69978.452412.19012-.129757.24494-.380595.136-.577655l2.2218-1.51821c.14433.173122.39759.213023.58737.08327.28796-.196715.27061-.672715-.16723-.816348m2.68185 18.44505c-.22655-.310857-.59778-.221346-.70706.04094l-2.24262-.692494c.0576-.278245-.1988-.561348-.561-.432286-.32752.232449-.21927.633859.0711.723369.19151.05933.39239-.0392.46802-.220654l2.24262.692145c-.0396.192552.0708.387185.26229.446166.29039.08986.6061-.180757.46663-.557187m-9.40031-14.735573c.29698.684858 1.03873.673061 1.35722.222735l3.95581 2.263433c-.22724.503064.13878 1.148024.87949 1.057472.71956-.301489.68452-1.107778.17208-1.400943-.33791-.193592-.76049-.09194-.98079.219614l-3.95581-2.263434c.15716-.347983.0305-.763616-.30739-.957208-.51243-.293165-1.22539.08534-1.12061.858331"/><path d="M-20.00796 67.452508c.0222.503757.49266.675493.80248.468369l1.9491 2.383128c-.26471.262286-.18977.757716.29941.879146.52666-.01632.69943-.533594.44686-.842023-.16653-.203654-.45761-.241816-.67168-.09819l-1.9491-2.38313c.18318-.181797.20365-.474613.0371-.677919-.25222-.308777-.79345-.242165-.91418.270612m5.76856 10.046334c.41911-.35978.24876-.88123-.13912-1.00786l.73551-3.290377c.40523.05066.78131-.348675.55511-.852431-.37019-.442695-.93223-.241816-1.02764.184573-.0628.281021.10131.557531.36949.644959l-.73551 3.290386c-.27998-.035-.54643.14502-.60922.42604-.0951.42639.3282.84757.85138.60471m-4.46441-3.63072c.34555.21441.6741-.0208.67722-.321617l2.47507-.213716c.0541.295941.41841.471493.72198.200532.22898-.358042-.0371-.708798-.35769-.681042-.21129.0184-.36915.194979-.37123.403144l-2.47507.213367c-.0375-.204346-.22308-.351451-.43471-.333062-.32058.02741-.52249.418409-.23557.732394m-8.91046-7.014084c.2269.363592.64705.294203.78964.01111l2.43968.949227c-.086.30496.17624.640453.58945.525614.38302-.232103.29455-.687287-.0212-.810449-.20851-.08084-.43992.01282-.53845.208509l-2.43968-.949227c.0597-.21094-.0475-.436449-.25604-.517633-.31606-.122817-.68867.152652-.56343.582859m8.5413-10.322164c-.26853-.413552-.75043-.324735-.90863.0034l-2.82479-1.041169c.093-.352489-.21579-.732737-.68867-.592572-.43576.275122-.32474.796573.0413.931534.24147.08881.5055-.0236.61478-.250492l2.82479 1.041168c-.0642.243898.0638.50098.3053.589795.36568.134961.7886-.189774.63594-.681736"/><path d="M-23.23033 71.502682c.46837.349715.96761.05343 1.0089-.37643h3.56897c.0413.429858.54053.726145 1.0089.37643.37192-.484675.0343-1.019308-.42778-1.019308-.30496 0-.55267.23349-.58112.531164h-3.56897c-.0284-.297674-.27617-.531164-.58113-.531164-.46212 0-.79969.534633-.42777 1.019308m9.01315-1.433554c-.39205.13808-.4146.550245-.17694.744879l-1.4124 2.106966c-.27026-.145715-.64253.03191-.62136.446858.13912.411474.58806.423614.77089.150572.12074-.180062.0808-.418409-.0833-.553024l1.41204-2.10731c.187.100959.42292.04719.54331-.132879.18284-.27304.001-.683818-.43229-.656062m-2.62455-12.665383c-.35041-.19602-.66335.05066-.6526.346939l-2.42788.322307c-.067-.289001-.43333-.44547-.7206-.165144-.20885.363246.0687.696657.38337.654676.20712-.02741.35457-.208511.34729-.413552l2.42788-.321959c.0465.199488.23592.336185.44339.308428.31433-.04163.49578-.435756.19915-.731695m-2.55383 17.09962c.42188.73829 1.26009.63212 1.56435.0822l4.76175 2.0681c-.19394.59778.30045 1.28264 1.1279 1.08696.77715-.43089.63664-1.33988.0198-1.60771-.40662-.1766-.87255-.009-1.0828.37157l-4.7621-2.06811c.13427-.4132-.0607-.868041-.46767-1.044981-.61651-.267839-1.37666.249797-1.16121 1.111941m-1.93974-12.890547c-.28345.723023.27166 1.258696.83751 1.160167l1.25558 4.573011c-.53672.20435-.74072.948535-.12767 1.425577.75181.305655 1.31802-.314674 1.15531-.9069-.10721-.390656-.49335-.625881-.8847-.557879l-1.25557-4.573014c.37122-.141205.5832-.540879.476-.931533-.16272-.592226-.96623-.836472-1.45646-.189429m-2.74325-3.970031c-.33827-.252919-.69908-.03886-.72892.272h-2.57915c-.0298-.310859-.391-.524919-.72927-.272-.26853.350062-.025.736205.30913.736205.2203 0 .39932-.168613.42014-.383367h2.57915c.0205.214754.19949.383367.4198.383367.3341 0 .578-.386143.30912-.736205m7.32251 2.129167c-.40141-.415287-.93535-.205041-1.04359.207818l-3.4805-.562736c.0274-.426042-.41286-.793797-.9246-.526306-.43923.413897-.19463.988429.25639 1.061286.29733.04823.57557-.14051.65051-.426041l3.48085.563083c-.0191.294552.18561.561002.48294.609226.45067.07285.86422-.395163.578-.92633"/><path d="M-17.48327 53.734857c-.47184.138429-.52458.624145-.25605.869083l-1.802 2.401517c-.31051-.189429-.76188-.0028-.76292.488839.13843.495084.66855.537758.9017.226899.15404-.205388.12212-.48988-.0638-.659185l1.80235-2.401519c.21441.130797.49647.08188.65051-.123163.23349-.310859.0441-.808021-.46975-.802471m-7.26457 16.631251c-.16896.421185.153.736553.48398.681737l.71261 2.676987c-.31433.116913-.4368.550593-.0808.831963.43749.18214.77125-.17763.67896-.52423-.0611-.22863-.28553-.368101-.51416-.329937l-.71296-2.676987c.21753-.08084.34312-.313287.28241-.541921-.0926-.346939-.56066-.493002-.85001-.117612m4.64379-6.48708c.73031.223083 1.21325-.361857 1.07378-.908635l4.3874-1.577883c.24078.51035.98566.653983 1.40684.01665.24251-.760145-.40835-1.268064-.97663-1.063718-.3747.13496-.57592.531512-.47982.909676L-19.07946 62.833c-.16688-.353183-.57454-.530469-.94923-.395857-.56829.204346-.74661 1.010635-.0753 1.441881m-5.70092 13.732221c.3348-.26124.22239-.66786-.0711-.77888l.68104-2.50213c.30947.0531.61235-.24043.45657-.635245-.26853-.353184-.70775-.218918-.79588.105125-.0583.21406.0579.43194.2609.50896l-.68104 2.50178c-.21406-.0368-.425.0923-.48294.306-.0885.32404.22204.66266.63247.49439m2.28599-9.627577c.595.444777 1.2299.06835 1.28229-.47843h4.53727c.0524.546778.68729.923207 1.28264.47843.47253-.615818.0437-1.295474-.544-1.295474-.38753 0-.70221.296634-.73864.6748h-4.53727c-.0361-.378166-.35111-.6748-.73864-.6748-.58772 0-1.01653.679656-.54365 1.295474"/><path d="M-23.99915 66.301709c-.48121.388919-.30774.978716.12282 1.133452l-.93258 3.661948c-.45206-.07008-.88643.364981-.64982.936737.40002.508268 1.03666.301838 1.15739-.172427.0798-.31294-.0951-.627963-.39273-.735167l.93257-3.661602c.3126.04823.61651-.144674.69631-.457612.12074-.474267-.33931-.959984-.93396-.705329"/><path d="M-24.60803 66.151485c.47669.334795.96588.02498.99433-.404879l3.55648-.103736c.0538.427431.56031.708103 1.01653.345898.35631-.494041.005-1.01688-.45588-1.00335-.30392.009-.544.248756-.56377.546084l-3.55648.103736c-.0371-.295246-.29074-.520758-.59466-.512083-.46073.01353-.78131.556143-.39655 1.02833"/><path d="M-19.67177 64.617663c.23349-.821901-.4316-1.349596-1.04047-1.181676l-1.86134-4.873811c.56586-.280675.71019-1.117144-.0118-1.574065-.8559-.255-1.40996.484328-1.16884 1.115759.15925.416328.60715.632818 1.02798.516593l1.86168 4.87381c-.39134.194285-.58112.654327-.42187 1.070654.24077.631086 1.14698.813229 1.61465.05273m-4.78361.8389c.48086-.643572.0736-1.330167-.51763-1.387065v-4.905728c.59118-.0569.99849-.743491.51763-1.387066-.66613-.511042-1.40094-.04719-1.40094.588063 0 .419104.32091.759798.72961.799003v4.905728c-.4087.0392-.72961.379898-.72961.799003 0 .635245.73481 1.099105 1.40094.588062m-3.39723 2.918804c-.45554.609574-.0701 1.259739.48988 1.313513v4.645871c-.55997.0538-.94542.70394-.48988 1.31352.63073.48398 1.32669.0447 1.32669-.55684 0-.3969-.30392-.71955-.6911-.75668v-4.645871c.38718-.03713.6911-.359775.6911-.756675 0-.601594-.69596-1.040819-1.32669-.556838m4.06127 2.217986c.55372-.453449.34868-1.134145-.15057-1.310043l1.05053-4.24238c.52354.07771 1.02244-.428817.74454-1.088351-.46664-.584594-1.20146-.341042-1.33746.208511-.0895.362553.11484.72545.46005.847226l-1.05054 4.242034c-.36186-.05343-.71227.172081-.80212.534634-.136.549553.40002 1.107778 1.08557.808369"/><path d="M-27.58963 66.662178c.73759.256042 1.25349-.323346 1.13172-.88747l4.54248-1.443965c.22655.530471.98219.705675 1.43633.07078.27721-.767084-.36845-1.311084-.95686-1.123737-.38788.123163-.60888.52041-.52457.910717l-4.54248 1.443962c-.15682-.367062-.56621-.563777-.95444-.440266-.58841.187001-.80143 1.003696-.13218 1.469983m7.98031-5.933016c.32647.244247.67479.03747.70359-.262286h2.48895c.0284.299756.37677.506533.70359.262286.25916-.33792.0239-.710534-.29837-.710534-.21267 0-.38545.162717-.40522.370186h-2.48895c-.0201-.207469-.1929-.370186-.40522-.370186-.32266 0-.55788.372614-.29837.710534"/></g></svg>