<svg xmlns="http://www.w3.org/2000/svg" xml:space="preserve" viewBox="0 0 19.917164 31.550457"><g fill="#231f20"><path d="M-6.32469562 33.87372195c.11571022.58455189.69602875.70132045 1.02093707.40392879l2.70192486 2.43698974c-.26246665.35383522-.08678333.91898521.50658975.97401855.61242307-.11324167.7221352-.74824166.37218142-1.06397689-.2310712-.20813976-.57784997-.20037689-.80257117.00529167l-2.70192486-2.43698974c.18168142-.244475.15345832-.59055-.07725833-.79868711-.34995378-.31538333-.97048898-.14111288-1.01987874.47942499"/><path d="M-1.29514398 38.61540712c.30479998-.40781023.04691856-.84278522-.32773142-.87841666V34.6286655c.37464998-.03563143.6325314-.47060643.32773142-.87841665-.42192308-.32385-.88723519-.02998523-.88723519.37253333 0 .26564166.2032.48118976.4621371.50588332v3.10832496c-.2589371.02468563-.4621371.24024167-.4621371.50588333 0 .40251856.4653121.69638332.88723519.37253333"/><path d="M-.43754213 36.48286548c-.62194543.34113522-.54574543 1.04139999-.09172045 1.30316021l-1.79458135 3.93982306c-.49529997-.17039167-1.07350184.231775-.92286662.92462878.34819165.65404999 1.10772305.55033332 1.34020183.04021666.15345832-.33655.02010833-.72742688-.29386211-.90840188l1.7945787-3.94017495c.34254809.11818143.7246064-.03774546.87806473-.37429546.23248142-.5104712-.18803143-1.15182119-.90981473-.98495642m-4.35186645 3.92465185c.57855641-.11500644.69356284-.6893269.39863975-1.01035643l2.40876655-2.67581853c.35030832.25929166.90946018.08466667.96308328-.50235378-.11218332-.6060731-.7408333-.7136712-1.05268971-.36724167-.20566856.2286-.19790833.5718519.00563562.79410189l-2.40841465 2.67581853c-.24235832-.17921023-.58455186-.15134167-.79022306.07725833-.31185378.34678143-.13899356.96026022.47519164 1.00859166m3.39232329-7.64716203c.21695832.75353332.99095184.84172688 1.3835935.41557045l3.81423313 2.89383784c-.30444809.49318333-.01092729 1.2146121.7729352 1.22061021.79022306-.21660643.86324805-1.06150832.3693583-1.43615831-.32596664-.2472981-.77999162-.19861477-1.05162873.09595643l-3.81423314-2.8934833c.21060832-.34113786.13511212-.79128142-.1905-1.03857952-.49424164-.3750019-1.2879916-.07725833-1.28375826.7422462m4.11303502 4.82917494c-.39687498.00185208-.54645187.36688712-.39264165.61665378L.3893707 39.6670359c-.19861476-.2162519-.59019807-.17250833-.70097117.2088462-.003175.41486666.39863975.56620833.64911284.37711856.1651-.12488333.20390379-.352425.09736667-.52528522l1.93427869-1.46085188c.13723143.1495769.36688975.174625.53198974.04974167.2504731-.18908977.21448976-.61665643-.18520832-.727075"/><path d="M-.65061901 38.0266219c.65687307.26317045 1.1486435-.23953788 1.0625666-.7552981l4.1751248-1.11477688c.18238522.49036022.85936662.68086022 1.2975166.12523523.28363332-.68297689-.27798976-1.20261855-.81844352-1.05833332-.35665832.09525-.57361664.44555833-.51399808.80256855L.3770226 37.14044237c-.12629356-.33901856-.48859808-.53481023-.8452564-.43956023-.5408083.14428523-.76870185.87488976-.18238521 1.32573976"/><path d="M7.6943389 39.37705257c-.23424355-.6004269-.87453519-.61453712-1.1641666-.23600833l-3.34080628-2.081739c.2120212-.42686287-.08255-.99553976-.7249583-.94085832-.63076663.23671212-.6268852.93380188-.19402688 1.20367688.28539809.1778.65334353.10371667.85372306-.15804356l3.34115816 2.081739c-.14675643.2949231-.05115453.65793142.23424356.83608332.43250641.2695231 1.06044994-.03421856.99483328-.70485m-17.34819913-.32384734c-.12558712.61982878.39546475.97119544.8353795.81279734l1.65099992 3.49144162c-.40146286.23953788-.46037498.86536476.098425 1.1613462.64628709.1397 1.01317684-.4377981.79939352-.89005832-.14111023-.2980981-.48436475-.43250644-.7884583-.32279167l-1.65099991-3.49179616c.27763521-.1654519.39158331-.51576022.25047309-.81385568-.21413787-.45226287-.8928814-.53516476-1.19521282.05291667m7.02274775-.84596287c.35842044.29633333.76693709.08008144.81667875-.25999545l2.83668774.13934545c.015875.34360644.4014602.59866477.78704541.33866667.31432499-.37041667.06738144-.80856666-.3002121-.82655833-.24235833-.01198562-.44838142.16404167-.48259998.3993462l-2.83668773-.1397c-.0109273-.2374212-.19861212-.43250642-.44097044-.44449999-.36724165-.01799166-.65652117.3937-.37994165.79339545"/><path d="M-10.9506704 42.67270253c.17250833.47942499.67839164.50376666.91475186.21060833l2.59679797 1.71414808c-.17638976.3330231.04445.78845832.55315641.7584731.5034121-.17392121.51470187-.72495833.17815189-.94685643-.22154355-.1464019-.51399808-.0956019-.6776852.10724356l-2.59644607-1.71414544c.12206287-.23001287.053975-.51893787-.16792045-.66533976-.33654999-.2218981-.8385545.0049477-.8008064.53586856M6.2758204 39.38622567c-.45967118-.2032-.82162116.14111023-.77328972.50976477l-2.99226008.68650378c-.117475-.3527769-.59337308-.5051769-.91863329-.12170833-.2183712.47766287.16721666.86113142.55491854.77223142.25541021-.05891477.41839354-.30197689.38488141-.55703522l2.99226008-.68615453c.08113977.2437712.33372688.39193787.58949164.3330231.38734998-.0885481.56761853-.60183976.16263143-.93662499M.62290782 41.36319231c-.7066121.28363333-.7157852 1.03998976-.26528711 1.37759809l-2.42040822 3.96980828c-.50658974-.24588787-1.17474994.1086538-1.10313781.866775.28680831.74224355 1.1101916.72954355 1.4238128.21519355.20672688-.33901856.11500378-.77293522-.1964981-1.00612309L.4817976 42.81663586c.35030831.16968787.77787496.05256477.98460184-.2864538.3136212-.51399809-.05221022-1.2520083-.84349162-1.16698975"/><path d="M1.50238277 43.74761728c.51434998.06244167.76764617-.38558522.60959997-.73448332l2.7435544-1.57444809c.22154356.31256288.73624543.3199712.94191663-.155575.07196666-.53657499-.42333332-.7986871-.7785814-.59478332-.2345981.13476287-.32173332.42333333-.212725.66463333l-2.74355175 1.57444808c-.15310643-.2162519-.44661664-.28645643-.68086284-.15169356-.35524544.20390379-.37888331.76341022.12065.97190188m-8.55732837-4.78542873c.44379354.70626022 1.26118138.56867689 1.53705182.01693333l4.75297476 1.834089c-.16615832.593725.34678142 1.24495453 1.15005638 1.01952953.7443602-.454025.5697352-1.33949809-.04586287-1.57691665-.40604544-.15663333-.85583708.02681023-1.04669162.40851667l-4.75297476-1.83409165c.11500644-.41063333-.09489545-.84878332-.50094353-1.00541665-.61559543-.2377731-1.33984994.30091856-1.09361018 1.13735642"/><path d="M-4.28246694 39.647634c-.37464998-.27199166-.76693708-.0321019-.79516018.30868143l-2.82610176.03739357c-.03704166-.34043144-.43568141-.56973522-.80256852-.28786667-.28927953.3877019-.01658937.80750833.34924998.80256856.2413-.003175.43497498-.1905.45472877-.42650833l2.82610175-.03704167c.0254.23530454.22401476.41733787.46566665.41416287.36583142-.00457729.62759163-.4314481.32808331-.81138976m3.58880816 4.62279994c.77434806-.1016.97613782-.85089999.61453974-1.30104354l3.41559339-3.32739996c.44062118.37323712 1.19485827.19120379 1.31692114-.58031856-.09595643-.81033142-.91722306-1.00718142-1.35960637-.57643976-.29209998.28433977-.31114998.73871666-.06138333 1.04986665L-.1831876 42.86249873c-.30479998-.25788143-.7591795-.2504731-1.05127949.03386667-.44202877.43074166-.26669999 1.25694544.5408083 1.37406854m8.86742266-9.05580367c-.35242498-.28963144-.75282685-.07655455-.80045185.257175l-2.78271274-.12911667c-.01658937-.33690454-.3954621-.58596477-.77328708-.3298481-.3072712.36441856-.0635.7933981.29668521.80997688.2377731.0109273.43956021-.161925.47236854-.39299355l2.78306463.12911666c.01129771.23283333.19614355.42403977.43391665.434975.3601852.01658937.6427602-.3877019.37041664-.77928522m-6.56131444-5.22604994c.32914165.79163332 1.18109994.79163332 1.55504613.2797519l4.50461834 2.67052686c-.26987499.5739712.13864166 1.32150642.99130639 1.23013786.83220185-.333375.80609542-1.26047499.22295378-1.60619809-.38487877-.2282481-.87206662-.11888523-1.13065184.23495L3.25110389 30.127222c.18661856-.396875.04868333-.87665453-.33619808-1.10489999-.58314164-.3457231-1.4089935.0762-1.30245638.96625832"/><path d="M-7.48357057 39.6162359c.37853142-.085725.44379354-.46566666.244475-.67168712l1.5374037-1.80304808c.23495.1643962.59972308.03951287.62477118-.34783712-.08466666-.3965231-.49988785-.45614166-.6992064-.22260454-.13123333.15381287-.11994356.37958977.01799167.52211287l-1.53740372 1.80304543c-.16263143-.11359356-.38734998-.0892519-.5185833.06491288-.19896666.23353712-.07443788.63429355.33055187.65510568m7.64081174.25223787c-.4459102.02293937-.59442876.44097045-.40886854.71366855L-2.3481856 42.3252173c-.23424355-.23248143-.67239352-.16263143-.77681662.27128523.01833562.4663731.4776602.6155981.74894806.3898212.17921022-.1488731.21096022-.40675454.08219546-.59548976l2.09691277-1.74272309c.16192499.16051477.42156854.17674167.60077876.02787121.27128786-.22577954.20849165-.7044981-.24659166-.80750832M17.19781986 2.62960568c.47977687-.14075834.53339997-.6346481.26034998-.88370833l1.83303325-2.4426333c.31538331.19261667.77469996.003175.77575829-.49706476-.14075833-.50341212-.6798045-.54715833-.91722306-.23071667-.15663332.2088462-.123825.4981231.06491023.67027954l-1.83303324 2.4426333c-.21801666-.13335-.50517687-.08360833-.6618102.12488333-.23741855.31644166-.0448019.82197045.47801475.81632689m9.20608666-21.3003683c-.104775.55703522.36653785.86571666.75882496.71825378l1.52329613 3.1090314c-.35701286.2194269-.40181475.78105.10301023 1.03963522.58067307.1167712.90240374-.40534166.70520186-.80786022-.130175-.26564166-.43956021-.38170643-.71084543-.2797519l-1.52329613-3.1090314c.2469462-.15169355.34431286-.46707688.21413787-.73271854-.19720454-.4025212-.8068045-.46848977-1.0703295.06244166M17.6959403-13.1903608c.20319998.771525.98813138.8791231 1.39735446.45473144l3.81211648 3.03106663c-.32102953.49459356-.03915833 1.23507498.75776662 1.2590621.80891853-.20178711.90240375-1.05939165.40851665-1.4520333-.32561475-.25893713-.7884583-.2197788-1.07138782.07373143l-3.81211647-3.03106663c.22224998-.34184166.15592953-.80151022-.16968523-1.06044999-.4935352-.39264166-1.30809993-.10830189-1.3225647.72495833m11.52807252 1.34972688c.03739356-.81421022-.69567686-1.15887499-1.2241397-.86959545l-2.79364532-4.11938782c.46390187-.384175.41486664-1.19238711-.35524809-1.45908711-.85054806-.04974167-1.20332494.75811855-.84137496 1.29151855.23847689.3520731.70202686.45508332 1.06750639.25505833l2.79364531 4.11903328c-.32102688.26599356-.39652043.73448332-.15769165 1.08655642.36159808.5334 1.2428378.50447045 1.51094802-.3040962"/><path d="M20.04544017-16.40346075c.52458141.39193522 1.08408782.0599731 1.13029995-.42156856h3.9973248c.04621476.48154166.60572117.81350378 1.13029994.42156856.41627952-.542925.03845454-1.14158976-.47942498-1.14158976-.3414871 0-.61877043.26140833-.65087497.59478333h-3.9973248c-.03210189-.333375-.3093852-.59478333-.65087496-.59478333-.51787687 0-.89570185.59866477-.47942498 1.14158976m4.76461643 1.37759809c-.77963709-.22013333-1.2788185.41133712-1.11865828.98848332L19.07248-12.2636127c-.26740642-.5362231-1.06080184-.67133787-1.49295636.0141023-.24059355.81174165.46178785 1.33596854 1.06009805 1.1063102.39475831-.15169355.59901664-.57679165.48824354-.97578331l4.61927287-1.77376665c.18450189.3707712.62124164.54998143 1.01564805.39828787.5983102-.22965833.7694083-1.08902498.04727046-1.53140831M18.28896147-2.34702949c-.38593975-.10301287-.62794618.21166666-.54504164.4953l-2.2662461.90628521c-.13546665-.26281856-.5281083-.3242019-.73659996.01693333-.11288712.40216667.23706666.65581477.53057952.53869166.19367499-.07761022.29174544-.2885731.23424355-.48471666l2.26659799-.90628521c.09348522.18167879.31009165.26705189.50376664.18979356.29351021-.117475.37182688-.5425731.0127-.75600189m2.66770366-.36618333c-.1718019-.65793143-.84137496-.75106476-1.19097684-.3898212l-3.2469665-2.59009353c.27481475-.42121666.0352769-1.05339355-.64452497-1.07491476-.6900333.1710981-.77081852.90205453-.35030832 1.2375462.27728332.22154355.67204164.18873522.91369352-.06103144l3.2469665 2.59009353c-.18979355.2913962-.13405378.68368332.14322954.90487498.4205102.33549167 1.11548328.09419167 1.12888707-.61665378"/><path d="M15.89994871-4.48310067c.63323785.04938977.92004617-.51293712.70802497-.93203712l3.2783646-2.0743333c.28821855.37112045.91898519.35312878 1.14582305-.2405962.05997046-.6611038-.56056474-.9560269-.98530828-.68756212-.28010643.17744545-.37182953.53551666-.225425.82549999l-3.2783646 2.0743333c-.19931855-.2568231-.56232686-.32737953-.84243329-.15028333-.42474354.26881666-.42403975.95602689.19931855 1.18497878"/><path d="M19.63339663-10.71844605c-.5185833.55703522-.20531666 1.24530377.34572309 1.35925188l-.50129808 4.62138971c-.56268141-.00706438-1.01635185.59795833-.6293564 1.25341855.5753814.54927499 1.31480447.18767689 1.3797147-.41098523.04303976-.39475833-.22471856-.74824165-.60571854-.82691286l.50164998-4.62103517c.3891121.00457729.72601663-.28328144.76870185-.67803977.06526477-.59831022-.57961474-1.11054354-1.2594166-.69708711M5.98301399-2.64018782c.55915186-.01341437.75988329-.53128333.53692686-.87947499l2.68604987-2.10819997c.28539809.29950833.83608329.22754166.98178139-.31256287-.00635-.5842-.5760852-.78704545-.92392496-.51399546-.22930642.17991667-.27798975.5020019-.123825.74259545L6.4539723-3.60362568c-.19720188-.2070788-.5214064-.23636023-.75071019-.05644356-.34783975.27305-.28610452.87453521.27975189 1.01988142m5.55095804 4.5935185c-.01905-.42968332-.42086475-.57573332-.68509353-.39863976L9.18447216-.47766095c.22542499-.22401477.16121855-.64664166-.25646855-.75000643-.44908785.0141023-.59619618.45578977-.38064809.71896287.14216856.17356666.39052498.20566856.57326474.08325379l1.66475825 2.03199997c-.15592953.1552231-.17356665.40498977-.0313981.57855643.2155481.2631731.6773333.2060231.77999163-.231775M22.2749965-13.41755056c-.57538141-.56867689-1.3169185-.2575269-1.45520826.32420454l-4.89373309-.6790981c.02505604-.59760643-.60324997-1.09890188-1.31198137-.70802499-.60219164.593725-.24094545 1.39064998.39264165 1.47884355.41804164.05785643.80221662-.21519356.89782116-.61736023l4.89408498.6790981c-.0176477.41310189.27763522.78034355.69567686.83855188.63394164.08784167 1.19838782-.58102499.78069807-1.31621475"/><path d="M14.53787378-16.32479219c-.3570102.2469462-.26669998.66886666.02645834.7997481l-.8456083 2.51354163c-.3125602-.0726731-.6395852.20884356-.50411853.62124166.25329355.37676666.70978973.26564166.81914996-.0599731.07231855-.21448713-.03351477-.44414546-.23600833-.53481023l.8452564-2.51354163c.21625188.0504481.43920831-.06879167.51152687-.28363333.10936022-.32561477-.187325-.68968143-.6166564-.5425731m-3.91159981 3.89537306c.10865643-.39299356-.21025378-.64276023-.50059164-.56056477l-.90416852-2.32127686c.2695231-.13581857.33549165-.53551666-.01058333-.75141666-.40922308-.11923977-.6713352.23565643-.55456664.5362231.07725833.19826022.29209999.30021212.49247687.24341666l.90417116 2.32127687c-.18626665.09383977-.27516665.3139731-.19790832.51223332.11676856.30091856.54997876.38488144.77117042.02010834m6.98535419 1.50283331c.13335.762.88335375.9299231 1.3133916.55315643l3.43711195 3.2395583c-.3506602.45155378-.13864166 1.19027044.6297083 1.2781121.7979833-.12911666.95814616-.95002878.51293975-1.36983521-.29351022-.2765769-.7440083-.2765769-1.04139995-.01621896l-3.43676005-3.2392064c.24235832-.31256022.21589998-.76199998-.07796477-1.03857688-.44485188-.41980643-1.25518327-.21131477-1.33702683.59301856m.80503708-9.80617259c-.49282876.53833977-.18697044 1.19556476.3421962 1.30033976l-.4437962 4.4347685c-.53974996-.00211666-.96978517.58173143-.59337042 1.20685453.55597687.52246212 1.26223706.16968523 1.3197416-.40463787.03774546-.37888333-.2215462-.71578522-.58737497-.78810378l.44379354-4.43477115c.37323975.00132291.69391474-.27728333.73201473-.65616666.0575019-.57432045-.56479807-1.06009545-1.21320448-.65828333"/><path d="M17.77602172-20.3877338c.0790231.71860832.76834997.91969165 1.19203517.59407953l3.01307485 3.22544542c-.35383521.40040453-.20002499 1.10207952.51152952 1.22978331.75212042-.073025.95038328-.82937878.5598583-1.24706854-.25717498-.27551856-.6773333-.30233144-.97049162-.07690644l-3.01307484-3.22579996c.24482688-.27692879.24659165-.69779355-.0109273-.97331211-.39017043-.41768977-1.1581685-.27128787-1.2819935.47377879m.56125796 13.91708315c-.0451538.4406212.34219619.6501712.63782307.50941287l1.39029803 2.32092497c-.26352498.1943788-.26176286.63464545.14851856.80292045.45966854.05291667.67592307-.37465.49600641-.67521666-.11888787-.19826022-.36724165-.26846212-.57185451-.17109545L19.04778643-6.004984c.18238522-.13440833.23777045-.38629166.11888522-.58455188-.17991665-.30056667-.65898973-.31185644-.8293814.11888522m.28328143 7.56179158c-.31467688-.44167689-.83961019-.32102689-.99765639.0472731L14.46978856.12911595c.08501856-.39158333-.27234355-.79445378-.7849314-.61806666-.46566664.3231462-.31855832.89076476.08960643 1.0216462.2695231.08607689.55421475-.05009621.66357497-.3048l3.15312674 1.00929544c-.05891213.27093333.09383976.54715833.36336285.63323787.4081621.13087879.85760186-.24588787.66604353-.77928787m3.66677292-13.93013506c-.68227307-.219075-1.14299994.3234981-1.01917495.83855189l-4.136321 1.42239998c-.21942688-.48189356-.91616208-.62617879-1.31938706-.03421856-.23777309.70978976.36618332 1.19485831.90205185 1.01070832.35348332-.12170833.5475102-.49071477.46178521-.84701856l4.136321-1.42239998c.15169355.333375.5316352.5051769.88511852.38346856.53551664-.18415.71366852-.93803522.08960643-1.35149165"/><path d="M11.88674892-12.2505608c.24588786.66216476.94685639.68897499 1.27070637.2794l3.62232292 2.33926853c-.23988976.46355.07267046 1.0914962.77716853 1.04351665.69497306-.24835379.7027333-1.01176665.23389165-1.31480188-.30973976-.200025-.71402307-.12523523-.93768329.15804356l-3.62232292-2.33962043c.16580643-.3203231.06773333-.71966666-.24200378-.91969165-.46884164-.30268333-1.16169804.01833562-1.10207948.75388522m8.05321247 9.69997677c-.34360642-.66498522-1.08514616-.60360189-1.3733647-.13087879l-4.11233124-1.99883975c.1933231-.51858332-.21625188-1.13982498-.95144161-.99871475-.6999102.34995643-.61030377 1.15499619-.07796213 1.41393331.35136665.1707462.76764353.04021667.96696208-.28645379l4.11197933 1.9988371c-.13370453.3584231.02116667.76623333.37253332.93697953.53234164.25893713 1.22061017-.168275 1.06362495-.93486286m1.66616847-15.18108504c-.6833314.17638977-.7817564.87065643-.4078102 1.23436855l-2.6962813 3.3598564c-.43603332-.2861019-1.09219995-.03986478-1.11654162.66533976.17533143.71613711.93344996.80221665 1.28234804.36724166.23036212-.28716287.19790833-.69673787-.06067954-.94826666l2.6962813-3.3598564c.301625.19790834.70837687.14111024.93874163-.14604999.34924998-.434975.10089355-1.15640642-.6360583-1.17263332"/><path d="M18.34011336-8.93550895c-.15098976-.40816212-.58314163-.42509545-.78281473-.17321212l-2.23026012-1.44533142c.14816666-.2853981-.04374356-.6727481-.47801474-.64381856-.42862498.1524-.43426854.62300379-.14534356.80997689.1905.1234731.43991475.07796477.57820187-.09630833l2.22990822 1.44533142c-.10265833.19755379-.04233333.44344166.14816666.56691212.28892498.187325.71613973-.00986896.6801564-.46355"/><path d="M20.56755302-8.80039418c-.27128786-.4060481-.7471833-.31185643-.89958329.01553104L16.85703654-9.780051c.08748712-.35030833-.22330832-.72284166-.6896814-.57785-.42791854.27798977-.31114999.7930462.05291666.92216287.23988976.08501856.50023975-.02998787.60536664-.25611666l2.81128509.99483332c-.0606769.24235833.0694981.4953.30938786.57996666.36406664.12911666.77893329-.19790833.62124163-.68333143M18.12068648-5.516034c-.26564166-.39722688-.7313083-.30444545-.8801814.015875l-2.75166652-.97049165c.08501855-.3429-.21942689-.70696665-.67556853-.56444355-.41839619.27234356-.30374165.77611022.05291666.90205188.23494999.08290454.48930187-.02963333.5923121-.25152879l2.75166653.97049166c-.05891213.23706666.06843976.48436212.30374165.56726666.35630642.12594166.76164806-.19438144.6067795-.6692212m-5.58412092-8.48924346c.51787952-.3393731.40393142-.94368142-.00918104-1.14053142l1.29328327-3.55211852c.4430871.11500644.91898518-.27481477.74047875-.86748143-.34748521-.54574545-1.00188707-.40357689-1.16945827.05644621-.11041856.30338712.03210454.63429356.31785452.77046666l-1.29328326 3.55211852c-.30621286-.079375-.62829808.08255-.73871663.38593976-.1675712.46002046.24200378.98954166.85901208.79516022m9.34932678-3.44699162c-.27834166.45014356.028575.87735832.4201583.88053332l.28398787 3.22086019c-.38488142.07126287-.61242307.5457481-.25929165.94015453.46672497.29703712.92216018-.04974167.8854704-.46707954-.02434166-.27516666-.25470377-.48012878-.5252852-.48224545l-.2839852-3.22086283c.26599354-.04938713.45719997-.29139356.4328583-.56656022-.03668977-.41698333-.54609997-.6790981-.95391282-.3048"/><path d="M22.3032196-18.63795429c-.50164997.15522046-.55068785.67486212-.2599981.93239166l-1.88771467 2.59362043c-.33443331-.1975538-.81385829.00846666-.80750829.53410643.155575.52634355.72248974.56409166.96696472.22789356.16121856-.22154356.12276666-.52493333-.07831666-.70308522l1.88771468-2.59362308c.23142044.13687954.5319871.08008144.6932083-.14146212.24447498-.3358462.03457045-.86359999-.51434998-.84984166M12.5337451-9.9257544c.11606211.79868712.89287874.99695 1.35325372.61700833l3.48614982 3.48403329c-.3795871.46072689-.180975 1.23754355.61806664 1.35290188.83608329-.11041856 1.02834805-.96202499.57679163-1.41322688-.29774354-.2977462-.76764352-.31150454-1.08584994-.04868333l-3.48614983-3.4840333c.26246666-.31855832.24835643-.78810642-.04938712-1.08584998-.45155641-.45120453-1.30280827-.25858787-1.41287493.57785M5.36812235 19.4010138c-.66886663.45437689-.50694164 1.24142498.03668977 1.48942688l-1.61184159 4.66689804c-.58102497-.14005454-1.19379994.37923522-.94791472 1.14934999.46601854.70484999 1.31727304.50517689 1.52611659-.09913144.13758333-.39863977-.05573977-.82796855-.43179998-.9997731l1.61184159-4.6668954c.40181475.09701213.81879806-.12135643.95638139-.5199962.20884355-.60430832-.33760832-1.28693331-1.13947305-1.01987877M.01718929 25.02358419c-.10971477.52105453.32667308.82056286.69779352.68968142l1.36772114 2.9502814c-.33972498.19896667-.39299619.72566212.07549356.97860378.54327687.12170834.85583973-.36230189.67874353-.74436022-.11712045-.25188333-.4049871-.36724166-.6618102-.27693143L.80741235 25.67058039c.23494999-.13758334.33302044-.4318.21625188-.68403787-.17709355-.38205833-.74824162-.45614166-1.00647494.03704167"/><path d="M6.1177742 28.74715535c-.04233332-.79833787-.79092685-1.06362499-1.2788185-.73060454l-3.12419983-3.75002684c.41557308-.41980644.28963142-1.20403143-.48789165-1.38994355-.83467306.03351213-1.1006666.85619166-.6960314 1.34196665.26669999.32032046.72883974.37606023 1.06644805.14569546l3.12419985 3.7500295c-.28751476.29068711-.31608976.75494354-.04903523 1.07561854.4046352.4854231 1.26153327.37218143 1.44532872-.44273522"/><path d="M5.92903899 29.67884056c-.1171231-.37500189-.50588331-.41028143-.69744163-.19261666l-1.9434518-1.40511475c.14710832-.25047046-.00846667-.60854166-.40110831-.60254356-.3929962.117475-.41980642.54151477-.168275.7235481.16615833.11994356.39264165.09031023.5256371-.060325l1.9430999 1.40546665c-.1016.17321212-.05891212.39793333.1072462.51787689.25152879.18203333.6459352.0239977.63429354-.38629167M.69275781 31.50446554c.4088712.16580644.71684618-.14605.6646333-.46813522l2.60561654-.68333143c.11253787.30585833.53375451.42650833.80856663.08149166.17850642-.4250981-.17003712-.75071021-.50764544-.66216476-.22260453.05856288-.35842308.276225-.32243975.49882954l-2.60561654.68368332c-.07761022-.21166666-.30338975-.33478787-.52599164-.276225-.33725642.08854546-.48118974.5432769-.1171231.8258519"/><path d="M9.18799905 28.40707581c-.38205831-.28539546-.78951662-.04374356-.82302875.3072712H5.45349545c-.03386667-.35101476-.44132498-.59266666-.8233833-.3072712-.30303785.39546477-.0278712.8314981.34924999.8314981.24870832 0 .45084998-.1905.4741333-.43321023H8.3649703c.02328333.24271023.225425.43321022.47413331.43321022.37711855 0 .6522852-.43603332.34889544-.83149809m-7.61647007-5.36645372c-.3548962.30338712-.21166666.74436022.11606212.85231021l-.62617876 2.77988974c-.34254809-.04339167-.66075451.29386212-.47060642.72001855.31256022.37465.7881064.20566856.86924352-.15451666.0532712-.23741856-.08501856-.47131022-.31185377-.5457481l.6265333-2.78024163c.23671211.02998787.4621371-.12206023.5154083-.35947879.08113713-.36018787-.27587308-.7168462-.7186083-.51223332m8.34989505-4.03119162c.36583141.20849166.69673784-.0472731.68827117-.3584231l2.55164154-.31573523c.06737879.30409356.45084997.47166212.75459163.17991667.22295378-.37923787-.06561667-.73166287-.3961712-.69073976-.21801665.02716477-.37429543.2159-.36829997.43109355l-2.55199344.31538333c-.04656666-.20990189-.24412309-.35489355-.46213975-.32808333-.33055187.0409231-.52457876.45296667-.21589998.76658787m1.07773782 7.0841287c-.62900451-.34395833-1.18462949.10230644-1.16028782.631825l-4.33493311.61736286c-.12452879-.51540833-.7824602-.78881286-1.29046017-.28292954-.36794808.65299166.13440833 1.2438962.69567686 1.16381476.37041665-.05256477.63076664-.37888333.61418785-.74506666l4.33493311-.61736022c.0860769.35630379.4272121.5969.79762875.54433522.56127118-.08008143.87877117-.78775188.34325453-1.31198142"/><path d="M12.65827388 14.24199076c-.31749999.42474356-.04868333.87771022.34184165.91510642v3.23814542c-.39052498.03739621-.65934164.49071477-.34184165.91545832.43991475.33725644.92463139.03104621.92463139-.38805378 0-.27693144-.21166666-.50165-.48154164-.52740454v-3.23814542c.26987498-.02574395.48154164-.2504731.48154164-.52704999 0-.41945453-.48471664-.72566476-.9246314-.38805643M5.6499909 12.73986388c.35595452.60536666 1.04704615.50976212 1.29293137.05256213l3.9528748 1.6615833c-.15451666.49565454.26070188 1.05621666.94226852.88653144.63747117-.36336023.51258784-1.11266022.00079375-1.32785643-.33796022-.14181666-.72072497.00132292-.89076473.3175l-3.9532267-1.66122877c.10689166-.3429-.05856022-.7168462-.39652308-.85866286-.51187877-.21519356-1.13453328.21978143-.94826662.9295712M8.98691573 2.57210378c.00423333.39228712.36583142.53763333.61171664.3845269l1.45414992 1.90252876c-.21237045.19720454-.16686211.5842.21025643.69109166.40992687.00079375.55738974-.396875.36900642-.64311212-.12417954-.16263143-.34960453-.1996731-.51964164-.09348787L9.65825357 2.91112234c.14710833-.136525.17039166-.36371477.04621212-.52599166-.18838332-.24659166-.6106583-.20849166-.71754996.1869731"/><path d="M8.05946388 8.58449273c-.56550187.14393333-.6491102.7171981-.34113521 1.01917498L5.478189 12.37297411c-.35948142-.2377731-.90311018-.03633522-.92533518.5464519.14252045.59266665.76905375.6663981 1.05939161.3076231.19120378-.23636023.16545189-.5750269-.0472731-.7838731L7.805112 9.67387225c.24870832.16439356.5852583.11888523.77646208-.11782954.29033786-.35842045.08713787-.95567498-.5221102-.97154998M16.3571487.33161214c-.31679356.68297689.18908975 1.23401665.74259806 1.17192688l.94650185 4.49967874c-.53128331.16615833-.77222876.87453786-.20707878 1.37195452.70978708.3400769 1.2943416-.22718977 1.17157494-.80962499-.08078787-.38452953-.44097309-.63499999-.8233833-.59196286l-.94685639-4.49967874c.36724165-.11500644.59584164-.48895.51505642-.87347688-.12241477-.58278977-.88582496-.8664231-1.3984128-.26881667M7.85520556 17.37430549c-.09948333.47519166.29809809.74753522.6364102.62829545l1.24812947 2.68746284c-.30938786.1816788-.35771665.66145833.06949546.89146855.49494808.1107731.77963973-.33055189.61771474-.67839165-.10653977-.22965834-.36900642-.33443333-.60289808-.25188334l-1.24812683-2.68781473c.21413522-.12558713.30303521-.3937.1964981-.62335833-.1615731-.34819166-.68227307-.41521855-.91722306.03422121M6.81486394 21.6785471c-.05891476.59337045.46319808.87347689.86042496.68297689l1.88136468 3.11749806c-.35383786.26246667-.34960453.85513333.20284544 1.0795.61947951.06949545.9084045-.50694167.6646333-.9108731-.16051211-.2663481-.49494543-.35948143-.76976019-.22754167l-1.88136467-3.11749806c.24482953-.18167879.31820642-.52105189.15733976-.78739999-.24341665-.40392879-.88829352-.41698333-1.11548328.16333787"/><path d="M6.29381207 25.81945084c.29245188.48753977.85125186.40498977 1.04704351.03316288l3.2123934 1.3158602c-.12135378.40216667.2187231.85301667.7690564.7108481.51364354-.29915643.40675188-.90452309-.00918104-1.07526665-.27446021-.11218333-.58349353.00669396-.7186083.2638769l-3.2123934-1.31621476c.08396023-.27798712-.05291666-.57961212-.32737688-.69179545-.41627952-.17039166-.91687116.18626666-.76094162.75952878m8.17527798-17.5055369c.1548712-.55915454-.29880188-.9140481-.71155186-.79763143l-1.28552304-3.30058973c.38276475-.19296856.47695641-.76164545-.01516062-1.06856211-.5820833-.16933333-.95496852.33513977-.7884583.76270378.10971477.2818712.41486665.42686287.70026474.346075l1.2855204 3.30094162c-.26493522.13335-.39158332.44661666-.28151666.72848787.16651287.42756666.7821083.54680378 1.09643328.028575M9.0204305 7.90963061c-.44344165-.1361731-.7373064.21872046-.65299164.55103712L5.700439 9.41528438c-.14605-.31044356-.5983102-.39828522-.8547814-.01164166-.14816665.46178786.2469462.7708212.59231475.6473481.22789355-.08149167.35030831-.32243978.29209998-.5520981l2.66699987-.95461666c.10089355.21484166.34854354.32279166.57643974.2413.34536854-.12347046.45437687-.6131269.04691856-.87594545m.83220185-6.14009803c.22648332.41380833.6925045.36336287.86677496.06138334l2.6200813 1.19485831c-.11359355.3294962.15381023.7140231.61453974.61418787.43532688-.2314231.36653521-.73695453.02716213-.8914712-.22401212-.1019519-.4840102-.01375833-.6043083.19508788l-2.62007866-1.19450643c.07866855-.22789356-.02505605-.4822481-.24906287-.58455188-.33901854-.15451667-.76587875.12488333-.6551083.60501211M1.82799753 17.64276761c.15063522.4660212.6357064.50553143.87241852.2310712l2.44122298 1.72966855c-.18026856.3139731.01799166.75882499.50764808.74612499.48894997-.15098977.51717043-.68015643.20108332-.90416855-.20849166-.14781477-.49106664-.10830454-.6547564.08149166l-2.44086844-1.72931664c.12452878-.21731287.06808522-.49706477-.14040644-.64487954-.31608975-.22401212-.80574352-.02188104-.78634162.49000833m3.8830248-4.76002873c-.21766476.76482045.40110832 1.2558871.96766852 1.09960832l1.73108135 4.53531017c-.52669808.26105644-.6611064 1.03963522.01058333 1.46473332.79621852.2377731 1.31198137-.4504981 1.08761471-1.0378731-.14781476-.38734999-.56444617-.58878522-.95638138-.48083522L6.82086205 13.9283722c.36406665-.1806231.54045376-.60854166.39264164-.9962462-.22401476-.58737499-1.06715448-.75670832-1.50248136-.04938712"/><path d="M6.40881586 10.2323177c-.33161021-.50905832-.92498329-.39899166-1.11936207.00563563L1.8078892 8.95878024c.1139481-.4346231-.26705188-.90240642-.84913518-.72919166-.53622308.3393731-.39899165.98178143.05221023 1.14758522.29739165.10936287.62265186-.02963333.75706019-.30938523l3.4815646 1.2791731c-.0790231.30021211.0790231.61700832.37641474.72601665.45084998.16580379.97154995-.2345981.78281209-.8406712m3.40783315 19.42007511c-.44979164-.3361981-.92956851-.05150644-.96907874.3615981H5.41927424c-.03951022-.41310454-.5192871-.6977962-.96907874-.3615981-.35701286.46531477-.03316287.97895832.4109852.97895832.29280643 0 .53057688-.22436666.55809354-.51011666h3.42829604c.02751666.28575.26528711.51011666.55809353.51011666.44414808 0 .76799807-.51364355.41098521-.97895832M18.09846148.6963826c-.2850462.27058143-.1453462.63535453.13511212.71155453l-.40569355 2.3664333c-.28998331-.02151062-.54292497.27587046-.36441854.62617879.27904544.3012731.67204163.13828977.72460376-.1679231.0345731-.20214167-.092075-.39299356-.28610189-.44555569l.40569355-2.3664333c.20037953.01481667.38311664-.12276667.41804164-.32490833.05221287-.30656477-.26352498-.59090453-.6272371-.3993462M12.4797701 4.9279511c-.46178786-.70061665-1.28023138-.54433522-1.54587303.01621896L6.11565754 3.2042701c.15381287-.60078143-.3760602-1.2442481-1.17862873-1.000125-.73836474.473075-.54327952 1.35925189.08078522 1.58432499.41169165.14887045.85971852-.04550833 1.04316472-.43321023l4.81859143 1.73989734c-.10653977.4155731.11394545.85125453.5256371 1.00012498.62406473.225425 1.34020447-.33196212 1.07456282-1.16734165"/><path d="M3.525916 22.76968876c-.57114542.65334355-.18908711 1.42627877.44273786 1.53634543l-.40498975 5.28355448c-.64134997.01235604-1.13664995.71825378-.67204164 1.45097498.67521664.60536666 1.50494993.16686212 1.5575147-.517525.03457045-.45155642-.28292953-.84454998-.72002118-.92074998l.40498975-5.28355448c.44379355-.00846666.8173852-.34854355.8519583-.80009999.05256476-.68403522-.70061664-1.24424544-1.46014804-.74894544m6.46641635-.23283333c-.24376855-.53093144-.82408709-.50976477-1.06609351-.15169621l-3.13407674-1.7067371c.16968522-.39758144-.12735454-.89676287-.7059083-.81315454-.55809618.24765-.51752497.87841666-.11183143 1.09925643.26811021.14605.59689997.05961856.76446852-.18803144l3.13407939 1.70673975c-.1171231.27481477-.01129771.59831022.25646855.74400833.40569354.22119166.95779161-.08678334.86289352-.69038522"/><path d="M7.5355889 24.13952397c-.6205352.01092729-.84701851.58419999-.60219163.97225642l-2.99578962 2.32021854c-.31432498-.33408144-.92604162-.25788144-1.0918454.34007689.003175.64840643.63394163.87771286 1.0219954.5774981.25576476-.19826023.31185643-.5552731.1425231-.82373522l2.99578962-2.32022118c.21731022.2310712.57714353.2659962.8329083.06773333.38805376-.30056666.32384998-.96872688-.30338976-1.13382688"/><path d="M4.49923073 26.26536371c.63711663.29809546 1.15393517-.17250833 1.0978435-.68968143l4.2068748-.86889165c.15345832.49706476.81421283.72460643 1.2809378.19826022.32032044-.66181022-.20743332-1.21002688-.75247496-1.09749165-.35912952.07443787-.5944314.40992954-.55562497.76729166l-4.20722933.8692462c-.10583333-.34395833-.45472877-.5588-.81421019-.48436477-.54468974.11253523-.81244806.82479355-.25611665 1.30563142m14.78597425-13.77314982c-.47483975-.63006287-1.2336647-.434975-1.4495647.10653712l-4.62456189-1.34831665c.10900833-.57291022-.42615641-1.14546855-1.16487304-.86889166-.6649852.48753977-.42968332 1.3073962.16933332 1.4820212.39475831.11535832.8039814-.09348788.95320639-.46813788l4.6245619 1.34831665c-.07549357.3961712.15733976.79198787.55244996.9073462.59866475.174625 1.23789805-.390525.93944806-1.15887498m.59231474-5.02284994c-.28328142-.40498977-.7627064-.29915644-.90946283.03562879l-2.86596652-.94367878c.08078787-.35630643-.24200378-.7263712-.71049353-.56903143-.4268602.29068977-.29703975.80891855.07408333.93133332.24482689.08043333.50517687-.041275.60677687-.2726981l2.86596652.94368143c-.05573712.24623976.08149166.49918143.3263212.57996666.37112043.12206022.78316662-.21801667.61277496-.7052019m-6.0448478 2.36361021c.26669999-.28716023.1044231-.64135-.17956476-.69955833l.2536481-2.38019163c.28963142.003175.52281663-.30903333.32279164-.64628977-.29703975-.28222045-.6773333-.09525-.71014163.21307954-.02151062.2035519.11641666.38523333.31291476.42545l-.2536481 2.38019163c-.20037688-.00211666-.37359164.1464019-.3951102.3496019-.03280834.30832689.29950831.57149999.6491102.35771666M9.7266907 7.00334275c-.43356211.5806731-.06632046 1.19979809.46672497 1.25094998v4.42524615c-.53304543.0511519-.90028708.67027689-.46672498 1.25094999.6007814.46072689 1.26364994.04268523 1.26364994-.53057954 0-.37817689-.28927688-.68509355-.6582833-.72037045V8.25429273c.36900642-.0352769.6582833-.34254545.6582833-.72037045 0-.57326476-.66286853-.99165832-1.26364994-.53057953m6.69642921-3.03353519c.14569545-.36018523-.1294712-.63111856-.41274998-.58490379l-.60360451-2.29411474c.26952309-.09913144.37570831-.4702519.07161476-.71225833-.37464998-.15698522-.6611064.15028334-.58278974.4473231.05150644.19614356.24341666.31573523.43956285.28398523l.60324997 2.29411474c-.18626665.06843712-.29457119.26740379-.24306475.46319545.07831666.29703977.47907308.42368523.7277814.10265834"/><path d="M15.13689042 12.9381241c-.079375-.62970832-.6872102-.79692498-1.05445184-.50517688l-2.68816653-2.78906284c.30515188-.35630379.16051476-.96978522-.46566665-1.07209165-.6586352.07443787-.82232496.74083332-.4741333 1.10207952.22965831.238125.59866473.25576213.85231018.0543269l2.68852107 2.7890602c-.21096286.24623976-.20708142.61559809.02256896.85407498.34819165.3612462 1.02023328.22225 1.11901017-.43321022m-5.90302055 4.49862305c-.1488731.76517499.4963583 1.19379998 1.03716661.99412688l2.06798323 4.28836661c-.49283141.2988019-.55950641 1.07068143.13229166 1.43051475.7979833.16615834 1.24459994-.54927499.97684162-1.10454809-.17674166-.36653522-.60078141-.52881476-.97472495-.39052499l-2.06798323-4.2887185c.34078331-.20672955.4776602-.63923333.30091854-1.0057712-.26775832-.55527046-1.10560638-.6512269-1.47249348.07655454m-1.29575448-2.28847118c-.43462044-.3245538-.89817041-.04974167-.93627041.34960453H3.68960577c-.0381-.3993462-.50164998-.67415832-.93627306-.34960453-.34501665.44979166-.03175.94579809.39722952.94579809.28292688 0 .5125852-.21660644.53904354-.4924769h3.31223127c.02645833.27587046.25611665.4924769.53904353.4924769.42897688 0 .74224353-.49600643.39722688-.9457981"/><path d="M9.91295735 13.00268244c.8004545-.21201856.91087306-1.02728976.46954808-1.45168142l3.14078128-3.96310374c.51399543.33266856 1.2823454.0388038 1.30598327-.78916476-.21096287-.83925832-1.10137305-.93486022-1.50812493-.42156856-.26846475.33866666-.22718976.81879545.07796212 1.11230832l-3.14042673 3.96345828c-.35559999-.23036476-.8325564-.16051476-1.10101851.1781519-.40675452.51293976-.11006666 1.35819354.75529542 1.37159998m-2.21614989 7.00475635c-.44167687-.3298481-.91263518-.0504481-.95144162.35524545H3.37986601c-.03880379-.40569355-.5097621-.68509355-.95144162-.35524545-.3506602.4572-.03245379.96131855.40357952.96131855.28751212 0 .52105187-.22013333.5478621-.50059166h3.36549983c.02681288.28045833.26034999.50059166.54786475.50059166.4360333 0 .75423973-.50411856.40357687-.96131855m-1.58361848-6.63292946c.16404166.71613976.8833564.8382 1.2724685.4600231l3.41912293 2.90194996c-.31009165.44555833-.0726731 1.13559166.66039997 1.18109999.7503583-.161925.86148329-.94826666.41874808-1.32432688-.29209999-.24765-.71896284-.225425-.98813139.03633523l-3.41912293-2.90230186c.21448976-.307975.16721666-.7330731-.12488333-.98107499-.4430871-.37570833-1.20085373-.13828977-1.23860183.62829545m.45755187-3.90877684c.48224808-.64558333.07373144-1.33455832-.5192871-1.39135642V3.1517159c.59301854-.05679546 1.00153518-.74577045.5192871-1.39135378-.66851209-.51293976-1.40581849-.047625-1.40581849.58984356 0 .42086477.32208521.76235189.73236663.80151022v4.92266017c-.41028142.03915833-.73236663.381-.73236663.80151286 0 .63746856.7373064 1.10278332 1.4058185.58984356"/><path d="M10.92013874 9.90740938c.28857309-.38629167.0440981-.79833522-.3107981-.83220189V6.1305723c.3548962-.03386666.59937119-.44591286.3107981-.83220452-.39969809-.30691667-.84066852-.028575-.84066852.35277953 0 .2515288.19261665.45578712.43779543.479425v2.9446352c-.24517878.02328332-.43779543.22754165-.43779543.47942498 0 .381.44097043.65969356.84066852.3527769M13.21989695.4963576c-.41486664.63041476.00529167 1.25130452.56268141 1.27105832l.27481211 4.59881017c-.5506852.08643143-.89429162.75282953-.40710377 1.32926665.65299164.44167953 1.31550827-.03421856 1.28022873-.62970833-.02362729-.39299356-.34360377-.69426666-.72883709-.70802499l-.27481476-4.59881017c.38099999-.05961856.66251664-.396875.6392333-.78951666-.03563143-.59584166-.75035829-.98918711-1.34619993-.473075m2.29305633 15.49329338c.23318521-.71014166-.32914165-1.19485832-.8674814-1.06962045L13.1920284 10.5942677c.50447044-.225425.66004543-.95144165.0451538-1.37618521-.73871664-.25329356-1.24918517.37323977-1.06080185.93344999.12417689.36971022.50799997.57467499.8801814.48824355l1.45344348 4.32576282c-.34889808.155575-.5309314.55103712-.40675187.92039545.18838332.56056476.97366661.7517712 1.40969993.10371667M3.06801224 24.91457585c.24200378-.42121666-.05221288-.80362688-.41098786-.79480832l-.35454165-2.9442833c.35066286-.07690379.54539618-.51822878.21025643-.86994998-.43673975-.25823334-.84419806.073025-.79833519.45437953.03033712.25152879.24764999.43250379.49600377.42650833l.35454165 2.9442833c-.24271022.05326856-.41063332.28045832-.38029355.53198711.04586023.38135454.52034808.60677954.8833564.25188333"/><path d="M13.74800526 8.4437344c.47413331.00026458.6551083-.434975.47342687-.73448333l2.3202211-1.73249164c.23565377.2596462.70414352.20990453.83890374-.2448269.00669396-.49565189-.47236854-.67944999-.77293519-.45508332-.19826022.14816666-.24588521.42015832-.11994355.62723976l-2.320573 1.73249164c-.16298332-.17956477-.43744353-.21131477-.6357064-.0631481-.3002121.22436666-.26034998.73554166.21660643.87030188m-3.4720396 4.75614994c-.5154083.55668333-.20108332 1.24177953.34819165 1.35396286l-.4875371 4.6062185c-.56091664-.00529166-1.01141472.59866477-.62406474 1.25095.57467497.54609998 1.31092304.1837981 1.3740685-.4131019.04162954-.3933481-.22577689-.74506666-.60571853-.82232499l.48753974-4.60657305c.38770188.00388938.72284163-.28398522.76446853-.67768522.0631481-.5965481-.58067308-1.10489998-1.25694805-.6914462m3.61808959-2.32692043c.6198314.09172046.94015185-.44238332.7598833-.86889165l3.36585172-1.81786475c.25823332.3845269.8801814.409575 1.14335449-.15875.10371666-.64664165-.48648141-.97895832-.92251473-.74330188-.28751475.15522045-.40216664.50165-.27763521.79657045L14.59714045 9.8985908c-.17850379-.26599356-.53092877-.35983333-.81844352-.20461022-.43603332.23565379-.48189354.91157688.11535832 1.17898332"/><path d="M11.87510725 16.28422217c.38911475-.61101287-.02328333-1.20120832-.55879997-1.21249809l-.32984544-4.41148517c.5281083-.09101667.84807685-.73554166.37217877-1.2819962-.6332352-.41486666-1.2629435.05150644-1.22025827.62300644.0282231.37676666.33972498.66145832.71014163.66921855l.3294962 4.41183972c-.3647731.06279356-.63041475.39052499-.60254619.76729165.04303977.5715.73483784.93909355 1.29963327.4346231"/><path d="M10.90708684 14.1569722c.25470378.44555833.7602352.38170378.94403329.05009356l2.87266841 1.24883332c-.1171231.36053976.180975.77399355.6805083.65616666.46884165-.2599981.38417498-.80821477.01198563-.97013976-.24517878-.10653713-.52634354-.00529167-.65334353.22401476l-2.87266842-1.24883331c.08078523-.24941477-.03668977-.523875-.28222309-.63076666-.37182688-.1615731-.83043973.15063523-.70096853.67063143"/></g></svg>