<svg xmlns="http://www.w3.org/2000/svg" xml:space="preserve" viewBox="0 0 28.59 132.31"><g fill="#231f20"><path d="M19.06 43.35c-.37-.07-.58.25-.47.51l-2.09 1.05c-.15-.24-.53-.26-.7.08-.07.4.28.6.55.47.18-.1.26-.3.19-.48l2.08-1.05c.1.16.32.23.5.14.26-.14.3-.55-.06-.72m2.59-11.65c0-.52-.46-.72-.8-.53l-1.83-2.57c.29-.25.24-.77-.25-.92-.54-.02-.75.5-.51.83a.5.5 0 0 0 .68.14l1.83 2.58a.52.52 0 0 0-.08.69c.24.33.8.3.96-.22m2.23-26.74c-.55.22-.56.82-.2 1.08L21.8 9.16c-.4-.19-.92.1-.86.69.23.58.87.57 1.12.16a.6.6 0 0 0-.16-.79l1.88-3.12a.6.6 0 0 0 .77-.23c.24-.4-.05-.98-.67-.91M16.54 40.4c.25.43.73.36.9.05l2.76 1.19c-.12.34.17.74.65.63.45-.25.36-.78 0-.93a.5.5 0 0 0-.62.21l-2.75-1.19a.5.5 0 0 0-.27-.6c-.35-.16-.8.14-.67.64m10.68-14.07c.18-.61-.31-1.02-.77-.9l-1.33-3.7c.43-.2.55-.83 0-1.18-.63-.2-1.06.34-.89.82.12.32.45.49.77.4l1.33 3.7a.64.64 0 0 0-.33.8c.17.48.85.63 1.22.06m-12.1 14.03c.18-.34-.07-.63-.35-.61l-.4-2.3c.27-.08.4-.44.13-.7-.36-.19-.66.09-.61.39.03.2.21.33.4.31l.4 2.31a.38.38 0 0 0-.27.44c.05.3.43.45.7.16M8.78 13.94c-.7.12-.86.82-.5 1.21l-2.97 3.2c-.42-.32-1.1-.12-1.18.6.12.73.88.87 1.27.46a.72.72 0 0 0 0-.96l2.98-3.2c.29.22.7.2.96-.08.38-.42.18-1.16-.56-1.23"/><path d="M20.63 13.98c.81.21 1.31-.46 1.13-1.05l4.73-1.95c.29.54 1.11.66 1.54-.06.23-.85-.51-1.37-1.13-1.11-.4.16-.6.6-.47 1.02l-4.73 1.95a.84.84 0 0 0-1.06-.38c-.61.25-.77 1.14-.01 1.58M14.2 35.67c-.64.16-.73.8-.38 1.14l-2.49 3.1c-.4-.26-1.01-.03-1.03.62.16.67.86.75 1.18.34a.65.65 0 0 0-.05-.87l2.49-3.11c.28.18.65.13.87-.14.32-.4.09-1.07-.6-1.08m4.66-1.47c.41-.02.55-.41.37-.67l1.93-1.65c.22.22.63.15.72-.26-.02-.43-.45-.57-.7-.35a.42.42 0 0 0-.07.55l-1.93 1.65a.42.42 0 0 0-.56-.01c-.25.21-.19.66.24.74"/><path d="M13.03 48.16c.37-.25.29-.68-.01-.82l.9-2.55c.32.08.66-.2.53-.63-.25-.39-.72-.28-.84.05-.08.22.03.45.23.55l-.9 2.55a.44.44 0 0 0-.53.28c-.12.33.18.71.62.57M23.2 19.48c.16.62.8.7 1.13.37l3.07 2.45c-.26.4-.03 1 .61 1.02.66-.16.73-.86.33-1.17a.64.64 0 0 0-.86.05l-3.08-2.45a.64.64 0 0 0-.13-.86c-.4-.32-1.06-.09-1.07.59m-9.05 22.06c-.37-.58-1.04-.48-1.27-.02L9 39.99c.14-.49-.28-1.03-.94-.85-.61.37-.47 1.1.03 1.3.33.13.7-.02.86-.33l3.9 1.53c-.1.33.07.7.4.83.5.2 1.1-.24.9-.93m4-33.75c-.38.55-.02 1.11.48 1.14l.14 4.1c-.49.07-.81.65-.39 1.18.57.4 1.17 0 1.16-.54a.67.67 0 0 0-.64-.64l-.14-4.1c.34-.05.6-.34.58-.7-.02-.53-.64-.9-1.19-.44m4.4 37.7c.44-.06.55-.48.35-.73l1.91-1.83c.25.2.66.11.74-.32-.05-.45-.51-.56-.76-.32a.43.43 0 0 0-.04.58l-1.9 1.83a.43.43 0 0 0-.59.02c-.25.24-.15.7.3.76"/><path d="M8.27 39.48c.05-.44-.32-.65-.62-.52l-1.3-2.34c.27-.18.28-.62-.12-.8-.45-.06-.68.36-.51.66.11.2.35.27.56.18L7.58 39a.44.44 0 0 0-.14.57c.17.3.65.33.83-.1m19.3-33.19c-.32-.56-.95-.48-1.19-.06l-3.62-1.56c.14-.46-.23-.98-.86-.83-.6.33-.49 1.02-.02 1.22.31.14.67.01.83-.28l3.63 1.57c-.1.31.04.66.35.8.47.2 1.05-.2.89-.86M7.38 43.5c.45.28.87-.01.88-.4l3.19-.2c.06.38.52.61.92.27.3-.45-.03-.9-.44-.88a.52.52 0 0 0-.49.5l-3.18.22a.52.52 0 0 0-.55-.44c-.41.02-.68.52-.32.93"/><path d="M5.7.25c-.48.69-.03 1.39.59 1.42l.17 5.11c-.62.08-1.02.81-.5 1.46.72.51 1.47 0 1.45-.66a.84.84 0 0 0-.8-.8l-.16-5.11A.84.84 0 0 0 7.18.8C7.16.15 6.38-.3 5.7.25m17.72 7.31c0-.7-.64-.97-1.08-.71L19.8 3.39c.39-.34.32-1.03-.35-1.24-.73-.02-1.01.69-.69 1.14a.7.7 0 0 0 .93.18l2.53 3.46a.7.7 0 0 0-.1.94c.32.45 1.08.4 1.29-.3M11.64 6.32c.42-.23.37-.7.07-.88l1.24-2.64c.33.12.72-.15.63-.61-.23-.45-.75-.38-.9-.04a.47.47 0 0 0 .18.61L11.62 5.4a.48.48 0 0 0-.59.25c-.16.34.12.77.6.67m6.73-.04c.24-.37 0-.73-.33-.74l-.17-2.68c.32-.05.52-.44.24-.78-.39-.25-.77.02-.75.37.01.23.2.4.43.41l.16 2.68a.44.44 0 0 0-.37.46c.02.35.44.58.79.28m-5.88 41.93c-.7-.27-1.22.27-1.12.82L6.92 50.3c-.2-.52-.93-.72-1.39-.12-.3.73.32 1.28.9 1.12.37-.1.6-.49.53-.87l4.44-1.25c.14.36.53.56.9.46.58-.16.81-.95.18-1.42m11.5-24.93c.49-.43.28-1.05-.18-1.2l.86-3.92c.48.06.92-.42.65-1.01-.44-.53-1.11-.29-1.22.22-.07.34.12.67.44.77l-.85 3.92a.66.66 0 0 0-.72.5c-.11.52.4 1.02 1.01.72m-10.7 21.59c-.38-.48-.97-.3-1.12.13l-3.65-.9c.07-.45-.37-.88-.94-.64-.5.4-.29 1.03.18 1.15a.6.6 0 0 0 .73-.4l3.65.9c-.04.31.15.62.46.7.48.1.96-.35.7-.94"/><path d="M20.58 9.03c.41-.2.4-.65.12-.84l1.33-2.45c.31.13.7-.1.64-.55-.2-.44-.69-.4-.86-.09a.46.46 0 0 0 .15.6l-1.34 2.45a.46.46 0 0 0-.58.2c-.18.32.06.75.54.68m-6.8 32.33c.55.17.93-.27.82-.7l3.38-1.16c.18.4.75.5 1.08.02.19-.58-.3-.97-.74-.82-.3.1-.45.4-.38.7l-3.37 1.16a.59.59 0 0 0-.73-.3c-.43.14-.58.76-.07 1.1M11.4 8.12c.77 0 1.06-.7.77-1.18l3.75-2.77c.38.42 1.14.35 1.36-.38.01-.8-.76-1.1-1.24-.74a.76.76 0 0 0-.2 1l-3.76 2.77a.76.76 0 0 0-1.02-.1c-.48.35-.43 1.18.34 1.4m3.75 39.9c-.67-.43-1.32.02-1.34.6l-4.83.32c-.09-.58-.8-.94-1.4-.42-.46.69.05 1.38.67 1.34a.8.8 0 0 0 .74-.77l4.83-.31c.07.4.42.69.84.66.62-.04 1.03-.8.49-1.41m9.1-28.38c.4.13.67-.19.6-.49l2.41-.83c.13.28.54.36.77.01.14-.41-.21-.7-.53-.58a.42.42 0 0 0-.27.49l-2.4.83a.42.42 0 0 0-.52-.22c-.31.11-.42.55-.05.79"/><path d="M28.2 24.3c-.7-.47-1.4 0-1.43.62l-5.17.27c-.09-.62-.83-1-1.49-.47-.5.73.03 1.48.7 1.45a.85.85 0 0 0 .8-.82l5.17-.26c.06.42.44.74.88.72.67-.03 1.12-.83.54-1.5M5.6 12.16c-.57.3-.52.93-.12 1.18l-1.74 3.5c-.44-.17-.98.18-.86.8.3.61.98.54 1.2.08a.64.64 0 0 0-.23-.82l1.74-3.5c.3.1.66-.02.8-.32.23-.45-.13-1.05-.79-.92m-.41 8.06c-.07-.38-.46-.47-.67-.27l-1.77-1.64c.17-.23.06-.61-.33-.65-.4.07-.49.49-.26.7a.4.4 0 0 0 .53 0L4.46 20a.4.4 0 0 0 .05.53c.23.22.64.1.68-.3M9.94 5.85c-.6-.44-1.24-.07-1.29.48H4.11c-.06-.55-.7-.92-1.29-.48-.47.62-.04 1.3.54 1.3.4 0 .7-.3.75-.68h4.54c.04.38.35.68.74.68.59 0 1.02-.68.55-1.3m4.83 13.65c.02.45.44.6.72.42l1.73 2.13c-.23.23-.17.68.27.79.47-.02.62-.48.4-.76a.45.45 0 0 0-.6-.08l-1.74-2.14a.45.45 0 0 0 .04-.6c-.23-.28-.71-.22-.82.24m5.84 22.2c-.56.16-.62.74-.3 1.03l-2.1 2.9c-.38-.23-.91 0-.9.6.17.58.8.62 1.07.25a.59.59 0 0 0-.08-.79l2.1-2.9c.27.16.6.1.78-.15.28-.37.04-.96-.57-.95M6.43 48.12c.59.22 1.02-.23.94-.7l3.73-1.03c.17.44.77.6 1.16.1.25-.61-.26-1.07-.74-.94a.62.62 0 0 0-.45.72l-3.73 1.04a.63.63 0 0 0-.76-.38c-.48.13-.68.79-.15 1.19m5.88-6.92c.38.05.57-.28.46-.54l2.05-1.13c.16.23.54.25.7-.1.06-.4-.3-.6-.57-.45-.18.1-.25.3-.17.49l-2.05 1.13a.38.38 0 0 0-.5-.12c-.26.15-.29.56.08.72m6.23 12.77c-.3.39-.05.8.3.83v2.94c-.35.04-.6.45-.3.83.4.3.83.03.83-.35a.49.49 0 0 0-.43-.48V54.8a.48.48 0 0 0 .43-.47c0-.38-.44-.66-.83-.36M23.3 5.23c-.48.64-.07 1.32.51 1.38v4.87c-.58.05-.99.73-.51 1.37.66.51 1.39.05 1.39-.58a.8.8 0 0 0-.73-.8V6.62a.8.8 0 0 0 .73-.8c0-.63-.73-1.09-1.4-.58m-1.42 28.68c.44-.58.07-1.2-.46-1.25v-4.4c.53-.06.9-.68.46-1.25-.6-.46-1.25-.05-1.25.52 0 .38.28.69.65.72v4.4a.72.72 0 0 0-.65.73c0 .57.66.98 1.25.53m-9.26 3c.38.14.65-.16.58-.45l2.35-.75c.12.27.5.36.74.03.14-.4-.2-.67-.5-.58a.4.4 0 0 0-.27.47l-2.34.75a.4.4 0 0 0-.5-.22c-.3.1-.4.51-.06.75m11.38-4.68c.36-.26.26-.68-.04-.8l.8-2.57c.32.07.65-.22.5-.64-.26-.38-.72-.25-.83.08-.06.22.05.45.25.53l-.8 2.57a.44.44 0 0 0-.52.3c-.1.32.2.69.64.53"/><path d="M18.79 57.09c.75-.23.83-1 .4-1.4l2.84-3.87c.5.3 1.22 0 1.21-.79-.23-.79-1.07-.85-1.44-.35a.79.79 0 0 0 .11 1.06l-2.85 3.86a.79.79 0 0 0-1.03.21c-.37.5-.06 1.3.76 1.28m3.3-30.02c.2-.83-.5-1.33-1.1-1.14l-2.05-4.8c.55-.3.66-1.14-.08-1.56-.86-.22-1.38.54-1.12 1.16.18.4.63.6 1.05.47l2.05 4.8a.85.85 0 0 0-.37 1.08c.26.62 1.17.77 1.61 0M5 14.78c.44-.13.5-.58.24-.82l1.7-2.25c.3.18.72 0 .72-.45-.13-.47-.63-.51-.85-.22-.14.2-.11.46.06.62l-1.7 2.25a.46.46 0 0 0-.61.11c-.22.3-.05.76.44.76m14.92-3.42c-.8.14-.97.93-.58 1.38l-3.38 3.6c-.47-.36-1.24-.14-1.33.67.14.83 1 1 1.43.53.3-.3.3-.78.02-1.09l3.38-3.6a.8.8 0 0 0 1.08-.09c.44-.47.22-1.31-.62-1.4m3.75 3.03c.1.5.6.6.87.35l2.3 2.1c-.22.31-.07.8.43.85.53-.1.63-.64.33-.91a.51.51 0 0 0-.69 0l-2.3-2.1a.52.52 0 0 0-.06-.7c-.3-.27-.83-.12-.88.41m-2.25 1.44c.21.32.59.25.71 0l2.21.8c-.07.28.17.58.54.47.34-.22.26-.62-.03-.73a.39.39 0 0 0-.48.2l-2.21-.82a.39.39 0 0 0-.24-.46c-.29-.1-.62.15-.5.54m.29 24c-.41-.75-1.25-.66-1.57-.11l-4.74-2.15c.2-.6-.28-1.29-1.12-1.1-.78.42-.65 1.33-.04 1.6.4.2.88.03 1.1-.35l4.74 2.15c-.15.4.04.87.45 1.05.61.28 1.38-.23 1.18-1.1M18.86 58.4c.23.57.84.58 1.11.21l3.18 1.95c-.2.4.09.94.7.89.6-.23.58-.9.17-1.15a.61.61 0 0 0-.8.16l-3.19-1.95a.61.61 0 0 0-.23-.79c-.41-.25-1 .05-.94.68M15 61.97c.45.02.64-.39.48-.68l2.26-1.54c.21.26.66.23.8-.2.03-.46-.41-.65-.7-.46a.45.45 0 0 0-.15.6l-2.26 1.53a.45.45 0 0 0-.6-.09c-.3.2-.28.69.17.84m.12 39.2c.67.5 1.38.07 1.44-.54h5.08c.06.61.77 1.03 1.43.53.53-.69.05-1.45-.6-1.45a.83.83 0 0 0-.83.76h-5.08a.83.83 0 0 0-.83-.76c-.66 0-1.14.76-.61 1.45m-9.9-22.92c.73-.07.95-.77.62-1.2l3.32-3.05c.4.37 1.12.22 1.26-.5-.07-.78-.84-.99-1.27-.6a.74.74 0 0 0-.09 1l-3.32 3.04a.74.74 0 0 0-1 0c-.42.4-.28 1.18.48 1.31m9.56 17.51c-.25-.7-.99-.72-1.33-.3l-3.8-2.47c.26-.49-.06-1.15-.8-1.1-.74.25-.75 1.06-.26 1.38.33.2.75.13.99-.16l3.8 2.47a.74.74 0 0 0 .24.97c.5.32 1.22-.01 1.16-.79"/><path d="M14.65 81.74c.5-.29.42-.86.05-1.06l1.4-3.24c.4.13.87-.2.74-.77-.3-.52-.91-.43-1.1 0-.11.27 0 .59.26.73l-1.4 3.23a.58.58 0 0 0-.71.32c-.18.42.17.94.76.8m-5.5-17.37c-.33.23-.24.61.02.73l-.77 2.3c-.28-.07-.58.18-.46.56.24.34.65.24.75-.06a.4.4 0 0 0-.21-.48l.77-2.3c.2.05.4-.06.46-.25.1-.3-.17-.63-.56-.5m7.6 34.3c.47.24.87-.1.84-.49l3.18-.53c.1.38.6.57.96.19.25-.49-.12-.91-.54-.84a.53.53 0 0 0-.44.56l-3.17.52a.53.53 0 0 0-.6-.38c-.41.07-.63.6-.23.97m2.75-14.26c.12.4.54.44.74.2l2.06 1.5c-.15.27.01.65.43.64.41-.12.44-.57.18-.77a.42.42 0 0 0-.56.07l-2.06-1.5a.42.42 0 0 0-.12-.55c-.26-.2-.68-.03-.67.41m1-20.93c.4-.17.4-.6.14-.78L22 60.43c.29.14.66-.07.62-.5-.17-.41-.64-.4-.81-.1a.41.41 0 0 0 .12.56l-1.35 2.27a.43.43 0 0 0-.55.17c-.18.3.04.71.48.66m-9.97 7.64c.07.65.69.83 1.07.54l2.7 2.9c-.32.35-.19.98.45 1.1.67-.07.85-.75.5-1.12a.65.65 0 0 0-.87-.07l-2.7-2.9a.65.65 0 0 0 0-.87c-.35-.38-1.04-.25-1.15.42M4.9 79.6c.48.4 1.04.12 1.11-.34l3.85.25c.01.47.53.82 1.06.48.43-.5.1-1.1-.4-1.13a.63.63 0 0 0-.66.53l-3.84-.25a.63.63 0 0 0-.59-.61c-.5-.03-.9.52-.53 1.07m4.6 12.08c.53-.33.43-.94.02-1.15l1.42-3.54c.44.13.94-.25.77-.85-.33-.56-1-.44-1.18.02-.12.3.02.64.3.78L9.4 90.47a.62.62 0 0 0-.75.37c-.19.46.2 1 .84.83m10.02-11.65c.6.44 1.24.06 1.29-.48h4.55c.05.54.69.92 1.29.48.47-.62.04-1.3-.55-1.3-.39 0-.7.3-.74.67H20.8a.75.75 0 0 0-.74-.67c-.6 0-1.02.68-.55 1.3M22.4 94.8c-.09-.7-.77-.88-1.17-.56l-3-3.08c.33-.4.17-1.07-.53-1.18-.73.09-.9.83-.51 1.22a.7.7 0 0 0 .94.06l3 3.08a.7.7 0 0 0 .03.94c.4.4 1.14.24 1.24-.48"/><path d="M23.94 88.7c-.02-.63-.6-.85-1-.6l-2.42-2.96c.33-.33.24-.95-.37-1.1-.66.02-.87.66-.56 1.05.2.25.57.3.84.12l2.42 2.97a.63.63 0 0 0-.05.85c.32.38 1 .3 1.14-.34m-6.19-3.83c-.46.61-.07 1.27.5 1.32v4.69c-.57.05-.96.7-.5 1.32.64.49 1.34.05 1.34-.56 0-.4-.3-.73-.7-.76v-4.69c.4-.03.7-.36.7-.76 0-.6-.7-1.05-1.34-.56m2.9-.65c.46.16.8-.2.72-.55l2.87-.88c.14.34.62.45.9.06.19-.49-.22-.83-.59-.72a.5.5 0 0 0-.33.57l-2.88.88a.5.5 0 0 0-.6-.29c-.37.11-.5.63-.09.93m-9.61-.13c-.15-.38-.56-.4-.74-.15l-2.12-1.34c.14-.27-.05-.63-.46-.6-.4.15-.4.59-.12.76a.4.4 0 0 0 .54-.1L10.25 84c-.09.2-.03.42.15.54.27.17.67-.02.64-.45m2.53-15.06c-.38-.08-.6.23-.5.5l-2.13.98c-.14-.24-.52-.28-.7.05-.1.4.25.62.53.5a.4.4 0 0 0 .2-.48l2.13-.98c.1.17.31.24.5.15.27-.12.32-.54-.03-.72m-3.83.41c.38-.13.4-.53.18-.72l1.38-2.03c.26.14.63-.03.6-.43-.12-.4-.56-.41-.74-.15a.4.4 0 0 0 .08.54l-1.39 2.03a.4.4 0 0 0-.53.12c-.18.26 0 .66.42.64m-.2-7.1c.15.39.56.4.74.15l2.11 1.32c-.13.27.06.63.46.59.4-.15.4-.6.12-.76a.4.4 0 0 0-.53.1l-2.12-1.31a.4.4 0 0 0-.15-.53c-.27-.17-.67.02-.62.45m9.84 8.06c-.18-.44-.65-.44-.86-.16l-2.49-1.5c.15-.32-.07-.73-.54-.69-.47.18-.46.7-.14.9a.5.5 0 0 0 .63-.13l2.49 1.5c-.1.22-.03.49.18.61.32.2.78-.03.73-.53m-7.53 11.87c.5.47 1.12.19 1.22-.3l4.13.46c0 .5.53.92 1.12.57.5-.5.17-1.17-.36-1.23a.68.68 0 0 0-.74.54l-4.14-.47a.68.68 0 0 0-.6-.7c-.53-.05-1 .52-.63 1.13m1.3 3.78c-.62-.47-1.3-.07-1.35.51H6.99c-.06-.58-.73-.98-1.37-.5-.5.65-.04 1.37.58 1.37a.8.8 0 0 0 .79-.72h4.82c.03.4.37.72.78.72.62 0 1.08-.72.58-1.38m9.73-74.24c-.08-.44-.51-.53-.76-.31l-2-1.87c.2-.27.08-.7-.37-.74-.46.07-.55.55-.3.8.18.15.44.15.61 0l2 1.87a.45.45 0 0 0 .05.6c.26.24.73.12.77-.35m-8.22 1.58c.5.3.98-.05.97-.5l3.6-.4c.1.43.63.68 1.07.27.32-.53-.08-1.03-.55-.98a.6.6 0 0 0-.53.6l-3.6.4a.6.6 0 0 0-.65-.47c-.46.06-.74.63-.31 1.08m11.3 17.47c0-.66-.6-.92-1.02-.67l-2.39-3.26c.37-.32.3-.98-.33-1.17-.7-.02-.96.65-.65 1.07.2.28.59.35.88.18l2.39 3.26c-.25.22-.3.6-.1.88.31.43 1.03.38 1.22-.29M23.5 13.45c-.41-.12-.68.21-.6.51l-2.43.93c-.14-.28-.56-.36-.79 0-.13.43.24.7.56.59.2-.08.32-.3.26-.51l2.44-.93c.1.2.32.3.53.21.32-.12.41-.57.03-.8"/><path d="M18.81 10.23c.5-.38.33-.98-.1-1.14l.98-3.68c.45.08.9-.35.67-.93-.4-.52-1.04-.32-1.17.16-.09.31.09.63.39.74l-1 3.68a.62.62 0 0 0-.7.45c-.13.48.33.97.93.72M24.37 36c-.38.14-.39.54-.15.72l-1.3 2.09c-.27-.13-.63.05-.6.45.15.4.59.4.76.12a.4.4 0 0 0-.1-.53l1.3-2.08c.19.09.42.03.53-.15.17-.27-.02-.66-.44-.62m-8.84-13.02c.23.35.64.28.78 0l2.41.9c-.08.3.18.63.59.51.37-.23.28-.68-.03-.8a.42.42 0 0 0-.53.22l-2.41-.9a.42.42 0 0 0-.26-.51c-.31-.12-.68.16-.55.58M21.7 49.5c.66-.33.6-1.06.15-1.35l2.02-4c.5.2 1.12-.2 1-.92-.34-.69-1.13-.61-1.39-.1a.73.73 0 0 0 .27.96l-2.03 4a.73.73 0 0 0-.92.35c-.26.52.15 1.2.9 1.06M8.1 31.07c-.22.67.3 1.13.81 1.01l1.35 4.07c-.48.21-.63.9-.05 1.3.7.24 1.18-.35 1-.88a.7.7 0 0 0-.82-.46l-1.35-4.07a.7.7 0 0 0 .38-.87c-.17-.52-.9-.7-1.32-.1"/><path d="M20.32 33.3c-.03.64.53.92.95.7l2.14 3.25c-.36.3-.34.93.26 1.15.67.05.96-.58.68-1a.64.64 0 0 0-.84-.21l-2.14-3.26c.26-.2.32-.57.14-.85-.28-.42-.97-.4-1.19.22m-2.1 15.78c.39.46.95.29 1.1-.13l3.54.85c-.06.44.37.85.92.62.48-.4.27-1-.19-1.12a.6.6 0 0 0-.7.4l-3.55-.86a.6.6 0 0 0-.45-.67c-.46-.1-.92.34-.67.91m-3.1-17.9c.74.05 1.07-.61.8-1.1l3.8-2.5c.34.43 1.08.4 1.33-.3.06-.78-.67-1.1-1.16-.78a.74.74 0 0 0-.25.97l-3.79 2.5a.74.74 0 0 0-.99-.16c-.49.32-.47 1.12.26 1.38m3.2-19.42c.71 0 .99-.64.72-1.1l3.51-2.55c.35.4 1.05.33 1.26-.35.02-.74-.7-1.03-1.15-.7a.71.71 0 0 0-.19.94l-3.5 2.55a.71.71 0 0 0-.96-.1c-.45.33-.4 1.1.3 1.3m3.36 2.52c.47-.3.38-.84.01-1.03l1.25-3.17c.4.1.84-.23.69-.77-.3-.5-.9-.39-1.06.02-.1.28.02.58.27.7l-1.25 3.18a.56.56 0 0 0-.67.33c-.16.41.2.9.76.74m-15.53 1.2c-.28-.62-.95-.59-1.23-.18L1.3 13.34c.2-.46-.15-1.03-.82-.94-.64.3-.6 1.02-.13 1.27.31.17.7.07.88-.22l3.62 1.97a.67.67 0 0 0 .3.85c.47.26 1.1-.1 1-.8m18.08 8.42c-.68.26-.7.99-.28 1.32L21.55 29c-.48-.24-1.13.09-1.07.82.26.72 1.06.72 1.37.23a.73.73 0 0 0-.17-.97l2.4-3.78c.33.17.74.06.94-.26.31-.5-.03-1.2-.79-1.14m-7.51 31.22c-.36.22-.28.63 0 .77l-.91 2.38c-.3-.08-.62.18-.5.58.22.37.67.28.78-.02a.42.42 0 0 0-.2-.53l.9-2.38c.2.05.42-.05.5-.26.12-.3-.16-.67-.57-.54M15.2 9.6c-.34.22-.26.61 0 .74l-.84 2.32c-.3-.08-.6.18-.49.56.23.36.66.27.77-.03a.4.4 0 0 0-.2-.5l.84-2.32a.4.4 0 0 0 .48-.25c.11-.3-.16-.65-.56-.52m3.43 14.56c.5-.38.33-.98-.1-1.15l1.04-3.67c.45.09.9-.34.68-.92-.4-.53-1.04-.34-1.17.14-.1.31.08.64.37.75l-1.03 3.67a.62.62 0 0 0-.72.44c-.13.48.32.98.93.74m.12 10.9c-.51.18-.55.7-.25.96l-1.87 2.68c-.35-.2-.83.02-.81.56.16.53.74.56.98.21a.53.53 0 0 0-.09-.71l1.87-2.68c.24.14.54.07.7-.16.25-.34.02-.88-.53-.85"/><path d="M19.67 30.2c.81-.25.89-1.1.42-1.51l3.05-4.2c.55.31 1.32-.02 1.31-.87-.25-.86-1.17-.92-1.57-.37-.26.36-.2.85.13 1.14l-3.05 4.2a.85.85 0 0 0-1.13.23c-.4.55-.05 1.4.84 1.38m4.95-19.8c-.26.43.04.82.41.82l.33 3.05c-.36.07-.57.53-.22.9.44.27.87-.07.83-.47a.5.5 0 0 0-.51-.44l-.33-3.05a.5.5 0 0 0 .4-.55c-.04-.4-.53-.63-.91-.27M5.64 17.65c-.2-.53-.76-.55-1.02-.22l-2.91-1.87c.19-.37-.07-.88-.63-.84-.56.2-.56.82-.19 1.06.25.16.58.1.76-.13l2.91 1.87a.57.57 0 0 0 .2.74c.38.24.93-.02.88-.6m9.13 19.54c-.02-.57-.54-.77-.9-.55l-2.12-2.73c.3-.3.23-.85-.32-1-.59 0-.8.58-.52.93.18.24.5.29.75.13l2.13 2.74a.57.57 0 0 0-.06.76c.27.35.89.3 1.04-.28M18.1 34c.22-.57-.22-.98-.66-.9l-1.03-3.55c.42-.16.57-.74.09-1.1-.6-.24-1.03.25-.9.71.1.3.4.48.7.43l1.03 3.54a.6.6 0 0 0-.36.73c.13.46.76.64 1.13.13m-1.57 20.23c.82.11 1.23-.6.98-1.16l4.4-2.48c.35.5 1.17.52 1.5-.23.13-.86-.66-1.28-1.23-.96a.83.83 0 0 0-.34 1.05l-4.4 2.48a.83.83 0 0 0-1.09-.25c-.57.32-.61 1.21.18 1.55m-1.2-48.8c.63.54 1.37.18 1.48-.42l5.04.43c.01.62.68 1.1 1.39.66.58-.64.17-1.44-.49-1.5a.83.83 0 0 0-.88.69l-5.05-.44a.83.83 0 0 0-.75-.82c-.66-.05-1.2.66-.73 1.4m2.86 13.7c.65.48 1.34.07 1.4-.53h4.95c.06.6.75 1 1.4.52.52-.67.05-1.41-.6-1.41a.81.81 0 0 0-.8.73H19.6a.81.81 0 0 0-.8-.73c-.65 0-1.12.74-.6 1.41m-1.28 6.63c.38.17.69-.1.65-.42l2.5-.53c.1.3.49.43.77.12.18-.4-.13-.72-.46-.65a.42.42 0 0 0-.32.45l-2.5.54a.42.42 0 0 0-.49-.29c-.32.07-.48.5-.15.78m-9.56-1.15c-.3-.73-1.07-.74-1.42-.27l-4.09-2.49c.26-.52-.11-1.2-.89-1.13-.76.3-.75 1.14-.22 1.47.35.2.8.11 1.04-.2l4.08 2.48c-.17.36-.05.8.3 1.01.53.32 1.29-.06 1.2-.87m8.48 3.08c.29-.38.05-.8-.3-.82v-2.91c.35-.03.59-.44.3-.82-.4-.3-.83-.03-.83.35 0 .24.2.45.43.47v2.9a.48.48 0 0 0-.43.48c0 .37.44.65.83.35"/><path d="M23.91 50.98c.16-.8-.51-1.24-1.07-1.04L20.7 45.5c.51-.31.58-1.11-.13-1.49-.83-.17-1.3.57-1.02 1.15a.8.8 0 0 0 1.01.4l2.14 4.46a.81.81 0 0 0-.32 1.04c.28.58 1.15.68 1.53-.07M15 40.14c-.75-.1-1.12.55-.9 1.05l-3.97 2.25c-.32-.46-1.06-.47-1.36.21-.11.78.6 1.16 1.12.87.34-.2.47-.6.31-.96l3.98-2.24c.22.31.64.42.98.22.52-.29.56-1.1-.16-1.4M5.24 31.7c.37.27.76.04.8-.3h2.8c.02.34.42.57.78.3.3-.38.03-.8-.33-.8a.46.46 0 0 0-.46.41h-2.8a.46.46 0 0 0-.46-.41c-.36 0-.62.42-.33.8M5.02 7.5c.63.43 1.27.02 1.3-.55L11 6.77c.07.57.74.93 1.34.45.46-.66-.01-1.34-.62-1.32a.77.77 0 0 0-.73.73l-4.68.18a.77.77 0 0 0-.79-.66c-.6.02-1.02.74-.5 1.36m20.26 47.98c-.1-.64-.72-.8-1.09-.49l-2.83-2.78c.3-.37.14-1-.5-1.08-.68.1-.83.78-.46 1.14.24.24.62.24.87.03l2.83 2.78c-.2.26-.2.64.05.87.37.36 1.05.2 1.13-.47"/><path d="M18.68 47.81c.4-.04.52-.42.34-.66l1.83-1.65c.22.2.62.12.7-.27-.04-.42-.46-.54-.7-.33a.4.4 0 0 0-.05.54l-1.83 1.65a.4.4 0 0 0-.54 0c-.24.21-.16.64.25.72M8.02 40.15c.73-.31.72-1.1.24-1.44l2.41-4.2c.53.24 1.22-.15 1.13-.94-.32-.76-1.18-.73-1.5-.18-.2.36-.1.8.24 1.04l-2.41 4.2a.8.8 0 0 0-1.02.33c-.31.54.09 1.3.9 1.19m14.69 2.87c.05-.57-.45-.83-.83-.64l-1.83-2.95c.33-.25.32-.81-.2-1.02-.6-.06-.87.5-.63.87.16.26.48.34.74.21l1.83 2.95c-.23.17-.3.5-.14.75.23.38.85.39 1.06-.17M19.25 7.18c-.38.12-.41.52-.18.72l-1.41 2.02c-.26-.15-.62.02-.61.42.13.4.56.42.74.16a.4.4 0 0 0-.07-.54l1.4-2.02c.19.1.42.05.54-.12.18-.26.01-.66-.41-.64M14.17 31.2c-.37.16-.36.56-.11.73l-1.2 2.15c-.28-.12-.62.08-.57.48.17.38.6.36.76.08a.4.4 0 0 0-.13-.53l1.2-2.14a.4.4 0 0 0 .52-.17c.16-.28-.05-.67-.47-.6m9.45-28.45c-.41.2-.4.65-.11.83l-1.3 2.45c-.3-.12-.69.11-.62.56.2.43.69.4.86.08a.45.45 0 0 0-.16-.6l1.3-2.45c.21.1.46 0 .57-.2.17-.32-.08-.75-.54-.67M8.86 7.1c-.42-.14-.7.2-.63.52l-2.55.87c-.14-.3-.57-.4-.82-.03-.14.44.23.74.56.63.22-.08.34-.3.28-.52l2.56-.87c.09.2.32.3.54.23.33-.1.44-.57.06-.83m7.27 12.31c.77-.01 1.04-.72.74-1.2l3.67-2.87c.4.4 1.14.31 1.34-.43 0-.8-.78-1.07-1.26-.7a.76.76 0 0 0-.17 1.01l-3.67 2.88a.76.76 0 0 0-1.03-.08c-.47.37-.39 1.2.38 1.4m9.13 108.28c-.27-.7-1-.71-1.34-.27l-3.87-2.4c.25-.48-.1-1.14-.84-1.07-.72.27-.72 1.08-.22 1.39.33.2.76.11.99-.19l3.86 2.39a.74.74 0 0 0 .28.96c.5.31 1.22-.04 1.14-.81m-4.46-13.83c-.46.08-.56.54-.33.8l-1.97 2.1c-.27-.21-.72-.08-.77.39.08.48.58.58.83.3a.47.47 0 0 0 0-.63l1.97-2.1c.2.15.47.13.64-.05.25-.27.12-.76-.37-.81m-9.3 10.99c-.32.72.22 1.29.8 1.21l1.08 4.7c-.56.18-.8.93-.2 1.44.76.34 1.36-.26 1.22-.87a.79.79 0 0 0-.88-.6l-1.08-4.7a.79.79 0 0 0 .53-.93c-.14-.6-.95-.89-1.47-.25m7.12-5.07c-.5-.65-1.29-.44-1.5.12l-4.85-1.37c.11-.6-.45-1.2-1.22-.9-.7.51-.44 1.37.19 1.54.41.12.84-.1.99-.5l4.84 1.39c-.08.41.17.82.58.94.63.18 1.3-.42.97-1.22m-3.7-7.48c.18.4.61.4.8.14l2.31 1.36c-.13.3.08.68.51.63.43-.17.41-.64.11-.82a.44.44 0 0 0-.57.12l-2.31-1.36c.1-.2.02-.45-.18-.57-.3-.17-.72.04-.66.5m3.74 16.9c.08-.78-.6-1.14-1.13-.89l-2.47-4.07c.46-.35.45-1.12-.27-1.41-.81-.1-1.19.66-.87 1.2a.8.8 0 0 0 1.01.29l2.48 4.07a.78.78 0 0 0-.2 1.03c.31.53 1.16.54 1.45-.22m4.9-44.62c-.31-.77-1.13-.77-1.5-.28l-4.32-2.59c.27-.55-.12-1.27-.94-1.18-.8.31-.78 1.2-.23 1.54.37.22.84.12 1.1-.22L22 84.45a.83.83 0 0 0 .31 1.06c.56.34 1.36-.07 1.26-.92m.67-11.79c-.75.25-.8 1.03-.36 1.41l-2.73 3.96c-.51-.29-1.22.04-1.2.82.26.79 1.11.82 1.46.31a.79.79 0 0 0-.14-1.05l2.74-3.95c.35.2.8.1 1.03-.24.35-.51.02-1.3-.8-1.26m-6.66 15.37c.46.07.7-.33.56-.64l2.49-1.35c.19.28.65.3.84-.12.08-.48-.36-.72-.68-.55a.46.46 0 0 0-.2.6l-2.49 1.34a.46.46 0 0 0-.6-.15c-.32.18-.36.67.08.87"/><path d="M25.48 77.74c-.6-.45-1.23-.07-1.28.48h-4.54c-.06-.55-.7-.93-1.29-.48-.47.61-.04 1.3.55 1.3.39 0 .7-.3.74-.68h4.54c.03.38.35.67.74.67.58 0 1.01-.68.54-1.3M22.42 64.5c-.38.01-.52.37-.36.6l-1.84 1.46c-.2-.2-.57-.15-.67.22.01.4.4.54.64.35a.38.38 0 0 0 .08-.5l1.83-1.47a.4.4 0 0 0 .52.04c.23-.2.19-.6-.2-.7"/><path d="M8.36 75.68c.62.46 1.28.07 1.34-.5h4.75c.06.57.72.96 1.35.5.49-.65.04-1.36-.57-1.36a.78.78 0 0 0-.78.7H9.7a.78.78 0 0 0-.77-.7c-.62 0-1.07.71-.57 1.36M23.8 71.2c-.6.18-.65.8-.3 1.1l-2.24 3.06c-.4-.24-.97 0-.96.62.18.63.85.67 1.14.28a.62.62 0 0 0-.09-.83l2.24-3.06c.27.16.63.1.82-.16.29-.4.04-1.02-.6-1m-2.58.7c.44-.58.07-1.21-.47-1.27v-4.5c.54-.05.91-.68.47-1.27-.61-.47-1.28-.05-1.28.54 0 .38.29.7.67.73v4.5a.74.74 0 0 0-.67.74c0 .58.67 1 1.28.54"/><path d="M16.76 65.84c.33.3.75.12.81-.22l2.78.28c0 .34.37.61.76.37.33-.34.1-.79-.25-.82a.46.46 0 0 0-.5.37l-2.78-.28a.46.46 0 0 0-.41-.46c-.36-.04-.66.35-.41.76m2.68 2.96c.16.57.75.64 1.05.31l2.9 2.2c-.23.38 0 .93.6.94.6-.17.65-.8.27-1.1a.6.6 0 0 0-.8.08l-2.9-2.2a.6.6 0 0 0-.14-.8c-.38-.28-.98-.06-.98.57m-7.66 7.44c.6.45 1.25.07 1.3-.49h4.64c.05.56.7.94 1.3.49.49-.63.05-1.32-.55-1.32-.4 0-.72.3-.75.69h-4.63a.76.76 0 0 0-.76-.7c-.6 0-1.03.7-.55 1.33m-.15-11.37c.7.16 1.12-.42.95-.92l4.01-1.77c.26.47.97.55 1.32-.07.18-.73-.46-1.16-.98-.94a.72.72 0 0 0-.4.89l-4 1.76a.72.72 0 0 0-.92-.3c-.52.22-.63.99.02 1.35m5.33 36.11c.24-.31.04-.65-.25-.68v-2.4c.29-.04.49-.37.25-.69-.33-.25-.69-.02-.69.29 0 .2.16.37.36.4v2.4a.4.4 0 0 0-.36.4c0 .3.36.53.7.28M6.82 74.71c.44.09.69-.29.57-.6l2.46-1.2c.17.28.61.31.82-.09.09-.46-.32-.7-.64-.55-.21.1-.3.34-.22.56l-2.46 1.2a.45.45 0 0 0-.58-.16c-.31.15-.37.64.05.84"/><path d="M22.55 69.58c-.58.03-.77.58-.53.93L19.3 72.8c-.3-.3-.87-.2-1 .36.02.6.62.8.97.5a.57.57 0 0 0 .1-.77l2.73-2.28c.22.2.56.23.79.04.35-.3.27-.92-.33-1.06m-4.1-5.94c.36.15.63-.12.59-.4l2.3-.57c.09.27.46.38.7.08.16-.37-.14-.66-.43-.58a.39.39 0 0 0-.3.43l-2.29.57a.39.39 0 0 0-.46-.25c-.3.07-.43.47-.11.72m5.38 25.14c-.66 0-.9.61-.65 1.03l-3.22 2.42c-.33-.36-.98-.3-1.17.34 0 .69.66.94 1.08.63.28-.2.34-.58.16-.87l3.22-2.42c.23.25.61.29.89.08.42-.31.36-1.02-.3-1.2m-5.44 3.23c.43-.07.52-.48.32-.72l1.81-1.9c.25.2.66.09.72-.34-.07-.44-.53-.53-.76-.29a.43.43 0 0 0-.02.58l-1.81 1.89a.43.43 0 0 0-.58.04c-.23.24-.12.7.32.74m4.66 19.12c-.02-.49-.47-.66-.78-.46l-1.87-2.33c.26-.25.19-.73-.28-.85-.52 0-.69.5-.44.81.16.2.44.24.65.1l1.87 2.33a.49.49 0 0 0-.04.65c.24.3.77.25.89-.25m-5.87 17.14c.2-.75-.4-1.21-.95-1.06l-1.74-4.36c.51-.26.63-1.02-.02-1.42-.78-.22-1.27.45-1.04 1.02.14.37.55.56.93.45l1.73 4.37a.77.77 0 0 0-.37.97c.23.56 1.04.72 1.46.03"/><path d="M16.7 120.58c-.65-.25-1.14.24-1.05.75l-4.1 1.11c-.17-.48-.84-.66-1.27-.12-.27.68.28 1.19.81 1.04a.7.7 0 0 0 .5-.79l4.1-1.11a.7.7 0 0 0 .83.43c.53-.15.75-.87.17-1.3m4-2.3c-.56.37-.42 1.04.03 1.25l-1.37 3.93c-.49-.12-1 .32-.8.97.39.6 1.1.43 1.29-.08a.68.68 0 0 0-.37-.85l1.38-3.93c.33.08.69-.1.8-.43.18-.51-.28-1.1-.95-.87"/><path d="M17.12 129.93c-.06-.5-.53-.63-.83-.4l-2.07-2.23c.24-.28.13-.76-.36-.85-.52.05-.65.57-.38.86.17.2.46.2.67.05l2.07 2.23a.5.5 0 0 0 .01.67c.27.29.8.19.89-.33m3.73-4.2c-.36.25-.27.68.04.82l-.86 2.58c-.32-.07-.65.22-.51.65.26.38.73.26.84-.07a.45.45 0 0 0-.25-.55l.86-2.59c.22.05.45-.07.52-.3.11-.33-.2-.7-.64-.54M14 114.97c.36-.32.2-.76-.13-.86l.57-2.84c.35.04.66-.31.46-.74-.33-.37-.8-.19-.88.18-.05.24.1.48.33.55l-.57 2.83a.47.47 0 0 0-.52.38c-.07.36.3.72.74.5m4.61 6.69c-.54-.4-1.11-.06-1.16.43h-4.11c-.05-.5-.62-.83-1.16-.43-.43.56-.04 1.17.49 1.17.35 0 .64-.27.67-.6h4.11c.03.33.32.6.67.6.53 0 .92-.61.5-1.17m.08-12.6c-.3.38-.07.8.29.84l-.08 2.94c-.36.02-.61.43-.33.82.39.32.84.05.85-.33a.48.48 0 0 0-.43-.49l.08-2.94a.48.48 0 0 0 .45-.47c0-.38-.43-.67-.83-.37m2.73 14.34c-.43.03-.57.44-.38.7L19 125.88c-.24-.23-.67-.15-.76.28.03.46.48.6.75.37.17-.15.2-.4.06-.59l2.03-1.76c.16.16.42.17.6.02.26-.23.18-.7-.27-.8M11.9 94.77c.76-.26.8-1.06.35-1.43l2.73-4.07c.52.28 1.24-.06 1.2-.86-.26-.8-1.13-.82-1.49-.3a.8.8 0 0 0 .16 1.07l-2.73 4.07a.8.8 0 0 0-1.05.26c-.35.52 0 1.32.83 1.26m-.6 8.6c.38-.13.4-.53.18-.72l1.36-2.04c.26.14.62-.03.6-.44-.13-.4-.57-.4-.75-.14a.4.4 0 0 0 .09.53l-1.37 2.05a.4.4 0 0 0-.52.13c-.18.26 0 .66.42.63"/><path d="M18.87 88.6c-.64-.48-1.34-.07-1.4.53h-4.94c-.05-.6-.75-1.01-1.4-.53-.51.68-.04 1.42.6 1.42.42 0 .76-.33.8-.74h4.95c.04.41.38.74.8.74.64 0 1.11-.74.6-1.42m-.7-9c.76-.18.87-.94.47-1.35l3-3.66c.48.32 1.21.06 1.25-.72-.19-.79-1.02-.9-1.41-.42a.78.78 0 0 0 .05 1.04l-3 3.67a.78.78 0 0 0-1.04.15c-.4.47-.13 1.27.68 1.3"/><path d="M20.05 78.07c-.11-.62-.73-.75-1.08-.44l-2.83-2.61c.28-.37.1-.97-.52-1.04-.65.12-.78.79-.41 1.13.24.22.6.21.85 0l2.83 2.61c-.2.26-.17.62.08.85.36.34 1.02.16 1.08-.5m2.7 9.72c-.39-.15-.67.15-.61.45l-2.43.69c-.11-.29-.51-.4-.76-.06-.16.4.17.7.49.6a.4.4 0 0 0 .29-.47l2.43-.69c.08.2.29.31.5.25.31-.09.44-.51.1-.77m-.44-6.9c-.38.09-.44.47-.24.67l-1.53 1.83c-.23-.16-.6-.04-.62.35.09.4.5.46.7.22a.39.39 0 0 0-.02-.52l1.53-1.83c.16.11.39.09.52-.07.2-.23.06-.64-.34-.65M4.86 67.2c.2.67.9.73 1.24.34l3.46 2.5c-.27.45 0 1.1.7 1.08.7-.2.76-.96.3-1.29a.7.7 0 0 0-.93.11l-3.45-2.5a.7.7 0 0 0-.19-.93c-.45-.32-1.15-.04-1.13.69"/><path d="M21.42 77.75c.34-.5.02-1-.42-1.03l-.1-3.67c.43-.06.72-.58.35-1.05-.51-.37-1.05 0-1.04.47a.6.6 0 0 0 .57.58l.1 3.68a.6.6 0 0 0-.53.61c.02.48.58.8 1.07.4M8.72 98.89c.48.36 1 .06 1.04-.38h3.64c.04.44.55.74 1.03.38.38-.5.04-1.04-.44-1.04a.6.6 0 0 0-.59.54H9.76a.6.6 0 0 0-.6-.54c-.47 0-.81.55-.43 1.04m12.06-17.5c.16-.62-.34-1-.8-.86l-1.46-3.6c.42-.22.52-.85-.03-1.18-.64-.17-1.04.39-.85.85.12.31.46.47.77.37l1.47 3.6a.64.64 0 0 0-.3.8c.19.47.87.6 1.2.02m.62 13.7c-.56.41-.4 1.09.09 1.28l-1.23 4.1c-.5-.1-1.02.38-.77 1.04.43.6 1.16.39 1.31-.14a.7.7 0 0 0-.4-.85l1.21-4.11a.7.7 0 0 0 .81-.49c.16-.53-.34-1.1-1.02-.84"/><path d="M22.3 82.58c.26-.31.08-.67-.22-.72l.18-2.48c.3 0 .53-.34.31-.68-.31-.28-.7-.08-.72.24a.4.4 0 0 0 .33.43L22 81.85a.4.4 0 0 0-.4.38c-.02.32.34.58.7.35m-10.53 9.36c.44.58 1.14.4 1.34-.1l4.27 1.27c-.1.53.38 1.06 1.07.8.61-.44.4-1.2-.15-1.36a.73.73 0 0 0-.89.43l-4.26-1.27a.73.73 0 0 0-.5-.84c-.56-.16-1.15.36-.88 1.07m5.5-13.8c.43.27.83-.01.84-.38l3.03-.22c.06.37.5.59.88.26.29-.43-.03-.86-.43-.84a.5.5 0 0 0-.46.49l-3.03.22a.5.5 0 0 0-.52-.42c-.4.03-.65.5-.3.9m.03-6.82c-.12.55.33.87.73.74l1.4 3.13c-.36.2-.42.76.07 1.03.57.13.91-.37.73-.78a.56.56 0 0 0-.7-.3l-1.4-3.13a.56.56 0 0 0 .23-.72c-.18-.4-.78-.49-1.06.03"/><path d="M22.57 68.82c-.77-.2-1.23.44-1.05.99l-4.42 1.87c-.28-.51-1.05-.62-1.44.06-.21.8.49 1.28 1.06 1.04a.79.79 0 0 0 .44-.96l4.41-1.87c.2.35.62.51 1 .35.57-.24.71-1.08 0-1.48m-6.89-5.4c.49.12.79-.28.68-.63l2.84-1.17c.18.32.67.4.93-.04.13-.5-.3-.82-.68-.67a.5.5 0 0 0-.29.62l-2.84 1.17a.5.5 0 0 0-.63-.24c-.37.16-.46.7 0 .96M7.72 71.9c.47.03.69-.39.53-.7l2.45-1.56c.22.28.7.26.86-.18.05-.5-.42-.72-.74-.52a.48.48 0 0 0-.16.62L8.2 71.12a.48.48 0 0 0-.63-.11c-.32.2-.32.71.15.89m9.12 23.77c.52.34 1.03 0 1.04-.47l3.78-.22c.07.45.62.73 1.09.33.36-.53-.03-1.08-.52-1.05a.62.62 0 0 0-.58.6l-3.77.23a.62.62 0 0 0-.65-.53c-.49.03-.81.62-.39 1.1m5.25 3.86c-.44.1-.52.53-.3.77l-1.81 2.02c-.26-.2-.69-.07-.72.38.08.45.55.53.79.27a.44.44 0 0 0 0-.6l1.8-2.02c.19.14.44.12.6-.06.23-.26.1-.72-.36-.76m-7.26-33.87c.42.31.87.05.9-.34h3.21c.04.39.49.65.9.34.34-.43.04-.92-.38-.92-.27 0-.5.21-.52.48h-3.2a.53.53 0 0 0-.53-.48c-.41 0-.71.49-.38.92m1.6 34.84c-.32.22-.24.6.02.7l-.76 2.23c-.28-.07-.57.18-.46.55.23.33.63.24.73-.05a.38.38 0 0 0-.2-.48l.76-2.22c.2.05.39-.05.46-.24.1-.3-.17-.62-.55-.49"/><path d="M9.84 75.05c.13-.81-.56-1.24-1.12-1.01L6.4 69.6c.5-.33.55-1.14-.2-1.5-.83-.14-1.28.62-.98 1.2.2.37.65.53 1.04.37l2.3 4.43a.82.82 0 0 0-.28 1.07c.3.57 1.19.64 1.55-.13m13.32 20.09c-.12-.5-.61-.57-.88-.3l-2.37-1.97c.21-.3.04-.78-.46-.8-.51.12-.58.66-.28.91.2.17.5.15.68-.03l2.37 1.96a.5.5 0 0 0 .1.67c.3.25.82.08.84-.44m-8.27.56c-.46.21-.45.72-.13.93l-1.51 2.74c-.35-.15-.78.1-.71.6.2.5.76.46.96.11a.51.51 0 0 0-.17-.67l1.51-2.73c.24.1.52.01.65-.22.2-.35-.07-.84-.6-.76m-.35-18.3c-.47-.13-.78.25-.68.6l-2.81 1.09c-.16-.33-.65-.41-.91 0-.15.5.28.82.65.68a.5.5 0 0 0 .3-.6l2.8-1.08a.5.5 0 0 0 .62.25c.37-.14.47-.67.03-.94m3.22-38.23c.59-.33.5-1 .07-1.24l1.64-3.79c.48.16 1.02-.24.86-.9-.34-.61-1.06-.5-1.27 0a.66.66 0 0 0 .3.85l-1.65 3.79a.68.68 0 0 0-.83.37c-.21.49.2 1.1.88.92m.49-9.6c.55.06.83-.42.66-.8l2.98-1.7c.24.33.8.34 1.02-.18.08-.58-.45-.86-.84-.64a.56.56 0 0 0-.23.72l-2.98 1.7a.56.56 0 0 0-.74-.16c-.39.22-.42.83.13 1.06M14.94 42c-.1.4.23.66.52.57l.98 2.37c-.28.14-.34.55.02.77.43.11.69-.26.56-.56a.42.42 0 0 0-.5-.24l-.98-2.38c.19-.1.28-.32.2-.53-.13-.3-.58-.38-.8 0M8.34 9.28c-.45.42-.23 1 .21 1.11l-.62 3.7c-.46-.04-.85.43-.57.97.44.47 1.05.22 1.13-.26a.61.61 0 0 0-.45-.7l.63-3.7a.6.6 0 0 0 .65-.5c.08-.48-.41-.92-.98-.62m7.88 12.21c.6-.24.6-.88.22-1.16l2.01-3.35c.43.2.99-.1.92-.73-.24-.62-.93-.6-1.2-.17a.63.63 0 0 0 .18.84l-2.02 3.35a.64.64 0 0 0-.82.25c-.26.43.05 1.05.71.97M9.07 32.91c-.47.15-.51.64-.24.87L7.1 36.23c-.31-.18-.76.02-.75.51.15.5.69.52.91.2a.5.5 0 0 0-.08-.65l1.74-2.45c.22.12.5.07.65-.14.22-.32.02-.81-.5-.8"/><path d="M4.45 13.92c.24.53.81.51 1.05.16l3.1 1.7c-.17.4.12.89.7.8.55-.24.51-.86.11-1.08a.58.58 0 0 0-.76.18l-3.1-1.7a.58.58 0 0 0-.25-.74c-.4-.22-.94.08-.85.68m18.1 39.04c.65-.49.45-1.26-.1-1.48l1.36-4.73c.59.1 1.17-.44.89-1.2-.5-.67-1.34-.43-1.51.18-.12.4.1.82.48.98l-1.37 4.73a.8.8 0 0 0-.93.56c-.18.61.4 1.27 1.19.96m-5.98-7.55c.16-.79-.5-1.24-1.05-1.04l-2.05-4.46c.51-.3.6-1.1-.11-1.48-.82-.19-1.3.54-1.03 1.12a.8.8 0 0 0 1 .42l2.05 4.46a.8.8 0 0 0-.33 1.03c.26.58 1.12.7 1.52-.05m-5.65 5.28c0 .39.35.54.6.4l1.4 1.9c-.22.19-.18.57.19.68.4.01.55-.38.37-.62a.39.39 0 0 0-.5-.1l-1.4-1.9a.39.39 0 0 0 .06-.53c-.19-.24-.6-.21-.72.17m5.47 1.18c.4.12.66-.2.59-.5l2.41-.82c.13.28.54.36.77.02.14-.42-.21-.7-.52-.6a.42.42 0 0 0-.27.5l-2.42.83a.42.42 0 0 0-.51-.22c-.31.1-.42.55-.05.79m5.43-3.5c-.57-.29-1.06.13-1.02.6l-3.88.67c-.13-.46-.72-.7-1.17-.23-.31.6.15 1.12.66 1.03a.64.64 0 0 0 .53-.68l3.88-.67c.08.32.4.53.73.47.5-.08.77-.73.27-1.18m-2.1-26.9c.06.81.82 1.07 1.3.72l3.24 3.75c-.41.43-.27 1.23.52 1.4.84-.05 1.1-.88.68-1.37a.81.81 0 0 0-1.08-.13l-3.23-3.75c.28-.3.3-.77.03-1.1-.42-.48-1.29-.35-1.46.48"/><path d="M19.75 42.43c-.27.54.13 1 .57.96l.69 3.64c-.43.13-.64.7-.2 1.1.57.3 1.05-.15.97-.63a.6.6 0 0 0-.66-.49l-.68-3.64a.6.6 0 0 0 .43-.7c-.09-.47-.7-.71-1.12-.24m-.09 8c-.63.35-.54 1.06-.08 1.33l-1.78 4.03c-.5-.16-1.1.25-.93.96.36.66 1.14.55 1.37.02a.72.72 0 0 0-.31-.92l1.78-4.04c.35.12.74-.05.9-.4.22-.51-.21-1.16-.95-.98m4.5-27.54c.06-.39-.26-.59-.53-.48l-1.09-2.1c.24-.16.26-.54-.08-.71-.4-.07-.61.29-.47.56.09.18.3.25.49.18l1.08 2.1a.39.39 0 0 0-.13.5c.14.28.56.31.73-.05M7.07 9.16c-.43-.17-.74.17-.68.5l-2.7.77c-.12-.31-.57-.43-.84-.06-.18.44.2.77.54.67.23-.06.37-.3.33-.52l2.7-.78c.08.22.32.35.55.28.35-.1.49-.58.1-.86m12.15 8.65c.55-.38.42-1.03-.03-1.23l1.34-3.85c.48.12.99-.31.78-.95-.38-.58-1.08-.42-1.25.08-.12.33.04.69.35.83l-1.34 3.85a.67.67 0 0 0-.79.42c-.17.5.28 1.07.94.85m7.1 21.74c-.49-.37-1.01-.06-1.05.39h-3.73c-.04-.45-.56-.76-1.05-.4-.39.51-.04 1.07.44 1.07a.6.6 0 0 0 .61-.55h3.73c.03.3.28.55.6.55.48 0 .84-.56.45-1.06"/><path d="M24.02 38.41c-.59-.53-1.3-.19-1.4.39l-4.83-.43c0-.58-.64-1.04-1.32-.62-.56.6-.16 1.37.46 1.42a.8.8 0 0 0 .85-.64l4.82.42c0 .4.31.75.72.79.63.05 1.15-.63.7-1.33M15.05 9.16c.36-.24.28-.66 0-.8l.88-2.45c.3.08.64-.2.51-.6-.24-.38-.7-.28-.8.04-.08.2.02.44.21.53l-.88 2.46a.43.43 0 0 0-.51.27c-.12.32.17.68.6.55M3.3 10.93c.7.47 1.4 0 1.42-.63l5.15-.3c.1.61.85 1 1.5.45.49-.73-.05-1.47-.71-1.43a.85.85 0 0 0-.8.81l-5.15.32a.85.85 0 0 0-.89-.71c-.66.04-1.1.84-.52 1.5"/><path d="M21.73 44.63c.5-.4.34-1-.1-1.17l1.05-3.72c.47.08.92-.35.7-.94-.4-.53-1.06-.34-1.2.14-.09.32.09.65.39.77l-1.05 3.72a.63.63 0 0 0-.73.45c-.13.48.33.99.94.75M17.76 5.8c-.56.19-.6.77-.27 1.05l-2.04 2.96c-.38-.21-.91.03-.9.62.2.59.83.61 1.1.23a.59.59 0 0 0-.1-.79l2.03-2.96c.27.15.6.08.78-.17.26-.39.01-.97-.6-.94m-16 6.55c.44-.02.59-.43.4-.7l2.09-1.7c.23.23.66.16.77-.27-.02-.46-.47-.6-.74-.39a.44.44 0 0 0-.08.59l-2.09 1.7a.44.44 0 0 0-.59-.03c-.27.22-.21.7.24.8m18.5 17.23c.23.42.7.36.88.05l2.69 1.18c-.11.33.17.72.64.61.44-.24.36-.75.01-.9a.48.48 0 0 0-.61.2l-2.7-1.18a.48.48 0 0 0-.26-.6c-.35-.14-.78.15-.66.64m-.38 24.23c.1.8.87 1.02 1.34.65l3.43 3.57c-.39.46-.2 1.24.6 1.37.84-.09 1.05-.94.6-1.4a.81.81 0 0 0-1.08-.08l-3.43-3.57a.81.81 0 0 0-.03-1.1c-.44-.46-1.3-.28-1.43.56m-1.1-33.04c.44.33.91.05.95-.36h3.38c.03.41.5.69.95.36.35-.46.03-.96-.4-.96a.55.55 0 0 0-.55.5h-3.38a.55.55 0 0 0-.55-.5c-.44 0-.76.5-.4.96m-7 19.52c0-.52-.46-.73-.8-.54l-1.82-2.6c.29-.25.25-.76-.24-.92-.55-.02-.76.5-.53.83.16.22.46.28.69.15l1.82 2.6a.52.52 0 0 0-.09.69c.24.34.8.3.96-.21"/><path d="M23.43 48.67c-.72.28-.74 1.05-.28 1.4l-2.51 4c-.51-.25-1.2.1-1.13.88.28.75 1.12.75 1.44.23a.77.77 0 0 0-.18-1.02l2.5-4.01c.35.18.8.06 1-.28.33-.52-.03-1.27-.84-1.2M10.61 27.91c-.37-.63-1.1-.53-1.36-.05l-4.14-1.74c.16-.52-.27-1.1-.98-.93-.67.38-.54 1.17 0 1.4.35.14.75 0 .93-.34l4.14 1.74c-.11.36.06.75.42.9.53.22 1.18-.24.99-.98m6.03-9.09c.75.36 1.36-.18 1.3-.8l4.97-.94c.17.59.94.87 1.5.26.4-.77-.22-1.43-.86-1.3a.83.83 0 0 0-.67.89l-4.96.94a.83.83 0 0 0-.95-.58c-.64.12-.97.95-.33 1.53m7.63 16.9c-.06-.5-.53-.63-.82-.4l-2.08-2.2c.24-.28.13-.76-.35-.84-.52.05-.65.57-.38.85.17.19.46.2.66.05l2.08 2.2a.5.5 0 0 0 .01.66c.27.29.8.19.88-.33"/><path d="M19.35 21.83c.42-.26.34-.76 0-.92l1.1-2.87c.36.1.76-.2.62-.69-.28-.45-.8-.34-.95.03a.5.5 0 0 0 .25.63l-1.1 2.86a.5.5 0 0 0-.61.3c-.14.38.18.81.69.66M25 20.1c-.44.3-.33.83.03.99l-1.05 3.1c-.39-.1-.8.25-.63.76.32.47.88.33 1.02-.07a.54.54 0 0 0-.3-.66l1.06-3.1c.26.07.54-.08.63-.35.13-.4-.23-.85-.76-.67m2.25 12.08c-.35-.33-.78-.14-.86.2l-2.92-.35c0-.36-.37-.65-.79-.4-.35.35-.13.82.25.87a.5.5 0 0 0 .53-.38l2.92.36c0 .24.17.46.42.5.38.04.7-.37.45-.8m-1.61 17.59c-.72-.4-1.35.1-1.33.7l-4.94.66c-.13-.59-.88-.9-1.46-.34-.43.74.14 1.42.78 1.33a.82.82 0 0 0 .7-.84l4.94-.65c.1.4.48.68.9.62.64-.08 1-.88.4-1.48m-5.97-22.32c-.13-.38-.52-.4-.7-.18l-2-1.35c.14-.26-.03-.61-.42-.6-.4.13-.4.56-.15.74.17.11.4.08.53-.08l2 1.36a.4.4 0 0 0 .11.51c.26.18.66 0 .63-.4m-4.87 18.8c.04-.52-.43-.76-.77-.58l-1.7-2.73c.3-.24.29-.76-.2-.95-.55-.05-.8.46-.58.81.15.24.45.31.69.2l1.7 2.72a.53.53 0 0 0-.13.7c.22.35.8.35.99-.16m.9-6.29c-.1.62.43.95.86.77l1.76 3.38c-.39.25-.42.87.14 1.14.65.12.99-.47.76-.9a.62.62 0 0 0-.8-.3l-1.76-3.37a.63.63 0 0 0 .22-.82c-.23-.43-.9-.49-1.18.1M7.12 49c-.3.56.1 1.06.58 1.03l.59 3.88c-.46.11-.7.7-.24 1.15.59.33 1.11-.13 1.03-.63a.64.64 0 0 0-.67-.54L7.81 50a.64.64 0 0 0 .49-.72c-.08-.5-.72-.78-1.18-.3"/><path d="M16.01 39.6c.51.37 1.05.05 1.1-.42h3.88c.04.47.59.8 1.1.41.4-.52.03-1.1-.47-1.1-.33 0-.6.25-.63.57H17.1a.64.64 0 0 0-.63-.58c-.5 0-.87.59-.47 1.11m-1.6-23.3c-.3.26-.17.63.1.71l-.48 2.35c-.29-.04-.55.25-.38.6.27.32.66.17.73-.14a.4.4 0 0 0-.27-.45l.48-2.34a.4.4 0 0 0 .42-.31c.07-.3-.24-.6-.6-.42m3.74 13.82c.01-.68-.61-.95-1.04-.7l-2.46-3.36c.38-.34.31-1.01-.34-1.21-.71-.02-.98.66-.67 1.1.21.29.6.36.9.18L17 29.5a.68.68 0 0 0-.1.92c.32.43 1.05.38 1.25-.3M15.5 45.03c.05.49.52.62.81.4l2.05 2.2c-.24.27-.14.75.34.84.51-.05.65-.57.39-.85a.5.5 0 0 0-.66-.05l-2.05-2.2a.5.5 0 0 0 0-.66c-.27-.29-.8-.19-.88.32m8.1-35.07c.3.26.65.1.7-.2l2.4.21c0 .3.32.52.66.32.28-.3.08-.69-.23-.71a.4.4 0 0 0-.42.32l-2.4-.2a.4.4 0 0 0-.36-.4c-.31-.03-.57.31-.35.66"/></g></svg>