<svg xmlns="http://www.w3.org/2000/svg" xml:space="preserve" viewBox="0 0 15.315216 25.233133"><g fill="#231f20"><path d="M13.06593233 3.70450517c-.0176477-.49706212-.4808352-.67027689-.7881064-.46813522L10.37353247.86993665c.26317309-.2568231.19296855-.746125-.28892499-.86995-.51964164.01235604-.69426663.5210519-.44732308.82761666.16263143.20214166.44943975.24200643.66216474.1019519l1.90429346 2.3664333c-.18203332.1778-.20461021.4663731-.04162689.66851476.24659165.30656477.78104996.24518143.90381662-.2599981M7.09446407 21.13070412c.20461022-.755015-.41028142-1.23044478-.96590639-1.06963103l-1.75965635-4.44114497c.51470452-.2634906.63711664-1.03116855-.02927879-1.44109808-.78634162-.22366023-1.2848166.4596712-1.05692305 1.03469809.15028333.37951833.56268141.57259272.9468564.46139893l1.76000824 4.44112644c-.35595453.18203333-.52422952.60536666-.3739462.98501728.2278962.57507187 1.05939162.73133478 1.47884614.02963334"/><path d="M6.59245955 13.30817626c-.65722496-.2596462-1.1458204.24412045-1.05762684.75917688L1.3709977 15.19797063c-.18450453-.48852666-.8611314-.6759231-1.29645827-.11962606-.28045832.68340022.28257499 1.20014998.82197042 1.05353378.35559998-.09634273.57079618-.44732046.50976475-.80341522l4.16383502-1.13093499c.12770643.33803166.49036285.53205856.84631472.4353269.53904354-.1463675.7634102-.87700379.17603522-1.32467878m4.07176266-2.33997497c-.5750295.38805378-.43814997 1.06327044.02751667 1.27740831l-1.39453137 3.9987008c-.49812308-.12209727-1.02517305.32176772-.81632685.98323398.39757877.60563125 1.12853517.43669479 1.30915826-.0811477.11888523-.34148713-.04586287-.71010462-.36794808-.85866022l1.39488326-3.99838329c.34431021.08431477.7027333-.10195189.82197306-.44344166.18062045-.51787689-.28645642-1.10489998-.97472495-.87771021"/><path d="M15.30924699 20.53938683c-.27763786-.70418853-1.02940639-.71781457-1.36772114-.27204458l-3.9306498-2.42919247c.24729809-.50159708-.10124546-1.1680031-.8551333-1.1013281-.73942041.28084726-.73166018 1.09926435-.22224998 1.41385393.33584619.20753917.76729163.1189302 1.00118328-.18933583l3.93100435 2.42919247c-.1710981.34676291-.05715.77255687.27869354.98009603.50905831.31461604 1.24459994-.04452938 1.16487305-.83124145M10.77111388 6.48051347c-.47166474.08466666-.57361663.54962953-.33937308.81491665L8.434314 9.4322051c-.28081286-.2159-.7376583-.0829019-.79022306.3933481.0821981.49388976.59090186.59090188.84948973.314325.17074355-.18273978.16968522-.46143334.00740833-.64523144l1.99777869-2.13677497c.19402953.14957954.47237118.13193977.64311474-.0508.25858521-.2765769.12735189-.777875-.37076855-.82655832M1.31031815 17.65474062c-.32420188.73405999.22577953 1.31159248.81421284 1.23443998l1.0974916 4.77697265c-.5630333.18729854-.80609806.94670561-.19367498 1.46568582.76270375.3489325 1.37442039-.26704396 1.23225183-.88579854-.09383976-.40819916-.48224808-.66780832-.88899995-.61446832l-1.09749161-4.77670807c.38911475-.12977812.62547496-.53300311.5316352-.94077894-.14216856-.61888687-.96131852-.90590687-1.49542493-.25934458m7.2474663-5.15125222c-.50799997-.66604356-1.31303705-.45331857-1.53846204.1234731l-4.92019142-1.3998231c.11182878-.60924544-.46072952-1.21355377-1.2435416-.91475188-.7023814.52211023-.4469712 1.39135642.19014544 1.57268332.42051286.11959166.85337117-.1051269 1.00929806-.50376666l4.92054331 1.39946854c-.07725833.4215712.17250833.84031666.59302118.95990832.63711663.18132954 1.31197872-.42333333.98918707-1.23719165M4.79893919 4.89371992c.17215378.41204356.61594996.41098523.80997685.14393334l2.34738322 1.3857102c-.1397.29880455.07373143.68756477.51752497.63923333.43285831-.17427045.41839354-.65687045.1143-.83643522-.20073143-.11853333-.45402498-.06103143-.58843331.1234731l-2.34738321-1.3853583c.09666022-.20672955.02434166-.45649621-.17603523-.574675-.30409619-.17956477-.7337795.04092046-.6773333.50411855m3.80894148 17.18588585c.07584545-.78986061-.6198314-1.16027728-1.14793971-.90479561l-2.5160101-4.13992478c.46989997-.3514037.4614333-1.1394731-.27446287-1.43577203-.82408708-.08999273-1.2061454.6784287-.88053329 1.21461476.21484166.35343835.66039997.47625793 1.02552495.29986022l2.51601275 4.13988245c-.32490832.24296687-.42121664.6945577-.20637499 1.04841145.32596665.53620457 1.1839204.55070374 1.48378326-.22227646"/><path d="M7.0232012 22.81342764c-.05538523-.50381958-.53869164-.64449854-.83572875-.41632187l-2.11243323-2.26091748c.24800189-.28045833.1400519-.77226582-.35877498-.86182728-.52704997.0511175-.66604617.58136895-.39228975.87420978.1806231.1933575.47483975.21195771.6801564.05386917l2.11243323 2.26094393c-.17145.19404541-.17250833.48910874.0077523.68228103.27375641.29284083.81209351.1901825.89887684-.33223728m3.80013085-4.27672495c-.37147498.26029708-.27410832.70029916.03280833.8350779l-.86606852 2.63067268c-.32702498-.0741627-.66639807.22214417-.52211284.65222437.26669998.39163624.74259806.2727325.85478139-.06810375.07408333-.22473708-.0377481-.46381458-.25011855-.55700083l.86571662-2.63064621c.22612878.0511175.45825831-.07482417.53234164-.2995877.11218333-.34078334-.20002499-.71892583-.64734807-.56263646M3.84784946 7.60058466c.35877498-.32138143.20073143-.77293786-.14005189-.87629999l.58137687-2.88289996c.35418975.03668712.67486474-.31855833.46848975-.75353333-.33090642-.37923787-.81773973-.193675-.8928814.17956213-.04974166.24623976.098425.48436476.33408143.55562499l-.58102497 2.88289996c-.24518143-.0254-.47378142.13687954-.52352308.38311667-.07549356.37323976.30162498.7327212.7535333.51152953m4.68876832 6.80088431c-.54856854-.40996393-1.13382684-.0628306-1.18215827.4409731H3.17263283c-.04833143-.5038037-.63358974-.85093703-1.18215827-.4409731-.43568142.56761856-.04056856 1.19408309.50129808 1.19408309.3570102 0 .64734542-.273685.68086019-.62219416h4.18182669c.03351476.34850916.32349808.62219416.68086284.62219416.5415121 0 .93697684-.62646453.50129543-1.19408309m.08431477-12.81257211c-.30338976.38452954-.06596856.8092731.29351021.8533712l-.07761023 2.9890852c-.36124354.02539999-.6201833.43709165-.33725642.83678975.39793332.32208523.85301663.0511519.86289617-.3361981.00669396-.25541022-.1834462-.46778333-.43215452-.4981231l.07761287-2.98908519c.24976665-.0176477.45049544-.21978143.45719998-.47519166.00986896-.38735-.43038975-.68156666-.84419806-.3806481m2.78306463 14.58143603c-.44591286.032385-.58561285.45363605-.39405453.72277022l-2.06092679 1.78787687c-.23918332-.22793854-.67592307-.14856354-.77117306.28786666.0282231.46606354.49071474.60579.75776663.37425312.17603786-.15266458.20214165-.41161228.0694981-.59748207l2.0605749-1.78788481c.16580642.15723129.42544997.16823795.6014852.0154252.26705452-.231775.19402952-.70940082-.26317045-.80281461"/><path d="M14.33310916 22.83284805c-.02045229-.4286779-.42121664-.57324624-.68438709-.39618708l-1.66581658-2.02213101c.22436666-.22404917.15910189-.64518645-.25752953-.74718333-.44802687.01561042-.59337043.45614166-.37782498.71797333.1425231.17279937.39017309.20423187.5722064.0814652l1.6658166 2.02210456c-.1552231.15515167-.1718019.4041775-.02963334.57710916.21589999.26169937.67627497.20357042.77716852-.23315083M7.83741403 7.79390512c-.46496285-.34713333-.96096662-.05326856-1.00188972.3739462H3.29151805c-.04092045-.42721476-.53692687-.72107953-1.00188707-.3739462-.36935832.48118976-.0342212 1.0121212.42474354 1.0121212.30268332 0 .54892308-.231775.57714353-.52705h3.54400626c.028575.295275.27446022.52705.57714354.52705.45896474 0 .7941045-.53093144.42474618-1.0121212"/><path d="M14.68235915 24.68702157c.85654616-.0733425 1.11548327-.88720082.7404814-1.40025436l3.9214767-3.48890162c.46566664.43217041 1.3038666.26953104 1.47637492-.57258478-.06526212-.895985-.95849541-1.15355686-1.46614349-.701675-.33513975.29821188-.3792352.79689854-.11959166 1.15146666l-3.9214767 3.48908683c-.32208786-.29892625-.82232496-.3133725-1.15746471-.01508125-.50764808.4518554-.35595188 1.36905998.52634354 1.53804935m20.67806752-4.28003223c-.5637371-.65444687-1.37900562-.38668854-1.57585561.22047729l-5.14914595-1.14088332c.07796477-.63362416-.5478621-1.22091978-1.33526206-.8656902-.69144617.58033707-.37535642 1.45909769.29139355 1.60694685.43991475.09771063.87171473-.15983479 1.00823972-.57999311l5.1487914 1.14088331c-.05397499.4384675.2289519.85433958.66886664.95178562.66674732.14784916 1.32432683-.51538187.9429723-1.33352644m-9.45408854-6.02478203c.41521854-.20066.3891121-.65856643.10301023-.84377476l1.2971647-2.5004871c.31644165.1277038.70555376-.11465454.63076664-.56973786-.20461287-.43673712-.70167497-.39475833-.86959806-.07090834-.1107731.21378333-.03739356.47201666.16051476.600075l-1.2971647 2.50048974c-.2187231-.08819357-.47236855.00026458-.58314164.21413522-.168275.32385.08360833.75455726.55844807.6702081m.00282046-7.27350158c-.3256121.26105644-.20990189.65934166.07972954.76446856l-.63747118 2.46662307c-.30479998-.04833144-.5986621.2441231-.44061854.63006022.26846476.34360643.69814807.2060231.78069807-.11359356.05467879-.21060833-.06244167-.42333333-.2628212-.49635833l.63747118-2.46662307c.21060832.03351477.41627687-.0959538.4709583-.30691666.08255-.31926212-.22683786-.6480519-.62794617-.47766023"/><path d="M27.92457969 5.07398848c-.42368786.14534621-.45190831.58949166-.19755643.80151287l-1.54199159 2.2584833c-.28998332-.15945643-.6935602.028575-.6741583.47589546.14605.44485453.6300602.46213976.8297333.16968787.13158522-.1929712.09101665-.4504981-.08501857-.59725453l1.54234349-2.25848331c.20037688.1104212.45508331.05432954.58702307-.13864166.19967045-.2924519.00706438-.7369519-.46037497-.7112m-1.71379613 12.58995964c-.44097043.6318779-.02927879 1.27730248.53939808 1.31344456l.15275189 4.70280995c-.56479543.07262812-.93380185.74361144-.4526121 1.34551206.65440186.46910625 1.34443516.00264583 1.32432683-.60758916-.01304396-.4013729-.33125832-.71778811-.72425186-.74287061l-.15310643-4.7028364c.39087687-.050165.68791663-.38668854.6745102-.78851124-.01976438-.60880624-.7383621-1.03076374-1.3610166-.51995916"/><path d="M23.0149716 17.79158312c.03986212.73064686.72566209.97234373 1.17157494.66640603l2.86631842 3.42690975c-.37994165.38488937-.26352499 1.10243936.44838141 1.27111123.76411663-.03254375 1.00647495-.78560082.63499997-1.22946582-.24482953-.29284083-.6678083-.34287353-.97613782-.1316302l-2.86631842-3.42690975c.26281855-.26595916.28821855-.69135624.04303977-.98419707-.37112309-.44385441-1.15534805-.33830419-1.32185827.40777583m1.62595181-14.71290484c.09701477.59301856.67839164.73025 1.01599995.4409731l2.6426582 2.54670186c-.27622498.34783977-.11782689.9235731.47871854.99871476.62088974-.09383977.75247496-.73024999.41028142-1.06009809-.22577689-.21766477-.5757333-.22154356-.80927306-.02151062l-2.6426582-2.54670451c.19085453-.24059356.1739212-.58984356-.05185834-.80750833-.34219354-.32984545-.97331207-.174625-1.0438685.44943977"/><path d="M22.78919207 20.62482079c.34113786-.21592646.27304999-.61100229.00600604-.74371728l.87947496-2.3025629c.28751475.079375.60183974-.16965082.49141854-.55812-.22083712-.3590925-.6487583-.2734019-.76270376.0250825-.07514166.19648751.0141023.41384272.19896666.50546793l-.87947496 2.30272163c-.19896665-.05513916-.4106333.04725459-.48577497.24405167-.1135962.29805312.14781212.64738249.55209543.52707645M18.36394873 9.83719486c.45649354-.01905.61312687-.44520643.42615642-.72636855l2.16429155-1.76071475c.23706666.24024166.68615187.17356666.79762876-.2695231-.01375834-.47730833-.48224544-.635-.76235186-.40710379-.18485643.15063523-.22013332.41416023-.09066477.60889356l-2.16429155 1.76071475c-.16404166-.16615834-.42932877-.18556288-.6141852-.03527955-.28045832.2282481-.22119166.71896287.24341665.82938143m8.16750982-5.28743326c-.44097044.05609166-.55774164.4822481-.35277688.73942309l-1.9529768 1.88665377c-.24976665-.2134288-.6798045-.1114769-.75106473.32737954.05291666.46178522.51999354.57608522.7729352.33161022.16686475-.16121856.17885831-.41980643.0373962-.59760643l1.9526249-1.88665377c.17286022.14746023.43179998.14428523.5986621-.01693333.25294165-.244475.1548712-.71508143-.3048-.7838731m.28328143 12.63756611c.57079354-.26349853.54645187-.88720875.16121856-1.14653481l1.8287999-3.37326283c.42756665.18168143.96343783-.13864167.87277306-.76058712-.26740642-.5997231-.94544351-.55456666-1.18215827-.11782954-.15628143.2882212-.06279356.64205643.20390643.82126666l-1.82879991 3.37294533c-.29598142-.12527227-.64346663-.01103313-.79974806.27724629-.23671476.43670537.09560189 1.0298377.7440083.92675603"/><path d="M27.38341684 4.80870136c-.066675-.39828787-.45755187-.48895-.6836833-.29386476L24.9175003 2.81127185c.18450453-.23459546.07655453-.62088712-.32420188-.66957045-.41698331.06455833-.50376664.49247689-.27304999.71296211.1524.1456981.38734998.14746288.54363141.01235604l1.78258514 1.70391665c-.12770643.161925-.11535833.396875.03668977.5425731.23106855.22048522.65475376.1146519.70026209-.3048M23.6859549 17.78496853c-.22013332-.38459833-.65687307-.32922103-.81527117-.04230687l-2.48214343-1.07639378c.10089355-.31157333-.15698523-.66819726-.5884333-.56624537-.40463522.2250387-.33125832.69853704-.009525.8378481.21201854.092075.4547314.00425979.56409163-.1940269l2.48214344 1.07639378c-.06985.21550312.03210454.45254333.24412309.54432729.32173332.13932958.71754996-.1304925.60501474-.57959625"/><path d="M26.18432523 4.44251803c.206375.39828523.65087497.36053712.8233833.07725834l2.46732941 1.19415188c-.11535833.31115.1305269.68297688.57149997.59760643.41909998-.21060833.36477044-.69285643.0451538-.8473731-.21060833-.10230643-.46002044-.02362729-.5792602.17250833l-2.46732678-1.19415188c.0797269-.2151962-.01341437-.4596712-.22401476-.5616231-.31961665-.15451666-.7316602.1019519-.63676474.5616231m-.71437496 8.2232499c.14111287-.39581666-.16792045-.676275-.47201664-.61348143l-.75529542-2.45145186c.28680831-.11959167.38452687-.52528787.04515379-.77293787-.41169165-.1527519-.70731853.19226477-.60959997.50976476.06455833.2091981.27728332.3302.48753974.28680833l.75529807 2.45145187c-.19826287.08255-.30621286.30197954-.24165453.51152953.0977212.3175.53622308.43603333.79057496.07831667"/><path d="M27.33085472 12.85485505c.5891371-.43356212.41592498-1.13947044-.08396287-1.34514165l1.29787114-4.27460828c.53022497.10689167 1.06679995-.38346855.81773708-1.07138521-.44520377-.62159356-1.20791017-.41204356-1.37618516.14181666-.1107731.365125.07866856.74647689.42474354.889l-1.29822039 4.27460827c-.36653786-.07408333-.73624807.13758333-.84702116.50270833-.168275.55350832.34924998 1.15217309 1.06503782.88300188m1.25518327 3.67774533c-.46284619-.57506393-1.16663782-.36946416-1.35219804.1435788l-4.36527288-1.12116129c.08466666-.5390806-.43321021-1.05833332-1.11583518-.7774887-.6071314.47582667-.36230187 1.2356756.2032 1.38066726.3728852.09602523.74894806-.11176.87735828-.46661916l4.36527289 1.12144438c-.05856288.37250687.17109545.73588562.5439833.83177061.56550187.14499167 1.14617495-.40280166.84349163-1.1121919"/><path d="M26.14410857 12.48232172c-.5475102-.08113712-.83079163.3898212-.67204163.76693977l-2.97462031 1.60295164c-.22754166-.33993666-.77681663-.3625506-1.0100045.13945394-.09242688.57079355.42897953.86501022.81421284.65718795.25435188-.1368425.35595188-.44273523.24588522-.70347416l2.97497485-1.60298604c.15733976.2353019.46848974.31855833.72284163.18168143.38523331-.20778787.42615641-.80468786-.1012481-1.04175453m-.77611019 8.7107976c-.43497498-.32490833-.89852496-.04974166-.93697685.34962042h-3.31434794c-.0384519-.39936208-.50200187-.67452875-.93697685-.34962042-.34501665.45005625-.03175.9464675.39722688.9464675.28328142 0 .51329164-.21693188.53974997-.49323625h3.31434794c.02645833.27630437.25646855.49323624.53974997.49323624.42897688 0 .74259542-.49641124.39722688-.94646749m1.32362304-11.08887257c-.55915452-.64205378-1.3610166-.37359166-1.55187113.22577954l-5.0796452-1.09678786c.07337689-.62476855-.54645452-1.19979544-1.32044804-.84596022-.67803974.57573333-.36194999 1.44003976.29598142 1.58220832.43391664.09348522.85795375-.16263144.9902454-.57714356l5.07964785 1.09678522c-.0508.43215189.23001022.84031665.66392687.93415642.6579314.14181667 1.30245637-.51505643.92216283-1.31903786m-2.55799154 6.31754613c.19261665.55908045.7789333.59545272 1.05797874.25893712l2.98591272 2.03028019c-.21025643.38335478.03915833.9154054.6300602.88894707.58666853-.19401896.60854163-.8328554.22154355-1.0960629-.25505832-.1732227-.5947833-.11893021-.78810375.11355916l-2.98555819-2.03028018c.14499166-.26486379.07090833-.60109628-.18450453-.77459416-.38664354-.26278416-.97296018-.00743479-.93732874.6092137"/><path d="M25.34753815 21.51130724c.5506852.56446207 1.2784666.27479624 1.42381016-.28993042l4.75614976.74964395c-.0352769.58208333.56832497 1.08161665 1.2657666.71355478.59725187-.56747832.2599981-1.35075081-.35630642-1.44774706-.40639998-.06424083-.7852833.19510375-.88582495.58525833l-4.75650166-.74967041c.02468562-.40253708-.25646855-.76551895-.66286853-.82931-.61594997-.09741957-1.17792494.54430083-.78422496 1.26820083m8.77922645-3.19648414c-.53022497-.6607704-1.3387916-.42621728-1.55292681.16261292l-5.00979786-1.29537352c.0980731-.61845295-.49529997-1.21570749-1.27952493-.89460916-.69779353.54529037-.41839354 1.4181402.23071665 1.58599186.42791854.11051646.86007306-.1273175 1.00823972-.53443187l5.00979521 1.29508248c-.06773333.42788416.19508786.84558187.6230064.95638937.6487583.16756062 1.3165666-.46042791.97049162-1.27566207"/></g></svg>