<svg xmlns="http://www.w3.org/2000/svg" xml:space="preserve" viewBox="0 0 36.81 95.03"><g fill="#231f20"><path d="M9.5 85.65c.3-.4.04-.83-.32-.87v-3.06c.36-.03.62-.46.32-.86-.42-.32-.87-.03-.87.37 0 .26.2.47.45.5v3.05a.5.5 0 0 0-.45.5c0 .4.45.68.87.37"/><path d="M10.34 83.55c-.61.33-.54 1.02-.09 1.28L8.5 88.7c-.5-.16-1.06.23-.91.91.34.65 1.09.54 1.32.04a.7.7 0 0 0-.3-.89l1.77-3.88a.7.7 0 0 0 .87-.36c.22-.5-.19-1.14-.9-.97M6.06 87.4c.57-.12.68-.68.4-1l2.36-2.63c.35.26.9.09.95-.5-.11-.59-.73-.7-1.04-.35-.2.22-.2.56.01.78l-2.37 2.63a.58.58 0 0 0-.78.08c-.3.34-.13.94.47.99m3.34-7.52c.21.74.97.83 1.36.4l3.75 2.85c-.3.49-.01 1.2.76 1.2.78-.21.85-1.04.36-1.41a.77.77 0 0 0-1.03.1l-3.75-2.85a.77.77 0 0 0-.19-1.02c-.49-.37-1.27-.08-1.26.73m4.04 4.75c-.39 0-.54.36-.38.6l-1.9 1.44c-.2-.21-.59-.17-.7.2 0 .41.4.56.64.38a.4.4 0 0 0 .1-.52l1.9-1.44c.14.15.36.17.52.05.25-.18.22-.6-.18-.71"/><path d="M10.13 85.07c.65.26 1.13-.24 1.05-.75l4.1-1.1c.18.49.85.68 1.28.13.28-.67-.27-1.18-.8-1.04a.7.7 0 0 0-.51.79l-4.1 1.1a.7.7 0 0 0-.84-.44c-.53.14-.76.86-.18 1.3"/><path d="M18.34 86.4c-.23-.6-.86-.61-1.15-.24l-3.28-2.04c.2-.42-.08-.98-.71-.93-.63.23-.62.92-.2 1.18.28.18.65.1.84-.15l3.29 2.05a.63.63 0 0 0 .23.82c.43.26 1.04-.04.98-.7m-17.06-.31c-.13.6.39.95.82.8l1.62 3.43c-.4.23-.45.85.1 1.14.63.14 1-.43.79-.87a.62.62 0 0 0-.78-.32l-1.62-3.44c.27-.16.38-.5.24-.8-.2-.44-.88-.52-1.17.06m6.9-.84c.36.3.76.08.8-.25l2.8.14c.01.33.4.58.77.33.31-.37.07-.8-.3-.81a.46.46 0 0 0-.47.39L9 84.9a.46.46 0 0 0-.43-.44.48.48 0 0 0-.38.78"/><path d="M0 89.64c.17.47.67.5.9.2l2.56 1.69c-.18.33.04.77.54.74.5-.17.5-.7.17-.93a.5.5 0 0 0-.66.1L.95 89.77a.5.5 0 0 0-.16-.65c-.33-.22-.83 0-.79.53m16.94-3.24c-.45-.2-.8.14-.76.5l-2.94.68c-.12-.35-.58-.5-.9-.12-.22.47.16.85.54.76a.5.5 0 0 0 .38-.55L16.2 87a.5.5 0 0 0 .58.32c.38-.08.56-.59.16-.92m-5.56 1.95c-.7.28-.7 1.02-.26 1.35l-2.38 3.9c-.5-.24-1.15.11-1.08.86.28.73 1.09.72 1.4.21a.75.75 0 0 0-.2-.99l2.39-3.9c.34.16.76.05.96-.28.31-.51-.05-1.24-.83-1.15"/><path d="M12.25 90.7c.5.05.75-.39.6-.73l2.7-1.55c.21.3.72.32.92-.15.07-.53-.41-.79-.76-.59a.51.51 0 0 0-.21.66l-2.7 1.55a.5.5 0 0 0-.67-.15c-.35.2-.37.75.12.95M3.83 86c.44.7 1.24.56 1.51.01l4.68 1.8c-.16.6.34 1.23 1.13 1.01.73-.45.56-1.32-.04-1.55a.82.82 0 0 0-1.03.4l-4.68-1.8a.82.82 0 0 0-.5-1c-.6-.23-1.3.3-1.07 1.13"/><path d="M6.56 86.66c-.37-.27-.75-.03-.78.3L3 87c-.04-.33-.43-.56-.8-.28-.28.38 0 .8.35.79.24 0 .43-.19.45-.42l2.78-.04c.02.23.22.41.46.4.36 0 .61-.42.32-.79m3.53 4.55c.76-.1.96-.84.6-1.28l3.36-3.27c.44.36 1.18.18 1.3-.58-.1-.8-.9-.99-1.34-.56a.77.77 0 0 0-.06 1.03l-3.36 3.27a.77.77 0 0 0-1.03.04c-.44.42-.26 1.23.53 1.35m8.72-8.9c-.35-.3-.74-.08-.79.24l-2.73-.12c-.02-.33-.4-.58-.76-.33-.3.36-.07.78.29.8.23.01.43-.16.46-.39l2.74.13c.01.23.2.42.43.43.35.01.63-.38.36-.77m-6.45-5.14c.32.78 1.16.78 1.53.28l4.43 2.62c-.27.57.13 1.3.97 1.21.82-.33.8-1.24.22-1.58a.84.84 0 0 0-1.11.23l-4.43-2.62a.84.84 0 0 0-.33-1.09c-.58-.34-1.39.08-1.28.95m18.13-45.62c.51.38 1.06.06 1.1-.42h3.94c.04.48.6.8 1.11.42.4-.54.04-1.13-.47-1.13a.64.64 0 0 0-.64.59H31.6a.64.64 0 0 0-.64-.59c-.51 0-.88.6-.47 1.13m4.68 1.35c-.77-.21-1.26.4-1.1.97l-4.54 1.75c-.26-.53-1.04-.66-1.47.01-.24.8.45 1.32 1.04 1.09a.8.8 0 0 0 .48-.96l4.55-1.74a.8.8 0 0 0 1 .39c.58-.23.75-1.07.04-1.5m-6.41 12.46c-.38-.1-.62.2-.54.49l-2.23.89c-.13-.26-.52-.32-.72.02-.11.4.23.64.52.53a.4.4 0 0 0 .23-.48l2.23-.9c.1.19.3.27.5.2.28-.12.36-.54 0-.75m2.63-.36c-.17-.65-.83-.74-1.17-.38l-3.2-2.55c.28-.41.04-1.04-.63-1.06-.68.17-.76.89-.34 1.22.27.22.66.19.9-.06l3.19 2.55a.67.67 0 0 0 .14.89c.41.33 1.1.09 1.11-.6"/><path d="M26.4 43.26c.63.05.91-.5.7-.92l3.23-2.04c.28.37.9.35 1.13-.23.05-.65-.56-.94-.97-.68a.63.63 0 0 0-.23.81l-3.22 2.04a.63.63 0 0 0-.83-.15c-.42.27-.41.95.2 1.17"/><path d="M30.08 37.13c-.51.55-.2 1.22.34 1.33l-.5 4.55c-.55 0-1 .59-.61 1.23.56.54 1.3.19 1.35-.4a.75.75 0 0 0-.6-.82l.5-4.54c.39 0 .72-.28.76-.67.06-.58-.57-1.09-1.24-.68m-13.42 7.94c.55-.01.74-.52.52-.86l2.65-2.08c.28.3.82.23.96-.3 0-.58-.57-.78-.9-.5a.55.55 0 0 0-.13.72l-2.64 2.08a.55.55 0 0 0-.74-.06c-.34.27-.28.86.28 1m5.45 4.52c-.01-.42-.4-.57-.67-.4l-1.64-2c.23-.21.16-.63-.25-.73-.44.02-.58.45-.37.7.14.18.38.21.56.1l1.64 1.99a.42.42 0 0 0-.03.57c.2.26.66.2.76-.23m10.57-15.12c-.57-.56-1.3-.25-1.43.32l-4.82-.67c.03-.58-.59-1.08-1.29-.7-.59.6-.23 1.38.39 1.46a.8.8 0 0 0 .88-.6l4.82.66a.8.8 0 0 0 .68.83c.62.08 1.18-.57.77-1.3"/><path d="M25.07 31.61c-.35.25-.26.66.02.8l-.83 2.46c-.3-.07-.63.2-.5.61.26.37.7.27.81-.06a.43.43 0 0 0-.23-.52l.83-2.47c.21.05.43-.07.5-.28.11-.32-.18-.68-.6-.54m-3.85 3.84c.1-.4-.2-.64-.49-.56l-.89-2.28c.27-.13.33-.53-.01-.74-.4-.12-.66.23-.55.53.08.2.3.3.49.24l.89 2.28a.4.4 0 0 0-.2.5c.12.3.54.38.76.03m6.87 1.47c.13.75.87.92 1.3.55l3.37 3.18c-.34.45-.13 1.17.62 1.26.79-.13.95-.93.5-1.35a.76.76 0 0 0-1.02-.01l-3.38-3.19a.76.76 0 0 0-.07-1.02c-.44-.41-1.24-.2-1.32.58m.8-9.64c-.5.53-.2 1.18.33 1.28l-.44 4.36c-.53 0-.95.57-.58 1.19.55.51 1.24.16 1.3-.4a.72.72 0 0 0-.58-.78l.44-4.36c.36 0 .68-.27.72-.64.05-.57-.56-1.05-1.2-.65"/><path d="M28.25 27.62c.08.7.76.9 1.18.58l2.96 3.18c-.35.39-.2 1.08.5 1.2.74-.07.94-.81.55-1.22a.71.71 0 0 0-.95-.08l-2.97-3.17a.71.71 0 0 0 0-.96c-.39-.4-1.14-.26-1.27.47m.56 13.69c-.05.43.33.63.62.5l1.37 2.28c-.26.19-.26.62.15.79.45.05.66-.37.48-.67a.44.44 0 0 0-.56-.16l-1.37-2.29a.44.44 0 0 0 .12-.57c-.18-.3-.65-.3-.81.12m.27 7.43c-.3-.43-.82-.31-.98.05l-3.1-1c.09-.38-.27-.78-.77-.6-.46.32-.31.87.09 1 .26.09.54-.05.65-.3l3.1 1c-.06.26.1.53.36.62.4.13.84-.24.65-.77m3.61-13.7c-.67-.21-1.12.32-1 .83l-4.07 1.4c-.22-.48-.9-.62-1.3-.04-.23.7.36 1.18.89 1a.7.7 0 0 0 .45-.84l4.07-1.4c.15.33.52.5.87.38.53-.18.7-.92.09-1.33"/><path d="M22.46 35.62c.24.65.93.68 1.25.28l3.56 2.3c-.23.45.07 1.07.77 1.02.68-.24.69-1 .23-1.29a.7.7 0 0 0-.92.16l-3.57-2.3a.7.7 0 0 0-.23-.91c-.47-.3-1.15.02-1.09.74m7.92 9.54c-.34-.65-1.07-.6-1.35-.13L25 43.07c.19-.51-.22-1.12-.94-.99-.69.35-.6 1.14-.08 1.4.35.16.76.03.96-.29l4.04 1.97c-.13.35.02.75.37.92.52.25 1.2-.17 1.04-.92m1.64-14.93c-.67.17-.77.86-.4 1.21l-2.65 3.3c-.43-.27-1.08-.03-1.1.66.17.7.92.8 1.26.36a.7.7 0 0 0-.06-.93l2.65-3.3c.3.2.7.14.93-.15.34-.42.1-1.13-.63-1.15"/><path d="M28.8 38.88c-.14-.4-.57-.42-.76-.17l-2.2-1.42c.15-.28-.04-.66-.47-.63-.42.15-.42.6-.14.8.19.11.43.07.57-.1l2.2 1.42c-.1.2-.05.44.14.56.28.18.7-.01.67-.46"/><path d="M31 39.01c-.27-.4-.74-.3-.89.02l-2.76-.98c.09-.34-.22-.71-.68-.57-.42.28-.3.78.05.91.24.08.5-.03.6-.25l2.76.98c-.06.23.07.48.3.57.37.12.77-.2.62-.68m-2.4 3.23c-.27-.39-.73-.3-.87.02l-2.71-.95c.08-.34-.22-.7-.66-.56-.42.27-.3.76.05.89.23.08.48-.03.58-.25l2.7.95c-.05.24.07.48.3.56.36.13.75-.19.6-.66M23.1 33.9c.51-.34.4-.93 0-1.13l1.26-3.49c.44.11.9-.27.73-.85-.34-.54-.98-.4-1.15.05-.1.3.03.63.31.76l-1.27 3.5a.6.6 0 0 0-.72.37c-.17.46.23.98.84.79m9.2-3.4c-.28.45.02.87.4.87l.29 3.17c-.38.07-.6.54-.26.92.46.3.91-.05.87-.46a.52.52 0 0 0-.51-.47l-.28-3.17a.52.52 0 0 0 .42-.55c-.03-.41-.53-.67-.93-.3M16.79 75.94c-.04-.78-.78-1.05-1.26-.72l-3.07-3.69c.4-.4.28-1.18-.48-1.36-.82.03-1.08.84-.69 1.32.27.31.72.37 1.05.14l3.07 3.69a.79.79 0 0 0-.04 1.06c.4.47 1.24.36 1.42-.44"/><path d="M16.6 76.86c-.11-.37-.5-.4-.68-.2L14 75.3c.14-.25-.01-.6-.4-.6-.39.12-.41.54-.16.71.16.12.38.1.51-.05l1.91 1.38c-.1.17-.05.39.1.5.26.19.64.03.63-.37m-5.15 1.8c.4.16.7-.15.66-.47l2.56-.67c.11.3.52.42.8.08.17-.42-.17-.74-.5-.65a.43.43 0 0 0-.32.49l-2.56.67a.43.43 0 0 0-.52-.27c-.33.09-.48.53-.12.81"/><path d="M19.8 75.6c-.37-.27-.77-.04-.8.3h-2.87c-.03-.34-.43-.57-.8-.3-.3.4-.03.82.34.82.24 0 .44-.18.46-.42H19c.02.24.22.42.46.42.38 0 .65-.43.35-.81m-7.5-5.28c-.34.3-.2.73.12.84l-.61 2.73c-.34-.04-.65.29-.47.7.31.38.78.21.86-.14a.46.46 0 0 0-.3-.54l.6-2.73c.24.03.46-.12.51-.36.08-.35-.27-.7-.7-.5m8.2-3.97c.37.2.7-.04.69-.35l2.5-.3c.07.29.45.45.75.17.22-.38-.07-.72-.4-.68a.41.41 0 0 0-.35.42l-2.51.31a.41.41 0 0 0-.46-.32c-.32.04-.51.45-.21.75m1.06 6.97c-.62-.34-1.17.1-1.14.62l-4.27.6c-.12-.5-.77-.77-1.26-.27-.37.64.13 1.22.68 1.15a.7.7 0 0 0 .6-.74l4.27-.6a.7.7 0 0 0 .78.53c.55-.08.87-.77.34-1.29"/><path d="M23.22 61.68c-.31.41-.05.86.34.9v3.18c-.39.04-.65.48-.34.9.43.33.91.03.91-.38 0-.27-.2-.5-.47-.52v-3.18a.52.52 0 0 0 .47-.52c0-.42-.48-.72-.91-.38m-6.9-1.48c.36.6 1.04.5 1.28.05l3.89 1.63c-.16.5.25 1.04.92.88.63-.36.5-1.1 0-1.31a.7.7 0 0 0-.87.31l-3.89-1.63a.7.7 0 0 0-.39-.85c-.5-.2-1.12.22-.93.92m3.28-10c0 .38.36.53.6.38l1.43 1.87c-.2.2-.16.57.2.68.41 0 .56-.4.37-.63a.39.39 0 0 0-.51-.1l-1.43-1.87a.39.39 0 0 0 .05-.52c-.19-.24-.6-.2-.71.19"/><path d="M18.7 56.11c-.56.14-.64.7-.34 1l-2.2 2.73c-.35-.24-.89-.04-.91.53.14.59.76.66 1.04.3a.57.57 0 0 0-.05-.76l2.2-2.73c.25.16.58.12.77-.11.29-.36.09-.94-.51-.96M26.86 48c-.31.67.18 1.2.73 1.15l.93 4.42c-.52.17-.76.86-.2 1.35.7.34 1.27-.22 1.15-.8a.74.74 0 0 0-.81-.58l-.93-4.42a.74.74 0 0 0 .5-.86c-.12-.57-.87-.85-1.37-.26M18.5 64.76c-.1.46.29.73.62.61l1.23 2.65c-.3.18-.35.65.07.87.49.11.77-.32.6-.66a.48.48 0 0 0-.59-.25l-1.22-2.64c.2-.13.3-.4.19-.62-.16-.34-.67-.4-.9.04m-1.03 4.23c-.05.58.46.86.85.67l1.85 3.07c-.35.25-.34.84.2 1.06.6.07.9-.5.65-.9a.59.59 0 0 0-.75-.22l-1.85-3.07a.59.59 0 0 0 .15-.77c-.24-.4-.87-.41-1.1.16"/><path d="M16.96 73.06c.29.48.84.4 1.03.03l3.16 1.3c-.12.4.22.84.76.7.5-.3.4-.9-.01-1.06a.56.56 0 0 0-.7.26l-3.17-1.3a.56.56 0 0 0-.32-.68c-.41-.16-.9.19-.75.75M25 55.85c.15-.55-.3-.9-.7-.79l-1.26-3.24c.37-.2.47-.75-.02-1.06-.57-.16-.94.33-.77.75.1.28.4.42.69.34l1.26 3.25a.57.57 0 0 0-.28.72c.17.42.77.54 1.08.03m-5.36-.4c-.43-.14-.72.21-.64.54l-2.62.94a.47.47 0 0 0-.84-.01c-.15.45.24.76.58.63a.46.46 0 0 0 .29-.54l2.62-.94c.1.21.34.32.57.24.34-.12.44-.6.04-.86m.82-6.04c.22.4.68.36.85.06l2.58 1.17c-.11.33.15.7.6.6.43-.22.37-.72.03-.87a.46.46 0 0 0-.6.2l-2.57-1.18a.46.46 0 0 0-.24-.58c-.34-.15-.76.13-.65.6m-7.9 15.61c.16.46.63.5.87.23l2.4 1.7c-.18.3.02.74.5.73.48-.15.5-.67.2-.89a.48.48 0 0 0-.65.08l-2.4-1.7a.48.48 0 0 0-.14-.63c-.3-.22-.79-.02-.77.48m3.82-4.68c-.22.75.4 1.23.95 1.08l1.7 4.46c-.52.26-.65 1.02.01 1.44.79.23 1.3-.44 1.07-1.02a.78.78 0 0 0-.94-.47l-1.7-4.46c.36-.18.53-.6.39-.98-.22-.58-1.05-.75-1.48-.05"/><path d="M17.07 57.73c-.32-.5-.9-.39-1.1 0l-3.42-1.25c.11-.43-.26-.89-.84-.72-.52.34-.39.97.06 1.13.29.1.6-.03.74-.3l3.42 1.26c-.07.3.08.6.37.7.45.17.96-.22.77-.82m3.36 19.1c-.45-.33-.92-.05-.96.36H16.1c-.04-.4-.51-.69-.95-.36-.35.46-.03.96.4.96.29 0 .52-.22.55-.5h3.37c.03.28.26.5.55.5.44 0 .76-.5.4-.96m8.15-28.48c-.28.27-.14.63.13.7l-.4 2.33c-.28-.02-.53.27-.35.62.27.3.66.13.7-.17a.39.39 0 0 0-.27-.44l.4-2.32c.2.01.37-.12.4-.32.06-.3-.25-.58-.61-.4m-5.53 4.17c-.45-.7-1.25-.54-1.52.01l-4.73-1.7c.15-.6-.37-1.23-1.16-1-.73.47-.54 1.34.08 1.57.4.14.84-.05 1.02-.43l4.74 1.71c-.1.4.11.84.52.98.61.23 1.32-.32 1.05-1.14"/><path d="M14.24 70.06c-.56.64-.19 1.4.43 1.51l-.4 5.2c-.62.01-1.11.7-.65 1.43.66.6 1.48.16 1.53-.51a.85.85 0 0 0-.71-.9l.4-5.2c.43-.01.8-.35.83-.8.06-.66-.68-1.22-1.43-.73m6.36-.23c-.24-.52-.81-.5-1.05-.15l-3.08-1.67c.16-.4-.13-.89-.7-.8-.55.24-.5.86-.1 1.08.26.14.58.06.75-.19l3.08 1.68a.57.57 0 0 0 .25.73c.4.22.94-.08.85-.68"/><path d="M18.18 71.4c-.6.02-.83.58-.59.97l-2.95 2.28c-.3-.33-.9-.26-1.07.33 0 .64.62.86 1 .57.26-.2.31-.55.15-.81l2.94-2.28c.22.22.57.26.82.06.38-.3.32-.95-.3-1.11"/><path d="M15.2 73.5c.62.3 1.13-.17 1.08-.68l4.13-.85c.15.49.8.71 1.26.2.32-.66-.2-1.2-.74-1.09a.7.7 0 0 0-.54.76l-4.14.85a.7.7 0 0 0-.8-.47c-.54.1-.8.8-.25 1.28m14.54-13.55c-.47-.62-1.22-.42-1.43.1l-4.55-1.32c.11-.56-.42-1.12-1.14-.85-.66.48-.42 1.28.16 1.46.4.11.8-.1.94-.46l4.55 1.32a.8.8 0 0 0 .54.9c.6.17 1.22-.39.93-1.15m.58-4.94c-.28-.4-.75-.29-.9.04l-2.81-.93c.08-.35-.24-.71-.7-.56-.42.29-.3.8.07.92.24.08.5-.04.6-.27l2.82.93c-.06.24.08.49.32.57.36.12.77-.22.6-.7m-5.94 2.33c.26-.28.1-.63-.18-.69l.25-2.34c.28 0 .51-.3.32-.64-.3-.27-.67-.09-.7.21-.02.2.11.38.3.42l-.24 2.34a.4.4 0 0 0-.4.35c-.03.3.3.56.65.35m-4.04-2.78c-.43.57-.07 1.18.46 1.23v4.35c-.53.05-.89.66-.46 1.23.59.45 1.24.04 1.24-.52a.71.71 0 0 0-.65-.71v-4.35a.71.71 0 0 0 .65-.71c0-.57-.65-.98-1.24-.52m6.58-2.99c.15-.35-.12-.62-.4-.57l-.6-2.26c.27-.1.37-.46.07-.7-.36-.15-.65.15-.57.44.05.2.24.31.43.28l.6 2.26a.38.38 0 0 0-.24.45c.07.3.47.42.71.1"/><path d="M25.66 60.4c-.08-.63-.68-.8-1.04-.5l-2.64-2.75c.3-.35.15-.95-.46-1.05-.65.07-.81.73-.47 1.08.23.24.6.25.84.06l2.65 2.74c-.21.24-.2.6.02.84.34.35 1 .22 1.1-.43m-5.8 4.43c-.15.75.48 1.17 1.01.97l2.04 4.22c-.49.3-.55 1.06.13 1.4.78.17 1.22-.53.96-1.08a.77.77 0 0 0-.96-.38L21 65.73c.34-.2.47-.63.3-.99-.26-.54-1.09-.64-1.45.08m-1.27-2.25c-.43-.32-.89-.05-.92.34H14.4c-.04-.4-.5-.66-.92-.34-.34.44-.03.93.39.93.28 0 .5-.22.53-.49h3.26c.02.27.25.49.53.49.42 0 .73-.5.39-.93"/><path d="M20.52 60.46c.79-.21.9-1.01.46-1.43l3.1-3.9c.5.33 1.25.04 1.28-.77-.21-.83-1.09-.92-1.49-.42-.26.33-.22.8.08 1.1l-3.09 3.9a.81.81 0 0 0-1.08.17c-.4.5-.11 1.33.74 1.35m-2.18 6.89c-.43-.33-.9-.05-.93.34H14.1c-.04-.4-.5-.67-.94-.34-.35.45-.03.94.4.94.28 0 .5-.22.54-.5h3.3c.03.28.26.5.54.5.43 0 .75-.5.4-.94m-1.56-6.53c.16.7.87.83 1.25.45l3.37 2.86c-.3.44-.07 1.12.65 1.16.73-.16.84-.93.4-1.3a.72.72 0 0 0-.96.03l-3.37-2.85a.72.72 0 0 0-.12-.97c-.43-.37-1.18-.13-1.22.62m.45-3.84c.48-.64.08-1.31-.5-1.37v-4.84c.58-.06.98-.73.5-1.37-.65-.5-1.38-.05-1.38.58 0 .41.32.75.72.79v4.84a.8.8 0 0 0-.72.79c0 .63.73 1.08 1.38.58"/><path d="M21.51 57.41c.28-.38.04-.78-.3-.82v-2.9c.34-.03.58-.43.3-.81-.4-.3-.83-.03-.83.35 0 .24.2.44.43.47v2.9a.47.47 0 0 0-.43.47c0 .37.44.64.83.34m2.26-9.25c-.4.62 0 1.23.56 1.25l.27 4.52c-.55.08-.88.74-.4 1.3.64.44 1.29-.03 1.25-.61a.74.74 0 0 0-.71-.7l-.27-4.52a.74.74 0 0 0 .63-.78c-.04-.58-.74-.97-1.33-.46m2.26 15.23c.23-.7-.33-1.17-.86-1.05l-1.42-4.25c.5-.22.64-.94.04-1.36-.73-.24-1.23.37-1.04.92.12.37.5.57.86.48l1.43 4.26a.74.74 0 0 0-.4.9c.19.55.96.74 1.39.1m-12.24 8.78c.24-.41-.05-.79-.4-.78l-.35-2.9c.34-.07.53-.5.2-.85-.43-.26-.83.07-.78.45.03.24.24.42.49.41l.34 2.9a.48.48 0 0 0-.37.52c.05.38.51.6.87.25"/><path d="M24.3 55.97c.46 0 .64-.42.46-.72l2.28-1.7c.23.25.7.2.82-.24.01-.5-.46-.67-.76-.45a.47.47 0 0 0-.11.62l-2.29 1.7a.47.47 0 0 0-.62-.06c-.3.22-.26.72.21.85m-3.41 4.68c-.51.55-.2 1.22.34 1.33l-.48 4.53c-.55 0-1 .6-.61 1.23.56.54 1.29.18 1.35-.4a.75.75 0 0 0-.6-.81l.48-4.53c.38 0 .71-.28.75-.67.07-.59-.57-1.09-1.23-.68m3.56-2.29c.6.1.92-.43.74-.85l3.31-1.79c.26.38.87.4 1.13-.16.1-.63-.48-.96-.91-.73-.28.16-.4.5-.27.79l-3.31 1.78a.62.62 0 0 0-.8-.2c-.44.23-.48.9.1 1.16"/><path d="M22.45 63.68c.38-.6-.02-1.18-.55-1.19l-.32-4.34c.52-.09.83-.72.36-1.26-.62-.4-1.24.05-1.2.61a.7.7 0 0 0 .7.66l.32 4.34a.71.71 0 0 0-.59.76c.04.56.72.92 1.28.42"/><path d="M21.5 61.6c.25.43.75.37.93.04l2.82 1.23c-.11.35.18.76.67.64.46-.25.38-.79.01-.95a.5.5 0 0 0-.64.22l-2.83-1.23a.5.5 0 0 0-.27-.62c-.37-.16-.82.15-.7.66m6.79-51c.55.41 1.14.06 1.19-.45h4.22c.05.51.64.86 1.2.45.43-.57.03-1.2-.51-1.2a.7.7 0 0 0-.69.62h-4.22a.7.7 0 0 0-.69-.63c-.55 0-.94.64-.5 1.2m-3.06-4.54c.7.02.98-.62.72-1.07l3.48-2.48c.34.4 1.04.34 1.25-.33.02-.73-.68-1.02-1.13-.7a.7.7 0 0 0-.2.92l-3.48 2.49a.7.7 0 0 0-.93-.12c-.45.32-.41 1.08.29 1.3m4.76 13.62c.38.06.57-.27.46-.53L32.49 18c.16.23.54.24.7-.1.06-.4-.3-.6-.57-.46a.38.38 0 0 0-.16.5l-2.06 1.12a.38.38 0 0 0-.5-.12c-.27.15-.3.56.08.72m-9.37-4.63c.4-.02.54-.4.37-.65l1.9-1.63c.22.21.62.15.71-.25-.02-.43-.44-.56-.69-.35a.41.41 0 0 0-.07.54l-1.9 1.63a.41.41 0 0 0-.55-.02c-.25.2-.19.64.23.73m4.47 7.67c.68-.05.9-.7.6-1.1l3.15-2.76c.37.35 1.04.22 1.18-.45-.05-.71-.76-.92-1.16-.57a.69.69 0 0 0-.1.92l-3.16 2.75a.69.69 0 0 0-.92-.02c-.4.36-.3 1.1.4 1.23M29.7 24c-.3.42-.02.85.36.88l.1 3.17c-.37.05-.62.5-.3.9.45.32.91 0 .9-.4a.52.52 0 0 0-.5-.5l-.1-3.18a.52.52 0 0 0 .45-.53c0-.4-.5-.7-.91-.35m1.24-1.5c.1.67.75.82 1.13.5l2.96 2.87c-.31.39-.14 1.04.53 1.12.7-.1.85-.81.47-1.18a.68.68 0 0 0-.91-.03l-2.96-2.87a.67.67 0 0 0-.05-.9c-.38-.38-1.1-.21-1.17.49m-.54-2.62c-.53.04-.7.54-.46.86l-2.45 2.13c-.28-.27-.8-.18-.91.34.03.55.58.72.9.44.2-.18.24-.49.08-.7L30 20.81c.2.19.5.2.72.02.31-.28.22-.85-.32-.96m-4.78-3.3c-.6-.21-1.04.26-.94.73l-3.77 1.14c-.18-.44-.8-.59-1.18-.07-.24.63.29 1.09.77.94.33-.1.51-.42.45-.75l3.76-1.14c.13.3.46.47.79.37.48-.15.67-.82.12-1.21"/><path d="M31.65 20.12c-.05.68.56.98 1 .75l2.25 3.52c-.4.31-.37 1 .27 1.23.7.06 1.02-.6.73-1.06a.68.68 0 0 0-.89-.24l-2.24-3.52c.27-.21.35-.6.15-.9-.29-.46-1.03-.45-1.27.22m-5.05.78c-.37.15-.37.55-.13.73l-1.24 2.1c-.26-.12-.61.07-.57.47.16.39.6.37.75.1a.4.4 0 0 0-.11-.53l1.24-2.1c.18.08.4.02.51-.16.16-.28-.03-.66-.45-.61m3.06-8.91c.06.63.67.81 1.05.52l2.65 2.86c-.32.35-.18.97.45 1.08.66-.06.84-.73.5-1.1a.64.64 0 0 0-.86-.07l-2.65-2.85a.64.64 0 0 0-.01-.86c-.34-.37-1.02-.24-1.13.42"/><path d="M32.65 19.72c.4-.32.25-.81-.1-.94l.74-3.06c.38.05.73-.31.53-.79-.33-.42-.86-.24-.96.16a.5.5 0 0 0 .33.6l-.74 3.07a.52.52 0 0 0-.58.38c-.1.4.29.8.78.58m-9.5-.52c.58-.08.73-.64.46-.98l2.56-2.51c.33.28.9.14 1-.44-.08-.6-.7-.76-1.03-.43a.59.59 0 0 0-.05.79l-2.56 2.51a.59.59 0 0 0-.79.03c-.33.32-.2.95.41 1.03m10.56 10.35c.55-.39.4-1.03-.05-1.23l1.25-3.87c.48.1.98-.33.76-.96-.4-.58-1.09-.4-1.25.1-.1.33.06.68.37.82l-1.25 3.87a.67.67 0 0 0-.78.44c-.16.5.3 1.06.95.83m-1.24-.6c-.42-.62-1.14-.47-1.37.03l-4.3-1.48c.14-.53-.34-1.1-1.05-.87-.65.43-.46 1.21.1 1.4.36.13.75-.05.91-.4l4.3 1.49c-.1.37.1.75.47.88.56.19 1.18-.31.94-1.05m-6.29-8.27c-.36-.21-.7.04-.7.35l-2.59.28c-.06-.31-.44-.49-.75-.2-.24.38.05.74.38.7a.43.43 0 0 0 .38-.42l2.59-.28c.04.22.24.37.46.34.33-.03.54-.44.23-.77"/><path d="M31.03 29.62c.38-.2.35-.63.07-.8l1.16-2.4c.3.11.66-.13.58-.55-.2-.41-.67-.36-.82-.05-.1.2-.02.45.17.57l-1.16 2.4a.44.44 0 0 0-.55.21c-.15.31.1.71.55.62M23 17.42c-.14.37.14.63.42.58l.65 2.27c-.27.1-.37.47-.06.7.37.16.65-.16.57-.45a.39.39 0 0 0-.44-.27l-.65-2.27a.39.39 0 0 0 .23-.47c-.08-.3-.48-.4-.72-.09m7.7-5.71c-.28-.3-.66-.16-.74.13l-2.43-.45c.03-.3-.27-.56-.64-.38-.31.28-.15.69.17.75.2.03.4-.1.46-.3l2.43.46c-.02.2.12.4.32.43.32.06.62-.26.42-.64m.84-.79c-.15-.36-.55-.35-.72-.11l-2.1-1.2c.12-.27-.07-.62-.47-.57-.38.16-.36.59-.09.75.18.1.4.04.52-.12l2.1 1.2a.4.4 0 0 0 .17.51c.27.16.65-.05.6-.46m1.25 11.1c.32-.22.23-.6-.03-.71l.73-2.28c.28.06.58-.2.45-.57-.23-.33-.64-.23-.74.07-.06.2.04.4.22.48l-.73 2.27a.4.4 0 0 0-.46.27c-.1.3.17.62.56.48m-1.12-9.45c-.15.67.4 1.06.89.9l1.69 3.85c-.45.24-.53.92.07 1.26.7.17 1.11-.45.9-.94a.69.69 0 0 0-.85-.38l-1.7-3.84a.67.67 0 0 0 .3-.87c-.22-.5-.95-.61-1.3.02"/><path d="M33.5 18.38c.15-.59-.34-.94-.77-.8l-1.46-3.4c.4-.23.47-.82-.05-1.13-.62-.15-.99.39-.8.83.13.3.45.43.75.34l1.46 3.4a.6.6 0 0 0-.27.77c.19.44.84.54 1.15-.01M27 15.72c-.27.63.2 1.1.7 1.04l1 4.04c-.47.17-.67.82-.14 1.25.65.29 1.17-.24 1.04-.77a.68.68 0 0 0-.77-.5l-1-4.06a.68.68 0 0 0 .44-.8c-.12-.53-.83-.76-1.27-.2m-7 6.38c-.17.63.34 1.03.8.9l1.44 3.69c-.43.21-.53.85.02 1.2.65.18 1.07-.38.88-.86a.65.65 0 0 0-.78-.39l-1.45-3.7c.3-.14.44-.5.32-.8-.19-.48-.88-.62-1.23-.04m9.75-1.94c-.2.5.17.86.55.8l.8 3.12c-.37.13-.51.63-.1.96.5.22.9-.2.8-.6a.53.53 0 0 0-.6-.39l-.8-3.11c.25-.1.4-.36.34-.63-.1-.4-.65-.58-.99-.15m-7.5-13.14c-.42.58-.04 1.18.48 1.23l.07 4.36c-.53.06-.88.68-.45 1.24.6.45 1.25.03 1.24-.54 0-.37-.3-.67-.66-.7l-.06-4.37a.72.72 0 0 0 .64-.72c-.01-.56-.67-.96-1.26-.5m9.76-2.2c.02.45.45.6.73.41l1.76 2.15c-.23.23-.16.68.28.79.47-.02.63-.49.4-.76a.46.46 0 0 0-.6-.09l-1.77-2.14a.46.46 0 0 0 .03-.62c-.23-.27-.72-.21-.83.25m-1.16 21.07c.02-.46-.4-.65-.69-.5l-1.57-2.32c.26-.21.24-.67-.2-.82-.48-.03-.68.43-.47.73.13.2.4.25.6.14l1.57 2.33a.46.46 0 0 0-.1.61c.21.3.7.29.86-.17"/><path d="M30.59 18.76c.4-.38.2-.89-.19-1l.59-3.3c.4.03.76-.38.51-.87-.39-.42-.94-.2-1.01.23-.05.28.12.55.4.62l-.59 3.3a.55.55 0 0 0-.59.45c-.07.43.37.83.88.57m.18.5c-.12.42.21.68.52.6l.92 2.44c-.28.14-.36.55 0 .78.43.13.7-.24.59-.55a.43.43 0 0 0-.52-.26l-.92-2.44c.2-.1.3-.33.21-.53-.12-.32-.57-.41-.8-.03"/><path d="M31.26 15.45c-.29-.43-.8-.32-.96.03l-3-1.05c.09-.37-.25-.77-.74-.61-.46.3-.33.85.06.98a.5.5 0 0 0 .64-.28l3.01 1.05c-.06.26.08.53.34.62.38.13.83-.22.65-.74m-5.64 4.52c.53-.07.67-.58.43-.89l2.35-2.25c.3.26.81.14.9-.39-.06-.55-.62-.7-.92-.4-.2.2-.22.5-.05.72L25.98 19a.53.53 0 0 0-.72.01c-.3.3-.2.86.36.95"/><path d="M29.07 14.61c-.52-.02-.74.46-.55.8l-2.65 1.82c-.25-.3-.77-.26-.94.23-.02.55.5.78.84.54.23-.15.3-.45.16-.69l2.65-1.82c.17.2.47.25.7.1.34-.24.32-.8-.2-.98m3.25-3.69c.43.1.68-.26.58-.57l2.45-1.1c.16.29.6.33.81-.05.1-.45-.29-.71-.6-.57a.45.45 0 0 0-.24.55l-2.45 1.1a.44.44 0 0 0-.57-.2c-.31.15-.38.62.02.84m-6.8-.4c-.22.4.06.74.4.72l.38 2.7c-.33.08-.5.49-.18.8.4.23.77-.08.72-.43a.45.45 0 0 0-.46-.38l-.38-2.7a.45.45 0 0 0 .33-.5c-.05-.35-.49-.54-.81-.2m4.37 10.8c.32-.44.05-.9-.35-.94v-3.3c.4-.05.67-.51.35-.95-.45-.34-.95-.03-.95.4 0 .28.22.51.5.54v3.31a.54.54 0 0 0-.5.54c0 .43.5.74.95.4M34.72 0c-.73.3-.72 1.08-.25 1.42l-2.43 4.12c-.53-.24-1.2.13-1.12.91.3.76 1.15.73 1.47.2a.8.8 0 0 0-.22-1.03l2.42-4.12c.37.17.8.04 1.01-.31.32-.54-.07-1.3-.88-1.2M22.85 22.08c.26-.68-.27-1.18-.8-1.08l-1.25-4.3c.5-.2.68-.9.1-1.34-.71-.28-1.24.31-1.08.87.1.36.47.58.84.51l1.24 4.29a.73.73 0 0 0-.43.88c.16.56.92.78 1.37.16"/></g></svg>