<svg xmlns="http://www.w3.org/2000/svg" xml:space="preserve" viewBox="0 0 36.814465 95.031403"><g fill="#231f20"><path d="M9.497716 85.6454759c.299756-.40106.04614-.82884-.322307-.86388v-3.05688c.36845-.035.622063-.46282.322307-.86388-.41494-.3185-.872552-.0295-.872552.36636 0 .26124.199837.47323.454489.49752v3.05688c-.254652.0243-.454489.23626-.454489.49751 0 .39586.457612.68486.872552.36637"/><path d="M10.341126 83.5482259c-.611653.33549-.536714 1.02417-.0902 1.2816l-1.764883 3.87462c-.487103-.16757-1.055737.22793-.907594.90933.342429.64322 1.089391.54122 1.318023.0395.150919-.33098.01978-.71538-.288999-.89336l1.764881-3.87497c.336879.11622.712614-.0371.863534-.36811.228634-.50202-.18492-1.13275-.894759-.96865m-4.279849 3.85971c.568982-.11311.682086-.67793.392043-.99364l2.368905-2.63154c.344511.255.89441.0833.947145-.49404-.110327-.59604-.728573-.70186-1.035269-.36116-.202265.22482-.194633.56239.0055.78096l-2.368559 2.63154c-.238347-.17625-.574878-.14884-.777145.076-.306694.34104-.136694.94437.467327.9919m3.336185-7.52061c.213368.74106.974553.82779 1.360697.40869l3.751112 2.84594c-.29941.48503-.01075 1.19452.760144 1.20041.777146-.21301.848962-1.04393.363246-1.41238-.320572-.24321-.767083-.19534-1.034225.0944l-3.751114-2.8456c.207124-.33549.132878-.77818-.187347-1.02139-.486062-.3688-1.266676-.076-1.262513.72997m4.044969 4.74925c-.390307.002-.537409.36082-.386143.60644l-1.901923 1.43669c-.195328-.21268-.580431-.16966-.689371.20538-.0031.40801.392042.55684.63837.37088.162368-.12281.20053-.34659.09576-.51659l1.902269-1.43668c.13496.1471.360817.17174.523185.049.246329-.18596.210941-.60646-.182143-.71505"/><path d="M10.131575 85.0664359c.646003.25881 1.129635-.23558 1.044983-.7428l4.106031-1.09633c.179368.48225.845146.6696 1.276045.12316.278939-.67167-.27339-1.18272-.8049-1.04081-.350755.0936-.564123.43818-.505492.78928l-4.106031 1.09598c-.124204-.33341-.480512-.52596-.831269-.43228-.531858.1419-.75598.86041-.179367 1.3038"/><path d="M18.338435 86.3945159c-.230367-.59048-.860062-.60436-1.144901-.2321l-3.28552-2.04728c.208512-.41981-.08118-.97907-.712961-.92529-.620329.23279-.616511.91834-.190816 1.18375.280675.17485.642531.102.839595-.15543l3.285866 2.04729c-.144328.29004-.0503.64704.230367.82225.425349.26506 1.042901-.0336.97837-.69319m-17.061109-.31848c-.123509.60956.38892.95512.821555.79934l1.623678 3.43366c-.394819.23557-.452756.85105.0968 1.14213.635592.13739.99641-.43055.786165-.87533-.138775-.29317-.476349-.42534-.77541-.31745l-1.623678-3.43401c.27304-.16272.385103-.50723.246328-.80039-.210594-.44477-.878106-.52631-1.175434.052m6.90653-.83197c.35249.29143.754246.0788.803164-.25569l2.789744.13704c.01562.33792.394817.58876.774021.33306.309123-.36429.06627-.79519-.295244-.81288-.238347-.0118-.440961.16132-.474614.39274l-2.789743-.13739c-.01075-.23349-.195326-.42535-.433673-.43714-.361165-.0177-.645657.38718-.373655.78026"/><path d="M.001977 89.6356259c.169653.4715.667165.49543.899613.20713l2.553825 1.68578c-.173471.32751.04371.77541.544002.74592.495081-.17105.506184-.71297.175204-.93118-.217877-.14399-.505492-.094-.666471.10546l-2.553478-1.68578c.120043-.22621.05308-.51034-.165141-.65433-.330981-.21822-.824678.005-.787554.527m16.941414-3.23208c-.452064-.19984-.808024.13877-.760492.50132l-2.942742.67514c-.115531-.34693-.583554-.49681-.903432-.11969-.214757.46976.16445.84688.545736.75946.251183-.0579.411469-.29699.378511-.54783l2.942742-.67479c.0798.23973.328205.38545.579737.32751.38094-.087.558226-.59188.15994-.92112m-5.559364 1.94424c-.694918.27895-.70394 1.02278-.260897 1.3548l-2.380354 3.90412c-.498206-.24182-1.155309.10685-1.084882.85242.282062.72997 1.09182.71748 1.400251.21164.203306-.33341.1131-.76015-.193247-.98948l2.380354-3.9041c.344511.16687.765003.0517.968307-.28172.308432-.50549-.05135-1.23129-.829532-1.14768"/><path d="M12.248948 90.6927559c.505838.0614.754942-.37921.599512-.72233l2.698152-1.54839c.217877.30739.724062.31468.926329-.153.07078-.52769-.416328-.78548-.765697-.58494-.230716.13253-.316409.41632-.209205.65363l-2.698149 1.5484c-.150573-.21268-.439226-.28172-.669595-.14918-.349368.20052-.372614.75077.118653.95581m-8.415716-4.70624c.436449.69458 1.240311.55927 1.511616.0166l4.674319 1.80373c-.163408.58391.341042 1.22436 1.131024 1.00266.732043-.44651.560308-1.31733-.0451-1.55082-.399326-.15404-.841674.0264-1.02937.40176l-4.674319-1.80374c.113103-.40384-.09333-.83474-.492654-.98878-.605408-.23384-1.317677.29594-1.075512 1.11854"/><path d="M6.55983 86.6606159c-.36845-.26749-.754245-.0316-.782001.30358l-2.779334.0368c-.03643-.33479-.428471-.56031-.789287-.2831-.284492.38128-.01631.79414.34347.78929.237307-.003.427777-.18735.447204-.41946l2.779333-.0364c.02498.23141.220308.41043.457961.4073.359777-.005.617206-.4243.322654-.79796m3.529418 4.5463c.761533-.0999.959984-.83682.60437-1.27951l3.359069-3.27234c.43333.36707 1.175086.18804 1.295128-.57071-.09437-.79692-.902044-.99051-1.337106-.5669-.287267.27963-.306001.72649-.06036 1.03249l-3.35907 3.27234c-.299756-.25361-.746616-.24633-1.033882.0333-.434714.42361-.262286 1.23614.531859 1.35132m8.720678-8.90594c-.346593-.28484-.740369-.0753-.787205.25292l-2.736663-.12698c-.01632-.33133-.388918-.57627-.76049-.32439-.302186.35839-.06245.78027.291775.79658.233839.0107.432287-.15925.464552-.3865l2.737009.12698c.01111.22898.192897.41703.426735.42778.354225.0163.632123-.38129.364287-.76639m-6.452734-5.13956c.323696.77852 1.161555.77852 1.529313.27512l4.430073 2.62633c-.265409.56447.136347 1.29964.974901 1.20978.81843-.32786.792756-1.23962.219264-1.57961-.378509-.22448-.857635-.11693-1.111941.23106l-4.430072-2.62634c.18353-.3903.04787-.86214-.330635-1.08661-.573491-.34-1.385676.0749-1.280903.95027m18.127941-45.624356c.515901.385449 1.066148.05898 1.111595-.414593h3.931175c.04545.473573.595697.800042 1.111595.414593.40939-.53394.03781-1.122698-.471491-1.122698-.335836 0-.608532.257083-.640104.584941h-3.931175c-.03157-.327858-.304265-.584941-.640104-.584941-.509306 0-.880879.588758-.471491 1.122698m4.685769 1.3548c-.766735-.21649-1.257656.40453-1.100147.972125l-4.54248 1.744414c-.262981-.527349-1.043248-.660228-1.46825.01387-.236612.798309.454145 1.313861 1.042555 1.088003.388225-.149183.589103-.567246.480163-.959636l4.54283-1.744412c.181449.364635.610961.540879.99884.391697.588409-.225859.756676-1.071003.04649-1.506066m-6.413179 12.469021c-.379552-.10131-.617555.20816-.536022.4871l-2.228742.89129c-.133225-.25847-.51937-.31884-.72441.0166-.111019.39551.233143.64496.521798.52978.19047-.0763.286918-.2838.230368-.4767l2.229089-.89128c.09194.17867.304959.26263.495429.18665.288654-.11553.365674-.5336.01249-.74349m2.623557-.36013c-.168959-.64704-.827452-.73863-1.171268-.38336l-3.193233-2.547231c.270267-.414246.0347-1.035961-.633859-1.057127-.678614.168268-.758063.887127-.344511 1.217068.272694.21787.66092.18561.898573-.06l3.193234 2.54723c-.186654.28657-.131836.67237.140858.8899.413551.32994 1.097024.0926 1.110206-.60645"/><path d="M26.408253 43.2601959c.622759.0486.90482-.50445.696308-.91662l3.224111-2.040001c.28345.364978.903777.347284 1.126861-.236615.05898-.650163-.551287-.940206-.969002-.676184-.275471.174509-.365676.526655-.221695.811839l-3.224112 2.040011c-.196019-.252578-.55302-.321967-.828492-.147802-.417714.264372-.417022.940202.196021 1.165372"/><path d="M30.079917 37.1280349c-.510002.547817-.201919 1.224696.340002 1.336758l-.493002 4.544913c-.553371-.007-.999533.58806-.618942 1.23267.56586.54019 1.293046.18458 1.356882-.40418.04233-.38823-.221-.73586-.595695-.81323l.493348-4.54456c.382673.0045.714003-.278594.755981-.66682.06419-.588408-.570023-1.092166-1.238574-.685551m-13.424487 7.944571c.549899-.0132.747308-.52249.528042-.86492l2.641599-2.07331c.280675.29455.822247.22378.965534-.307391-.0063-.574532-.566552-.77402-.908635-.505489-.225512.176939-.27339.493695-.121776.730306l-2.641599 2.073314c-.193939-.20365-.512778-.23245-.738287-.0555-.342084.26853-.28137.86006.275122 1.00301m5.459097 4.51749c-.01873-.42257-.4139-.5662-.673755-.39204l-1.636864-1.99873c.221695-.22031.158551-.63594-.252223-.73759-.441657.0139-.586331.44824-.374349.70706.139815.1707.384061.20227.563777.0819l1.637209 1.99838c-.153349.15265-.170694.39829-.03088.56898.211982.25882.666125.20261.767084-.22794m10.563276-15.116539c-.56586-.559266-1.295126-.253265-1.431127.31884l-4.812748-.66786c.02465-.587717-.593267-1.080717-1.29027-.696308-.592226.583899-.236958 1.367636.386144 1.45437.411124.0569.788941-.211632.882964-.607144l4.813094.66786c-.01736.406266.273041.767431.684164.824675.623451.08639 1.178556-.57141.767779-1.294433"/><path d="M25.068718 31.6144669c-.351102.242859-.262286.657797.02602.786513l-.831615 2.471945c-.307387-.07147-.629.205388-.495776.610962.249102.370532.698044.261246.805594-.05898.07112-.210937-.03296-.436796-.232102-.52596l.831268-2.471946c.212673.04962.43194-.06765.503062-.278939.10755-.320226-.184225-.678269-.606452-.533594m-3.846868 3.83091c.106856-.386494-.206776-.632128-.49231-.551292l-.889205-2.282863c.265063-.133571.329939-.526654-.0104-.738982-.40245-.117265-.660225.231758-.545388.52735.07598.19498.287266.295244.484327.239388l.889208 2.282863c-.183184.09229-.270613.308777-.194633.503756.114836.29594.540877.378513.758408.01978m6.869756 1.477963c.131143.74939.868735.914534 1.291657.544002l3.380232 3.185948c-.344857.444081-.136348 1.170573.619287 1.256961.784778-.12698.94229-.934307.504452-1.347166-.288653-.272-.731697-.272-1.024167-.01595l-3.37989-3.185602c.238348-.307387.212328-.74939-.07667-1.02139-.437491-.412859-1.234412-.207817-1.314901.583206m.791714-9.643894c-.484673.529431-.183876 1.17578.336533 1.278821l-.436451 4.361379c-.530818-.0021-.953737.572105-.583551 1.186883.546776.513815 1.241349.166876 1.297901-.397942.03713-.372613-.21788-.70394-.577655-.775062l.43645-4.361381c.367064.0013.682432-.272695.719901-.645308.05655-.564816-.555451-1.042552-1.193128-.64739"/><path d="M28.253279 27.6187609c.07771.706716.755635.904473 1.172309.584249l2.963212 3.172068c-.347979.393778-.196715 1.083841.503064 1.209432.739674-.07182.934656-.815654.550594-1.226431-.252919-.270959-.666125-.297328-.954432-.07564l-2.963212-3.172417c.240775-.272345.242511-.686246-.01075-.957205-.383714-.410778-1.139003-.266799-1.260779.465939m.55197 13.686773c-.0444.433329.336533.639411.627268.500983l1.36729 2.282524c-.259164.19116-.25743.62414.146061.78963.452062.052.664738-.36845.487798-.66404-.11692-.19498-.361163-.26402-.56239-.16827l-1.367289-2.282866c.179368-.132185.233836-.3799.116919-.574879-.17694-.295593-.648085-.306696-.815657.116918m.278594 7.436657c-.309469-.43437-.825716-.31571-.981147.0465l-3.100946-.9926c.08361-.3851-.267837-.7813-.771942-.60784-.45796.3178-.313286.87603.08813 1.00474.265063.0847.545042-.0493.652594-.29975l3.100945.99259c-.05794.26645.09229.5381.35735.62276.401408.12871.84341-.24182.655022-.76639m3.606093-13.699615c-.670983-.21545-1.124085.318144-1.002309.824675l-4.067871 1.398861c-.215795-.473919-.901-.615817-1.297552-.03365-.233839.698044.360123 1.175085.887123.993982.347634-.119694.53845-.482593.454144-.833001l4.06787-1.398861c.149183.327858.522837.496817.870471.377122.526654-.181102.701858-.922511.08813-1.329125"/><path d="M22.461466 35.6212749c.241819.651207.931187.677573 1.249678.274776l3.562378 2.300557c-.23592.455879.07147 1.073433.764308 1.026247.683472-.244244.691103-.995022.23002-1.293043-.304613-.196715-.702207-.123163-.922166.155428l-3.562378-2.300903c.163063-.315022.06661-.707757-.237999-.904471-.461082-.297675-1.142473.01803-1.083841.741409m7.919942 9.539451c-.33792-.65398-1.067188-.59361-1.350637-.12871l-4.044278-1.96576c.190125-.51-.212672-1.120964-.935696-.982189-.688327.344169-.600204 1.135879-.07667 1.390539.345552.16792.75494.0396.95096-.28172l4.043931 1.96576c-.131491.35249.02082.75355.366368.92148.523533.25465 1.200412-.16549 1.046024-.9194m1.638596-14.929854c-.672024.17347-.76882.856248-.401061 1.213941l-2.651662 3.304256c-.428818-.281368-1.074126-.03921-1.098064.654328.172429.704287.918002.788941 1.261127.361165.226549-.282411.194633-.685208-.05968-.932575l2.651662-3.304254c.296633.194632.696653.138774.923206-.143634.34347-.427776.09922-1.137269-.625532-1.153227"/><path d="M28.808035 38.8814669c-.14849-.401408-.573491-.418061-.769859-.170346l-2.193352-1.421413c.145714-.280675-.04302-.661615-.470105-.633164-.421532.149878-.427082.612694-.142938.796573.187347.12143.432635.07667.568633-.09472l2.193006 1.421413c-.100959.194285-.04163.436103.145715.557531.284144.184225.704289-.0097.6689-.455879"/><path d="M30.998614 39.0143459c-.266799-.399328-.734818-.306696-.884696.01527l-2.764416-.978719c.08604-.344512-.219613-.71088-.678268-.568287-.420837.273389-.306001.779922.05204.906902.23592.08361.491962-.02949.595348-.251879l2.764763.97837c-.05968.238349.06835.487104.304267.57037.358042.12698.766043-.194633.610961-.672023m-2.406375 3.230006c-.261245-.390659-.719205-.299414-.865615.0156l-2.706125-.954427c.08361-.337226-.215796-.695268-.664389-.555102-.411472.267836-.298716.763266.05204.887123.231062.08153.481205-.02914.58251-.247366l2.706129.954432c-.05794.23314.06731.47635.298716.55788.350409.12386.749044-.19117.596737-.65815m-5.49171-8.348756c.509309-.333757.397247-.928064-.009-1.121657l1.27188-3.493336c.435755.113104.903777-.270266.728225-.853125-.341735-.536713-.985308-.396898-1.150105.05552-.108591.298366.03157.623797.312594.757717l-1.27188 3.493335c-.301146-.07806-.617902.08118-.726493.379553-.164798.452408.238.973166.844797.782001m9.194565-3.389952c-.273736.442694.02811.862839.413205.865962l.279288 3.167559c-.378513.07008-.602288.536716-.255001.924596.459001.292122.906899-.04892.870817-.45935-.02394-.270613-.250489-.472184-.516593-.474265l-.279285-3.167562c.261592-.04857.449634-.286571.425696-.557184-.03608-.410083-.537063-.66786-.938127-.299756m-15.507154 45.43489c-.04163-.78513-.777838-1.04603-1.257655-.71852l-3.072499-3.68797c.408696-.41285.284838-1.18411-.479818-1.36694-.82086.0329-1.082451.84202-.684512 1.31976.262286.31502.716779.36984 1.0488.14328l3.072498 3.68797c-.282757.28588-.310859.74246-.04823 1.05782.397939.47739 1.240657.36602 1.42141-.4354"/><path d="M16.602349 76.8567959c-.115185-.36879-.497512-.40349-.685901-.18943l-1.911289-1.38186c.144673-.24632-.0084-.59847-.394471-.59257-.386493.11553-.412859.53255-.165491.71157.16341.11797.386145.0888.516939-.0593l1.910944 1.38221c-.09992.17034-.05794.39134.105471.5093.247367.17903.635247.0236.623798-.3799m-5.149628 1.79542c.402105.16306.704983-.14363.653634-.46039l2.562498-.67202c.110675.30079.524921.41945.795185.0802.175553-.41807-.167223-.73829-.499244-.65121-.218921.0576-.352492.27165-.317104.49058l-2.562497.67237c-.07633-.20817-.298369-.32925-.517287-.27166-.331676.087-.473227.53429-.115185.81219"/><path d="M19.807377 75.6060859c-.375735-.28068-.776452-.0431-.809409.30218h-2.863294c-.03331-.34521-.434021-.58286-.809757-.30218-.298023.38891-.02741.81773.34347.81773.244593 0 .443389-.18735.466287-.42604h2.863294c.02289.23869.221695.42604.466288.42604.370877 0 .64149-.42882.343121-.81773m-7.490427-5.27765c-.349023.29837-.208164.73204.114141.8382l-.615817 2.73389c-.336879-.0427-.649819.289-.462818.7081.307388.36845.775064.20227.854859-.15196.05239-.23348-.08361-.46351-.306693-.53671l.616165-2.73424c.232795.0295.454489-.12004.506879-.35352.0798-.35423-.271308-.70499-.706716-.50376m8.211715-3.96448c.359777.20504.685208-.0465.676881-.35249l2.509415-.31052c.06627.29907.443389.46386.742104.17695.219264-.37297-.06453-.71956-.389615-.67931-.214408.0268-.368101.21232-.362205.42395l-2.509761.31017c-.0458-.20643-.240083-.34902-.454492-.32266-.325082.0402-.515898.44548-.212327.75391m1.059903 6.96689c-.618596-.33826-1.165026.10062-1.141087.62137l-4.263196.60715c-.122468-.50688-.769511-.77576-1.269104-.27825-.361859.64219.132184 1.22331.684164 1.14455.364286-.0517.620328-.37261.604023-.73273l4.263197-.60714c.08465.3504.420142.58702.784428.53532.551983-.0788.864228-.77471.337575-1.29027"/><path d="M23.220223 61.6754059c-.312245.41771-.04787.86319.336185.89997v3.18455c-.384062.0368-.64843.4826-.336185.90031.432635.33168.90933.0305.90933-.38163 0-.27234-.208163-.49335-.473572-.51868v-3.18455c.265409-.0254.473572-.24634.473572-.51833 0-.41252-.476695-.71366-.90933-.38164m-6.892305-1.47727c.350064.59535 1.029719.50133 1.271535.0517l3.88746 1.63408c-.15196.48745.256388 1.03874.926676.87186.626921-.35734.504104-1.09424.00078-1.30588-.332368-.13947-.708798.00098-.876023.31224l-3.887807-1.63373c.105124-.33722-.05759-.70498-.389961-.84446-.503408-.21163-1.115758.21615-.932574.91419m3.281618-9.99949c.0041.38579.359777.52873.601592.37816l1.430086 1.87104c-.208855.19395-.1641.57454.206778.67966.403143.00078.548165-.39031.362899-.63247-.122124-.15994-.343818-.19637-.511041-.0919l-1.430086-1.87105c.144673-.13426.167571-.35769.04545-.51728-.185266-.24251-.600553-.20505-.705675.18388"/><path d="M18.697518 56.1115359c-.556144.14155-.638368.70533-.33549 1.00231l-2.203068 2.72347c-.353533-.23383-.888165-.0357-.910022.53742.140161.58285.756327.65536 1.041859.30253.18804-.23245.162714-.56552-.04649-.7709l2.203069-2.72348c.244592.16168.575573.11692.763612-.11588.285534-.35249.0857-.93986-.513469-.95547m8.160369-8.11631c-.311552.67168.18596 1.2136.730309 1.15254l.930838 4.42521c-.522492.16341-.759449.86007-.203652 1.34925.698041.33445 1.272921-.22343 1.152187-.79623-.07945-.37816-.433675-.62449-.809758-.58216l-.931187-4.42522c.361165-.1131.585982-.48086.506533-.85902-.120388-.57314-.871165-.85208-1.37527-.26437m-8.361247 16.76067c-.09783.46732.293165.73516.625878.61789l1.227474 2.64298c-.304268.17868-.351796.65052.06835.87672.486757.10895.766737-.32508.607492-.66716-.104776-.22586-.3629-.3289-.592921-.24771l-1.227471-2.64334c.210591-.1235.29802-.38719.193246-.61305-.158899-.34243-.670982-.40834-.902044.0336m-1.023126 4.23301c-.05794.58355.455533.85901.846186.67166l1.850231 3.06591c-.347982.25813-.343819.84099.199488 1.06164.609229.0684.893372-.49855.653634-.8958-.157855-.26194-.486754-.35353-.757021-.22377l-1.850231-3.06591c.240778-.17867.312941-.51243.154736-.77437-.239387-.39725-.873593-.41008-1.097023.16064"/><path d="M16.961085 73.0612759c.287612.47947.837165.39829 1.029717.0326l3.159232 1.29408c-.119346.39552.215103.83891.756329.69909.505144-.2942.400021-.88955-.009-1.05746-.269918-.11034-.573837.007-.706716.2595l-3.159232-1.29443c.08257-.27339-.05204-.57002-.321959-.68035-.409391-.16757-.901698.18319-.74835.74696m8.039988-17.21585c.152308-.54989-.293857-.89891-.699777-.78442l-1.264249-3.24597c.376431-.18978.469064-.74904-.01491-1.05088-.572451-.16653-.939165.32959-.775411.75008.107899.27721.408002.4198.688677.34035l1.264246 3.24631c-.260551.13115-.385103.43923-.276857.71644.163757.42049.769165.53775 1.078288.0281m-5.358492-.39759c-.436102-.13392-.725104.2151-.642185.54192l-2.622864.93882c-.143633-.30531-.588409-.39169-.840636-.0114-.145715.45415.24286.75806.582512.63664.224123-.0802.344512-.31711.287266-.54297l2.622865-.93881c.09922.21128.342776.31745.566901.23731.339652-.12143.446857-.60299.04614-.86146m.818447-6.03859c.222736.40696.681045.35735.852431.0604l2.576723 1.17509c-.111714.32404.151265.7022.604369.60402.428123-.22759.360471-.72476.02671-.87672-.220305-.10026-.476-.0135-.594308.19186l-2.576717-1.17473c.07737-.22413-.02464-.47427-.244941-.57488-.333409-.15196-.753205.12281-.644268.595m-7.891837 15.61055c.148143.45831.625186.49717.857981.22725l2.400824 1.70105c-.177286.30877.01769.74626.499247.73377.480859-.14849.508613-.6689.197755-.88921-.20504-.14536-.482939-.10651-.64392.0801l-2.400475-1.7007c.122467-.21371.06695-.48884-.138083-.63421-.31086-.2203-.792409-.0215-.773329.4819m3.818765-4.68125c-.214062.75216.394472 1.2351.951656 1.08141l1.702434 4.46026c-.517982.25673-.650166 1.02242.0104 1.44049.783041.23383 1.290269-.44305 1.069615-1.0207-.145369-.38094-.555105-.57904-.940554-.47288l-1.702086-4.46026c.358042-.17763.53151-.59847.386144-.97975-.220307-.57766-1.049495-.74419-1.477618-.0486"/><path d="M17.074186 57.7320959c-.326122-.50064-.909676-.39239-1.100838.006l-3.42395-1.258c.112063-.42743-.262632-.88748-.835083-.71713-.527349.33376-.392389.96554.05135 1.12859.292471.10756.612348-.0291.744532-.30426l3.42395 1.258c-.07771.29525.07771.6068.370185.71401.443389.16306.955472-.23072.769858-.82676m3.351438 19.09869c-.442349-.33063-.914185-.0506-.953042.35562h-3.371563c-.03886-.40626-.510693-.68625-.953042-.35562-.351103.45762-.03261.96276.404185.96276.287961 0 .521797-.22065.548857-.50167h3.371563c.02706.28102.260896.50167.548858.50167.436798 0 .755288-.50514.404184-.96276m8.144758-28.47681c-.280329.2661-.14294.62484.132877.69978l-.39898 2.32727c-.285184-.0211-.53394.27131-.358387.61582.274427.29629.660919.136.712611-.16515.034-.19879-.09056-.38649-.281367-.43818l.39898-2.32727c.197063.0146.376777-.12074.411124-.31953.05135-.30149-.259164-.58113-.616858-.39274m-5.525709 4.16154c-.454146-.68902-1.259044-.53532-1.52029.0159l-4.738504-1.7111c.151267-.59084-.369837-1.22366-1.159124-.98358-.726146.46525-.534289 1.33676.07945 1.55811.404879.14641.845492-.0448 1.025902-.42604l4.73885 1.7111c-.104777.4087.11206.83717.516938.98358.613737.22169 1.318026-.32647 1.05678-1.14803"/><path d="M14.238994 70.0619859c-.561693.64253-.185958 1.40268.435411 1.51092l-.398288 5.19612c-.630736.0122-1.117839.70636-.66092 1.42696.664043.59535 1.480045.16411 1.53174-.50896.034-.44409-.278247-.83057-.708106-.90551l.398288-5.19612c.436449-.008.803859-.34278.83786-.78686.05169-.67271-.689023-1.22365-1.435985-.73655m6.359405-.22898c-.239734-.52215-.810449-.50133-1.04845-.14919l-3.082212-1.67849c.166877-.391-.125247-.88192-.694226-.7997-.548861.24356-.508961.86388-.109982 1.08106.263674.14364.587022.0586.751818-.18492l3.082214 1.6785c-.115184.27027-.01111.58841.252225.7317.398979.21753.941941-.0854.848613-.67896"/><path d="M18.182312 71.4091459c-.610266.0107-.833002.57453-.592226.95617l-2.946213 2.28182c-.309123-.32855-.910717-.25361-1.073777.33446.0031.63767.623451.86318 1.005083.56793.251532-.19498.306695-.54608.140164-.8101l2.946213-2.28182c.213715.22724.567593.26159.819125.0666.381632-.2956.318491-.9527-.298369-1.11507"/><path d="M15.196202 73.4998059c.626573.29317 1.134839-.16964 1.079675-.67827l4.137257-.85451c.150918.48885.800739.71262 1.25974.19498.315019-.65086-.204-1.19-.740023-1.07933-.353186.0732-.584595.40315-.54643.7546l-4.137605.85486c-.104082-.33827-.447203-.54955-.800736-.47635-.535675.11068-.799003.81115-.251878 1.28402m14.541285-13.54522c-.466982-.61963-1.213249-.42777-1.425576.10478l-4.548032-1.32601c.107205-.56343-.419103-1.12651-1.145596-.85451-.65398.47947-.422572 1.28576.166532 1.45749.388225.11345.790676-.092.937432-.46038l4.548031 1.326c-.07424.38961.154736.77888.543308.89233.588758.17173 1.217412-.38407.923901-1.1397m.582513-4.93973c-.278594-.39828-.750085-.2942-.894412.035l-2.818539-.92806c.07945-.35041-.237999-.71435-.698736-.55961-.419796.28588-.292124.79553.07285.91592.240776.0791.496817-.0406.596736-.26819l2.818539.92807c-.05482.24216.08014.49092.320921.57037.364978.12004.770205-.21441.602634-.69353m-5.944813 2.32449c.262286-.28241.102695-.63074-.176594-.68798l.249451-2.3408c.284839.003.514165-.30392.31745-.6356-.292124-.27755-.666124-.0937-.69839.20956-.02115.20018.11449.37885.307736.41841l-.24945 2.3408c-.197061-.002-.36741.14398-.388571.34382-.03227.30321.294551.56204.638368.35179m-4.038033-2.7828c-.426387.57106-.06522 1.17994.459002 1.23024v4.35202c-.524225.0504-.885389.65919-.459002 1.23025.590839.4531 1.242739.042 1.242739-.5218 0-.37192-.28449-.67376-.647391-.70845v-4.35202c.362901-.0347.647391-.33687.647391-.70844 0-.56378-.6519-.97525-1.242739-.5218m6.585612-2.98334c.143284-.35422-.127328-.62067-.405919-.57522l-.593617-2.25615c.265063-.0975.369492-.46247.07044-.70047-.36845-.15439-.650165.14779-.573145.43992.05066.19289.239388.31051.432288.27928l.593267 2.25615c-.183183.0673-.289696.26298-.239042.45553.07702.29213.471146.41668.715738.10096"/><path d="M25.657821 60.3931159c-.07806-.61928-.675837-.78373-1.037001-.49681l-2.643681-2.74291c.300102-.35041.157859-.95374-.457961-1.05435-.647735.0732-.808716.72858-.466287 1.08384.225858.23419.588758.25153.838206.0534l2.644029 2.7429c-.207472.24217-.203654.60542.0222.83994.34243.35527 1.00335.21857 1.100492-.42604m-5.805333 4.42418c-.146409.75251.488144 1.17405 1.020003.97767l2.033761 4.21741c-.484677.29385-.550248 1.05296.130101 1.40684.784779.1634 1.224004-.54019.960677-1.08627-.173817-.36047-.590839-.52007-.958595-.38407l-2.03376-4.21774c.335143-.20331.469755-.62866.295938-.98913-.263327-.54608-1.08731-.64044-1.448125.0753m-1.274312-2.2506c-.427428-.31918-.883306-.049-.920776.34382h-3.257418c-.03747-.39274-.493348-.663-.920779-.34382-.339307.44235-.03122.93014.390656.93014.278245 0 .504102-.21301.530123-.48432h3.257418c.02602.27131.251879.48432.530124.48432.421877 0 .729959-.48779.390652-.93014"/><path d="M20.520338 60.4566059c.787208-.20851.895799-1.01029.461777-1.42766l3.088807-3.89751c.505489.32716 1.261123.0382 1.28437-.77611-.207472-.82537-1.083147-.91939-1.483167-.41459-.264023.33306-.223431.80524.07667 1.0939l-3.088457 3.89787c-.349716-.22655-.818779-.15786-1.082798.1752-.400024.50445-.108246 1.33572.742796 1.3489m-2.179476 6.88884c-.434367-.32439-.897532-.0496-.935696.34936h-3.309805c-.03816-.39897-.501326-.67375-.935697-.34936-.344857.44964-.03191.94541.396901.94541.282755 0 .51243-.21649.538796-.4923h3.309805c.02637.27581.256042.4923.538799.4923.428817 0 .741757-.49577.396897-.94541m-1.557411-6.52316c.161327.70429.868738.82433 1.25141.45241l3.362541 2.85392c-.304959.43819-.07147 1.1168.649472 1.16156.737941-.15924.847227-.93257.411818-1.30241-.287266-.24355-.707064-.2217-.971779.0357l-3.362541-2.85427c.210941-.30288.16445-.72094-.122816-.96484-.435755-.36949-1.180982-.13601-1.218105.6179m.44998-3.8441c.474268-.63489.07251-1.31247-.510693-1.36832v-4.8412c.583204-.0559.984961-.73343.510693-1.36833-.657449-.50445-1.382554-.0468-1.382554.58008 0 .4139.316756.74974.720247.78825v4.8412c-.403491.0386-.720247.37469-.720247.78824 0 .62693.725105 1.08454 1.382554.58008"/><path d="M21.510852 57.4125559c.283798-.37989.04337-.78512-.305654-.81842v-2.89591c.349022-.0333.589452-.43854.305654-.81843-.393083-.30184-.826757-.0281-.826757.34694 0 .24736.18943.44824.430551.47149v2.89591c-.241121.0229-.430551.22377-.430551.47148 0 .3747.433674.64878.826757.34694m2.2617-9.25531c-.408001.61998.0052 1.2306.55337 1.25003l.270264 4.5227c-.541572.085-.879492.74037-.400366 1.30727.642185.43437 1.293738-.0337 1.259042-.61929-.02324-.38649-.337917-.68277-.716776-.6963l-.270266-4.52271c.374695-.0586.651552-.39031.628654-.77645-.03504-.58598-.73794-.97282-1.323922-.46525m2.255109 15.2369c.229326-.69839-.323694-1.17509-.853125-1.05192l-1.429392-4.25417c.496123-.2217.649124-.9357.0444-1.35342-.726491-.2491-1.228512.36706-1.043247.918.122122.3636.499593.56517.865616.48017l1.429391 4.25418c-.343125.15299-.522145.54192-.400021.90516.185266.55129.957554.73934 1.386371.102m-12.238989 8.77723c.237999-.41424-.05135-.79033-.404187-.78165l-.348674-2.89557c.34486-.0756.536371-.50964.206777-.85555-.429513-.25396-.830228.0718-.785124.44686.02984.24737.243552.42535.487796.41945l.348674 2.89557c-.238694.0524-.403838.27581-.374.52317.0451.37505.511737.59674.868738.24772"/><path d="M24.291921 55.9731059c.466287.00026.644268-.42778.465592-.72233l2.281824-1.70382c.231755.25535.692492.20643.825022-.24078.0066-.48744-.464552-.6682-.760144-.44755-.194979.14572-.241816.41321-.117959.61686l-2.282171 1.70382c-.160286-.17659-.430204-.20781-.625186-.0621-.295244.22065-.256041.72337.213022.8559m-3.414582 4.67744c-.506879.54748-.197756 1.22123.342429 1.33156l-.479469 4.52999c-.551633-.005-.994677.58876-.613737 1.23025.565165.53707 1.28923.18075 1.35133-.40627.04094-.38683-.222041-.73273-.595695-.80871l.479472-4.53034c.381286.004.710879-.27929.751818-.66647.06211-.58668-.571064-1.08662-1.236148-.68001m3.558215-2.28841c.609574.0902.924593-.43506.747309-.85452l3.31015-1.78777c.253961.37815.865616.40279 1.124434-.15613.102-.63594-.478431-.96276-.907248-.731-.282757.15265-.395512.49335-.273041.78339l-3.310154 1.78778c-.175549-.26159-.522142-.35388-.804899-.20122-.428817.23175-.473919.89649.113449 1.15947"/><path d="M22.450017 63.6838459c.382675-.6009-.0229-1.18134-.549553-1.19244l-.324386-4.33847c.519368-.0895.834042-.72337.36602-1.26079-.622757-.40799-1.242044.0507-1.200066.6127.02775.37054.334103.65051.69839.65815l.324044 4.33883c-.358737.0618-.619983.38405-.592575.75459.04233.56204.722677.92355 1.278126.42743"/><path d="M21.498016 61.5917959c.250489.43819.747654.37539.928411.0493l2.82513 1.22816c-.115186.35458.17798.76119.669246.64531.461083-.25569.377818-.79484.01179-.95408-.241121-.10478-.517633-.005-.642531.2203l-2.825129-1.22816c.07944-.24529-.03608-.51521-.277554-.62033-.365673-.1589-.816696.14814-.689368.65953m6.777477-51.002947c.553715.413898 1.144554.06349 1.193473-.445124h4.221217c.04857.508614.639408.859022 1.193125.445124.43992-.573145.04094-1.205268-.505839-1.205268-.360818 0-.653635.276163-.687286.62796h-4.221217c-.034-.351797-.326818-.62796-.687287-.62796-.546778 0-.945759.632123-.506186 1.205268m-3.057579-4.544912c.700123.01561.981492-.620673.722328-1.069267l3.482581-2.482354c.339308.391 1.032493.332714 1.246207-.334452.02569-.731346-.675491-1.018266-1.126512-.696653-.297329.211981-.376777.612001-.197756.922165l-3.482235 2.482354c-.234531-.270267-.638717-.325776-.936042-.113795-.451024.321613-.408351 1.077593.291429 1.292002m4.757236 13.629529c.380594.05309.574186-.275817.461778-.536717l2.055271-1.13137c.160287.23453.541918.247019.700472-.103041.06071-.396898-.303227-.597777-.569329-.45137-.175551.09679-.244246.309818-.16653.48988l-2.055272 1.131716c-.110674-.162367-.327512-.218223-.503062-.121776-.266104.146756-.291084.561351.07667.722678m-9.365291-4.628869c.409042-.02602.541225-.411124.367757-.659534l1.906781-1.622291c.217531.21094.618939.142246.709839-.257429-.02152-.427777-.444779-.55996-.691799-.35006-.162714.138774-.189082.376081-.06904.547816l-1.906434 1.622291c-.150574-.146063-.388921-.158204-.551635-.01943-.24702.2099-.184225.648777.234531.738636m4.468585 7.667028c.683124-.05239.895451-.699084.599858-1.110554l3.150214-2.753316c.368102.347634 1.037696.223777 1.180981-.446162-.0458-.714697-.755981-.925983-1.163982-.569329-.268878.235226-.307388.632124-.103388.916613l-3.149867 2.753663c-.254652-.240776-.653285-.255697-.922512-.02048-.408.356655-.293165 1.088697.408696 1.229556m4.617421 1.290276c-.296634.426735-.0184.861798.365327.88539l.108245 3.172072c-.38094.04996-.629349.502716-.303919.908286.441653.315718.906553-.00026.892677-.411124-.0093-.270958-.224125-.483981-.489534-.500284l-.108245-3.172418c.263676-.03435.463513-.261595.454146-.532553-.01387-.410778-.499247-.694573-.918697-.349369m1.241002-1.501554c.106164.666125.757716.822593 1.137615.499939l2.953153 2.870234c-.3119.389266-.136696 1.035961.532205 1.123043.697349-.101999.847921-.815655.465592-1.187574-.25257-.244941-.644959-.251186-.90794-.02811l-2.953151-2.870234c.21545-.268877.198448-.661266-.05378-.906553-.382676-.371573-1.091474-.200878-1.173698.499247m-.534981-2.616274c-.528387.0392-.693878.539145-.465938.857982l-2.441416 2.124312c-.28449-.269572-.802472-.175204-.914534.342778.03434.553021.583207.717817.899268.442694.208858-.181448.239041-.48849.08153-.709144l2.441762-2.124312c.196367.186653.504798.198796.713307.01736.316064-.275122.228981-.841328-.313981-.951654m-4.780483-3.295244c-.606449-.218919-1.038388.253613-.944023.720941l-3.766376 1.144553c-.181452-.440959-.803512-.593267-1.185493-.0739-.236961.630737.290388 1.086615.778184.938127.321962-.09749.508268-.423267.443043-.746267l3.766378-1.144555c.125591.304613.461776.471491.783389.373654.487798-.148142.672718-.820511.124898-1.212554"/><path d="M31.650859 20.1172309c-.0503.68139.555797.987391 1.00578.757371l2.245047 3.51762c-.397941.311204-.375735.989819.263673 1.230943.711575.06175 1.025902-.607144.735165-1.062676-.191857-.300452-.577655-.397594-.888511-.238694l-2.245396-3.517277c.275471-.21545.349716-.606103.157858-.906899-.290734-.455534-1.029716-.451716-1.273616.219612m-5.051096.782001c-.369142.155431-.367409.553371-.127326.726841l-1.23788 2.1087c-.268532-.124898-.616859.06765-.57245.465591.157509.387531.590144.373655.75043.100614.105815-.180062.05378-.407309-.112062-.527349l1.23788-2.108699c.185614.08604.409391.02082.515205-.159246.160287-.273389-.03851-.657798-.453797-.606452m3.056194-8.912881c.06835.634207.676184.813575 1.050533.527003l2.651313 2.853926c-.313287.35249-.179021.971777.448593 1.086268.663696-.06279.840289-.729615.497165-1.099106-.226553-.243898-.597084-.268531-.856248-.07043l-2.651313-2.85358c.216491-.243897.219267-.615469-.0073-.859021-.34347-.36984-1.02139-.242511-1.132758.414938"/><path d="M32.652476 19.7241479c.397939-.328205.248755-.818777-.111717-.944369l.748003-3.061397c.377471.05482.736206-.31155.534287-.786513-.337918-.42049-.867003-.242856-.963799.153696-.06384.261245.08431.522837.333411.609573l-.747657 3.061396c-.261246-.03781-.513469.12559-.577306.387185-.09679.396552.291081.797959.784778.580429m-9.501987-.522838c.582512-.07806.73239-.642185.459349-.980106l2.562498-2.511494c.332021.279632.899268.140857.989123-.439574-.0739-.609572-.69249-.755981-1.024166-.430551-.218918.214409-.232448.556144-.04371.789982l-2.56215 2.511494c-.230022-.193592-.572102-.186999-.791024.02775-.331673.325082-.197755.946451.410084 1.032493m10.562928 10.344702c.543653-.385102.397592-1.030756-.05447-1.22643l1.252106-3.871156c.480858.106164.977675-.331673.762226-.962063-.395166-.573492-1.093207-.395165-1.255575.10651-.106858.330634.05932.681044.371919.816351l-1.251754 3.871155c-.332714-.0732-.672717.113449-.779921.444085-.162021.501326.29941 1.055041.955473.821551m-1.245166-.596043c-.417718-.615124-1.141433-.465938-1.369372.034l-4.291644-1.481086c.129061-.534286-.348675-1.097718-1.05678-.871165-.648082.428123-.464206 1.211167.09159 1.402679.366369.126631.761188-.05135.919044-.396902l4.291297 1.48074c-.08916.369491.111716.753207.478431.879492.555797.191857 1.183411-.310859.937432-1.047759m-6.286894-8.266876c-.36602-.21753-.70498.03539-.701858.350062l-2.585049.274082c-.06279-.308429-.447204-.484674-.759449-.195326-.232104.379551.05309.740714.387877.705327.221002-.0236.382328-.211632.380247-.429164l2.585046-.274082c.04337.213369.240779.363247.461432.34.334795-.03538.538104-.448593.231754-.770899"/><path d="M31.027757 29.6181749c.386836-.201224.350061-.632469.07459-.800041l1.158432-2.397007c.302186.11206.663351-.127328.580431-.555105-.204695-.407307-.67341-.354225-.823288-.04371-.09922.204694-.02256.446859.167918.562736l-1.158778 2.397008c-.208858-.07737-.446165.01319-.545043.217876-.149878.310513.09957.710534.545738.618247m-8.028188-12.193547c-.13808.360817.140511.624837.421532.573491l.644267 2.268986c-.2661.103735-.364286.47496-.05725.709492.375391.148838.65433-.162021.570718-.456227-.05482-.193592-.248064-.309123-.442348-.273386l-.644268-2.268987c.183877-.07182.287613-.271654.23245-.465595-.08361-.293856-.484327-.411815-.725106-.08777m7.694431-5.714444c-.274776-.296634-.651899-.157859-.733778.129756l-2.42823-.448247c.02602-.29802-.276513-.562042-.639064-.383022-.313981.283104-.151614.689023.163063.747308.207469.03817.405224-.08951.462124-.288306l2.427883.448247c-.01769.205733.121429.395857.328898.434022.314327.05794.61096-.263327.419104-.639758m.840636-.786165c-.157853-.363599-.551978-.3577-.720936-.118311l-2.101761-1.202493c.120735-.267145-.07355-.60992-.466982-.561696-.382326.160286-.363591.588758-.09159.744532.179714.102694.403837.04857.521104-.116918l2.101414 1.202492c-.08327.18492-.01632.405574.163408.508269.272.155774.650858-.0451.595349-.455879m1.25592 11.104498c.319186-.226898.232797-.606449-.03296-.720939l.733083-2.27662c.283103.0621.574533-.195674.447552-.566206-.232797-.336877-.64288-.231408-.73794.06349-.06279.194633.03538.400369.219266.479817l-.733431 2.276621c-.195328-.04303-.395166.06696-.45796.261592-.09506.294898.176592.619634.562388.482245m-1.118186-9.45029c-.154388.669593.401062 1.066493.88331.9069l1.691331 3.840277c-.443389.24806-.525268.92598.07285 1.263901.697694.170347 1.112981-.446167.893714-.943329-.144325-.328207-.512774-.483981-.846532-.373654l-1.690986-3.83993c.306349-.171735.440267-.54886.295592-.877065-.218918-.497165-.954082-.606797-1.299287.0229"/><path d="M33.505948 18.3801039c.141897-.589799-.345207-.94437-.772288-.807676l-1.462005-3.401743c.393083-.215796.470796-.813227-.05447-1.116105-.614432-.155777-.985656.384754-.796227.82537.124899.290735.44894.430899.744186.336184l1.462002 3.40209c-.271653.149183-.392734.480859-.267836.771593.189429.440615.837164.543307 1.146637-.0097m-6.506509-2.66347c-.266101.628655.209554 1.11229.708798 1.038737l.997453 4.047401c-.476003.167223-.672368.816348-.145022 1.249329.653634.286225 1.165371-.245633 1.03631-.76986-.08534-.345898-.419104-.561348-.764308-.510693l-.997799-4.047401c.329593-.115531.524919-.461429.439571-.807327-.129061-.524227-.829532-.757371-1.275003-.200186m-6.989101 6.385772c-.172776.625881.335492 1.023126.797267.891982l1.442229 3.692481c-.428471.21649-.533245.853126.01804 1.196248.651553.188737 1.068229-.376428.881573-.854513-.123162-.315714-.464897-.477387-.784083-.386836l-1.442229-3.692481c.296287-.149878.437839-.500288.314677-.816002-.187002-.478082-.87637-.611307-1.227475-.03088m9.74971-1.937657c-.200878.486756.169305.856595.553716.796573l.796918 3.115173c-.366368.131837-.513469.633859-.103386.964493.505838.21649.897186-.19741.793799-.600902-.06801-.266101-.326818-.430204-.592921-.388571l-.796924-3.115172c.253267-.09125.401755-.359777.333757-.625879-.103042-.403491-.644963-.578349-.984962-.145715m-7.496674-13.145547c-.419451.579042-.04788 1.184453.478776 1.227126l.06453 4.365891c-.525614.05829-.878798.674451-.442695 1.241002.599512.446166 1.247594.0236 1.239268-.541571-.0055-.372963-.295593-.671678-.65988-.701513l-.06453-4.365544c.363594-.04059.644615-.347634.639062-.720594-.0084-.565511-.668206-.968656-1.254532-.504797m9.759761-2.208618c.02152.454492.446512.608185.725451.420145l1.765575 2.144779c-.237998.237307-.168959.684167.273044.792413.47496-.01631.629347-.483636.400715-.761188-.150919-.183184-.413553-.21649-.606451-.08673l-1.765925-2.144435c.164799-.164449.182492-.428817.03158-.612002-.228635-.277552-.716779-.216144-.823983.24702m-1.16433 21.070346c.0222-.45935-.390654-.654329-.689023-.491962l-1.569901-2.326231c.262286-.216144.235571-.672022-.198451-.823288-.479469-.02914-.679306.426042-.476.727187.13392.198796.395165.257429.601593.145366l1.569902 2.325885c-.181449.149532-.224469.413551-.09055.612348.203307.301146.700124.285879.852431-.169305"/><path d="M30.587142 18.7561859c.400023-.376082.207818-.886084-.183185-.994675l.58286-3.300784c.404532.03191.760146-.381635.513123-.871861-.387531-.422918-.937083-.198101-1.012369.229327-.04996.282062.125591.549207.395858.624145l-.582859 3.300785c-.27998-.0222-.536367.168958-.58598.45102-.07564.427431.363591.826759.872552.562043m.179716.510696c-.117959.410429.213714.675145.518328.591879l.923206 2.438292c-.283102.139469-.356307.557532.0038.786859.427428.128715.705327-.240081.585633-.556143-.07876-.208165-.30253-.317105-.513125-.259511l-.923206-2.438293c.195674-.09645.291083-.326122.212327-.534287-.119695-.315717-.572102-.408001-.80698-.0288"/><path d="M31.264369 15.4547089c-.292124-.43194-.799695-.328898-.960676.02152l-3.007622-1.045674c.09125-.374695-.242857-.770901-.740022-.613043-.455185.299407-.327509.848614.0621.984266.256737.08917.53394-.03504.645308-.277203l3.007621 1.046023c-.06315.258818.07702.52839.334103.617551.389613.135656.830574-.216141.659185-.733428m-5.644362 4.511246c.529082-.06488.671327-.575227.427081-.884697l2.350865-2.251986c.298369.257082.814267.137042.902044-.388571-.06072-.554063-.620329-.693186-.924942-.401411-.200879.192206-.216491.50237-.04787.71643l-2.350516 2.251987c-.206776-.17798-.516941-.175553-.717819.01699-.304614.291778-.189429.856594.361165.94125"/><path d="M29.074832 14.6147679c-.525265-.02048-.744533.453797-.555798.79345l-2.645068 1.820044c-.249796-.297674-.770901-.262631-.939513.235226-.02845.54886.494042.772983.836472.537411.226204-.155777.290735-.454837.160286-.689717l2.644722-1.820044c.173122.206082.475654.25257.701512.09714.342429-.235572.320226-.803859-.202613-.973512m3.258112-3.694216c.42951.09645.681388-.261246.577307-.569329l2.45321-1.099105c.160981.283103.595349.332717.809412-.05169.10651-.447552-.290043-.711228-.607839-.568982-.209551.09402-.307737.330635-.23592.544002l-2.45321 1.098752c-.111019-.195674-.353184-.279631-.562735-.185957-.317799.142243-.385103.613734.01978.832306m-6.80453-.399674c-.214063.391347.06349.7369.393084.721982l.384062 2.697457c-.320572.07771-.49092.486755-.175898.803164.406265.22898.77402-.08361.724061-.432981-.03261-.230713-.235571-.392734-.463511-.382327l-.384411-2.697452c.222041-.05343.371572-.265755.338958-.496471-.04996-.349366-.490226-.546776-.816348-.213367m4.368665 10.805785c.324389-.434368.04962-.897532-.349021-.935696v-3.310152c.398634-.03851.67341-.501675.349021-.936043-.449286-.34486-.945065-.03192-.945065.396899 0 .282754.216492.512429.492308.539144v3.310152c-.275816.02637-.492308.256041-.492308.538797 0 .428819.495779.741756.945065.396899M34.716422.0089519c-.722328.302878-.719554 1.081061-.251185 1.421064l-2.426496 4.120949c-.524919-.244592-1.20631.130797-1.120963.90933.307042.758757 1.153574.732391 1.467902.198797.207122-.352143.106163-.796921-.217878-1.031798l2.426496-4.121298c.362899.169307.800739.04197 1.008208-.310164.314327-.533595-.07355-1.286453-.886084-1.18688m-11.864995 22.061897c.257428-.684164-.272348-1.18133-.803512-1.081066l-1.241352-4.288521c.50237-.199143.684513-.90239.101309-1.343003-.711574-.278245-1.236494.31294-1.075862.86839.106164.366368.472878.582859.840288.513472l1.241351 4.288522c-.347288.137734-.541921.516246-.435757.882615.160981.555448.920433.775061 1.373535.159591"/></g></svg>