<svg xmlns="http://www.w3.org/2000/svg" xml:space="preserve" viewBox="0 0 28.588293 132.31139"><g fill="#231f20"><path d="M19.063296 43.34639c-.37608-.0663-.58043.25326-.47808.51659l-2.08233 1.04915c-.15023-.23869-.52874-.26472-.69909.077-.07459.39205.27964.60472.54921.46873.17798-.0895.25361-.29873.18284-.48052l2.08233-1.04914c.10408.16514.3171.22828.49508.13877.26957-.136.30912-.54712-.05-.72059m2.58262-11.64539c.0111-.51728-.45935-.72475-.79067-.53324l-1.83636-2.57082c.28866-.25119.24494-.76327-.24806-.92078-.54018-.0184-.75182.49994-.51382.83265.15682.21962.45241.2779.68139.14572l1.83636 2.57082c-.19949.17382-.24009.47218-.0833.6918.238.33306.79657.30114.95443-.21615m2.23568-26.74211c-.55268.22551-.55684.81844-.20192 1.08141l-1.88076 3.1235c-.39829-.19047-.92078.0906-.86111.68451.22829.58078.87395.56725 1.1175.16272.16063-.26679.0867-.60645-.15856-.78825l1.88077-3.12384c.27512.13183.60992.0382.7709-.22864.24355-.40453-.0465-.98149-.66682-.91141m-7.33778 35.45134c.2439.4257.72753.36429.90309.0468l2.7495 1.19139c-.11207.3452.17381.74036.6512.62692.44825-.24911.36706-.77334.0107-.92772-.23488-.102-.50341-.005-.62484.21476l-2.74915-1.1914c.0774-.23869-.0357-.50133-.27062-.60298-.35596-.15439-.79449.14468-.66994.64218m10.67153-14.06909c.18735-.61548-.306-1.02174-.76673-.90378l-1.3326-3.69457c.42986-.2033.5499-.83091.0128-1.18514-.64046-.204-1.06789.34485-.89511.82364.1138.31536.4479.48467.76639.40314l1.33294 3.69456c-.29733.14085-.44651.48432-.33271.80004.17277.47843.85208.62797 1.21498.0622M15.124487 40.36896c.173468-.34209-.0739-.63178-.356654-.60992l-.40037-2.30715c.273389-.0749.409042-.4309.130451-.69422-.354919-.18597-.662656.0919-.610961.39065.03435.19706.21302.33098.408347.31606l.40037 2.30715c-.189083.0517-.312246.238-.277899.43506.05169.29871.435062.45692.706716.16237M8.77723 13.93561c-.703247.12872-.853125.82329-.501675 1.21811l-2.969111 3.20017c-.420144-.32092-1.101186-.11935-1.177167.59153.125245.73655.885392.87845 1.2698.4642.253614-.27339.250491-.68971.0073-.96276l2.969457-3.20017c.290389.2217.705676.19394.95929-.0795.384408-.41458.185958-1.1619-.557879-1.23163"/><path d="M20.630076 13.98315c.81219.20677 1.31109-.45935 1.12999-1.05159l4.7274-1.95639c.29038.54713 1.11437.66543 1.54284-.0545.22689-.84584-.51313-1.36867-1.12548-1.1154-.40383.16721-.60367.612-.47843 1.02173l-4.7274 1.95639c-.20088-.37851-.65675-.55163-1.06094-.38475-.612.25361-.76604 1.14629-.008 1.58448m-6.434342 21.68476c-.631428.16376-.721634.8056-.375735 1.14144l-2.48964 3.10892c-.403489-.26402-1.00994-.0357-1.031798.61617.163063.66196.86388.74106 1.186188.33826.212674-.26575.182143-.64426-.0569-.87636l2.489294-3.10893c.279285.18249.655367.12976.868043-.136.322305-.40245.09194-1.06927-.589453-1.0835m4.652113-1.46304c.41529-.0274.54817-.41875.37123-.67063l1.93002-1.65143c.22135.21337.62831.14259.71955-.26333-.0229-.43403-.45275-.5669-.70289-.35319-.1648.1412-.19082.38198-.0683.55614l-1.93003 1.65144c-.153-.14745-.39482-.15925-.55961-.018-.25015.21405-.18527.65918.24008.74904"/><path d="M13.032097 48.15774c.368798-.24598.283451-.67826-.01353-.81704l.904126-2.55244c.318144.0795.656411-.20295.524919-.62622-.25257-.38891-.720247-.28275-.837165.0475-.07737.21823.02671.45449.232449.55025l-.904472 2.55279c-.219958-.0552-.449634.0631-.526655.28102-.117263.33062.179716.7074.620329.56411M23.197436 19.4762c.16271.62346.79692.71192 1.12859.3695l3.07597 2.45529c-.26021.39899-.0337.99814.61061 1.01862.65364-.16202.73066-.85487.33237-1.17266-.26298-.2099-.63698-.17902-.86596.0576l-3.07632-2.45529c.18007-.27582.12733-.64739-.13565-.85729-.39829-.3178-1.05678-.0892-1.06961.58424m-9.051662 22.0619c-.360815-.58216-1.032492-.47322-1.261818-.0218l-3.893011-1.52966c.13947-.48676-.278245-1.02417-.938818-.84306-.613389.36915-.474614 1.09667.02984 1.29478.332368.13079.702553-.0177.861104-.32994l3.89301 1.53001c-.09645.33652.07355.69734.406265.82814.504106.1981 1.101187-.24043.903431-.92842m3.997439-33.75307c-.38302.55268-.0222 1.11472.47392 1.14455l.14571 4.10291c-.49265.0649-.81288.65121-.39169 1.17509.57245.40766 1.173-.002 1.15427-.53359-.0125-.35042-.29109-.62554-.63421-.64635l-.14571-4.10256c.34104-.0451.59916-.33931.58667-.68973-.0187-.5315-.64704-.89752-1.18896-.45032m4.4037 37.69847c.43021-.0534.54505-.46871.34625-.71989l1.90921-1.83358c.24286.20886.66231.11067.73308-.3171-.0503-.45034-.50514-.56274-.75251-.32544-.16306.15682-.17555.4087-.0382.58252l-1.90886 1.83392c-.16827-.14467-.42049-.14225-.5839.0146-.24702.2373-.153.69664.2949.76499"/><path d="M8.26688 39.47767c.05794-.43369-.317795-.65226-.614084-.52216L6.351427 36.6227c.265755-.18389.277552-.61825-.122122-.79692-.45241-.0663-.678614.34936-.510001.65154.111019.19915.354224.27582.55892.18596l1.301715 2.33283c-.184225.12733-.246325.37435-.134958.57349.168265.30218.640797.32786.821899-.0919M27.575816 6.28284c-.32266-.561-.96033-.47912-1.19105-.06l-3.62725-1.56643c.14675-.45519-.23107-.97559-.86041-.82537-.5905.32959-.48225 1.02069-.0125 1.22366.31016.13391.66404.005.82363-.2845l3.6276 1.56609c-.1013.31502.0479.66092.3577.79449.46975.20297 1.04741-.1922.88227-.84792M7.387378 43.50047c.438185.28415.865962-.01.87741-.39516l3.181785-.21024c.06211.38094.524919.61546.92182.27616.302879-.45414-.02949-.91071-.441308-.8833-.272002.0177-.479126.24042-.487103.50722l-3.181784.21059c-.04302-.26367-.277553-.45727-.549552-.43922-.41182.0274-.681392.52353-.321268.93395"/><path d="M5.700569.24849c-.478431.68694-.03054 1.38742.587022 1.42593l.170694 5.10694c-.613391.0795-1.013411.80838-.490574 1.46167.711228.50895 1.459923.00077 1.438066-.66092-.01457-.43646-.36047-.77958-.787555-.80629l-.170693-5.10696c.424308-.0552.746266-.42049.731695-.85694-.0222-.66126-.803164-1.11853-1.478655-.56343m17.714737 7.3128c.007-.70117-.63351-.97525-1.07933-.71088l-2.5271-3.45725c.38718-.34452.32057-1.03805-.34972-1.24413-.73274-.017-1.01168.68833-.68451 1.13622.21579.29525.61755.37019.92563.187l2.52746 3.4576c-.26784.23801-.31884.64323-.10269.93883.32716.44754 1.08384.39585 1.29026-.30739M11.635317 6.32688c.421532-.22482.375736-.69701.07217-.87707l1.238921-2.63882c.332367.11866.725105-.1478.629001-.61547-.229327-.44339-.741756-.37921-.902391-.0375-.105815.2255-.01907.48953.190818.61408l-1.239269 2.63917c-.229675-.0822-.48849.0198-.594308.24529-.160285.34173.117613.7768.605062.67029m6.721605-.0395c.24078-.36776-.005-.72892-.32994-.73967l-.16687-2.67977c.32126-.0513.52006-.43991.23557-.77541-.38129-.25638-.76674.0218-.74523.36915.0142.22898.20123.40384.42604.41147l.16653 2.67976c-.22204.035-.38545.23211-.37122.46109.0215.34694.43853.57523.78512.27338m-5.87611 41.93253c-.70533-.27096-1.222617.27304-1.123045.8226l-4.439093 1.25314c-.202615-.52041-.927716-.71365-1.387413-.11414-.292123.73343.315368 1.27985.890247 1.11749.379207-.10721.60541-.48433.53637-.86423l4.439092-1.25349c.140164.36012.530125.56343.90933.45657.574878-.16237.806981-.94576.174512-1.41794m11.49272-24.92693c.49612-.43055.29039-1.05019-.17208-1.19833l.85382-3.91972c.48224.0572.92702-.42015.65502-1.01827-.44339-.52422-1.11125-.28171-1.22192.2262-.0729.33481.1242.66266.44408.76501l-.85382 3.92006c-.33341-.0399-.64912.17626-.72198.5114-.11067.50757.39551 1.00612 1.01688.71365M13.278083 44.87746c-.390656-.476-.976289-.29871-1.127207.1308l-3.651194-.89962c.06627-.45032-.369837-.87949-.937084-.63941-.502715.4021-.292124 1.03388.180754 1.15045.3119.0767.624146-.0996.728228-.39655l3.651193.89961c-.0458.31121.148838.6127.460735.68937.47288.11658.952698-.3452.694575-.93465"/><path d="M20.576306 9.02953c.41598-.19081.39932-.6453.11934-.83508l1.3378-2.45425c.31121.13288.70221-.0996.63733-.55268-.19394-.43749-.68798-.40557-.8611-.0878-.11449.20955-.0468.46733.1471.59847l-1.33815 2.4546c-.2151-.092-.46871-.01-.58286.20053-.17347.31779.0677.75008.54054.67618m-6.802797 32.32681c.557531.17729.932574-.2668.830574-.68694l3.374683-1.16988c.18006.39308.74939.50965 1.07725.0253.19289-.58008-.3015-.97489-.73829-.82328-.28831.0999-.44617.40176-.37574.69214l-3.374681 1.16988c-.124203-.27164-.435062-.41112-.723369-.3112-.437144.15127-.580777.76744-.07043 1.10396M11.391417 8.12016c.763961.005 1.059207-.69421.769165-1.17854l3.753544-2.76754c.37678.42048 1.13172.34485 1.35307-.38615.0153-.79796-.75425-1.09841-1.24031-.74002-.320579.23626-.40003.67376-.19949 1.0089L12.073848 6.824c-.260554-.29039-.701861-.34382-1.022779-.10755-.486063.35838-.42639 1.18237.340348 1.40371m3.744172 39.90571c-.664388-.43228-1.314206.0128-1.332248.59847l-4.829748.31433c-.09367-.57835-.795531-.93535-1.398512-.42049-.460391.68867.04337 1.38221.668898 1.34127.412513-.0267.727187-.36429.739677-.76951l4.829401-.31433c.06488.40002.420491.69388.833348.66716.625532-.0409 1.034922-.79379.489184-1.4169m9.112727-28.37585c.39794.12663.66577-.19013.59327-.49023l2.40914-.83405c.12837.28068.53499.36395.76917.0184.13774-.41425-.21476-.69631-.527-.58806-.20574.0711-.31849.28657-.26819.49405l-2.40949.83439c-.0888-.19429-.31051-.29387-.51625-.22239-.31224.10789-.41494.54747-.0507.78789"/><path d="M28.201686 24.30286c-.70428-.47149-1.40476-.005-1.43216.62102l-5.16663.26888c-.0919-.61963-.83751-1.01063-1.48872-.46906-.50202.72962.0267 1.47796.69596 1.44327.44131-.0232.78235-.37955.80109-.81253l5.16662-.26888c.0638.42847.43993.74765.88123.72476.66925-.035 1.11749-.83405.54261-1.50746M5.603424 12.17315c-.571756.28901-.524573.92391-.122469 1.17405l-1.739903 3.50409c-.442348-.16931-.976983.17659-.861452.80698.294205.60125.983574.53048 1.209085.0767.148492-.2994.04024-.65606-.238001-.82917l1.74025-3.5041c.305655.11727.655716-.0122.804207-.31155.225512-.4538-.134612-1.04568-.791717-.91697m-.413898 8.06012c-.07182-.38822-.455532-.47079-.67341-.27617l-1.770433-1.63824c.176939-.23245.06522-.60853-.327513-.64982-.40696.0697-.484675.48953-.255695.70185.151268.13982.381289.13774.532208.004l1.770085 1.63825c-.122468.16063-.10651.38996.04476.52977.22898.21233.64184.10201.680003-.30911M9.93636 5.8615c-.59639-.44581-1.232677-.0683-1.285063.47947H4.105344c-.05273-.54781-.689023-.92528-1.285412-.47947-.473573.61722-.04371 1.29791.545043 1.29791.388572 0 .70394-.29734.740369-.67619h4.545953c.03608.37885.351796.67619.740022.67619.588755 0 1.018613-.68069.545041-1.29791m4.834259 13.64757c.01907.44999.438877.60403.715735.41945l1.736782 2.13126c-.23696.23384-.1707.67618.2661.78546.4701-.0139.62518-.4753.40037-.75146-.14849-.1818-.40835-.21614-.59986-.0885l-1.736432-2.13125c.163756-.16168.182492-.42327.03435-.60541-.225165-.27582-.708452-.21719-.817042.24042m5.837604 22.19166c-.56065.17277-.61582.75286-.29143 1.04082l-2.11147 2.89417c-.37331-.221-.90899.009-.90239.59535.17312.58806.80628.63073 1.07967.25604.18041-.24737.13739-.58633-.0867-.78547l2.11148-2.89383c.25812.15266.59396.0899.77436-.15716.27339-.37504.0396-.96484-.57349-.94992M6.428489 48.11596c.590839.22899 1.025901-.22585.943676-.68694l3.725785-1.03839c.168266.43715.775756.6009 1.162941.0996.247022-.61409-.260551-1.07379-.743145-.93953-.318491.0888-.508961.40454-.452062.72338L7.3399 47.31247c-.116572-.30219-.443043-.47357-.761187-.3851-.482593.1346-.679307.79067-.150224 1.18861m5.882361-6.91485c.379898.052.572104-.27651.45935-.53637l2.047638-1.1338c.160285.23384.541225.24528.698735-.10443.05933-.39586-.303919-.5957-.569328-.44859-.174858.0968-.242857.30911-.164796.48883l-2.047637 1.1338c-.111022-.16167-.327166-.21683-.50237-.12004-.265062.14676-.289001.56066.07841.7206m6.224794 12.77258c-.28796.38545-.0441.79658.30982.83057v2.9379c-.35388.034-.59778.44512-.30982.83057.39898.306.8389.0281.8389-.35214 0-.2512-.19221-.45485-.43714-.47843v-2.9379c.24493-.0236.43714-.22759.43714-.47843 0-.38058-.43992-.65849-.8389-.35214m4.76279-48.74295c-.47739.63872-.0732 1.3201.51382 1.37631v4.86896c-.58703.0563-.99121.73758-.51382 1.37631.66126.50722 1.39019.0468 1.39019-.58356 0-.41598-.31849-.7539-.72407-.79275V6.60707c.40558-.0388.72407-.37677.72407-.79275 0-.6304-.72893-1.09079-1.39019-.58356m-1.42488 28.67457c.43228-.578.0663-1.19486-.4649-1.24586V28.2523c.53116-.051.89718-.66786.4649-1.24621-.59813-.45901-1.25835-.0423-1.25835.52839 0 .37678.2883.68242.65571.71782v4.40717c-.36741.0354-.65571.34104-.65571.71782 0 .57072.66022.98738 1.25835.52804m-9.26364 3.00901c.38094.13149.646695-.16792.58355-.45901l2.344274-.74903c.117264.27373.507576.36359.741406.0354.1426-.3962-.19116-.67653-.49473-.57939-.200188.0638-.313983.26923-.270268.47046l-2.344272.74903c-.08118-.18908-.292819-.29073-.493002-.22655-.303573.0968-.412859.51868-.06695.75911m11.379272-4.68334c.357-.25709.25743-.68243-.042-.80941l.80733-2.56215c.31814.0677.64392-.22377.49855-.63906-.26367-.37643-.72372-.25535-.82849.0767-.0687.21893.0427.44929.24979.53707l-.80769 2.56162c-.21996-.0468-.44339.0781-.51243.29698-.10443.33167.20261.69492.6349.53776"/><path d="M18.789566 57.08763c.75251-.22863.82953-1.00647.3962-1.394l2.84491-3.86977c.49924.29836 1.21845-.007 1.21255-.7938-.22932-.78929-1.07759-.84965-1.44604-.34833-.24321.33064-.18735.78513.11241 1.05331l-2.84526 3.86942c-.3452-.20609-.79553-.1235-1.03873.20712-.36845.50098-.0576 1.29305.76396 1.27605m3.29176-30.01584c.20053-.83057-.48502-1.33086-1.08661-1.13831l-2.05493-4.79436c.55372-.30288.66404-1.14456-.0753-1.57199-.86527-.2203-1.3888.54088-1.1227 1.16156.17555.40973.63178.60784 1.04776.47497l2.05492 4.79401c-.38302.20955-.55371.67653-.37816 1.08627.2661.62102 1.17821.76638 1.615-.0122M4.997667 14.79047c.444084-.12837.49543-.58495.243552-.81601l1.701739-2.25163c.291084.17902.716083.005.718514-.45692-.128369-.4656-.626573-.50758-.846881-.21614-.145368.19255-.116225.46004.05794.61963l-1.701739 2.25199c-.201227-.12386-.466636-.0791-.612002.11345-.220308.29142-.04406.75945.438877.75563m14.920839-3.4184c-.79692.14225-.97039.92737-.57488 1.37631l-3.37884 3.60714c-.47358-.36534-1.245867-.14121-1.335723.66334.137733.83474.99745.99953 1.435293.53255.28865-.30807.28692-.77957.0135-1.09007l3.37885-3.60714c.32751.25257.79796.22343 1.0866-.0847.43784-.46733.21685-1.31421-.62483-1.39748m3.75354 3.02809c.0954.50202.59222.60541.87255.3525l2.30125 2.10592c-.22723.30183-.0798.78755.42847.83821.52563-.0933.62346-.63698.32543-.90968-.1967-.18007-.49404-.17555-.68797-.00078l-2.30125-2.10558c.15716-.20886.13531-.5055-.0614-.6852-.29801-.27305-.83092-.12733-.87706.40452m-2.24921 1.43503c.21024.32335.58702.25397.71088-.003l2.2107.81427c-.0729.27581.16896.57349.5388.46351.34105-.21545.25397-.62345-.0323-.72892-.18908-.0693-.39551.0184-.48121.19636l-2.2107-.81426c.0503-.19081-.05-.39204-.23869-.46143-.28657-.10547-.61721.14849-.49751.53359m.28657 23.99782c-.41217-.74627-1.25384-.65259-1.56713-.10546l-4.743354-2.14409c.203654-.5964-.282409-1.29027-1.114717-1.10639-.785125.42049-.657798 1.33363-.04372 1.61153.405227.18319.874637.0215 1.091473-.35665l4.743358 2.14408c-.14086.41252.0482.87152.45345 1.05436.61409.27789 1.3836-.23003 1.18064-1.09738m-2.84452 18.55705c.2269.56725.83405.57522 1.10501.21406l3.18421 1.9453c-.19776.40592.0864.94263.69457.88573.59604-.22967.58633-.89059.17382-1.14247-.272-.16619-.61998-.0929-.80768.15682l-3.18386-1.9453c.13669-.28067.043-.62414-.22898-.79033-.41252-.25187-1.00474.0413-.93709.67619M14.98745 61.9663c.448247.0205.637676-.38337.47843-.67411l2.267246-1.53902c.21164.25569.65642.22828.80317-.19568.0271-.46802-.41772-.66231-.71123-.46281-.19359.13148-.25049.38648-.14016.58771l-2.267251 1.53868c-.146408-.17659-.404185-.21822-.598122-.0867-.293511.19949-.277208.68451.167917.83196m.12143 39.19829c.666816.49821 1.377696.0763 1.436676-.53602h5.08163c.059.61234.7702 1.03423 1.43667.53602.52943-.69007.0493-1.45125-.60922-1.45125-.43402 0-.78651.33237-.82745.75598h-5.08163c-.0406-.42361-.39343-.75598-.827451-.75598-.658143 0-1.138657.76118-.609225 1.45125M5.21971 78.2444c.734124-.0736.946105-.77507.617898-1.21047l3.321255-3.04301c.404878.36533 1.122349.21511 1.259737-.50966-.06731-.76812-.836819-.97767-1.267024-.58355-.283794.25986-.315019.68833-.08812.98947l-3.321255 3.04266c-.27998-.25221-.709492-.25846-.993289.002-.430205.39412-.288308 1.17889.470798 1.31282m9.561658 17.50857c-.255001-.69631-.99086-.72823-1.33329-.29976l-3.791358-2.4761c.254309-.48537-.07078-1.14664-.810796-1.09981-.731004.25674-.743494 1.05887-.252572 1.37944.32404.21163.749043.13531.985655-.16063l3.791705 2.47576c-.175899.33583-.07494.75563.249101.96691.490922.32092 1.220187-.0128 1.161555-.78581"/><path d="M14.64502 81.74082c.500981-.28692.428472-.85625.05482-1.06267l1.401986-3.23627c.40626.1315.87116-.20503.73759-.76708-.29317-.52734-.91037-.43158-1.09217-.0125-.11969.27652-.005.59293.25327.73552l-1.401985 3.23625c-.281021-.0909-.589795.042-.709838.31849-.181449.41911.170695.93501.756329.78825m-5.49483-17.35983c-.325777.22517-.243206.60993.02428.72927l-.770207 2.29258c-.285184-.0663-.583204.19047-.459347.5669.231062.34312.647044.24182.746963-.0552.06558-.19567-.03088-.40523-.215799-.4878l.770207-2.29258c.197063.0461.400368-.0628.466286-.25847.09957-.29697-.170694-.629-.562388-.49474m7.600759 34.29778c.46872.24181.86943-.0958.84272-.48503l3.17762-.52908c.10061.37678.58945.56655.95443.18561.25917-.48675-.12039-.91279-.5322-.8441-.27131.0451-.45727.28969-.43854.55892l-3.17796.52909c-.0697-.26056-.32474-.4316-.59639-.3865-.41147.0686-.63247.59465-.22968.97109m2.74881-14.25889c.12385.39829.53637.43646.74071.2054l2.06152 1.49565c-.15647.26576.008.64635.42465.64045.41806-.12385.44721-.57418.18007-.76778-.1759-.12801-.41703-.0968-.55788.0628l-2.06152-1.49567c.10824-.18387.0628-.42257-.1131-.55024-.26715-.19394-.6859-.0264-.67445.40938m1.00404-20.93124c.39863-.16619.39828-.59535.14016-.78339l1.34404-2.27072c.28901.13565.66543-.0704.61929-.49995-.16826-.41909-.63524-.40556-.80941-.11171-.11484.19394-.0597.43958.119.56968l-1.34404 2.27037c-.19984-.0936-.44166-.0239-.55649.17-.17382.29386.0392.70984.48745.65572m-9.972439 7.64343c.06974.64426.687287.82572 1.067533.53428l2.695029 2.89521c-.317449.35839-.180756.98705.456571 1.10292.674105-.0645.852779-.74175.503757-1.11679-.230367-.24737-.606798-.27201-.86943-.0704l-2.695376-2.89521c.219613-.24807.222043-.62519-.0084-.87256-.34902-.37469-1.037349-.24494-1.149757.42258M4.90184 79.58766c.479471.40938 1.037696.12524 1.112289-.33515l3.841664.24841c.01457.46594.53151.81947 1.059899.47565.433676-.49578.1079-1.09494-.389611-1.12686-.328208-.0211-.61131.21268-.662657.53082l-3.841663-.24806c-.01007-.32231-.260205-.59084-.588409-.61201-.497858-.0323-.898228.51972-.531512 1.0672m4.595562 12.08217c.5329-.32578.437144-.93882.02671-1.15045l1.416208-3.54157c.443041.12976.935003-.24805.773675-.85138-.333062-.56136-.99745-.43853-1.180983.0201-.120735.30253.01249.6408.296287.7872l-1.416206 3.54122c-.30635-.0899-.63629.0635-.757371.36603-.183184.45865.213022 1.00543.841674.82883m10.02552-11.65474c.59708.44617 1.23372.0684 1.28645-.47981h4.54977c.0524.54815.68937.92598 1.28611.47981.47392-.6179.0437-1.29929-.54539-1.29929-.38858 0-.70429.29768-.74072.67688h-4.54977c-.0364-.3792-.35214-.67688-.74106-.67688-.5891 0-1.01931.68139-.54539 1.29929m2.87856 14.77998c-.0919-.69769-.76743-.87915-1.17301-.55337l-3.00068-3.077c.33619-.39725.17174-1.07691-.52353-1.18619-.73031.0867-.90759.8271-.51902 1.22539.25639.26298.66578.28033.94645.0548l3.00068 3.077c-.23244.27478-.22551.68452.0309.9475.38858.39863 1.13311.24008 1.23823-.48815"/><path d="M23.944396 88.69419c-.0267-.62762-.6127-.84272-.99919-.58495l-2.42337-2.97396c.33028-.32647.238-.94367-.37158-1.09634-.65606.0195-.87255.66336-.55857 1.04881.20713.25395.56968.30184.83682.12351l2.42372 2.97362c-.22829.22586-.25465.59084-.0475.8448.31363.3851.98808.30322 1.1397-.33549m-6.19323-3.83369c-.459.61443-.0704 1.2698.49405 1.32392v4.68265c-.56447.0545-.95305.70949-.49405 1.32392.63594.4878 1.33711.0451 1.33711-.56135 0-.40001-.30635-.7251-.69665-.76257v-4.68265c.3903-.0375.69665-.3622.69665-.76257 0-.60645-.70117-1.04914-1.33711-.56135m2.90008-.65502c.46247.16653.79171-.19429.71955-.55025l2.87162-.87497c.13877.33583.61339.45206.90412.0555.18041-.48086-.22204-.82849-.59396-.71504-.24529.0745-.38753.32334-.33757.56968l-2.87162.87463c-.0958-.2321-.35249-.35943-.59778-.28449-.37192.1131-.51243.62588-.0944.92494m-9.615783-.12178c-.14641-.38301-.553371-.39481-.739328-.15542l-2.115291-1.3385c.136694-.27026-.04823-.63316-.456919-.60124-.402106.14779-.402451.59118-.128716.76431.180756.11448.415286.069.543653-.0968l2.11564 1.33849c-.09472.18701-.03538.41841.145366.53255.273736.17347.674451-.0166.635595-.44339m2.531272-15.06689c-.375736-.0798-.592226.23418-.498552.50236l-2.130212.98184c-.142937-.24528-.522491-.28484-.705675.0527-.08882.39169.259513.6179.535676.49057.181797-.084.265409-.29108.200531-.47669l2.130209-.98184c.09888.16965.311205.24112.493002.15716.275817-.12733.330286-.53914-.02498-.72614m-3.828828.41286c.38094-.13011.406614-.52943.17798-.72025l1.387066-2.0303c.26055.14364.623105-.0253.606103-.42743-.131144-.40001-.566206-.41563-.745919-.15265-.118653.17347-.08188.40488.07598.53672L9.85204 68.66601c-.180062-.0992-.409042-.0493-.527695.12421-.179713.26297-.0066.66265.413551.63941m-.19151-7.09284c.14849.37886.553023.38719.735512.14779l2.111823 1.31178c-.133571.26992.05309.62866.458655.59362.398285-.14988.395163-.59049.121427-.76015-.180408-.11206-.412511-.0649-.538796.10062l-2.112171-1.31179c.09229-.18665.03158-.41563-.148836-.52769-.273388-.17-.669594.0222-.627614.44582m9.83991 8.06773c-.17867-.44061-.65121-.44443-.86111-.16236l-2.48547-1.5019c.1523-.31676-.0708-.73344-.544008-.6866-.462816.18076-.452756.69527-.131143.88955.212675.12837.483291.0701.628311-.12524l2.48548 1.5019c-.10547.21927-.0312.48606.1811.61443.32196.19429.782-.0357.72684-.52978m-7.523393 11.86465c.495776.46663 1.112636.18943 1.217063-.30322l4.13032.46905c-.009.50307.53047.91176 1.11819.56829.49404-.51208.17382-1.17473-.36117-1.23545-.35283-.0402-.66994.19741-.7421.53776l-4.130673-.46868c.0062-.34798-.249796-.65086-.602634-.69076-.534982-.0607-.995716.51347-.629001 1.12304m1.304841 3.78235c-.632472-.47254-1.306577-.0725-1.362433.50861H6.985619c-.05586-.58112-.730307-.98115-1.362432-.50861-.502022.65433-.04649 1.37631.577655 1.37631.411818 0 .746266-.31537.784777-.71678h4.819687c.03851.40141.37296.71678.784779.71678.624142 0 1.079675-.72198.577654-1.37631m9.733057-74.23747c-.0791-.44131-.51382-.53707-.76257-.31781l-1.99942-1.86966c.20227-.26263.0777-.6904-.36775-.73967-.46212.0767-.55337.55303-.29421.79519.1707.15959.4316.1589.60368.007l1.99941 1.87001c-.13981.18145-.12351.442.0472.60159.25916.24217.72822.1197.77367-.34658m-8.223855 1.57752c.512429.3001.983225-.0552.976288-.49405l3.602967-.40349c.0902.42952.62796.67203 1.06129.26611.32057-.53117-.0805-1.03284-.54712-.98046-.30809.0343-.53151.29803-.52666.6016l-3.603315.40315c-.06245-.29698-.338612-.50445-.646695-.47011-.466633.0524-.746614.63005-.316755 1.07725m11.303295 17.4705c.006-.66196-.59916-.91974-1.01965-.66925l-2.39042-3.25984c.36533-.32578.30114-.98011-.33202-1.17336-.69145-.0152-.95374.65086-.64392 1.07308.204.27861.5832.34833.87394.17522l2.39041 3.25949c-.25257.22551-.29975.60784-.0958.88643.30981.42223 1.02382.37227 1.21741-.29177m-2.48027-17.41632c-.41043-.11761-.67515.21441-.59188.51903l-2.43899.92459c-.13982-.28311-.55788-.35631-.78721.004-.12836.42744.24043.70533.5565.58564.20816-.0791.3171-.30288.25951-.51347l2.43899-.92459c.0968.19566.32646.29108.53498.21198.31571-.1197.408-.57246.0281-.80734"/><path d="M18.812456 10.23237c.48988-.38544.32266-.98184-.10894-1.14316l.9867-3.67548c.45415.0763.89754-.35596.66647-.935-.3962-.51694-1.03977-.31711-1.16779.1589-.0843.31397.0878.6335.38614.74522l-.98635 3.67548c-.31433-.0527-.62311.13774-.70741.45172-.12802.476.32924.97143.93118.72232m5.5552 25.75577c-.37538.14571-.38475.54539-.14883.72649l-1.30346 2.08407c-.26645-.13287-.62171.0506-.58841.45172.14711.39412.58252.39239.75113.12247.11137-.17799.0656-.40801-.0975-.53325l1.3038-2.08407c.18388.0919.41077.0326.52214-.14536.16896-.26992-.0201-.66231-.43888-.62207m-8.836553-13.01996c.227943.35492.640453.28138.777493.00099l2.41227.90412c-.0812.30115.18145.62797.58668.51036.374-.2335.28137-.68036-.0309-.79728-.20608-.0774-.43264.0177-.52735.21164l-2.41262-.90447c.0562-.20817-.052-.42882-.25812-.50619-.3126-.11692-.675842.1589-.547475.58077m6.169285 26.53951c.65745-.32682.60853-1.05469.14953-1.34474l2.02196-4.00264c.50584.19741 1.12097-.19463.99399-.918-.33272-.69146-1.12339-.61617-1.38533-.0979-.17278.34209-.0513.75218.2661.9527l-2.02231 4.00231c-.34972-.13636-.75182.009-.9246.3511-.26159.51833.14641 1.19937.90066 1.05712M8.099657 31.07165c-.222389.66648.304265 1.12444.81045 1.00891l1.348207 4.07203c-.47496.20955-.624492.89129-.04823 1.29339.693185.24113 1.175779-.34555 1.000922-.87324-.115185-.34764-.474962-.54227-.825023-.46247l-1.348208-4.07204c.328554-.14468.501326-.51555.386144-.86353-.174511-.52735-.911757-.71019-1.324268-.10305"/><path d="M20.323386 33.30387c-.0382.63698.53151.91488.94888.69458l2.14062 3.25637c-.36776.29559-.33827.92911.26159 1.14664.66508.0486.95061-.58009.67341-1.00162-.18284-.27825-.54435-.36429-.833-.21198l-2.14062-3.25638c.25431-.20435.31849-.57037.13565-.84861-.2772-.42188-.96727-.40905-1.18653.221m-2.09968 15.77986c.38198.45934.94888.28414 1.09251-.13323l3.54642.8514c-.0614.43714.36428.85069.9128.61477.48502-.39274.27755-1.00439-.1818-1.11472-.30322-.0729-.60506.0999-.70429.38893l-3.54641-.85174c.0423-.30219-.1478-.59327-.45103-.66613-.45934-.11033-.92216.34035-.6682.91072m-3.103377-17.89585c.742107.0441 1.065107-.61998.808017-1.1057l3.79032-2.49726c.34486.42811 1.08245.39307 1.33502-.306.0559-.77473-.67653-1.1064-1.16745-.78305-.32369.21337-.42361.63455-.24563.97039l-3.79032 2.49727c-.238344-.29594-.664735-.37053-.988775-.15716-.490572.32335-.47496 1.12721.258818 1.38151m3.198787-19.42133c.71053.01.98982-.63942.72267-1.09182l3.50964-2.55279c.34833.39343 1.05123.32751 1.26148-.35145.0187-.74245-.69527-1.0266-1.14976-.69596-.29976.21787-.37643.62449-.19186.93743l-3.50929 2.55278c-.24078-.27199-.65121-.32438-.95097-.10617-.45449.33064-.40418 1.09738.30809 1.30798m3.34658 2.51322c.47496-.29455.38579-.84237.0177-1.02936l1.24759-3.17451c.3969.11346.83509-.22724.68729-.76604-.3008-.49994-.89441-.38684-1.05608.0243-.10651.27131.0146.57314.26922.70255l-1.24725 3.17485c-.27477-.0788-.56898.06-.67549.33132-.16167.41113.19602.89823.75702.7369M6.14119 15.47605c-.282063-.61201-.950963-.58634-1.229208-.17348l-3.615806-1.96229c.194634-.4583-.148492-1.03319-.815308-.93605-.643226.28658-.595348 1.01342-.126979 1.26772.309123.16758.688327.0673.880533-.21822l3.616151 1.9623c-.134612.3171-.01216.68971.296634.85728.468368.25396 1.103963-.102.993983-.79726m18.090126 8.41433c-.68485.2609-.70636.98877-.27859 1.32149l-2.39596 3.78025c-.48329-.24494-1.13207.085-1.07586.81601.26367.7192 1.05643.72059 1.36659.23106.2047-.32301.12386-.7421-.17208-.97213l2.39597-3.78025c.3341.1693.74765.0638.95235-.25917.31016-.48953-.0295-1.20596-.79242-1.13726m-7.51402 31.21867c-.35249.22447-.28067.63317-.004.76951l-.90308 2.38522c-.298028-.0811-.622414.17763-.506883.57903.229672.37123.672373.28103.789283-.0277.077-.204-.0163-.42847-.20781-.52284l.90308-2.3852c.20608.0563.42466-.0504.50202-.25432.11692-.30877-.15508-.66959-.5728-.54365M15.210012 9.59581c-.338266.22065-.264367.61512.0052.74418l-.84688 2.31686c-.288999-.0752-.599858.17833-.483981.56552.226207.35631.653288.26403.76292-.0361.07251-.19776-.02011-.4139-.206428-.50306l.84688-2.31686c.199838.052.410084-.0531.482253-.2512.10963-.3001-.157171-.646-.559968-.51936m3.425688 14.56279c.49577-.37989.33618-.97906-.094-1.14663l1.03631-3.6682c.45414.0826.90378-.34485.68-.92771-.39031-.52284-1.0377-.33133-1.17162.14398-.0888.31329.0795.6356.37678.75112l-1.03631 3.66854c-.31398-.0572-.62588.12976-.71435.44305-.13426.47495.31711.97698.92321.73585m.11935 10.91057c-.50792.16757-.54782.697-.24702.95339l-1.8714 2.6749c-.34416-.19463-.8278.0243-.81114.55858.16826.5329.74557.56031.98808.21405.15994-.22863.11484-.53671-.0933-.71399l1.87174-2.67491c.23766.13461.54262.0715.70256-.15717.24216-.34624.0184-.87949-.53949-.85485"/><path d="M19.668016 30.20049c.81288-.25222.89163-1.0946.41979-1.51127l3.0555-4.2056c.54192.31953 1.31872-.0152 1.30727-.86665-.25292-.85313-1.17161-.9128-1.56713-.36845-.26124.35943-.1981.85104.12803 1.13934l-3.05516 4.20561c-.37504-.22101-.86214-.12872-1.12304.23037-.39586.54469-.0548 1.39989.83474 1.37665m4.95152-19.80748c-.25569.43228.0434.83127.4146.82676l.32924 3.04786c-.36325.0749-.57037.52874-.22828.89649.44824.2727.87324-.0649.83092-.45935-.0285-.26054-.2505-.45032-.50723-.4472l-.32925-3.04786c.25153-.052.42778-.28484.39968-.5454-.0427-.39481-.53013-.63351-.90968-.2713M5.643323 17.65342c-.199145-.53152-.762574-.55129-1.021738-.22135l-2.916029-1.87104c.191859-.37297-.06106-.87672-.626919-.83648-.557879.20122-.562389.81461-.184571 1.05713.249101.15959.573491.0989.752858-.12907l2.916029 1.87071c-.132532.25812-.05273.57869.196367.73828.377817.24251.933614-.0174.884003-.60818m9.122086 19.54624c-.01111-.5676-.536021-.77334-.890248-.54852l-2.128822-2.73527c.305306-.28796.234184-.84757-.31294-.99745-.593267.004-.801778.58147-.52596.93569.181797.2335.508265.28415.753553.12872l2.128475 2.73493c-.21094.19914-.242164.52839-.06036.76188.275817.35422.886778.29385 1.03631-.27998m3.339289-3.20503c.21267-.56586-.22551-.97664-.66439-.89407l-1.02729-3.54572c.41564-.1648.56621-.74627.084-1.11055-.58841-.23002-1.022425.25881-.889546.71816.08777.30287.390996.4819.694566.42466l1.02694 3.54572c-.28726.1138-.4479.42708-.36012.72996.13323.45935.76119.6408 1.13588.13184m-1.57337 20.22936c.82016.10616 1.2299-.60542.98253-1.16433l4.39885-2.47715c.34937.50133 1.17057.52006 1.50503-.23627.12177-.85556-.66509-1.28021-1.23476-.95929-.37573.21164-.51902.67133-.34764 1.05782l-4.39919 2.47716c-.24182-.34695-.7088-.46283-1.08488-.25119-.56968.32092-.61443 1.21395.18006 1.55325m-1.194163-48.812c.619633.55094 1.361733.19255 1.472063-.41043l5.04554.4316c.006.61304.67654 1.09251 1.38082.65433.58425-.64011.17208-1.43669-.48155-1.49254-.4309-.0368-.80941.26333-.88574.68034l-5.04554-.43158c-.005-.42397-.32647-.78409-.75737-.82086-.65363-.0559-1.195205.65883-.728223 1.38914m2.863293 13.69858c.64947.48536 1.34231.0745 1.39955-.52215h4.95048c.0572.59674.75009 1.00751 1.39956.52215.51555-.67203.0475-1.41344-.59362-1.41344-.42291 0-.76638.32369-.80594.7362h-4.95048c-.0396-.41251-.38337-.7362-.80629-.7362-.64114 0-1.10916.74141-.59326 1.41344m-1.27605 6.62758c.3799.1752.68556-.10651.65017-.41389l2.49831-.53186c.093.29489.48676.42777.76223.11309.18804-.39481-.12803-.71851-.45137-.64947-.21337.0454-.35215.24564-.32751.45797l-2.49832.5322c-.0642-.204-.27234-.33064-.48571-.28518-.3237.069-.48017.49335-.1478.77714m-9.565123-1.14802c-.292815-.72684-1.071002-.73517-1.417594-.27096l-4.08799-2.48443c.251878-.52146-.113798-1.2084-.893717-1.13381-.763268.29629-.748696 1.14352-.219268 1.46513.349023.21233.795187.11727 1.034923-.20331l4.08799 2.48444c-.174163.36047-.05308.80004.296287 1.01237.529431.32196 1.28784-.0555 1.199369-.86943m8.483033 3.07701c.28483-.38129.0437-.7879-.306702-.82155v-2.90597c.350412-.0336.591532-.44026.306702-.82156-.394826-.30287-.829888-.0281-.829888.34833 0 .24807.190123.44998.432285.47323v2.90597c-.242162.0232-.432285.22481-.432285.47322 0 .37609.435062.65086.829888.34833"/><path d="M23.911436 50.97837c.15647-.79415-.51243-1.24031-1.07413-1.03423l-2.13749-4.45609c.51243-.30913.5832-1.11021-.13392-1.48525-.8278-.17417-1.29305.56725-1.01619 1.14455.18249.3806.62206.5499 1.01064.40765l2.13715 4.4561c-.35423.21371-.49717.66266-.31468 1.04324.27686.57732 1.14629.67827 1.52862-.0759m-8.92468-10.84014c-.742105-.0954-1.112288.54886-.88782 1.05436l-3.978703 2.24435c-.316409-.45346-1.059554-.46976-1.361391.21475-.109981.77402.602288 1.15774 1.11784.86701.339652-.19186.469061-.6075.313978-.95721l3.97836-2.24436c.218918.31363.641837.41807.981838.22621.515206-.29039.555103-1.09841-.164102-1.40511m-9.747618-8.43133c.367408.27478.759451.0423.791716-.29524h2.800845c.03261.33757.424654.57002.792064.29524.291775-.38024.02706-.79969-.335839-.79969-.239389 0-.433673.18318-.456225.41667H6.030854c-.0222-.23349-.21649-.41667-.455879-.41667-.362551 0-.627614.41945-.335837.79969M5.017097 7.50654c.631777.43402 1.270494.0198 1.302411-.54574l4.675706-.18596c.07667.56135.746266.92355 1.341615.44096.461778-.65433-.008-1.3371-.613734-1.31316-.399329.0159-.711574.3348-.733432.7258l-4.676052.18596c-.05309-.38823-.389615-.68104-.788941-.66544-.605757.0243-1.020002.74211-.507573 1.35758m20.266479 47.98107c-.0989-.64184-.72545-.79587-1.0932-.4871l-2.82964-2.77933c.30253-.37331.13704-.99711-.50653-1.08454-.67203.0947-.82086.78131-.4545 1.14143.24182.23731.61999.24529.87429.0316l2.8293 2.77934c-.20886.25812-.19429.63628.0475.87359.36636.36012 1.05018.1988 1.13275-.47496"/><path d="M18.680626 47.8108c.40175-.0375.52076-.42014.34312-.65953l1.82837-1.65004c.22031.20122.61305.12212.69111-.27339-.0333-.42014-.45345-.5381-.69041-.32439-.15613.14085-.17521.37504-.052.54053l-1.82872 1.65005c-.1523-.13913-.38718-.14433-.5433-.003-.23696.21372-.16272.64357.25187.7199M8.01852 40.1505c.728225-.31467.717125-1.10292.238694-1.44223l2.413311-4.20247c.534289.24251 1.22088-.14538 1.125474-.93327-.319185-.76535-1.176474-.72962-1.489066-.18527-.206429.35909-.09888.80837.232103 1.04325l-2.413312 4.20213c-.36949-.16757-.811839-.034-1.017921.32508-.312594.54435.08847 1.30311.910717 1.19278m14.680056 2.87023c.0486-.56585-.45206-.8264-.82814-.63975l-1.8308-2.94621c.33375-.25466.32196-.81878-.20678-1.0259-.59084-.0583-.85902.49439-.62206.87602.15647.25153.47635.33618.73655.20712l1.8308 2.94622c-.23106.17624-.29663.50028-.14016.75216.23696.38164.85139.3858 1.06059-.16966M19.249656 7.177c-.38268.12699-.41147.52666-.18423.71956l-1.4058 2.02058c-.25986-.14607-.62449.0202-.61061.42291.12767.40141.56343.42119.74557.15925.12004-.17243.0853-.40488-.0718-.53811l1.4058-2.02092c.17971.10131.40939.0527.52943-.1197.18214-.26193.0125-.66334-.40835-.64357m-5.079543 24.01829c-.368104.16411-.357696.56448-.112408.73379l-1.200413 2.14825c-.272696-.1197-.618939.0811-.565858.48086.166877.38648.60194.36323.757368.085.102695-.18354.04546-.41113-.124203-.52839l1.200064-2.14825c.188734.0829.412511.0125.515206-.17105.155427-.27824-.05309-.66127-.469756-.60021m9.446063-28.44294c-.41043.19499-.38788.64566-.1072.82988l-1.29374 2.45253c-.31051-.12733-.69492.10858-.62449.55718.19845.4309.68798.39308.85555.0752.11068-.20955.0399-.46421-.15404-.59188l1.29374-2.45251c.21475.0881.4649.002.57523-.20712.16757-.31745-.0774-.74315-.54505-.66336M8.859455 7.10082c-.420144-.13601-.704983.1974-.629695.51521l-2.552438.86943c-.134266-.29767-.563429-.38789-.813226-.0236-.147797.43715.223776.73725.55441.6245.217878-.0743.338267-.30149.286226-.52111l2.552088-.86943c.09298.20574.326818.31225.545041.238.330289-.11241.441308-.57696.05759-.833m7.274635 12.31289c.76396-.017 1.03943-.72405.73551-1.20005l3.6734-2.8744c.38892.40939 1.14143.31224 1.34161-.425-.007-.79831-.78512-1.0769-1.26112-.70463-.31364.24562-.3806.68555-.17035 1.01444l-3.67374 2.87441c-.26888-.28311-.71192-.32371-1.02556-.0784-.475655.37226-.392736 1.19451.38025 1.39364m9.13007 108.28167c-.27305-.69254-1.01237-.70593-1.34509-.26754l-3.8656-2.389c.2432-.49329-.0996-1.14867-.84098-1.08309-.72719.27619-.71956 1.08107-.21858 1.39045.33029.20411.7546.11696.98462-.18621l3.86595 2.389c-.16827.34103-.0562.75977.27408.96387.50063.30942 1.224-.0438 1.1456-.81748m-4.46304-13.82621c-.46386.0833-.56412.54053-.33375.80142l-1.96437 2.10142c-.27617-.21233-.72546-.0815-.77715.38684.0808.48572.58112.58112.83543.30912.16792-.17972.16688-.4538.007-.63455l1.96472-2.10141c.19082.1471.46455.12975.63247-.05.25431-.27201.12524-.76501-.36463-.81288M11.4966 124.85845c-.318836.72191.222044 1.28988.800739 1.21401l1.07933 4.69792c-.553716.1842-.792758.93103-.19047 1.44142.750081.34317 1.351675-.26262 1.211859-.87113-.09229-.40145-.474267-.65676-.874288-.6043l-1.079329-4.69766c.382676-.12764.615124-.52418.522837-.92521-.139815-.60865-.945409-.89092-1.470678-.25505m7.127526-5.06602c-.49959-.65501-1.2913-.44581-1.513.12144l-4.838766-1.37666c.109978-.59916-.453106-1.19347-1.222963-.89962-.690758.51347-.439575 1.36834.186999 1.54666.413554.11762.839249-.10338.992595-.49543l4.839115 1.37632c-.076.41459.16965.8264.58321.94401.62657.17833 1.29026-.41632.97281-1.21672m-3.696637-7.48383c.169305.40523.605757.40418.796573.14155l2.308534 1.36278c-.13739.29386.0725.67618.50896.62865.4257-.17138.41147-.646.11241-.82258-.19741-.11658-.44651-.06-.57869.12142l-2.30854-1.36243c.0951-.20331.0239-.44895-.173123-.56516-.299063-.1766-.721636.0402-.666124.49577m3.745907 16.90148c.0746-.77679-.60957-1.14108-1.12894-.88983l-2.474374-4.0714c.462124-.34559.453797-1.12062-.269921-1.41201-.81045-.0885-1.186185.6672-.865962 1.19451.211286.34759.649472.46837 1.008554.29489l2.474373 4.07138c-.31953.23894-.41424.68306-.20296 1.03106.32058.52733 1.16433.54159 1.45923-.2186m4.89769-44.62401c-.31329-.76327-1.13276-.76639-1.49462-.27547l-4.32217-2.58748c.26194-.55094-.12802-1.27153-.94888-1.18757-.80143.31746-.78027 1.20944-.22065 1.54458.36914.221.83855.11796 1.08869-.22169l4.32183 2.58747c-.1811.38094-.0503.84306.31884 1.06406.55996.33515 1.35584-.0677 1.25696-.9239m.66682-11.78276c-.74627.25083-.80074 1.03144-.35562 1.40684l-2.73492 3.95511c-.50827-.2838-1.21915.0427-1.19035.82953.25222.78339 1.10327.81913 1.45749.30705.23349-.33793.16445-.79138-.14328-1.05089l2.73492-3.95511c.35145.19603.7997.10061 1.03354-.2373.35422-.51244.0201-1.29583-.80178-1.25523m-6.65292 15.36804c.45796.0666.69353-.32855.55996-.64323l2.48409-1.3489c.19117.28379.65086.30114.84445-.11935.0756-.47773-.36116-.72233-.68277-.54747-.21233.11518-.29664.37122-.204.58911l-2.48409 1.34856c-.13219-.19603-.39274-.26507-.60507-.14988-.32161.17486-.35457.67445.0874.87116"/><path d="M25.479946 77.73644c-.59569-.44478-1.23094-.068-1.28333.47913h-4.54005c-.0524-.54713-.68764-.92391-1.28333-.47913-.47288.61651-.0437 1.29651.54435 1.29651.38788 0 .7029-.29697.73898-.67548h4.54005c.0361.37851.3511.67548.73898.67548.58807 0 1.01723-.68.54435-1.29651m-3.0607-13.2472c-.38302.0122-.51833.36811-.36359.60576l-1.8308 1.45958c-.19706-.20366-.57454-.15162-.67168.2196.007.40072.39898.53672.63629.34764.15647-.12455.18804-.34555.0812-.51001l1.8308-1.45957c.13635.14121.35874.1596.51521.0347.23731-.18873.19186-.60125-.19741-.6977"/><path d="M8.35535 75.67736c.623451.46594 1.288534.0715 1.343698-.50134h4.75238c.05516.5728.720247.96728 1.343698.50134.49508-.64531.0458-1.35723-.569675-1.35723-.405918 0-.735858.31085-.774023.70706h-4.75238c-.03817-.39621-.368102-.70706-.774022-.70706-.615472 0-1.064758.71192-.569676 1.35723m15.446796-4.47622c-.59292.18179-.65225.79483-.31016 1.09979l-2.23638 3.05515c-.39412-.23418-.96067.008-.95477.62762.18214.62206.85104.66821 1.14073.27235.19082-.2609.14641-.61929-.0902-.82988l2.23638-3.05515c.27234.16202.62761.0961.81843-.16479.28969-.39586.0437-1.01967-.60402-1.00509m-2.57013.71608c.44165-.59084.0677-1.22123-.47531-1.27327v-4.50466c.54296-.052.91696-.68243.47531-1.27362-.61166-.46906-1.28611-.0434-1.28611.54019 0 .38475.29455.69734.66994.73343v4.50466c-.37539.0357-.66994.34833-.66994.73343 0 .58321.67445 1.00925 1.28611.53984"/><path d="M16.757186 65.83884c.33758.30912.74974.11726.81566-.21475l2.78107.27859c-.002.33827.36463.60818.75667.37191.32752-.34832.10617-.79136-.25396-.82745-.23765-.0236-.44859.13878-.49404.36845l-2.78107-.27859c.001-.23383-.17382-.43506-.41147-.45901-.36012-.0361-.66474.35423-.41286.76085m2.6815 2.95628c.16445.57383.75356.64183 1.05331.31779l2.90146 2.20618c-.23211.3754-.009.92495.58771.92981.60194-.16411.65815-.80734.28206-1.09286-.24771-.18874-.59361-.15196-.80038.0722l-2.90181-2.20619c.16063-.25952.10339-.60263-.14433-.79102-.37573-.28554-.98045-.0597-.97802.56413m-7.660777 7.44392c.607147.45381 1.254882.0694 1.308659-.48849h4.629218c.0534.55789.70116.9423 1.30866.48849.48224-.62865.0444-1.32183-.55511-1.32183-.39551 0-.71678.30288-.75355.68867h-4.629218c-.03713-.38579-.358391-.68867-.753902-.68867-.599511 0-1.037002.69318-.554757 1.32183m-.144673-11.36994c.699084.16168 1.113676-.41807.947494-.92182l4.009926-1.76418c.25917.46281.96658.54885 1.31976-.0756.17833-.72857-.46525-1.16224-.98427-.93361-.34277.15057-.50549.53532-.39065.88365l-4.009929 1.76419c-.17937-.32023-.5728-.46005-.915575-.30912-.519369.22828-.634205.99571.02324 1.35653m5.328304 36.1133c.23592-.31606.0361-.65328-.2543-.68104v-2.40918c.29039-.0277.49022-.36498.2543-.68104-.32716-.25084-.68798-.0232-.68798.289 0 .20574.15751.37296.35839.39204v2.40915c-.20088.0195-.35839.18631-.35839.39239 0 .3119.36082.53949.68798.28865M6.834713 74.71286c.440266.0822.683473-.29039.566554-.6002l2.45425-1.20666c.173816.28206.617554.31675.821206-.0822.09194-.459-.320919-.71226-.638715-.55614-.209553.10304-.301144.34729-.220307.56169l-2.454252 1.20667c-.120386-.19499-.369491-.27166-.579041-.16862-.318145.15613-.369491.63802.0503.84549"/><path d="M22.554896 69.58232c-.58181.0316-.77471.57696-.53151.93222l-2.73041 2.27905c-.306-.30288-.87741-.21059-1.01203.35596.025.60819.62415.80178.97803.50653.23314-.19463.27339-.53151.10546-.77714l2.73042-2.2787c.21164.2092.55025.22968.78339.035.35353-.29525.27027-.91939-.32335-1.05296m-4.10464-5.94273c.35631.15057.63039-.11901.58876-.4021l2.295-.56586c.0947.26992.46282.38128.70845.0822.16237-.37053-.13947-.66092-.43645-.58737-.19602.0482-.31849.23766-.28969.43333l-2.29501.56585c-.0652-.18699-.26159-.29767-.45761-.24944-.29733.0736-.42951.47045-.11345.72337m5.38346 25.14342c-.65953.002-.90932.60783-.65502 1.02381l-3.2196 2.41991c-.3289-.36012-.98045-.28865-1.16537.34451-.007.68902.65988.94264 1.0769.62935.27512-.20678.34035-.58529.1641-.8729l3.21995-2.42025c.22725.24909.60923.29178.884.085.41703-.31329.35909-1.02451-.30496-1.20943m-5.42995 3.23798c.42327-.0697.52041-.48467.31363-.72545l1.81589-1.88908c.2484.19706.65953.0833.71261-.34243-.0677-.44339-.52214-.53672-.75737-.29213-.15508.16133-.15751.41113-.0146.57765l-1.81553 1.8891c-.17208-.13601-.42153-.12386-.57661.0375-.23523.24494-.12386.69528.32196.74488m4.65422 19.11814c-.0174-.48884-.47288-.65919-.77507-.4604l-1.87278-2.32727c.25882-.25257.18978-.73377-.28414-.85555-.51104.0122-.68278.51243-.43992.81392.15994.1988.442.238.6512.10027l1.87279 2.32727c-.17903.17485-.20123.45866-.0409.65745.24251.30149.76813.24113.88886-.25569m-5.87264 17.13781c.20122-.74252-.4035-1.21008-.94993-1.05192l-1.730533-4.36766c.506187-.25913.626573-1.0141-.0288-1.41725-.773329-.21996-1.263555.45207-1.039433 1.01758.147797.37324.55337.56312.931188.45376l1.730888 4.36764c-.35007.17901-.51556.59534-.36776.96871.22412.56556 1.04186.71923 1.45437.0291"/><path d="M16.691616 120.58385c-.64635-.25536-1.126858.24008-1.040123.74661l-4.094929 1.11191c-.181452-.48044-.846881-.66474-1.275004-.11765-.275817.67209.277899 1.18029.808368 1.0361.349716-.0947.56135-.43992.501329-.79012l4.094929-1.11222c.12559.33244.48225.52325.83231.42813.53012-.14395.75078-.86249.17312-1.30276m4.00438-2.30125c-.56551.38163-.4309 1.04568.0271 1.25626l-1.37146 3.93254c-.48988-.12008-1.00821.31643-.80282.96696.391.5956 1.10986.42946 1.2875-.0798.11692-.33584-.0451-.69835-.36186-.84445l1.3718-3.93221c.33861.0829.6911-.10027.80837-.4361.17763-.50931-.28172-1.08662-.9586-.86319"/><path d="M17.115226 129.9318c-.0545-.49548-.52977-.63384-.82189-.40943l-2.077479-2.22351c.243898-.27582.137734-.75948-.352838-.84756-.518328.0503-.655024.57174-.385798.85975.177635.19015.466982.20844.668901.053l2.077474 2.22353c-.16861.19083-.16965.48102.008.67099.26923.28799.79866.18703.884-.32674m3.73725-4.20595c-.36533.25598-.26957.68871.0323.82126l-.85173 2.58714c-.32161-.073-.65537.21846-.51347.64142.26228.38516.73031.26822.84063-.067.0729-.22102-.0371-.45614-.24598-.54778l.85139-2.58712c.22239.0503.45068-.0736.52353-.29463.11033-.33514-.19671-.70702-.63663-.55332m-6.86004-10.75514c.352837-.31606.19741-.76015-.137734-.8618l.571755-2.83519c.348329.0361.663697-.31329.460737-.74106-.32543-.37296-.804207-.19048-.878105.17659-.04892.24216.09679.47634.328553.54642l-.57141 2.8352c-.241124-.025-.465941.13461-.514859.37678-.07424.36706.296633.72059.741063.50306m4.61118 6.68833c-.5395-.40317-1.11507-.0618-1.1626.43369h-4.112622c-.04753-.49548-.623105-.83686-1.162595-.43369-.428472.55823-.0399 1.17433.493002 1.17433.351102 0 .636632-.26916.669593-.6119h4.112622c.033.34274.31815.6119.6696.6119.53255 0 .92147-.6161.493-1.17433m.0829-12.60053c-.29837.37816-.0649.79587.28865.83924l-.0763 2.93963c-.35527.025-.60992.42985-.33168.82294.39135.31675.8389.0503.84862-.33064.007-.25118-.18041-.46004-.425-.48987l.0763-2.93963c.24563-.0174.44304-.21614.44963-.46732.01-.38094-.42326-.67029-.83022-.37435m2.73701 14.34013c-.43854.0319-.57593.44612-.38754.71081l-2.02682 1.75828c-.23522-.22415-.66474-.1461-.75841.28311.0278.45835.48259.59576.74523.36806.17312-.15014.19879-.4048.0683-.5876l2.02647-1.75829c.16306.15463.41841.16546.59153.0152.26264-.22794.19082-.69766-.25881-.78953M11.89344 94.76459c.757371-.26576.802472-1.06198.34382-1.43876l2.734924-4.06821c.521798.28275 1.242392-.0597 1.202142-.86145-.26749-.79519-1.135181-.82017-1.489408-.29317-.23349.34764-.157164.80872.159939 1.06927l-2.734927 4.06786c-.360815-.19532-.816694-.0919-1.050532.2557-.354224.527-.0034 1.32115.834042 1.26876m-.598122 8.59648c.379204-.13427.400715-.53325.17-.72129l1.364167-2.04278c.261939.14051.622411-.032.601245-.43368-.135306-.39828-.570368-.40938-.746959-.14468-.116572.17452-.07771.40558.08187.53533l-1.364165 2.04313c-.181103-.0975-.40939-.0447-.525963.12976-.17659.26436.000261.66196.419799.63421"/><path d="M18.874566 88.60398c-.64843-.48468-1.34058-.0743-1.39782.5218h-4.944242c-.05725-.59604-.749042-1.00648-1.397821-.5218-.514856.67168-.04753 1.41205.592921 1.41205.422227 0 .765348-.32335.8049-.73552h4.944242c.0396.41217.38267.73552.80524.73552.64046 0 1.10778-.74037.59258-1.41205m-.6925-8.99996c.75391-.18527.87152-.94749.4649-1.35307l3.01144-3.66229c.47635.32057 1.20145.0579 1.23753-.71747-.18353-.79068-1.01653-.89545-1.40683-.42119-.25709.31294-.22656.76396.0545 1.04428l-3.01144 3.66265c-.32924-.2217-.77749-.16479-1.03492.14815-.38996.47426-.12629 1.27153.68486 1.29894"/><path d="M20.051726 78.07055c-.11588-.62034-.72926-.75044-1.0769-.43923l-2.83415-2.61107c.28206-.37157.10235-.97247-.525612-1.03701-.649817.11277-.772983.78409-.40592 1.12201.242166.22308.609572.21892.850002.004l2.83415 2.61106c-.19498.25708-.1693.62345.0729.84654.36706.33826 1.02624.16062 1.08557-.49613m2.69919 9.71638c-.38649-.14779-.66924.15058-.61408.45138l-2.42997.69006c-.11137-.28484-.50861-.38996-.7598-.0614-.15959.4021.17347.70082.48815.6113.20782-.059.33133-.26574.29316-.47391l2.42997-.68972c.077.19671.29073.30774.4982.24876.31468-.0892.44131-.51833.0944-.77646m-.43374-6.89942c-.37886.0899-.44096.4715-.23869.67654l-1.52481 1.82421c-.23765-.16272-.60228-.034-.62345.35456.0888.39726.50619.45311.7036.21685.13045-.15578.11692-.38199-.0229-.52388l1.5248-1.82421c.16411.11275.38927.0857.51937-.0701.19776-.23627.0687-.63698-.33792-.65399M4.86132 67.20927c.207471.66716.898576.731 1.24031.34382l3.453439 2.50525c-.261941.44512.01353 1.08245.71192 1.07238.700123-.20781.748695-.96171.301489-1.28645-.294898-.21406-.69839-.16201-.935002.10582l-3.45309-2.50525c.181103-.30773.105123-.70741-.189778-.92147-.447203-.32439-1.149064-.0441-1.129288.6859"/><path d="M21.416246 77.74928c.3459-.49231.026-.99745-.41772-1.02729l-.1072-3.67305c.4413-.0552.73135-.578.357-1.04949-.50965-.36811-1.04984-.005-1.03596.47079.009.31398.25708.5617.56377.58217l.10721 3.67305c-.30531.0382-.5381.3001-.52874.61409.0139.47564.57384.80698 1.06164.40973M8.726231 98.88277c.478081.357.988083.0545 1.030062-.38442h3.644254c.04233.43889.552329.74142 1.030411.38442.379552-.49508.03504-1.04082-.437144-1.04082-.311205 0-.564124.23835-.593267.54226H9.756293c-.02914-.30391-.282062-.54226-.593267-.54226-.472184 0-.816695.54574-.436795 1.04082m12.066905-17.50416c.16064-.61582-.34312-.99779-.7938-.86283l-1.46477-3.5995c.41667-.21823.51069-.84342-.0344-1.17197-.64149-.17624-1.04186.38337-.85243.84966.12525.30739.46247.46143.77403.3681l1.46478 3.5995c-.28831.15092-.42188.49648-.29664.80386.18943.46629.867.58702 1.20319.0132m.61478 13.69266c-.56274.41911-.39309 1.09529.0878 1.28993l-1.22192 4.10742c-.50896-.0996-1.02105.37365-.77853 1.03214.4302.59397 1.16085.38857 1.31941-.14328.10408-.35111-.0795-.71574-.41217-.8507l1.22193-4.10707c.35214.069.70567-.136.80975-.48711.15855-.53186-.34104-1.10326-1.02625-.84133"/><path d="M22.292266 82.5766c.26645-.3074.086-.66925-.21025-.71956l.18007-2.47749c.30079-.007.53185-.33861.31259-.68104-.3178-.28276-.70568-.0756-.72927.24528-.0153.21163.13427.39552.33931.4302l-.18041 2.4775c-.20782.005-.38233.1648-.39794.37643-.0232.32092.33063.58217.6859.34868m-10.519212 9.36009c.435062.58425 1.136921.40765 1.33884-.0916l4.263542 1.26667c-.10339.5284.38823 1.05956 1.0717.80768.61616-.44686.40279-1.20527-.14953-1.36902-.36429-.10825-.7428.0826-.88262.42778l-4.263541-1.26668c.07147-.36533-.141551-.73205-.505838-.84028-.55198-.16411-1.144901.35456-.872553 1.06545m5.503502-13.79572c.41876.26853.82468-.0132.8337-.38094l3.02982-.2158c.0611.36291.50307.58425.87915.25883.28657-.43403-.0323-.86736-.42466-.83925-.25881.0184-.45483.2314-.46108.48572l-3.02982.21578c-.0423-.25082-.26645-.43401-.52527-.41562-.39239.0281-.6467.50236-.30184.89128m.0319-6.80903c-.12212.54851.3348.86943.72823.73585l1.40823 3.12905c-.36082.20574-.42327.76049.068 1.03284.57175.13496.90725-.37192.72475-.77714-.12038-.26715-.42257-.39239-.69457-.29976l-1.40857-3.12905c.24944-.14259.3563-.45171.23626-.71886-.18249-.40557-.78443-.49023-1.06233.027"/><path d="M22.567046 68.81524c-.76258-.1877-1.22505.44026-1.05088.99397l-4.41551 1.86897c-.27616-.51035-1.04914-.61547-1.445.0628-.206428.79415.49092 1.27848 1.06268 1.03666.37747-.15959.56134-.57835.44096-.96102l4.41515-1.86897c.19116.35284.61964.51208.99711.35249.57175-.24216.70914-1.08002-.005-1.48489m-6.885372-5.39978c.487102.1249.787552-.27442.679652-.63004l2.8404-1.16954c.17382.32891.6682.40072.92633-.0309.13704-.50758-.3067-.8226-.67445-.67098-.24286.0999-.36325.36671-.28866.61269l-2.84039 1.16953c-.12004-.22723-.39378-.33201-.63629-.23209-.367755.15161-.461429.68763-.0066.9513m-7.953253 8.48095c.47496.0364.689368-.3858.529778-.69979l2.456679-1.5588c.216144.27791.689367.26368.858676-.18144.04441-.49612-.421186-.71678-.739329-.51486-.209899.13322-.278593.40211-.168266.61929l-2.456679 1.5588c-.149532-.19221-.421878-.24459-.631777-.11172-.318146.20192-.316756.71712.150918.88852m9.122783 23.77022c.51729.3407 1.02694-.004 1.04359-.46178l3.77436-.22516c.0708.45207.6179.73378 1.09078.33445.3629-.53602-.0277-1.08002-.5166-1.05087-.32265.0191-.56967.28171-.58112.59811l-3.7747.22517c-.0489-.3126-.32543-.544-.64809-.52457-.48884.0291-.81184.61582-.38822 1.10465m5.24885 3.85797c-.43576.0874-.52145.52042-.29906.76188l-1.81068 2.0192c-.26437-.19464-.68521-.0625-.72476.37989.0853.45623.55892.53637.79345.27512.15474-.17277.14849-.43124-.006-.59812l1.81103-2.01919c.18249.13461.44027.1131.595-.0597.23453-.26124.10339-.72337-.35943-.75911m-7.259791-33.87409c.420491.31398.869083.0479.906201-.33827h3.20538c.0371.38615.48572.65225.90621.33827.3341-.43541.0309-.91557-.38406-.91557-.27409 0-.49647.2099-.52215.47704h-3.20538c-.02567-.26714-.248058-.47704-.522139-.47704-.414941 0-.718165.48016-.384062.91557m1.603551 34.84073c-.31814.21614-.24077.59014.0177.7081l-.764998 2.22042c-.276509-.0666-.567939.18041-.450675.54677.221695.33515.626573.24009.725803-.0475.0652-.18978-.0267-.39377-.20574-.4753l.76535-2.22042c.19116.0461.38927-.0579.45484-.24771.0992-.28727-.16098-.612-.54227-.48433"/><path d="M9.836782 75.04766c.131143-.80768-.559958-1.2358-1.120614-1.00856l-2.310965-4.42973c.50688-.32993.551285-1.14142-.186306-1.49635-.842023-.14745-1.287148.61756-.987738 1.19105.197407.37851.64739.53463 1.035267.37747l2.310967 4.43007c-.350756.22795-.480166.6866-.282411 1.06511.299064.57349 1.180984.64635 1.5418-.12906m13.322484 20.09093c-.11865-.48953-.61304-.56725-.87671-.30461l-2.3696-1.96125c.20886-.30808.0402-.77923-.46282-.80421-.51312.11727-.58286.6578-.27617.91176.20262.16757.49509.14849.67758-.0333l2.3696 1.96125c-.14468.21337-.10859.50445.094.67202.30669.25395.82467.0843.8441-.44166m-8.264796.56413c-.465247.21059-.449634.71782-.137738.93118l-1.507452 2.73111c-.346592-.14988-.784083.10721-.714002.61305.213714.48953.765348.45692.96033.10303.129062-.23314.05482-.52144-.160635-.66889l1.507106-2.73112c.239738.10374.52284.0129.651901-.22064.194981-.35353-.07147-.83752-.59951-.75772m-.352493-18.30108c-.474959-.13391-.778532.25119-.680696.60264l-2.812293 1.08141c-.163062-.32613-.646349-.40834-.909329.01-.146062.49439.281715.81323.646002.67341.240429-.0926.364632-.35145.29698-.59466l2.812293-1.08175c.112758.22586.378858.33479.618941.24251.364287-.14017.468023-.6637.0281-.93293m3.222051-38.22957c.58633-.33584.50202-1.00162.0649-1.24343l1.64207-3.78546c.4753.15404 1.01931-.23939.86353-.89684-.34278-.6172-1.0651-.50549-1.27778-.0152-.14016.32369-.007.69353.29594.86075l-1.64241 3.78546c-.32855-.1065-.69006.0486-.83023.37193-.21267.49022.1988 1.09424.884.92286m.4819-9.60676c.55858.0684.83439-.41806.66301-.79727l2.98264-1.70625c.24008.34001.799.34868 1.02312-.16757.0791-.58285-.45831-.86804-.8448-.64704-.25465.14571-.35006.459-.23175.72129l-2.98265 1.70625c-.16583-.23488-.48432-.31156-.73932-.16584-.38615.221-.41251.82919.12975 1.05643m-3.307374 12.4416c-.104776.40662.228635.65745.525615.5676l.973859 2.37099c-.27443.14467-.33514.55718.0253.77298.42326.11448.68624-.25535.5603-.5624-.0833-.20261-.306-.30357-.51139-.24112l-.973858-2.37098c.189779-.10027.277208-.32855.193938-.53116-.126284-.30705-.573488-.38511-.793796-.006M8.339392 9.27864c-.44443.42361-.225163.99259.213021 1.1109l-.626227 3.69526c-.452756-.0327-.84688.43263-.566901.97872.436453.4701 1.049146.2144 1.13033-.26403.05343-.31572-.144673-.61339-.447898-.69492l.626227-3.6956c.312939.0229.598123-.1929.651554-.50861.08118-.47844-.41286-.92148-.980106-.62172m7.885244 12.21297c.59188-.24216.59535-.87741.2151-1.15878l2.01121-3.34796c.42674.20365.98601-.0979.92182-.73413-.24494-.62206-.93674-.6068-1.19694-.17313-.17208.28624-.0926.64983.17035.84445l-2.01121 3.34798c-.2949-.14086-.653636-.0402-.825371.24598-.260553.43367.05065 1.05123.715041.97559M9.068311 32.90836c-.468368.15056-.508612.63767-.233836.87567l-1.740944 2.44801c-.315023-.18145-.761879.0163-.750085.50827.15092.49126.682086.52075.907595.20365.148836-.20921.109286-.493-.08084-.65745l1.740942-2.448c.217881.12558.498902.0697.64739-.13948.225512-.3171.0236-.80906-.490226-.79067"/><path d="M4.447423 13.92312c.239734.52665.814612.50758 1.05539.15404l3.097824 1.7007c-.168959.39308.123512.88852.696654.80802.553716-.24355.515552-.86839.114145-1.08869-.264715-.14537-.59084-.0607-.757371.18388l-3.098171-1.70105c.116919-.27165.01319-.59258-.251185-.73794-.401408-.22031-.948879.0829-.857287.68104m18.110944 39.03696c.64323-.4864.44201-1.26181-.11206-1.48143l1.36799-4.72948c.58598.10999 1.16988-.43818.88573-1.19278-.49959-.67861-1.3371-.43645-1.51439.17625-.11692.40418.0975.8219.48051.97351l-1.36798 4.72983c-.40488-.0763-.80941.16237-.92633.56656-.17694.61234.4021 1.26459 1.18653.95754m-5.98332-7.54974c.16861-.78618-.48849-1.23997-1.049493-1.04465l-2.049026-4.4606c.513818-.29837.597429-1.09286-.108937-1.47692-.81878-.18665-1.293393.54192-1.027984 1.11958.175204.38128.608879.55683.997104.42152l2.049028 4.46061c-.355268.20643-.504798.64982-.32994 1.03076.265409.57765 1.127208.69249 1.519248-.0503m-5.640892 5.28319c-.0038.38649.349367.53707.594999.39135l1.393312 1.904c-.213368.19013-.176594.5721.192897.68555.403838.009.557187-.37955.376777-.62622-.119-.16271-.340348-.20365-.510001-.10269l-1.393309-1.90435c.147448-.13149.175204-.35458.0562-.51729-.18041-.24668-.59743-.21788-.710879.16965m5.461526 1.17265c.39829.12768.66682-.18873.59466-.48953l2.41366-.83092c.12802.28137.53463.36533.76986.0198.13843-.41425-.21407-.697-.52666-.58945-.20608.0708-.31918.28658-.26922.49404l-2.41366.83127c-.0885-.19464-.31017-.2949-.5166-.22378-.31259.10755-.41632.54747-.052.78859m5.43828-3.49055c-.57419-.29317-1.06164.12177-1.02659.59673l-3.87914.66336c-.12455-.4597-.72267-.68869-1.16641-.22136-.313985.5957.15196 1.11402.65433 1.02798.33167-.0565.55718-.3563.5329-.68485l3.87913-.6637c.0861.31814.39864.52562.73031.46906.50237-.0861.76951-.72961.27547-1.18722m-2.10419-26.89374c.0562.80907.81982 1.06546 1.309.71956l3.23105 3.75042c-.41459.43264-.27373 1.22574.51764 1.40094.84584-.0479 1.10223-.88643.68382-1.37215-.27617-.32056-.74558-.36949-1.08384-.1301l-3.23105-3.75042c.28657-.29906.30773-.7709.0316-1.09112-.41841-.48572-1.28542-.35631-1.45819.47287"/><path d="M19.745036 42.42943c-.26749.54539.13114.99884.57835.95859l.68451 3.64599c-.43159.1249-.63837.69179-.19116 1.10292.56655.28692 1.04775-.16029.95928-.63247-.0586-.31155-.34451-.51972-.65398-.49196l-.68451-3.64599c.29837-.0864.48953-.38406.4309-.69562-.0888-.47218-.69943-.71435-1.12339-.24146m-.084 7.99557c-.62969.35526-.544 1.06857-.0777 1.33017l-1.78292 4.03976c-.50758-.16827-1.09252.2491-.93015.95374.36255.663 1.13623.54816 1.36694.025.15266-.34521.0122-.74211-.31051-.92286l1.78292-4.03977c.35111.11622.73899-.0475.89129-.39239.23106-.52318-.20539-1.17231-.93986-.99363m4.49738-27.53904c.0632-.38233-.26333-.58598-.52908-.47912l-1.08766-2.10142c.24078-.15542.26298-.53984-.0857-.70879-.39864-.0715-.61062.29004-.46976.56238.093.17938.30565.25431.48953.18042l1.08766 2.10141c-.16653.10755-.22829.32439-.13531.50375.14086.27235.55823.30809.73031-.0586M7.072715 9.15686c-.429859-.1634-.743492.16897-.681737.50306l-2.699885.77229c-.124552-.31641-.566552-.43263-.8448-.0666-.17659.4472.194288.77853.544003.67861.230716-.0663.367409-.29628.324736-.52735l2.700231-.77228c.0857.21892.323695.34174.554411.27582.349715-.0999.489185-.57731.103041-.86354m12.148791 8.65025c.55267-.374.42049-1.02347-.0281-1.22921l1.33745-3.8486c.47912.11657.98566-.31121.78409-.94715-.38337-.58251-1.08627-.41875-1.2594.0798-.11414.32855.0448.68313.35458.82537l-1.33711 3.8486c-.33133-.0805-.67584.0992-.79033.42778-.17312.49855.27686 1.06268.93882.84341m7.09665 21.74028c-.48849-.36532-1.00959-.0562-1.05296.39274h-3.72474c-.043-.44894-.56412-.75806-1.05296-.39274-.38788.5055-.0357 1.06338.44651 1.06338.31849 0 .57696-.24355.60645-.55407h3.72475c.0298.31052.28831.55407.60645.55407.48259 0 .83473-.55788.44651-1.06338"/><path d="M24.023146 38.41013c-.59084-.52874-1.30137-.18769-1.40823.38857l-4.82315-.42465c-.005-.58598-.64462-1.04603-1.31907-.62866-.55996.61061-.16757 1.37319.45692 1.42801.41217.0364.77472-.2498.84862-.64809l4.8235.42466c.003.40522.31017.75008.72198.78651.62484.0548 1.14456-.62726.69943-1.32635M15.053717 9.15686c.357347-.23592.277203-.65363-.009-.78894l.885739-2.4598c.3067.0781.63455-.19255.50966-.60229-.24182-.37642-.69388-.27651-.808377.042-.07564.21025.0236.43888.221697.53255l-.885739 2.4598c-.211981-.0541-.434368.0586-.510001.26889-.114837.31849.169999.68381.596043.54781M3.295266 10.9346c.707062.46386 1.401983-.008 1.423492-.63282l5.154482-.31536c.09749.6172.8448 1.00092 1.490108.45448.494043-.73273-.04024-1.47484-.707757-1.4339-.440267.0267-.777492.3858-.79241.81774l-5.154137.31536c-.06765-.42673-.445817-.7421-.886082-.71503-.667515.0406-1.107432.84237-.527696 1.50953"/><path d="M21.731266 44.62521c.50271-.3858.34035-.99364-.0961-1.16329l1.04915-3.72301c.46074.0833.91662-.35076.68937-.94194-.39655-.53013-1.05331-.33549-1.18896.14675-.0899.31815.0808.64496.38302.76222l-1.04915 3.72302c-.31883-.0576-.6349.13218-.72475.45033-.13566.48224.32265.9912.93743.74592m-3.97385-38.81805c-.55857.18804-.59882.77194-.26541 1.05261l-2.043821 2.96079c-.380594-.21233-.912453.0323-.89025.62102.189084.58598.825719.61235 1.090434.22898.174507-.25292.122817-.59223-.107552-.78616l2.043819-2.96079c.26298.14676.59847.0749.77298-.17798.26472-.38337.0146-.96935-.6002-.93847M1.757259 12.35877c.440266-.0191.590144-.43055.409042-.70117l2.083027-1.70278c.229328.23106.66231.16584.768473-.26159-.01423-.46039-.466287-.61131-.735858-.39065-.17798.14536-.211287.39967-.08604.58702l-2.082679 1.70278c-.158551-.15994-.414593-.17798-.592573-.0326-.269571.22065-.211634.69354.236613.799m18.493622 17.22798c.23765.41877.71261.36048.88573.0496l2.69295 1.17994c-.11102.33827.16792.72684.63698.61791.44062-.24287.3629-.75772.0142-.91073-.23037-.10061-.49439-.007-.61408.20851l-2.69295-1.17993c.0767-.23385-.033-.49196-.26298-.59293-.34867-.15265-.78027.13912-.65988.62761m-.38337 24.23132c.0996.8049.87637 1.02035 1.34647.64843l3.4295 3.57417c-.391.4545-.20782 1.23961.59222 1.37215.84272-.0933 1.05366-.94472.60958-1.40753-.29282-.30531-.76466-.32925-1.08974-.0722l-3.4295-3.57382c.27061-.31467.26645-.78686-.0267-1.09217-.44408-.46281-1.30345-.28727-1.43182.55094m-1.10292-33.03861c.44269.33098.91522.0506.95443-.35596h3.37607c.0392.4066.51173.68694.95443.35596.3518-.45831.0326-.96415-.40453-.96415-.28865 0-.52284.221-.5499.50237h-3.37607c-.0271-.28137-.26125-.50237-.5499-.50237-.43714 0-.75633.50584-.40453.96415m-7.002978 19.52056c.01491-.51937-.455533-.731-.78929-.54122l-1.824546-2.5945c.291429-.24979.25153-.76431-.242165-.92597-.542267-.0225-.758411.49612-.522145.83196.155777.2217.452065.2824.683127.15126l1.824206 2.59441c-.201572.17279-.244592.47219-.08881.69389.236266.33618.797613.30808.959635-.2099"/><path d="M23.431266 48.674c-.72163.27998-.73967 1.04879-.28588 1.39712l-2.50559 4.0068c-.51209-.25568-1.19521.0972-1.13103.86839.28276.75772 1.11992.75425 1.44431.23523.21406-.34242.12594-.78408-.18804-1.02521l2.50595-4.0068c.35388.17694.78998.0628 1.00404-.27964.32439-.51901-.0389-1.27292-.84376-1.19589M10.608029 27.9107c-.37296-.63387-1.096675-.53291-1.353758-.0541l-4.141766-1.73644c.161674-.51902-.273734-1.10604-.987391-.92771-.667165.38128-.536022 1.16571.000781 1.39088.35353.14814.754594-.002.932574-.33341l4.14142 1.73643c-.111717.35909.06209.75043.415979.89893.536368.22481 1.187921-.23141.992247-.97456m6.036661-9.09052c.74384.36221 1.35966-.18214 1.30311-.79102l4.96193-.94575c.17139.58702.94437.86665 1.5026.25604.38822-.7723-.22239-1.42593-.86492-1.30346-.42396.0808-.70637.4708-.66717.89198l-4.96193.94577c-.11865-.40592-.52492-.66475-.94888-.58391-.64253.12247-.97004.95513-.32474 1.53035m7.62366 16.89423c-.0572-.49195-.53047-.62691-.81913-.40209l-2.07782-2.19683c.24078-.27582.13253-.75563-.35561-.84029-.51486.0534-.64739.57211-.37816.8566.17728.18769.46524.20434.66508.0489l2.07782 2.19682c-.16653.19082-.16618.47912.0115.66682.26922.28449.79449.1811.87637-.32995"/><path d="M19.346056 21.83404c.42535-.26784.34173-.76014.009-.92598l1.10084-2.86469c.35769.0996.74973-.21024.61339-.69387-.27443-.4479-.80768-.34174-.95027.0291-.094.24494.017.51555.24702.63004l-1.10049 2.86503c-.24772-.069-.51139.0579-.60541.30254-.14259.37122.18249.80662.6859.65779m5.66413-1.74163c-.44201.30357-.33168.82432.0295.98704l-1.05123 3.09886c-.38545-.0909-.78998.2557-.62414.76535.3112.4656.87498.32994 1.01098-.0715.0899-.26472-.0399-.54851-.2897-.66092l1.05123-3.09888c.2668.0628.54227-.0836.63213-.34832.136-.40141-.22864-.85173-.75876-.67167m2.25233 12.07696c-.34832-.33305-.78651-.1405-.86318.20747l-2.92057-.35659c.009-.3563-.36983-.64843-.7879-.40904-.35249.35943-.12975.83057.24841.87671.24945.0305.47531-.13564.52839-.37642l2.92054.35665c-.007.24633.17278.46212.42223.49266.37816.0461.70775-.3577.45206-.79138m-1.61639 17.58638c-.71192-.3976-1.34821.10374-1.32635.70637l-4.93696.65607c-.136-.58738-.88157-.90517-1.46477-.33515-.42535.73864.13981 1.41586.77922 1.33086.42188-.0559.72129-.42431.70602-.84099l4.93696-.65606c.0944.40627.47981.68347.90169.62762.63906-.085 1.00751-.88643.40419-1.48872m-5.97465-22.31932c-.12907-.37366-.52076-.3976-.70741-.17313l-1.99525-1.35619c.14016-.25604-.0264-.61165-.42119-.59396-.39204.12976-.40626.55684-.14814.73239.17069.11588.39794.0795.52665-.076l1.9956 1.35653c-.0971.17695-.0475.40176.12316.51764.25848.17555.65017.005.62658-.4073m-4.875893 18.81246c.04371-.52492-.420839-.76536-.769165-.59154l-1.703129-2.72764c.308777-.23661.296982-.7598-.193938-.95062-.547817-.0531-.795187.46005-.574533.81323.145369.23315.442003.31086.682778.19082l1.703126 2.72764c-.213368.16375-.273736.46421-.128367.69735.220653.35318.790328.35596.983228-.15924m.904818-6.28552c-.09992.61652.427775.94299.855555.76917l1.76488 3.38058c-.38684.25153-.42049.87117.14259 1.14178.64288.11241.98219-.47148.75356-.90933-.15092-.28899-.49439-.408-.79033-.28796l-1.76488-3.38023c.26749-.17416.36602-.52423.21545-.81288-.22864-.43784-.9017-.493-1.176825.0989m-8.582246 9.02287c-.301838.56689.103041 1.0599.576959 1.03319l.594654 3.87601c-.460388.11656-.698735.7081-.240775 1.15843.588063.323 1.112636-.13253 1.035615-.63455-.051-.33098-.345551-.56101-.673409-.54262l-.594655-3.87601c.318142-.0805.53047-.38822.479818-.71955-.07702-.50202-.714002-.77923-1.178207-.2949"/><path d="M16.013356 39.5918c.50861.38025 1.05157.0583 1.09632-.40904h3.87914c.0451.46733.58771.78929 1.09667.40904.40419-.52665.0375-1.10743-.4649-1.10743-.33132 0-.60055.25361-.63177.57696h-3.87914c-.0309-.32335-.3001-.57696-.63143-.57696-.50236 0-.869081.58078-.46489 1.10743M14.40355 16.28994c-.292815.26021-.165836.62796.111022.71331l-.482248 2.34254c-.287958-.0312-.549899.25674-.383368.6113.267837.30947.664389.16029.726492-.14328.04129-.20019-.07841-.39413-.269918-.4531l.482245-2.34253c.199143.0215.385798-.10964.427083-.30983.06245-.30322-.242858-.59673-.611308-.41841m3.751116 13.8207c.008-.68278-.61513-.95062-1.0495-.69389l-2.454941-3.36982c.377817-.3348.313981-1.01029-.338613-1.21152-.71331-.0177-.985656.66821-.667859 1.10501.20955.28761.600552.36116.901003.18353l2.45494 3.36983c-.26124.2314-.3112.62587-.10165.91384.3178.43644 1.0547.38718 1.25662-.29698m-2.654092 14.91633c.05273.48883.521452.62656.810102.40556l2.04556 2.19787c-.24112.272-.13739.74939.34659.83716.51139-.0489.64739-.56308.38233-.84757-.17486-.18804-.46039-.20678-.65988-.0538l-2.0459-2.19787c.16687-.18804.16861-.47427-.006-.66196-.26507-.28484-.78756-.1863-.872906.32058m8.098966-35.06555c.29456.26263.64774.0923.70048-.19463l2.40012.20747c.003.29142.32162.51971.65676.31154.27825-.30426.0826-.68347-.22828-.71018-.20539-.0177-.38545.1249-.42188.32335l-2.40048-.20748c-.002-.20157-.15473-.37295-.35977-.39064-.31086-.0267-.56899.31293-.34695.66057"/></g></svg>