<svg xmlns="http://www.w3.org/2000/svg" xml:space="preserve" viewBox="0 0 20.26091 19.257393"><g fill="#231f20"><path d="M4.62797238 4.97184695c.11571022.58455189.69602875.70132045 1.02093707.40392879l2.70192486 2.43698974c-.26246665.35383522-.08678333.91898521.50658975.97401855.61242307-.11324167.7221352-.74824166.37218142-1.06397689-.2310712-.20813976-.57784997-.20037689-.80257117.00529167L5.72510945 5.29110907c.18168142-.244475.15345832-.59055-.07725833-.79868711-.34995378-.31538333-.97048898-.14111288-1.01987874.47942499"/><path d="M9.65752402 9.71353212c.30479998-.40781023.04691856-.84278522-.32773142-.87841666V5.7267905c.37464998-.03563143.6325314-.47060643.32773142-.87841665-.42192308-.32385-.88723519-.02998523-.88723519.37253333 0 .26564166.2032.48118976.4621371.50588332v3.10832496c-.2589371.02468563-.4621371.24024167-.4621371.50588333 0 .40251856.4653121.69638332.88723519.37253333"/><path d="M10.51512587 7.58099048c-.62194543.34113522-.54574543 1.04139999-.09172045 1.30316021l-1.79458135 3.93982306c-.49529997-.17039167-1.07350184.231775-.92286662.92462878.34819165.65404999 1.10772305.55033332 1.34020183.04021666.15345832-.33655.02010833-.72742688-.29386211-.90840188l1.7945787-3.94017495c.34254809.11818143.7246064-.03774546.87806473-.37429546.23248142-.5104712-.18803143-1.15182119-.90981473-.98495642m-4.35186645 3.92465185c.57855641-.11500644.69356284-.6893269.39863975-1.01035643l2.40876655-2.67581853c.35030832.25929166.90946018.08466667.96308328-.50235378-.11218332-.6060731-.7408333-.7136712-1.05268971-.36724167-.20566856.2286-.19790833.5718519.00563562.79410189l-2.40841465 2.67581853c-.24235832-.17921023-.58455186-.15134167-.79022306.07725833-.31185378.34678143-.13899356.96026022.47519164 1.00859166M9.55557213 3.8584803c.21695832.75353332.99095184.84172688 1.3835935.41557045l3.81423313 2.89383784c-.30444809.49318333-.01092729 1.2146121.7729352 1.22061021.79022306-.21660643.86324805-1.06150832.3693583-1.43615831-.32596664-.2472981-.77999162-.19861477-1.05162873.09595643l-3.81423314-2.8934833c.21060832-.34113786.13511212-.79128142-.1905-1.03857952-.49424164-.3750019-1.2879916-.07725833-1.28375826.7422462m4.11303502 4.82917494c-.39687498.00185208-.54645187.36688712-.39264165.61665378l-1.9339268 1.46085188c-.19861476-.2162519-.59019807-.17250833-.70097117.2088462-.003175.41486666.39863975.56620833.64911284.37711856.1651-.12488333.20390379-.352425.09736667-.52528522l1.93427869-1.46085188c.13723143.1495769.36688975.174625.53198974.04974167.2504731-.18908977.21448976-.61665643-.18520832-.727075"/><path d="M10.30204899 9.1247469c.65687307.26317045 1.1486435-.23953788 1.0625666-.7552981l4.1751248-1.11477688c.18238522.49036022.85936662.68086022 1.2975166.12523523.28363332-.68297689-.27798976-1.20261855-.81844352-1.05833332-.35665832.09525-.57361664.44555833-.51399808.80256855L11.3296906 8.23856737c-.12629356-.33901856-.48859808-.53481023-.8452564-.43956023-.5408083.14428523-.76870185.87488976-.18238521 1.32573976"/><path d="M18.6470069 10.47517757c-.23424355-.6004269-.87453519-.61453712-1.1641666-.23600833l-3.34080628-2.081739c.2120212-.42686287-.08255-.99553976-.7249583-.94085832-.63076663.23671212-.6268852.93380188-.19402688 1.20367688.28539809.1778.65334353.10371667.85372306-.15804356l3.34115816 2.081739c-.14675643.2949231-.05115453.65793142.23424356.83608332.43250641.2695231 1.06044994-.03421856.99483328-.70485m-17.34819913-.32384734c-.12558712.61982878.39546475.97119544.8353795.81279734l1.65099992 3.49144162c-.40146286.23953788-.46037498.86536476.098425 1.1613462.64628709.1397 1.01317684-.4377981.79939352-.89005832-.14111023-.2980981-.48436475-.43250644-.7884583-.32279167L2.2435475 10.91226923c.27763521-.1654519.39158331-.51576022.25047309-.81385568-.21413787-.45226287-.8928814-.53516476-1.19521282.05291667m7.02274775-.84596287c.35842044.29633333.76693709.08008144.81667875-.25999545l2.83668774.13934545c.015875.34360644.4014602.59866477.78704541.33866667.31432499-.37041667.06738144-.80856666-.3002121-.82655833-.24235833-.01198562-.44838142.16404167-.48259998.3993462l-2.83668773-.1397c-.0109273-.2374212-.19861212-.43250642-.44097044-.44449999-.36724165-.01799166-.65652117.3937-.37994165.79339545"/><path d="M.0019976 13.77082753c.17250833.47942499.67839164.50376666.91475186.21060833l2.59679797 1.71414808c-.17638976.3330231.04445.78845832.55315641.7584731.5034121-.17392121.51470187-.72495833.17815189-.94685643-.22154355-.1464019-.51399808-.0956019-.6776852.10724356L.97072446 13.90029873c.12206287-.23001287.053975-.51893787-.16792045-.66533976-.33654999-.2218981-.8385545.0049477-.8008064.53586856m17.22649079-3.28647686c-.45967118-.2032-.82162116.14111023-.77328972.50976477l-2.99226008.68650378c-.117475-.3527769-.59337308-.5051769-.91863329-.12170833-.2183712.47766287.16721666.86113142.55491854.77223142.25541021-.05891477.41839354-.30197689.38488141-.55703522l2.99226008-.68615453c.08113977.2437712.33372688.39193787.58949164.3330231.38734998-.0885481.56761853-.60183976.16263143-.93662499m-5.65291259 1.97696664c-.7066121.28363333-.7157852 1.03998976-.26528711 1.37759809l-2.42040822 3.96980828c-.50658974-.24588787-1.17474994.1086538-1.10313781.866775.28680831.74224355 1.1101916.72954355 1.4238128.21519355.20672688-.33901856.11500378-.77293522-.1964981-1.00612309l2.42040822-3.96980828c.35030831.16968787.77787496.05256477.98460184-.2864538.3136212-.51399809-.05221022-1.2520083-.84349162-1.16698975"/><path d="M12.45505077 14.84574228c.51434998.06244167.76764617-.38558522.60959997-.73448332l2.7435544-1.57444809c.22154356.31256288.73624543.3199712.94191663-.155575.07196666-.53657499-.42333332-.7986871-.7785814-.59478332-.2345981.13476287-.32173332.42333333-.212725.66463333l-2.74355175 1.57444808c-.15310643-.2162519-.44661664-.28645643-.68086284-.15169356-.35524544.20390379-.37888331.76341022.12065.97190188m-8.55732837-4.78542873c.44379354.70626022 1.26118138.56867689 1.53705182.01693333l4.75297476 1.834089c-.16615832.593725.34678142 1.24495453 1.15005638 1.01952953.7443602-.454025.5697352-1.33949809-.04586287-1.57691665-.40604544-.15663333-.85583708.02681023-1.04669162.40851667L5.49227612 9.92837378c.11500644-.41063333-.09489545-.84878332-.50094353-1.00541665-.61559543-.2377731-1.33984994.30091856-1.09361018 1.13735642"/><path d="M6.67020106 10.745759c-.37464998-.27199166-.76693708-.0321019-.79516018.30868143l-2.82610176.03739357c-.03704166-.34043144-.43568141-.56973522-.80256852-.28786667-.28927953.3877019-.01658937.80750833.34924998.80256856.2413-.003175.43497498-.1905.45472877-.42650833l2.82610175-.03704167c.0254.23530454.22401476.41733787.46566665.41416287.36583142-.00457729.62759163-.4314481.32808331-.81138976m3.58880816 4.62279994c.77434806-.1016.97613782-.85089999.61453974-1.30104354l3.41559339-3.32739996c.44062118.37323712 1.19485827.19120379 1.31692114-.58031856-.09595643-.81033142-.91722306-1.00718142-1.35960637-.57643976-.29209998.28433977-.31114998.73871666-.06138333 1.04986665l-3.41559339 3.32739996c-.30479998-.25788143-.7591795-.2504731-1.05127949.03386667-.44202877.43074166-.26669999 1.25694544.5408083 1.37406854m8.86742266-9.05580367c-.35242498-.28963144-.75282685-.07655455-.80045185.257175l-2.78271274-.12911667c-.01658937-.33690454-.3954621-.58596477-.77328708-.3298481-.3072712.36441856-.0635.7933981.29668521.80997688.2377731.0109273.43956021-.161925.47236854-.39299355l2.78306463.12911666c.01129771.23283333.19614355.42403977.43391665.434975.3601852.01658937.6427602-.3877019.37041664-.77928522m-6.56131444-5.22604994c.32914165.79163332 1.18109994.79163332 1.55504613.2797519l4.50461834 2.67052686c-.26987499.5739712.13864166 1.32150642.99130639 1.23013786.83220185-.333375.80609542-1.26047499.22295378-1.60619809-.38487877-.2282481-.87206662-.11888523-1.13065184.23495L14.20377189 1.225347c.18661856-.396875.04868333-.87665453-.33619808-1.10489999-.58314164-.3457231-1.4089935.0762-1.30245638.96625832"/><path d="M3.46909743 10.7143609c.37853142-.085725.44379354-.46566666.244475-.67168712l1.5374037-1.80304808c.23495.1643962.59972308.03951287.62477118-.34783712-.08466666-.3965231-.49988785-.45614166-.6992064-.22260454-.13123333.15381287-.11994356.37958977.01799167.52211287L3.65712886 9.99434234c-.16263143-.11359356-.38734998-.0892519-.5185833.06491288-.19896666.23353712-.07443788.63429355.33055187.65510568m7.64081174.25223787c-.4459102.02293937-.59442876.44097045-.40886854.71366855L8.6044824 13.4233423c-.23424355-.23248143-.67239352-.16263143-.77681662.27128523.01833562.4663731.4776602.6155981.74894806.3898212.17921022-.1488731.21096022-.40675454.08219546-.59548976l2.09691277-1.74272309c.16192499.16051477.42156854.17674167.60077876.02787121.27128786-.22577954.20849165-.7044981-.24659166-.80750832M16.32079035-9.5008612c-.66886663.45437689-.50694164 1.24142498.03668977 1.48942688l-1.61184159 4.66689804c-.58102497-.14005454-1.19379994.37923522-.94791472 1.14934999.46601854.70484999 1.31727304.50517689 1.52611659-.09913144.13758333-.39863977-.05573977-.82796855-.43179998-.9997731l1.61184159-4.6668954c.40181475.09701213.81879806-.12135643.95638139-.5199962.20884355-.60430832-.33760832-1.28693331-1.13947305-1.01987877m-5.35093306 5.62257039c-.10971477.52105453.32667308.82056286.69779352.68968142l1.36772114 2.9502814c-.33972498.19896667-.39299619.72566212.07549356.97860378.54327687.12170834.85583973-.36230189.67874353-.74436022-.11712045-.25188333-.4049871-.36724166-.6618102-.27693143l-1.36771849-2.95027875c.23494999-.13758334.33302044-.4318.21625188-.68403787-.17709355-.38205833-.74824162-.45614166-1.00647494.03704167"/><path d="M17.0704422-.15471965c-.04233332-.79833787-.79092685-1.06362499-1.2788185-.73060454l-3.12419983-3.75002684c.41557308-.41980644.28963142-1.20403143-.48789165-1.38994355-.83467306.03351213-1.1006666.85619166-.6960314 1.34196665.26669999.32032046.72883974.37606023 1.06644805.14569546l3.12419985 3.7500295c-.28751476.29068711-.31608976.75494354-.04903523 1.07561854.4046352.4854231 1.26153327.37218143 1.44532872-.44273522"/><path d="M16.88170699.77696556c-.1171231-.37500189-.50588331-.41028143-.69744163-.19261666l-1.9434518-1.40511475c.14710832-.25047046-.00846667-.60854166-.40110831-.60254356-.3929962.117475-.41980642.54151477-.168275.7235481.16615833.11994356.39264165.09031023.5256371-.060325l1.9430999 1.40546665c-.1016.17321212-.05891212.39793333.1072462.51787689.25152879.18203333.6459352.0239977.63429354-.38629167m-5.23628118 1.82562498c.4088712.16580644.71684618-.14605.6646333-.46813522l2.60561654-.68333143c.11253787.30585833.53375451.42650833.80856663.08149166.17850642-.4250981-.17003712-.75071021-.50764544-.66216476-.22260453.05856288-.35842308.276225-.32243975.49882954l-2.60561654.68368332c-.07761022-.21166666-.30338975-.33478787-.52599164-.276225-.33725642.08854546-.48118974.5432769-.1171231.8258519"/><path d="M20.14066705-.49479919c-.38205831-.28539546-.78951662-.04374356-.82302875.3072712h-2.91147485c-.03386667-.35101476-.44132498-.59266666-.8233833-.3072712-.30303785.39546477-.0278712.8314981.34924999.8314981.24870832 0 .45084998-.1905.4741333-.43321023h2.91147486c.02328333.24271023.225425.43321022.47413331.43321022.37711855 0 .6522852-.43603332.34889544-.83149809m-7.61647007-5.36645372c-.3548962.30338712-.21166666.74436022.11606212.85231021l-.62617876 2.77988974c-.34254809-.04339167-.66075451.29386212-.47060642.72001855.31256022.37465.7881064.20566856.86924352-.15451666.0532712-.23741856-.08501856-.47131022-.31185377-.5457481l.6265333-2.78024163c.23671211.02998787.4621371-.12206023.5154083-.35947879.08113713-.36018787-.27587308-.7168462-.7186083-.51223332m8.34989505-4.03119162c.36583141.20849166.69673784-.0472731.68827117-.3584231l2.55164154-.31573523c.06737879.30409356.45084997.47166212.75459163.17991667.22295378-.37923787-.06561667-.73166287-.3961712-.69073976-.21801665.02716477-.37429543.2159-.36829997.43109355l-2.55199344.31538333c-.04656666-.20990189-.24412309-.35489355-.46213975-.32808333-.33055187.0409231-.52457876.45296667-.21589998.76658787m1.07773782 7.0841287c-.62900451-.34395833-1.18462949.10230644-1.16028782.631825l-4.33493311.61736286c-.12452879-.51540833-.7824602-.78881286-1.29046017-.28292954-.36794808.65299166.13440833 1.2438962.69567686 1.16381476.37041665-.05256477.63076664-.37888333.61418785-.74506666l4.33493311-.61736022c.0860769.35630379.4272121.5969.79762875.54433522.56127118-.08008143.87877117-.78775188.34325453-1.31198142"/><path d="M23.61094188-14.65988424c-.31749999.42474356-.04868333.87771022.34184165.91510642v3.23814542c-.39052498.03739621-.65934164.49071477-.34184165.91545832.43991475.33725644.92463139.03104621.92463139-.38805378 0-.27693144-.21166666-.50165-.48154164-.52740454v-3.23814542c.26987498-.02574395.48154164-.2504731.48154164-.52704999 0-.41945453-.48471664-.72566476-.9246314-.38805643m-7.00828297-1.50212688c.35595452.60536666 1.04704615.50976212 1.29293137.05256213l3.9528748 1.6615833c-.15451666.49565454.26070188 1.05621666.94226852.88653144.63747117-.36336023.51258784-1.11266022.00079375-1.32785643-.33796022-.14181666-.72072497.00132292-.89076473.3175l-3.9532267-1.66122877c.10689166-.3429-.05856022-.7168462-.39652308-.85866286-.51187877-.21519356-1.13453328.21978143-.94826662.9295712m3.33683752-10.16776011c.00423333.39228712.36583142.53763333.61171664.3845269l1.45414992 1.90252876c-.21237045.19720454-.16686211.5842.21025643.69109166.40992687.00079375.55738974-.396875.36900642-.64311212-.12417954-.16263143-.34960453-.1996731-.51964164-.09348787l-1.45414993-1.90252877c.14710833-.136525.17039166-.36371477.04621212-.52599166-.18838332-.24659166-.6106583-.20849166-.71754996.1869731"/><path d="M19.01213188-20.31738227c-.56550187.14393333-.6491102.7171981-.34113521 1.01917498l-2.24013966 2.7693064c-.35948142-.2377731-.90311018-.03633522-.92533518.5464519.14252045.59266665.76905375.6663981 1.05939161.3076231.19120378-.23636023.16545189-.5750269-.0472731-.7838731L18.75778-19.22800275c.24870832.16439356.5852583.11888523.77646208-.11782954.29033786-.35842045.08713787-.95567498-.5221102-.97154998m8.29768482-8.25288059c-.31679356.68297689.18908975 1.23401665.74259806 1.17192688l.94650185 4.49967874c-.53128331.16615833-.77222876.87453786-.20707878 1.37195452.70978708.3400769 1.2943416-.22718977 1.17157494-.80962499-.08078787-.38452953-.44097309-.63499999-.8233833-.59196286l-.94685639-4.49967874c.36724165-.11500644.59584164-.48895.51505642-.87347688-.12241477-.58278977-.88582496-.8664231-1.3984128-.26881667m-8.50194314 17.04269335c-.09948333.47519166.29809809.74753522.6364102.62829545l1.24812947 2.68746284c-.30938786.1816788-.35771665.66145833.06949546.89146855.49494808.1107731.77963973-.33055189.61771474-.67839165-.10653977-.22965834-.36900642-.33443333-.60289808-.25188334l-1.24812683-2.68781473c.21413522-.12558713.30303521-.3937.1964981-.62335833-.1615731-.34819166-.68227307-.41521855-.91722306.03422121M17.76753194-7.2233279c-.05891476.59337045.46319808.87347689.86042496.68297689l1.88136468 3.11749806c-.35383786.26246667-.34960453.85513333.20284544 1.0795.61947951.06949545.9084045-.50694167.6646333-.9108731-.16051211-.2663481-.49494543-.35948143-.76976019-.22754167l-1.88136467-3.11749806c.24482953-.18167879.31820642-.52105189.15733976-.78739999-.24341665-.40392879-.88829352-.41698333-1.11548328.16333787"/><path d="M17.24648007-3.08242416c.29245188.48753977.85125186.40498977 1.04704351.03316288l3.2123934 1.3158602c-.12135378.40216667.2187231.85301667.7690564.7108481.51364354-.29915643.40675188-.90452309-.00918104-1.07526665-.27446021-.11218333-.58349353.00669396-.7186083.2638769l-3.2123934-1.31621476c.08396023-.27798712-.05291666-.57961212-.32737688-.69179545-.41627952-.17039166-.91687116.18626666-.76094162.75952878m8.17527798-17.5055369c.1548712-.55915454-.29880188-.9140481-.71155186-.79763143l-1.28552304-3.30058973c.38276475-.19296856.47695641-.76164545-.01516062-1.06856211-.5820833-.16933333-.95496852.33513977-.7884583.76270378.10971477.2818712.41486665.42686287.70026474.346075l1.2855204 3.30094162c-.26493522.13335-.39158332.44661666-.28151666.72848787.16651287.42756666.7821083.54680378 1.09643328.028575m-5.44865956-.40428333c-.44344165-.1361731-.7373064.21872046-.65299164.55103712l-2.66699986.95461665c-.14605-.31044356-.5983102-.39828522-.8547814-.01164166-.14816665.46178786.2469462.7708212.59231475.6473481.22789355-.08149167.35030831-.32243978.29209998-.5520981l2.66699987-.95461666c.10089355.21484166.34854354.32279166.57643974.2413.34536854-.12347046.45437687-.6131269.04691856-.87594545m.83220185-6.14009803c.22648332.41380833.6925045.36336287.86677496.06138334l2.6200813 1.19485831c-.11359355.3294962.15381023.7140231.61453974.61418787.43532688-.2314231.36653521-.73695453.02716213-.8914712-.22401212-.1019519-.4840102-.01375833-.6043083.19508788l-2.62007866-1.19450643c.07866855-.22789356-.02505605-.4822481-.24906287-.58455188-.33901854-.15451667-.76587875.12488333-.6551083.60501211m-8.02463482 15.87323503c.15063522.4660212.6357064.50553143.87241852.2310712l2.44122298 1.72966855c-.18026856.3139731.01799166.75882499.50764808.74612499.48894997-.15098977.51717043-.68015643.20108332-.90416855-.20849166-.14781477-.49106664-.10830454-.6547564.08149166l-2.44086844-1.72931664c.12452878-.21731287.06808522-.49706477-.14040644-.64487954-.31608975-.22401212-.80574352-.02188104-.78634162.49000833m3.8830248-4.76002873c-.21766476.76482045.40110832 1.2558871.96766852 1.09960832l1.73108135 4.53531017c-.52669808.26105644-.6611064 1.03963522.01058333 1.46473332.79621852.2377731 1.31198137-.4504981 1.08761471-1.0378731-.14781476-.38734999-.56444617-.58878522-.95638138-.48083522l-1.73072681-4.53531017c.36406665-.1806231.54045376-.60854166.39264164-.9962462-.22401476-.58737499-1.06715448-.75670832-1.50248136-.04938712"/><path d="M17.36148386-18.6695573c-.33161021-.50905832-.92498329-.39899166-1.11936207.00563563l-3.4815646-1.27917309c.1139481-.4346231-.26705188-.90240642-.84913518-.72919166-.53622308.3393731-.39899165.98178143.05221023 1.14758522.29739165.10936287.62265186-.02963333.75706019-.30938523l3.4815646 1.2791731c-.0790231.30021211.0790231.61700832.37641474.72601665.45084998.16580379.97154995-.2345981.78281209-.8406712M20.76931702.75050723c-.44979164-.3361981-.92956851-.05150644-.96907874.3615981h-3.42829604c-.03951022-.41310454-.5192871-.6977962-.96907874-.3615981-.35701286.46531477-.03316287.97895832.4109852.97895832.29280643 0 .53057688-.22436666.55809354-.51011666h3.42829604c.02751666.28575.26528711.51011666.55809353.51011666.44414808 0 .76799807-.51364355.41098521-.97895832m8.28181246-28.95599963c-.2850462.27058143-.1453462.63535453.13511212.71155453l-.40569355 2.3664333c-.28998331-.02151062-.54292497.27587046-.36441854.62617879.27904544.3012731.67204163.13828977.72460376-.1679231.0345731-.20214167-.092075-.39299356-.28610189-.44555569l.40569355-2.3664333c.20037953.01481667.38311664-.12276667.41804164-.32490833.05221287-.30656477-.26352498-.59090453-.6272371-.3993462m-5.61869137 4.2315685c-.46178786-.70061665-1.28023138-.54433522-1.54587303.01621896l-4.81823953-1.73989997c.15381287-.60078143-.3760602-1.2442481-1.17862873-1.000125-.73836474.473075-.54327952 1.35925189.08078522 1.58432499.41169165.14887045.85971852-.04550833 1.04316472-.43321023l4.81859143 1.73989734c-.10653977.4155731.11394545.85125453.5256371 1.00012498.62406473.225425 1.34020447-.33196212 1.07456282-1.16734165"/><path d="M14.478584-6.13218624c-.57114542.65334355-.18908711 1.42627877.44273786 1.53634543L14.5163321.68771367c-.64134997.01235604-1.13664995.71825378-.67204164 1.45097498.67521664.60536666 1.50494993.16686212 1.5575147-.517525.03457045-.45155642-.28292953-.84454998-.72002118-.92074998l.40498975-5.28355448c.44379355-.00846666.8173852-.34854355.8519583-.80009999.05256476-.68403522-.70061664-1.24424544-1.46014804-.74894544m6.46641636-.23283333c-.24376855-.53093144-.82408709-.50976477-1.06609351-.15169621l-3.13407674-1.7067371c.16968522-.39758144-.12735454-.89676287-.7059083-.81315454-.55809618.24765-.51752497.87841666-.11183143 1.09925643.26811021.14605.59689997.05961856.76446852-.18803144l3.13407939 1.70673975c-.1171231.27481477-.01129771.59831022.25646855.74400833.40569354.22119166.95779161-.08678334.86289352-.69038522"/><path d="M18.4882569-4.76235103c-.6205352.01092729-.84701851.58419999-.60219163.97225642l-2.99578962 2.32021854c-.31432498-.33408144-.92604162-.25788144-1.0918454.34007689.003175.64840643.63394163.87771286 1.0219954.5774981.25576476-.19826023.31185643-.5552731.1425231-.82373522l2.99578962-2.32022118c.21731022.2310712.57714353.2659962.8329083.06773333.38805376-.30056666.32384998-.96872688-.30338976-1.13382688"/><path d="M15.45189873-2.63651129c.63711663.29809546 1.15393517-.17250833 1.0978435-.68968143l4.2068748-.86889165c.15345832.49706476.81421283.72460643 1.2809378.19826022.32032044-.66181022-.20743332-1.21002688-.75247496-1.09749165-.35912952.07443787-.5944314.40992954-.55562497.76729166l-4.20722933.8692462c-.10583333-.34395833-.45472877-.5588-.81421019-.48436477-.54468974.11253523-.81244806.82479355-.25611665 1.30563142m14.78597425-13.77314982c-.47483975-.63006287-1.2336647-.434975-1.4495647.10653712l-4.62456189-1.34831665c.10900833-.57291022-.42615641-1.14546855-1.16487304-.86889166-.6649852.48753977-.42968332 1.3073962.16933332 1.4820212.39475831.11535832.8039814-.09348788.95320639-.46813788l4.6245619 1.34831665c-.07549357.3961712.15733976.79198787.55244996.9073462.59866475.174625 1.23789805-.390525.93944806-1.15887498m.59231474-5.02284994c-.28328142-.40498977-.7627064-.29915644-.90946283.03562879l-2.86596652-.94367878c.08078787-.35630643-.24200378-.7263712-.71049353-.56903143-.4268602.29068977-.29703975.80891855.07408333.93133332.24482689.08043333.50517687-.041275.60677687-.2726981l2.86596652.94368143c-.05573712.24623976.08149166.49918143.3263212.57996666.37112043.12206022.78316662-.21801667.61277496-.7052019m-6.0448478 2.36361021c.26669999-.28716023.1044231-.64135-.17956476-.69955833l.2536481-2.38019163c.28963142.003175.52281663-.30903333.32279164-.64628977-.29703975-.28222045-.6773333-.09525-.71014163.21307954-.02151062.2035519.11641666.38523333.31291476.42545l-.2536481 2.38019163c-.20037688-.00211666-.37359164.1464019-.3951102.3496019-.03280834.30832689.29950831.57149999.6491102.35771666m-4.10598123-2.8296314c-.43356211.5806731-.06632046 1.19979809.46672497 1.25094998v4.42524615c-.53304543.0511519-.90028708.67027689-.46672498 1.25094999.6007814.46072689 1.26364994.04268523 1.26364994-.53057954 0-.37817689-.28927688-.68509355-.6582833-.72037045v-4.42524615c.36900642-.0352769.6582833-.34254545.6582833-.72037045 0-.57326476-.66286853-.99165832-1.26364994-.53057953m6.69642921-3.03353519c.14569545-.36018523-.1294712-.63111856-.41274998-.58490379l-.60360451-2.29411474c.26952309-.09913144.37570831-.4702519.07161476-.71225833-.37464998-.15698522-.6611064.15028334-.58278974.4473231.05150644.19614356.24341666.31573523.43956285.28398523l.60324997 2.29411474c-.18626665.06843712-.29457119.26740379-.24306475.46319545.07831666.29703977.47907308.42368523.7277814.10265834"/><path d="M26.08955842-15.9637509c-.079375-.62970832-.6872102-.79692498-1.05445184-.50517688l-2.68816653-2.78906284c.30515188-.35630379.16051476-.96978522-.46566665-1.07209165-.6586352.07443787-.82232496.74083332-.4741333 1.10207952.22965831.238125.59866473.25576213.85231018.0543269l2.68852107 2.7890602c-.21096286.24623976-.20708142.61559809.02256896.85407498.34819165.3612462 1.02023328.22225 1.11901017-.43321022m-5.90302055 4.49862305c-.1488731.76517499.4963583 1.19379998 1.03716661.99412688l2.06798323 4.28836661c-.49283141.2988019-.55950641 1.07068143.13229166 1.43051475.7979833.16615834 1.24459994-.54927499.97684162-1.10454809-.17674166-.36653522-.60078141-.52881476-.97472495-.39052499l-2.06798323-4.2887185c.34078331-.20672955.4776602-.63923333.30091854-1.0057712-.26775832-.55527046-1.10560638-.6512269-1.47249348.07655454m-1.29575448-2.28847118c-.43462044-.3245538-.89817041-.04974167-.93627041.34960453h-3.31223127c-.0381-.3993462-.50164998-.67415832-.93627306-.34960453-.34501665.44979166-.03175.94579809.39722952.94579809.28292688 0 .5125852-.21660644.53904354-.4924769h3.31223127c.02645833.27587046.25611665.4924769.53904353.4924769.42897688 0 .74224353-.49600643.39722688-.9457981"/><path d="M20.86562535-15.89919256c.8004545-.21201856.91087306-1.02728976.46954808-1.45168142l3.14078128-3.96310374c.51399543.33266856 1.2823454.0388038 1.30598327-.78916476-.21096287-.83925832-1.10137305-.93486022-1.50812493-.42156856-.26846475.33866666-.22718976.81879545.07796212 1.11230832l-3.14042673 3.96345828c-.35559999-.23036476-.8325564-.16051476-1.10101851.1781519-.40675452.51293976-.11006666 1.35819354.75529542 1.37159998m-2.21614989 7.00475635c-.44167687-.3298481-.91263518-.0504481-.95144162.35524545h-3.36549983c-.03880379-.40569355-.5097621-.68509355-.95144162-.35524545-.3506602.4572-.03245379.96131855.40357952.96131855.28751212 0 .52105187-.22013333.5478621-.50059166h3.36549983c.02681288.28045833.26034999.50059166.54786475.50059166.4360333 0 .75423973-.50411856.40357687-.96131855m-1.58361848-6.63292946c.16404166.71613976.8833564.8382 1.2724685.4600231l3.41912293 2.90194996c-.31009165.44555833-.0726731 1.13559166.66039997 1.18109999.7503583-.161925.86148329-.94826666.41874808-1.32432688-.29209999-.24765-.71896284-.225425-.98813139.03633523l-3.41912293-2.90230186c.21448976-.307975.16721666-.7330731-.12488333-.98107499-.4430871-.37570833-1.20085373-.13828977-1.23860183.62829545m.45755187-3.90877684c.48224808-.64558333.07373144-1.33455832-.5192871-1.39135642v-4.92266017c.59301854-.05679546 1.00153518-.74577045.5192871-1.39135378-.66851209-.51293976-1.40581849-.047625-1.40581849.58984356 0 .42086477.32208521.76235189.73236663.80151022v4.92266017c-.41028142.03915833-.73236663.381-.73236663.80151286 0 .63746856.7373064 1.10278332 1.4058185.58984356"/><path d="M21.87280674-18.99446562c.28857309-.38629167.0440981-.79833522-.3107981-.83220189v-2.9446352c.3548962-.03386666.59937119-.44591286.3107981-.83220452-.39969809-.30691667-.84066852-.028575-.84066852.35277953 0 .2515288.19261665.45578712.43779543.479425v2.9446352c-.24517878.02328332-.43779543.22754165-.43779543.47942498 0 .381.44097043.65969356.84066852.3527769m2.29975821-9.41105178c-.41486664.63041476.00529167 1.25130452.56268141 1.27105832l.27481211 4.59881017c-.5506852.08643143-.89429162.75282953-.40710377 1.32926665.65299164.44167953 1.31550827-.03421856 1.28022873-.62970833-.02362729-.39299356-.34360377-.69426666-.72883709-.70802499l-.27481476-4.59881017c.38099999-.05961856.66251664-.396875.6392333-.78951666-.03563143-.59584166-.75035829-.98918711-1.34619993-.473075m2.29305633 15.49329338c.23318521-.71014166-.32914165-1.19485832-.8674814-1.06962045L24.1446964-18.3076073c.50447044-.225425.66004543-.95144165.0451538-1.37618521-.73871664-.25329356-1.24918517.37323977-1.06080185.93344999.12417689.36971022.50799997.57467499.8801814.48824355l1.45344348 4.32576282c-.34889808.155575-.5309314.55103712-.40675187.92039545.18838332.56056476.97366661.7517712 1.40969993.10371667M14.02068024-3.98729915c.24200378-.42121666-.05221288-.80362688-.41098786-.79480832l-.35454165-2.9442833c.35066286-.07690379.54539618-.51822878.21025643-.86994998-.43673975-.25823334-.84419806.073025-.79833519.45437953.03033712.25152879.24764999.43250379.49600377.42650833l.35454165 2.9442833c-.24271022.05326856-.41063332.28045832-.38029355.53198711.04586023.38135454.52034808.60677954.8833564.25188333"/><path d="M24.70067326-20.4581406c.47413331.00026458.6551083-.434975.47342687-.73448333l2.3202211-1.73249164c.23565377.2596462.70414352.20990453.83890374-.2448269.00669396-.49565189-.47236854-.67944999-.77293519-.45508332-.19826022.14816666-.24588521.42015832-.11994355.62723976l-2.320573 1.73249164c-.16298332-.17956477-.43744353-.21131477-.6357064-.0631481-.3002121.22436666-.26034998.73554166.21660643.87030188m-3.4720396 4.75614994c-.5154083.55668333-.20108332 1.24177953.34819165 1.35396286l-.4875371 4.6062185c-.56091664-.00529166-1.01141472.59866477-.62406474 1.25095.57467497.54609998 1.31092304.1837981 1.3740685-.4131019.04162954-.3933481-.22577689-.74506666-.60571853-.82232499l.48753974-4.60657305c.38770188.00388938.72284163-.28398522.76446853-.67768522.0631481-.5965481-.58067308-1.10489998-1.25694805-.6914462m3.61808959-2.32692043c.6198314.09172046.94015185-.44238332.7598833-.86889165l3.36585172-1.81786475c.25823332.3845269.8801814.409575 1.14335449-.15875.10371666-.64664165-.48648141-.97895832-.92251473-.74330188-.28751475.15522045-.40216664.50165-.27763521.79657045l-3.36585437 1.81786474c-.17850379-.26599356-.53092877-.35983333-.81844352-.20461022-.43603332.23565379-.48189354.91157688.11535832 1.17898332"/><path d="M22.82777525-12.61765283c.38911475-.61101287-.02328333-1.20120832-.55879997-1.21249809l-.32984544-4.41148517c.5281083-.09101667.84807685-.73554166.37217877-1.2819962-.6332352-.41486666-1.2629435.05150644-1.22025827.62300644.0282231.37676666.33972498.66145832.71014163.66921855l.3294962 4.41183972c-.3647731.06279356-.63041475.39052499-.60254619.76729165.04303977.5715.73483784.93909355 1.29963327.4346231"/><path d="M21.85975484-14.7449028c.25470378.44555833.7602352.38170378.94403329.05009356l2.87266841 1.24883332c-.1171231.36053976.180975.77399355.6805083.65616666.46884165-.2599981.38417498-.80821477.01198563-.97013976-.24517878-.10653713-.52634354-.00529167-.65334353.22401476l-2.87266842-1.24883331c.08078523-.24941477-.03668977-.523875-.28222309-.63076666-.37182688-.1615731-.83043973.15063523-.70096853.67063143"/></g></svg>