<svg xmlns="http://www.w3.org/2000/svg" xml:space="preserve" viewBox="0 0 21.606014 23.075466"><g fill="#231f20"><path d="M-.80088767 1.56278517c-.0176477-.49706212-.4808352-.67027689-.7881064-.46813522l-1.90429346-2.3664333c.26317309-.2568231.19296855-.746125-.28892499-.86995-.51964164.01235604-.69426663.5210519-.44732308.82761666.16263143.20214166.44943975.24200643.66216474.1019519l1.90429346 2.3664333c-.18203332.1778-.20461021.4663731-.04162689.66851476.24659165.30656477.78104996.24518143.90381662-.2599981m-5.97146826 17.42619895c.20461022-.755015-.41028142-1.23044478-.96590639-1.06963103l-1.75965635-4.44114497c.51470452-.2634906.63711664-1.03116855-.02927879-1.44109808-.78634162-.22366023-1.2848166.4596712-1.05692305 1.03469809.15028333.37951833.56268141.57259272.9468564.46139893l1.76000824 4.44112644c-.35595453.18203333-.52422952.60536666-.3739462.98501728.2278962.57507187 1.05939162.73133478 1.47884614.02963334"/><path d="M-7.27436045 11.16645626c-.65722496-.2596462-1.1458204.24412045-1.05762684.75917688l-4.16383502 1.13061749c-.18450453-.48852666-.8611314-.6759231-1.29645827-.11962606-.28045832.68340022.28257499 1.20014998.82197042 1.05353378.35559998-.09634273.57079618-.44732046.50976475-.80341522l4.16383502-1.13093499c.12770643.33803166.49036285.53205856.84631472.4353269.53904354-.1463675.7634102-.87700379.17603522-1.32467878m4.07176267-2.33997497c-.5750295.38805378-.43814997 1.06327044.02751667 1.27740831l-1.39453137 3.99870079c-.49812308-.12209727-1.02517305.32176772-.81632685.98323398.39757877.60563125 1.12853517.43669479 1.30915826-.0811477.11888523-.34148713-.04586287-.71010462-.36794808-.85866022l1.39488326-3.99838329c.34431021.08431477.7027333-.10195189.82197306-.44344166.18062045-.51787689-.28645642-1.10489998-.97472495-.87771021"/><path d="M1.44242699 18.39766683c-.27763786-.70418853-1.02940639-.71781457-1.36772114-.27204458l-3.9306498-2.42919247c.24729809-.50159708-.10124546-1.1680031-.8551333-1.1013281-.73942041.28084726-.73166018 1.09926435-.22224998 1.41385393.33584619.20753917.76729163.1189302 1.00118328-.18933583l3.93100435 2.42919247c-.1710981.34676291-.05715.77255687.27869354.98009603.50905831.31461604 1.24459994-.04452938 1.16487305-.83124145M-3.09570612 4.33879347c-.47166474.08466666-.57361663.54962953-.33937308.81491665L-5.432506 7.2904851c-.28081286-.2159-.7376583-.0829019-.79022306.3933481.0821981.49388976.59090186.59090188.84948973.314325.17074355-.18273978.16968522-.46143334.00740833-.64523144l1.99777869-2.13677497c.19402953.14957954.47237118.13193977.64311474-.0508.25858521-.2765769.12735189-.777875-.37076855-.82655832m-9.46079573 11.17422715c-.32420188.73405999.22577953 1.31159248.81421284 1.23443998l1.0974916 4.77697265c-.5630333.18729854-.80609806.94670561-.19367498 1.46568582.76270375.3489325 1.37442039-.26704396 1.23225183-.88579854-.09383976-.40819916-.48224808-.66780832-.88899995-.61446832l-1.09749161-4.77670807c.38911475-.12977812.62547496-.53300311.5316352-.94077894-.14216856-.61888687-.96131852-.90590687-1.49542493-.25934458m7.2474663-5.15125222c-.50799997-.66604356-1.31303705-.45331857-1.53846204.1234731l-4.92019142-1.3998231c.11182878-.60924544-.46072952-1.21355377-1.2435416-.91475188-.7023814.52211023-.4469712 1.39135642.19014544 1.57268332.42051286.11959166.85337117-.1051269 1.00929806-.50376666l4.92054331 1.39946854c-.07725833.4215712.17250833.84031666.59302118.95990832.63711663.18132954 1.31197872-.42333333.98918707-1.23719165m-3.75884526-7.60976847c.17215378.41204356.61594996.41098523.80997685.14393334l2.34738322 1.3857102c-.1397.29880455.07373143.68756477.51752497.63923333.43285831-.17427045.41839354-.65687045.1143-.83643522-.20073143-.11853333-.45402498-.06103143-.58843331.1234731l-2.34738321-1.3853583c.09666022-.20672955.02434166-.45649621-.17603523-.574675-.30409619-.17956477-.7337795.04092046-.6773333.50411855m3.80894148 17.18588585c.07584545-.78986061-.6198314-1.16027728-1.14793971-.90479561l-2.5160101-4.13992478c.46989997-.3514037.4614333-1.1394731-.27446287-1.43577203-.82408708-.08999273-1.2061454.6784287-.88053329 1.21461476.21484166.35343835.66039997.47625793 1.02552495.29986022l2.51601275 4.13988245c-.32490832.24296687-.42121664.6945577-.20637499 1.04841145.32596665.53620457 1.1839204.55070374 1.48378326-.22227646"/><path d="M-6.8436188 20.67170764c-.05538523-.50381958-.53869164-.64449854-.83572875-.41632187l-2.11243323-2.26091748c.24800189-.28045833.1400519-.77226582-.35877498-.86182728-.52704997.0511175-.66604617.58136895-.39228975.87420978.1806231.1933575.47483975.21195771.6801564.05386917l2.11243323 2.26094393c-.17145.19404541-.17250833.48910874.0077523.68228103.27375641.29284083.81209351.1901825.89887684-.33223728m3.80013085-4.27672495c-.37147498.26029708-.27410832.70029916.03280833.8350779l-.86606852 2.63067268c-.32702498-.0741627-.66639807.22214417-.52211284.65222437.26669998.39163624.74259806.2727325.85478139-.06810375.07408333-.22473708-.0377481-.46381458-.25011855-.55700083l.86571662-2.63064621c.22612878.0511175.45825831-.07482417.53234164-.2995877.11218333-.34078334-.20002499-.71892583-.64734807-.56263646m-6.97547465-10.93611803c.35877498-.32138143.20073143-.77293786-.14005189-.87629999l.58137687-2.88289996c.35418975.03668712.67486474-.31855833.46848975-.75353333-.33090642-.37923787-.81773973-.193675-.8928814.17956213-.04974166.24623976.098425.48436476.33408143.55562499l-.58102497 2.88289996c-.24518143-.0254-.47378142.13687954-.52352308.38311667-.07549356.37323976.30162498.7327212.7535333.51152953m4.68876832 6.80088431c-.54856854-.40996393-1.13382684-.0628306-1.18215827.4409731h-4.18182669c-.04833143-.5038037-.63358974-.85093703-1.18215827-.4409731-.43568142.56761856-.04056856 1.19408309.50129808 1.19408309.3570102 0 .64734542-.273685.68086019-.62219416h4.18182669c.03351476.34850916.32349808.62219416.68086284.62219416.5415121 0 .93697684-.62646453.50129543-1.19408309m.08431477-12.81257211c-.30338976.38452954-.06596856.8092731.29351021.8533712l-.07761023 2.9890852c-.36124354.02539999-.6201833.43709165-.33725642.83678975.39793332.32208523.85301663.0511519.86289617-.3361981.00669396-.25541022-.1834462-.46778333-.43215452-.4981231l.07761287-2.98908519c.24976665-.0176477.45049544-.21978143.45719998-.47519166.00986896-.38735-.43038975-.68156666-.84419806-.3806481m2.78306463 14.58143603c-.44591286.032385-.58561285.45363605-.39405453.72277022l-2.06092679 1.78787687c-.23918332-.22793854-.67592307-.14856354-.77117306.28786666.0282231.46606354.49071474.60579.75776663.37425312.17603786-.15266458.20214165-.41161228.0694981-.59748207l2.0605749-1.78788481c.16580642.15723129.42544997.16823795.6014852.0154252.26705452-.231775.19402952-.70940082-.26317045-.80281461"/><path d="M.46628916 20.69112805c-.02045229-.4286779-.42121664-.57324624-.68438709-.39618708l-1.66581658-2.02213101c.22436666-.22404917.15910189-.64518645-.25752953-.74718333-.44802687.01561042-.59337043.45614166-.37782498.71797333.1425231.17279937.39017309.20423187.5722064.0814652l1.6658166 2.02210456c-.1552231.15515167-.1718019.4041775-.02963334.57710916.21589999.26169937.67627497.20357042.77716852-.23315083M-6.02940597 5.65218512c-.46496285-.34713333-.96096662-.05326856-1.00188972.3739462h-3.54400626c-.04092045-.42721476-.53692687-.72107953-1.00188707-.3739462-.36935832.48118976-.0342212 1.0121212.42474354 1.0121212.30268332 0 .54892308-.231775.57714353-.52705h3.54400626c.028575.295275.27446022.52705.57714354.52705.45896474 0 .7941045-.53093144.42474618-1.0121212"/><path d="M.81553915 22.54530157c.85654616-.0733425 1.11548327-.88720082.7404814-1.40025436l3.9214767-3.48890162c.46566664.43217041 1.3038666.26953104 1.47637492-.57258478-.06526212-.895985-.95849541-1.15355686-1.46614349-.701675-.33513975.29821188-.3792352.79689854-.11959166 1.15146666l-3.9214767 3.48908683c-.32208786-.29892625-.82232496-.3133725-1.15746471-.01508125-.50764808.4518554-.35595188 1.36905998.52634354 1.53804935m20.67806752-4.28003223c-.5637371-.65444687-1.37900562-.38668854-1.57585561.22047729l-5.14914595-1.14088332c.07796477-.63362416-.5478621-1.22091978-1.33526206-.8656902-.69144617.58033707-.37535642 1.45909769.29139355 1.60694685.43991475.09771063.87171473-.15983479 1.00823972-.57999311l5.1487914 1.14088331c-.05397499.4384675.2289519.85433958.66886664.95178562.66674732.14784916 1.32432683-.51538187.9429723-1.33352644m-9.45408854-6.02478203c.41521854-.20066.3891121-.65856643.10301023-.84377476l1.2971647-2.5004871c.31644165.1277038.70555376-.11465454.63076664-.56973786-.20461287-.43673712-.70167497-.39475833-.86959806-.07090834-.1107731.21378333-.03739356.47201666.16051476.600075l-1.2971647 2.50048974c-.2187231-.08819357-.47236855.00026458-.58314164.21413522-.168275.32385.08360833.75455726.55844807.6702081m.00282046-7.27350158c-.3256121.26105644-.20990189.65934166.07972954.76446856l-.63747118 2.46662307c-.30479998-.04833144-.5986621.2441231-.44061854.63006022.26846476.34360643.69814807.2060231.78069807-.11359356.05467879-.21060833-.06244167-.42333333-.2628212-.49635833l.63747118-2.46662307c.21060832.03351477.41627687-.0959538.4709583-.30691666.08255-.31926212-.22683786-.6480519-.62794617-.47766023"/><path d="M14.05775969 2.93226848c-.42368786.14534621-.45190831.58949166-.19755643.80151287l-1.54199159 2.2584833c-.28998332-.15945643-.6935602.028575-.6741583.47589546.14605.44485453.6300602.46213976.8297333.16968787.13158522-.1929712.09101665-.4504981-.08501857-.59725453l1.54234349-2.25848331c.20037688.1104212.45508331.05432954.58702307-.13864166.19967045-.2924519.00706438-.7369519-.46037497-.7112m-1.71379613 12.58995964c-.44097043.6318779-.02927879 1.27730248.53939808 1.31344456l.15275189 4.70280995c-.56479543.07262812-.93380185.74361144-.4526121 1.34551206.65440186.46910625 1.34443516.00264583 1.32432683-.60758916-.01304396-.4013729-.33125832-.71778811-.72425186-.74287061l-.15310643-4.7028364c.39087687-.050165.68791663-.38668854.6745102-.78851124-.01976438-.60880624-.7383621-1.03076374-1.3610166-.51995916"/><path d="M9.1481516 15.64986312c.03986212.73064686.72566209.97234373 1.17157494.66640603l2.86631842 3.42690975c-.37994165.38488937-.26352499 1.10243936.44838141 1.27111123.76411663-.03254375 1.00647495-.78560082.63499997-1.22946582-.24482953-.29284083-.6678083-.34287353-.97613782-.1316302l-2.86631842-3.42690975c.26281855-.26595916.28821855-.69135624.04303977-.98419707-.37112309-.44385441-1.15534805-.33830419-1.32185827.40777583M10.77410341.93695828c.09701477.59301856.67839164.73025 1.01599995.4409731l2.6426582 2.54670186c-.27622498.34783977-.11782689.9235731.47871854.99871476.62088974-.09383977.75247496-.73024999.41028142-1.06009809-.22577689-.21766477-.5757333-.22154356-.80927306-.02151062l-2.6426582-2.54670451c.19085453-.24059356.1739212-.58984356-.05185834-.80750833-.34219354-.32984545-.97331207-.174625-1.0438685.44943977"/><path d="M8.92237207 18.48310079c.34113786-.21592646.27304999-.61100229.00600604-.74371728l.87947496-2.3025629c.28751475.079375.60183974-.16965082.49141854-.55812-.22083712-.3590925-.6487583-.2734019-.76270376.0250825-.07514166.19648751.0141023.41384272.19896666.50546793l-.87947496 2.30272163c-.19896665-.05513916-.4106333.04725459-.48577497.24405167-.1135962.29805312.14781212.64738249.55209543.52707645M4.49712873 7.69547486c.45649354-.01905.61312687-.44520643.42615642-.72636855L7.0875767 5.20839156c.23706666.24024166.68615187.17356666.79762876-.2695231-.01375834-.47730833-.48224544-.635-.76235186-.40710379-.18485643.15063523-.22013332.41416023-.09066477.60889356L4.86789728 6.90137298c-.16404166-.16615834-.42932877-.18556288-.6141852-.03527955-.28045832.2282481-.22119166.71896287.24341665.82938143m8.16750982-5.28743326c-.44097044.05609166-.55774164.4822481-.35277688.73942309l-1.9529768 1.88665377c-.24976665-.2134288-.6798045-.1114769-.75106473.32737954.05291666.46178522.51999354.57608522.7729352.33161022.16686475-.16121856.17885831-.41980643.0373962-.59760643l1.9526249-1.88665377c.17286022.14746023.43179998.14428523.5986621-.01693333.25294165-.244475.1548712-.71508143-.3048-.7838731m.28328143 12.63756611c.57079354-.26349853.54645187-.88720875.16121856-1.14653481l1.8287999-3.37326283c.42756665.18168143.96343783-.13864167.87277306-.76058712-.26740642-.5997231-.94544351-.55456666-1.18215827-.11782954-.15628143.2882212-.06279356.64205643.20390643.82126666l-1.82879991 3.37294533c-.29598142-.12527227-.64346663-.01103313-.79974806.27724629-.23671476.43670537.09560189 1.0298377.7440083.92675603"/><path d="M13.51659684 2.66698136c-.066675-.39828787-.45755187-.48895-.6836833-.29386476L11.0506803.66955185c.18450453-.23459546.07655453-.62088712-.32420188-.66957045-.41698331.06455833-.50376664.49247689-.27304999.71296211.1524.1456981.38734998.14746288.54363141.01235604l1.78258514 1.70391665c-.12770643.161925-.11535833.396875.03668977.5425731.23106855.22048522.65475376.1146519.70026209-.3048M9.8191349 15.64324853c-.22013332-.38459833-.65687307-.32922103-.81527117-.04230687L6.5217203 14.52454788c.10089355-.31157333-.15698523-.66819726-.5884333-.56624537-.40463522.2250387-.33125832.69853704-.009525.8378481.21201854.092075.4547314.00425979.56409163-.1940269l2.48214344 1.07639378c-.06985.21550312.03210454.45254333.24412309.54432729.32173332.13932958.71754996-.1304925.60501474-.57959625"/><path d="M12.31750523 2.30079803c.206375.39828523.65087497.36053712.8233833.07725834l2.46732941 1.19415188c-.11535833.31115.1305269.68297688.57149997.59760643.41909998-.21060833.36477044-.69285643.0451538-.8473731-.21060833-.10230643-.46002044-.02362729-.5792602.17250833l-2.46732678-1.19415188c.0797269-.2151962-.01341437-.4596712-.22401476-.5616231-.31961665-.15451666-.7316602.1019519-.63676474.5616231m-.71437496 8.2232499c.14111287-.39581666-.16792045-.676275-.47201664-.61348143l-.75529542-2.45145186c.28680831-.11959167.38452687-.52528787.04515379-.77293787-.41169165-.1527519-.70731853.19226477-.60959997.50976476.06455833.2091981.27728332.3302.48753974.28680833l.75529807 2.45145187c-.19826287.08255-.30621286.30197954-.24165453.51152953.0977212.3175.53622308.43603333.79057496.07831667"/><path d="M13.46403472 10.71313505c.5891371-.43356212.41592498-1.13947044-.08396287-1.34514165l1.29787114-4.27460828c.53022497.10689167 1.06679995-.38346855.81773708-1.07138521-.44520377-.62159356-1.20791017-.41204356-1.37618516.14181666-.1107731.365125.07866856.74647689.42474354.889l-1.29822039 4.27460827c-.36653786-.07408333-.73624807.13758333-.84702116.50270833-.168275.55350832.34924998 1.15217309 1.06503782.88300188m1.25518327 3.67774533c-.46284619-.57506393-1.16663782-.36946416-1.35219804.1435788l-4.36527288-1.12116129c.08466666-.5390806-.43321021-1.05833332-1.11583518-.7774887-.6071314.47582667-.36230187 1.2356756.2032 1.38066726.3728852.09602523.74894806-.11176.87735828-.46661916l4.36527289 1.12144438c-.05856288.37250687.17109545.73588562.5439833.83177061.56550187.14499167 1.14617495-.40280166.84349163-1.1121919"/><path d="M12.27728857 10.34060172c-.5475102-.08113712-.83079163.3898212-.67204163.76693977l-2.97462031 1.60295164c-.22754166-.33993666-.77681663-.3625506-1.0100045.13945394-.09242688.57079355.42897953.86501022.81421284.65718795.25435188-.1368425.35595188-.44273523.24588522-.70347416l2.97497485-1.60298604c.15733976.2353019.46848974.31855833.72284163.18168143.38523331-.20778787.42615641-.80468786-.1012481-1.04175453m-.77611019 8.7107976c-.43497498-.32490833-.89852496-.04974166-.93697685.34962042H7.24985359c-.0384519-.39936208-.50200187-.67452875-.93697685-.34962042-.34501665.45005625-.03175.9464675.39722688.9464675.28328142 0 .51329164-.21693188.53974997-.49323625h3.31434794c.02645833.27630437.25646855.49323624.53974997.49323624.42897688 0 .74259542-.49641124.39722688-.94646749m1.32362304-11.08887257c-.55915452-.64205378-1.3610166-.37359166-1.55187113.22577954l-5.0796452-1.09678786c.07337689-.62476855-.54645452-1.19979544-1.32044804-.84596022-.67803974.57573333-.36194999 1.44003976.29598142 1.58220832.43391664.09348522.85795375-.16263144.9902454-.57714356l5.07964785 1.09678522c-.0508.43215189.23001022.84031665.66392687.93415642.6579314.14181667 1.30245637-.51505643.92216283-1.31903786m-2.55799154 6.31754613c.19261665.55908045.7789333.59545272 1.05797874.25893712l2.98591272 2.03028019c-.21025643.38335478.03915833.9154054.6300602.88894707.58666853-.19401896.60854163-.8328554.22154355-1.0960629-.25505832-.1732227-.5947833-.11893021-.78810375.11355916l-2.98555819-2.03028018c.14499166-.26486379.07090833-.60109628-.18450453-.77459416-.38664354-.26278416-.97296018-.00743479-.93732874.6092137"/><path d="M11.48071815 19.36958724c.5506852.56446207 1.2784666.27479624 1.42381016-.28993042l4.75614976.74964395c-.0352769.58208333.56832497 1.08161665 1.2657666.71355478.59725187-.56747832.2599981-1.35075081-.35630642-1.44774706-.40639998-.06424083-.7852833.19510375-.88582495.58525833l-4.75650166-.74967041c.02468562-.40253708-.25646855-.76551895-.66286853-.82931-.61594997-.09741957-1.17792494.54430083-.78422496 1.26820083m8.77922645-3.19648414c-.53022497-.6607704-1.3387916-.42621728-1.55292681.16261292l-5.00979786-1.29537352c.0980731-.61845295-.49529997-1.21570749-1.27952493-.89460916-.69779353.54529037-.41839354 1.4181402.23071665 1.58599186.42791854.11051646.86007306-.1273175 1.00823972-.53443187l5.00979521 1.29508248c-.06773333.42788416.19508786.84558187.6230064.95638937.6487583.16756062 1.3165666-.46042791.97049162-1.27566207M3.54568711-24.30287853c.4808352.44661666 1.07420828.1753288 1.17157494-.29986287l3.98533124.42615643c-.00529167.48506856.51717043.87559356 1.08161661.54116023.47307498-.49706212.16016022-1.13417878-.35595452-1.18921211-.34042878-.03668977-.64487686.19437879-.7122583.52316855l-3.98532859-.42615643c.00351896-.33549166-.24518142-.62582689-.58561285-.66216212-.5161121-.05538787-.95673328.50129546-.59936853 1.08690832m11.95563917-22.79155994c.18944166-.504825-.20178976-.87136286-.59337307-.79727953l-.9182814-3.16300375c.37041665-.14710833.50447308-.6660462.07408333-.99095453-.5252852-.20496212-.91228328.231775-.79339541.64135.07866856.27022953.34924998.42968332.6201833.37817953l.91827874 3.1633583c-.25611665.10159999-.39934354.38135188-.32102688.65157877.11888523.409575.67944997.5711481 1.0135314.11677121m-4.9374793-7.81896657c-.6526371-.35665833-1.22872494.10583334-1.20367684.65510833l-4.4965062.63958522c-.12911667-.53445833-.8113871-.81844355-1.3387916-.29386477-.38135188.67733333.13934809 1.29046286.72178329 1.20755832.38417498-.0546788.6544045-.39299356.63711663-.77293522l4.49650622-.63958522c.08925189.36971022.44308974.61947689.82726472.56479545.5824352-.08255.91157685-.81667878.35630378-1.3606621m-.11006666-5.12621471c-.55280187-.50729356-1.22907684-.193675-1.33737873.35030833l-4.55859598-.46178523c.003175-.55456666-.59654542-.99765642-1.23966016-.61136476-.5376333.57079355-.17603522 1.29716475.41451475 1.35713521.38946664.03915833.73589352-.22683522.81068329-.60289545l4.55859333.46178522c-.00211666.38346856.28398522.71366856.67345186.75318143.59054997.05997046 1.09043782-.57926287.67839164-1.24636475M8.64579519-68.4971132c-.5408083.0236273-.7249583.52846022-.5027083.86112878l-2.55799155 2.09126664c-.28151665-.28398522-.81315185-.20390379-.94368139.32138144.0172773.56514999.5725583.75071022.90381662.47977689.2183712-.17885834.25929166-.49106667.10548144-.7210769l2.55799153-2.09126663c.19473333.1964981.50905831.2187231.72742686.03986477.33125832-.27093333.2599981-.85160643-.29033521-.98107499m8.99653931 21.61716185c.7154333-.28857045.72354543-1.05480377.2667-1.39594165l2.4458082-4.0255454c.513289.24800189 1.1899185-.11218333 1.11618707-.88018143-.29174809-.75141666-1.1260666-.73730643-1.44286015-.2159-.20884356.34395833-.11535833.78316666.20073142 1.01917499l-2.44616275 4.02554805c-.35489354-.17145-.78775186-.05221287-.99694995.29174546-.31679355.52140643.05503333 1.26823786.85654617 1.18109998"/><path d="M13.88489682-51.47558652c.15592953.37006477.55492118.3683.72919163.12805833l2.11490444 1.24213143c-.12523787.26916856.06773333.61841855.46707687.57432045.3887602-.15804356.37500187-.59231212.10089356-.75282689-.18062045-.10618523-.40851665-.0543269-.52916664.11218333l-2.1149018-1.24213142c.08643144-.18626666.02116667-.41063333-.15980832-.51681856-.27375642-.16086666-.65969353.0384519-.60818974.45508333M12.01940979-5.89669997c.5189352.4639019 1.1422935.1647481 1.23648517-.34113522l4.23403955.37323976c.00388938.5147019.56550187.91863068 1.15781661.55244735.49177044-.53622045.14710833-1.205439-.40110831-1.25377044-.36159809-.0321019-.6798045.219075-.74506663.56903143l-4.23403956-.37359166c-.00283104-.35595454-.27234355-.65863787-.63394163-.69073976-.54856854-.04833144-1.00471018.55068522-.6141852 1.16451854m6.83471632-8.75523701c.08149166-.4374462-.28857309-.6790981-.59619618-.56268143l-1.1997954-2.43804808c.28010378-.17286022.31467689-.61347878-.0818462-.81597499-.4557871-.09101666-.70767042.31926477-.55244997.635.10265833.20813977.34537119.29880453.55809618.2183712l1.1994435 2.43839997c-.19367499.11923713-.26987498.36688712-.16721666.57537879.1552231.31573787.63394164.36653787.83996473-.05044546m-11.2574911.09807046c.4113371.01799166.58455187-.352425.43814998-.619125l2.07856656-1.4142852c.19437878.23389166.60254353.20849166.73659997-.18062311.02434166-.42968333-.38382309-.60712878-.65299164-.42403712-.1774481.1210019-.22930642.35489356-.12805833.53939545L7.9906869-15.23790174c-.13440833-.161925-.37112309-.200025-.54892308-.0790231-.26916855.18309166-.25364544.62829809.1548712.76305832m8.60460145.36230453c-.24447498.33090379-.03351476.68121212.2695231.70837689l.015875 2.5121314c-.30233143.03104357-.50870642.38382046-.26035.71190379.34289999.25929166.71754997.01939396.7154333-.30585833-.00132291-.21448712-.16686476-.38805379-.37641475-.4067519l-.015875-2.5121314c.2091981-.02116666.37218142-.19649545.37076855-.41133712-.00211667-.32526287-.3795871-.56021287-.7189602-.29633333m1.83514991-30.08912272c.38805642-.0892519.45437688-.479425.24906022-.69038522l1.57409613-1.85455188c.24165188.16792046.61594997.03915834.64064353-.3584231-.08784166-.40675189-.51434998-.46743143-.7182564-.22718976-.13440833.1583981-.12241212.3901731.01939395.5362231l-1.57374158 1.85455187c-.16721666-.11641667-.39793332-.09066213-.53234164.06808787-.20390643.23988712-.07478977.65122689.3411352.67168712M16.3578698-16.23238317c-.25082499-.35983333-.67627497-.2667-.8071564.02998787l-2.5410582-.84208142c.07196666-.31573523-.21378332-.644525-.6297083-.50588333-.37888332.257175-.26493522.71755.06420643.82655832.21695832.07196667.44838142-.03598333.53904354-.2409481l2.5410582.84208143c-.04974166.21836856.07161477.44308976.2885731.51505643.32914164.10900833.69567685-.19226477.54504163-.6247712M7.55712214-42.97328852c-.3700621.4953-.05679546 1.02340832.39793331 1.06715188v3.77401662c-.45472877.04374356-.76799542.57185189-.39793331 1.06679999.5122333.39334545 1.07773782.03668712 1.07773782-.45226287 0-.32243712-.2469462-.5842-.56162308-.61453712v-3.77401662c.31467688-.03033977.56162308-.2921.56162308-.61453976 0-.48895-.56550451-.84560832-1.07773782-.45261212m12.76597056-1.59279165c-.48507118.66533712-.05926666 1.36383711.54715566 1.41463711l.060325 5.02637683c-.6050121.06561667-1.01388063.7739962-.513289 1.42733976.68897233.51540832 1.43615562.0313981 1.4280435-.61983143-.00494771-.4293288-.33796286-.77399356-.75741474-.80927045l-.060325-5.02637683c.41839355-.04550834.74294997-.39793333.7380102-.82761666-.0077523-.650875-.7665852-1.1168962-1.44250562-.58525833"/><path d="M14.42888013-42.24303853c.83290829-.10336477 1.05551282-.90699165.6706314-1.39347309l3.69675815-3.55000185c.47060641.40463523 1.28269993.21448712 1.41957682-.61348143-.09701212-.87171476-.97789995-1.08973142-1.45661849-.63006022-.31608975.30338712-.34043142.79127878-.07408333 1.12782878l-3.69675814 3.5500045c-.32561476-.27975454-.8142102-.27516667-1.12994805.02786856-.47871854.45966855-.29668522 1.34902309.57044164 1.48131475"/><path d="M18.12422804-43.31371995c-.4205102-.13758334-.70696663.19579166-.6325314.51434999l-2.5601082.86430643c-.1337019-.29845-.5637371-.3901731-.81491663-.02574396-.149225.4377981.22224999.7394231.55386285.62759166.21872044-.0737288.33972498-.30127046.28821854-.52175833l2.5601082-.86430378c.0924269.2067269.3266731.31397045.54539354.24024166.33161286-.11183143.44414809-.5771462.0599731-.83467309"/><path d="M21.03676123-41.5212552c-.1167712-.38735-.51681854-.4279212-.71684353-.20531667l-1.98790444-1.46720452c.15381287-.25646856-.00238125-.62688522-.40745831-.62441666-.40604544.1171231-.43814998.55350832-.18062045.74365643.17003712.12523522.40392877.09701477.54221854-.0567981l1.9879018 1.46720452c-.10618523.17744545-.0642038.40922045.10548142.53445832.25752689.19014546.6653371.03104356.65722497-.39158333M16.4083179-.9934417c-.27058142-.37006476-.71331663-.26281855-.84313973.05009357l-2.67617297-.82091212c.06808788-.33196476-.23812498-.6692212-.66992496-.51470453-.39017044.27798976-.26034999.75635642.08643143.8628962.22859999.06985.4681352-.04797955.55774164-.26458334l2.67617297.82126666c-.0472731.22965833.08501856.46143333.31361855.53163522.34642687.10618523.72248973-.21695833.55527307-.66569166m.59442876-36.68394953c.38417498-.4416769.12523787-.96237689-.30127044-1.03540189l.26422878-3.56481851c.43285831-.00918105.7655295-.4861269.45084998-.97966476-.45649354-.40745833-1.01529352-.11006667-1.04951208.3517212-.02256895.30444546.19226212.56902879.4871852.61982879l-.26423142 3.56446662c-.29915377.00669396-.5506852.23671477-.5732621.54116022-.0342212.46178787.47448521.83819999.98601208.50270833"/><path d="M18.92891323-41.78830974c-.40886854.68615453.06455833 1.32291665.6551083 1.31797688l.50764808 4.85104804c-.5789083.1171231-.91051851.83819999-.36829998 1.42486854.71155186.43638787 1.39029539-.09807045 1.32432683-.72636855-.04339166-.41451477-.39581665-.71790189-.80397875-.714375l-.50764808-4.85104803c.40004998-.08113713.68227307-.45084735.6388814-.86536212-.06561666-.6282981-.84031662-1.01106021-1.4460378-.43673976M11.0887803-3.38315833c.5496295.0635.81738783-.41663143.64664163-.78845833l2.92064796-1.69791854c.23847688.33231667.7881064.3369019 1.00506472-.17215643.07372878-.57326212-.45684808-.85019355-.83502496-.63041212-.24976666.14499167-.34113786.454025-.22295643.71084545l-2.92099985 1.69827308c-.1647481-.22965833-.47836664-.30303787-.7281333-.1580462-.37817687.22013333-.40004998.81809165.13476022 1.03787309"/><path d="M20.56509648-34.05436174c.01693334-.69038786-.60995186-.96908142-1.05233517-.71472953l-2.4398101-3.43817041c.38629164-.33408144.33019998-1.01776476-.327025-1.22943143-.7210795-.02716477-1.0054166.6632231-.6893295 1.10878143.20849166.29386212.60254618.37288522.9087564.19685l2.4394582 3.43852495c-.26705188.23071666-.32243975.62900189-.1139481.92251211.31573786.44555833 1.06150828.40498977 1.27423327-.28433712m2.01224347 5.4726416c-.06773333-.55703787-.6043083-.7073212-.93027496-.45085l-2.36537223-2.47791284c.27128521-.31397045.14569545-.85689545-.40745832-.95002878-.58278974.06279356-.73024996.65157879-.42403975.97225378.20214166.21166667.5284602.22895454.7538852.05185833l2.36537488 2.47791285c-.18767689.21695833-.18556022.54362878.01658937.75529545.30656211.320675.90099352.20073143.99130374-.37852879M13.49931161-9.92789158c.51188141.38205833 1.05727495.05856287 1.10243138-.41133712h3.8992517c.04515644.4699.59054997.79339545 1.10243138.41133712.40604544-.52951856.03739356-1.11336666-.46743141-1.11336666-.33337498 0-.6039564.25470644-.63499997.57996666H14.601743c-.0310462-.32526022-.30162498-.57996666-.63499997-.57996666-.50482497 0-.8734795.5838481-.4674314 1.11336666m9.18739118-32.54022005c-.10900832-.42439166-.54010451-.4861269-.76623329-.2543519l-2.08456467-1.67710641c.17815454-.27058143.0254-.67839166-.41239543-.69391476-.44485452.10830454-.49882952.57890832-.22895453.7962212.17815453.14322689.43250641.12311856.58878784-.03704167l2.08456202 1.67710377c-.12311855.187325-.08819356.43991477.08995833.58314166.27022688.21731287.7182564.06385454.72883973-.3940519"/><path d="M14.82751988-12.905687c-.54927497.31714545-.46778331.94191665-.0567981 1.1669871l-1.52823326 3.55847117c-.44661664-.14322954-.95567495.22789356-.8075083.84454999.32385.57820189 1.00153783.47060379 1.19944615.00986896.1305269-.30409356.00388938-.650875-.28045831-.80680189l1.52823325-3.55811662c.30867878.0987769.64734543-.04797954.77787496-.3520731.19826022-.46072689-.1901481-1.02623142-.8325564-.86289355M7.54936191-26.8044266c.44838142-.72389999-.04515643-1.41111021-.6745102-1.41604998l-.45437951-5.17913137c.61912497-.1146519.98530828-.87700378.41804164-1.51200378-.7503583-.47766287-1.48307682.0797269-1.4245166.75071022.03880644.44238333.4092231.77187689.84454996.77540643l.45402498 5.17912873c-.42791854.079375-.73518709.46848976-.6963833.91087309.05891477.67063143.8773583 1.09219999 1.53317303.49106666m5.79190615-7.13493135c.61171663.50341477 1.30668706.13370454 1.38994349-.44591022l4.83234976.22648333c.028575.58490643.68579996 1.01776476 1.3419666.57361666.53410376-.63253143.11112499-1.37759809-.51470188-1.40687688-.41274997-.01939396-.7627064.28081023-.82020829.68191856l-4.83234975-.22648334c-.01976438-.40463522-.34043142-.73624809-.7531814-.75564999-.62582687-.02928143-1.11654161.6731-.64381853 1.35290188m-4.75791453-8.85507224c.3093852-.28751477.16333522-.68086287-.13723144-.76552953l.46143331-2.53647043c.31114999.02611438.58596475-.29033787.39793332-.66851476-.29633332-.3266731-.71966663-.15628144-.77963709.17250833-.03915833.21660644.09454356.4226269.30232878.48154166l-.46143331 2.53647307c-.21484166-.01833562-.41274998.1273519-.4522602.34431023-.05961857.32843522.27657687.63711666.66886663.43568143m6.11258112 7.32931014c.48647877-.3838231.31961666-.97648976-.10971476-1.1362981l.97578328-3.65548328c.45190831.07514167.89182306-.3552481.6614583-.93062688-.39475831-.51329166-1.0343435-.3139731-1.1606397.15945643-.08360834.31256023.08784165.63006022.3848814.74047878l-.97613517 3.6554833c-.31220832-.05185834-.61912497.13793522-.7023814.45014355-.1266481.47342953.32878975.96519999.92674805.7168462"/><path d="M15.65584294-12.50457868c.5383371-.01939395.72566209-.52069999.50694164-.8533712l2.56222487-2.06304353c.27834165.28504356.80821209.20884356.94226852-.31291477-.01304396-.56303332-.56444354-.75176855-.8964083-.48436212-.21872308.17603523-.2617602.48683333-.11041855.71684356l-2.56257941 2.06304353c-.19226212-.19685-.50517687-.22154355-.72389996-.04515379-.33196211.2670519-.26528712.84596022.28187119.97895832m-1.71767491 8.34777869c.27904544-.69461855-.25223787-1.21531855-.79833784-1.12465642l-1.17474994-4.41748063c.51893785-.19297121.7210795-.90840453.13405643-1.37301286-.72248973-.30056666-1.27282304.29315833-1.12077494.86501286.10054166.37747046.4709583.60712879.8484314.54468712l1.17474993 4.41748328c-.35877498.13335-.5658564.51646666-.46566664.89393976.15204545.57220378.92498329.81385832 1.4022916.1940269M5.8853101-41.77984308c.41521854.15663333.71719542-.16474545.65687042-.48718522l2.60420631-.752475c.12065.3051519.5475102.415925.81526852.06208978.16933333-.4318-.18944166-.75071287-.52669543-.6533462-.22260453.06420644-.35418975.28680833-.31220832.50976476l-2.6042063.752475c-.08360833-.21131477-.31326665-.32914167-.53586854-.26493523-.33725642.09736666-.4709583.55844545-.09736666.83361211M7.85310356-3.0959981c.27446022.6247712.95214806.61136476 1.24142494.19826287L12.71931998-.8445686c-.20566855.46072689.13123333 1.04880832.8078602.96308332.65652117-.27834166.62124163-1.0152962.15204809-1.28128976-.30973976-.17533143-.69567686-.08078522-.89570185.20496477L9.15873493-3.01133144c.14216856-.31855833.02505604-.69814545-.28469165-.87347689-.46954808-.26599355-1.1197166.0829019-1.02093972.78881022M20.2221965-31.44662844c-.33584354.52916666.02188104 1.03892878.48506854 1.04774999l.2913962 3.81564351c-.45649355.079375-.73236664.63746856-.3203231 1.10948522.54856854.35771666 1.09255185-.04656667 1.05480639-.54080833-.02505604-.32596666-.29492309-.57149999-.61524618-.57784999l-.29139355-3.81529162c.31573522-.05503333.54504164-.33866666.51999354-.66463332-.03774546-.49424166-.6364102-.81138712-1.12430184-.37429546m1.78364347-15.76316836c-.20143522-.3580712-.60642497-.30938787-.75529542-.04480454l-2.29340821-1.01388332c.09560189-.28786667-.14146477-.62018333-.54151475-.52846022-.37676665.2060231-.31150188.64523142-.0144727.77646476.19579165.08678333.42121664.00706437.52422686-.17603788l2.29340822 1.01388332c-.0659712.19932121.02681023.41945454.22260189.50623787.29703975.13123333.66569163-.11641666.56444353-.5334M5.65953057-19.1212786c.66357497-.22683786.7083795-.92180831.3104462-1.25377308l2.41546843-3.53377496c.45402498.25011856 1.08514351-.04374356 1.05586472-.74400832-.2282481-.69638332-.98566283-.7239-1.29857493-.2663481-.206375.30197954-.142875.70520453.13229166.93486286l-2.41582299 3.53342042c-.31397309-.17286023-.7126102-.085725-.91898518.21625454-.31291476.45755189-.01198562 1.15358331.71931209 1.11336665m18.68310929-23.22970994c-.40569355-.30303787-.83855186-.04656666-.87453519.32631856h-3.09315363c-.03563144-.37288522-.46848975-.62935643-.8741833-.32631856-.32243975.42015833-.02998787.88335378.37076855.88335378.26423142 0 .47871854-.20249356.50341475-.46002045h3.09315363c.02468562.2575269.23953522.46002045.50376664.46002045.40040188 0 .6928564-.46319545.37076855-.88335378m-1.84008704 1.46120377c-.48118974-.35983332-.99483328-.05503333-1.03716661.3869981h-3.66888959c-.04233333-.44203143-.55562497-.74683142-1.03716661-.3869981-.38205831.4981231-.0352769 1.04775.43991475 1.04775.31361854 0 .56797307-.24024167.59725186-.5457481h3.66888959c.02927879.30550643.28398521.5457481.59760376.5457481.47483975 0 .82197306-.5496269.43956285-1.04775M19.8172094-23.18845354c-.6738064-.17180454-1.08832116.38135189-.93803783.87312499l-3.9246517 1.62312877c-.24129999-.4543769-.92498329-.55280189-1.28093516.04480454-.18838333.70202689.42580187 1.13629544.93415374.92604166.33513975-.13864167.50129808-.508.39758142-.84807954l3.9246517-1.62312877c.16651286.31397046.54504164.45825833.88053329.31961667.50799997-.21025644.6360583-.95144166.00669395-1.31550832m-1.74623933-12.04171652c.38382044.28680833.79304353.04409546.8269102-.30868143h2.92558507c.03386667.3527769.44308975.59548976.8269102.30868143.30479998-.39722953.0282231-.83537953-.35066022-.83537953-.24976665 0-.45296664.19120644-.47624998.43532954h-2.92558508c-.02328333-.2441231-.22613142-.43532954-.47624997-.43532954-.37888332 0-.6554602.43815-.35066022.83537953m-7.74629581 17.97120357c-.18203333.82056286.50164997 1.30033975 1.09008328 1.09996286l2.11031656 4.6792435c-.53974998.3083269-.6328833 1.13806022.10265832 1.54516665.8551333.20108333 1.35643137-.55738976 1.08338139-1.16346021-.18026856-.3996981-.6328833-.58631666-1.03963518-.44802954l-2.11031656-4.6788916c.3732371-.2134288.53269354-.67592046.35242498-1.07597045-.27304998-.6057212-1.17333971-.73201476-1.5889128.04197879"/><path d="M19.7477113-16.1861684c.15134166-.53269356-.27975189-.87453522-.6745102-.76552689l-1.20791281-3.15842116c.36688975-.18203334.46002308-.7242519-.00812271-1.02023332-.55456664-.1651-.91334162.314325-.75706284.72354809.10301287.269875.39369998.4099269.66639807.33443333l1.20791017 3.15841852c-.25364544.12594167-.3764121.42403977-.27340188.69391476.15663332.4092231.7436564.52705 1.04669161.03386667m-1.7194291-13.0453684c-.47589543.63711666-.073025 1.31621211.5122333 1.37265832v4.85492683c-.5852583.05609167-.98812873.73554166-.5122333 1.37230642.65934164.50588333 1.3864166.04691856 1.3864166-.58208332 0-.41451477-.31749999-.75141666-.7221352-.7902231v-4.85492683c.40463521-.03880644.7221352-.37570833.7221352-.790575 0-.62864998-.72707496-1.08796664-1.3864166-.58208332M7.0530036-36.24440792c-.23671476.33655-.01833562.6822731.2853981.70273333l.07161211 2.51142497c-.30197688.0377481-.5002371.39511287-.24482688.71754999.34854355.25188333.71790186.00388937.7087314-.3213788-.00600604-.21484166-.17533143-.38417499-.38523331-.39828786l-.07161477-2.51177687c.20849166-.02611437.36794809-.20496476.36159809-.41945189-.00918104-.32526287-.39193786-.5520981-.72566474-.28081287m12.52114104-10.41823055c.0081227-.42262954-.37641475-.59125643-.64628974-.4342712l-1.50459538-2.09655831c.23530188-.20566856.19861211-.62371023-.20425833-.75141666-.44132497-.0141023-.6131295.4092231-.41839618.68086287.12876476.17921022.37006475.22612878.55703784.117475l1.5042435 2.0969102c-.16263144.14216856-.19543977.38593976-.066675.56514999.19473332.27163977.65087496.244475.77893329-.1781519M7.32676003-31.4804951c-.43109619.57679166-.0659712 1.19168332.46354997 1.24248331v4.39455185c-.52952118.0508-.89464616.66604355-.46354997 1.24248331.59654542.45790643 1.25482872.04233334 1.25482872-.5266981 0-.37570832-.2875121-.68050832-.65369542-.71578521v-4.39455185c.36618331-.03527954.65369542-.34007953.65369542-.71543332 0-.56938333-.6582833-.98460453-1.25482872-.52705M5.84615177-20.14997858c.123825.46954545.6018371.53516212.85125185.2765769l2.32233511 1.84502687c-.19543711.3012731-.02362729.75247499.46178785.76658786.49247688-.1231212.54927498-.64523143.24870833-.88406286-.19861477-.15769167-.48048331-.1340538-.65263974.04480454L6.75526005-19.9460748c.13511212-.20849166.09454356-.48824356-.10371666-.64593522-.30092119-.23918333-.79692496-.06561667-.80539162.44203143m9.26464953 8.73336657c.64840376-.50517954.43215187-1.29257953-.1361731-1.50847952l1.3257397-4.84187494c.5986621.10371666 1.18603707-.46355.88547042-1.22872499-.5192871-.68438711-1.36983516-.42545-1.54163705.20178977-.11324166.41380833.1114769.83643522.50447044.98566022l-1.32573706 4.84152304c-.41380831-.07161477-.8226795.1778-.93592116.59125643-.17180189.62723712.42827308 1.28340378 1.22378781.95884999"/><path d="M16.96147167-21.6559869c-.68297687.187325-.77117042.88547045-.39052498 1.24495189l-2.6557101 3.41312495c-.44203142-.28045833-1.09678517-.02328333-1.1105435.68474166.18661855.71613976.9489704.79128143 1.29292872.34925.22683786-.2917481.18767953-.70202689-.07549356-.95073522l2.6557101-3.41312496c.30550642.1940269.71296473.1308788.9401545-.16086666.34360377-.44203143.08360832-1.16240453-.65652118-1.16734165m-5.56295162-11.76902106c.80644996.21484166 1.31092304-.44344166 1.13700184-1.03540189l4.73004597-1.89829808c.28363332.54786477 1.10313517.67486477 1.53740371-.03774545.23495-.83996476-.4963583-1.36913142-1.10913327-1.1232462-.40392878.16227954-.6081871.60325-.48789165 1.01282499l-4.73004332 1.89829808c-.19579166-.37923523-.6484064-.55668333-1.05233518-.39440643-.61277497.24553333-.7757583 1.13347498-.02505604 1.57797498m-2.26447338-4.35045374c-.33019999-.27128787-.70520186-.07161477-.75000376.2413l-2.60843964-.1202981c-.01553104-.31573523-.37076854-.5489231-.7246064-.30903334-.28821855.34148977-.05961856.74365643.27834166.7591769.22260453.01023937.41169164-.15204547.4423833-.3683l2.60843965.1202981c.01092729.21836856.18414999.39722689.40710641.40745833.33760832.01553104.60219164-.36371477.34677878-.73060189m15.10453257 1.98790187c-.25893976-.390525-.71613974-.3019769-.86359996.01198563l-2.69522297-.96449355c.0850212-.33584356-.21237044-.69461856-.66039732-.55668333-.41169164.26564166-.30127309.76023522.0479769.88511855.23001021.08255.48013141-.02681023.5820833-.24376856l2.69522032.96414166c-.05856022.23212689.06526477.47554355.29562953.55774165.34889544.12488334.74824163-.18767689.5983102-.65404999m-8.80639122-3.08044846c.25788142.36406666.69038784.2659962.82126662-.03668712l2.59291654.83819999c-.07126023.32208522.22224999.65440188.64452496.51046855.38382309-.26493522.26423143-.73236665-.07161212-.8410231-.2215462-.07161211-.45614164.03986478-.5468064.24906288l-2.59291654-.8378481c.04938977-.22295643-.0758481-.4504981-.29739165-.52211022-.33584355-.10865643-.7062602.2003769-.54998141.63993712M10.27950988-20.94126c.21942688-.59901667-.24659166-1.02905189-.70943784-.93768333l-1.11583517-3.73274162c.43709164-.1778.59090186-.79269165.07831666-1.17298521-.6230064-.2374212-1.07667684.282575-.93203973.76587878.09525.31891287.41698332.50517954.7369545.44203143l1.11583518 3.73274162c-.30233142.12311856-.46884164.45508333-.37359165.77399355.14428523.48330644.80891853.6692212 1.19979805.12876477m.93627041 13.34099794c.46637308-.2155481.44697118-.72566476.13158787-.93768332l1.49577682-2.75801663c.34960188.14816666.78775185-.11359621.71366852-.6219481-.21872044-.49036022-.77328708-.4536731-.96696207-.09630833-.12770643.23565643-.05115454.52458143.16686211.67133522L11.26128862-8.5848666c-.24200378-.10230379-.52599164-.00881062-.65369543.22683787-.19367499.35701023.07796213.84172689.6081871.75776666M8.40378876-9.08722038c.2504731-.39828787-.01939395-.77999166-.36724164-.78563787l-.22965833-2.8649083c.3425481-.0606769.54821664-.48083522.2374212-.83396665-.41274998-.2674038-.8202083.0377481-.79057496.4088712.01976437.2448269.22295378.428625.46354998.43215189l.22965832 2.8649083c-.23706666.04233333-.40851665.25611666-.38876286.50094355.02963333.3707712.48048331.60748333.8456083.27763788"/><path d="M10.5126951-21.3892869c.5411602.066675.80856662-.40498976.6427602-.77223142l2.89066272-1.65382309c.23283332.32914166.77469996.33760833.99165828-.16262879.0765519-.5647981-.44414808-.84137499-.81879806-.62723976-.24694355.14146477-.33937309.44520643-.22471855.69920643l-2.89066273 1.65382044c-.16086666-.22754167-.46954543-.3019769-.71684353-.16086667-.37429808.21448977-.39969808.80362953.12594166 1.02376286m.68579997-2.43981284c-.14781476-.61312689-.76693973-.7112-1.09749161-.38241023L7.13626004-26.6710766c.2621121-.38558523.05115189-.97578332-.5789083-1.00788522-.64276285.1464019-.73060451.82302878-.34678143 1.14158711.25329355.20990454.6198314.1866212.8484314-.04056856l2.9647434 2.45921474c-.18097498.2667-.13617309.63147045.1171231.84137499.38382045.31855833 1.03257875.10724356 1.05762685-.5517462m4.93959331-1.49436665c.43920831-.58772689.06702954-1.21496665-.47272043-1.26682498v-4.48062874c.53974997-.05185833.91192874-.6790981.47272043-1.26682498-.60854163-.466725-1.27952493-.04339167-1.27952493.53692689 0 .38311666.29280642.69391476.66639807.7298981v4.48062873c-.37359165.03598333-.66639807.34678143-.66639807.7298981 0 .58031855.6709833 1.00365188 1.27952493.53692688"/><path d="M15.85621983-31.35384965c.54504163.41451477 1.13312304.07232121 1.18568516-.43109355l4.18076836.0345731c.0440981.50411856.6261814.85619166 1.17827948.45085.4399121-.56409166.05009356-1.1934481-.49142118-1.19803332-.35736211-.00283104-.6494621.26811022-.68579997.61630188l-4.18076835-.0345731c-.03069167-.34889545-.31855832-.62441666-.67556853-.62759166-.54151474-.00423333-.94191662.6184212-.51117497 1.18956665M17.2031262-30.151583c-.29245453.39123144-.04480454.80856666.31467688.84278787v2.9823833c-.35948142.03457045-.60713141.45190832-.31467688.84313711.4049871.3107981.85160374.028575.85160374-.35736212 0-.25505833-.19508522-.46178787-.44379354-.485775v-2.98238329c.24870832-.0236273.44379354-.23071666.44379354-.4854231 0-.38629166-.44661664-.66816022-.85160374-.35736476m-.9623795 1.88594997c-.40957498-.23777045-.78422496.0472731-.77716852.39758143l-2.87337486.3337269c-.07337689-.34254546-.5030602-.53445833-.84737306-.20884356-.25399999.42474355.06738144.82338332.43956285.78034355.24553333-.028575.42297878-.23953523.41839355-.48154166l2.87337485-.3337269c.0508.23671477.27199165.40146023.51717308.37288523.37217877-.04303712.59407687-.504825.24941211-.86042499m6.67279133-14.55419717c-.77999163.3623019-.74471473 1.21637688-.21625188 1.56986021l-2.4906101 4.62421017c-.58596475-.24659166-1.31833138.193675-1.19203782 1.04457499.36865452.81985643 1.29645827.75564999 1.61924992.15663333.21272499-.39511022.08290189-.87876855-.28222045-1.12324355l2.49025557-4.62421017c.40534164.17074356.88088783.0127 1.09361282-.38241287.3224371-.59901666-.13476287-1.40899354-1.02199806-1.2654121M21.5447612-23.46432664c-.6230064-.08149167-.93521472.45896476-.74753783.88370832L17.4525383-20.703135c-.26493522-.38135189-.88899996-.39616856-1.14370374.1778-.09348787.64981666.50411854.97331476.93697685.73024999.28574999-.16051477.39511021-.50941022.26564166-.803275l3.34468506-1.8774833c.18309165.2638769.5379852.3520731.82373518.19191023.43321286-.24341667.46813786-.92180833-.13511211-1.18039355"/><path d="M20.03734272-23.24242854c-.38523331-.5552731-1.04175449-.41310454-1.24424804.04374356l-3.9147748-1.30598331c.11218332-.48683333-.32737688-.99483333-.96872685-.78246022-.5852583.39581666-.41098786 1.10525188.09630833 1.2745852.33443331.1114769.69144352-.05397499.83149541-.36971022l3.9147748 1.30598332c-.07761022.3369019.10865644.68332878.44308975.79516022.50694165.16898144 1.07279805-.29386477.8420814-.96131855m-6.58988944 6.61458325c.30409355-.40710643.04656666-.84137499-.32737688-.87735832v-3.1026814c.37394354-.03598333.63147043-.4702519.32737688-.87700643-.42156854-.32349545-.88617685-.02998523-.88617685.37182954 0 .26493523.20284545.48048333.4614333.50517689v3.1026814c-.25858785.02505604-.4614333.24024166-.4614333.50517689 0 .40181476.4646083.69532499.88617685.37218143"/><path d="M12.63430143-24.43552473c.60183709.25823333 1.06785827-.19579167.9997704-.67521666l3.88725814-.93768332c.1580462.45755453.77999163.64911286 1.19803327.14499166.27763786-.62547499-.23036211-1.11901021-.73377686-.99765378-.33196475.0800788-.5404564.39969546-.4935352.73095379l-3.88725814.93768332c-.10936287-.31644167-.44026664-.50552879-.7722314-.42545-.50376664.12170833-.73060185.79233976-.19826021 1.22237499"/><path d="M15.6389096-23.73878687c.4843621.04409546.7094352-.3834712.55139165-.70626286l2.52941654-1.55363332c.21660378.28680833.6995583.2794.8791204-.17250833.05256478-.50517689-.41945187-.73730378-.74718329-.53586855-.21589999.13264356-.28998332.4060481-.18062045.62900188l-2.52941653 1.55398786c-.14993143-.19826287-.42686286-.25611666-.64311474-.1234731-.32737688.20143522-.33408142.72707499.14040643.90875642m-.08325644 13.3977934c-.27587309.35912689-.05150643.7489481.28116476.78528332l-.03598333 2.76401474c-.33372953.02751666-.56797308.41133712-.30197953.77752044.37182953.29280644.78916473.03668978.79374996-.32102689.003175-.23636022-.17532878-.43038976-.40534164-.45543522l.03633787-2.76401474c.23036211-.01905.41380831-.20849166.41698331-.44485189.0045773-.35771666-.40604808-.62441666-.7849314-.34148976m-4.48874333-22.00521829c.29104165.58067045.93486018.53481022 1.1895666.1277038l3.54682672 1.7755314c-.17321476.4480269.17568333.9906.81526852.8759481.61030641-.29668787.54116285-.99553976.0818462-1.22554998-.30303785-.15169621-.66533973-.04268788-.8417295.23847689l-3.54647481-1.77553142c.11959166-.30973712-.01023938-.66463332-.31326665-.81632688-.45931665-.23001023-1.06044995.13335-.93203708.7997481"/><path d="M17.39644664-25.04688685c.24800453.50905833.80962496.47554356 1.03610828.12347046l3.07445818 1.58326664c-.1552231.38876287.14358143.86571666.70202686.77223143.53551664-.25258977.48189619-.86289355.08360833-1.06785832-.26246665-.13546666-.5796121-.0440981-.73589352.19931856l-3.07445818-1.58326665c.1072462-.26916856-.00238125-.57996666-.26528711-.71507878-.39828786-.20531666-.92604162.1054788-.82056284.68791666m5.58482472-7.10071279c-.34572308-.25823333-.71472686-.03951022-.74506663.27834167h-2.6363082c-.03033712-.3178519-.39934354-.536575-.74506663-.27834167-.27446021.3580712-.0254.75282954.31608976.75282954.2250731 0 .40816475-.17250834.42897687-.39193787h2.6363082c.02116667.21942953.20390643.39193787.42897688.39193787.34148975 0 .5909045-.39475833.31608975-.75282954m-13.8017243 4.35222116c-.46354998-.06491288-.6999102.33584356-.56267877.65334355l-2.50472297 1.37724355c-.19473333-.28575-.65969353-.30091856-.85301663.12523787-.07408333.48365833.36900642.72848522.6932083.54997878.21413522-.117475.29774355-.37711855.2032-.59654545l2.50436843-1.37724619c.13476287.19755644.39863975.2659962.61242307.14816667.32455642-.1785038.35489355-.68368333-.09278143-.88017878m10.42034947-17.79234788c-.47307497.04868333-.60854163.5012981-.39581664.78140453l-2.13465823 1.96744164c-.26176022-.2342462-.72389996-.1361731-.81103519.33125833.0448019.49494545.54151475.62865.81773973.37359166.18238522-.1679231.20178712-.4441481.05503333-.6378231l2.13430369-1.96779353c.18132953.1622769.45790641.1651.64029163-.00283104.27657953-.25505833.1834462-.76058976-.30585832-.84525643m-5.0669452 33.53541585c.37994165-.13440833.4014602-.53445833.17074355-.72284166l1.36807304-2.04752308c.26246665.14146477.6240621-.03175.60254353-.43426855-.13546666-.39899167-.57114807-.41028144-.74859352-.14534357-.1167712.1749769-.07761287.4064.08184355.5369269l-1.36807303 2.04716853c-.18132689-.09771856-.41027877-.0451538-.52704997.1298231-.17744545.26528977 0 .663575.42051285.63605833"/><path d="M6.35168053-31.29175988c-.3189102.39228977-.08078522.83396666.28963143.88511856l-.12629356 3.0832795c-.37323975.02045229-.64664163.441325-.36089165.85830832.40534165.33831212.87912042.06561667.89534996-.33372954.01092729-.263525-.18203333-.48542045-.43814998-.52069999l.12629356-3.08327686c.25823332-.01410229.46848974-.21978143.47942497-.48330643.01621896-.39934356-.43356475-.70978711-.86536473-.40569356m1.73707946 13.0104434c.29527498-.39546212.04515379-.81703332-.31785453-.85195832v-3.01342686c.36300832-.0345731.61312951-.45649355.31785453-.85160642-.40922309-.31397046-.86042496-.0289269-.86042496.3612462 0 .257175.19720189.46637045.44837877.49036022v3.01342686c-.25117688.0239977-.44837877.23318787-.44837877.49071476 0 .3901731.45120187.67486477.86042496.36124356m1.92475369-17.86396c-.21448711-.3330231-.6014852-.263525-.72954352-.00026458l-2.26518512-.84596287c.07584546-.2829269-.1707462-.58913712-.55103974-.47801212-.35066021.2194269-.2631731.63852689.02998523.74788712.19367499.0723212.40604808-.01693334.49459618-.19896667l2.26483322.84596287c-.05221287.19543712.04974166.40251855.24306211.47483712.29351286.10936287.63429618-.1499288.51329164-.54539356m9.11119121-12.89129094c.32208786.24059356.66569163.03668712.69426663-.25929166h2.45603965c.028575.29597878.37217877.49988522.69461853.25929166.25576475-.33372954.02362729-.7013231-.29456855-.7013231-.20990453 0-.3802962.16051477-.40004998.365125h-2.45603965c-.01976437-.20461023-.19014545-.365125-.40004998-.365125-.31785188 0-.5503333.36759356-.29421665.7013231m-.90099352 16.78198881c.49565187.0049477.6896814-.4480269.50235642-.76341022l2.44510177-1.78752498c.24341665.27410833.73412875.22683523.87947495-.2472981.01198563-.51822878-.4868333-.71543332-.80327496-.48401022-.2088462.1527519-.26176286.43673976-.13229166.65475643l-2.44474987 1.78752497c-.16862689-.18944166-.45508331-.225425-.6642814-.0726731-.31644166.2314231-.27975189.76658522.21766475.91263522m-1.77447301 1.27423332c.10618787.4914212.5976064.58137953.8671295.32596666l2.31492678 2.01612497c-.21625189.30233144-.05961856.77646476.44167687.81421287.51505641-.1044231.5983102-.64170454.29844998-.90275832-.19790832-.17215644-.4903602-.16086667-.67697875.01621895l-2.31492943-2.01647687c.14957954-.2088462.12100454-.50023976-.07690379-.6727481-.29986286-.26105643-.82056283-.104775-.85337116.4194519m6.16196825 3.60857266c-.3919352-.29315833-.81032875-.0448019-.84490185.31538333h-2.98873319c-.03457045-.36018522-.45296664-.60854166-.84490185-.31538333-.31150188.40569356-.0289269.85336855.35842309.85336855.25505832 0 .46249164-.19543712.48647876-.4445h2.98873319c.0239977.24906288.23142309.4445.4868333.4445.38699809 0 .66957308-.447675.35806855-.85336855M8.60593042-25.85051638c.42298142-.00211667.5820833-.3908769.41874808-.657225l2.06198513-1.55574997c.21131476.23071666.62864997.18415.7468314-.22225.00351896-.44202879-.42439165-.60360189-.69144353-.40216666-.17603787.1329981-.21731286.37570833-.1044231.55985832L8.97599517-26.5722997c-.14640189-.15945379-.39123142-.18661856-.56726664-.05362045-.26705188.20143522-.22895188.65722499.19720189.77540378"/><path d="M15.85621983-24.36708496c-.27693143-.5972519-.93062685-.57079356-1.20156017-.16651023l-3.5383627-1.91029164c.18944166-.44873333-.14710833-1.00964999-.79868708-.91334166-.62794618.28151666-.57961475.99201022-.12135644 1.23930832.30233143.16333523.67274807.06420379.86042496-.2151962l3.53800816 1.91029164c-.13088144.31009166-.01023938.67415832.29209998.83714165.45825831.24765 1.0787935-.1019519.96943329-.78140188"/></g></svg>