<svg xmlns="http://www.w3.org/2000/svg" xml:space="preserve" viewBox="0 0 33.335464 91.199921"><g fill="#231f20"><path d="M24.39447 66.39624638c-.78027.0427-1.03839.77473-.71192 1.25107l-3.65987 3.05897c-.41112-.40592-1.17716-.28137-1.35757.47843.034.81565.8382 1.07482 1.31212.67861.31294-.26125.36672-.71296.14121-1.04255l3.65987-3.05898c.28414.28068.73829.30775 1.05088.0465.47392-.39621.36186-1.23372-.43472-1.41205m-6.72473.81531c-.52249.17035-.56517.7147-.25708.97941l-1.9335 2.74186c-.35284-.20122-.8507.0222-.83578.57142.17104.54817.76466.57835 1.0148.22343.16515-.23453.12004-.55094-.093-.73413l1.93314-2.7422c.24425.13912.55754.0752.72268-.15891.25049-.35526.0226-.90377-.55129-.88088"/><path d="M17.04802 66.51108638c.0149.38823.37678.5225.61617.36429l1.49114 1.84398c-.20504.20088-.14953.58286.2269.67827.40558-.01.54088-.408.34798-.64669-.12767-.15752-.35179-.18805-.51728-.0784l-1.49115-1.84399c.1419-.13912.1589-.36464.0316-.52215-.19325-.23869-.61027-.18977-.70533.2047"/><path d="M14.41891 70.46897638c.70984-.22725.77194-.96519.35562-1.32635l2.64194-3.70601c.47739.27582 1.15462-.0236 1.13796-.76882-.22793-.74488-1.03284-.78998-1.37492-.31016-.22585.31676-.16688.74661.12108.99641l-2.64194 3.70601c-.32994-.19082-.75564-.10617-.98149.21024-.34209.48017-.0368 1.22609.74175 1.19868m16.38423 11.2464c-.19568-.47669-.70741-.47843-.93327-.17208l-2.69814-1.61536c.1634-.34381-.0802-.79379-.59258-.7414-.50064.19809-.48745.75493-.13773.96414.23036.13808.52318.0739.67965-.13808l2.6985 1.61535c-.11311.23766-.0316.52631.19914.66439.34937.20921.84618-.0423.78443-.57696m1.86584 2.57256c-.53186-.085-.81253.37053-.66196.73933l-2.9129 1.52757c-.21789-.33341-.75217-.36116-.98462.12455-.0961.55476.40835.84654.78547.64878.24876-.13045.3511-.42709.24702-.68208l2.91256-1.52758c.15092.23036.45275.31502.70152.18457.37747-.1981.42395-.77854-.087-1.01514m-5.67836-7.08208c-.64184-.0114-.89719.57279-.65814.98253l-3.18179 2.28806c-.31259-.35699-.94784-.30079-1.14108.31122-.0208.67062.62275.93083 1.03492.63419.27165-.19532.34278-.56204.17763-.84549l3.18179-2.28806c.21614.24667.58667.29593.85867.10061.41182-.29628.37019-.98913-.272-1.18306"/><path d="M26.5736 72.49163638c-.36152.64357.0913 1.22054.63663 1.2018l.58425 4.46928c-.53186.12212-.82086.79622-.306 1.32531.66751.38614 1.28159-.12386 1.20596-.70291-.05-.38163-.38268-.65363-.7598-.64079l-.58424-4.46928c.36775-.0843.61929-.43263.56933-.81461-.0756-.5787-.80005-.9135-1.34613-.3688m5.85565 14.3588c-.3237.30253-.16966.71469.14572.80281l-.4774 2.66137c-.32647-.0267-.61408.306-.41598.70186.31156.34209.75529.16203.81739-.18249.0406-.22759-.10026-.44338-.31814-.50445l.47738-2.66136c.22552.0188.43299-.13497.47358-.36221.0622-.34451-.29143-.66786-.70255-.45553m-13.93553-10.88212c.12663.83335.93917 1.03493 1.41725.63525l3.66369 3.61407c-.39309.48363-.18042 1.29339.65432 1.40858.87255-.12109 1.06753-1.01168.59292-1.47971-.31294-.30877-.80351-.31987-1.13415-.0434l-3.66368-3.61442c.272-.3341.25396-.82467-.059-1.13345-.47461-.46803-1.36208-.2609-1.47137.61304m1.9675-3.32957c.20434.3348.58945.27443.72267.0166l2.22423.88955c-.0815.27859.15612.58771.53499.48606.35248-.2092.27546-.62657-.0125-.74176-.19014-.076-.40281.008-.49474.18596l-2.22423-.88955c.0562-.1922-.0399-.39967-.23003-.47565-.28796-.11518-.63143.13391-.5204.52873"/><path d="M24.63351 79.27326638c-.66717-.1929-1.09841.34555-.96449.84098l-3.9683 1.49427c-.2262-.46073-.90551-.58113-1.27951.004-.21059.69457.38823 1.14767.90239.95408.33896-.12768.51659-.49092.42396-.83335l3.9683-1.49461c.15647.31883.52943.47461.86839.34728.51416-.19359.66543-.92945.0493-1.31247m-3.06903-8.5486c.25813.33202.66127.22169.7716-.069l2.4768.68069c-.0534.30635.23661.60715.62831.45344.35041-.2654.21822-.70046-.1027-.78859-.21163-.0583-.42778.0566-.50445.25743l-2.47645-.68035c.0368-.21197-.0906-.42118-.30219-.47912-.32057-.0881-.65676.21823-.49092.62554"/><path d="M23.92923 79.81102638c-.54435-.46351-1.17717-.14052-1.26113.38163l-4.35757-.27685c-.017-.52839-.60367-.92876-1.20249-.53776-.49161.56274-.12108 1.24169.44339 1.27743.37227.0236.69284-.24216.75043-.60298l4.35791.27651c.0114.36533.29594.6696.66821.69318.56447.0357 1.01757-.59048.60125-1.21116m5.73386 3.35976c.44791.0416.65676-.35353.5114-.65225l2.34323-1.43355c.19984.2661.64704.25986.81391-.15786.0493-.46767-.38683-.68313-.6904-.49717-.20019.12213-.26888.37505-.16827.58182l-2.34357 1.43321c-.13809-.18388-.39447-.23765-.59467-.11518-.30356.18561-.3105.67202.12837.84098"/><path d="M22.42212 79.87451638c-.0316.39516.31883.57488.58078.44304l1.29026 2.04903c-.2321.17901-.22169.57314.1485.71538.4125.0382.59742-.34867.43055-.61408-.11033-.1752-.33376-.23279-.51487-.14156l-1.29026-2.04902c.16063-.12385.20504-.35041.0947-.52561-.16722-.26541-.59604-.26575-.73967.12282"/><path d="M23.29884 81.71016638c-.55511.15544-.62415.72407-.31295 1.01515l-2.1479 2.78939c-.36082-.22654-.89302-.0145-.90135.5617.15508.58251.77576.64045 1.054.27894.18354-.238.15023-.57211-.0652-.77333l2.1479-2.78939c.24945.15647.58113.10339.76465-.13496.27791-.36116.0635-.94645-.53913-.9475m.18734 2.48756c.29976.56864.93535.5107 1.17959.10304l3.54296 1.68648c-.16237.44651.19359.97664.82363.8507.59812-.30532.5159-.99537.0569-1.21395-.30253-.14398-.65884-.0295-.8278.25257l-3.54295-1.68681c.11241-.30879-.0232-.65746-.32577-.80144-.45901-.21857-1.04637.15266-.90656.80941m-7.46822-7.27914c.35665.26645.73724.0406.76882-.28692h2.71861c.0312.32751.41182.55337.76848.28692.2831-.36915.026-.77645-.32613-.77645-.2321 0-.42083.17764-.44235.40453H16.7868c-.0219-.22689-.2106-.40453-.4427-.40453-.35214 0-.60922.4073-.32612.77645m4.59591 2.88724c-.17139-.36672-.5728-.34937-.73898-.10028l-2.1774-1.16814c.11588-.27582-.0919-.61998-.49231-.55961-.3851.17381-.35422.61027-.0725.76153.1863.0999.41355.0385.52838-.13357l2.1774 1.1678c-.0798.19081-.005.41424.18075.51416.28206.15126.66266-.0645.59466-.48189m11.77791 2.83484c.0618-.68729-.5454-1.00612-1.00335-.78131l-2.21035-3.58875c.40696-.30773.39551-.99329-.24633-1.2476-.71748-.0736-1.04603.59674-.7598 1.0613.18873.30669.57696.41112.89372.25569l2.21035 3.58874c-.28137.21269-.3629.60646-.17382.91315.28623.46455 1.03249.47288 1.28958-.20122"/><path d="M19.58762 80.01363638c-.25014.45935.076.86353.46212.84514l.45554 3.15924c-.37539.0913-.57384.57141-.20435.94125.47669.26714.90655-.0999.84757-.50897-.0389-.26991-.2772-.45935-.544-.4465l-.45588-3.15924c.25951-.0635.43437-.31225.39551-.58217-.059-.40939-.57522-.63975-.95651-.24875m2.98576 8.21831c.61998-.10859.75634-.71886.44998-1.06892l2.63501-2.79703c.36775.28518.96866.11276 1.04013-.51243-.10548-.64948-.77334-.77958-1.11472-.41737-.22516.23904-.22482.60541-.0128.84723l-2.63535 2.79737c-.25397-.19741-.61999-.17555-.84515.0631-.34104.36255-.17139 1.02138.48294 1.088m-5.27349-7.86374c-.13115.5152.29143.83162.66716.71678l1.24101 2.9986c-.34694.18422-.42223.70671.0347.97837.53637.14398.86805-.32543.70742-.71366-.10617-.25604-.38823-.38301-.64809-.30357l-1.241-2.9986c.24008-.12732.35006-.41667.2439-.67271-.16064-.38857-.72719-.48606-1.00509-.005m9.53599 2.72972c-.23454.68868.30807 1.16641.83334 1.05018l1.37041 4.22643c-.49369.21405-.65258.91938-.0586 1.33952.71678.25397 1.22019-.35074 1.04256-.89822-.11693-.36081-.48849-.56447-.85174-.48432l-1.37041-4.22642c.34139-.1478.52249-.53082.40558-.89199-.17765-.54712-.94021-.74175-1.37111-.11518"/><path d="M27.7067 84.69211638c-.30981-.57071-.95165-.5041-1.19347-.0892l-3.60228-1.66045c.15856-.45345-.20781-.98497-.84306-.84966-.60055.31607-.50861 1.01271-.0423 1.22782.30774.1419.66648.0215.8337-.26541l3.60193 1.66046c-.10963.31328.0319.66403.33966.80594.46628.2151 1.05573-.16723.90585-.82953m-13.56468-43.97909c.36845.64392 1.0998.55094 1.36521.0711l4.15565 1.8027c-.16931.5218.26263 1.11888.98461.94819.67758-.37643.55476-1.16919.0166-1.40268-.35527-.15404-.76153-.007-.94472.32439l-4.15599-1.8027c.11727-.36082-.0534-.75772-.40834-.91176-.53811-.23349-1.20111.21857-1.01307.97074m2.54827 21.33818c-.60888.22656-.63316.87151-.25639 1.16918l-2.15033 3.33376c-.42673-.22066-1.00439.0673-.95963.71538.22863.63941.93118.64635 1.20978.21441.18353-.28484.11483-.65676-.14572-.86249l2.15033-3.33375c.2949.15265.66231.0618.84619-.22307.27824-.4316-.0177-1.06893-.69423-1.01342"/><path d="M11.1615 46.91419638c.82467.10616 1.23649-.61027.98704-1.17196l4.42209-2.49485c.3518.50411 1.17752.52215 1.51335-.23869.12178-.86041-.66994-1.2868-1.24273-.96345-.37782.21302-.52145.67514-.34868 1.06372l-4.42209 2.49484c-.24355-.34867-.71331-.46456-1.09113-.25153-.5728.323-.6172 1.22122.18215 1.56192m8.14892 8.93474c-.21233-.81808-1.04395-.93535-1.47935-.4871l-4.02902-3.22655c.34243-.52284.0465-1.309-.7983-1.3371-.85799.21094-.96033 1.11923-.43854 1.53729.34417.27547.83474.23592 1.13588-.0739l4.02902 3.22654c-.23662.36151-.16827.84896.17589 1.12478.5218.41772 1.38603.11935 1.40442-.76396m-2.90007-7.36796c.40175-.0534.50584-.44235.31779-.67584l1.7694-1.72984c.22898.19324.62032.0982.68277-.30253-.0506-.42049-.47704-.5218-.70602-.29768-.15127.1478-.16098.38337-.0309.5447l-1.76939 1.73019c-.15855-.13358-.39447-.12941-.54574.0184-.22898.22412-.13704.65259.28207.71261"/><path d="M18.93988 56.27739638c-.66994.50793-.45969 1.31595.11831 1.54458l-1.42211 4.9321c-.61096-.11414-1.21949.45796-.92251 1.24448.5218.70706 1.3947.45379 1.57892-.18527.12143-.42119-.10234-.8566-.50202-1.01445l1.42211-4.93244c.42257.0791.84376-.17.96518-.59154.18423-.63871-.41979-1.31802-1.23788-.99746"/><path d="M12.94997 56.82591638c.0746.66578.714.85104 1.10604.54817l2.79946 2.98437c-.32716.37157-.18319 1.02174.47635 1.13866.697-.069.87914-.77055.51659-1.15705-.23904-.255-.62831-.27894-.89961-.0693l-2.79911-2.98403c.2262-.25743.22724-.6474-.0122-.90239-.36255-.38649-1.07412-.24946-1.18757.44165"/><path d="M17.53825 59.91402638c.35561-.7251-.17417-1.32774-.76882-1.27396l-.91107-4.8464c.5735-.16584.84827-.91974.25362-1.46617-.75286-.38128-1.39262.21337-1.27466.84098.0777.4139.45796.69076.86908.65364l.91107 4.8464c-.39655.11484-.65017.5107-.57245.92459.11796.62762.93014.94957 1.49323.32092m-.30774-14.85665c.1877.36741.59604.33549.75633.0756l2.26066 1.11125c-.10755.28518.11657.6283.52214.55267.38649-.19151.33897-.6349.0461-.77888-.19325-.0951-.42257-.0243-.53325.15543l-2.261-1.11125c.0746-.19741-.01-.42222-.20296-.51729-.29282-.14363-.67272.0899-.58807.51244m1.30519 3.75354c-.42743.68.0337 1.33086.62727 1.33988l.39551 4.88734c-.58425.10443-.93466.82121-.40384 1.42349.70498.45554 1.39956-.0659 1.34821-.69873-.0336-.41772-.38059-.73101-.79137-.7369l-.39551-4.88769c.40418-.0722.69631-.43715.66265-.85451-.0513-.63317-.82051-1.03597-1.44292-.47288m-10.14001.23626c.3518-.37053.14606-.83473-.22343-.91453l.36637-3.09887c.37782.008.68625-.39481.43055-.83751-.38267-.37226-.88122-.13427-.92875.26714-.0312.26472.14606.50342.40141.55892l-.36637 3.09887c-.26125-.006-.48954.18527-.52076.44998-.0475.40141.38198.74904.84098.476"/><path d="M13.17305 46.26507638c.48745.36428 1.00751.0559 1.05019-.39205h3.71538c.0427.4479.56273.75633 1.05018.39205.38684-.50446.0357-1.06094-.44547-1.06094-.31745 0-.57523.2432-.60471.55267h-3.71538c-.0295-.30947-.28727-.55267-.60472-.55267-.4812 0-.83231.55648-.44547 1.06094m-1.49982 10.48069c.28414.41668.77472.31503.92911-.0247l2.91359 1.00023c-.0871.36289.23766.74453.71817.59014.43923-.29143.31364-.82225-.0638-.95166-.24875-.0857-.51659.0354-.6231.27026l-2.9136-1.00022c.06-.25084-.0767-.51069-.32578-.59605-.37712-.12974-.80247.21199-.63455.71192"/><path d="M14.95042 49.28240638c.19013-.64253-.32716-1.06164-.80594-.935l-1.41933-3.83646c.44617-.21545.56586-.87013.004-1.23441-.6689-.20678-1.10952.36845-.92564.86526.12143.32786.4708.50133.80178.41356l1.41933 3.8368c-.30843.14884-.46074.50792-.33965.83578.18387.49682.89267.64669 1.26563.0545m-9.38542 1.1966c.51867-.37956.3681-1.00023-.0711-1.18202l1.14976-3.75355c.46559.0954.93812-.33445.72094-.93951-.38996-.54712-1.0606-.36463-1.20943.12143-.0985.32057.0673.65641.37087.782l-1.14976 3.75354c-.32195-.0659-.64704.11935-.74522.43992-.14884.48606.30461 1.01341.93396.77819"/><path d="M14.19722 45.52851638c-.0212-.47218-.46213-.63282-.75252-.43853l-1.82767-2.23221c.24771-.24633.17728-.71053-.28137-.82398-.49335.0156-.65502.50028-.41841.78963.15612.19047.42916.22586.62969.0916l1.82803 2.23221c-.17139.17035-.19082.44478-.0347.63559.23696.28901.74419.22621.85694-.2543"/><path d="M13.84924 39.47407638c-.42986.0111-.58321.40939-.41147.67653l-2.06117 1.62507c-.21962-.22933-.64323-.17313-.75425.24216.006.44894.44408.60402.71123.39378.1759-.13878.21267-.3865.094-.57141l2.06117-1.62472c.15196.15855.40106.18075.5773.042.26715-.21059.21857-.67306-.21684-.78339m-2.86502 12.62133c-.32578.77611.26194 1.37075.87741 1.27846l1.24274 4.98623c-.58633.20747-.82642 1.00855-.17451 1.54075.80663.35077 1.43563-.30669 1.27465-.95269-.10616-.4257-.51833-.69041-.94402-.62692l-1.24274-4.98621c.40557-.14364.64531-.57072.53914-.99676-.16097-.64601-1.0252-.93119-1.57267-.24286m7.76173-8.93613c-.37261-.48017-.95512-.32162-1.11541.0978l-3.57625-.98843c.0777-.4427-.3407-.87776-.9069-.65676-.50688.38268-.31676 1.01168.1464 1.1397.30566.0843.61825-.0808.72927-.37088l3.5766.98843c-.0538.306.12976.60853.43506.69284.46317.12802.94958-.31398.71123-.90274"/><path d="M15.21965 44.09912638c.0357-.42569-.34104-.62102-.6238-.48016l-1.38047-2.21313c.25049-.19221.24112-.61651-.15682-.7716-.44443-.043-.64531.37296-.46663.65954.11796.18908.35839.25257.55406.15508l1.38047 2.21347c-.17347.13254-.22238.37643-.10443.56552.17868.28657.6408.289.79762-.12872m-.75633 21.36976c.42015-.5624.0645-1.16225-.45241-1.21187v-4.28747c.51694-.0496.87256-.64948.45241-1.21187-.58216-.44651-1.22435-.0413-1.22435.51382 0 .36637.28067.66369.63767.69805v4.28747c-.357.034-.63767.33168-.63767.69804 0 .55511.64219.96033 1.22435.51383m-4.47309-15.58905c.5492-.31606.46836-.94055.0579-1.16607l1.53035-3.5537c.44617.14363.95513-.2269.80768-.84306-.323-.578-.99988-.47114-1.19833-.0111-.1308.30357-.005.65051.27963.80628l-1.5307 3.5537c-.30843-.0992-.64704.0472-.77784.35111-.1981.46004.18943 1.02521.83127.86284m-1.5411 2.03759c.38891.29074.80351.0448.83786-.3126h2.96355c.034.35735.44894.60334.83752.3126.30877-.4021.0288-.84619-.35527-.84619-.25292 0-.45865.19395-.48225.44096H9.28695c-.0239-.24701-.22933-.44096-.4826-.44096-.38371 0-.66404.44409-.35526.84619m-.63282-9.5117c-.46004.3112-.35007.85208.0232 1.02312l-1.11264 3.20364c-.39898-.0971-.82051.25882-.65259.78825.31918.48502.90412.34867 1.0481-.0663.0951-.27373-.0371-.56863-.29524-.68694l1.11263-3.20398c.27617.0673.56274-.0822.6578-.35596.14398-.41494-.23037-.88435-.78131-.70186"/><path d="M17.20033 52.23833638c-.34555-.59882-1.02694-.51001-1.27258-.0618l-3.87913-1.66669c.15612-.48676-.24841-1.04187-.92078-.88019-.63039.35283-.51347 1.09147-.0111 1.30727.33167.14259.70984.005.87984-.30566l3.87913 1.6667c-.1079.33653.052.70603.38372.84827.50236.21615 1.11853-.20747.9409-.90794"/><path d="M18.07947 49.23383638c-.62102.36602-.52214 1.07551-.0524 1.32739l-1.70069 4.05989c-.50896-.15786-1.08384.26922-.90899.96831.37435.65398 1.14317.52492 1.36313-.00098.14537-.34694-.002-.73968-.32682-.91385l1.7007-4.06023c.3518.10929.73551-.0611.88053-.408.22031-.52596-.22689-1.16433-.95547-.97247m-5.91289 15.54984c.34729-.18665.30877-.57662.0576-.72441l1.01723-2.18225c.27477.0975.59847-.12351.51798-.50966-.19047-.36533-.61339-.31155-.74523-.0288-.0867.1863-.0149.40418.1589.50653l-1.01723 2.18224c-.19012-.0673-.40349.0177-.49023.20401-.13183.28275.0989.6415.50098.55233m-3.12939-24.18868c-.43194-.0708-.66161.29871-.54053.59882l-2.37168 1.23371c-.17625-.27165-.61061-.29593-.80074.0985-.0798.45067.32925.68902.63664.52943.20261-.10547.28657-.34625.20261-.55372l2.37203-1.23372c.12177.18804.36706.25743.56967.15196.30705-.15959.3466-.63143-.068-.82502"/><path d="M17.31655 56.61845638c.42605-.28658.32578-.78652-.0187-.94577l1.03769-2.95835c.36845.0909.75946-.23696.60542-.72684-.29352-.44929-.83474-.32509-.96901.0583-.0888.25257.0326.52596.27096.63594l-1.0377 2.95835c-.255-.0628-.52041.0746-.60887.32752-.13462.38301.21024.81808.72024.65085m-1.50571 1.2476c-.56586.11691-.67446.6807-.38303.99363l-2.3408 2.64091c-.34555-.25154-.89233-.076-.94055.49994.11483.59292.73169.69387 1.03492.35179.19983-.22585.18943-.56204-.0118-.77819l2.3408-2.64124c.23904.17381.57418.14363.77402-.0819.30323-.34209.12906-.94229-.47357-.98496"/><path d="M10.70249 58.10265638c-.26644.55996.14572 1.01758.6016.97108l.74279 3.71191c-.43853.13254-.64287.71366-.18144 1.1279.58147.28588 1.06718-.17624.97108-.6571-.0635-.31711-.35804-.52631-.67306-.49404l-.74315-3.71191c.30357-.0916.49474-.39794.43125-.71505-.0965-.48086-.72268-.72024-1.14907-.23279m1.64415-7.23786c-.41043.13809-.44027.56725-.19567.77367l-1.50364 2.17532c-.27963-.15612-.67064.0236-.65467.45622.13877.4309.60679.45068.80143.16862.12836-.18561.0905-.43506-.0788-.57765l1.50398-2.17532c.19325.10789.43993.0552.56829-.13044.19498-.28172.0111-.71262-.44096-.69042"/><path d="M13.05093 58.22165638c-.24633-.66022-.94576-.68624-1.26841-.27721l-3.6172-2.3297c.23905-.46282-.0739-1.08904-.77679-1.04012-.69319.24841-.70013 1.01029-.23176 1.31213.30912.19879.71261.1242.9357-.15891l3.61719 2.33005c-.16549.31988-.0666.71817.24216.91731.46872.30149 1.15948-.0198 1.09911-.75355m6.29938 4.22955c-.1471.38787.15266.67062.45415.61477l.69735 2.43516c-.28519.11241-.38996.51106-.0597.76188.40315.15925.70221-.17554.61166-.4909-.0593-.20817-.26715-.33134-.47566-.29283l-.69769-2.43517c.19741-.0777.30843-.29212.24875-.50028-.0902-.31538-.52075-.44096-.77888-.0926"/><path d="M14.87063 58.02494638c-.48329-.49058-1.11819-.23419-1.24239.25951l-4.15877-.63421c.0284-.50861-.50098-.94229-1.10847-.6179-.51937.49855-.22135 1.18133.3171 1.2632.35561.0545.68555-.17346.77159-.5152l4.15842.63421c-.0194.35179.2276.66785.58286.72198.53845.0822 1.0266-.48086.67966-1.11159m2.67872-18.26187c-.50306.67306-.077 1.39088.54088 1.4502v5.12951c-.6179.0593-1.04394.77714-.54088 1.44986.69631.53463 1.46478.0496 1.46478-.61478 0-.43818-.33549-.79414-.76327-.83508v-5.12951c.42778-.0409.76327-.39689.76327-.83508 0-.66439-.76847-1.14941-1.46478-.61512m1.71423 13.02377c-.1818-.748-.93708-.86631-1.33988-.46455l-3.62136-2.99444c.31919-.47114.0607-1.1907-.70776-1.22852-.78373.17972-.8899 1.00509-.42083 1.39297.30912.25604.75632.2269 1.03492-.051l3.62135 2.99444c-.22065.32577-.16514.77055.14433 1.02624.46906.38788 1.25974.12837 1.28923-.67514"/><path d="M9.16694 61.12589638c.74002.2151 1.2188-.38198 1.07065-.93189l4.40406-1.65247c.25014.51173 1.00335.646 1.41933-.002.23418-.7702-.42951-1.27361-.99988-1.05955-.37643.1412-.57384.544-.47115.92425l-4.40405 1.65247c-.17278-.35388-.58667-.527-.96276-.38614-.57037.21405-.73933 1.03006-.0562 1.45576m2.94343-15.02261c-.85624.0295-1.15531.82606-.80802 1.35584l-4.08036 3.27303c-.44165-.4538-1.28437-.33445-1.49912.49509.0194.89509.89545 1.19658 1.42384.77263.34867-.27964.41771-.77368.17763-1.1397l4.08036-3.27338c.30565.31398.80282.35353 1.15149.0739.52839-.42396.42396-1.34439-.44582-1.55741m5.68114 18.70838c-.0409.51416.41529.748.75599.57661l1.67814 2.66623c-.30184.23315-.2883.74558.1929.93084.53706.0496.77749-.4538.56031-.799-.14329-.22759-.43437-.30288-.66994-.18457l-1.67815-2.66588c.20886-.16134.2668-.45588.12351-.68383-.21753-.3452-.77541-.34589-.96276.1596"/><path d="M12.06076 46.58182638c-.38753.0864-.45553.47461-.25257.68625l-1.57823 1.83808c-.23973-.16895-.61304-.0427-.6401.35319.0853.40557.50965.46837.714.23037.13496-.15717.1242-.38788-.0163-.53429l1.57823-1.83809c.16584.11692.39551.0926.53047-.0642.20435-.23834.0784-.64843-.33549-.67132m-3.70461 8.0653c.32577-.37677.10408-.81913-.25882-.88019l.21684-3.03259c.36775-.009.64982-.41529.38129-.83439-.38927-.34555-.86388-.0913-.89199.30149-.0187.25915.1648.48363.41564.52595l-.21684 3.0326c-.25431.006-.46767.20262-.48606.46178-.0281.39274.40557.71192.83994.42535"/><path d="M9.24327 53.31419638c.26853-.44305-.0354-.85833-.41841-.85799l-.30531-3.14847c.37608-.0732.59465-.53915.24598-.92217-.45935-.28657-.90204.0566-.86249.46455.026.26888.25326.46733.51798.46733l.3053 3.14848c-.2602.0507-.44477.289-.41875.55787.0395.40766.53984.65989.9357.2904"/><path d="M7.82255 53.14523638c-.0253.60297.51798.8559.90863.6408l2.07921 3.04196c-.34243.28553-.30392.884.26715 1.07898.62935.0347.88851-.56411.61928-.95824-.17763-.25986-.5211-.3348-.79102-.18596l-2.07921-3.04197c.23661-.19776.29143-.54469.1138-.80456-.26923-.39412-.92148-.37018-1.11784.22899m15.52972 1.56435c-.75079-.23627-1.25384.3629-1.11472.92806l-4.53624 1.59038c-.2439-.52839-1.01098-.68244-1.45021-.0291-.25639.78165.41043 1.31074.99815 1.10466.38753-.13566.59812-.54262.50202-.93362l4.53623-1.59037c.16896.36532.58772.55164.97525.41598.58737-.20608.77819-1.03561.0895-1.48594m-10.23575-14.28841c-.50792-.37955-1.04984-.0583-1.0946.40835H8.15041c-.0448-.46663-.58668-.7879-1.0946-.40835-.40349.52562-.0375 1.10535.46421 1.10535.33063 0 .59916-.25292.63039-.57557h3.87149c.0309.32265.29976.57557.63039.57557.50133 0 .86735-.57973.46421-1.10535m11.60513 24.9762c-.59604-.34903-1.14351.0649-1.13518.57557l-4.19173.47184c-.10547-.4996-.731-.78166-1.23476-.30878-.37261.61825.0944 1.20145.63733 1.14039.35804-.0402.6179-.34728.61235-.70013l4.19173-.47183c.0729.34555.39447.58667.75251.54643.54296-.0611.86873-.73343.36775-1.25349m-5.85252-12.97104c.39586-.24113.32543-.69631.0212-.85382l1.05505-2.62564c.32855.0968.69422-.18319.57522-.63108-.24667-.41668-.73967-.32648-.87637.0135-.0898.22447.009.47565.21892.58459l-1.05504 2.62564c-.22725-.067-.47219.0461-.56239.27061-.13669.34.15682.74627.62345.61617m.13358 10.95774c-.17659-.71018-.89545-.81912-1.27639-.43506l-3.45899-2.82929c.30114-.44964.052-1.13276-.67931-1.16503-.74453.17486-.84133.96068-.39343 1.32705.29559.24181.72059.21197.98427-.0538l3.45899 2.82963c-.20816.31086-.15335.73343.14225.97525.44789.36637 1.19867.11588 1.22261-.64878"/><path d="M13.15779 50.23579638c-.60611.46594-.40939 1.19938.11761 1.40337l-1.26078 4.49357c-.55614-.10027-1.1057.42395-.83057 1.13726.47877.63907 1.27084.40315 1.43424-.17867.1079-.38406-.0985-.77819-.46316-.91939l1.26078-4.49357c.38476.0694.76604-.15994.87394-.54399.16306-.58182-.39065-1.19557-1.13206-.89858m1.79853-11.8976c-.16653.38371.12212.68277.42847.64045l.58806 2.48513c-.29247.0996-.41667.49612-.0957.7643.39863.17902.71504-.14398.63906-.46593-.0503-.21199-.25361-.34625-.46559-.31711l-.58807-2.48478c.20227-.0687.32404-.27963.27374-.49196-.076-.32196-.50376-.46872-.77992-.1301"/><path d="M12.98848 44.85580638c-.43541.58285-.0666 1.20422.46871 1.25557v4.44083c-.53532.0513-.90412.67271-.46871 1.25558.60298.46246 1.26806.0427 1.26806-.53256 0-.3792-.29038-.68763-.66057-.72302v-4.44083c.37019-.0357.66057-.34382.66057-.72302 0-.57523-.66508-.99502-1.26806-.53255m6.45932 13.32977c-.32612.78096.26576 1.37769.88401 1.28437l1.25661 5.01154c-.58945.20956-.82953 1.01515-.17347 1.54944.81149.35145 1.44327-.31051 1.28056-.95964-.10721-.42812-.52214-.69353-.94993-.629l-1.25661-5.01189c.40765-.14468.64808-.57453.54088-1.00266-.16271-.64912-1.03215-.93465-1.58205-.24216m-.88643-3.37191c.49717-.66543.0763-1.37526-.53498-1.43391v-5.07156c.61131-.0586 1.03215-.76847.53498-1.4339-.68867-.52839-1.44812-.0489-1.44812.60819 0 .43333.33167.78512.75424.82571v5.07156c-.42257.0406-.75424.39274-.75424.82607 0 .65676.75945 1.13623 1.44812.60784"/><path d="M13.64315 50.65351638c.42154-.0579.52909-.46698.33064-.71088l1.84988-1.82386c.24113.20157.65155.0999.71539-.32058-.0548-.4413-.50306-.54574-.74245-.30982-.1582.15613-.16723.4035-.0298.57246l-1.85023 1.82386c-.16688-.13947-.41459-.13392-.57245.0218-.23973.23626-.1412.68555.29906.74696m7.1258 2.9639c-.59743-.027-.85035.51105-.63802.89892l-3.02323 2.05146c-.28241-.3407-.87568-.30462-1.07101.2609-.0364.62449.55649.8833.94819.61755.25812-.17521.33375-.5152.187-.78374l3.02323-2.05146c.19498.23558.53915.29109.79727.11588.3917-.26575.37019-.91244-.22343-1.10951"/><path d="M21.91315 55.47424638c-.0802-.38407-.46281-.45692-.67479-.25917l-1.79402-1.58655c.17034-.23454.051-.60542-.33966-.63768-.40245.0784-.47045.49716-.238.70256.15335.13564.38129.12836.52804-.009l1.79402 1.58656c-.11795.16237-.0971.38961.0563.52526.23245.20539.63941.0867.6682-.3223m-14.99512-13.85035c.0604-.43992-.32058-.66335-.62172-.53256l-1.31248-2.37341c.27097-.18562.28415-.62692-.12073-.80976-.459-.0691-.69041.35215-.52041.65953.11206.20262.35839.28172.5669.19117l1.31247 2.37376c-.18734.12837-.25153.37886-.13947.58182.17.30739.64982.33514.83544-.0906m7.65106 7.8561c-.48121-.35943-.99433-.0552-1.03701.38684H9.86502c-.0423-.442-.5558-.74627-1.03665-.38684-.38233.49787-.0354 1.04706.43957 1.04706.31328 0 .56759-.23974.59708-.54538h3.66715c.0295.30564.2838.54538.59709.54538.47496 0 .8219-.5492.43992-1.04706m-2.61246-4.14211c-.255-.31051-.63698-.19463-.73517.0853l-2.38174-.58563c.043-.29386-.24147-.57349-.6113-.41702-.32786.26229-.19047.67445.11796.75043.20365.05.4073-.0652.47496-.25882l2.38174.58564c-.0295.2033.0971.39967.3008.44998.30842.0756.62136-.22551.45275-.60992m7.29753 12.65254c-.12976-.36567-.51451-.38614-.69596-.16375l-1.97062-1.31525c.13565-.25258-.0309-.60021-.41841-.57974-.38371.13079-.39447.55025-.13912.72059.16827.11241.391.0746.51625-.0791l1.97096 1.31525c-.094.17451-.0434.39481.12525.50722.255.17036.63837-.00077.61165-.40522m-1.92864-7.50813c.44929-.0743.55233-.51485.33272-.7702l1.92621-2.00566c.26402.20886.69978.0881.75598-.36393-.0718-.47046-.55406-.56933-.80351-.30948-.1648.17139-.16723.43646-.0153.61305l-1.92622 2.00565c-.18248-.14432-.4472-.13114-.612.0403-.24945.25986-.13079.73794.34209.79032m-6.14395-9.35592c.61582.15474.99225-.35145.85347-.79969l3.57695-1.49462c.22135.4139.84619.50133 1.16884-.0451.16965-.64149-.39239-1.03596-.85555-.84237-.30566.12767-.45623.46525-.36013.77541l-3.5766 1.49462c-.15335-.28623-.49925-.41633-.8049-.28866-.46317.19359-.57731.87047-.002 1.20041m-6.98468-38.748476c-.67237.473573-.49404 1.27084.0631 1.514047l-1.55776 4.773196c-.59326-.132533-1.20735.406266-.94367 1.185145.48571.708798 1.34786.490921 1.54978-.127326.13287-.408001-.0711-.840982-.45658-1.0089l1.55776-4.773546c.41009.09159.83058-.137734.96345-.545389.20192-.618247-.36567-1.302757-1.17612-1.017227m-1.01164 9.415943c.374.217881.71608-.04233.71019-.361856l2.62355-.301492c.067.312941.459.48849.77368.191857.23245-.387876-.0607-.752163-.40071-.713307-.22413.02568-.3865.218226-.38233.439572l-2.62356.301146c-.0461-.216145-.24806-.366715-.47219-.341043-.34.03886-.54261.460388-.22863.785123m.3171 5.10765c.2616-.714698-.29455-1.22678-.84618-1.117494l-1.33329-4.449849c.52075-.212327.70359-.945758.0926-1.398861-.74315-.282409-1.28368.33792-1.1109.914185.11379.380246.49751.60194.8788.526309l1.33329 4.450195c-.36013.146409-.55858.542615-.44478.922861.17278.576267.96518.797267 1.43043.152654"/><path d="M8.43316 10.47337938c-.204-.690756-.91557-.766735-1.27361-.372613l-3.52249-2.632925c.27652-.455186.002-1.116107-.71816-1.116107-.72441.204001-.78582.980452-.32959 1.321494.30114.224817.71781.177286.96518-.0954l3.52248 2.633272c-.19116.314328-.119.727533.18215.95235.45622.341042 1.18341.06245 1.17404-.690063m5.46465.111708c.21094-.806984-.44894-1.307964-1.03943-1.131719l-1.9165-4.71838c.54643-.285531.66994-1.105004-.0441-1.535904-.84028-.231408-1.3659.501676-1.11749 1.112637.16376.403145.60507.605411 1.01376.483289l1.9165 4.71838c-.37817.197409-.55372.650165-.38997 1.053308.24807.610962 1.13589.770207 1.57719.0184"/><path d="M6.62595.62826938c-.0801.821556.64323 1.207699 1.19278.942982l2.61176 4.310033c-.48953.364635-.48155 1.184801.28345 1.49427.85729.09437 1.25592-.704288.91766-1.262513-.22308-.36845-.68625-.496471-1.06615-.313287l-2.61176-4.310379c.33861-.251877.43923-.721982.21614-1.090086-.33826-.558225-1.23059-.574532-1.54388.22898m4.04081 11.397317c-.50619.07876-.62692.573146-.38267.862839l-2.18816 2.236375c-.29489-.238002-.78651-.106509-.85451.401062.0756.530125.61756.646697.90101.357.187-.191162.19255-.48953.0236-.689714l2.18815-2.236029c.20365.16445.50167.152308.68867-.03886.28345-.289694.15543-.828838-.37608-.892677m-3.1478 77.201034c-.53671-.40106-1.10951-.0614-1.15704.43194h-4.0925c-.0475-.49334-.62033-.833-1.15704-.43194-.42639.5558-.0396 1.16884.49057 1.16884.34971 0 .63351-.26783.66647-.60887h4.0925c.033.34104.31676.60887.66647.60887.53013 0 .91696-.61304.49057-1.16884m-7.318-67.356612c-.45553.609571-.0697 1.260083.49023 1.313859v4.646913c-.55996.05378-.94576.703939-.49023 1.313513.63109.483981 1.32705.04476 1.32705-.556838 0-.397246-.30392-.719555-.6911-.756675v-4.646913c.38718-.03712.6911-.359777.6911-.756675 0-.601939-.69596-1.041165-1.32705-.557184"/><path d="M1.17726 27.33465138c.13947.563777.70984.650512 1.01237.345898l2.74291 2.247477c-.23939.356652-.042.89892.5381.92494.59084-.138429.66821-.761531.31294-1.052615-.23418-.192204-.57141-.168612-.78096.04198l-2.74256-2.247475c.16514-.246675.12213-.581818-.11241-.774024-.35526-.291081-.95096-.09263-.97039.513819m8.34182 12.831915c.4257-.56932.0652-1.17682-.45796-1.22712v-4.340918c.52319-.0503.88366-.657798.45796-1.227125-.58945-.452411-1.23961-.04198-1.23961.52041 0 .370877.28379.672022.64565.706715v4.340918c-.36186.0347-.64565.33583-.64565.70671 0 .56239.65016.97282 1.23961.52041m-3.66091-7.678129c-.19428-.337919-.578-.288654-.71712-.03643l-2.18364-.943677c.0885-.274081-.13878-.587368-.51798-.497165-.35561.19845-.29039.614432-.008.7369.18665.08049.39967.0031.49612-.171387l2.18364.943674c-.0611.189778.0288.397942.21511.478778.28275.122124.63073-.115877.53151-.510695m-1.7534-15.412801c.20157.41841.66231.392738.84931.104431l2.51566 1.308656c-.12872.318491.11484.710185.57314.635246.43992-.205042.39794-.705676.0722-.875329-.2151-.111714-.47531-.03781-.60437.161326l-2.51566-1.308656c.0888-.219958-.00026-.475308-.2151-.587022-.32578-.169653-.7598.08361-.67515.561348m7.24723 16.318659c-.31919.32196-.14537.737942.18075.816003l-.38475 2.74256c-.33515-.0146-.61652.33722-.39829.73481.33237.33792.77957.13635.82953-.21891.0326-.23419-.12004-.44964-.34555-.50376l.38476-2.742905c.23175.01041.43783-.154733.47079-.389266.0496-.355266-.32473-.672021-.73724-.438532m-3.24771-7.925144c.51139.381981 1.05678.05829 1.10188-.411123h3.89648c.0451.469409.59049.793104 1.10154.411123.40592-.52943.0378-1.112983-.46699-1.112983-.33306 0-.60332.255-.63455.579735H9.20584c-.0312-.324735-.30183-.579735-.63455-.579735-.5048 0-.87325.583553-.46733 1.112983"/><path d="M16.21051 27.10844738c-.82156.152652-.99468.964839-.58251 1.425228l-3.46038 3.750418c-.49196-.373654-1.28749-.136-1.37388.695267.14883.860411 1.03769 1.024166 1.4856.538452.29593-.320227.29073-.806984.006-1.125474l3.46038-3.750419c.34035.25847.82572.224471 1.12131-.09576.44825-.485717.21371-1.358616-.65606-1.437718"/><path d="M10.88325 29.62063638c.42153.171043.73898-.15057.68521-.482246l2.68531-.703939c.11588.315368.55024.439918.83335.0843.18422-.438185-.17486-.773677-.52284-.682432-.22933.06002-.36984.28449-.33237.513819l-2.68566.70394c-.0801-.217877-.31259-.344857-.54192-.284838-.34798.09125-.49612.55996-.12108.851391m3.69109-2.993743c-.21996-.375389-.64774-.316409-.80039-.03365l-2.44592-1.0318c.0958-.306693-.16064-.653981-.58286-.549552-.39482.224817-.31815.688675-.001.822247.2092.08813.44617-.000261.55198-.196021l2.44593 1.031799c-.0666.211981.0357.443389.24494.531512.31675.13392.7022-.13496.58771-.574532m-10.91932 9.385413c.57349-.05482.74176-.601939.48676-.943328l2.60482-2.364046c.31502.28657.87602.171735.986-.393779-.05-.599858-.65016-.766735-.98739-.460388-.22273.201919-.24875.536368-.0725.772287l-2.60482 2.364396c-.21788-.198104-.55337-.204349-.77576-.0024-.33757.30635-.22967.920085.3629 1.027289m9.32019-4.539794c.22239.319878.6009.238.71782-.02531l2.25684.753553c-.0649.281021.18839.573492.55823.45137.33757-.227939.23696-.637328-.0552-.734818-.1929-.06453-.39864.03088-.47947.213021l-2.25687-.753533c.0447-.194287-.0628-.394124-.2557-.458655-.29212-.09749-.61825.169307-.48572.554411"/><path d="M16.73369 27.59763238c-.4243-.366022-.92147-.116225-.98982.292121l-3.41249-.239734c-.0108-.4139-.46837-.730655-.93952-.427776-.38788.43853-.1013.972125.3407 1.003349.29143.02048.544-.185961.59118-.468715l3.4125.239735c.007.286571.22829.526308.52007.546776.44165.03088.80039-.457266.47738-.945756m-3.48154-12.401361c-.44026-.01874-.62483.378163-.46767.663348l-2.2218 1.518208c-.20851-.250144-.64531-.222042-.78825.194979-.0253.459697.41216.648777.69978.452412.19012-.129757.24494-.380595.136-.577655l2.2218-1.51821c.14433.173122.39759.213023.58737.08327.28796-.196715.27061-.672715-.16723-.816348m2.68185 18.44505c-.22655-.310857-.59778-.221346-.70706.04094l-2.24262-.692494c.0576-.278245-.1988-.561348-.561-.432286-.32752.232449-.21927.633859.0711.723369.19151.05933.39239-.0392.46802-.220654l2.24262.692145c-.0396.192552.0708.387185.26229.446166.29039.08986.6061-.180757.46663-.557187m-9.40031-14.735573c.29698.684858 1.03873.673061 1.35722.222735l3.95581 2.263433c-.22724.503064.13878 1.148024.87949 1.057472.71956-.301489.68452-1.107778.17208-1.400943-.33791-.193592-.76049-.09194-.98079.219614l-3.95581-2.263434c.15716-.347983.0305-.763616-.30739-.957208-.51243-.293165-1.22539.08534-1.12061.858331"/><path d="M10.58002 30.05916938c.0222.503757.49266.675493.80248.468369l1.9491 2.383128c-.26471.262286-.18977.757716.29941.879146.52666-.01632.69943-.533594.44686-.842023-.16653-.203654-.45761-.241816-.67168-.09819l-1.9491-2.38313c.18318-.181797.20365-.474613.0371-.677919-.25222-.308777-.79345-.242165-.91418.270612m5.76856 10.046334c.41911-.35978.24876-.88123-.13912-1.00786l.73551-3.290377c.40523.05066.78131-.348675.55511-.852431-.37019-.442695-.93223-.241816-1.02764.184573-.0628.281021.10131.557531.36949.644959l-.73551 3.290386c-.27998-.035-.54643.14502-.60922.42604-.0951.42639.3282.84757.85138.60471m-4.46441-3.63072c.34555.21441.6741-.0208.67722-.321617l2.47507-.213716c.0541.295941.41841.471493.72198.200532.22898-.358042-.0371-.708798-.35769-.681042-.21129.0184-.36915.194979-.37123.403144l-2.47507.213367c-.0375-.204346-.22308-.351451-.43471-.333062-.32058.02741-.52249.418409-.23557.732394m-8.91046-7.014084c.2269.363592.64705.294203.78964.01111l2.43968.949227c-.086.30496.17624.640453.58945.525614.38302-.232103.29455-.687287-.0212-.810449-.20851-.08084-.43992.01282-.53845.208509l-2.43968-.949227c.0597-.21094-.0475-.436449-.25604-.517633-.31606-.122817-.68867.152652-.56343.582859m8.5413-10.322164c-.26853-.413552-.75043-.324735-.90863.0034l-2.82479-1.041169c.093-.352489-.21579-.732737-.68867-.592572-.43576.275122-.32474.796573.0413.931534.24147.08881.5055-.0236.61478-.250492l2.82479 1.041168c-.0642.243898.0638.50098.3053.589795.36568.134961.7886-.189774.63594-.681736"/><path d="M7.35765 34.10934338c.46837.349715.96761.05343 1.0089-.37643h3.56897c.0413.429858.54053.726145 1.0089.37643.37192-.484675.0343-1.019308-.42778-1.019308-.30496 0-.55267.23349-.58112.531164H8.36655c-.0284-.297674-.27617-.531164-.58113-.531164-.46212 0-.79969.534633-.42777 1.019308m9.01315-1.433554c-.39205.13808-.4146.550245-.17694.744879l-1.4124 2.106966c-.27026-.145715-.64253.03191-.62136.446858.13912.411474.58806.423614.77089.150572.12074-.180062.0808-.418409-.0833-.553024l1.41204-2.10731c.187.100959.42292.04719.54331-.132879.18284-.27304.001-.683818-.43229-.656062m-2.62455-12.665383c-.35041-.19602-.66335.05066-.6526.346939l-2.42788.322307c-.067-.289001-.43333-.44547-.7206-.165144-.20885.363246.0687.696657.38337.654676.20712-.02741.35457-.208511.34729-.413552l2.42788-.321959c.0465.199488.23592.336185.44339.308428.31433-.04163.49578-.435756.19915-.731695m-2.55383 17.09962c.42188.73829 1.26009.63212 1.56435.0822l4.76175 2.0681c-.19394.59778.30045 1.28264 1.1279 1.08696.77715-.43089.63664-1.33988.0198-1.60771-.40662-.1766-.87255-.009-1.0828.37157l-4.7621-2.06811c.13427-.4132-.0607-.868041-.46767-1.044981-.61651-.267839-1.37666.249797-1.16121 1.111941m-1.93974-12.890547c-.28345.723023.27166 1.258696.83751 1.160167l1.25558 4.573011c-.53672.20435-.74072.948535-.12767 1.425577.75181.305655 1.31802-.314674 1.15531-.9069-.10721-.390656-.49335-.625881-.8847-.557879l-1.25557-4.573014c.37122-.141205.5832-.540879.476-.931533-.16272-.592226-.96623-.836472-1.45646-.189429m-2.74325-3.970031c-.33827-.252919-.69908-.03886-.72892.272H3.20133c-.0298-.310859-.391-.524919-.72927-.272-.26853.350062-.025.736205.30913.736205.2203 0 .39932-.168613.42014-.383367h2.57915c.0205.214754.19949.383367.4198.383367.3341 0 .578-.386143.30912-.736205m7.32251 2.129167c-.40141-.415287-.93535-.205041-1.04359.207818l-3.4805-.562736c.0274-.426042-.41286-.793797-.9246-.526306-.43923.413897-.19463.988429.25639 1.061286.29733.04823.57557-.14051.65051-.426041l3.48085.563083c-.0191.294552.18561.561002.48294.609226.45067.07285.86422-.395163.578-.92633"/><path d="M13.10471 16.34151838c-.47184.138429-.52458.624145-.25605.869083l-1.802 2.401517c-.31051-.189429-.76188-.0028-.76292.488839.13843.495084.66855.537758.9017.226899.15404-.205388.12212-.48988-.0638-.659185l1.80235-2.401519c.21441.130797.49647.08188.65051-.123163.23349-.310859.0441-.808021-.46975-.802471m-7.26457 16.631251c-.16896.421185.153.736553.48398.681737l.71261 2.676987c-.31433.116913-.4368.550593-.0808.831963.43749.18214.77125-.17763.67896-.52423-.0611-.22863-.28553-.368101-.51416-.329937l-.71296-2.676987c.21753-.08084.34312-.313287.28241-.541921-.0926-.346939-.56066-.493002-.85001-.117612m4.64379-6.48708c.73031.223083 1.21325-.361857 1.07378-.908635l4.3874-1.577883c.24078.51035.98566.653983 1.40684.01665.24251-.760145-.40835-1.268064-.97663-1.063718-.3747.13496-.57592.531512-.47982.909676l-4.38705 1.577882c-.16688-.353183-.57454-.530469-.94923-.395857-.56829.204346-.74661 1.010635-.0753 1.441881m-5.70092 13.732221c.3348-.26124.22239-.66786-.0711-.77888l.68104-2.50213c.30947.0531.61235-.24043.45657-.635245-.26853-.353184-.70775-.218918-.79588.105125-.0583.21406.0579.43194.2609.50896l-.68104 2.50178c-.21406-.0368-.425.0923-.48294.306-.0885.32404.22204.66266.63247.49439m2.28599-9.627577c.595.444777 1.2299.06835 1.28229-.47843h4.53727c.0524.546778.68729.923207 1.28264.47843.47253-.615818.0437-1.295474-.544-1.295474-.38753 0-.70221.296634-.73864.6748H8.35137c-.0361-.378166-.35111-.6748-.73864-.6748-.58772 0-1.01653.679656-.54365 1.295474"/><path d="M6.58883 28.90837038c-.48121.388919-.30774.978716.12282 1.133452l-.93258 3.661948c-.45206-.07008-.88643.364981-.64982.936737.40002.508268 1.03666.301838 1.15739-.172427.0798-.31294-.0951-.627963-.39273-.735167l.93257-3.661602c.3126.04823.61651-.144674.69631-.457612.12074-.474267-.33931-.959984-.93396-.705329"/><path d="M5.97995 28.75814638c.47669.334795.96588.02498.99433-.404879l3.55648-.103736c.0538.427431.56031.708103 1.01653.345898.35631-.494041.005-1.01688-.45588-1.00335-.30392.009-.544.248756-.56377.546084l-3.55648.103736c-.0371-.295246-.29074-.520758-.59466-.512083-.46073.01353-.78131.556143-.39655 1.02833"/><path d="M10.91621 27.22432438c.23349-.821901-.4316-1.349596-1.04047-1.181676l-1.86134-4.873811c.56586-.280675.71019-1.117144-.0118-1.574065-.8559-.255-1.40996.484328-1.16884 1.115759.15925.416328.60715.632818 1.02798.516593l1.86168 4.87381c-.39134.194285-.58112.654327-.42187 1.070654.24077.631086 1.14698.813229 1.61465.05273m-4.78361.8389c.48086-.643572.0736-1.330167-.51763-1.387065v-4.905728c.59118-.0569.99849-.743491.51763-1.387066-.66613-.511042-1.40094-.04719-1.40094.588063 0 .419104.32091.759798.72961.799003v4.905728c-.4087.0392-.72961.379898-.72961.799003 0 .635245.73481 1.099105 1.40094.588062m-3.39723 2.918804c-.45554.609574-.0701 1.259739.48988 1.313513v4.645871c-.55997.0538-.94542.70394-.48988 1.31352.63073.48398 1.32669.0447 1.32669-.55684 0-.3969-.30392-.71955-.6911-.75668v-4.645871c.38718-.03713.6911-.359775.6911-.756675 0-.601594-.69596-1.040819-1.32669-.556838m4.06127 2.217986c.55372-.453449.34868-1.134145-.15057-1.310043l1.05053-4.24238c.52354.07771 1.02244-.428817.74454-1.088351-.46664-.584594-1.20146-.341042-1.33746.208511-.0895.362553.11484.72545.46005.847226l-1.05054 4.242034c-.36186-.05343-.71227.172081-.80212.534634-.136.549553.40002 1.107778 1.08557.808369"/><path d="M2.99835 29.26883938c.73759.256042 1.25349-.323346 1.13172-.88747l4.54248-1.443965c.22655.530471.98219.705675 1.43633.07078.27721-.767084-.36845-1.311084-.95686-1.123737-.38788.123163-.60888.52041-.52457.910717l-4.54248 1.443962c-.15682-.367062-.56621-.563777-.95444-.440266-.58841.187001-.80143 1.003696-.13218 1.469983m7.98031-5.933016c.32647.244247.67479.03747.70359-.262286h2.48895c.0284.299756.37677.506533.70359.262286.25916-.33792.0239-.710534-.29837-.710534-.21267 0-.38545.162717-.40522.370186h-2.48895c-.0201-.207469-.1929-.370186-.40522-.370186-.32266 0-.55788.372614-.29837.710534"/></g></svg>