<svg xmlns="http://www.w3.org/2000/svg" xml:space="preserve" viewBox="0 0 33.34 91.2"><g fill="#231f20"><path d="M24.4 66.4c-.79.04-1.04.77-.72 1.25l-3.66 3.06c-.4-.41-1.17-.29-1.35.47.03.82.83 1.08 1.3.68a.78.78 0 0 0 .15-1.04l3.66-3.06c.28.28.74.31 1.05.05.47-.4.36-1.24-.44-1.41m-6.72.81c-.52.17-.57.72-.26.98l-1.93 2.74c-.35-.2-.85.03-.84.57.17.55.77.58 1.02.23a.55.55 0 0 0-.1-.74l1.94-2.74c.24.14.56.08.72-.16.25-.35.02-.9-.55-.88"/><path d="M17.05 66.51c.01.39.37.52.61.37l1.5 1.84c-.21.2-.15.58.22.68.4-.01.54-.41.35-.65a.39.39 0 0 0-.52-.08l-1.49-1.84a.39.39 0 0 0 .03-.52c-.19-.24-.6-.2-.7.2"/><path d="M14.42 70.47c.7-.23.77-.97.35-1.33l2.65-3.7c.47.27 1.15-.03 1.13-.77-.22-.75-1.03-.8-1.37-.31a.75.75 0 0 0 .12 1l-2.64 3.7a.75.75 0 0 0-.98.21c-.34.48-.04 1.23.74 1.2M30.8 81.72c-.2-.48-.7-.48-.93-.18l-2.7-1.61c.17-.35-.08-.8-.6-.74-.5.2-.48.75-.13.96.23.14.52.07.68-.14l2.7 1.62a.52.52 0 0 0 .2.66c.35.21.84-.04.78-.57m1.87 2.57c-.53-.09-.81.37-.66.74l-2.92 1.52c-.21-.33-.75-.36-.98.13-.1.55.4.85.78.65a.54.54 0 0 0 .25-.68l2.91-1.53c.16.23.46.31.7.18.38-.2.43-.78-.08-1.01m-5.68-7.08c-.64-.02-.9.57-.66.98l-3.18 2.29c-.31-.36-.95-.3-1.14.3-.02.68.62.94 1.03.64.28-.2.35-.56.18-.84l3.18-2.3c.22.25.6.3.86.1.41-.29.37-.98-.27-1.17"/><path d="M26.57 72.5c-.36.64.1 1.21.64 1.2l.58 4.46c-.53.12-.82.8-.3 1.33.67.38 1.28-.13 1.2-.7a.74.74 0 0 0-.76-.65l-.58-4.46a.74.74 0 0 0 .57-.82c-.08-.58-.8-.91-1.35-.37m5.86 14.36c-.32.3-.17.72.14.8l-.47 2.66c-.33-.02-.62.31-.42.7.31.35.76.17.82-.18a.44.44 0 0 0-.32-.5l.48-2.66c.22.02.43-.14.47-.36.06-.35-.29-.67-.7-.46M18.49 75.97c.13.83.94 1.03 1.42.63l3.66 3.62c-.39.48-.18 1.3.66 1.4.87-.11 1.07-1 .6-1.47a.84.84 0 0 0-1.14-.05l-3.67-3.61a.84.84 0 0 0-.05-1.13c-.48-.47-1.37-.27-1.48.6m1.97-3.32c.2.33.6.27.72.02l2.23.88c-.08.28.15.6.53.5.36-.22.28-.64 0-.75a.4.4 0 0 0-.5.19l-2.23-.9a.4.4 0 0 0-.23-.47c-.29-.12-.63.13-.52.53"/><path d="M24.63 79.27c-.66-.19-1.1.35-.96.84l-3.97 1.5c-.23-.46-.9-.58-1.28 0-.2.7.39 1.15.9.96a.7.7 0 0 0 .43-.84l3.97-1.5a.7.7 0 0 0 .86.36c.52-.2.67-.93.05-1.32m-3.07-8.55c.26.34.67.23.78-.06l2.47.68c-.05.3.24.6.63.45.35-.27.22-.7-.1-.79a.42.42 0 0 0-.5.26l-2.48-.68a.42.42 0 0 0-.3-.48c-.33-.09-.66.22-.5.62"/><path d="M23.93 79.81c-.55-.46-1.18-.14-1.26.38l-4.36-.27c-.02-.53-.6-.93-1.2-.54-.5.56-.12 1.24.44 1.28.37.02.7-.25.75-.6l4.36.27c.01.36.3.67.67.7.56.03 1.02-.6.6-1.22m5.73 3.36c.45.04.66-.35.51-.65l2.35-1.44c.2.27.64.26.81-.15.05-.47-.39-.69-.69-.5a.45.45 0 0 0-.17.58l-2.34 1.43a.45.45 0 0 0-.6-.11c-.3.19-.3.67.13.84"/><path d="M22.42 79.87c-.03.4.32.58.58.45l1.3 2.05c-.24.18-.23.57.14.71.41.04.6-.35.43-.61a.4.4 0 0 0-.51-.14l-1.3-2.05a.4.4 0 0 0 .1-.53c-.17-.26-.6-.26-.74.12"/><path d="M23.3 81.71c-.56.16-.63.72-.31 1.02l-2.15 2.78c-.36-.22-.9-.01-.9.57.15.58.77.64 1.05.28a.58.58 0 0 0-.06-.78l2.14-2.79c.25.16.58.1.77-.13.28-.36.06-.95-.54-.95m.19 2.49c.3.57.93.5 1.18.1L28.2 86c-.16.44.2.97.82.85.6-.3.52-1 .06-1.22a.64.64 0 0 0-.83.26l-3.54-1.69a.64.64 0 0 0-.33-.8c-.46-.22-1.04.15-.9.8m-7.47-7.27c.35.27.74.04.77-.29h2.72c.03.33.4.56.76.29.29-.37.03-.78-.32-.78a.44.44 0 0 0-.44.4h-2.72a.45.45 0 0 0-.45-.4c-.35 0-.6.4-.32.78m4.6 2.89c-.18-.37-.58-.35-.75-.1l-2.17-1.17c.11-.28-.1-.62-.5-.56-.38.17-.35.6-.07.76.19.1.42.04.53-.13l2.18 1.16a.4.4 0 0 0 .18.52c.28.15.66-.07.6-.48m11.77 2.83c.06-.69-.54-1-1-.78l-2.21-3.59c.4-.3.4-1-.25-1.25-.72-.07-1.04.6-.76 1.06.2.31.58.42.9.26l2.2 3.59a.69.69 0 0 0-.17.91c.29.47 1.03.47 1.3-.2"/><path d="M19.59 80.01c-.25.46.07.87.46.85l.46 3.16c-.38.09-.58.57-.2.94.47.27.9-.1.84-.51a.52.52 0 0 0-.55-.45l-.45-3.16a.52.52 0 0 0 .4-.58c-.06-.4-.58-.64-.96-.25m2.98 8.22c.62-.1.76-.72.45-1.07l2.64-2.8c.37.3.97.12 1.04-.5-.1-.66-.77-.79-1.12-.42a.63.63 0 0 0 0 .84l-2.64 2.8a.63.63 0 0 0-.85.06c-.34.37-.17 1.03.48 1.1m-5.27-7.87c-.13.51.3.83.67.71l1.24 3c-.35.19-.42.71.03.98.54.15.87-.32.71-.71a.53.53 0 0 0-.65-.3l-1.24-3a.53.53 0 0 0 .25-.68c-.17-.39-.73-.48-1.01 0m9.54 2.73c-.24.69.3 1.16.83 1.05l1.37 4.22c-.5.22-.65.92-.06 1.34.72.26 1.22-.35 1.04-.9a.73.73 0 0 0-.85-.48l-1.37-4.22a.73.73 0 0 0 .4-.9c-.17-.54-.93-.74-1.36-.11"/><path d="M27.7 84.7c-.3-.58-.94-.51-1.19-.1l-3.6-1.66c.16-.45-.2-.98-.84-.85-.6.32-.51 1.02-.04 1.23.3.14.66.02.83-.26l3.6 1.66c-.1.3.03.66.34.8.47.22 1.06-.17.9-.83M14.15 40.71c.37.65 1.1.55 1.37.07l4.15 1.8c-.17.53.27 1.13.99.95.68-.37.55-1.16.01-1.4a.74.74 0 0 0-.94.33l-4.16-1.8a.74.74 0 0 0-.4-.92c-.54-.23-1.2.22-1.02.97m2.55 21.34c-.6.23-.63.87-.26 1.17l-2.15 3.33c-.42-.22-1 .07-.96.72.23.64.94.65 1.21.21a.65.65 0 0 0-.14-.86l2.15-3.33c.3.15.66.06.84-.23.28-.43-.01-1.06-.69-1"/><path d="M11.16 46.91c.83.11 1.24-.6.99-1.17l4.42-2.5c.35.51 1.18.53 1.51-.23.13-.86-.67-1.29-1.24-.96a.83.83 0 0 0-.35 1.06l-4.42 2.5a.83.83 0 0 0-1.1-.26c-.56.33-.6 1.22.2 1.56m8.14 8.94c-.21-.82-1.04-.94-1.48-.49l-4.03-3.22c.34-.53.05-1.31-.8-1.34-.85.2-.96 1.12-.43 1.54.34.27.83.23 1.13-.08l4.03 3.23a.85.85 0 0 0 .18 1.12c.52.42 1.38.12 1.4-.76m-2.9-7.37c.4-.05.5-.44.32-.67l1.77-1.73c.23.19.62.1.68-.3-.05-.43-.48-.53-.7-.3a.4.4 0 0 0-.04.54l-1.77 1.73a.4.4 0 0 0-.54.02c-.23.22-.14.65.28.71"/><path d="M18.94 56.28c-.67.5-.46 1.31.12 1.54l-1.42 4.93c-.61-.11-1.22.46-.93 1.25.53.7 1.4.45 1.58-.19a.84.84 0 0 0-.5-1.01l1.42-4.93c.43.08.85-.17.97-.6.18-.63-.42-1.31-1.24-1"/><path d="M12.95 56.83c.07.66.71.85 1.1.54l2.8 2.99c-.32.37-.18 1.02.48 1.14.7-.07.88-.77.52-1.16a.67.67 0 0 0-.9-.07l-2.8-2.98a.67.67 0 0 0-.01-.9c-.37-.4-1.08-.26-1.19.44"/><path d="M17.54 59.91c.35-.72-.18-1.32-.77-1.27l-.91-4.85c.57-.16.85-.92.25-1.46-.75-.38-1.4.21-1.27.84a.8.8 0 0 0 .87.65l.9 4.85a.8.8 0 0 0-.56.92c.11.63.93.95 1.49.32m-.3-14.85c.18.36.59.33.75.07l2.26 1.11c-.11.29.11.63.52.56.39-.2.34-.64.05-.78a.41.41 0 0 0-.54.15l-2.26-1.1a.41.41 0 0 0-.2-.53c-.3-.14-.67.1-.59.52m1.3 3.75c-.42.68.04 1.33.63 1.34l.4 4.89c-.59.1-.94.82-.4 1.42.7.46 1.4-.06 1.34-.7a.8.8 0 0 0-.79-.73l-.4-4.9a.8.8 0 0 0 .67-.85c-.05-.63-.82-1.03-1.44-.47m-10.14.24c.35-.37.14-.84-.23-.92l.37-3.1c.38.01.68-.4.43-.83-.38-.38-.88-.14-.93.26-.03.27.15.5.4.56l-.36 3.1a.51.51 0 0 0-.53.45c-.04.4.39.75.85.48"/><path d="M13.17 46.27c.49.36 1.01.05 1.05-.4h3.72c.04.45.56.76 1.05.4.39-.5.03-1.07-.45-1.07a.6.6 0 0 0-.6.56h-3.72a.6.6 0 0 0-.6-.56c-.48 0-.83.56-.45 1.07m-1.5 10.48c.29.41.78.31.93-.03l2.92 1c-.1.36.23.75.71.6.44-.3.32-.83-.06-.96a.5.5 0 0 0-.62.27l-2.92-1a.5.5 0 0 0-.32-.6c-.38-.13-.8.22-.64.72"/><path d="M14.95 49.28c.2-.64-.33-1.06-.8-.93l-1.42-3.84c.44-.21.56-.87 0-1.23-.67-.21-1.11.36-.93.86.12.33.47.5.8.42l1.42 3.83a.68.68 0 0 0-.34.84c.19.5.9.64 1.27.05m-9.38 1.2c.51-.38.36-1-.08-1.18l1.15-3.76c.47.1.94-.33.72-.94-.39-.54-1.06-.36-1.2.13-.1.32.06.65.37.78l-1.15 3.75a.64.64 0 0 0-.75.44c-.15.49.3 1.01.94.78"/><path d="M14.2 45.53c-.02-.47-.46-.63-.76-.44l-1.82-2.23c.24-.25.17-.71-.28-.83-.5.02-.66.5-.42.8.15.18.43.22.63.09l1.82 2.23a.47.47 0 0 0-.03.63c.24.3.74.23.86-.25"/><path d="M13.85 39.47c-.43.02-.58.41-.41.68l-2.06 1.63c-.22-.23-.65-.18-.76.24 0 .45.45.6.71.4a.43.43 0 0 0 .1-.58l2.06-1.62c.15.15.4.18.58.04.26-.21.21-.68-.22-.79M10.98 52.1c-.32.77.27 1.37.88 1.27l1.24 4.99c-.58.2-.82 1-.17 1.54.8.35 1.44-.3 1.27-.95a.84.84 0 0 0-.94-.63l-1.24-4.98c.4-.15.64-.58.54-1-.16-.65-1.03-.93-1.58-.24m7.77-8.94c-.38-.48-.96-.32-1.12.1l-3.58-1c.08-.43-.34-.87-.9-.65-.51.38-.32 1.01.14 1.14a.6.6 0 0 0 .73-.37l3.58.99c-.05.3.13.6.43.7.47.12.95-.32.72-.91"/><path d="M15.22 44.1c.04-.43-.34-.62-.62-.48l-1.38-2.21c.25-.2.24-.62-.16-.78-.45-.04-.65.38-.47.66.12.2.36.26.56.16l1.38 2.21a.43.43 0 0 0-.1.57c.17.28.63.29.79-.13m-.76 21.37c.42-.56.07-1.16-.45-1.21v-4.29c.52-.05.87-.65.45-1.21-.58-.45-1.22-.04-1.22.51 0 .37.28.67.64.7v4.29a.7.7 0 0 0-.64.7c0 .55.64.96 1.22.5M10 49.89c.55-.32.47-.94.06-1.17l1.53-3.55c.44.14.95-.23.8-.84-.32-.58-1-.47-1.2-.01-.12.3 0 .65.29.8l-1.53 3.56a.63.63 0 0 0-.78.35c-.2.46.19 1.02.83.86m-1.54 2.04c.39.29.8.04.84-.32h2.96c.03.36.45.6.84.32.3-.4.03-.85-.36-.85-.25 0-.46.2-.48.44H9.29a.49.49 0 0 0-.49-.44c-.38 0-.66.45-.35.85m-.63-9.51c-.46.3-.35.85.02 1.02l-1.11 3.2c-.4-.1-.82.26-.66.8.32.48.9.34 1.05-.08a.56.56 0 0 0-.3-.68l1.12-3.2c.28.06.56-.09.66-.36.14-.42-.23-.89-.78-.7"/><path d="M17.2 52.24c-.35-.6-1.03-.51-1.27-.06l-3.88-1.67c.15-.49-.25-1.04-.92-.88-.63.35-.52 1.1-.01 1.3a.7.7 0 0 0 .88-.3l3.88 1.67a.7.7 0 0 0 .38.85c.5.21 1.12-.21.94-.91"/><path d="M18.08 49.23c-.62.37-.52 1.08-.05 1.33l-1.7 4.06c-.51-.16-1.09.27-.91.97.37.65 1.14.52 1.36 0a.72.72 0 0 0-.33-.92l1.7-4.06c.36.11.74-.06.88-.4.23-.53-.22-1.17-.95-.98m-5.91 15.55c.34-.18.3-.57.05-.72l1.02-2.18c.28.1.6-.13.52-.51-.2-.37-.61-.31-.75-.03a.4.4 0 0 0 .16.5l-1.01 2.19a.4.4 0 0 0-.5.2c-.13.28.1.64.5.55M9.05 40.6c-.43-.08-.66.3-.54.6l-2.38 1.23c-.17-.27-.6-.3-.8.1-.08.45.33.69.64.53.2-.11.29-.35.2-.56l2.38-1.23c.12.19.36.26.57.15.3-.16.34-.63-.07-.82"/><path d="M17.32 56.62c.42-.29.32-.79-.02-.95l1.04-2.96c.36.1.76-.23.6-.72-.3-.45-.83-.33-.97.06a.5.5 0 0 0 .27.63l-1.03 2.96a.51.51 0 0 0-.61.33c-.14.38.2.82.72.65m-1.5 1.25c-.57.11-.68.68-.4.99L13.1 61.5c-.35-.25-.9-.08-.94.5.11.6.73.7 1.03.35a.58.58 0 0 0-.01-.78l2.34-2.64c.24.18.57.15.77-.08.3-.34.13-.94-.47-.98"/><path d="M10.7 58.1c-.26.56.15 1.02.6.97l.75 3.72c-.44.13-.65.7-.18 1.12.58.29 1.06-.17.97-.65a.62.62 0 0 0-.68-.5l-.74-3.71c.3-.1.5-.4.43-.71-.1-.49-.72-.72-1.15-.24m1.65-7.24c-.41.14-.44.57-.2.78l-1.5 2.17c-.28-.15-.67.03-.66.46.14.43.6.45.8.17a.43.43 0 0 0-.07-.58l1.5-2.17c.2.1.44.05.57-.13.2-.29 0-.72-.44-.7"/><path d="M13.05 58.22c-.25-.66-.94-.68-1.27-.28l-3.61-2.33c.23-.46-.08-1.08-.78-1.04-.7.25-.7 1.01-.23 1.32.3.2.7.12.93-.16l3.62 2.33a.7.7 0 0 0 .24.92c.47.3 1.16-.02 1.1-.76m6.3 4.23c-.15.39.15.67.45.62l.7 2.43c-.28.11-.39.51-.06.76.4.16.7-.17.61-.49a.41.41 0 0 0-.47-.3l-.7-2.43c.2-.07.3-.29.25-.5-.1-.31-.52-.44-.78-.09"/><path d="M14.87 58.02c-.48-.49-1.12-.23-1.24.26l-4.16-.63c.03-.5-.5-.94-1.1-.62-.53.5-.23 1.18.3 1.27a.7.7 0 0 0 .78-.52l4.16.63a.7.7 0 0 0 .58.73c.54.08 1.03-.48.68-1.12m2.68-18.26c-.5.68-.08 1.4.54 1.45v5.13c-.62.06-1.04.78-.54 1.45.7.54 1.46.05 1.46-.61 0-.44-.33-.8-.76-.84v-5.13c.43-.04.76-.4.76-.83 0-.67-.76-1.15-1.46-.62m1.71 13.03c-.18-.75-.93-.87-1.34-.47l-3.62-3c.32-.46.06-1.18-.7-1.22-.79.18-.9 1-.43 1.4.31.25.76.22 1.04-.06l3.62 3a.77.77 0 0 0 .14 1.02c.47.39 1.26.13 1.3-.67"/><path d="M9.17 61.13c.74.21 1.22-.39 1.07-.94l4.4-1.65c.25.51 1 .65 1.42 0 .24-.77-.43-1.27-1-1.06a.77.77 0 0 0-.47.92l-4.4 1.66a.77.77 0 0 0-.97-.39c-.57.21-.74 1.03-.05 1.46M12.1 46.1c-.86.03-1.15.83-.8 1.36l-4.09 3.27c-.44-.45-1.28-.33-1.5.5.02.9.9 1.2 1.43.77a.86.86 0 0 0 .17-1.14l4.08-3.27c.31.31.8.35 1.16.07.52-.42.42-1.34-.45-1.56m5.68 18.71c-.04.52.42.75.76.58l1.68 2.66c-.3.24-.3.75.19.94.54.05.78-.46.56-.8a.52.52 0 0 0-.67-.19l-1.68-2.66a.52.52 0 0 0 .12-.69c-.21-.34-.77-.34-.96.16"/><path d="M12.06 46.58c-.39.09-.45.48-.25.69l-1.58 1.84c-.24-.17-.61-.05-.64.35.09.4.51.47.71.23a.4.4 0 0 0-.01-.53l1.58-1.84c.16.11.4.09.53-.07.2-.24.07-.65-.34-.67m-3.7 8.07c.32-.38.1-.82-.26-.88l.21-3.04c.37 0 .65-.41.39-.83-.4-.35-.87-.1-.9.3a.5.5 0 0 0 .42.53L8 53.76a.5.5 0 0 0-.48.46c-.03.4.4.71.84.43"/><path d="M9.24 53.31c.27-.44-.03-.85-.42-.85l-.3-3.15c.38-.08.6-.54.25-.92-.46-.3-.9.05-.87.46.03.27.26.47.52.47l.3 3.15a.52.52 0 0 0-.41.55c.04.41.54.66.93.3"/><path d="M7.82 53.15c-.02.6.52.85.91.64l2.08 3.04c-.34.28-.3.88.27 1.08.63.03.89-.57.62-.96a.6.6 0 0 0-.8-.19l-2.07-3.04a.6.6 0 0 0 .11-.8c-.27-.4-.92-.37-1.12.23m15.53 1.56c-.75-.24-1.25.36-1.11.93l-4.54 1.59c-.24-.53-1.01-.68-1.45-.03-.26.78.41 1.31 1 1.1.39-.13.6-.54.5-.93l4.54-1.59a.8.8 0 0 0 .97.42c.59-.21.78-1.04.1-1.49M13.11 40.42c-.51-.38-1.05-.06-1.1.41H8.15c-.04-.47-.59-.79-1.1-.4-.4.52-.03 1.1.47 1.1.33 0 .6-.26.63-.58h3.87c.03.32.3.58.63.58.5 0 .87-.58.47-1.1m11.6 24.97c-.6-.35-1.14.06-1.13.57l-4.2.47c-.1-.5-.73-.78-1.23-.3-.37.61.1 1.2.64 1.14a.7.7 0 0 0 .61-.7l4.2-.48c.06.35.39.6.74.55.55-.06.87-.73.37-1.25m-5.85-12.97c.4-.24.32-.7.02-.86l1.06-2.62c.32.1.69-.19.57-.63-.25-.42-.74-.33-.88 0-.09.23.01.48.22.6l-1.05 2.62a.46.46 0 0 0-.56.27c-.14.34.15.75.62.62M19 63.38c-.17-.7-.9-.82-1.27-.43l-3.46-2.83c.3-.45.05-1.13-.68-1.17-.75.18-.84.97-.4 1.33.3.24.73.21.99-.05l3.46 2.83c-.21.3-.16.73.14.97.45.37 1.2.12 1.22-.65"/><path d="M13.16 50.24c-.6.46-.41 1.2.12 1.4L12 56.14c-.55-.1-1.1.42-.83 1.13.48.64 1.27.4 1.44-.18a.76.76 0 0 0-.46-.92l1.26-4.5c.38.08.76-.15.87-.54.16-.58-.4-1.2-1.13-.9m1.8-11.9c-.17.4.12.7.42.65l.6 2.48c-.3.1-.42.5-.1.77.4.18.71-.15.64-.47a.42.42 0 0 0-.47-.31l-.59-2.49c.2-.07.33-.28.28-.5-.08-.31-.5-.46-.78-.12"/><path d="M12.99 44.86c-.44.58-.07 1.2.47 1.25v4.44c-.54.05-.9.67-.47 1.26.6.46 1.27.04 1.27-.53a.73.73 0 0 0-.66-.73v-4.44a.73.73 0 0 0 .66-.72c0-.58-.67-1-1.27-.53m6.46 13.33c-.33.78.26 1.37.88 1.28l1.26 5.01c-.6.21-.83 1.02-.18 1.55.82.35 1.45-.31 1.29-.96a.85.85 0 0 0-.95-.63l-1.26-5.01c.4-.14.65-.57.54-1-.16-.65-1.03-.94-1.58-.24m-.89-3.38c.5-.66.08-1.37-.53-1.43v-5.07c.6-.06 1.03-.77.53-1.44-.69-.52-1.45-.04-1.45.61 0 .44.33.79.76.83v5.07a.83.83 0 0 0-.76.83c0 .65.76 1.13 1.45.6"/><path d="M13.64 50.65c.42-.05.53-.46.33-.7l1.85-1.83c.24.2.66.1.72-.32-.06-.44-.5-.55-.74-.31a.43.43 0 0 0-.03.57l-1.85 1.82a.43.43 0 0 0-.58.03c-.24.23-.14.68.3.74m7.13 2.97c-.6-.03-.85.5-.64.9l-3.02 2.05c-.28-.34-.88-.3-1.07.26-.04.62.55.88.94.62a.6.6 0 0 0 .2-.79l3.02-2.05c.19.24.53.3.8.12.38-.27.36-.92-.23-1.11"/><path d="M21.91 55.47c-.08-.38-.46-.45-.67-.25l-1.8-1.6c.17-.23.06-.6-.34-.63-.4.08-.47.5-.23.7a.4.4 0 0 0 .52 0l1.8 1.58a.4.4 0 0 0 .06.53c.23.2.63.08.66-.33m-15-13.85c.07-.44-.31-.66-.61-.53l-1.32-2.37c.27-.19.29-.63-.12-.81-.46-.07-.69.35-.52.66.11.2.36.28.57.19l1.31 2.37a.44.44 0 0 0-.14.58c.17.31.65.34.84-.09m7.65 7.86c-.48-.36-1-.06-1.04.39H9.87c-.05-.45-.56-.75-1.04-.39-.38.5-.04 1.05.44 1.05a.6.6 0 0 0 .6-.55h3.66c.03.3.29.55.6.55.47 0 .82-.55.44-1.05m-2.61-4.14c-.26-.31-.64-.2-.74.08l-2.38-.58c.04-.3-.24-.58-.61-.42-.33.26-.2.67.12.75.2.05.4-.06.47-.26l2.38.59c-.03.2.1.4.3.45.31.07.63-.23.46-.61m7.3 12.65c-.14-.37-.52-.39-.7-.16l-1.97-1.32c.13-.25-.03-.6-.42-.58-.38.13-.4.55-.14.72.17.11.4.08.52-.08l1.97 1.32c-.1.17-.05.4.12.5.26.18.64 0 .61-.4m-1.92-7.5c.44-.08.55-.52.33-.78l1.92-2c.27.2.7.08.76-.37-.07-.47-.55-.57-.8-.3a.46.46 0 0 0-.02.6l-1.92 2.01a.46.46 0 0 0-.62.04c-.25.26-.13.74.35.8m-6.15-9.36c.62.15 1-.36.86-.8l3.57-1.5c.22.42.85.5 1.17-.04.17-.64-.4-1.04-.85-.85a.63.63 0 0 0-.36.78l-3.58 1.5a.64.64 0 0 0-.8-.3c-.47.2-.58.88 0 1.2m-7-38.74c-.67.47-.49 1.27.07 1.51L2.7 8.66c-.6-.13-1.2.41-.94 1.19.48.7 1.35.5 1.55-.13a.82.82 0 0 0-.46-1l1.56-4.78c.41.1.83-.14.96-.55.2-.61-.36-1.3-1.17-1.01m-1.01 9.41c.37.22.71-.04.7-.36l2.63-.3c.07.31.46.49.77.2.24-.4-.06-.76-.4-.72a.43.43 0 0 0-.38.44l-2.62.3A.43.43 0 0 0 3.4 11c-.34.04-.54.46-.22.78m.31 5.11c.26-.71-.3-1.23-.84-1.12l-1.34-4.45c.52-.2.7-.94.1-1.4-.75-.28-1.29.34-1.12.92.12.38.5.6.88.53l1.34 4.45a.76.76 0 0 0-.45.92c.17.57.97.8 1.43.15"/><path d="M8.43 10.47c-.2-.69-.91-.76-1.27-.37L3.64 7.47c.27-.46 0-1.12-.72-1.12-.73.2-.79.98-.33 1.32.3.23.72.18.96-.1l3.53 2.64a.7.7 0 0 0 .18.95c.46.34 1.18.07 1.17-.69m5.47.12c.2-.81-.45-1.31-1.04-1.14l-1.92-4.72c.55-.28.67-1.1-.04-1.53-.84-.23-1.37.5-1.12 1.11.16.4.6.6 1.01.49l1.92 4.71a.83.83 0 0 0-.39 1.06c.25.6 1.14.77 1.58.02"/><path d="M6.63.63c-.08.82.64 1.2 1.19.94l2.61 4.31c-.49.37-.48 1.19.28 1.5.86.09 1.26-.7.92-1.27a.83.83 0 0 0-1.06-.31L7.95 1.49a.83.83 0 0 0 .22-1.1c-.34-.55-1.23-.57-1.54.24m4.04 11.4c-.5.07-.63.57-.39.86L8.1 15.12c-.3-.23-.8-.1-.86.4.08.54.62.65.9.36a.5.5 0 0 0 .03-.69l2.18-2.23c.2.16.5.15.7-.04.28-.3.15-.83-.38-.9m-3.15 77.2c-.54-.4-1.11-.05-1.16.44h-4.1c-.04-.5-.61-.83-1.15-.43-.42.55-.04 1.17.5 1.17.34 0 .63-.27.66-.61h4.1c.02.34.3.6.66.6.53 0 .92-.6.49-1.16M.2 21.87c-.45.61-.07 1.26.5 1.31v4.65c-.57.05-.95.7-.5 1.31.63.49 1.33.05 1.33-.55 0-.4-.3-.72-.7-.76v-4.65c.4-.03.7-.36.7-.75 0-.6-.7-1.04-1.33-.56"/><path d="M1.18 27.33c.14.57.7.66 1.01.35l2.74 2.25c-.24.35-.04.9.54.92.6-.14.67-.76.31-1.05a.58.58 0 0 0-.78.04L2.26 27.6a.58.58 0 0 0-.11-.77c-.36-.29-.95-.1-.97.51m8.34 12.84c.42-.57.06-1.18-.46-1.23V34.6c.52-.05.88-.66.46-1.23-.59-.45-1.24-.04-1.24.52 0 .37.28.67.65.7v4.35a.71.71 0 0 0-.65.7c0 .57.65.98 1.24.53m-3.66-7.68c-.2-.34-.58-.29-.72-.04l-2.18-.94c.09-.28-.14-.59-.52-.5-.36.2-.3.62 0 .74.18.08.4 0 .49-.17l2.18.94a.4.4 0 0 0 .22.48c.28.12.63-.12.53-.51M4.1 17.08c.2.41.67.39.85.1l2.52 1.3c-.13.33.11.72.57.64.44-.2.4-.7.07-.87a.46.46 0 0 0-.6.16l-2.52-1.3a.46.46 0 0 0-.21-.6c-.33-.17-.76.09-.68.57m7.25 16.31c-.32.33-.14.74.18.82l-.38 2.74c-.34-.01-.62.34-.4.74.33.34.78.13.83-.22a.45.45 0 0 0-.35-.5l.39-2.75c.23.01.44-.15.47-.39.05-.35-.33-.67-.74-.44M8.1 25.47c.52.38 1.06.06 1.1-.41h3.9c.05.47.6.8 1.1.4.41-.52.04-1.1-.46-1.1-.34 0-.6.25-.64.58H9.2a.64.64 0 0 0-.63-.58c-.5 0-.87.58-.47 1.1"/><path d="M16.21 27.1c-.82.16-1 .97-.58 1.43l-3.46 3.75c-.5-.37-1.29-.13-1.38.7.15.86 1.04 1.02 1.49.54.3-.32.29-.8 0-1.13l3.47-3.75c.34.26.82.23 1.12-.1.45-.48.21-1.35-.66-1.43"/><path d="M10.88 29.62c.42.17.74-.15.69-.48l2.68-.7c.12.31.55.43.84.08.18-.44-.18-.77-.53-.68a.45.45 0 0 0-.33.51l-2.68.7a.46.46 0 0 0-.55-.28c-.34.09-.5.56-.12.85m3.7-3c-.23-.37-.65-.31-.8-.03l-2.45-1.03c.1-.3-.16-.65-.58-.55-.4.23-.32.7 0 .82.2.1.44 0 .55-.2l2.44 1.04c-.06.21.04.44.25.53.31.14.7-.13.58-.57M3.66 36c.57-.05.74-.6.48-.94l2.6-2.37c.32.3.88.18 1-.39-.06-.6-.66-.77-1-.46a.58.58 0 0 0-.07.77L4.07 35a.58.58 0 0 0-.78 0c-.34.3-.23.92.37 1.02m9.32-4.54c.22.32.6.24.71-.02l2.26.75c-.06.28.19.57.56.45.34-.23.24-.64-.06-.73a.39.39 0 0 0-.48.21l-2.25-.75a.39.39 0 0 0-.26-.46c-.3-.1-.62.17-.48.55"/><path d="M16.73 27.6c-.42-.37-.92-.12-.99.29l-3.4-.24c-.02-.41-.48-.73-.95-.43-.39.44-.1.97.34 1 .3.03.55-.18.6-.46l3.4.24c.01.28.23.52.53.54.44.03.8-.45.47-.94m-3.48-12.4c-.44-.02-.62.37-.47.66l-2.22 1.52c-.2-.25-.64-.22-.79.2-.02.45.42.64.7.45a.44.44 0 0 0 .14-.58l2.22-1.52c.15.17.4.21.59.08.29-.2.27-.67-.17-.81m2.68 18.44c-.22-.31-.6-.22-.7.04L12.98 33c.06-.28-.2-.56-.56-.43-.32.23-.22.63.07.72.2.06.4-.04.47-.22l2.25.7c-.04.18.07.38.26.44.29.09.6-.18.46-.56m-9.4-14.73c.3.68 1.04.67 1.36.22l3.96 2.26c-.23.5.14 1.15.88 1.06.72-.3.68-1.1.17-1.4a.75.75 0 0 0-.98.22L7.96 19a.75.75 0 0 0-.3-.95c-.52-.3-1.23.08-1.13.86"/><path d="M10.58 30.06c.02.5.5.67.8.47l1.95 2.38c-.26.26-.19.76.3.88.53-.02.7-.53.45-.84a.5.5 0 0 0-.67-.1l-1.95-2.38a.5.5 0 0 0 .03-.68c-.25-.31-.79-.24-.91.27m5.77 10.05c.42-.36.25-.89-.14-1.01l.73-3.3c.41.06.79-.34.56-.85-.37-.44-.93-.24-1.03.19-.06.28.1.56.37.64l-.73 3.3a.55.55 0 0 0-.61.42c-.1.43.33.85.85.6m-4.47-3.63c.35.22.68-.02.68-.32l2.48-.21c.05.3.41.47.72.2.23-.36-.04-.7-.36-.68a.4.4 0 0 0-.37.4l-2.48.22a.4.4 0 0 0-.43-.34c-.32.03-.52.42-.24.73m-8.9-7c.22.35.64.28.78 0l2.44.95c-.08.3.18.64.6.53.38-.24.29-.7-.03-.81a.43.43 0 0 0-.54.2L3.8 29.4a.43.43 0 0 0-.25-.52c-.32-.12-.7.15-.57.58m8.54-10.32c-.26-.42-.75-.33-.9 0L7.78 18.1c.1-.35-.21-.73-.69-.6-.43.28-.32.8.04.94a.5.5 0 0 0 .62-.25l2.82 1.04a.5.5 0 0 0 .3.59c.37.14.8-.19.64-.68"/><path d="M7.36 34.1c.47.36.97.06 1-.37h3.58c.04.43.54.73 1 .38.38-.49.04-1.02-.42-1.02-.3 0-.56.23-.58.53H8.37a.58.58 0 0 0-.58-.53c-.47 0-.8.53-.43 1.02m9.01-1.43c-.4.13-.41.55-.18.74l-1.4 2.1c-.28-.14-.65.04-.63.45.14.42.59.43.77.16a.42.42 0 0 0-.08-.56l1.41-2.1c.19.1.42.04.54-.14.19-.27 0-.68-.43-.65M13.75 20c-.35-.2-.67.05-.66.35l-2.42.32c-.07-.29-.44-.45-.72-.17-.21.37.06.7.38.66a.4.4 0 0 0 .35-.41l2.42-.33c.05.2.24.34.45.31.31-.04.5-.43.2-.73m-2.56 17.1c.42.74 1.26.63 1.57.08l4.76 2.07c-.2.6.3 1.28 1.13 1.09.77-.43.63-1.34.02-1.61a.85.85 0 0 0-1.09.37l-4.76-2.07a.85.85 0 0 0-.47-1.04c-.61-.27-1.37.25-1.16 1.11M9.25 24.2c-.28.73.27 1.27.84 1.17l1.26 4.57c-.54.2-.74.95-.13 1.43.75.3 1.32-.32 1.15-.9a.78.78 0 0 0-.88-.57l-1.26-4.57a.78.78 0 0 0 .48-.93c-.16-.6-.97-.84-1.46-.2m-2.74-3.96c-.34-.25-.7-.04-.73.27H3.2c-.03-.3-.39-.52-.73-.27-.27.35-.02.74.31.74.22 0 .4-.17.42-.39h2.58c.02.22.2.39.42.39.33 0 .58-.4.3-.74m7.33 2.13c-.4-.42-.93-.2-1.04.2l-3.48-.56c.03-.42-.42-.79-.93-.52-.44.41-.2.99.26 1.06.3.05.58-.14.65-.43l3.48.57c-.02.29.19.56.48.6.45.08.87-.39.58-.92"/><path d="M13.1 16.34c-.47.14-.52.63-.25.87l-1.8 2.4c-.31-.19-.77 0-.77.5.14.49.67.53.9.22a.5.5 0 0 0-.06-.66l1.8-2.4c.22.13.5.08.65-.13.24-.3.05-.8-.47-.8M5.84 32.97c-.17.42.15.74.48.68l.72 2.68c-.32.12-.44.55-.08.83.43.19.77-.17.67-.52a.45.45 0 0 0-.5-.33l-.72-2.68a.45.45 0 0 0 .28-.54c-.1-.35-.56-.5-.85-.12m4.64-6.48c.73.22 1.22-.37 1.08-.91L15.95 24c.24.51.98.65 1.4.02.24-.76-.4-1.27-.97-1.07a.76.76 0 0 0-.48.91l-4.4 1.58a.76.76 0 0 0-.94-.4c-.57.2-.75 1.01-.08 1.45m-5.7 13.73c.34-.26.23-.67-.07-.78l.68-2.5c.31.05.62-.24.46-.64-.27-.35-.7-.22-.8.1-.05.22.06.44.26.52l-.68 2.5a.42.42 0 0 0-.48.3c-.09.33.22.67.63.5m2.29-9.63c.6.45 1.23.07 1.28-.48h4.54c.05.55.69.93 1.28.48.47-.62.04-1.3-.54-1.3-.39 0-.7.3-.74.68H8.35a.74.74 0 0 0-.74-.68c-.58 0-1.01.68-.54 1.3"/><path d="M6.59 28.9c-.48.4-.3.99.12 1.14l-.93 3.66c-.45-.07-.89.37-.65.94.4.5 1.04.3 1.16-.17a.62.62 0 0 0-.4-.74l.94-3.66c.3.05.61-.14.7-.46.11-.47-.35-.96-.94-.7"/><path d="M5.98 28.76c.48.33.97.02 1-.4l3.55-.11c.05.43.56.7 1.02.35.35-.5 0-1.02-.46-1-.3 0-.54.24-.56.54l-3.56.1a.58.58 0 0 0-.6-.51c-.45.01-.77.56-.39 1.03"/><path d="M10.92 27.22c.23-.82-.44-1.35-1.04-1.18L8 21.17c.57-.28.71-1.12 0-1.58-.86-.25-1.42.49-1.18 1.12.16.42.61.63 1.03.52l1.86 4.87a.86.86 0 0 0-.42 1.07c.24.63 1.15.81 1.62.05m-4.79.84c.48-.64.08-1.33-.52-1.38v-4.91c.6-.06 1-.74.52-1.39-.66-.5-1.4-.04-1.4.6 0 .41.32.75.73.79v4.9a.8.8 0 0 0-.73.8c0 .64.74 1.1 1.4.6m-3.4 2.91c-.45.61-.06 1.26.5 1.32v4.64c-.56.06-.95.7-.5 1.31.64.49 1.33.05 1.33-.55 0-.4-.3-.72-.69-.76V32.3c.39-.04.7-.36.7-.76 0-.6-.7-1.04-1.33-.56M6.8 33.2c.55-.45.35-1.13-.15-1.31l1.05-4.24c.52.08 1.02-.43.74-1.1-.47-.58-1.2-.33-1.34.22-.09.36.12.72.46.84l-1.05 4.25a.72.72 0 0 0-.8.53c-.13.55.4 1.1 1.09.81"/><path d="M3 29.27c.74.25 1.25-.32 1.13-.89l4.54-1.44c.23.53.98.7 1.44.07.28-.77-.37-1.31-.96-1.13a.78.78 0 0 0-.52.92l-4.55 1.44a.78.78 0 0 0-.95-.44c-.59.19-.8 1-.13 1.47m7.98-5.93c.33.24.67.03.7-.27h2.5c.02.3.37.51.7.27.25-.34.02-.71-.3-.71a.4.4 0 0 0-.4.37h-2.5a.4.4 0 0 0-.4-.37c-.33 0-.56.37-.3.7"/></g></svg>