<svg xmlns="http://www.w3.org/2000/svg" xml:space="preserve" viewBox="0 0 26.033667 128.55272"><g fill="#231f20"><path d="M21.529935.419587c-.18007.67583.37122 1.0984.86735.9527l1.58863 3.96308c-.45934.23696-.56586.92356.0309 1.28785.70394.19705 1.14699-.41564.94125-.92876-.13565-.33862-.50514-.50966-.84792-.40905l-1.58898-3.96274c.31779-.16411.46663-.54296.33098-.88157-.20574-.51347-.94958-.65017-1.32219-.0215m.22239 14.70851c-.45172.60438-.0694 1.24933.48606 1.30276v4.60806c-.55545.0534-.93778.69804-.48606 1.30276.62553.48016 1.31559.0444 1.31559-.55233 0-.39378-.30114-.71366-.6852-.75043v-4.60806c.38406-.0371.6852-.35665.6852-.75043 0-.59674-.69006-1.03249-1.31559-.55233m-10.55252 11.20963c-.49474.6623-.076 1.36902.53255 1.42731v5.04832c-.60853.0586-1.02729.765-.53255 1.4273.68555.52597 1.44153.0486 1.44153-.60505 0-.4316-.32994-.78166-.75078-.82225v-5.04832c.42084-.0402.75078-.39066.75078-.8219 0-.65398-.75598-1.13137-1.44153-.60541"/><path d="M4.874745 32.644037c.52214.6127 1.28368.36706 1.47033-.19811l4.79436 1.08905c-.076.59015.5048 1.14074 1.24031.81358.64739-.53776.35735-1.35862-.26368-1.49982-.40973-.0929-.81357.14502-.94263.53602l-4.79436-1.0887c.0524-.40834-.20921-.79761-.61859-.89059-.62103-.14086-1.23719.47426-.88574 1.23857m15.04504-13.28709c.49126-.0826.60298-.56517.3622-.84377l2.10211-2.20064c.2897.22795.76639.0944.82641-.40036-.0798-.51451-.60784-.62137-.88018-.33654-.17972.18805-.1818.47843-.0149.67099l-2.10246 2.20064c-.20018-.15752-.48988-.14224-.66959.0454-.27235.28518-.14155.80802.37643.86423"/><path d="M7.358485 42.965837c-.40661.0857-.48294.49092-.27269.71505l-1.67538 1.90366c-.24875-.18006-.64114-.0527-.67445.36116.084.4257.52735.49682.74454.25014.14293-.16237.13495-.40418-.0104-.55891l1.67503-1.90366c.17208.12454.41285.10199.55614-.0607.21684-.24667.0902-.67757-.34278-.70672m12.97277-25.69366c-.41008.0517-.51902.44721-.32889.68659l-1.81658 1.74997c-.23176-.1988-.63143-.10477-.69804.30288.0486.42917.48224.53567.71747.30913.15508-.14954.16687-.38997.0354-.55511l1.81658-1.74997c.16028.13739.40071.13462.55579-.0149.23523-.22656.14503-.66405-.28171-.72858"/><path d="M16.826815 29.867827c-.41251-.43888-.97282-.22759-1.09147.20192l-3.62413-.63871c.035-.44409-.4191-.83405-.95686-.56274-.46421.42569-.21753 1.02868.25188 1.11125.30981.0548.60298-.13809.6852-.43506l3.62379.63871c-.0243.30704.18526.58841.49508.64288.46941.0826.90759-.39967.61651-.95825m-2.17427 8.67314c.44825.33481.92633.0513.96588-.36046h3.41632c.0395.41182.51763.69527.96588.36046.35596-.46385.033-.97559-.40939-.97559-.29213 0-.52909.22343-.55649.50827h-3.41632c-.0274-.28484-.26437-.50827-.55614-.50827-.4427 0-.7657.51174-.40974.97559m-2.63952.93571c-.4413.59083-.0677 1.22122.47531 1.27326v4.50467c-.54296.052-.91661.68243-.47531 1.27326.61166.46942 1.28646.0434 1.28646-.53983 0-.3851-.29456-.69735-.67029-.73343v-4.50467c.37573-.0361.67029-.34833.67029-.73343 0-.5832-.6748-1.00924-1.28646-.53983m-3.92978 12.86834c.41702.306.85694.0395.8899-.3414l3.15923-.0284c.0399.38059.48433.63871.89615.32543.32508-.43195.0222-.90239-.38684-.89857-.26992.002-.48745.21094-.51035.47426l-3.15889.0284c-.0278-.26298-.24875-.46767-.51867-.46524-.40939.004-.7036.47947-.37053.90551m1.46027-35.55126c-.20296-.78027-.99607-.89164-1.41101-.46387l-3.84444-3.07493c.32613-.49889.0434-1.24828-.76257-1.27465-.81808.20157-.91488 1.06823-.41702 1.46617.3282.26298.79623.22482 1.08314-.0711l3.84444 3.07493c-.22551.34485-.15994.80975.16862 1.07238.49785.39829 1.32184.11345 1.33884-.72891m9.7667 1.57267c.56273-.36741.44026-1.02382-.008-1.23823l1.41031-3.8545c.48086.1256.99815-.29663.80525-.94055-.37643-.59327-1.08696-.43992-1.2698.0593-.12039.32924.034.68867.34382.83716l-1.41031 3.85416c-.33237-.0867-.68243.0885-.80282.41771-.18249.49925.26124 1.07482.93153.86492m-6.83609 1.03146c.34.22238.67376-.005.68382-.30532l2.47715-.15542c.0475.29663.40696.4805.71677.21718.23696-.35249-.0205-.7088-.34138-.68868-.21164.0132-.37331.18596-.38025.39379l-2.47715.15542c-.033-.20504-.21476-.3563-.42674-.34312-.32057.0202-.53151.40592-.25222.72615m8.28527 20.29493c-.54574-.37851-1.10084-.0218-1.13068.46801l-4.05191.14329c-.0642-.48676-.64322-.80282-1.16051-.38684-.4028.56517.002 1.15844.52665 1.1397.3459-.0122.6179-.28726.63837-.62587l4.05191-.14329c.0444.33653.33514.59153.68104.57939.52492-.0188.88643-.63907.44513-1.17439m-14.85076 3.14119c-.54955.52492-.27755 1.22886.26506 1.37457l-.7702 4.57545c-.56031-.0399-1.04811.53637-.70047 1.2122.54087.58112 1.29894.26403 1.39886-.32855.0656-.391-.18006-.75875-.55511-.85971l.77021-4.5751c.38753.0277.74002-.23939.80594-.63039.0996-.59257-.51278-1.14039-1.21429-.76847m12.67198-15.58347c.27825.33584.69249.20885.79796-.0958l2.58887.62692c-.0458.31919.26437.62172.66543.45033.35492-.28622.204-.73308-.13114-.81427-.22135-.0538-.44201.0722-.51486.28276l-2.58852-.62692c.0316-.22065-.10721-.43368-.32821-.48711-.33514-.0812-.6741.24703-.48953.66405m-7.48175 9.07941c-.42049.0281-.55511.42396-.37609.67896l-1.95361 1.6719c-.22413-.21614-.63629-.14432-.72858.2668.0232.43923.45831.57383.71158.35735.16687-.14294.19289-.38684.0694-.56273l1.95362-1.67225c.15508.14952.40002.16132.56689.0184.25292-.21649.18735-.66717-.2432-.75841m3.79205-7.74821c.25986.40661.73204.32299.88921.003l2.75782 1.03873c-.0933.34451.20643.71886.67029.58495.42812-.26646.323-.77784-.034-.91211-.23557-.0888-.49508.0195-.60367.24112l-2.75783-1.03908c.0645-.238-.059-.49057-.29455-.57939-.35735-.13461-.77367.18041-.62727.663m8.0268 1.84155c-.60159-.3237-1.1279.10477-1.10153.60923l-4.12616.61581c-.12212-.48987-.75043-.74627-1.23163-.2609-.34625.62415.13635 1.18411.67063 1.10431.35249-.0527.59847-.36532.58008-.714l4.12651-.61581c.0843.33895.41077.56585.76326.51347.53429-.0798.83231-.75599.31884-1.25211m-.49265 5.65546c-.36498-.60194-1.05644-.49646-1.29652-.0347l-3.98633-1.60945c.14814-.49925-.27617-1.05539-.95686-.87568-.63386.37366-.49821 1.12269.018 1.3312.3407.13739.72233-.0114.88852-.33098l3.98633 1.6098c-.10234.34522.069.71748.40939.85521.51625.20852 1.13415-.2366.93743-.94541m-18.22543-17.23006c-.48398.15855-.52318.66265-.2373.90759l-1.78813 2.54272c-.32716-.18595-.78825.0211-.77367.53013.15924.50757.70879.53497.94055.20573.15265-.21718.11032-.51069-.0871-.68l1.78778-2.54273c.22655.12872.5166.0694.6696-.14779.2314-.32959.0198-.83752-.51174-.81565"/><path d="M1.546555 41.646437c.24528.47218.77159.42742.97594.0913l2.92435 1.41378c-.13669.36879.15543.80941.67757.70845.49648-.2498.43194-.82156.0531-1.00473-.2498-.12074-.54504-.0277-.68624.20469l-2.92436-1.41378c.0944-.25501-.016-.54435-.2661-.66509-.37851-.18318-.86666.12109-.75425.66544m10.73744-18.92106c-.13253-.70637-.83058-.85382-1.22574-.49925l-3.22792-2.97017c.32092-.42326.11553-1.10673-.59882-1.17994-.73968.12871-.87949.89302-.46143 1.27743.27582.25396.69388.24876.96727.004l3.22758 2.97015c-.2217.29282-.19186.71019.084.9638.41806.38476 1.1678.18214 1.2351-.56551"/><path d="M19.184615 47.741467c.28137-.77055-.31814-1.32219-.91279-1.20422l-1.43946-4.7961c.56135-.22863.75807-1.01931.0992-1.50745-.80109-.30427-1.3836.36463-1.19694.98565.12281.41008.53637.64843.94749.5669l1.43945 4.7961c-.38822.15855-.60194.58528-.47912.99501.1863.62103 1.04082.85903 1.54214.16411m-7.21461-13.69961c-.50341-.204-.88296.18006-.81843.57662l-3.20954.84167c-.13877-.37712-.65745-.52561-.99606-.10061-.22031.52353.2092.9246.62484.81565.27443-.0722.442-.34034.39759-.61443l3.20954-.84168c.0958.26056.37331.41217.64774.34036.41563-.10894.59292-.66925.14432-1.01758m-3.00519-23.15927c-.391.0198-.5218.38615-.35943.62554l-1.84051 1.52619c-.20539-.20401-.58946-.14329-.68139.2373.0153.40904.41806.54054.65641.34278.15716-.13045.18526-.35665.0729-.52215l1.84052-1.52653c.14189.1412.36949.15578.52665.0253.23869-.19775.18388-.61755-.2151-.70844m6.26642 14.60825c-.1641-.36463-.56135-.35319-.72857-.10929l-2.13542-1.18411c.11797-.27096-.0826-.61373-.47877-.55995-.38337.16688-.35874.59847-.0822.75182.18249.1013.408.0438.52388-.1249l2.13541 1.18376c-.0815.18769-.0107.40939.17139.51034.27651.15335.65572-.0545.59431-.46767m-2.83589 4.50258c-.64426-.33028-1.19243.13531-1.15357.66891l-4.35791.7407c-.13981-.51658-.81114-.77471-1.31005-.25048-.35352.66889.16931 1.25176.73378 1.15565.37227-.0631.62623-.39967.59951-.76881l4.35791-.74037c.0964.357.44721.59084.81948.52734.56447-.0958.86561-.81842.31085-1.33294m-8.88165 5.7585c-.4368.28172-.34451.78965.001.95722l-1.105 2.97396c-.37123-.0989-.77298.22586-.62623.72441.28865.4597.83855.34416.98149-.0409.0947-.2543-.0232-.5329-.26228-.64877l1.10535-2.97397c.25673.0684.52804-.0659.62241-.31988.14294-.3851-.19776-.83196-.71678-.67203m19.96499-18.07104c-.54226.0958-.66127.63004-.39204.93604l-2.30264 2.45217c-.3223-.2491-.84827-.0972-.90967.45033.093.56794.67792.68105.97628.36359.19672-.20955.19603-.53047.0101-.74176l2.30264-2.45217c.22273.17209.54295.15265.73967-.0569.29802-.31746.14849-.89442-.42431-.95131m-14.36713 5.07816c-.0319.61825.52319.8833.92598.66612l2.1035 3.14223c-.35423.2897-.32092.90413.26298 1.11021.646.0416.91765-.57037.64531-.97733-.17972-.26853-.53117-.34902-.80976-.1988l-2.10349-3.14223c.24493-.20018.30461-.5558.12489-.82433-.27234-.40696-.94194-.38892-1.14941.22413"/><path d="M15.026545 24.867727c-.0944.57419.39655.87985.79554.71887l1.63755 3.15471c-.36116.23385-.39378.81115.13045 1.06442.59882.10616.91627-.43714.70429-.84585-.13982-.26956-.4597-.38128-.73586-.26991l-1.63756-3.15472c.2498-.16168.34243-.4878.20261-.75703-.21197-.40869-.83924-.46177-1.09702.0895m7.11782-6.01697c-.44582.26922-.3688.78096-.0274.95964l-1.19729 2.9469c-.36914-.11033-.78131.20262-.64947.70671.27547.46976.83023.3702.98531-.0114.102-.25153-.008-.53464-.24355-.6578l1.19729-2.94691c.255.076.53081-.05.63316-.30184.15508-.38163-.17312-.83959-.69804-.69526m-3.5773 12.93426c-.28553-.71504-1.05018-.72546-1.39227-.27061l-4.00923-2.45287c.2491-.51139-.10825-1.18757-.87464-1.11645-.75077.289-.73898 1.12131-.21996 1.4391.34278.20956.78131.11762 1.01793-.19706l4.00923 2.45287c-.17243.35388-.0548.78617.28796.99572.51902.31779 1.26564-.0506 1.18098-.8507m-7.51679 1.62992c-.0201.44547.38059.63352.66959.47531l1.52931 2.25164c-.25361.21059-.22655.65259.19464.79796.46524.0271.65779-.41494.45969-.70671-.13045-.19221-.38406-.24841-.5839-.13913l-1.52896-2.25163c.1752-.14538.21649-.40176.0857-.59397-.19775-.29178-.67965-.27546-.82606.16653m7.49528 12.69141c-.43089-.0718-.66092.29628-.54087.59604l-2.3696 1.22296c-.17486-.27131-.60819-.29698-.79901.0958-.0808.44928.32648.68832.63352.53012.20226-.10443.28657-.34452.20365-.55163l2.3696-1.22332c.12073.1877.36533.25813.56794.15335.30669-.1582.34763-.629-.0652-.82328m-4.73677-1.49081c.33688.25188.69596.0386.7258-.27096h2.5677c.0298.30948.38926.52284.72614.27096.26749-.34867.0247-.73308-.30808-.73308-.21927 0-.39759.16792-.41806.38198h-2.5677c-.0205-.21406-.1988-.38198-.41806-.38198-.33272 0-.57523.38441-.30774.73308m-1.21325-6.22171c.0659-.44478-.31676-.67481-.62311-.54574l-1.30241-2.41678c.27651-.18492.29455-.63144-.1131-.82086-.46386-.0749-.70256.34867-.53394.66161.11136.20643.35977.289.57141.19984l1.30241 2.41678c-.19116.12802-.25882.38094-.14745.58737.16861.31294.65364.34659.84619-.0822m-6.17068-18.82704c.323-.44027.0423-.90447-.35977-.93951l-.0281-3.33409c.40141-.042.67411-.5107.34347-.94542-.45553-.34347-.952-.0239-.94853.40766.002.28484.22239.51452.50063.5388l.0281 3.33374c-.27755.0291-.49369.26229-.49127.54712.004.4316.50584.7428.95547.3917m7.22225 32.67479c.13357-.37782-.16202-.64427-.45172-.58391l-.72649-2.33559c.27304-.11449.36533-.50167.0409-.7369-.39273-.14467-.67375.18491-.57973.48745.0621.19949.26506.31398.46559.27235l.72649 2.3356c-.18873.0791-.29108.28865-.22933.48849.0944.30253.51278.41424.75425.0725"/><path d="M7.092725 44.362627c.59431.44373 1.22782.068 1.28021-.47774h4.52791c.0524.54574.6859.92147 1.27986.47774.47184-.61513.0437-1.29305-.54261-1.29305-.38684 0-.70116.29594-.73725.67341h-4.52791c-.0364-.37747-.35041-.67341-.73725-.67341-.58632 0-1.01445.67792-.54296 1.29305m7.98864-17.06528c-.1929.4826.17659.84342.5558.77993l.82155 3.06591c-.35978.1346-.49925.63176-.0909.95338.50167.20817.8833-.20504.77679-.60194-.0701-.26194-.32751-.42084-.58979-.37712l-.8219-3.06591c.2491-.0929.39273-.35943.32231-.62137-.10652-.39724-.64323-.56378-.97386-.13288m1.26632-3.54087c.4035.28624.81982.025.84584-.33965l3.01907-.0743c.0441.36325.47254.60333.86145.29767.30462-.41771.008-.86284-.38302-.85313-.25812.006-.46247.20886-.48051.46109l-3.01941.0743c-.0302-.25119-.2446-.44339-.50237-.43715-.391.01-.66543.46872-.34105.87116m4.57822-6.28134c-.22932-.38961-.6741-.32751-.83196-.0333l-2.5455-1.06753c.0992-.31919-.16826-.67966-.60679-.57038-.41009.23454-.3296.71644.00026.85487.21718.0913.46386-.00099.57314-.2047l2.54515 1.06753c-.0687.22066.0382.46109.2557.55233.32959.13843.73031-.1419.60992-.59882m3.02332-6.62516c-.41148.10894-.46837.52805-.24182.74627l-1.61536 2.03688c-.26436-.17104-.65953-.0202-.67167.40558.10825.43124.56621.48086.77541.21684.13808-.17383.11692-.42085-.0399-.57176l1.61535-2.03689c.18284.11831.42813.0826.56621-.0916.2092-.26367.0569-.69838-.38823-.70532m-16.53236 23.32998c-.35631.29004-.22621.72752.0937.84132l-.68382 2.72071c-.33584-.051-.65745.27269-.48051.69665.29802.37643.7702.22169.85902-.13079.0583-.23245-.0722-.46594-.29351-.5447l.68417-2.72035c.2321.0354.45761-.10895.5159-.3414.0885-.35214-.25431-.71192-.69492-.52144"/><path d="M11.295905 32.010187c.11275-.6134-.40696-.95097-.83786-.78686l-1.6896-3.41285c.39204-.24286.43888-.86076-.11761-1.14282-.63941-.12629-.99086.44963-.77194.89163.14433.29143.48502.41772.7827.30427l1.68959 3.41284c-.27096.16827-.37678.51556-.23245.80698.21892.44201.88956.51174 1.17717-.0732m5.71236-8.82025c-.22378.54469.19047.95754.62033.88955l.8958 3.48119c-.40904.14849-.57245.70984-.1138 1.07864.56586.24112 1.00266-.22205.88678-.67307-.0767-.29732-.36672-.48051-.6637-.43367l-.89614-3.48085c.2831-.10269.44859-.4028.37192-.70012-.11588-.45102-.72198-.646-1.10119-.16167m-2.58054-6.15853c.14572.61443.76501.71469 1.09737.38684l2.9594 2.47263c-.26367.38545-.0548.97699.57557 1.01133.64427-.14398.73482-.8212.35145-1.14143-.25257-.21129-.61998-.18942-.84965.0375l-2.9594-2.47264c.18249-.26645.13878-.63177-.11414-.84307-.38302-.32022-1.03319-.11067-1.0606.54887m-5.11979 15.76147c-.33722-.64323-1.05573-.57939-1.33294-.11935l-3.99952-1.91545c.18457-.5041-.21614-1.10397-.92876-.96345-.67653.34381-.58528 1.12374-.0673 1.37179.34174.16376.74454.035.93605-.2831l3.99952 1.91546c-.12733.34867.0246.74314.36637.9069.51798.24806 1.18306-.17 1.02659-.9128m4.61083 4.9144c.64288-.45484.4708-1.21846-.0635-1.45021l1.48351-4.57544c.56864.12594 1.15601-.39101.90239-1.13692-.46698-.67792-1.29235-.46767-1.48455.12489-.12664.391.0697.8056.43923.96554l-1.48387 4.57545c-.39308-.087-.79518.13357-.92216.52457-.19186.59257.35283 1.24724 1.12894.97212m-11.15724 12.2501c.26992.5211.85105.47184 1.07656.1013l3.22515 1.56227c-.15092.40661.17069.89303.74696.782.54817-.27512.47739-.90621.0597-1.10846-.27547-.13323-.6016-.0309-.75772.2255l-3.22515-1.56227c.10443-.28137-.0174-.60055-.29282-.73412-.41771-.20226-.95651.13288-.83265.73378m22.59584-38.29039c-.80699-.0174-1.13068.71609-.83197 1.23268l-4.01131 2.86329c-.3917-.45032-1.1907-.38233-1.43599.3865-.0291.84272.77888 1.173 1.29825.80212.34278-.24459.43402-.70568.22725-1.06302l4.01131-2.86329c.27097.31155.73656.37504 1.07899.13044.51971-.37088.4701-1.24204-.33653-1.48872"/><path d="M18.827965 35.582967c-.73482-.35111-1.3371.18909-1.27674.7879l-4.87693.96726c-.17312-.57626-.9357-.84583-1.48074-.24077-.37677.76292.22933 1.40198.86076 1.27674.41667-.0829.6918-.46907.65016-.88296l4.87694-.96762c.11969.39899.52145.65051.93812.56794.63143-.12524.94784-.94714.30843-1.50849m-8.66413-14.58951c.11172.46559.58182.54053.83301.29142l2.24851 1.86932c-.19914.29247-.0396.74106.43853.76569.48815-.11066.55546-.62414.26437-.8663-.1922-.15959-.47045-.14225-.64426.0302l-2.24852-1.86931c.13773-.20261.10374-.47913-.0881-.63907-.29143-.24215-.78373-.0818-.80351.41807m8.75503 18.9436c-.60264-.45032-1.24586-.069-1.29895.48467h-4.59417c-.0531-.55371-.69631-.93499-1.29894-.48467-.47844.6238-.0444 1.31213.55093 1.31213.39239 0 .71123-.3008.74801-.68347h4.59417c.0368.38267.35561.68347.748.68347.59501 0 1.02937-.68833.55095-1.31213m-12.09467 14.1201c-.42778-.14641-.72545.19013-.65363.51694l-2.62773.84723c-.13253-.30704-.57071-.40661-.83231-.0379-.15889.44513.21649.75842.55684.64878.22447-.0725.35145-.30322.30184-.52873l2.62807-.84723c.0916.21198.32925.32508.55371.25292.34035-.10998.46178-.58356.0732-.85209m2.69468-40.32723c-.14467.48884.24876.80767.6127.71157l1.07898 2.91846c-.33931.16375-.43055.66196-.003.93882.50862.15786.84376-.27963.70429-.6578-.0923-.24945-.35804-.38128-.60992-.31467l-1.07861-2.91878c.23453-.1131.35076-.38614.25847-.63559-.13982-.37782-.67896-.49231-.96276-.042m-3.21092 1.67121c-.32509.4354-.0496.89961.35006.93812v3.31813c-.39968.0382-.67515.50272-.35006.93778.45067.3459.94749.032.94749-.39759 0-.28345-.21684-.51381-.49335-.54019v-3.31813c.27651-.0267.49335-.25708.49335-.54053 0-.42951-.49682-.74314-.94749-.39759m-.65086 6.11203c-.52839.6075-.17243 1.32358.41424 1.42384l-.36359 4.90192c-.595.0128-1.05261.6689-.61998 1.34751.62796.55996 1.39643.15092 1.44361-.48398.0309-.41876-.26436-.78269-.66993-.85209l.36324-4.90191c.41147-.009.75737-.32508.78859-.74383.0468-.6349-.65294-1.15288-1.35618-.69146m-3.0784-9.44334c-.24771.47946.0975.88989.49578.86214l.53984 3.25221c-.38546.1027-.58009.60263-.19047.97629.49786.26541.93396-.12282.86422-.544-.0461-.2779-.29628-.46802-.57175-.44929l-.53984-3.25185c.26645-.0711.44165-.33201.39586-.60992-.0701-.42118-.60819-.64773-.99364-.23556m10.02101 36.38218c.0763-.38962-.25223-.60784-.52735-.5062l-1.05123-2.18329c.25084-.15195.28519-.54503-.067-.72822-.40592-.0847-.63351.27894-.49717.5617.0895.18665.30531.26957.49578.19914l1.05123 2.1833c-.17347.10512-.24355.32542-.15369.51208.13599.28275.56238.33167.74938-.0386m-7.64377 3.55717c.58632-.60957.25049-1.37978-.35943-1.51647l.6408-5.12396c.62483.0177 1.13969-.646.72163-1.38117-.629-.62067-1.45715-.23245-1.54006.43125-.0548.43784.23591.83543.65779.9298l-.6408 5.1243c-.43228-.0125-.81183.30114-.86665.73898-.0829.6637.62414 1.24378 1.38672.79727m16.67219-24.4079c-.43368-.0545-.64913.32265-.51694.61755l-2.32069 1.31871c-.18561-.26437-.61998-.27234-.79483.12802-.0628.45242.35388.67549.65467.50481.1981-.11277.27304-.35596.18145-.55997l2.32068-1.31872c.12837.18284.37574.24321.57419.13045.30045-.17069.3223-.64288-.0985-.82085"/><path d="M13.251255 41.329327c.425-.29802.31363-.80178-.0382-.95617l.99017-3.01282c.37435.0847.76292-.25466.59743-.74696-.306-.44859-.8507-.3119-.97872.0784-.0847.25743.0437.53116.28692.63767l-.99016 3.01283c-.25882-.0583-.52458.0861-.60923.34312-.12837.39031.22933.82329.74176.64392m9.95404-27.77461c-.24459-.49195-.78928-.45484-1.00612-.11137l-2.99409-1.51231c.14745-.37815-.14606-.8382-.68729-.74314-.51694.24911-.46039.84029-.0728 1.03631.25604.12906.56273.0382.71261-.19914l2.99444 1.51196c-.102.2616.007.56239.26263.69145.38788.19602.89719-.10963.79068-.67376m-12.89506 23.82367c-.34763.28136-.22204.7074.0888.81911l-.67272 2.64646c-.32647-.0506-.64045.26367-.46941.67688.28935.36706.74939.21788.83648-.1249.0572-.2262-.069-.45379-.28415-.53116l.67272-2.64611c.2262.0347.44581-.10477.50341-.33098.0871-.34278-.24564-.69353-.67515-.5093m8.60619-16.38213c.0371.63212.63108.8389 1.01619.57315l2.49033 2.95661c-.32751.33446-.22412.95479.39239 1.09842.66092-.0302.86839-.68243.54574-1.06545-.21303-.25257-.57905-.2949-.8455-.11102l-2.49033-2.95662c.2262-.23106.24702-.59917.034-.85174-.32231-.38302-1.00058-.28935-1.14282.35665m-4.38046 10.55044c.50688.37886 1.04776.0583 1.09216-.40731h3.86352c.0448.4656.58529.78617 1.09217.40731.40245-.52458.0371-1.10291-.46316-1.10291-.32994 0-.59813.25257-.62901.57453h-3.86352c-.0309-.32196-.29871-.57453-.629-.57453-.50029 0-.86561.57833-.46316 1.10291m-4.88838-1.47796c-.16133.66647.38857 1.06823.87151.91453l1.64588 3.84825c-.44477.24287-.53394.918.0593 1.26148.69423.17764 1.11472-.43264.9017-.93119-.14051-.32889-.50653-.48814-.84029-.38198l-1.64623-3.84825c.30774-.16792.44513-.54261.30462-.87152-.21337-.4982-.94541-.61582-1.29652.009m4.19381-12.52416c-.49543.56482-.16618 1.23441.38094 1.33086l-.35978 4.57301c-.5551.01-.98496.61964-.5839 1.25488.58356.52527 1.30241.14676 1.34891-.44547.0309-.39065-.24356-.73169-.62172-.7983l.35978-4.57302c.38371-.007.70775-.30045.73863-.6911.0465-.59223-.60437-1.07829-1.26286-.65086"/><path d="M11.148455 49.271477c.75078-.16514.88539-.91696.493-1.32774l3.06938-3.55197c.46351.3289 1.18792.0867 1.24239-.68035-.16237-.78652-.98462-.91072-1.38221-.45068-.26229.30357-.24286.75078.0288 1.03493l-3.06973 3.55197c-.32057-.22759-.76569-.1818-1.02798.12177-.39759.45969-.15577 1.25523.64635 1.30207m.16029-7.10567c.44755-.30566.33792-.83301-.0271-.9985l1.07413-3.13148c.38996.0933.80004-.2557.63421-.77194-.31364-.47218-.88401-.33688-1.02313.0686-.0916.26749.0385.5551.29108.66959l-1.07413 3.13148c-.26957-.0645-.54885.0826-.64079.35006-.13913.40557.22828.86249.76569.68209m3.60748-7.51749c.27339-.65433-.22273-1.15463-.74106-1.07622l-1.05366-4.20005c.49405-.17555.69492-.8507.14502-1.29859-.68-.29455-1.20943.26055-1.07308.80455.0902.35874.43784.58112.79658.52701l1.05365 4.20005c-.34174.12143-.54331.48189-.4531.84063.13634.544.86492.78339 1.32565.20262m-12.11235-10.30545c.7303.16757 1.16189-.43853.98739-.96415l4.18339-1.84919c.27131.4826 1.01029.57107 1.3777-.0815.18457-.76084-.4878-1.21221-1.02937-.97282-.35769.15786-.527.55996-.40626.9232l-4.18306 1.84954c-.18769-.33375-.59881-.47912-.95651-.32126-.54157.23973-.66023 1.04081.0267 1.41621m6.43643 7.65036c-.84619-.0951-1.25627.64496-.99156 1.21603l-4.48766 2.62703c-.36845-.51036-1.21464-.51522-1.54597.26921-.11067.88297.70707 1.30693 1.28819.96658.38337-.22446.52284-.70012.34-1.09529l4.48767-2.62702c.255.35318.73829.46455 1.12165.24008.58113-.34035.61201-1.26078-.21232-1.59662m15.06724-13.61218c.0618-.48537-.35978-.72683-.69006-.57974l-1.47068-2.59961c.29629-.20747.30635-.69319-.14155-.89025-.50619-.0711-.75633.39481-.56586.73169.12559.22205.39759.30635.62623.20436l1.47033 2.59996c-.2047.14329-.2727.41979-.14711.64184.19047.33688.71886.3622.9187-.10825m-21.23306 10.77838c.58286-.12524.69007-.70775.38719-1.02798l2.39354-2.74361c.35838.25674.92112.0715.96622-.52283-.12351-.61096-.76049-.71019-1.07065-.35457-.20435.23418-.19117.58112.0184.80246l-2.39354 2.74361c-.24772-.17763-.59327-.14364-.79762.0909-.31016.35526-.12559.97316.49647 1.01202m.58598 16.4734c-.46525.62309-.0711 1.28748.50098 1.3423v4.74822c-.5721.0548-.96623.71955-.50098 1.34231.64461.49474 1.35584.0458 1.35584-.56898 0-.40592-.31051-.73517-.70637-.77333v-4.74822c.39586-.0379.70637-.36741.70637-.77298 0-.61512-.71123-1.06407-1.35584-.56932m9.6359-21.45372c.30913.57211.95201.50688 1.19486.092l3.60297 1.66947c-.15959.4538.20608.98636.84237.85208.60194-.31501.51139-1.01271.0448-1.22886-.30774-.14259-.66682-.0229-.83474.26403l-3.60331-1.66948c.11032-.31397-.0305-.66543-.33827-.80802-.46663-.21614-1.05713.16549-.90864.82884m-3.48813 84.56374c-.41667.14295-.44443.57974-.19429.78826l-1.51647 2.2211c-.28518-.15682-.68208.0281-.663.46802.14363.4375.61963.45449.816.16688.12941-.18978.0895-.44304-.0836-.58737l1.51682-2.22111c.19706.1086.44755.0534.57731-.13635.19636-.28761.007-.72475-.45276-.69943m-1.68543 12.38161c-.43368.62143-.0288 1.25618.53047 1.29172l.15022 4.62498c-.55545.0714-.91835.73131-.44512 1.32325.64357.46134 1.32219.003 1.30241-.59754-.0128-.39473-.32578-.70591-.71227-.73057l-.15057-4.62502c.38441-.0494.67653-.38029.66335-.77546-.0194-.59872-.72614-1.0137-1.33849-.51136"/><path d="M4.979865 121.249977c.0392.71855.71366.95625 1.15219.65537l2.81888 3.3702c-.37365.37852-.25916 1.0842.44096 1.25008.75148-.032.98982-.7726.6245-1.20912-.24078-.28799-.65676-.33719-.95999-.12945l-2.81888-3.3702c.25847-.26156.28345-.67992.0423-.96791-.36499-.4365-1.13623-.3327-1.29999.40103m1.59905-14.46943c.0954.58321.66716.71817.99918.43368l2.59893 2.50456c-.27166.34208-.11588.90829.47079.98218.61062-.0922.74003-.71816.4035-1.04255-.22204-.21406-.56621-.21788-.79588-.0211l-2.59893-2.50455c.1877-.23661.17104-.58008-.051-.79415-.33653-.32438-.95721-.17173-1.0266.442"/><path d="M4.757825 124.036337c.33549-.21236.26853-.6009.006-.73142l.86492-2.26445c.28276.0781.59188-.16685.48329-.54889-.21719-.35315-.63803-.26888-.75009.0247-.0739.19324.0139.40699.19568.4971l-.86492 2.26462c-.19568-.0542-.40384.0465-.47774.24001-.11172.29312.14537.63667.54296.51836m-4.35202-10.60911c.44894-.0187.60298-.43785.41911-.71435l2.12847-1.73157c.23314.23626.6748.17068.78443-.26507-.0135-.46942-.47426-.6245-.74974-.40037-.18179.14814-.21649.40731-.0892.59882l-2.12847 1.73158c-.16133-.16341-.42222-.1825-.60402-.0347-.27582.22448-.21753.70706.23939.81566m8.03235-5.19993c-.43368.0552-.54852.47426-.34694.72718l-1.92066 1.85543c-.24564-.2099-.66856-.10963-.73864.32196.052.45415.51139.56656.76015.32612.1641-.15855.1759-.41285.0368-.58771l1.92031-1.85543c.17.14502.42465.1419.58875-.0166.24876-.24044.15231-.70325-.29975-.7709m.27859 12.42842c.56135-.25914.53741-.87253.15855-1.12755l1.79854-3.31745c.42049.17868.94749-.13635.85833-.74799-.26298-.58981-.9298-.5454-1.1626-.11588-.15369.28345-.0617.63142.20053.80766l-1.79853 3.31714c-.29109-.1232-.63282-.0108-.78651.27266-.2328.42947.094 1.01279.73169.91141"/><path d="M9.276025 108.481947c-.0656-.3917-.44998-.48086-.67237-.289l-1.75274-1.67537c.18145-.23072.0753-.61062-.31884-.65849-.41008.0634-.49543.48432-.26853.70116.14988.14329.38094.14502.53463.0121l1.75309 1.67572c-.12559.15925-.11345.39031.0361.53359.22725.21684.64392.11276.68868-.29976m-3.63628 12.76152c-.21649-.37823-.646-.32377-.80178-.0416l-2.44107-1.05858c.0992-.30642-.15438-.65714-.57869-.55687-.39794.22131-.32578.68697-.009.82398.20851.0906.4472.004.55475-.19082l2.44107 1.05858c-.0687.21194.0316.44506.24008.53532.31641.13703.70568-.12833.59501-.57001"/><path d="M8.096775 108.121817c.20296.3917.6401.35458.80975.076l2.4265 1.17439c-.11345.306.12837.67168.56204.58772.41217-.20712.35874-.68139.0444-.83335-.20713-.10061-.45241-.0232-.56968.16965l-2.42649-1.17439c.0784-.21163-.0132-.45206-.22031-.55232-.31433-.15197-.71955.10026-.62623.55232m-.70255 8.08717c.13878-.38926-.16514-.66508-.46421-.60333l-.74279-2.41088c.28206-.11761.37816-.5166.0444-.76015-.40488-.15022-.69561.18909-.59951.50133.0635.20573.27269.32474.47947.28206l.7428 2.41089c-.19498.0811-.30115.29698-.23766.50306.0961.31225.52735.42882.7775.077"/><path d="M9.224325 116.394947c.57939-.42639.40904-1.12061-.0826-1.32288l1.2764-4.20387c.52145.10512 1.04914-.37713.8042-1.05366-.43784-.6113-1.18792-.40522-1.35341.13947-.10894.35909.0774.73413.41771.87429l-1.27673 4.20387c-.36048-.0729-.72407.1353-.83301.49439-.16549.54435.34347 1.1331 1.04742.86839m1.23441 3.61689c-.45519-.56556-1.14733-.36336-1.32982.14119l-4.29304-1.1026c.0833-.53016-.42604-1.04082-1.09737-.76463-.59708.46796-.3563 1.21523.19984 1.35782.36672.0944.73655-.10991.86284-.45889l4.29303 1.10289c-.0576.36633.16827.7237.53498.818.55615.14259 1.12721-.39613.82954-1.09378"/><path d="M8.057225 116.028577c-.53845-.0797-.81705.38337-.66092.75425l-2.9254 1.57643c-.22377-.33432-.76396-.35655-.99329.13714-.0909.56135.42188.85069.80074.64631.25014-.13457.35006-.43541.24182-.69183l2.92574-1.57646c.15473.23141.46074.31329.71088.17867.37886-.20435.4191-.79137-.0996-1.02451m-.76327 8.56664c-.42778-.31952-.88366-.0489-.92147.34384h-3.2595c-.0378-.39276-.4937-.66336-.92147-.34384-.33931.44261-.0312.93081.39065.93081.27859 0 .5048-.21334.53082-.48507h3.2595c.026.27173.25222.48507.53082.48507.42187 0 .7303-.4882.39065-.93081m1.30172-10.90536c-.5499-.63143-1.3385-.36741-1.52619.22204l-4.99559-1.07864c.0722-.61443-.53741-1.17993-1.29859-.83196-.66682.56621-.35596 1.41621.29108 1.55603.42674.0919.84376-.15994.97386-.56759l4.99559 1.07863c-.05.425.2262.82641.65294.9187.64704.13947 1.2809-.50654.9069-1.29721m-2.51566 6.213c.18943.54983.76604.5856 1.04047.25465l2.9365 1.99668c-.20678.37701.0385.90026.61963.87424.57696-.19081.59847-.81907.21788-1.07793-.25084-.17035-.58494-.11696-.77506.11169l-2.93615-1.99669c.14259-.26048.0697-.59115-.18145-.76178-.38025-.25843-.95686-.007-.92182.59914m10.65663-94.01963c-.76535-.23904-1.27639.37226-1.13345.94749l-4.61742 1.62888c-.2498-.53776-1.03111-.69284-1.47727-.0267-.25986.79692.42049 1.33433 1.01861 1.12339.39447-.13912.60853-.55407.50966-.952l4.61742-1.62888c.17277.37191.59986.56064.99432.42153.59778-.21094.79033-1.05644.0881-1.5137m3.77332-4.81934c-.44582.66231-.008 1.32392.58112 1.35168l.2387 4.86965c-.58425.085-.95513.7865-.44652 1.40197.68625.47496 1.39297-.0211 1.36209-.6519-.0205-.41598-.35527-.73828-.76327-.75736l-.23835-4.86999c.40384-.0586.70603-.41217.68556-.8285-.0309-.63039-.7827-1.05504-1.41933-.51555m-3.75216 25.33666c-.18457-.35526-.58077-.32127-.73412-.0687l-2.20029-1.06336c.10269-.27755-.11692-.60889-.51-.5329-.37366.18804-.32474.6179-.0399.75563.18804.0909.41043.0208.51659-.15404l2.20029 1.06372c-.0711.19185.0118.40938.19984.50028.28518.13774.65225-.0913.56759-.50063"/><path d="M11.011065 26.527487c.55962.54227 1.27049.23523 1.39817-.32646l4.71942.6061c-.0184.57557.59188 1.05226 1.27049.66889.57384-.57765.21823-1.34161-.39273-1.42002-.4035-.052-.77056.21476-.85868.60334l-4.71977-.60611c.0128-.39829-.27512-.7487-.67826-.80074-.61131-.0784-1.14803.57106-.73864 1.275m.48468 10.0904c.53185.25535.969-.13566.92598-.56967l3.53497-.69597c.12455.41806.67722.61409 1.07273.17625.27374-.55233-.16479-1.01619-.62241-.92598-.30218.0593-.50202.33896-.47218.63906l-3.53497.69596c-.0864-.289-.37712-.47184-.67931-.41251-.45761.0902-.68763.6852-.22481 1.09286m2.25059 4.1383c.0205.61131.58911.82571.96762.578l2.3349 2.91638c-.32439.31501-.23973.91696.35249 1.07065.63907-.0132.85521-.63871.55268-1.01619-.19949-.24944-.55198-.29906-.81392-.12767l-2.3349-2.91638c.22446-.21787.25326-.57279.0538-.8219-.30253-.37781-.95998-.30391-1.11264.31711"/><path d="M14.421485 36.275457c.29525.40071.77576.28276.91557-.0579l2.91048.88192c-.0725.36116.26159.72615.72961.55649.42292-.30322.27999-.82259-.0968-.93673-.24875-.0752-.50826.0538-.60506.28935l-2.91048-.88193c.0503-.2498-.094-.50133-.34277-.57661-.37678-.11415-.78409.23835-.60056.72545"/><path d="M3.157045 42.656367c.35769.42327.88227.2564 1.01237-.13217l3.29662.76326c-.0538.40627.34417.78651.85139.56343.44686-.3681.24945-.93362-.17729-1.03249-.28171-.0652-.5603.0972-.65016.36602l-3.29662-.76327c.0375-.28102-.14155-.54955-.42292-.61478-.42708-.0989-.85313.32266-.61339.85m12.08877-5.79978c.4538-.0247.60402-.45068.4139-.72823l2.12986-1.78084c.23939.23592.6852.16341.79033-.27894-.0201-.47461-.48815-.62519-.76396-.39447-.18215.15195-.21337.41494-.0819.6068l-2.12986 1.78083c-.16549-.16306-.42986-.17902-.61165-.0268-.27617.23072-.2106.71782.25326.82156"/><path d="M20.821485 30.313297c.0933-.61825-.43819-.93951-.86458-.76118l-1.80304-3.36532c.38475-.25639.41181-.87706-.15474-1.14178-.64461-.10582-.97837.48225-.74488.91835.15404.28762.49925.40314.79415.27963l1.80304 3.36567c-.2661.17694-.36116.52839-.20712.816.23349.43575.90794.48398 1.17717-.11137m-6.48361 17.67484c-.002.64809.59222.89684 1.00231.64913l2.35918 3.17693c-.35561.32092-.28934.96136.33168 1.14698.67722.0104.9298-.64323.62449-1.05469-.20157-.27132-.57314-.33758-.85694-.1662l-2.35919-3.17692c.24598-.22204.29004-.59674.0885-.86804-.3053-.41148-1.00439-.35839-1.19.29281m-4.92308-15.61888c.40627.67237 1.17821.55546 1.44674.0406l4.44569 1.80304c-.16584.5565.30669 1.17786 1.06649.97872.70811-.41563.55788-1.25211-.018-1.4856-.37955-.15404-.80594.0118-.9919.36776l-4.44568-1.80305c.11483-.38475-.076-.80073-.45554-.95477-.57592-.23349-1.26632.26193-1.04775 1.0533m7.79156-8.25126c.19463.58632.80698.63142 1.10292.2831l3.09609 2.15727c-.22412.39794.0302.95686.64774.93639.61582-.19567.646-.86319.24494-1.14282-.26437-.18422-.62033-.13149-.82502.10929l-3.09644-2.15727c.15508-.27513.0815-.62727-.18319-.81149-.40106-.27964-1.01688-.0198-.98704.62553"/><path d="M20.433255 32.380017c-.67931-.50792-1.40406-.0781-1.46374.54608h-5.17911c-.06-.62414-.78478-1.054-1.46409-.54608-.53949.7029-.05 1.47866.62102 1.47866.44235 0 .80178-.33862.84307-.77021h5.17911c.0413.43159.40072.77021.84306.77021.67064 0 1.16052-.77576.62068-1.47866m-10.79503 22.85535c.15335.36394.54574.36221.71712.12594l2.07991 1.22158c-.12317.26471.0666.60818.45935.56481.38232-.15543.36879-.5825.0992-.74037-.17763-.10442-.40175-.0534-.52041.11033l-2.0799-1.22158c.085-.18318.0208-.40383-.15716-.50827-.26923-.15819-.64878.0379-.59813.44756m-1.83462 44.82461c.51035.45623 1.12339.16202 1.21603-.33548l4.16397.36706c.004.50618.55614.90343 1.13866.54331.48363-.52735.14467-1.18549-.39448-1.23302-.35561-.0316-.66855.21544-.73273.55961l-4.16397-.36741c-.003-.35007-.26784-.64774-.62345-.67931-.5395-.0475-.98809.54157-.60403 1.14524m6.72161-8.61034c.0802-.43021-.28379-.66786-.58632-.55337l-1.17994-2.3977c.27546-.17.30946-.60333-.0805-.80248-.44824-.0895-.69596.31399-.54331.62449.10096.2047.33966.29387.54886.21476l1.1796 2.39805c-.19047.11726-.26541.36081-.16445.56585.15265.31052.62345.36048.82606-.0496m-11.07119.0965c.40453.0177.57488-.34659.4309-.60888l2.04417-1.39088c.19116.23002.59257.20504.72441-.17764.0239-.42257-.37748-.59707-.64219-.41701-.17451.119-.22551.34902-.12594.53046l-2.04382 1.39123c-.13218-.15924-.36498-.19671-.53984-.0777-.26471.18006-.24945.6179.15231.75043m8.4622.35631c-.24043.32543-.0329.66994.26507.69666l.0156 2.47055c-.29732.0305-.50028.37747-.25604.70012.33723.25501.70568.0191.7036-.30079-.001-.21094-.16411-.38163-.37019-.40003l-.0156-2.47055c.20574-.0208.36603-.19324.36464-.40453-.002-.31988-.37331-.55094-.70707-.29143m1.80478-29.59119c.38164-.0877.44686-.47148.24494-.67896l1.54805-1.82386c.23765.16514.60576.0386.63004-.35249-.0864-.40002-.50584-.45969-.70637-.22343-.13218.15578-.12038.38371.0191.52735l-1.5477 1.82387c-.16445-.1145-.39135-.0892-.52353.067-.20053.23592-.0735.64045.33549.66057m-1.65073 27.58414c-.24667-.35387-.66508-.26229-.7938.0295l-2.49901-.82826c.0708-.31051-.21024-.63386-.61928-.49752-.37262.25293-.26056.70568.0631.81289.21337.0708.44096-.0354.53013-.23697l2.499.82816c-.0489.21474.0704.43575.2838.50652.3237.10721.68416-.18907.53602-.61443m-8.6551-26.29837c-.36394.4871-.0559 1.00646.39134 1.04949v3.71156c-.4472.043-.75528.56239-.39134 1.04914.50375.38684 1.0599.0361 1.0599-.44477 0-.31711-.24286-.57454-.55233-.60437v-3.71156c.30947-.0298.55233-.28727.55233-.60437 0-.48086-.55615-.83162-1.0599-.44512m12.55471-1.56644c-.47705.65433-.0583 1.34127.5381 1.39123l.0593 4.9432c-.595.0645-.9971.76118-.5048 1.40372.67758.50688 1.41239.0309 1.40442-.60957-.005-.42223-.33237-.7612-.74489-.79588l-.0593-4.9432c.41147-.0447.73066-.39135.7258-.81393-.008-.6401-.7539-1.0984-1.41863-.57557"/><path d="M10.173205 64.315137c.81913-.10166 1.03805-.89199.65953-1.37042l3.63559-3.49126c.46281.39795 1.26147.21094 1.39608-.60332-.0954-.85729-.96172-1.0717-1.43251-.61964-.31086.29837-.3348.77819-.0729 1.10917l-3.63558 3.49125c-.32022-.27512-.80074-.27061-1.11125.0274-.47079.45206-.29177 1.32669.561 1.45681"/><path d="M13.807405 63.262157c-.41356-.1353-.69527.19256-.62207.50584l-2.51774.85001c-.13149-.29351-.55441-.38371-.80143-.0253-.14676.43056.21857.72719.5447.61721.2151-.0725.3341-.29629.28345-.51313l2.51774-.84999c.0909.2033.32126.30877.53637.23626.32612-.10998.43679-.5676.059-.82086"/><path d="M16.671735 65.024967c-.11484-.38094-.50827-.42084-.70498-.20192l-1.95501-1.44292c.15127-.25223-.002-.61652-.40071-.61409-.39933.11518-.4309.54435-.17763.73136.16722.12315.39724.0954.53324-.0559l1.95501 1.44292c-.10443.17451-.0631.40245.10373.52561.25327.187.65433.0305.64635-.3851m-4.55185 39.85713c-.2661-.36394-.70151-.25847-.82919.0493l-2.63188-.80734c.067-.32646-.23419-.65814-.65884-.50618-.38371.27339-.25604.74384.085.84862.22482.0687.46039-.0472.54851-.26021l2.63189.80768c-.0465.22586.0836.45379.30843.52283.34069.10443.71053-.21336.54608-.65467m.58459-36.07688c.37782-.43436.12317-.94644-.29628-1.01827l.25985-3.50582c.4257-.009.75286-.47808.44339-.96345-.44894-.40072-.99849-.10825-1.03214.3459-.0222.29941.18908.55961.47912.60957l-.25986 3.50548c-.2942.007-.54157.2328-.56377.53221-.0337.45414.46663.82433.96969.49438"/><path d="M14.598765 64.762337c-.4021.6748.0635 1.30102.64427 1.29616l.49925 4.77077c-.56933.11518-.89545.82433-.36221 1.40129.69978.42917 1.36729-.0965 1.30241-.71435-.0427-.40765-.38926-.70602-.79067-.70256l-.49925-4.77076c.39343-.0798.67099-.44339.62831-.85105-.0645-.61789-.82641-.99433-1.42211-.4295m-7.71038 37.76959c.54053.0625.80386-.40973.63594-.77541l2.87231-1.66982c.23453.32682.77507.33133.98843-.16931.0725-.56377-.44928-.83612-.8212-.61998-.24564.14259-.3355.44652-.21927.69909l-2.87266 1.67016c-.16202-.22585-.47045-.29802-.71608-.15543-.37192.2165-.39343.80456.13253 1.0207"/><path d="M16.207875 72.368287c.0167-.67895-.59986-.95304-1.03492-.7029l-2.39943-3.38127c.3799-.32855.32473-1.00092-.32162-1.20909-.70914-.0267-.98877.65225-.67792 1.09044.20504.289.59258.36671.89372.19359l2.39909 3.38162c-.26264.2269-.31711.6186-.11207.90725.31052.43818 1.04395.39829 1.25315-.27964m1.97894 5.38208c-.0666-.54781-.5943-.69562-.91488-.44339l-2.32622-2.4369c.26679-.30878.14328-.84271-.40072-.93431-.57314.0618-.71817.64079-.41702.95617.19879.20816.51971.22516.74141.051l2.32623 2.4369c-.18457.21337-.18249.53464.0163.74279.30149.31538.88609.19741.9749-.37226m-8.9278 18.34513c.50341.37574 1.03978.0576 1.08418-.40452h3.83473c.0444.46212.58078.78026 1.08419.40452.39932-.52076.0368-1.09493-.4597-1.09493-.32786 0-.59396.25048-.62449.57036h-3.83473c-.0305-.31988-.29663-.57036-.62449-.57036-.49647 0-.85902.57417-.45969 1.09493m9.03535-32.00172c-.10721-.41737-.53117-.47808-.75355-.25014l-2.05007-1.64936c.1752-.2661.025-.66716-.40557-.68242-.4375.1065-.49058.56933-.22517.78304.17521.14086.42535.12108.57905-.0364l2.05006 1.64935c-.12108.18423-.0867.43264.0885.5735.26576.21371.70637.0628.71678-.38754"/><path d="M10.565245 93.166987c-.54018.31189-.46004.92632-.0559 1.14767l-1.50294 3.49959c-.43922-.14086-.93986.22412-.79414.83057.31849.56864.98496.46282 1.17959.01.12837-.29907.004-.64011-.27581-.79346l1.50294-3.49923c.30357.0972.63663-.0472.765-.34625.19498-.4531-.187-1.00925-.81878-.84861m-7.15771-13.66885c.44096-.71192-.0444-1.38776-.66335-1.39262l-.44686-5.09342c.60888-.11276.969-.8625.41113-1.48699-.73794-.46976-1.45854.0784-1.40095.73829.0382.43507.40245.7591.83058.76257l.44651 5.09343c-.42084.0781-.72302.46073-.68486.89579.0579.65953.86284 1.07413 1.5078.48295m5.69606-7.01686c.60159.49508 1.28506.13149 1.36694-.43853l4.75238.22273c.0281.57523.67445 1.00092 1.31976.56413.52526-.62206.10928-1.3548-.50619-1.3836-.40592-.0191-.75008.27616-.80663.67064l-4.75238-.22275c-.0194-.39793-.3348-.72405-.74072-.74314-.61547-.0288-1.09806.66196-.63316 1.33052m-4.67918-8.70854c.30427-.28275.16063-.66959-.13496-.75285l.4538-2.49451c.306.0257.57626-.28552.39135-.65744-.29143-.32127-.70776-.1537-.76674.16965-.0385.21302.093.41564.29733.47357l-.4538 2.4945c-.21129-.018-.40592.12524-.44478.33861-.0586.32301.272.62658.6578.42847m6.01143 7.20802c.47842-.37747.31432-.96033-.1079-1.11749l.95963-3.59499c.44443.0738.87707-.34936.65051-.91522-.38822-.50481-1.01722-.30879-1.14143.15681-.0822.30739.0864.61963.37851.72823l-.95998 3.59498c-.30704-.051-.60888.13566-.69075.4427-.12456.4656.32334.94923.91141.70498"/><path d="M11.379865 93.561457c.52943-.0191.71365-.51208.49855-.83926l2.51982-2.02889c.27374.28032.79484.20538.92668-.30774-.0128-.55372-.5551-.73933-.88157-.47635-.21511.17313-.25743.47878-.1086.70499l-2.52017 2.0289c-.18908-.1936-.49681-.21788-.71192-.0444-.32647.26263-.26089.83196.27721.96276m-1.68925 8.20963c.27443-.68312-.24806-1.1952-.78513-1.10604l-1.15531-4.34438c.51035-.18977.70915-.89338.13184-1.3503-.71053-.29558-1.25176.28831-1.10223.85071.0989.37122.46317.59708.8344.53566l1.1553 4.34439c-.35283.13114-.55649.50791-.45796.87915.14953.56273.90968.80039 1.37909.19081m-7.91959-37.00043c.40834.15405.70532-.16201.646-.47912l2.56111-.74003c.11865.3001.53845.40905.80177.0611.16653-.42466-.1863-.73829-.51798-.64253-.21892.0631-.34832.28205-.30704.50132l-2.56111.74002c-.0822-.20781-.30808-.32369-.527-.26055-.33167.0958-.46316.54921-.0958.81982m1.93523 38.04368c.26992.61443.93639.60124 1.22088.19498l3.56481 2.01919c-.20227.4531.12906 1.03145.79449.94715.64566-.27374.61096-.9985.14953-1.26009-.30461-.17243-.68416-.0795-.88088.20157l-3.5648-2.01954c.13981-.31328.0246-.68659-.27998-.85901-.46178-.2616-1.10119.0815-1.00405.77575m12.1644-27.88146c-.33028.5204.0215 1.02173.47704 1.03041l.28658 3.7525c-.44894.0781-.72025.62692-.31502 1.09112.53949.35179 1.07447-.0458 1.03735-.53186-.0247-.32057-.29005-.56204-.60507-.56828l-.28657-3.75216c.31051-.0541.53602-.33306.51139-.65364-.0371-.48606-.62588-.79796-1.1057-.36809m1.75413-15.50231c-.1981-.35215-.59639-.30427-.7428-.0441l-2.25545-.9971c.094-.28311-.13913-.60992-.53256-.51972-.37053.20261-.30634.63456-.0142.76361.19256.0854.41425.007.51556-.17311l2.25545.9971c-.0649.19602.0264.41251.21892.49786.29212.12906.65467-.11449.5551-.52457m-16.07579 27.62362c.6526-.22309.69666-.90656.30531-1.23303l2.3755-3.47529c.44651.24598 1.06718-.043 1.03839-.7317-.22447-.68486-.96935-.71192-1.27709-.26194-.20296.29698-.14051.69354.13011.91939l-2.37585 3.47495c-.30878-.17001-.70082-.0843-.90378.21268-.30773.44997-.0118 1.13448.70741 1.09494m18.37393-22.84529c-.39898-.29802-.82467-.0458-.86006.32091h-3.04197c-.035-.36671-.46073-.61893-.85971-.32091-.31711.4132-.0295.86873.36463.86873.25986 0 .47079-.19914.49508-.4524h3.04197c.0243.25326.23557.4524.49543.4524.39377 0 .68139-.45553.36463-.86873m-1.80963 1.43702c-.47323-.35387-.97837-.0541-1.02001.3806h-3.60817c-.0416-.43472-.54643-.73447-1.02-.3806-.37574.48988-.0347 1.03041.43263 1.03041.30843 0 .55857-.23626.58737-.53672h3.60817c.0288.30046.27929.53672.58772.53672.46698 0 .80837-.54053.43229-1.03041m-2.64091 17.4084c-.66266-.16896-1.07031.37504-.92251.85868l-3.85971 1.59627c-.2373-.44686-.90967-.54366-1.25973.0441-.18527.69041.41875 1.11748.91869.91071.32959-.13634.493-.49959.391-.83404l3.85971-1.59627c.16375.30877.53602.45067.86596.31433.49959-.20678.62553-.9357.007-1.29374m-1.71735-11.84245c.37747.28207.77992.0434.81323-.30357h2.87717c.0333.34694.43576.58564.81323.30357.29975-.39064.0278-.82154-.34486-.82154-.24563 0-.44547.18803-.46837.42811h-2.87717c-.0229-.24008-.22239-.42811-.46837-.42811-.37261 0-.64461.4309-.34486.82154m-7.6181 17.67381c-.17902.80698.49335 1.27882 1.07204 1.08176l2.0754 4.6018c-.53082.30323-.62241 1.11923.10096 1.5196.84098.19775 1.33398-.54816 1.06545-1.1442-.17729-.39309-.62241-.57662-1.02243-.44062l-2.07539-4.60146c.36706-.2099.52387-.66473.34659-1.05816-.26853-.5957-1.15392-.71991-1.56262.0413"/><path d="M15.404015 89.940797c.14884-.52389-.27512-.86007-.66335-.75286l-1.18792-3.10616c.36082-.17901.45241-.71226-.008-1.00334-.54538-.16237-.89822.30912-.74453.71156.10131.26542.38719.40315.65537.32891l1.18792 3.10614c-.24945.12387-.37018.41702-.26888.68244.15404.40245.73135.51833 1.02937.0333m-1.69096-12.82948c-.46802.62657-.0718 1.29443.50375 1.34995v4.77457c-.57557.0552-.97177.72337-.50375 1.3496.64843.49751 1.36347.0461 1.36347-.57244 0-.40766-.31225-.73899-.71018-.77716v-4.77457c.39793-.0382.71018-.3695.71018-.7775 0-.61825-.71504-1.06997-1.36347-.57245m-10.79364-6.89681c-.2328.33098-.018.67098.28067.6911l.0704 2.46987c-.29698.0371-.49196.38857-.24078.70567.34278.24771.70602.004.697-.31606-.006-.21129-.17243-.37782-.37885-.3917l-.0704-2.47021c.20504-.0257.36186-.20157.35561-.41251-.009-.31988-.38545-.54296-.71365-.27616m12.31393-10.24583c.008-.41563-.37018-.58147-.63559-.42708l-1.4797-2.06186c.23141-.20227.19533-.61339-.20088-.73899-.43402-.0139-.60298.40245-.41147.66959.12663.17625.36394.22239.54782.11554l1.47935 2.06221c-.15994.13982-.19221.37955-.0656.5558.19151.26714.64011.24042.76605-.17521m-12.04471 14.9309c-.42396.56724-.0649 1.17196.45588 1.22192v4.32182c-.52076.05-.87984.65503-.45588 1.22193.58667.45032 1.23406.0416 1.23406-.51798 0-.36949-.28275-.66925-.64287-.70395v-4.32182c.36012-.0347.64287-.33445.64287-.70359 0-.55996-.64739-.96831-1.23406-.51833m-1.45609 11.14301c.12177.46177.59187.52631.83716.272l2.2839 1.81449c-.1922.29629-.0232.74002.45415.75391.48433-.12108.54019-.63455.24459-.86944-.19533-.15508-.47253-.13183-.64184.0441l-2.2839-1.8145c.13288-.20504.093-.48016-.102-.63525-.29594-.23522-.78374-.0645-.79206.43472m9.11133 8.58884c.63767-.49682.425-1.27119-.13392-1.48352l1.3038-4.76174c.58875.10199 1.16641-.45588.87081-1.2084-.51069-.67305-1.34716-.41841-1.51612.19845-.11137.40696.10963.8226.49612.96935l-1.3038 4.76141c-.40696-.0704-.80906.17486-.92043.58147-.16896.61686.42119 1.26217 1.20354.94298"/><path d="M12.663885 84.561497c-.67167.18422-.75841.87081-.38406 1.22434l-2.61176 3.35664c-.43472-.27581-1.07864-.0229-1.09217.67342.18353.70429.93327.77818 1.27153.34347.22309-.28692.18458-.69041-.0742-.93501l2.61177-3.35663c.30045.19081.70116.12871.92459-.15821.33792-.43472.0822-1.14317-.64565-1.14802m-5.4709-11.57426c.79311.21128 1.28923-.4361 1.11819-1.01828l4.65177-1.86687c.27894.53879 1.08488.66369 1.51196-.0371.23106-.82606-.48814-1.34647-1.09078-1.10465-.39724.15958-.59812.59327-.47981.99606l-4.65177 1.86688c-.19255-.37296-.63768-.54747-1.03492-.38788-.60264.24148-.76292 1.11472-.0246 1.55187m-2.227-4.27847c-.32473-.26679-.69353-.0704-.73759.23731l-2.56527-.1183c-.0153-.31052-.36464-.53985-.71262-.30393-.28345.33584-.0586.73136.27374.74662.21892.01.40488-.14953.43506-.3622l2.56527.1183c.0108.21476.18111.39065.40037.40071.33202.0152.59223-.35769.34104-.71851m14.85457 1.955c-.25465-.38405-.70428-.29697-.8493.0118l-2.65062-.94853c.0836-.33029-.20886-.68313-.64947-.54748-.40488.26125-.29629.74766.0472.87047.22621.0811.47219-.0264.57245-.23973l2.65062.94819c-.0576.22828.0642.46767.29074.54851.34312.12281.73586-.18457.58841-.64323m-8.66066-3.02947c.25362.35805.67896.26159.80768-.0361l2.55.82433c-.0701.31676.21858.64357.63386.50202.37747-.26055.25986-.72025-.0704-.8271-.21788-.0704-.4486.0392-.53776.24494l-2.55001-.82399c.0486-.21926-.0746-.44304-.29247-.51347-.33028-.10685-.69457.19707-.54088.62935m-5.0674 17.63009c.2158-.5891-.24251-1.01202-.6977-.92216l-1.09736-3.67097c.42985-.17486.58112-.77957.077-1.15358-.6127-.23349-1.05886.2779-.91662.7532.0937.31365.41009.49682.72476.43472l1.09737 3.67098c-.29733.12108-.46108.44755-.36741.76118.1419.47531.79553.65814 1.17995.12663m.92077 13.12022c.45866-.21198.43958-.71365.12941-.92216l1.47103-2.71238c.34381.14572.77471-.11171.70185-.61166-.2151-.48224-.76049-.44616-.95096-.0947-.12559.23175-.0503.5159.16411.66022l-1.47068 2.71238c-.238-.10062-.51729-.009-.64288.22308-.19047.3511.0767.82779.59812.74522m-2.76545-1.46235c.24632-.39169-.0191-.76708-.36117-.77263l-.22586-2.8175c.33688-.0597.53915-.47288.2335-.82017-.40592-.26297-.80664.0371-.7775.40211.0194.24077.21927.42153.45588.42499l.22586 2.8175c-.23314.0416-.40176.25188-.38233.49266.0291.36464.47253.59743.83162.27304"/><path d="M6.321825 84.823777c.53221.0656.79519-.39829.63213-.75945l2.84282-1.62646c.22898.3237.76188.33202.97525-.15994.0753-.55544-.4368-.82744-.80525-.61686-.24285.13913-.33375.43784-.221.68764l-2.84282 1.62645c-.15821-.22377-.46178-.29698-.70498-.1582-.36811.21094-.39309.79033.12385 1.00682m.67445-2.39943c-.14536-.60298-.75424-.69943-1.07933-.37609l-2.91568-2.41886c.25778-.37921.0503-.95964-.56932-.99121-.63213.14398-.71852.80941-.34105 1.1227.24911.20642.60958.18353.83439-.0399l2.91569 2.41852c-.17798.26229-.13392.62102.11518.82745.37747.31329 1.01549.10546 1.04012-.54261m4.85785-1.46964c.43194-.578.0659-1.19486-.46489-1.24587v-4.40648c.53081-.051.89683-.66785.46489-1.24585-.59847-.45901-1.25835-.0427-1.25835.52804 0 .37677.28796.68243.65537.71781v4.40648c-.36741.0354-.65537.34104-.65537.71782 0 .57072.65988.98705 1.25835.52805"/><path d="M11.576925 75.024117c.53602.40765 1.11437.0711 1.16606-.42396l4.11159.034c.0434.49577.61581.84203 1.15878.44338.43263-.55475.0493-1.17369-.48329-1.1782-.35145-.003-.63872.26367-.67445.6061l-4.11159-.034c-.0302-.34312-.31328-.61408-.66438-.6172-.53256-.004-.92633.60819-.50272 1.16988m1.32462 1.18237c-.28762.38475-.0441.79519.30947.82884v2.93303c-.35354.034-.59709.44443-.30947.82918.39828.30566.83751.0281.83751-.35144 0-.25084-.19186-.45415-.43645-.47774v-2.93303c.24459-.0232.43645-.2269.43645-.47739 0-.3799-.43923-.6571-.83751-.35145m-.94646 1.85474c-.40279-.23384-.77124.0465-.7643.391l-2.82583.32821c-.0722-.33689-.49473-.52562-.83335-.20539-.24979.41771.0663.80976.43229.76743.24147-.0281.41598-.23558.41147-.47357l2.82582-.32821c.05.2328.26749.39482.50862.36672.36602-.0423.58424-.49648.24528-.84619m6.56237-14.31335c-.76709.35632-.73239 1.19625-.21267 1.54388l-2.4494 4.54769c-.57627-.24251-1.29651.19047-1.17231 1.02729.36255.80629 1.275.74315 1.59245.15404.20921-.38857.0815-.86423-.27755-1.10465l2.44905-4.54769c.39863.16792.86631.0125 1.07551-.37608.31711-.58911-.13253-1.38568-1.00508-1.24448m-1.34613 19.0352c-.61269-.0802-.91974.45137-.73516.86909l-3.28934 1.84641c-.26055-.37504-.87429-.38962-1.12477.17486-.0919.63906.49577.9572.92147.71816.28102-.15785.38857-.50098.26124-.78999l3.28934-1.84641c.18006.25952.52908.34625.8101.18874.42604-.23938.46039-.90656-.13288-1.16086"/><path d="M15.688855 83.001307c-.37886-.54609-1.02451-.40627-1.22366.043l-3.84999-1.28437c.11033-.47878-.32196-.97838-.95269-.76951-.57558.38926-.40419 1.08696.0947 1.25349.3289.10963.68001-.0531.81774-.3636l3.84999 1.28437c-.0763.33134.10686.67202.43576.782.49855.1662 1.05504-.28899.82814-.9454m-6.48083 6.50512c.29906-.40038.0458-.82746-.32196-.86284v-3.05134c.36775-.0354.62102-.46247.32196-.86249-.41459-.31814-.87151-.0295-.87151.36567 0 .26056.19948.47254.45379.49682v3.05134c-.25431.0247-.45379.23626-.45379.49682 0 .39516.45692.68381.87151.36602"/><path d="M8.408325 81.827947c.59188.25396 1.05019-.19255.98323-.66404l3.82292-.92216c.15544.44997.76709.63836 1.17821.14259.27305-.61512-.22655-1.1005-.72163-.98114-.32647.0788-.53151.39307-.48537.71885l-3.82293.92217c-.10755-.31121-.43298-.49716-.75945-.41841-.49543.11969-.71851.77922-.19498 1.20214"/><path d="M11.363215 82.513157c.47634.0434.69769-.37712.54226-.69457l2.48756-1.52793c.21302.28207.68798.27478.86457-.16965.0517-.49681-.41251-.7251-.73482-.527-.21232.13045-.28518.39933-.17763.6186l-2.48755 1.52826c-.14746-.19498-.4198-.25187-.63248-.12143-.32196.19811-.32855.71505.13809.89372m-.0819 13.17608c-.2713.35318-.0506.73655.27652.77228l-.0354 2.71828c-.32821.0271-.55857.40453-.29698.76465.36568.28797.7761.0361.78061-.31571.003-.23245-.17242-.42327-.39863-.4479l.0357-2.71827c.22655-.0187.40696-.20504.41008-.43749.005-.3518-.39933-.61409-.77194-.33584m-4.4144-21.64106c.28622.57106.91939.52596 1.16988.12559l3.48813 1.74615c-.17035.44062.17278.97421.80178.86145.6002-.29178.53221-.97906.0805-1.20526-.29802-.14919-.65433-.042-.8278.23452l-3.48778-1.74615c.11761-.30461-.0101-.65363-.30808-.80282-.45172-.2262-1.0429.13114-.91662.78652"/><path d="M13.091665 81.226707c.2439.50064.79623.46767 1.01896.12143l3.02358 1.55707c-.15265.38232.14121.85138.69041.75945.52665-.24841.47392-.84862.0822-1.05019-.25813-.13323-.57002-.0434-.72372.19602l-3.02358-1.55707c.10547-.26471-.002-.57037-.2609-.70324-.39169-.20193-.91071.10373-.80698.67653m5.4924-6.9832c-.34-.25397-.7029-.0389-.73273.27373h-2.59268c-.0298-.3126-.39274-.5277-.73274-.27373-.26992.35214-.025.74036.31086.74036.22135 0 .40141-.16964.42188-.38544h2.59268c.0208.2158.20053.38544.42187.38544.33584 0 .58113-.38822.31086-.74036m-13.57332 4.2802c-.45588-.0638-.68833.33028-.55337.64252l-2.46327 1.35445c-.19151-.28102-.64878-.29594-.8389.12317-.0728.47566.3629.71643.68174.54088.21059-.11553.29281-.37088.19983-.58668l2.46293-1.35445c.13253.19428.39204.26159.60229.14572.31918-.17556.34902-.67238-.0913-.86561m10.24791-17.49791c-.46525.0479-.59847.493-.38927.76846l-2.09933 1.93489c-.25743-.23037-.71192-.13392-.79762.32577.0441.48676.53256.61825.80421.36741.17937-.16514.19845-.43679.0541-.62726l2.09898-1.93523c.17833.15959.45033.16237.6297-.003.272-.25084.18041-.748-.3008-.83127m-4.98309 32.98045c.37365-.13218.39482-.52561.16792-.71089l1.34543-2.01363c.25812.13913.61373-.0312.59257-.42709-.13322-.39238-.56169-.40349-.7362-.14293-.11484.17208-.0763.39967.0805.52804l-1.34543 2.01329c-.17833-.0961-.40349-.0445-.51833.12768-.17451.2609 0 .65259.41356.62553"/><path d="M2.229675 75.085177c-.31363.38579-.0794.82017.28484.87047l-.12421 3.03225c-.36706.0202-.63594.43403-.35492.84411.39864.33271.86458.0645.88054-.32821.0108-.25916-.17902-.47738-.4309-.51208l.1242-3.03226c.25396-.0139.46074-.21614.47149-.4753.016-.39274-.42639-.69804-.85104-.39898m1.70833 12.79514c.29039-.38892.0444-.80352-.31259-.83786v-2.96356c.357-.034.60298-.44894.31259-.83751-.40245-.30877-.84618-.0284-.84618.35526 0 .25293.19393.45865.44095.48225v2.96356c-.24702.0236-.44095.22933-.44095.48259 0 .38372.44373.6637.84618.35527m1.8929-17.56833c-.21093-.32751-.59153-.25917-.71747-.00027l-2.2277-.83196c.0746-.27825-.16792-.57939-.54192-.4701-.34485.2158-.25882.62796.0295.73551.19047.0711.39932-.0166.48641-.19567l2.22735.83196c-.0513.1922.0489.39586.23904.46698.28866.10755.6238-.14745.5048-.53637m8.96041-12.67796c.31676.23662.65468.0361.68278-.255h2.41539c.0281.29108.36602.49162.68313.255.25153-.3282.0232-.68972-.2897-.68972-.20643 0-.374.15787-.39343.35909h-2.4154c-.0194-.20122-.187-.35909-.39343-.35909-.31259 0-.54122.36152-.28934.68972m-.88609 16.50427c.48745.005.67827-.44061.49405-.75078l2.40463-1.75794c.23939.26958.72198.22308.86493-.2432.0118-.50966-.47878-.7036-.78999-.47601-.20539.15023-.25743.42952-.1301.64393l-2.40429 1.75794c-.16584-.18631-.44755-.22169-.65329-.0715-.3112.22759-.27512.7539.21406.89753m-1.74511 1.25315c.10444.48329.58772.57176.85278.32057l2.27662 1.98276c-.21267.29733-.0586.76361.43437.80074.50653-.10269.58841-.63108.29351-.88782-.19463-.1693-.48224-.1582-.66577.0159l-2.27663-1.9831c.14711-.20539.11901-.49196-.0756-.66162-.2949-.25674-.80699-.10304-.83925.41251m6.05999 3.54885c-.38545-.2883-.79692-.044-.83092.31017h-2.93927c-.034-.35422-.44547-.59847-.83092-.31017-.30635.39899-.0285.83925.35249.83925.25084 0 .45484-.1922.47843-.43714h2.93927c.0236.24494.22759.43714.47878.43714.38059 0 .65849-.44026.35214-.83925m-13.77351 1.49601c.41599-.002.57245-.38441.41182-.64635l2.02786-1.53001c.20782.22691.61825.18111.73448-.21857.003-.43471-.41737-.59361-.68001-.3955-.17312.13079-.21371.36949-.10269.55059l-2.02752 1.53001c-.14398-.15683-.38475-.18354-.55787-.0527-.26264.19811-.22517.64636.19393.76258"/></g></svg>