<svg xmlns="http://www.w3.org/2000/svg" xml:space="preserve" viewBox="0 0 26.03 128.55"><g fill="#231f20"><path d="M21.53.42c-.18.68.37 1.1.87.95l1.59 3.97c-.46.23-.57.92.03 1.28.7.2 1.14-.41.94-.93a.7.7 0 0 0-.85-.4l-1.59-3.97a.7.7 0 0 0 .33-.88c-.2-.51-.95-.65-1.32-.02m.22 14.7c-.45.61-.07 1.26.49 1.31v4.6c-.56.06-.94.7-.49 1.31.63.48 1.32.05 1.32-.55 0-.4-.3-.71-.69-.75v-4.6a.76.76 0 0 0 .69-.76c0-.6-.7-1.03-1.32-.55M11.2 26.33c-.5.67-.08 1.38.53 1.44v5.04c-.6.06-1.02.77-.53 1.43.69.53 1.44.05 1.44-.6a.83.83 0 0 0-.75-.83v-5.04c.42-.05.75-.4.75-.83 0-.65-.75-1.13-1.44-.6"/><path d="M4.87 32.64c.53.62 1.29.37 1.48-.2l4.79 1.1c-.08.59.5 1.14 1.24.8.65-.53.36-1.35-.26-1.5a.8.8 0 0 0-.95.54l-4.8-1.08a.8.8 0 0 0-.61-.9c-.62-.14-1.24.48-.89 1.24m15.05-13.28c.5-.09.6-.57.36-.85l2.1-2.2c.3.23.77.1.83-.4-.08-.51-.6-.62-.88-.33a.5.5 0 0 0-.01.67l-2.1 2.2a.5.5 0 0 0-.68.04c-.27.29-.14.81.38.87"/><path d="M7.36 42.97c-.4.08-.48.49-.27.71l-1.68 1.9c-.25-.18-.64-.05-.67.37.08.42.52.5.74.25a.42.42 0 0 0-.01-.56l1.68-1.9c.17.12.4.1.55-.07.22-.24.1-.67-.34-.7m12.97-25.7c-.4.05-.52.45-.33.69l-1.8 1.74c-.24-.2-.64-.1-.7.3.05.43.48.54.72.31a.41.41 0 0 0 .03-.55l1.82-1.75c.16.13.4.13.55-.02.24-.23.15-.66-.28-.73"/><path d="M16.83 29.87c-.42-.44-.98-.23-1.1.2l-3.62-.64c.04-.44-.42-.83-.96-.56-.46.42-.21 1.03.26 1.11a.6.6 0 0 0 .68-.44l3.63.64a.6.6 0 0 0 .49.65c.47.08.9-.4.62-.96m-2.18 8.67c.45.34.93.05.97-.36h3.41c.04.41.52.7.97.36.36-.46.03-.97-.4-.97-.3 0-.54.22-.57.5h-3.41a.56.56 0 0 0-.56-.5c-.44 0-.76.5-.4.97m-2.65.94c-.44.59-.06 1.22.48 1.27v4.5c-.54.06-.92.69-.48 1.28.61.47 1.29.04 1.29-.54 0-.39-.3-.7-.67-.74v-4.5a.74.74 0 0 0 .67-.73c0-.59-.68-1.01-1.29-.54M8.08 52.35c.42.3.86.03.9-.35l3.15-.02c.04.38.49.63.9.32.32-.43.02-.9-.39-.9a.52.52 0 0 0-.5.48l-3.17.02a.52.52 0 0 0-.52-.46c-.4 0-.7.48-.37.9M9.54 16.8c-.2-.78-1-.89-1.4-.46l-3.85-3.08c.32-.5.04-1.24-.76-1.27-.82.2-.92 1.07-.42 1.47a.8.8 0 0 0 1.08-.07l3.85 3.07a.8.8 0 0 0 .16 1.07c.5.4 1.33.12 1.34-.73m9.77 1.58c.56-.37.44-1.03 0-1.24l1.4-3.86c.48.13 1-.3.8-.94-.37-.59-1.08-.44-1.26.06-.12.33.03.7.34.84l-1.4 3.85a.67.67 0 0 0-.81.42c-.18.5.26 1.08.93.87m-6.84 1.03c.34.22.68 0 .69-.3l2.48-.16c.04.3.4.48.71.21.24-.35-.02-.7-.34-.68a.4.4 0 0 0-.38.39l-2.48.15a.4.4 0 0 0-.42-.34c-.32.02-.54.4-.26.73m8.29 20.3c-.55-.39-1.1-.03-1.13.46l-4.05.14c-.07-.48-.65-.8-1.16-.38-.4.56 0 1.16.52 1.14a.66.66 0 0 0 .64-.63l4.05-.14c.05.33.34.59.68.58.53-.02.9-.64.45-1.18M5.9 42.83c-.55.53-.28 1.23.26 1.38l-.77 4.57c-.56-.04-1.04.54-.7 1.22.54.58 1.3.26 1.4-.33a.76.76 0 0 0-.55-.86l.77-4.58c.38.03.74-.24.8-.63.1-.59-.51-1.14-1.21-.77m12.67-15.58c.28.34.7.2.8-.1l2.59.63c-.05.32.26.62.66.45.36-.28.2-.73-.13-.81a.44.44 0 0 0-.51.28l-2.6-.63a.44.44 0 0 0-.32-.48c-.34-.08-.67.24-.49.66m-7.48 9.08c-.42.03-.56.42-.38.68l-1.95 1.67c-.22-.22-.64-.14-.73.27.02.44.46.57.71.35a.4.4 0 0 0 .07-.56l1.96-1.67c.15.15.4.16.56.02.25-.22.19-.67-.24-.76m3.8-7.75c.25.4.72.32.88 0l2.76 1.04c-.1.35.2.72.67.59.43-.27.32-.78-.04-.91a.48.48 0 0 0-.6.24L15.8 28.5a.48.48 0 0 0-.3-.58c-.35-.14-.77.18-.62.66m8.03 1.84c-.6-.32-1.13.1-1.1.61l-4.13.62c-.12-.5-.75-.75-1.23-.26-.35.62.13 1.18.67 1.1.35-.05.6-.36.58-.71l4.13-.62c.08.34.4.57.76.52.53-.08.83-.76.32-1.26m-.5 5.66c-.36-.6-1.05-.5-1.3-.04l-3.98-1.6c.15-.5-.27-1.06-.95-.88-.64.37-.5 1.12.01 1.33a.7.7 0 0 0 .9-.33l3.98 1.6a.7.7 0 0 0 .4.86c.52.21 1.14-.23.95-.94M4.2 18.85c-.48.16-.52.66-.24.9L2.17 22.3c-.32-.19-.78.02-.77.53.16.5.7.53.94.2a.51.51 0 0 0-.09-.67l1.8-2.55c.22.13.5.07.66-.15.23-.33.02-.83-.51-.81"/><path d="M1.55 41.65c.24.47.77.42.97.09l2.93 1.41c-.14.37.15.81.67.71.5-.25.44-.82.06-1a.53.53 0 0 0-.69.2l-2.92-1.41a.53.53 0 0 0-.27-.67c-.38-.18-.87.12-.75.67m10.73-18.92c-.13-.71-.83-.86-1.22-.5l-3.23-2.97c.32-.43.12-1.11-.6-1.18-.74.12-.88.89-.46 1.27.28.26.7.25.97 0l3.22 2.98c-.22.29-.19.7.09.96.42.39 1.17.18 1.23-.56"/><path d="M19.18 47.74c.29-.77-.31-1.32-.9-1.2l-1.45-4.8c.56-.23.76-1.02.1-1.5-.8-.31-1.38.36-1.2.98.13.4.54.65.95.57l1.44 4.8a.82.82 0 0 0-.48.99c.19.62 1.04.86 1.54.16m-7.21-13.7c-.5-.2-.88.18-.82.58l-3.2.84c-.15-.38-.67-.53-1-.1-.22.52.2.92.62.82a.54.54 0 0 0 .4-.62l3.2-.84c.1.26.38.41.66.34.41-.11.59-.67.14-1.02m-3-23.16c-.4.02-.53.39-.36.63l-1.85 1.52c-.2-.2-.58-.14-.68.24.02.41.42.54.66.34a.4.4 0 0 0 .07-.52l1.84-1.52a.4.4 0 0 0 .53.02c.24-.2.18-.62-.22-.7m6.27 14.6c-.16-.36-.56-.35-.73-.1l-2.13-1.2c.12-.26-.09-.6-.48-.55-.38.16-.36.6-.08.75.18.1.4.04.52-.13l2.14 1.19a.4.4 0 0 0 .17.5c.27.16.65-.05.6-.46M12.4 30c-.65-.33-1.2.14-1.16.67l-4.36.74c-.14-.51-.8-.77-1.3-.25-.36.67.16 1.25.73 1.16.37-.06.62-.4.6-.77l4.36-.74c.1.36.44.59.81.53.57-.1.87-.82.32-1.34m-8.9 5.75c-.43.28-.34.8 0 .96l-1.1 2.97c-.37-.1-.77.23-.63.73.3.46.84.34.99-.04a.52.52 0 0 0-.27-.65l1.1-2.98c.26.07.54-.06.63-.32.14-.38-.2-.83-.72-.67m19.97-18.07c-.54.1-.66.63-.4.94l-2.3 2.45c-.32-.25-.84-.1-.9.45.09.57.67.68.97.36.2-.2.2-.53.01-.74l2.3-2.45c.23.17.55.15.74-.06.3-.32.15-.9-.42-.95M9.1 22.76c-.03.62.52.88.93.67l2.1 3.14c-.35.29-.32.9.26 1.1.65.05.92-.56.65-.97a.62.62 0 0 0-.81-.2l-2.1-3.14c.24-.2.3-.56.12-.83-.27-.4-.94-.38-1.15.23"/><path d="M15.03 24.87c-.1.57.4.88.8.72l1.63 3.15c-.36.24-.4.81.13 1.07.6.1.92-.44.7-.85a.58.58 0 0 0-.73-.27l-1.64-3.15a.58.58 0 0 0 .2-.76c-.2-.41-.84-.46-1.1.09m7.12-6.02c-.44.27-.36.78-.02.96l-1.2 2.95c-.37-.11-.78.2-.65.7.28.47.83.37.99 0a.54.54 0 0 0-.25-.67l1.2-2.94c.25.07.53-.05.63-.3.16-.39-.17-.84-.7-.7M18.57 31.8c-.29-.72-1.05-.73-1.4-.28l-4-2.45c.24-.51-.11-1.19-.88-1.11-.75.28-.74 1.12-.22 1.43.34.21.78.12 1.02-.2l4 2.46a.77.77 0 0 0 .3 1c.52.31 1.26-.05 1.18-.85m-7.52 1.62c-.02.45.38.64.67.48l1.53 2.25c-.25.21-.23.65.2.8.46.03.65-.42.45-.7a.45.45 0 0 0-.58-.15l-1.53-2.25c.18-.14.22-.4.09-.6-.2-.28-.68-.27-.83.17m7.5 12.7c-.44-.08-.67.3-.55.6l-2.36 1.22c-.18-.28-.61-.3-.8.1-.08.44.32.68.63.52.2-.1.29-.34.2-.55l2.37-1.22c.12.18.37.25.57.15.3-.16.35-.63-.06-.82m-4.74-1.5c.34.26.7.04.72-.27h2.57c.03.31.4.53.73.28.27-.35.02-.74-.31-.74-.22 0-.4.17-.42.38h-2.57a.42.42 0 0 0-.41-.38c-.34 0-.58.39-.31.74M12.6 38.4c.06-.44-.32-.67-.63-.54l-1.3-2.42c.28-.18.3-.63-.11-.82-.47-.07-.7.35-.54.66.11.2.36.3.57.2l1.3 2.42a.45.45 0 0 0-.14.59c.17.3.65.34.85-.09M6.42 19.57c.33-.44.05-.9-.35-.94l-.03-3.34c.4-.04.67-.5.34-.94-.46-.35-.95-.03-.95.4 0 .29.22.52.5.54l.03 3.34a.55.55 0 0 0-.5.55c.01.43.52.74.96.39m7.23 32.67c.13-.38-.16-.64-.45-.58l-.73-2.34c.27-.11.36-.5.04-.73-.4-.15-.67.18-.58.48.06.2.27.32.47.28l.72 2.33a.4.4 0 0 0-.23.49c.1.3.52.41.76.07"/><path d="M7.1 44.36c.59.45 1.22.07 1.27-.48h4.53c.05.55.69.93 1.28.48.47-.61.04-1.29-.54-1.29-.39 0-.7.3-.74.67H8.37a.74.74 0 0 0-.73-.67c-.6 0-1.02.68-.55 1.3m8-17.07c-.2.48.17.84.55.78l.82 3.06c-.36.14-.5.63-.1.96.5.2.9-.2.78-.6a.52.52 0 0 0-.59-.38l-.82-3.07c.25-.1.4-.36.33-.62-.11-.4-.65-.56-.98-.13m1.27-3.54c.4.28.82.02.84-.34l3.02-.08c.05.37.48.6.86.3.3-.42.01-.86-.38-.85a.5.5 0 0 0-.48.46l-3.02.07a.5.5 0 0 0-.5-.43c-.4 0-.67.46-.34.87m4.58-6.28c-.23-.4-.68-.33-.84-.04l-2.54-1.07c.1-.31-.17-.68-.6-.57-.42.24-.34.72 0 .86.2.09.46 0 .57-.2l2.54 1.06c-.07.22.04.46.26.55.33.14.73-.14.6-.6m3.03-6.62c-.41.1-.47.53-.24.75l-1.62 2.03c-.26-.17-.66-.02-.67.4.1.44.57.49.78.23a.43.43 0 0 0-.04-.58l1.61-2.03c.18.12.43.08.57-.1.2-.26.05-.7-.4-.7M7.43 34.18c-.36.29-.23.73.09.84l-.68 2.72c-.34-.05-.66.27-.48.7.3.38.77.22.86-.13a.46.46 0 0 0-.3-.55l.69-2.72c.23.04.45-.1.51-.34.09-.35-.25-.71-.7-.52"/><path d="M11.3 32.01c.1-.61-.41-.95-.84-.79l-1.7-3.41c.4-.24.45-.86-.1-1.14-.65-.13-1 .45-.78.89.14.3.48.42.78.3l1.7 3.42a.62.62 0 0 0-.24.8c.22.45.89.52 1.18-.07m5.7-8.82c-.22.54.2.96.63.89l.9 3.48c-.41.15-.58.71-.12 1.08.57.24 1-.22.89-.67a.59.59 0 0 0-.67-.44l-.9-3.48c.3-.1.46-.4.38-.7-.12-.45-.72-.64-1.1-.16m-2.58-6.16c.14.62.76.72 1.1.39l2.95 2.47c-.26.39-.05.98.58 1.01.64-.14.73-.82.35-1.14a.63.63 0 0 0-.85.04l-2.96-2.47a.63.63 0 0 0-.11-.85c-.38-.32-1.03-.1-1.06.55M9.3 32.8c-.34-.64-1.06-.58-1.34-.12l-4-1.91c.19-.5-.21-1.1-.92-.97-.68.35-.59 1.13-.07 1.38.34.16.74.03.94-.29l4 1.92c-.13.35.02.74.36.9.52.25 1.18-.16 1.03-.9m4.6 4.9c.65-.45.48-1.21-.05-1.44l1.48-4.58c.57.13 1.15-.39.9-1.14-.47-.67-1.3-.46-1.48.13-.13.4.07.8.44.97L13.7 36.2a.79.79 0 0 0-.92.53c-.2.59.35 1.24 1.13.97M2.76 49.96c.27.52.85.47 1.08.1l3.22 1.56c-.15.4.17.9.75.78.55-.27.48-.9.06-1.1a.59.59 0 0 0-.76.22L3.9 49.96a.59.59 0 0 0-.3-.74c-.41-.2-.95.14-.83.74m22.6-38.3c-.81-.01-1.13.72-.83 1.24l-4.02 2.86c-.39-.45-1.19-.38-1.43.39-.03.84.78 1.17 1.3.8a.8.8 0 0 0 .22-1.06l4.01-2.86a.8.8 0 0 0 1.08.13c.52-.38.47-1.25-.33-1.5"/><path d="M18.83 35.58c-.74-.35-1.34.2-1.28.8l-4.88.96c-.17-.58-.93-.85-1.48-.24-.37.76.23 1.4.86 1.27a.8.8 0 0 0 .65-.88l4.88-.97c.12.4.52.65.94.57.63-.12.95-.95.3-1.5m-8.66-14.6c.12.47.59.54.84.3l2.25 1.86c-.2.3-.04.75.43.77.5-.11.56-.62.27-.87a.48.48 0 0 0-.65.03l-2.24-1.87c.13-.2.1-.47-.1-.63-.28-.25-.78-.09-.8.41m8.76 18.95c-.6-.45-1.25-.07-1.3.48h-4.6c-.05-.55-.7-.93-1.3-.48-.47.62-.04 1.3.56 1.3.39 0 .7-.3.75-.67h4.59c.04.38.36.68.75.68.6 0 1.03-.69.55-1.31M6.82 54.06c-.42-.15-.72.19-.65.51l-2.63.85c-.13-.3-.57-.4-.83-.04-.16.45.22.76.56.65.22-.07.35-.3.3-.53l2.63-.84c.09.2.33.32.55.25.34-.11.46-.58.07-.85m2.7-40.33c-.15.49.25.8.61.71l1.08 2.92c-.34.16-.43.66 0 .94.5.16.84-.28.7-.66a.51.51 0 0 0-.6-.31l-1.09-2.92a.51.51 0 0 0 .26-.64c-.14-.38-.68-.49-.96-.04M6.3 15.4c-.33.44-.05.9.35.94v3.32c-.4.04-.68.5-.35.94.45.34.95.03.95-.4a.54.54 0 0 0-.5-.54v-3.32c.28-.03.5-.26.5-.54 0-.43-.5-.74-.95-.4m-.65 6.11c-.53.61-.18 1.33.41 1.43l-.36 4.9c-.6.01-1.05.67-.62 1.35.63.56 1.4.15 1.44-.49a.8.8 0 0 0-.67-.85l.36-4.9a.8.8 0 0 0 .8-.75c.04-.63-.66-1.15-1.36-.69m-3.08-9.44c-.25.48.1.89.5.86l.53 3.25c-.38.1-.58.6-.19.98.5.27.94-.12.87-.54a.54.54 0 0 0-.57-.45l-.54-3.25a.54.54 0 0 0 .4-.61c-.08-.43-.62-.65-1-.24M12.6 48.45c.08-.39-.25-.6-.53-.5l-1.05-2.19c.25-.15.29-.54-.07-.73-.4-.08-.63.28-.5.57.1.18.31.27.5.2L12 47.98a.4.4 0 0 0-.15.51c.14.28.56.33.75-.04m-7.64 3.56c.58-.61.25-1.38-.36-1.52l.64-5.12c.62.02 1.14-.65.72-1.38-.63-.62-1.46-.23-1.54.43-.06.44.23.83.66.93l-.64 5.12a.85.85 0 0 0-.87.74c-.08.67.62 1.25 1.39.8m16.67-24.4c-.44-.06-.65.31-.52.6l-2.32 1.33c-.18-.27-.62-.27-.8.13-.06.45.36.67.66.5.2-.11.27-.36.18-.56l2.32-1.32c.13.18.38.24.58.13.3-.17.32-.64-.1-.82"/><path d="M13.25 41.33c.43-.3.31-.8-.04-.96l1-3.01c.37.09.76-.25.6-.75-.32-.45-.86-.3-.99.08-.08.26.05.53.29.64l-1 3.01a.52.52 0 0 0-.6.35c-.13.39.23.82.74.64m9.96-27.78c-.25-.49-.8-.45-1.01-.1l-3-1.52c.15-.38-.14-.84-.68-.74-.52.25-.46.84-.08 1.03.26.13.57.04.72-.2l3 1.52c-.11.26 0 .56.25.69.4.2.9-.11.8-.68M10.3 37.38c-.35.28-.22.7.09.82l-.67 2.64c-.33-.05-.64.27-.47.68.29.37.75.22.83-.12a.45.45 0 0 0-.28-.54l.67-2.64c.23.03.45-.1.5-.33.1-.35-.24-.7-.67-.51M18.91 21c.04.63.64.84 1.02.57l2.5 2.96c-.33.33-.23.95.39 1.1.66-.04.86-.69.54-1.07a.63.63 0 0 0-.84-.11l-2.5-2.96c.23-.23.25-.6.04-.85-.32-.38-1-.29-1.14.36m-4.38 10.55c.5.38 1.04.05 1.09-.41h3.86c.05.46.59.79 1.1.4.4-.52.03-1.1-.47-1.1-.33 0-.6.26-.63.58h-3.86a.63.63 0 0 0-.63-.58c-.5 0-.87.58-.46 1.1m-4.9-1.47c-.15.67.4 1.07.88.91l1.64 3.85c-.44.24-.53.92.06 1.26.7.18 1.12-.43.9-.93a.69.69 0 0 0-.83-.38l-1.65-3.85c.3-.17.44-.54.3-.87-.2-.5-.94-.62-1.3 0m4.2-12.52c-.5.57-.16 1.24.38 1.34l-.36 4.57c-.55 0-.98.62-.58 1.25.58.53 1.3.15 1.35-.44a.75.75 0 0 0-.62-.8l.36-4.57c.38-.01.7-.3.73-.7.05-.59-.6-1.07-1.26-.65"/><path d="M11.15 49.27c.75-.16.88-.92.5-1.33l3.06-3.55c.46.33 1.19.09 1.24-.68-.16-.79-.98-.9-1.38-.45-.26.3-.24.75.03 1.04l-3.07 3.55a.77.77 0 0 0-1.03.12c-.4.46-.15 1.25.65 1.3m.16-7.1c.45-.31.34-.84-.03-1l1.08-3.13c.39.09.8-.26.63-.78-.31-.47-.88-.33-1.02.07-.1.27.04.56.29.67l-1.08 3.13a.54.54 0 0 0-.64.35c-.14.4.23.87.77.69m3.6-7.52c.28-.66-.22-1.16-.73-1.08l-1.06-4.2c.5-.17.7-.85.15-1.3-.68-.3-1.21.26-1.08.8.1.37.44.59.8.53l1.05 4.2a.7.7 0 0 0-.45.85c.14.54.87.78 1.33.2M2.8 24.35c.73.16 1.17-.45 1-.97l4.17-1.85c.28.48 1.01.57 1.38-.08.19-.76-.49-1.21-1.03-.97a.75.75 0 0 0-.4.92l-4.19 1.85a.75.75 0 0 0-.95-.32c-.54.24-.66 1.04.02 1.41M9.24 32c-.85-.1-1.26.65-1 1.22l-4.48 2.63c-.37-.51-1.21-.52-1.54.27-.12.88.7 1.3 1.28.96.39-.22.53-.7.34-1.1l4.5-2.62c.25.35.73.46 1.11.24.58-.34.61-1.26-.21-1.6m15.07-13.6c.06-.5-.36-.74-.7-.59l-1.46-2.6c.3-.2.3-.7-.14-.89-.51-.07-.76.4-.57.73.12.23.4.3.63.2l1.47 2.6a.49.49 0 0 0-.15.65c.19.34.72.36.92-.1M3.07 29.15c.59-.13.7-.7.4-1.03l2.39-2.74c.35.25.92.07.96-.53-.12-.6-.76-.7-1.07-.35a.6.6 0 0 0 .02.8l-2.4 2.75a.6.6 0 0 0-.8.09c-.3.35-.12.97.5 1m.59 16.48c-.46.63-.07 1.29.5 1.35v4.74c-.57.06-.96.72-.5 1.35.65.49 1.36.04 1.36-.57 0-.4-.31-.74-.71-.78v-4.74c.4-.04.7-.37.7-.78 0-.61-.7-1.06-1.35-.57m9.64-21.45c.3.57.95.5 1.2.1l3.6 1.66c-.17.45.2.99.84.85.6-.31.5-1.01.04-1.23a.65.65 0 0 0-.83.27l-3.6-1.67a.65.65 0 0 0-.35-.81c-.46-.22-1.05.17-.9.83m-3.5 84.56c-.4.15-.44.58-.19.8l-1.51 2.21c-.29-.15-.68.03-.67.47.15.44.62.45.82.17a.44.44 0 0 0-.08-.59l1.51-2.22c.2.1.45.05.58-.14.2-.29 0-.72-.45-.7m-1.69 12.38c-.43.63-.03 1.26.53 1.3l.15 4.62c-.55.07-.91.73-.44 1.32.64.47 1.32 0 1.3-.6a.76.76 0 0 0-.71-.72l-.15-4.63a.76.76 0 0 0 .66-.77c-.02-.6-.72-1.02-1.34-.52"/><path d="M4.98 121.25c.04.72.71.96 1.15.66l2.82 3.37c-.37.37-.26 1.08.44 1.25.75-.04 1-.78.63-1.21a.72.72 0 0 0-.96-.13l-2.82-3.37a.72.72 0 0 0 .04-.97c-.37-.44-1.14-.33-1.3.4m1.6-14.47c.1.58.67.72 1 .43l2.6 2.5c-.27.35-.12.92.47 1 .6-.1.74-.73.4-1.05a.6.6 0 0 0-.8-.02l-2.6-2.5a.6.6 0 0 0-.04-.8c-.34-.33-.96-.17-1.03.44"/><path d="M4.76 124.04c.33-.22.27-.6 0-.74l.87-2.26c.28.08.6-.17.48-.55-.22-.35-.64-.27-.75.03-.07.19.02.4.2.5l-.87 2.26a.4.4 0 0 0-.48.24c-.1.3.15.63.55.52M.4 113.43c.44-.02.6-.44.42-.72l2.12-1.73c.24.24.68.17.79-.26-.02-.47-.48-.63-.75-.4a.45.45 0 0 0-.1.6l-2.12 1.73a.45.45 0 0 0-.6-.04c-.28.23-.22.7.24.82m8.03-5.2c-.44.05-.55.47-.35.72l-1.92 1.86c-.25-.21-.67-.11-.74.32.05.46.51.57.76.33a.44.44 0 0 0 .04-.59l1.92-1.86c.17.15.42.15.59-.01.25-.24.15-.7-.3-.77m.28 12.43c.56-.26.53-.88.16-1.13l1.8-3.32c.41.18.94-.14.85-.75-.26-.59-.93-.54-1.16-.11a.62.62 0 0 0 .2.8l-1.8 3.32a.62.62 0 0 0-.78.27c-.24.43.09 1.02.73.92"/><path d="M9.28 108.48c-.07-.39-.45-.48-.68-.29l-1.75-1.67c.18-.23.08-.61-.32-.66-.4.06-.5.48-.27.7a.4.4 0 0 0 .54.01l1.75 1.68a.4.4 0 0 0 .04.53c.22.22.64.11.69-.3m-3.64 12.76c-.22-.37-.65-.32-.8-.04l-2.44-1.06c.1-.3-.16-.65-.58-.55-.4.22-.33.68-.01.82.2.1.45 0 .55-.19l2.45 1.06c-.07.21.03.44.24.53.31.14.7-.12.59-.57"/><path d="M8.1 108.12c.2.4.64.36.8.08l2.43 1.17c-.11.3.13.67.57.59.4-.2.35-.68.04-.83a.44.44 0 0 0-.57.17l-2.43-1.18a.44.44 0 0 0-.22-.55c-.31-.15-.72.1-.62.55m-.7 8.09c.13-.39-.17-.67-.47-.6l-.74-2.42c.28-.11.38-.51.04-.76-.4-.15-.7.2-.6.5.07.21.27.33.48.29l.74 2.4a.4.4 0 0 0-.23.51c.1.31.52.43.77.08"/><path d="M9.22 116.4c.58-.43.41-1.13-.08-1.33l1.28-4.2c.52.1 1.05-.38.8-1.06-.44-.6-1.19-.4-1.35.14-.11.36.08.74.42.88L9 115.03a.72.72 0 0 0-.83.5c-.17.54.34 1.13 1.04.86m1.24 3.62c-.46-.56-1.15-.36-1.33.14l-4.3-1.1c.09-.53-.42-1.04-1.1-.76-.59.46-.35 1.21.2 1.35.38.1.74-.1.87-.46l4.3 1.1c-.06.37.16.73.53.83.56.14 1.13-.4.83-1.1"/><path d="M8.06 116.03c-.54-.08-.82.38-.66.75l-2.93 1.58c-.22-.34-.76-.36-1 .14-.08.56.43.85.8.64a.54.54 0 0 0 .25-.69l2.93-1.58c.15.24.46.32.7.18.39-.2.43-.79-.1-1.02m-.76 8.57c-.42-.32-.88-.05-.92.34H3.11c-.03-.4-.5-.66-.92-.34-.34.44-.03.93.4.93.27 0 .5-.22.52-.49h3.26c.03.27.25.49.53.49.43 0 .73-.5.4-.93m1.3-10.91c-.55-.63-1.34-.37-1.53.22l-5-1.08c.08-.61-.53-1.18-1.3-.83-.66.57-.35 1.42.3 1.56.42.09.84-.16.97-.57l5 1.08c-.05.42.22.82.65.92.65.14 1.28-.5.9-1.3m-2.51 6.21c.19.55.77.59 1.04.26l2.94 2c-.21.37.04.9.62.87.57-.2.6-.82.21-1.08a.58.58 0 0 0-.77.11l-2.94-2a.58.58 0 0 0-.18-.76c-.38-.25-.96 0-.92.6m10.66-94.02c-.77-.24-1.28.38-1.14.95L11 28.46c-.25-.54-1.04-.7-1.48-.03-.26.8.42 1.34 1.02 1.13a.8.8 0 0 0 .5-.96l4.62-1.62a.8.8 0 0 0 1 .42c.6-.21.79-1.06.09-1.52m3.77-4.82c-.45.67 0 1.33.58 1.36l.24 4.87c-.58.08-.96.78-.45 1.4.69.47 1.4-.02 1.37-.65a.8.8 0 0 0-.77-.76l-.24-4.87a.8.8 0 0 0 .69-.83c-.03-.63-.78-1.06-1.42-.52M16.76 46.4c-.19-.35-.58-.32-.74-.07l-2.2-1.06c.1-.28-.11-.61-.5-.53-.38.18-.33.61-.05.75.2.1.41.02.52-.15l2.2 1.06a.4.4 0 0 0 .2.5c.29.14.65-.09.57-.5"/><path d="M11.01 26.53c.56.54 1.27.23 1.4-.33l4.72.6c-.02.58.6 1.06 1.27.68.57-.58.22-1.35-.4-1.42a.78.78 0 0 0-.85.6l-4.72-.6a.78.78 0 0 0-.68-.8c-.61-.09-1.15.56-.74 1.27m.49 10.09c.53.25.96-.14.92-.57l3.54-.7c.12.42.67.62 1.07.18.27-.55-.17-1.02-.62-.93a.6.6 0 0 0-.48.64l-3.53.7a.6.6 0 0 0-.68-.41c-.46.09-.69.68-.22 1.09m2.25 4.14c.02.6.59.82.96.57l2.34 2.92c-.33.32-.24.92.35 1.07.64-.01.86-.64.55-1.01a.61.61 0 0 0-.81-.13l-2.33-2.92a.61.61 0 0 0 .05-.82c-.3-.38-.96-.3-1.11.32"/><path d="M14.42 36.28c.3.4.78.28.92-.06l2.9.88c-.06.36.27.73.74.56.42-.3.28-.83-.1-.94a.5.5 0 0 0-.6.29l-2.92-.88a.5.5 0 0 0-.34-.58c-.37-.11-.78.24-.6.73"/><path d="M3.16 42.66c.35.42.88.25 1-.14l3.3.77c-.05.4.35.78.86.56.44-.37.25-.93-.18-1.03a.55.55 0 0 0-.65.36l-3.3-.76a.55.55 0 0 0-.42-.61c-.43-.1-.85.32-.61.85m12.09-5.8c.45-.03.6-.45.41-.73l2.13-1.78c.24.23.68.16.79-.28-.02-.48-.49-.63-.76-.4a.45.45 0 0 0-.09.61l-2.13 1.78a.45.45 0 0 0-.6-.03c-.28.24-.22.72.25.83"/><path d="M20.82 30.31c.1-.61-.44-.94-.86-.76l-1.8-3.36c.38-.26.4-.88-.16-1.14-.65-.11-.98.48-.75.91.16.3.5.4.8.28l1.8 3.37a.63.63 0 0 0-.2.81c.23.44.9.49 1.17-.1m-6.48 17.67c0 .65.59.9 1 .65l2.36 3.17c-.36.33-.29.97.33 1.15.68.01.93-.64.63-1.05a.65.65 0 0 0-.86-.17l-2.36-3.18c.25-.22.29-.6.09-.86-.3-.42-1-.36-1.2.29M9.42 32.37c.41.67 1.18.55 1.45.04l4.45 1.8c-.17.56.3 1.18 1.06.98.71-.41.56-1.25-.01-1.48a.79.79 0 0 0-1 .36l-4.44-1.8a.79.79 0 0 0-.46-.95c-.57-.24-1.26.26-1.05 1.05m7.8-8.25c.2.58.8.63 1.1.28l3.1 2.16c-.23.4.03.96.64.93.62-.2.65-.86.25-1.14a.62.62 0 0 0-.83.11l-3.1-2.16a.62.62 0 0 0-.18-.8c-.4-.29-1.01-.03-.98.62"/><path d="M20.43 32.38c-.68-.5-1.4-.08-1.46.55h-5.18c-.06-.63-.78-1.06-1.46-.55-.54.7-.05 1.48.62 1.48.44 0 .8-.34.84-.77h5.18c.04.43.4.77.84.77.67 0 1.16-.78.62-1.48M9.63 55.24c.16.36.55.36.73.12l2.08 1.22c-.13.27.06.61.45.57.39-.16.37-.58.1-.74a.4.4 0 0 0-.52.1L10.4 55.3a.4.4 0 0 0-.15-.51c-.27-.16-.65.04-.6.45M7.8 100.06c.51.46 1.13.16 1.22-.34l4.16.37c0 .5.56.9 1.14.54.49-.52.15-1.18-.4-1.23a.69.69 0 0 0-.72.56l-4.17-.37a.69.69 0 0 0-.62-.68c-.54-.04-.99.55-.6 1.15m6.72-8.61c.08-.43-.29-.67-.6-.55l-1.17-2.4c.27-.17.3-.6-.08-.8-.45-.1-.7.31-.54.62.1.2.33.3.54.22l1.18 2.4a.44.44 0 0 0-.16.56c.15.31.62.36.83-.05m-11.08.1c.4.01.58-.35.43-.61l2.05-1.4c.19.24.6.21.72-.17.03-.42-.37-.6-.64-.42a.4.4 0 0 0-.12.53l-2.05 1.4a.4.4 0 0 0-.54-.08c-.26.18-.25.61.15.75m8.47.35c-.24.33-.04.67.26.7l.02 2.47c-.3.03-.5.38-.26.7.34.25.7.02.7-.3a.4.4 0 0 0-.37-.4l-.01-2.47a.4.4 0 0 0 .36-.4c0-.33-.37-.56-.7-.3m1.8-29.59c.38-.09.45-.47.25-.68l1.54-1.82c.24.16.61.04.63-.35-.08-.4-.5-.46-.7-.23a.4.4 0 0 0 .02.53l-1.55 1.82a.4.4 0 0 0-.52.07c-.2.24-.08.64.33.66M12.07 89.9c-.25-.36-.66-.27-.8.02l-2.5-.82c.08-.31-.2-.64-.61-.5-.37.25-.26.7.06.81.21.07.44-.03.53-.23l2.5.82c-.05.22.07.44.28.51.33.1.69-.19.54-.61M3.42 63.6c-.37.48-.06 1 .39 1.05v3.7c-.45.05-.76.57-.4 1.06.5.38 1.07.03 1.07-.45a.6.6 0 0 0-.56-.6v-3.71a.6.6 0 0 0 .56-.6c0-.49-.56-.84-1.06-.45m12.55-1.57c-.48.65-.06 1.34.54 1.4l.06 4.93c-.6.07-1 .77-.5 1.4.67.52 1.4.04 1.4-.6a.81.81 0 0 0-.75-.8l-.06-4.94c.41-.04.73-.4.73-.81-.01-.64-.76-1.1-1.42-.58"/><path d="M10.17 64.32c.82-.1 1.04-.9.66-1.38l3.64-3.49c.46.4 1.26.21 1.4-.6-.1-.86-.97-1.07-1.44-.62a.83.83 0 0 0-.07 1.11l-3.64 3.5a.83.83 0 0 0-1.1.02c-.48.45-.3 1.33.55 1.46"/><path d="M13.8 63.26c-.4-.13-.69.2-.61.5l-2.52.86c-.13-.3-.56-.39-.8-.03-.15.43.21.73.54.62.22-.07.33-.3.28-.51l2.52-.85c.1.2.32.3.54.23.32-.1.44-.56.06-.82"/><path d="M16.67 65.02c-.11-.38-.5-.42-.7-.2L14 63.38c.15-.25 0-.62-.4-.61-.4.11-.43.54-.18.73.17.12.4.1.54-.06l1.95 1.44a.4.4 0 0 0 .1.53c.26.19.66.03.65-.39m-4.55 39.86c-.27-.36-.7-.26-.83.05l-2.63-.8c.07-.33-.24-.66-.66-.51-.38.27-.26.74.08.85.23.07.47-.05.55-.26l2.64.8c-.05.23.08.46.3.53.34.1.71-.22.55-.66m.58-36.07c.38-.44.13-.95-.3-1.02l.27-3.5c.42-.02.75-.49.44-.97-.45-.4-1-.11-1.03.34-.02.3.19.56.48.61l-.26 3.5a.6.6 0 0 0-.57.54c-.03.45.47.83.97.5"/><path d="M14.6 64.76c-.4.68.06 1.3.64 1.3l.5 4.77c-.57.11-.9.82-.36 1.4.7.43 1.37-.1 1.3-.71a.79.79 0 0 0-.79-.7l-.5-4.78c.4-.08.67-.44.63-.85-.06-.62-.83-1-1.42-.43m-7.71 37.77c.54.06.8-.4.63-.77l2.88-1.67c.23.32.77.33.99-.17.07-.57-.45-.84-.83-.62a.54.54 0 0 0-.22.7l-2.87 1.67a.54.54 0 0 0-.71-.16c-.38.22-.4.8.13 1.02"/><path d="M16.2 72.37c.02-.68-.6-.95-1.03-.7l-2.4-3.39c.38-.32.33-1-.32-1.2-.7-.03-.99.65-.68 1.09.2.28.6.36.9.19l2.4 3.38a.68.68 0 0 0-.12.9c.32.45 1.05.4 1.26-.27m1.98 5.38c-.07-.55-.6-.7-.92-.44l-2.32-2.44c.26-.3.14-.84-.4-.93-.58.06-.72.64-.42.95.2.21.52.23.74.05l2.33 2.44a.55.55 0 0 0 .01.74c.3.32.89.2.98-.37M9.26 96.1c.5.37 1.04.05 1.08-.4h3.84c.04.45.58.77 1.08.4.4-.53.04-1.1-.46-1.1-.33 0-.6.25-.62.57h-3.84a.63.63 0 0 0-.62-.57c-.5 0-.86.57-.46 1.1m9.03-32c-.1-.42-.53-.48-.75-.26L15.5 62.2c.18-.26.03-.66-.4-.68-.44.1-.5.57-.23.78.18.15.43.13.58-.03l2.05 1.65a.43.43 0 0 0 .09.57c.26.22.7.06.71-.39"/><path d="M10.57 93.17c-.54.3-.46.92-.06 1.14L9 97.81c-.44-.14-.94.23-.8.83.32.57.99.47 1.18.01.13-.3 0-.64-.27-.79l1.5-3.5c.3.1.64-.05.76-.34.2-.46-.18-1.01-.81-.85M3.4 79.5c.44-.71-.05-1.39-.67-1.4l-.44-5.09c.6-.11.97-.86.4-1.48-.73-.47-1.45.07-1.4.73.05.44.41.76.84.77l.44 5.09a.84.84 0 0 0-.68.9c.06.65.86 1.07 1.5.48m5.7-7.02c.6.5 1.29.13 1.37-.44l4.75.23c.03.57.68 1 1.32.56.53-.62.11-1.35-.5-1.38a.78.78 0 0 0-.81.67l-4.75-.23a.78.78 0 0 0-.74-.74c-.62-.03-1.1.66-.64 1.33m-4.68-8.7c.3-.29.17-.68-.13-.76l.45-2.5c.3.03.58-.28.4-.65-.3-.32-.71-.16-.77.17-.04.21.1.41.3.47l-.46 2.5a.42.42 0 0 0-.44.33c-.06.33.27.63.65.43m6.02 7.21c.47-.38.31-.96-.11-1.12l.96-3.6c.44.08.87-.34.65-.9-.39-.51-1.02-.32-1.14.15a.6.6 0 0 0 .38.73l-.96 3.6a.61.61 0 0 0-.7.44c-.12.46.33.95.92.7"/><path d="M11.38 93.56c.53-.02.71-.51.5-.84l2.52-2.03c.27.28.8.2.92-.3 0-.56-.55-.74-.88-.48a.53.53 0 0 0-.1.7l-2.53 2.03a.53.53 0 0 0-.7-.04c-.33.26-.27.83.27.96m-1.69 8.21c.28-.68-.25-1.2-.78-1.1l-1.16-4.35c.51-.19.7-.9.13-1.35-.7-.3-1.25.29-1.1.85.1.37.46.6.83.54l1.16 4.34a.74.74 0 0 0-.46.88c.15.56.91.8 1.38.2m-7.92-37c.4.14.7-.17.65-.49l2.56-.74c.12.3.54.41.8.06.17-.42-.19-.74-.52-.64a.44.44 0 0 0-.3.5l-2.57.74a.44.44 0 0 0-.52-.26c-.33.1-.47.55-.1.82m1.94 38.04c.27.62.93.6 1.22.2l3.56 2.02c-.2.45.13 1.03.8.95.64-.28.6-1 .15-1.26a.67.67 0 0 0-.88.2l-3.57-2.02a.67.67 0 0 0-.28-.86c-.46-.26-1.1.08-1 .77m12.16-27.88c-.33.52.02 1.02.48 1.03l.28 3.76c-.44.07-.72.62-.31 1.09.54.35 1.07-.05 1.04-.53a.62.62 0 0 0-.6-.57l-.3-3.76a.62.62 0 0 0 .52-.65c-.04-.49-.63-.8-1.1-.37m1.74-15.5c-.2-.35-.6-.3-.74-.04l-2.25-1c.09-.28-.14-.61-.54-.52-.37.2-.3.63-.01.76.2.09.41.01.52-.17l2.25 1a.4.4 0 0 0 .22.5c.3.12.65-.12.55-.53M1.55 87.05c.65-.22.7-.9.3-1.23l2.38-3.47c.45.24 1.07-.05 1.04-.74-.23-.68-.97-.7-1.28-.26-.2.3-.14.7.13.92l-2.37 3.48a.69.69 0 0 0-.9.2c-.32.46-.02 1.14.7 1.1m18.37-22.84c-.4-.3-.82-.05-.86.32h-3.04c-.03-.37-.46-.62-.86-.32-.32.41-.03.87.37.87a.5.5 0 0 0 .5-.45h3.03a.5.5 0 0 0 .5.45c.4 0 .68-.46.36-.87m-1.8 1.44c-.48-.36-.99-.06-1.03.38h-3.6c-.05-.44-.55-.74-1.02-.38-.38.49-.04 1.03.43 1.03a.6.6 0 0 0 .59-.54h3.6c.03.3.28.54.6.54.46 0 .8-.54.42-1.03m-2.64 17.4c-.66-.16-1.07.38-.92.86l-3.86 1.6c-.24-.45-.91-.54-1.26.04-.18.7.42 1.12.92.91.33-.13.5-.5.39-.83l3.86-1.6a.7.7 0 0 0 .87.32c.5-.2.62-.94 0-1.3m-1.71-11.84c.37.28.78.05.8-.3h2.89c.03.35.43.58.8.3.3-.39.04-.82-.34-.82a.47.47 0 0 0-.46.43h-2.88a.47.47 0 0 0-.47-.43c-.37 0-.64.43-.34.82M6.14 88.9c-.18.8.5 1.27 1.07 1.08l2.07 4.6c-.53.3-.62 1.12.1 1.52.85.2 1.34-.55 1.07-1.15a.83.83 0 0 0-1.02-.44l-2.08-4.6a.83.83 0 0 0 .35-1.06c-.27-.6-1.15-.72-1.56.05"/><path d="M15.4 89.94c.15-.52-.27-.86-.66-.75l-1.19-3.1c.36-.19.46-.72 0-1.01-.55-.16-.9.3-.75.71.1.27.39.4.66.33l1.18 3.1a.55.55 0 0 0-.27.69c.16.4.74.52 1.03.03m-1.69-12.83c-.46.63-.07 1.3.5 1.35v4.78c-.57.05-.96.72-.5 1.35.65.5 1.37.04 1.37-.58 0-.4-.32-.74-.71-.77v-4.78c.4-.04.7-.37.7-.78 0-.61-.7-1.07-1.36-.57m-10.8-6.9c-.22.34 0 .68.29.7l.07 2.47c-.3.03-.5.38-.24.7.34.25.7 0 .7-.31a.4.4 0 0 0-.38-.4l-.07-2.47a.4.4 0 0 0 .35-.4c0-.33-.38-.55-.71-.29m12.31-10.24c.01-.42-.37-.58-.63-.43l-1.48-2.06c.23-.2.2-.61-.2-.74-.44-.01-.6.4-.41.67.12.18.36.22.54.12l1.48 2.06a.42.42 0 0 0-.06.55c.19.27.64.24.76-.17M3.2 74.9c-.43.57-.07 1.17.45 1.22v4.32c-.52.05-.88.66-.45 1.23.59.45 1.23.04 1.23-.52a.7.7 0 0 0-.64-.7v-4.33a.7.7 0 0 0 .64-.7c0-.56-.64-.97-1.23-.52M1.73 86.04c.12.46.6.53.84.27l2.28 1.82c-.19.3-.02.74.46.75.48-.12.54-.63.24-.87a.48.48 0 0 0-.64.05l-2.28-1.82a.48.48 0 0 0-.1-.63c-.3-.24-.79-.07-.8.43m9.11 8.6c.64-.5.43-1.28-.13-1.5l1.3-4.75c.6.1 1.17-.46.87-1.21-.5-.68-1.34-.42-1.51.2a.8.8 0 0 0 .5.97l-1.3 4.76a.8.8 0 0 0-.93.58c-.17.62.42 1.26 1.2.94"/><path d="M12.66 84.56c-.67.19-.75.87-.38 1.23l-2.61 3.35c-.44-.27-1.08-.02-1.1.68.19.7.94.77 1.28.34a.7.7 0 0 0-.08-.94l2.61-3.35c.3.19.7.13.93-.16.34-.44.08-1.14-.65-1.15M7.2 73c.8.2 1.3-.44 1.12-1.02l4.65-1.87c.28.54 1.09.67 1.51-.04.24-.82-.48-1.34-1.09-1.1-.4.16-.6.6-.48 1l-4.65 1.86a.82.82 0 0 0-1.03-.38c-.6.24-.77 1.11-.03 1.55m-2.23-4.3c-.33-.27-.7-.07-.74.24l-2.57-.12c-.01-.31-.36-.54-.7-.3-.3.33-.07.73.26.74.22.01.4-.15.44-.36l2.56.12c.02.21.19.39.4.4.34.01.6-.36.35-.72m14.85 1.95c-.25-.38-.7-.3-.85.02l-2.65-.95c.08-.33-.2-.69-.65-.55-.4.26-.3.75.05.87.22.08.47-.03.57-.24l2.65.95c-.06.23.07.47.3.55.34.12.73-.19.58-.65m-8.66-3.03c.25.36.68.27.8-.03l2.56.82c-.07.32.22.65.63.5.38-.26.26-.72-.07-.82a.44.44 0 0 0-.54.24L12 67.52a.44.44 0 0 0-.29-.52c-.33-.1-.7.2-.54.63M6.09 85.26c.22-.58-.24-1-.7-.92l-1.1-3.67c.44-.17.59-.78.08-1.15-.6-.24-1.05.28-.91.75.1.31.4.5.72.44l1.1 3.67a.63.63 0 0 0-.37.76c.14.47.8.66 1.18.12m.92 13.12c.46-.2.44-.7.13-.92l1.47-2.71c.35.15.78-.11.7-.61-.2-.48-.75-.45-.95-.1a.5.5 0 0 0 .17.66l-1.47 2.72a.5.5 0 0 0-.64.22c-.2.35.07.83.6.74m-2.77-1.46c.24-.39-.02-.76-.36-.77l-.23-2.82c.34-.06.54-.47.23-.82-.4-.26-.8.04-.77.4.02.24.22.43.45.43l.23 2.82a.46.46 0 0 0-.38.49c.03.36.47.6.83.27"/><path d="M6.32 84.82c.53.07.8-.4.63-.76l2.85-1.62c.23.32.76.33.97-.16.08-.56-.43-.83-.8-.62a.54.54 0 0 0-.22.69L6.9 83.98a.54.54 0 0 0-.7-.16c-.37.2-.4.79.12 1m.68-2.4c-.15-.6-.76-.7-1.08-.37L3 79.63c.26-.38.05-.96-.57-1-.63.15-.72.82-.34 1.13.25.2.61.18.84-.04l2.91 2.42a.62.62 0 0 0 .12.83c.37.31 1.01.1 1.04-.55m4.85-1.47c.44-.57.07-1.19-.46-1.24v-4.4c.53-.06.9-.68.46-1.25-.6-.46-1.25-.05-1.25.52 0 .38.28.69.65.72v4.4a.72.72 0 0 0-.65.73c0 .57.66.98 1.25.52"/><path d="M11.58 75.02c.53.41 1.11.08 1.16-.42l4.11.03c.05.5.62.85 1.16.45.44-.56.05-1.18-.48-1.18a.67.67 0 0 0-.67.6l-4.12-.03a.67.67 0 0 0-.66-.62c-.53 0-.93.61-.5 1.17m1.32 1.19c-.29.38-.04.8.31.83v2.93c-.35.03-.6.44-.3.83.39.3.83.03.83-.35 0-.25-.2-.46-.44-.48v-2.93a.48.48 0 0 0 .44-.48c0-.38-.44-.66-.84-.35m-.94 1.85c-.4-.23-.78.05-.77.4l-2.83.32c-.07-.34-.49-.53-.83-.2-.25.41.07.8.43.76a.47.47 0 0 0 .42-.47l2.82-.33c.05.23.27.4.51.37.37-.04.58-.5.25-.85m6.56-14.31c-.77.35-.73 1.2-.22 1.54l-2.44 4.55c-.58-.24-1.3.19-1.18 1.03.37.8 1.28.74 1.6.15a.85.85 0 0 0-.28-1.1l2.45-4.55c.4.17.86.01 1.07-.38.32-.59-.13-1.38-1-1.24m-1.35 19.03c-.61-.08-.92.45-.73.87l-3.3 1.85c-.25-.38-.87-.4-1.12.17-.09.64.5.96.92.72a.6.6 0 0 0 .26-.79l3.3-1.84a.6.6 0 0 0 .8.18c.43-.24.46-.9-.13-1.16"/><path d="M15.69 83c-.38-.54-1.03-.4-1.22.04l-3.85-1.28c.1-.48-.33-.98-.96-.77-.57.39-.4 1.09.1 1.25.33.11.68-.05.81-.36l3.85 1.28c-.07.34.11.68.44.79.5.16 1.06-.3.83-.95M9.2 89.5c.3-.4.04-.82-.32-.86V85.6c.36-.03.62-.46.32-.86-.42-.32-.87-.03-.87.37 0 .26.2.47.45.5v3.04a.5.5 0 0 0-.45.5c0 .4.45.68.87.37"/><path d="M8.4 81.83c.6.25 1.06-.2 1-.67l3.81-.92c.16.45.77.64 1.18.14.28-.61-.22-1.1-.72-.98a.64.64 0 0 0-.48.72l-3.83.92a.64.64 0 0 0-.76-.41c-.5.12-.72.78-.2 1.2"/><path d="M11.36 82.51c.48.05.7-.37.55-.7l2.48-1.52c.22.28.7.28.87-.17.05-.5-.41-.72-.74-.53a.48.48 0 0 0-.17.62l-2.5 1.53a.48.48 0 0 0-.62-.12c-.33.2-.33.71.13.9m-.08 13.17c-.27.35-.05.74.28.77l-.04 2.72c-.33.03-.56.4-.3.76.37.3.78.04.79-.31a.45.45 0 0 0-.4-.45l.03-2.72c.23-.02.41-.2.41-.43 0-.36-.4-.62-.77-.34M6.87 74.05c.28.57.92.52 1.17.12l3.48 1.75c-.17.44.18.97.8.86.6-.29.54-.98.09-1.2a.64.64 0 0 0-.83.23l-3.49-1.75a.64.64 0 0 0-.3-.8c-.46-.22-1.05.13-.92.79"/><path d="M13.1 81.23c.24.5.79.46 1.01.12l3.02 1.56c-.15.38.15.85.7.75.52-.24.47-.84.08-1.05a.56.56 0 0 0-.73.2l-3.02-1.56c.1-.26 0-.57-.26-.7-.4-.2-.91.1-.8.68m5.48-6.99c-.34-.25-.7-.04-.73.28h-2.6c-.02-.32-.38-.53-.72-.28-.27.36-.03.74.3.74.23 0 .4-.17.43-.38h2.6c.01.21.2.38.41.38.34 0 .58-.38.31-.74M5.01 78.52c-.46-.06-.69.33-.55.65l-2.47 1.35c-.19-.28-.64-.3-.83.12-.08.48.36.72.68.54.2-.11.29-.37.2-.58l2.46-1.36c.13.2.4.27.6.15.32-.18.35-.67-.09-.87m10.25-17.5c-.47.05-.6.5-.4.77l-2.09 1.94c-.26-.23-.71-.13-.8.32.05.5.53.62.8.37.19-.16.2-.43.06-.62l2.1-1.94c.18.16.45.16.63 0 .27-.25.18-.75-.3-.83M10.28 94c.37-.14.39-.53.16-.71l1.35-2.02c.26.14.61-.03.6-.43-.14-.39-.57-.4-.74-.14a.4.4 0 0 0 .08.53l-1.35 2.01a.4.4 0 0 0-.52.13c-.17.26 0 .65.42.63"/><path d="M2.23 75.09c-.31.38-.08.82.28.87l-.12 3.03c-.37.02-.64.43-.35.84.4.33.86.07.88-.33a.5.5 0 0 0-.43-.5l.12-3.04a.5.5 0 0 0 .47-.48c.02-.39-.43-.7-.85-.4m1.7 12.8c.3-.39.05-.8-.3-.84v-2.96c.35-.04.6-.45.3-.84-.4-.3-.84-.03-.84.36 0 .25.2.46.44.48v2.96a.49.49 0 0 0-.44.49c0 .38.45.66.85.35m1.9-17.57c-.22-.33-.6-.26-.73 0l-2.22-.83c.07-.28-.17-.58-.55-.47-.34.22-.26.63.03.74.2.07.4-.02.49-.2l2.23.83c-.05.2.05.4.24.47.28.1.62-.15.5-.54m8.96-12.68c.32.24.66.04.68-.25h2.42c.03.29.37.5.68.25.25-.32.03-.69-.29-.69a.4.4 0 0 0-.4.36h-2.4a.4.4 0 0 0-.4-.36c-.31 0-.54.37-.29.7m-.88 16.5c.48 0 .67-.44.49-.75l2.4-1.76c.24.27.73.22.87-.24.01-.51-.48-.7-.8-.48a.49.49 0 0 0-.12.64l-2.4 1.76a.49.49 0 0 0-.66-.07c-.31.23-.27.75.22.9m-1.75 1.25c.1.48.59.57.85.32l2.28 1.98c-.21.3-.06.77.43.8.51-.1.6-.63.3-.88a.5.5 0 0 0-.67.01l-2.27-1.98a.5.5 0 0 0-.08-.66c-.3-.26-.8-.1-.84.41m6.06 3.55c-.39-.29-.8-.04-.83.31h-2.94c-.03-.35-.45-.6-.83-.31-.3.4-.03.84.35.84.25 0 .46-.2.48-.44h2.94c.02.25.23.44.48.44.38 0 .66-.44.35-.84m-13.77 1.5c.41 0 .57-.39.4-.65l2.04-1.53c.2.23.61.18.73-.22 0-.43-.42-.6-.68-.4a.42.42 0 0 0-.1.56L4.8 79.73a.42.42 0 0 0-.56-.06c-.26.2-.22.65.2.77"/></g></svg>