<svg xmlns="http://www.w3.org/2000/svg" xml:space="preserve" viewBox="0 0 20.130394 28.27598"><g fill="#231f20"><path d="M10.40958679 6.3446389c.15698522-.50870642-.25011855-.84631475-.63182497-.75035832L8.68591377 2.5321704c.35630642-.16686476.45755452-.68615453.0141023-.98072309-.52952119-.17074356-.88476663.282575-.74330451.6790981.09313333.26140833.36935831.40251856.63323784.33584356l1.09219995 3.06211019c-.24659166.11571287-.37112309.3993462-.27763786.66110643.14146476.3965231.70308783.52246476 1.00506472.05503333"/><path d="M11.0389432 2.39211585c-.79339807.04339167-1.05586472.78775454-.72389997 1.27211665L6.59358888 6.77467413c-.41804165-.41275-1.19697494-.28610189-1.3804185.48648143.0345731.82938143.85231019 1.09290643 1.33420637.69003333.31820378-.26564167.37288521-.72495833.14357879-1.0600981l3.72145435-3.11044162c.28892499.2853981.7507102.31291477 1.06856207.0472731.48189619-.4028731.36794809-1.25447688-.44202877-1.43580642m-6.83789132.82902954c-.5312833.17321212-.57467497.72672044-.26140832.99589165L1.97361221 7.0050389c-.35877498-.20461023-.86501018.02256896-.84984162.581025.17391855.55738976.77752307.58808142 1.03187495.22718976.1679231-.23847954.12206022-.56021287-.09454356-.74647953l1.9656768-2.78835376c.24835642.14146213.56691474.0765519.73483519-.1615731.25470642-.36124356.02293937-.91898522-.5605621-.89570188"/><path d="M3.56887236 2.50888706c.01516063.39475833.38311665.53128333.6265333.37041666l1.5162397 1.8750121c-.20849166.20425834-.1520481.59266666.23071665.68968143.41239809-.01023937.54998141-.41486666.35383522-.65757688-.12982046-.16016288-.35771665-.19120644-.52599164-.07972955l-1.51623705-1.8750121c.14428522-.14146477.16157045-.3707712.0321019-.53093143-.1964981-.24271022-.6205352-.19296856-.71719808.20813977"/><path d="M.8955225 6.53337414c.7217833-.23106856.7849314-.98142689.36159808-1.34866855l2.68640176-3.76837306c.48542308.28045833 1.17404615-.0239977 1.15711282-.78175378C4.86886017-.122836 4.05041401-.16869624 3.7025769.31919542c-.22965832.32208523-.16968787.75917689.12311855 1.01317688L1.1392937 5.10074536c-.33549165-.19402954-.76834996-.10795-.99800828.21378333-.34783975.48824356-.0373962 1.24671665.75423709 1.21884545M17.5554531 17.96901755c-.19896666-.48471666-.71931474-.48647878-.94897306-.17497689l-2.74355176-1.64253331c.16615833-.3496019-.08149166-.80715378-.60254353-.75388522-.5090583.20143522-.49565452.76764355-.14005454.98036855.2342462.14040643.53198975.07514166.69109164-.1404038l2.7439063 1.64253067c-.11500644.24165454-.0321019.53516477.20249355.6755712.35524808.212725.86042495-.04303977.7976314-.5866712m1.89723702 2.61584807c-.5408083-.08643143-.82620375.37676667-.67309996.75176856l-2.96192031 1.55328142c-.22154355-.33901856-.76482307-.36724167-1.00118328.1266481-.09771856.56409166.41521854.86077688.79868973.65969355.25294165-.13264356.3570102-.43426855.25117688-.69356022l2.96156841-1.55328142c.15345833.23424356.46037498.3203231.71331663.1876769.38382309-.20143523.43109355-.79163333-.0885481-1.03222689m-5.77391182-7.2012518c-.65263975-.01164167-.9122833.58243522-.66921854.99906665l-3.23532483 2.32656854c-.31785453-.36300833-.96378973-.30585833-1.16028782.31644166-.02116667.68191855.63323784.94650188 1.05233782.64487689.27622499-.19861213.34854355-.5715.18062045-.85971855l3.23532484-2.32656854c.21978142.250825.59654807.30091856.87312495.10230644.41874809-.3012731.37641475-1.0057712-.27657688-1.20297309"/><path d="M13.25473854 8.59007032c-.36759354.65440189.09278143 1.24107044.64734807 1.22202044l.59407687 4.54448328c-.5408083.12417954-.83467042.80962499-.31114999 1.34761285.67874618.39264167 1.30316281-.12594166 1.22625638-.71472953-.0508-.38805378-.38911475-.66463332-.7725833-.65157878l-.59407686-4.54448328c.37394354-.085725.6297083-.43991476.5789083-.8283231-.07690643-.58843332-.8135064-.92886475-1.36877947-.37500188m5.95418303 14.60041194c-.32914165.3076231-.17250832.7267231.14816666.81632688l-.48542308 2.7061583c-.3319621-.02716212-.62441399.31115-.42297877.7136712.31679355.34783712.76799542.16474546.83114352-.18556287.041275-.23142046-.10195189-.45085-.32349808-.51293712l.48542308-2.7061583c.22930642.01905.44026664-.13723143.48154164-.3683.0631481-.35030832-.29633332-.67909809-.71437497-.4631981M5.03889729 12.1252555c.12876476.8473731.95497116 1.05233522 1.44109803.64593522l3.72533315 3.67488783c-.39969809.49177045-.18344356 1.31515378.66533973 1.43227688.88723519-.1231212 1.0854954-1.02869999.60289543-1.50459809-.31820377-.31397045-.8170333-.32526022-1.15322873-.04409545l-3.72533315-3.67523973c.27657688-.339725.25823332-.83855188-.0599731-1.15252498-.48259997-.4758981-1.38500637-.26528977-1.49613136.62335832m2.00060444-3.38560829c.20778522.34043143.59936853.2790481.7348352.01693333l2.26165821.9045231c-.0829019.28327879.15875.59760378.5439833.49424166.3584231-.212725.28010643-.63711666-.0127-.75423976-.19332309-.07725834-.40957497.0081227-.5030602.18908977l-2.26165822-.9045231c.05715-.19543977-.0405712-.4064-.23389165-.48365832-.29280642-.1171231-.6420564.1361731-.52916664.53763332"/><path d="M11.2820053 15.48581569c-.67839163-.19614356-1.1168935.35136666-.9807204.85513332L6.266212 17.86036376c-.23001022-.46848976-.92074996-.59090453-1.3010435.00388938-.21413786.70626286.39475831 1.16698975.91757495.97013976.34466211-.1298231.5252852-.49918143.43109355-.8473731l4.0350729-1.519764c.15910188.3242019.5383371.48259735.88300185.35312879.52281664-.19685.67662686-.94509166.05009356-1.33455832M8.161335 6.79337224c.26246666.33760833.67239353.225425.78457686-.0702019l2.51848131.69215c-.05432954.31150188.24059355.61736021.63887876.46107878.35630642-.269875.2218981-.71225833-.10442045-.80186212-.2151962-.05926666-.43497498.0575019-.51293975.26176023l-2.51812676-.6917981c.03739356-.21554545-.092075-.42827045-.3072712-.48718522-.32596665-.08960644-.6678083.2218981-.49917876.63605833"/><path d="M10.56586822 16.03262212c-.5535083-.47131022-1.19697494-.142875-1.28234804.38805643l-4.43088955-.28151666c-.01727729-.53728143-.6138333-.94438786-1.22272683-.54680643-.4998852.57220643-.12311856 1.26259165.45084997 1.29892688.37853142.0239977.70449807-.24623977.7630583-.61312689l4.43124144.28116477c.01164167.37147235.30091855.68086022.67944997.70484734.57396853.03633788 1.03469805-.60042689.61136474-1.23154544m5.83035804 3.41629996c.4554352.04233333.6678083-.35948144.51999353-.6632231l2.38266011-1.45767688c.2032.2705788.6579314.2642288.82761663-.16051477.05009356-.47554355-.39334809-.69461855-.70202686-.50553143-.20355453.12417954-.27340453.38135454-.1710981.59160833l-2.383012 1.45732498c-.14040643-.18697045-.40110832-.2416519-.60466285-.11712046-.30867877.18873523-.31573521.68332879.13052954.85513333"/><path d="M9.03340163 16.09718045c-.03210454.40181477.32420188.5845519.59054997.4504981l1.31197872 2.08350377c-.23600832.18203333-.22542498.58278976.15098977.72742688.41945187.03880644.6074833-.35454166.43779808-.62441666-.11218333-.17815189-.33937309-.23671212-.52352308-.14393333l-1.31198137-2.08350376c.16333787-.12594167.20849166-.35630644.09630833-.53445833-.17003712-.269875-.60607043-.2702269-.75212042.12488333"/><path d="M9.92487015 17.96372589c-.56444354.1580462-.63464808.7362481-.31820642 1.03222953l-2.18404535 2.8363333c-.36688976-.23036477-.90804996-.01481667-.91651662.57114544.15769166.59231477.78881019.65122954 1.07173707.28363333.1866212-.24200378.15275453-.58172878-.06632046-.78634165l2.18404535-2.8363333c.2536481.15910454.59090451.10512954.77752307-.13722879.28257498-.36724166.06455833-.96237953-.54821664-.96343786m.19049999 2.52941663c.30479998.57820454.95108972.51928977 1.1994435.104775l3.60256648 1.71485452c-.16509999.454025.19685.99306855.83749617.86501022.6081871-.31044356.52457877-1.01211855.05785379-1.23436855-.30762044-.14640454-.66992497-.02998787-.84172685.25682046l-3.60256649-1.71520377c.1143-.3139731-.02362729-.66851477-.33125832-.81491666-.46672497-.22225-1.06397684.15522046-.92180828.82302878m-7.59389318-7.4016287c.36265377.27093333.74965186.041275.78175375-.2917481h2.76436653c.03175.3330231.41874808.56268143.7814045.2917481.28786665-.37535643.02645833-.78951665-.33161286-.78951665-.23600832 0-.42791854.1806231-.44979164.41133976H3.3032307c-.022225-.23071666-.21413522-.41133976-.45014354-.41133976-.35806854 0-.61947686.41416022-.33161021.78951665m4.67324523 2.93581663c-.17427045-.37288522-.5824352-.3552481-.75141663-.1019519l-2.21403322-1.18780452c.11782954-.28045833-.09348523-.63041212-.50059164-.56902878-.39158332.17674166-.36018521.62053522-.07372879.77434545.18944166.1016.4205102.03915833.53727876-.13581856l2.21403323 1.18744998c-.08113712.1940269-.00529167.42121666.1837981.52281666.28680831.15381023.6738064-.06561667.60466019-.49000833m11.9760994 2.88254543c.06279356-.6988519-.55456664-1.02305378-1.02023329-.79445379l-2.24754534-3.64913328c.41380831-.31291477.40216665-1.01000189-.2504731-1.26858976-.72954352-.07478712-1.06362494.60677954-.77258329 1.0791481.19191022.31185643.58666854.41804165.9087564.2599981l2.24754534 3.64913063c-.28610188.21625454-.36900377.61665643-.17674166.92851287.29104165.47236855 1.04986662.48083522 1.31127494-.20461287"/><path d="M6.15120557 16.23864522c-.25435189.4670769.07725833.87806212.46989997.85936401l.46319808 3.21239617c-.38170642.09277879-.58349353.581025-.20778522.95708522.48471665.27163976.9218083-.1016.86183519-.517525-.03951023-.27446022-.28186855-.46707689-.55315641-.454025l-.46354998-3.21239351c.26387953-.06455834.44167952-.3175.40216665-.59196023-.05997046-.41627953-.58490376-.6505231-.97260828-.25294166m3.03600628 8.35659725c.63041474-.11041856.7690564-.73095378.45755187-1.08690832l2.67934797-2.84409353c.37394355.28998333.98495639.1146519 1.05762684-.52105189-.10724355-.66039999-.78634162-.79269165-1.13347494-.42439166-.22895188.24306213-.22859999.61559545-.01304396.86148333l-2.67969986 2.84444542c-.25823332-.2007288-.63041474-.1785038-.85936662.06420643-.34678142.3686519-.1742731 1.03857689.49106664 1.10631022m-5.36223077-7.99606013c-.13335.523875.29633331.84560832.67839163.72883976l1.26188781 3.0490583c-.35277952.187325-.42933142.71860832.0352769.99483332.54539353.1464019.88264995-.33090643.71931473-.72566476-.10795-.26035-.39475831-.38946666-.65898974-.30868144l-1.26188516-3.0490583c.24412044-.12946855.35595187-.42368521.24800188-.68403521-.16333522-.39511023-.73942307-.49424166-1.02199805-.00529167m9.69644951 2.7756564c-.23847689.70026212.31326665 1.18603711.84737306 1.06785832l1.39347303 4.29753708c-.50200451.21766476-.66357496.93486286-.0596212 1.36207498.72883973.25823333 1.24072114-.35665833 1.06009805-.91334166-.11888522-.36688712-.4967102-.57396855-.86606852-.49247689l-1.39347303-4.29753971c.34713331-.15028334.5312833-.53975.41239808-.90699166-.1806231-.55632878-.9560295-.75423711-1.39417947-.11712046"/><path d="M14.40691159 20.99585085c-.31503142-.58031856-.96766852-.51258522-1.21355638-.09066212l-3.66289148-1.6883962c.1612212-.46107878-.21131212-1.0015352-.85724996-.86395188-.6106583.32138144-.51717043 1.02975832-.04303712 1.24848142.3129121.14428523.6776852.02188105.84772496-.269875l3.66253694 1.68839355c-.1114769.31855833.03245643.67521666.34537119.81950188.4741333.2187231 1.07350184-.17003712.92110185-.84349165"/><path d="M12.72980523 19.34943874c-.4741333-.57291286-1.1803935-.35630643-1.36031016.16333523l-4.41219144-1.06926855c.07796477-.54398332-.45084998-1.06009809-1.13453328-.7676462-.60501474.48753977-.34783975 1.24953976.22366022 1.38818142.37676665.09136857.7528295-.12311856.87735829-.4822481l4.41219144 1.06891666c-.05362045.37641477.18273977.7390712.55950641.83043976.57149998.13864166 1.1486435-.42121666.83431852-1.13171022m4.48980432-7.50816846c-.39123142.14605-.40675452.56056211-.16404166.75176855l-1.38077303 2.1441833c-.27446022-.14181666-.6455833.04374357-.61665641.460375.14746287.41098522.59901664.41486666.77787496.13723144.11782954-.18309167.07337954-.422275-.09419166-.55456666l1.38077303-2.14383141c.18979356.09771856.42580188.03951022.54363141-.14393334.17885833-.27763522-.01164166-.68721022-.44661664-.65122688m.39052498 14.41132217c.29527499-.39511022.04515379-.81667878-.31785453-.85160378v-3.01166473c.36300832-.034925.61312952-.45614167.31785453-.85125189-.40887119-.3139731-.86007306-.02928144-.86007306.36089166 0 .257175.19684999.46637045.44802687.49036023v3.01166473c-.25117688.0239977-.44802687.23318522-.44802687.49036022 0 .3901731.45120187.67486476.86007306.36124356m-5.84164781-1.41851855c-.0208227.43391667.36900642.61841856.65087497.46496023l1.48307682 2.1978064c-.24764999.20425834-.22260189.6346481.18732499.777875.45296664.02751666.6420564-.40251856.44979164-.68721022-.12664545-.18767954-.3732371-.24306477-.56832497-.13723144l-1.48272492-2.1978064c.1710981-.14111024.2120212-.390525.0853731-.5782019-.19226476-.28469166-.6614583-.27022689-.80539163.15980833M-2.9973792-15.29510249c-.53869164-.40251855-1.11301472-.06173522-1.16028517.43285833h-4.10421646c-.047625-.49459355-.62194808-.83537688-1.16028782-.43285833-.42756664.55703523-.03951023 1.17192689.49177308 1.17192689.35066021 0 .6357064-.26846213.66851474-.61065833h4.10421646c.03280833.3421962.31749998.61065833.6681602.61065833.5316352 0 .91969161-.61489166.49212497-1.17192689m8.89705599-12.00961197c-.64134997.04233333-.84702117.64699356-.57397118 1.03575378l-2.98202864 2.55128974c-.3421962-.3298481-.97119806-.22013333-1.11230828.40675189.03562879.67098332.6999102.87629999 1.08584994.5457481.25505832-.21801667.29492045-.5901981.10618523-.85901476l2.98203129-2.5512871c.2367121.22789356.61030376.24588523.86536208.02786857.38593975-.3302.28574998-1.01811666-.37112044-1.15711022m.66674996 24.56603038c.31185378-.63252878-.14922499-1.15957878-.66851473-1.11407045l-.7856352-4.23368782c.50094354-.14357879.74259543-.80115832.22436666-1.27952498-.65652117-.33443333-1.21637948.1834462-1.11442494.73166286.0670269.36195.3982852.60430833.75741208.57255833l.78563784 4.23368518c-.34678142.09913143-.5690314.4445-.50200452.8060981.10195454.54821665.8099795.83079165 1.30316281.28327878"/><path d="M.61400584-23.7233145c.37464999.65475378 1.11830639.56021022 1.38818137.07231856l4.2255729 1.8330333c-.17215644.5305769.26705188 1.13770833 1.00118328.96414166.68897496-.38276476.56409163-1.18886021.01693333-1.42628142-.3612462-.15663333-.77434807-.00740833-.96061472.3298481l-4.2259248-1.8330333c.11923976-.36688977-.0543269-.77046666-.41521854-.9271-.5471583-.23741856-1.2213166.22225-1.03011283.9870731M3.20516026-2.02607122c-.61912497.23036213-.64382118.88617689-.26070453 1.18886022L.75793917 2.55263062c-.43391664-.22436666-1.02129161.06843977-.97578328.72742689.23248142.6501712.94685639.657225 1.23013781.21801666.18661855-.28962878.11676856-.66780832-.14816666-.87700378L3.0506436-.76877123c.29986021.15522046.67345186.06279356.86042495-.22683787.28292689-.43885379-.01799166-1.08690832-.7059083-1.03046212"/><path d="M-2.41670613-17.41776723c.83855186.10795 1.25729994-.62053522 1.00365185-1.19168332l4.4965062-2.53682232c.35771666.51258522 1.19732684.53092878 1.5388166-.24271287.123825-.87488712-.68121474-1.30845188-1.26364994-.97966211-.38417498.21660378-.53022497.68650378-.35454165 1.08161665l-4.4965062 2.53682497c-.24765-.35454167-.7253102-.4723712-1.10948518-.25576477-.58243785.32843522-.62759164 1.24177688.18520832 1.58820377m8.28604315 9.08508776c-.2159-.83184999-1.06150828-.95108976-1.50424349-.4953L.2682854-12.10881274c.34819165-.53163787.04727046-1.33103143-.81174162-1.35960643-.87242117.21448977-.97648972 1.13806022-.44591285 1.56315832.34995642.28010643.84878329.23988977 1.15499615-.07514167l4.09680812 3.2808333c-.2405962.36759355-.1710981.86324809.17885833 1.14370642.53057687.42474355 1.40934538.12135379 1.42804349-.77681666M2.9204686-15.82462104c.40851665-.05432954.51434998-.44979166.32314355-.68721287l1.79916658-1.75894998c.23283332.1964981.63076663.09983788.69426663-.30762045-.05150644-.42756666-.48506854-.53057689-.71790186-.30268333-.15381287.15028333-.16368976.38981856-.0313981.55386022l-1.79916658 1.75930188c-.16121855-.13581856-.40110831-.13158523-.55491854.01870604-.23283332.22789356-.1393481.66357499.28680832.72460643"/><path d="M5.49257037-7.89700068c-.68121474.51646666-.46743141 1.33808786.1202981 1.57056664l-1.4460378 5.01508971c-.62124164-.11606477-1.24001207.46566666-.93803519 1.26541476.53057687.71896022 1.4181666.46143332 1.60549159-.18838333.1234731-.4282731-.10406856-.87100833-.51046854-1.0315231L5.7698537-6.2812776c.42968331.08043333.8579564-.17286023.98142685-.60148522.18732499-.64946476-.42686021-1.34020453-1.25871017-1.01423786"/><path d="M-.59813766-7.33925902c.0758481.67698143.72601663.86536476 1.12465638.55738976l2.84656199 3.03459352c-.33266855.377825-.18626666 1.03893143.48436474 1.15781666.7087314-.0702019.89393973-.78351856.5252852-1.17651211-.2430621-.25929167-.63887875-.28363333-.91475184-.07055644L.62176872-6.87076926c.23001022-.26176022.23106855-.65828332-.01235604-.91757499-.36865188-.39299355-1.09219995-.2536481-1.20755827.44908523"/><path d="M4.06734734-4.19918406c.36159808-.73730379-.17709356-1.35007878-.78175375-1.29539999l-.92639617-4.92795183c.58314164-.1686269.86254163-.93521476.25788143-1.49083975-.76552686-.3877019-1.41604993.21695833-1.29610637.85513332.0790231.42086477.46566664.70238143.88370828.66463333l.92639617 4.92795447c-.40322498.11676857-.6611064.51928712-.5820833.94015189.11994355.638175.9457954.96555188 1.5183537.32631856m-.3129121-15.10664717c.19085188.37359167.60607043.34113523.76905375.0769038l2.29869989 1.12994808c-.10936023.28998333.11853332.63887879.5309314.561975.39299355-.19473333.34466476-.64558333.04691857-.79198787-.19649545-.09666023-.42968332-.02468562-.54221854.1580462L4.55876852-19.3008941c.07584546-.2007288-.00986896-.42932879-.20637499-.52599166-.2977462-.14605-.68403784.0913712-.5979583.52105453m1.32714993 3.81670185c-.43462308.69144355.03421856 1.35325378.63782043 1.36242688l.40216664 4.96958137c-.59407686.10618523-.95038328.835025-.4106333 1.44744544.71684616.4631981 1.42310636-.06702689 1.37089613-.71049355-.0342212-.42474356-.38699808-.74330189-.80468783-.74929999l-.40216665-4.96993327c.41098785-.0733769.70802496-.4445.6738064-.86889166-.05221022-.64381855-.83431852-1.05339355-1.46720182-.48083522m-10.31063736.24024166c.35771665-.37676666.1485212-.84878332-.2271871-.92992309l.3725333-3.15101019c.38417499.00846667.69779353-.40146022.43779544-.85160642-.3891121-.3785288-.89605374-.136525-.94438518.27163976-.03175.26916856.14851856.51188143.40816475.568325l-.37253331 3.15101019c-.26564166-.00600605-.49777119.18838333-.52952118.45755189-.0483288.40816476.38840831.76164809.85513329.48401286"/><path d="M-.37130244-18.07781268c.49565452.37041666 1.02446662.05679546 1.06785828-.39863977h3.77789791c.04339167.45543523.57220641.76905643 1.06785828.39863977.39334809-.51293976.03633523-1.07879355-.45296664-1.07879355-.32279165 0-.5849064.24729546-.61489164.56197235H.69655585c-.02998524-.3146769-.2921-.56197235-.61489164-.56197235-.48930188 0-.84631209.56585379-.45296665 1.07879355M-1.8963607-7.42075069c.28892499.42368787.7877545.3203231.94473973-.02505604l2.96262674 1.01705832c-.08854545.36900379.24165453.75706022.73024997.600075.44661664-.29633334.31891286-.83608333-.06491023-.9676712-.25294165-.08713523-.5252852.03598333-.63358974.27481476L-.91987097-7.53858817c.06103143-.25505833-.07796477-.51928976-.33125832-.6060731-.38346854-.13193712-.81597496.2155481-.6452314.7239"/><path d="M1.4359789-15.00970439c.1933231-.6533462-.33266854-1.07949998-.81950185-.95073786l-1.4432147-3.90101397c.45367309-.219075.57538141-.88476666.00388938-1.25518332-.6801564-.21025643-1.12818328.37465-.94121283.87982689.1234731.333375.47872119.50976476.81527117.42051022l1.44321205 3.90136851c-.31361854.15134167-.4684871.51646666-.34536854.84984166.1869731.50517954.90769806.65757953 1.28693327.05538787m-9.54335102 1.21672879c.52740187-.38593713.37429544-1.01705833-.0723212-1.20191212l1.16910637-3.81670185c.47342687.09701213.95391018-.34007953.73307307-.95532309-.39652309-.55633143-1.07844162-.37076856-1.22978327.1234731-.10018977.32596667.06843712.66745379.37711854.79516022l-1.16910638 3.81670185c-.32737688-.0670269-.65792876.12135644-.75776663.4473231-.15134166.49424166.30973976 1.03046211.9496795.79127878"/><path d="M.6700975-18.82676077c-.02151062-.48012879-.46989997-.64346666-.76517495-.44591023l-1.85843324-2.26977307c.25188332-.25047046.1802712-.72248712-.28610188-.83784545-.50164998.015875-.66604353.50870378-.42544998.80292045.15874999.193675.4363852.22965833.64029163.09313333l1.85878514 2.26977307c-.17427045.17321477-.19402689.45226023-.0352769.64628712.2409481.29386477.7567083.23001287.87136019-.25858522"/><path d="M.3162623-24.9830857c-.43709165.01129771-.59301854.41627954-.41839354.68791666l-2.09585444 1.65241286c-.22330832-.23318788-.65404997-.17603788-.76693709.24623712.00600605.4564962.45155377.61418786.72319353.40040453.17885832-.14111287.21625188-.3929962.0956019-.58102499l2.09585443-1.65205831c.15451666.16121856.4078102.18379545.58702043.04268523.27163975-.21413523.22224998-.68438976-.22048522-.7965731m-2.91323963 12.83370174c-.33125831.78916476.2663481 1.39382498.89217496 1.29998786l1.26364993 5.07012039c-.59619353.21096287-.84031662 1.02552499-.17744544 1.56668786C.2016104-3.85592953.8411956-4.5244443.67750584-5.18131738c-.10795-.43285833-.52704997-.7020269-.95990828-.63746856l-1.26364994-5.07012304c.41239808-.14605.65616663-.58031855.54821664-1.01352878-.16368712-.6568731-1.04245828-.94685642-1.59914159-.2469462m7.89234581-9.08649534c-.37888331-.48824356-.97119805-.327025-1.13418138.09948333L.52475395-22.14146073c.0790231-.45014356-.34642687-.89252689-.92216018-.66780833-.5154083.38911477-.32208786 1.02869999.14887045 1.15887499.31079809.085725.62864997-.08219546.74153974-.37711856L4.129789-21.02244787c-.05467879.31115.13193977.61877045.44238331.70449545.47095831.130175.9655545-.31926212.72319617-.91792689"/><path d="M1.70973533-20.28020432c.03633523-.43285833-.34678142-.6314731-.63429617-.48824355l-1.40370183-2.25037118c.25470642-.19543713.24518143-.62688523-.15945643-.7845769-.45190831-.04374355-.65616663.37923523-.4744852.67063144.11994355.19226212.36441854.25682045.5633852.15769166l1.40370447 2.25072043c-.17638977.13476288-.22613143.38276477-.10618787.57502954.18168143.29139356.6515814.29386212.81103783-.13088144M.94067893 1.44914087C1.36789368.87728897 1.0062956.26733709.48065585.21688899v-4.35962685c.52563975-.0504481.88723783-.66039999.46002308-1.23225452-.5919602-.454025-1.24495183-.0419788-1.24495183.52246476 0 .37253333.28539544.67486477.64840376.70978976V.216889C-.01887746.25146209-.3042729.55414542-.3042729.92667875c0 .56444355.65299163.97648711 1.24495183.52246212M-3.6076856-14.40222106c.55844807-.32138143.47624997-.95638142.05891476-1.18568786l1.55610182-3.61350185c.45367308.14605.97119805-.23071666.82126662-.85724999-.32843521-.58772689-1.01670374-.47907045-1.2184935-.0112977-.1329981.30867878-.0045773.66145832.28433976.81985377l-1.55645636 3.61350185c-.31361855-.10089356-.6579314.04797955-.79092686.35701288-.20143786.46778332.19261666 1.04245832.84525375.87735832m-1.56703704 2.07187268c.3954621.29562954.81703329.04550833.85195829-.3178519h3.01342674c.0345731.36336023.45649354.61348144.8516064.3178519.31397044-.40886856.02927878-.86042499-.3612462-.86042499-.25717498 0-.46637043.19720454-.4903602.44838143h-3.01342674c-.02434167-.25117689-.23318787-.44838143-.49071475-.44838143-.39017309 0-.67521663.45155643-.36124354.86042499m-.64346664-9.67175367c-.4677833.31644166-.35595452.8664231.0236273 1.04034165l-1.13135829 3.25754996c-.40569354-.09877954-.83431852.26317046-.66357496.80151022.32455642.49318333.91933972.35454166 1.06574161-.06738144.09666023-.27834166-.0377481-.57820188-.30021475-.69849999l1.13135827-3.25790185c.28081286.06843977.57220641-.08360833.66886663-.36195.14640454-.42192045-.23424355-.89922878-.79445375-.71366855"/><path d="M3.72374356-12.00403776c-.35136665-.6088962-1.04422305-.51858332-1.2939897-.0627962l-3.94440814-1.69474354c.15875-.4949481-.25258976-1.05939166-.93627305-.8949981-.64099543.358775-.5221102 1.10983976-.01129771 1.32926665.33725377.14499167.7217833.0045773.89464352-.31079545l3.94440813 1.69474354c-.10971476.34219356.05291666.71790189.39017308.86254165.51082044.21978144 1.13735374-.21096022.95673329-.92321855"/><path d="M4.61768064-15.05909416c-.63147042.37218144-.53092876 1.09361022-.05326856 1.34972688L2.8350955-9.58116089c-.51752497-.16051477-1.10207684.27375643-.92427685.98460188.38064544.66498787 1.16240184.53375454 1.38606206-.00105833.14781476-.3527769-.00211667-.75212045-.33231665-.92921666l1.72931658-4.12855828c.35771665.111125.74788973-.06208712.89534995-.41486666.22401476-.53481022-.23071665-1.18392044-.97154995-.98883522M-1.39471072.75240565c.35313142-.18979356.31397309-.58631666.05856287-.7366l1.03434351-2.21897307c.27939999.09913143.60854164-.12558712.52669808-.51822879-.193675-.371475-.62371284-.3167962-.75776663-.02928143-.0881962.18944166-.01516062.41098522.16157045.51505643l-1.0343435 2.21897043c-.1933231-.06843713-.41028143.01799166-.49847498.20743333-.13405643.28751477.10054166.65228787.5094102.5616231m-3.18205363-24.59566636c-.43920831-.07196667-.67274807.30374166-.54962952.6088962l-2.411587 1.25447688c-.17921287-.276225-.62088974-.30091856-.81421283.10018977-.08113712.45825833.33478785.70061666.64734807.53833712.2060231-.10724356.29139355-.35207046.2060231-.56303333l2.41194154-1.25447688c.123825.19120644.3732371.26176023.5792602.15451667.31220831-.1622769.35242498-.64205643-.06914356-.83890643"/><path d="M3.84192235-7.55021925c.43321285-.29139356.33125832-.7997481-.01905-.9616731l1.05515828-3.00813518c.37464998.0924269.7722314-.2409481.61559807-.73906856-.29844998-.4568481-.84878329-.33055453-.98530828.05926667-.09031023.25682045.03316023.53481022.27551855.64664166L3.72868069-8.54505257c-.25929166-.0638519-.52916664.0758481-.61912497.3330231-.13687689.38946666.21378332.83184999.73236663.66181022M2.31086863-6.2816295c-.5753814.11888523-.68579996.69215-.38946664 1.01035378L-.45878956-2.58592954c-.35136665-.25576477-.90734616-.07725833-.95638139.50835189.11676856.6028981.7440083.70555643 1.05233518.35771666.20319999-.22965833.19261665-.5715-.01198563-.79128143l2.38019155-2.68569542c.24306476.17674166.58384807.14605.78704806-.08325644.30832688-.34783976.13123333-.95814355-.48154164-1.00153521"/><path d="M-2.8834311-6.04103594c-.27093332.56938333.14816666 1.0346981.61171663.987425l.75529542 3.7743685c-.4459102.13476288-.65369542.72566477-.18450188 1.14688143.5912564.29068977 1.0851435-.17921023.98742495-.66816022-.06455833-.32243977-.36406665-.53516476-.68438974-.50235643l-.75564996-3.77436852c.30868142-.09313333.50306285-.40463787.43850452-.72707499-.0980731-.48895-.73483784-.73236666-1.16839994-.23671477m1.67181204-7.3596499c-.41733521.14040643-.44767498.57679166-.19896666.78669355l-1.52893705 2.21191664c-.28433975-.15875-.68192117.0239977-.66569163.46390453.14111022.43815.6170083.45825833.81491662.17145.1305269-.18873787.092075-.44238333-.08008143-.58737499l1.5292916-2.21191664c.19649809.10971212.44732307.05609167.57784996-.1326462.19826022-.2864538.01129771-.72460379-.44838141-.7020269"/><path d="M-.49547933-5.92003404c-.25047309-.67133522-.96167305-.69779355-1.28975637-.28186856l-3.67806004-2.36890187c.24306475-.47060643-.07514167-1.1073712-.78986853-1.05762952-.70484996.25258976-.7119064 1.02728975-.23565642 1.33420642.31432498.20214166.7246064.12629356.95144162-.1615731l3.67806004 2.3692564c-.168275.32526023-.06773333.73025.24623976.93274355.47660187.30656477 1.17898327-.02010833 1.11759994-.76623332m6.40538491 4.30071472c-.14957689.39440643.1552231.68191855.46178785.6251231l.7090833 2.47614542c-.28998332.1143-.39652309.51964166-.06067954.77469999.40992952.161925.71402307-.17850379.62194807-.49917879-.060325-.21166666-.27163976-.33690453-.4836583-.2977462l-.7094352-2.47614543c.20072878-.0790231.31361855-.29703977.25294165-.50870643-.0917231-.320675-.52952118-.44838143-.79198783-.09419166"/><path d="M1.35483914-6.12005904C.8634206-6.61888593.2178373-6.35818404.09154374-5.8561795l-4.22874788-.64487953c.02892689-.51717046-.5094102-.95814355-1.12712495-.62829545-.5281083.50694166-.2250731 1.20120831.32243976 1.2844621.36159544.05538788.69708709-.17638712.78457685-.52387499l4.22839335.64487953c-.01976437.35771667.2314231.67909545.59266664.73412879.54751285.08360833 1.04387115-.48895.69109163-1.13029999M4.0786371-24.68922093c-.51152686.68438976-.07831665 1.41428521.54998142 1.47461021v5.2158185c-.62829807.060325-1.06150828.7902231-.54998141 1.47425831.70802496.54363143 1.48942682.0504481 1.48942682-.62512045 0-.44555833-.34113521-.80750832-.7761102-.84913786v-5.2158185c.43497499-.0416269.7761102-.40357689.7761102-.84913522 0-.67556855-.78140186-1.16875188-1.48942682-.62547499M5.82171202-11.4462961c-.18485643-.76058976-.95285185-.88088786-1.36242683-.4723712L.77698917-14.96349226c.32455642-.47907045.06173787-1.21073332-.71966663-1.24918521-.79692496.18273976-.90487495 1.02199809-.42791854 1.41640187.31432498.26035.7690564.23071667 1.05233517-.05185833l3.68229603 3.04482496c-.22436666.33125833-.1679231.7835212.14675378 1.04351666.47695642.39440643 1.28093781.13052954 1.31092304-.68650379"/><path d="M-4.44482723-2.96692954c.75247496.21872046 1.23930827-.38840833 1.08867305-.94756286l4.47816-1.68027877c.25435453.52034545 1.02023328.65687045 1.4432147-.00238125.23812499-.78316666-.43673975-1.29504544-1.01670639-1.07738332-.3827621.14358144-.58349353.55315643-.47907043.93979999l-4.47816265 1.68028141c-.17568333-.35983332-.59654543-.53586855-.97895829-.39264166-.57996663.21766477-.75176852 1.0473981-.05715 1.48025642m2.99296652-15.27501476c-.87065375.02998522-1.17474994.83996211-.82161852 1.37865377l-4.14901835 3.3281064c-.44908785-.46143333-1.30598327-.3400769-1.52435447.50341476.01976438.91016666.91052117 1.21672878 1.44779993.78563522.35454165-.28433977.42474619-.78669355.1806231-1.15887499l4.14901835-3.32845829c.31079809.31926477.8163295.35948144 1.17087115.07514167.53727876-.43109356.43109354-1.36701476-.45332119-1.58361854M4.32487687.78133254c-.04162954.52281666.42227498.76058976.76870185.58631666l1.70638515 2.71109807c-.30691665.23706666-.29315832.75811855.1961462.94650188.54609997.0504481.79057496-.46143332.5697352-.81244544-.1456981-.2314231-.44167688-.307975-.68121474-.18767954L5.17824539 1.31438064c.21237309-.16404167.27128521-.46355.12558976-.695325-.22119166-.35101476-.7884583-.35171855-.97895828.1622769"/><path d="M-1.50230617-17.75572745c-.39405453.08784166-.46319808.48259999-.2568231.69779355l-1.60478514 1.86901664c-.2437712-.1718019-.6233583-.04339166-.65087497.35912954.08678333.41239545.51822877.47625.72601663.23424356.13722878-.15980833.12629356-.39440643-.01658937-.54327689l1.60478514-1.86901664c.16862954.11888522.40216665.09419166.53939808-.06526477.20778522-.24235833.0797269-.65934166-.34113521-.682625m-3.76695475 8.2010249c.33125832-.38311666.10583333-.83290832-.26317044-.8949981l.22048521-3.08362874c.37394355-.00918105.66075187-.422275.38770188-.84843143-.39581665-.35136666-.87841662-.09278144-.90699162.30656477-.01905.263525.1675712.49177045.42262952.53481022l-.22048786 3.0836314c-.25858522.00635-.47554354.20602045-.49424165.46954545-.028575.3993462.41239809.7239.85407496.43250643"/><path d="M-4.36721436-10.91007564c.27304998-.45049546-.03598333-.87277045-.42544998-.87241856l-.3104462-3.20145829c.38241286-.07443523.60466285-.54821666.2501212-.93768332-.46707952-.29139356-.91722306.0575019-.8770064.47236856.02645834.27340453.2575269.47519166.52669809.47519166l.31044354 3.20145829c-.26458332.05150644-.4522602.29386477-.42580187.56726666.04021666.41451476.54892043.67098332.95144162.295275"/><path d="M-5.81183929-11.08187754c-.02574396.61312689.52669543.87030189.92392495.65158143l2.11419536 3.09315375c-.34819165.29033787-.30903332.89887953.27163975 1.09713976.63993974.0352769.90346473-.57361666.6297083-.9743731-.1806231-.26422878-.52987307-.34042878-.80433329-.18908711l-2.114198-3.0931564c.2405962-.20108333.29633332-.55386022.11571287-.81809166-.27375642-.40075643-.9369795-.37641477-1.13664994.23283333M9.97919704-9.49120256c-.7634102-.24024166-1.27493706.36900643-1.13347494.94368143L4.23315377-6.93038782c-.24800189-.53728143-1.02799351-.69391476-1.47461016-.02963333-.26070453.79480832.41733521 1.33279354 1.01494162 1.12324355.39405187-.13793523.6081871-.55174356.51046853-.949325L8.8965221-8.4032359c.17180454.37147499.59760641.56091665.99165829.42298143.5972545-.20955.7912814-1.05304166.09101666-1.51094809M-.42880433-24.02000238c-.51646664-.38593712-1.06750639-.05926666-1.11301472.4152212H-5.4784643c-.04550833-.47448786-.59654807-.80115832-1.11301471-.4152212-.41028142.53445833-.0381 1.12394999.47201664 1.12394999.33619809 0 .60924808-.257175.64099807-.58525833h3.93664526c.0313981.32808333.30479999.58525833.64099808.58525833.50976474 0 .88194351-.58949166.47201664-1.12394999M11.37161174 1.3764704c-.60607307-.3548962-1.16275638.06596857-1.15428971.58525833l-4.26226002.4797769c-.10724355-.508-.74330186-.79480833-1.25553516-.3139731-.37888332.62864999.09595378 1.22167119.64805186 1.15958142.36406665-.0409231.62829807-.35313144.62265187-.71190643l4.26226266-.4797769c.07408332.35136667.4011083.5965481.76517496.555625.55209543-.06208977.88335374-.7457731.37394354-1.27458521M5.4206037-11.81283397c.40251855-.24517879.33090643-.70802499.02151063-.86818522l1.07279805-2.66982307c.33408142.098425.7059083-.18626666.5849064-.64170188-.25082498-.42368523-.75212306-.33196477-.89111661.01375833-.0913712.2282481.00881062.48365833.22260188.59443143L5.358506-12.71453396c-.23106855-.06808522-.48012877.04692121-.57185187.27516667-.13899355.3457231.15945643.75882499.63394164.62653332m.13582649 11.1421332c-.17956211-.72213522-.91051851-.83290833-1.2978685-.44238333L.74136039-3.98998596c.30621021-.4572.05291666-1.15181855-.69073974-1.18462688-.75706019.1778-.85548518.97684165-.40004998 1.34937498.30056666.24588523.73271853.21554546 1.0008314-.05468144l3.51719338 2.8772564c-.21166666.31608713-.1559269.74577045.14463976.99165833.4554352.37253332 1.2188454.11782689 1.24318706-.6596962"/><path d="M-.3868229-14.04027106c-.6163045.47377878-.41627952 1.21955188.11959166 1.4269852L-1.54922738-8.044109c-.56550187-.1019519-1.12430184.4310962-.84454996 1.15640642.48683331.64981666 1.29222494.40992689 1.45838326-.18168144.10971477-.390525-.10018712-.79127878-.4709583-.93486021l1.28199614-4.56917684c.39122877.07055379.7789333-.16263144.88864541-.55315643.16580643-.59160833-.39722688-1.2156731-1.15111207-.91369355m1.82879991-12.09780819c-.16933332.3901731.1241769.69426665.43567877.65122688l.5979583 2.52694808c-.29739165.1012481-.4236852.5044731-.09736666.77716855.40534165.18203333.72707497-.1464019.64981664-.47377879-.0511519-.2155481-.25787878-.3520731-.47342688-.32243976l-.5979583-2.52659354c.20566855-.06985.32949355-.28433976.27834165-.50023976-.07725833-.3273769-.5122333-.47660189-.79304352-.13229166"/><path d="M-.55897933-19.510796c-.4427352.59266666-.06773333 1.22449166.47660188 1.27670188v4.51555639c-.5443352.05221022-.91933708.68403522-.47660188 1.27670188.61312687.47025189 1.28940184.04339166 1.28940184-.54151477 0-.38558522-.29527499-.69920378-.6716871-.73518711v-4.51555639c.37641211-.03633522.6716871-.34960189.6716871-.73518711 0-.58490643-.67627497-1.01176665-1.28940184-.54151476M6.00903701-5.95672117c-.33161021.79410189.27022688 1.40087878.89887685 1.30598332L8.18567667.4451371c-.59937118.21307689-.84349162 1.03222688-.17638976 1.57550377.82514806.35736477 1.46755636-.31573523 1.30210183-.97578332C9.20238041.60953064 8.78045998.33965565 8.345485.40527232L7.06772219-4.69095452c.41451475-.14710833.65898973-.58419999.5499814-1.01952952-.16545188-.66004545-1.04951471-.95038333-1.60866658-.24623713m-.90134806-3.42864806c.50553141-.67662688.07761287-1.3984102-.5439833-1.45803142v-5.15690372c.62159617-.05962121 1.04951471-.78140453.5439833-1.45803142-.70026209-.53728143-1.47249349-.04974167-1.47249349.61841855 0 .4406212.33725642.79833787.76693974.83961287v5.15690372c-.42968332.041275-.76693974.3993462-.76693974.83996476 0 .66780833.7722314 1.1553481 1.4724935.61806666"/><path d="M.1067123-13.6155275c.42862499-.05891478.53798521-.47483977.3361981-.72284166l1.88101013-1.85455188c.24518142.20496213.66251663.1016.72742686-.32596666-.05573712-.44873333-.51152687-.5549212-.75494353-.31503143-.16086665.15875-.17003976.41028143-.03033976.58208332L.38470206-14.39728393c-.16968786-.14181667-.42157118-.13617046-.5820833.022225-.2437712.24024166-.14358143.69708976.30409355.75953142m7.24570153 3.01378141c-.6074833-.02751667-.8646583.51964165-.6487583.91404544L3.6295519-7.60172569c-.28716286-.34642689-.89041283-.30973712-1.08902494.26528977-.03704167.635.56585376.8981731.96414161.62794356.26246666-.1781519.33937045-.523875.19014545-.796925l3.07410629-2.08597497c.19826021.23953787.54821663.29598144.81068329.11782954.3982852-.27022954.37641475-.92780642-.22718976-1.12818332"/><path d="M8.51587666-8.71367946c-.08149167-.390525-.47060642-.46460833-.68615451-.263525L6.0055101-10.59045898c.17321212-.2384769.05185834-.61559545-.34537119-.64840379-.40922043.0797269-.47836664.50552879-.24200378.714375.1559269.13793522.38770188.13052689.53692687-.00881063l1.8242147 1.61325452c-.1199462.1651-.09877953.39616856.05715.53410379.23636022.2088462.65016853.0881962.67944997-.3277288M-6.73153091-22.79727285c.06138333-.4473231-.32596665-.67451287-.63217951-.54151476l-1.33455827-2.41335187c.2755212-.18873787.28892499-.6374712-.12276666-.82338332-.46672497-.07020454-.70202686.35806856-.52916664.67062878.1139481.2060231.3644212.28645644.57643975.19438144l1.33455826 2.4137064c-.19049999.1305269-.25576476.38523333-.14181666.59160833.17286022.31256022.66075186.34078333.84948973-.092075m7.77980794 7.98829725c-.48930452-.36547689-1.01106282-.05609166-1.05445449.3933481H-3.7350375c-.04303977-.44943976-.56514997-.75882499-1.05409995-.3933481-.3887602.50623787-.03598333 1.06468332.44696854 1.06468332.31855832 0 .57714618-.24376856.60713141-.55456666h3.72886004c.02998788.3107981.2885731.55456666.60713141.55456666.48295187 0 .8357314-.55844545.44732308-1.06468332m-2.65641653-4.21181207c-.25929165-.31573522-.64769997-.19790833-.74753784.08678333l-2.42181844-.59548976c.04374356-.2988019-.24553332-.58314166-.62159353-.42403712-.33337498.2667-.193675.6858.11994356.76305833.20708142.0508.4141602-.0663231.48295187-.2631731l2.42182108.59548976c-.02998787.2067269.0987769.40639735.30585832.45755189.31361855.07690379.63182497-.22930644.46037498-.62018333M5.81218702-6.15533593c-.13193976-.3718269-.52316854-.39264167-.70767307-.16651023l-2.0037768-1.33738142c.13793523-.2568231-.0313981-.61030643-.42544997-.58949166-.39017309.1329981-.40110831.55950643-.14146477.73271855.1710981.1143.39758142.0758481.52493331-.08043333L5.06288706-6.2590526c-.0956019.1774481-.0440981.40146022.12735189.51576022.25929165.17321477.64911284-.00079375.62194807-.41204355M3.85109545-13.7898006c.45684808-.07549357.56162308-.52352046.33831476-.78316667l1.95862036-2.0394083c.26846475.2123731.7115545.08960643.7687045-.37006212-.073025-.47836666-.56338785-.57890833-.8170333-.31467954-.1675712.1742731-.17003976.4437962-.01553103.62335832l-1.958623 2.03940831c-.18556023-.14675379-.45472878-.13335-.62229998.0409231-.25364544.26423144-.13299545.75035833.34783976.8036269m-6.24733342-9.51335558c.6261814.15733713 1.00894351-.35736476.86783329-.81315453l3.63713959-1.51976665c.22507044.42086477.86042495.50976477 1.18850827-.04586022.17250833-.65228522-.39899165-1.05339355-.86994995-.85654356-.3107981.12982046-.46390452.473075-.36618332.78845833l-3.6367877 1.51976665c-.15592688-.29104167-.50764542-.42333333-.81844351-.29351288-.47095831.19685-.58702308.8851212-.00211667 1.22061286"/><path d="M3.28136025-13.85435894c.18415-.37359166-.0881962-.68509356-.39511285-.65792878l-.46390188-2.50048974c.29598143-.08501857.43850188-.4734269.13264356-.75600189-.38805377-.19755644-.7186083.10865379-.6586352.43250379.03986477.21343143.23565643.35665832.44767498.33796287l.46390187 2.50048709c-.20461021.05856287-.33584354.26246666-.29633331.47625.060325.32384999.47836664.49071476.76976283.16721666m-6.37963301-3.78318708c.31573521-.72813332-.23177499-1.29504809-.81279996-1.21496665l-1.11618971-4.7138166c.55491853-.18908978.79022306-.94156477.18168143-1.45026855-.7567083-.339725-1.35713781.27305-1.21249805.88370832.0956019.40287045.48118975.65687045.88300185.60148522l1.11654161 4.71381661c-.38417498.13088144-.61489163.53092878-.51964164.93344999.14463977.61065832.9563814.88899999 1.47990447.24659166"/></g></svg>