<svg xmlns="http://www.w3.org/2000/svg" xml:space="preserve" viewBox="0 0 22.924795 24.861872"><defs><clipPath id="a" clipPathUnits="userSpaceOnUse"><path d="M4224.41 1548.66c-26.17 0-47.47 21.29-47.47 47.45 0 26.17 21.3 47.44 47.47 47.44 26.17 0 47.46-21.27 47.46-47.44 0-26.16-21.29-47.45-47.46-47.45zm-257.18 156.58c-26.18 0-47.46 21.28-47.46 47.45 0 26.16 21.28 47.44 47.46 47.44 26.17 0 47.46-21.28 47.46-47.44 0-26.17-21.29-47.45-47.46-47.45zm-47.46 316.36c0 26.16 21.28 47.45 47.46 47.45 26.17 0 47.46-21.29 47.46-47.45 0-26.16-21.29-47.45-47.46-47.45-26.18 0-47.46 21.29-47.46 47.45zm-209.71-472.94c-26.17 0-47.47 21.29-47.47 47.45 0 26.17 21.3 47.44 47.47 47.44 26.17 0 47.45-21.27 47.45-47.44 0-26.16-21.28-47.45-47.45-47.45zm514.35 114.89c-19.49 0-37.03-8.34-49.35-21.6l-146.82 82.14c4.08 8.69 6.45 18.36 6.45 28.6 0 33.77-25 61.75-57.46 66.62v135.66c32.46 4.86 57.46 32.84 57.46 66.63 0 37.2-30.26 67.45-67.46 67.45-37.2 0-67.46-30.25-67.46-67.45 0-33.79 25-61.77 57.46-66.63v-135.66c-32.46-4.86-57.46-32.85-57.46-66.62 0-11.47 2.89-22.27 7.96-31.73l-145.93-81.64c-12.39 14.79-30.98 24.23-51.74 24.23-37.21 0-67.47-30.25-67.47-67.44s30.26-67.45 67.47-67.45c37.19 0 67.45 30.26 67.45 67.45 0 9.26-1.88 18.09-5.26 26.13l147.55 82.55c12.2-12.08 28.95-19.55 47.43-19.55 19.76 0 37.5 8.59 49.85 22.16l146.63-82.03c-4.29-8.87-6.77-18.77-6.77-29.26 0-37.19 30.27-67.45 67.47-67.45 37.19 0 67.46 30.26 67.46 67.45s-30.27 67.44-67.46 67.44z"/></clipPath><clipPath id="b" clipPathUnits="userSpaceOnUse"><path d="M895.98 1619.45c-26.171 0-47.468 21.29-47.468 47.45 0 26.17 21.297 47.46 47.468 47.46 26.165 0 47.454-21.29 47.454-47.46 0-26.16-21.289-47.45-47.454-47.45zm-265.789-139.3c-26.164 0-47.453 21.29-47.453 47.45 0 26.16 21.289 47.45 47.453 47.45 26.172 0 47.469-21.29 47.469-47.45 0-26.16-21.297-47.45-47.469-47.45zm-248.554 139.3c-26.172 0-47.473 21.29-47.473 47.45 0 26.17 21.301 47.46 47.473 47.46 26.16 0 47.449-21.29 47.449-47.46 0-26.16-21.289-47.45-47.449-47.45zm217.636 418.42c8.555-6.22 18.614-10.46 29.54-12.09v-79.47c-63.348-5.12-113.36-58.19-113.36-122.82 0-19.47 4.66-37.82 12.727-54.2l-95.078-58.88c-7.344 8.67-16.848 15.43-27.657 19.53zm39.532 101.99c26.172 0 47.461-21.29 47.461-47.45 0-26.16-21.289-47.45-47.461-47.45-26.172 0-47.473 21.29-47.473 47.45 0 26.16 21.301 47.45 47.473 47.45zm.008-213.04c56.972 0 103.332-46.36 103.332-103.33 0-56.98-46.36-103.32-103.332-103.32-56.993 0-103.36 46.34-103.36 103.32 0 56.97 46.367 103.33 103.36 103.33zm189.699-259.92c0-1.59.125-3.15.242-4.72h-379.91c.117 1.57.242 3.13.242 4.72 0 9.41-1.941 18.36-5.438 26.51l94.766 58.69c22.383-31.37 59.004-51.93 100.399-51.93 42.382 0 79.835 21.5 102.042 54.15l94.305-58.4c-4.219-8.81-6.648-18.63-6.648-29.02zm-198.321-71.85c-18.429 0-35.136-7.44-47.324-19.46l-115.117 66.59h329.043l-119.172-66.67c-12.195 12.07-28.953 19.54-47.43 19.54zm216.2 117.44-95.762 59.31c7.316 15.74 11.516 33.21 11.516 51.69 0 64.63-49.993 117.7-113.332 122.82v79.48c10.382 1.55 20 5.42 28.273 11.14l193.594-307.55c-9.328-3.77-17.578-9.6-24.289-16.89zm49.589 21.87c-1.57 0-3.105-.13-4.648-.24l-199.434 316.83c8.965 11.45 14.368 25.83 14.368 41.46 0 37.2-30.266 67.45-67.461 67.45-37.207 0-67.473-30.25-67.473-67.45 0-15.05 5.012-28.9 13.371-40.13l-200.207-318.07c-.957.04-1.894.15-2.859.15-37.207 0-67.473-30.26-67.473-67.46 0-37.19 30.266-67.45 67.473-67.45 25.515 0 47.754 14.24 59.218 35.19l129.922-75.16c-5.117-9.5-8.039-20.35-8.039-31.88 0-37.2 30.254-67.45 67.453-67.45 37.207 0 67.469 30.25 67.469 67.45 0 11.47-2.898 22.27-7.969 31.74l144.395 80.78c10.391-23.9 34.211-40.67 61.894-40.67 37.2 0 67.454 30.26 67.454 67.45 0 37.2-30.254 67.46-67.454 67.46z"/></clipPath></defs><path d="M4224.41 1548.66c-26.17 0-47.47 21.29-47.47 47.45 0 26.17 21.3 47.44 47.47 47.44 26.17 0 47.46-21.27 47.46-47.44 0-26.16-21.29-47.45-47.46-47.45zm-257.18 156.58c-26.18 0-47.46 21.28-47.46 47.45 0 26.16 21.28 47.44 47.46 47.44 26.17 0 47.46-21.28 47.46-47.44 0-26.17-21.29-47.45-47.46-47.45zm-47.46 316.36c0 26.16 21.28 47.45 47.46 47.45 26.17 0 47.46-21.29 47.46-47.45 0-26.16-21.29-47.45-47.46-47.45-26.18 0-47.46 21.29-47.46 47.45zm-209.71-472.94c-26.17 0-47.47 21.29-47.47 47.45 0 26.17 21.3 47.44 47.47 47.44 26.17 0 47.45-21.27 47.45-47.44 0-26.16-21.28-47.45-47.45-47.45zm514.35 114.89c-19.49 0-37.03-8.34-49.35-21.6l-146.82 82.14c4.08 8.69 6.45 18.36 6.45 28.6 0 33.77-25 61.75-57.46 66.62v135.66c32.46 4.86 57.46 32.84 57.46 66.63 0 37.2-30.26 67.45-67.46 67.45-37.2 0-67.46-30.25-67.46-67.45 0-33.79 25-61.77 57.46-66.63v-135.66c-32.46-4.86-57.46-32.85-57.46-66.62 0-11.47 2.89-22.27 7.96-31.73l-145.93-81.64c-12.39 14.79-30.98 24.23-51.74 24.23-37.21 0-67.47-30.25-67.47-67.44s30.26-67.45 67.47-67.45c37.19 0 67.45 30.26 67.45 67.45 0 9.26-1.88 18.09-5.26 26.13l147.55 82.55c12.2-12.08 28.95-19.55 47.43-19.55 19.76 0 37.5 8.59 49.85 22.16l146.63-82.03c-4.29-8.87-6.77-18.77-6.77-29.26 0-37.19 30.27-67.45 67.47-67.45 37.19 0 67.46 30.26 67.46 67.45s-30.27 67.44-67.46 67.44" clip-path="url(#a)" transform="matrix(.03527778 0 0 -.03527778 -128.50248686 73.6970378)"/><path d="M895.98 1619.45c-26.171 0-47.468 21.29-47.468 47.45 0 26.17 21.297 47.46 47.468 47.46 26.165 0 47.454-21.29 47.454-47.46 0-26.16-21.289-47.45-47.454-47.45zm-265.789-139.3c-26.164 0-47.453 21.29-47.453 47.45 0 26.16 21.289 47.45 47.453 47.45 26.172 0 47.469-21.29 47.469-47.45 0-26.16-21.297-47.45-47.469-47.45zm-248.554 139.3c-26.172 0-47.473 21.29-47.473 47.45 0 26.17 21.301 47.46 47.473 47.46 26.16 0 47.449-21.29 47.449-47.46 0-26.16-21.289-47.45-47.449-47.45zm217.636 418.42c8.555-6.22 18.614-10.46 29.54-12.09v-79.47c-63.348-5.12-113.36-58.19-113.36-122.82 0-19.47 4.66-37.82 12.727-54.2l-95.078-58.88c-7.344 8.67-16.848 15.43-27.657 19.53zm39.532 101.99c26.172 0 47.461-21.29 47.461-47.45 0-26.16-21.289-47.45-47.461-47.45-26.172 0-47.473 21.29-47.473 47.45 0 26.16 21.301 47.45 47.473 47.45zm.008-213.04c56.972 0 103.332-46.36 103.332-103.33 0-56.98-46.36-103.32-103.332-103.32-56.993 0-103.36 46.34-103.36 103.32 0 56.97 46.367 103.33 103.36 103.33zm189.699-259.92c0-1.59.125-3.15.242-4.72h-379.91c.117 1.57.242 3.13.242 4.72 0 9.41-1.941 18.36-5.438 26.51l94.766 58.69c22.383-31.37 59.004-51.93 100.399-51.93 42.382 0 79.835 21.5 102.042 54.15l94.305-58.4c-4.219-8.81-6.648-18.63-6.648-29.02zm-198.321-71.85c-18.429 0-35.136-7.44-47.324-19.46l-115.117 66.59h329.043l-119.172-66.67c-12.195 12.07-28.953 19.54-47.43 19.54zm216.2 117.44-95.762 59.31c7.316 15.74 11.516 33.21 11.516 51.69 0 64.63-49.993 117.7-113.332 122.82v79.48c10.382 1.55 20 5.42 28.273 11.14l193.594-307.55c-9.328-3.77-17.578-9.6-24.289-16.89zm49.589 21.87c-1.57 0-3.105-.13-4.648-.24l-199.434 316.83c8.965 11.45 14.368 25.83 14.368 41.46 0 37.2-30.266 67.45-67.461 67.45-37.207 0-67.473-30.25-67.473-67.45 0-15.05 5.012-28.9 13.371-40.13l-200.207-318.07c-.957.04-1.894.15-2.859.15-37.207 0-67.473-30.26-67.473-67.46 0-37.19 30.266-67.45 67.473-67.45 25.515 0 47.754 14.24 59.218 35.19l129.922-75.16c-5.117-9.5-8.039-20.35-8.039-31.88 0-37.2 30.254-67.45 67.453-67.45 37.207 0 67.469 30.25 67.469 67.45 0 11.47-2.898 22.27-7.969 31.74l144.395 80.78c10.391-23.9 34.211-40.67 61.894-40.67 37.2 0 67.454 30.26 67.454 67.45 0 37.2-30.254 67.46-67.454 67.46" clip-path="url(#b)" transform="matrix(.03527778 0 0 -.03527778 -11.06301923 76.37271356)"/></svg>