<svg xmlns="http://www.w3.org/2000/svg" xml:space="preserve" viewBox="0 0 22.9 24.9"><defs><clipPath id="a" clipPathUnits="userSpaceOnUse"><path d="M4224.4 1548.7a47.5 47.5 0 1 0 .1 95 47.5 47.5 0 0 0 0-95zm-257.2 156.5a47.5 47.5 0 1 0 .1 95 47.5 47.5 0 0 0 0-95zm-47.4 316.4a47.5 47.5 0 1 0 95-.1 47.5 47.5 0 0 0-95 .1zm-209.7-473a47.5 47.5 0 1 0 0 95.1 47.5 47.5 0 0 0 0-95zm514.3 115c-19.5 0-37-8.4-49.3-21.6l-146.9 82a67.1 67.1 0 0 1-51 95.3V1955a67.5 67.5 0 1 1-20 0v-135.7a67.5 67.5 0 0 1-49.5-98.3l-145.9-81.7a67.4 67.4 0 1 1 10.4-17l147.6 82.5a67.2 67.2 0 0 1 97.3 2.6l146.6-82a67.5 67.5 0 1 1 60.7 38.2z"/></clipPath><clipPath id="b" clipPathUnits="userSpaceOnUse"><path d="M896 1619.5a47.5 47.5 0 1 0 0 95 47.5 47.5 0 0 0 0-95zm-265.8-139.3a47.5 47.5 0 1 0 .1 95 47.5 47.5 0 0 0-.1-95zm-248.6 139.3a47.5 47.5 0 1 0 .1 95 47.5 47.5 0 0 0 0-95zm217.7 418.4a67 67 0 0 1 29.5-12.1v-79.5a123.4 123.4 0 0 1-113.3-122.8c0-19.5 4.6-37.8 12.7-54.2l-95.1-58.9a67.7 67.7 0 0 1-27.7 19.5zm39.5 102a47.5 47.5 0 1 0 0-95 47.5 47.5 0 0 0 0 95zm0-213a103.4 103.4 0 1 0-103.4-103.3c0 56.9 46.4 103.2 103.4 103.2zm189.7-260c0-1.6.1-3.1.3-4.7h-380a67 67 0 0 1-5.2 31.2l94.8 58.7a123.2 123.2 0 0 1 202.5 2.2l94.3-58.4a67 67 0 0 1-6.7-29zm-198.3-71.8a67.2 67.2 0 0 1-47.3-19.5l-115.1 66.6h329l-119.2-66.7a67.2 67.2 0 0 1-47.4 19.5zm216.2 117.4-95.8 59.3a123.4 123.4 0 0 1-101.8 174.5v79.5a67 67 0 0 1 28.3 11.1l193.6-307.5a67.4 67.4 0 0 1-24.3-17zm49.6 21.9c-1.6 0-3.1-.2-4.7-.3L692 2051a67.5 67.5 0 1 1-120.6 41.5c0-15.1 5-29 13.4-40.2l-200.2-318h-2.9a67.5 67.5 0 1 1 59.3-99.7l129.9-75.1a67.5 67.5 0 1 1 119-.1L834 1640a67.6 67.6 0 0 1 129.3 26.8 67.5 67.5 0 0 1-67.4 67.5z"/></clipPath></defs><path d="M4224.4 1548.7a47.5 47.5 0 1 0 .1 95 47.5 47.5 0 0 0 0-95zm-257.2 156.5a47.5 47.5 0 1 0 .1 95 47.5 47.5 0 0 0 0-95zm-47.4 316.4a47.5 47.5 0 1 0 95-.1 47.5 47.5 0 0 0-95 .1zm-209.7-473a47.5 47.5 0 1 0 0 95.1 47.5 47.5 0 0 0 0-95zm514.3 115c-19.5 0-37-8.4-49.3-21.6l-146.9 82a67.1 67.1 0 0 1-51 95.3V1955a67.5 67.5 0 1 1-20 0v-135.7a67.5 67.5 0 0 1-49.5-98.3l-145.9-81.7a67.4 67.4 0 1 1 10.4-17l147.6 82.5a67.2 67.2 0 0 1 97.3 2.6l146.6-82a67.5 67.5 0 1 1 60.7 38.2" clip-path="url(#a)" transform="matrix(.03527778 0 0 -.03527778 -128.5 73.7)"/><path d="M896 1619.5a47.5 47.5 0 1 0 0 95 47.5 47.5 0 0 0 0-95zm-265.8-139.3a47.5 47.5 0 1 0 .1 95 47.5 47.5 0 0 0-.1-95zm-248.6 139.3a47.5 47.5 0 1 0 .1 95 47.5 47.5 0 0 0 0-95zm217.7 418.4a67 67 0 0 1 29.5-12.1v-79.5a123.4 123.4 0 0 1-113.3-122.8c0-19.5 4.6-37.8 12.7-54.2l-95.1-58.9a67.7 67.7 0 0 1-27.7 19.5zm39.5 102a47.5 47.5 0 1 0 0-95 47.5 47.5 0 0 0 0 95zm0-213a103.4 103.4 0 1 0-103.4-103.3c0 56.9 46.4 103.2 103.4 103.2zm189.7-260c0-1.6.1-3.1.3-4.7h-380a67 67 0 0 1-5.2 31.2l94.8 58.7a123.2 123.2 0 0 1 202.5 2.2l94.3-58.4a67 67 0 0 1-6.7-29zm-198.3-71.8a67.2 67.2 0 0 1-47.3-19.5l-115.1 66.6h329l-119.2-66.7a67.2 67.2 0 0 1-47.4 19.5zm216.2 117.4-95.8 59.3a123.4 123.4 0 0 1-101.8 174.5v79.5a67 67 0 0 1 28.3 11.1l193.6-307.5a67.4 67.4 0 0 1-24.3-17zm49.6 21.9c-1.6 0-3.1-.2-4.7-.3L692 2051a67.5 67.5 0 1 1-120.6 41.5c0-15.1 5-29 13.4-40.2l-200.2-318h-2.9a67.5 67.5 0 1 1 59.3-99.7l129.9-75.1a67.5 67.5 0 1 1 119-.1L834 1640a67.6 67.6 0 0 1 129.3 26.8 67.5 67.5 0 0 1-67.4 67.5" clip-path="url(#b)" transform="matrix(.03527778 0 0 -.03527778 -11 76.4)"/></svg>