<svg xmlns="http://www.w3.org/2000/svg" xml:space="preserve" viewBox="0 0 57.41 48.21"><g fill="#231f20"><path d="M22.28 39.6c-.07-.67-.7-.86-1.1-.57l-2.73-3c.33-.36.2-1-.45-1.13-.7.06-.88.75-.53 1.14.23.26.62.29.9.08l2.72 3a.66.66 0 0 0 0 .9c.36.38 1.06.26 1.19-.43m32.8 6.13c-.53-.4-1.1-.06-1.15.43h-4.05c-.05-.5-.62-.83-1.15-.43-.42.55-.04 1.16.49 1.16.34 0 .63-.27.66-.6h4.05c.04.33.32.6.66.6.53 0 .91-.61.5-1.16M4.22 47.16c.6-.27.6-.93.19-1.2l2-3.54c.44.2 1.02-.13.93-.79-.27-.63-.99-.6-1.25-.14-.17.3-.07.67.2.87l-2 3.53a.66.66 0 0 0-.84.28c-.26.46.08 1.09.77 1"/><path d="M25.18 35.6c-.53-.4-1.1-.06-1.14.43h-4.06c-.05-.49-.61-.83-1.15-.43-.42.55-.03 1.16.5 1.16.34 0 .62-.27.65-.6h4.06c.03.33.31.6.66.6.52 0 .9-.6.48-1.16m13.6-2.32c-.33.57.07 1.1.56 1.1l.44 4.03c-.48.1-.76.7-.3 1.18.6.36 1.15-.08 1.1-.6a.66.66 0 0 0-.68-.6l-.44-4.03a.66.66 0 0 0 .53-.72c-.05-.52-.7-.84-1.2-.36M6.06 38.25c-.19.64.33 1.05.8.92l1.44 3.79c-.44.22-.55.87.01 1.22.67.2 1.1-.37.91-.86a.66.66 0 0 0-.8-.4l-1.44-3.8c.3-.15.45-.5.33-.83-.18-.49-.89-.63-1.25-.04m9.17.04c.22.63.88.67 1.19.29l3.37 2.25c-.24.44.05 1.03.71 1 .66-.22.68-.94.24-1.23a.66.66 0 0 0-.88.13l-3.37-2.26a.67.67 0 0 0-.21-.87c-.44-.29-1.1 0-1.05.7"/><path d="M25.2 40.8c.4-.54.06-1.1-.42-1.15v-4.06c.48-.04.82-.61.42-1.14-.55-.42-1.15-.04-1.15.48 0 .35.26.63.6.66v4.06a.66.66 0 0 0-.6.66c0 .53.6.9 1.15.49m10.51.91c.66-.04.88-.66.6-1.06l3.1-2.62c.35.34 1 .23 1.15-.42-.03-.69-.72-.9-1.12-.57a.68.68 0 0 0-.11.89l-3.1 2.62a.66.66 0 0 0-.9-.04c-.4.34-.3 1.05.38 1.2m-4.68 2.33c.4-.53.06-1.1-.43-1.14v-4.06c.49-.05.82-.61.43-1.15-.55-.42-1.16-.03-1.16.5 0 .34.26.62.6.65v4.06a.66.66 0 0 0-.6.66c0 .52.6.9 1.16.48"/><path d="M24.98 34.42c.29.6.94.57 1.21.16l3.6 1.9c-.2.45.15 1.01.8.91.64-.29.58-1 .12-1.25a.66.66 0 0 0-.87.22l-3.59-1.9a.66.66 0 0 0-.3-.83c-.46-.25-1.09.11-.97.8m22.63 1.17c-.62.24-.64.9-.25 1.2l-2.14 3.44c-.44-.22-1.03.08-.97.74.24.65.96.65 1.24.2a.67.67 0 0 0-.17-.88l2.15-3.44c.3.15.68.06.86-.24.28-.44-.03-1.09-.72-1.02m-24.14 1.33c-.6.28-.57.94-.16 1.21l-1.92 3.58c-.45-.2-1.02.15-.92.8.29.64 1 .59 1.25.12a.66.66 0 0 0-.22-.86l1.92-3.58c.31.13.68.01.84-.3.25-.46-.1-1.08-.79-.97m18.33 6.34c-.3-.6-.96-.54-1.22-.12l-3.64-1.8c.17-.45-.19-1-.84-.88-.62.3-.55 1.02-.07 1.25.3.16.68.04.85-.25l3.64 1.8c-.12.31.02.67.33.83.47.23 1.08-.15.95-.83"/><path d="M44.53 43.37c.4-.53.06-1.1-.43-1.15v-4.05c.49-.05.83-.62.43-1.15-.55-.42-1.16-.04-1.16.49 0 .34.27.62.6.66v4.05a.66.66 0 0 0-.6.66c0 .53.6.91 1.16.49m-.85 3.69c-.14-.65-.8-.77-1.15-.43L39.46 44c.28-.4.07-1.02-.6-1.07-.67.14-.78.85-.38 1.2.26.22.65.2.9-.03l3.07 2.64c-.2.28-.16.66.1.89.4.34 1.1.13 1.13-.56"/><path d="M41.43 47.66c.53.4 1.1.06 1.15-.43h4.05c.05.49.62.82 1.15.43.42-.55.04-1.16-.49-1.16a.66.66 0 0 0-.66.6h-4.05a.66.66 0 0 0-.66-.6c-.53 0-.91.6-.49 1.16m-13.95-1.1c.6-.27.6-.93.2-1.21l2.02-3.52c.44.2 1.02-.12.94-.78-.27-.64-.99-.61-1.25-.16-.17.3-.08.68.2.88l-2.02 3.51a.66.66 0 0 0-.85.28c-.27.45.07 1.09.76 1m16.93-2.64c-.06-.66-.69-.87-1.08-.58l-2.7-3.03c.34-.36.22-1.01-.43-1.15-.7.05-.9.74-.55 1.13.23.26.62.3.9.1l2.68 3.04a.66.66 0 0 0-.01.9c.34.38 1.05.27 1.19-.41m7.94 2.58c.18-.64-.34-1.04-.82-.91l-1.48-3.78c.44-.22.55-.87-.02-1.22-.66-.2-1.09.39-.9.88.13.32.48.48.8.39l1.49 3.78a.66.66 0 0 0-.33.83c.2.49.9.63 1.26.03m-38.07-8.1c-.37.55 0 1.1.49 1.12l.21 4.05c-.48.08-.8.66-.37 1.17.58.4 1.16-.02 1.13-.54a.67.67 0 0 0-.63-.63l-.22-4.05a.66.66 0 0 0 .57-.7c-.03-.52-.65-.87-1.18-.42m-9 9.81c.65-.12.78-.77.45-1.13l2.74-3c.4.3 1.02.1 1.09-.55-.12-.69-.83-.81-1.18-.43a.66.66 0 0 0 0 .9l-2.74 3a.66.66 0 0 0-.89.07c-.35.4-.16 1.08.53 1.14m42.87-9.94c.4-.53.07-1.1-.42-1.15l.06-4.06c.49-.04.83-.6.44-1.14-.54-.43-1.16-.05-1.16.47 0 .35.25.63.59.67l-.05 4.06a.66.66 0 0 0-.62.65c0 .52.6.92 1.16.5M22 41c-.62.23-.63.9-.25 1.2l-2.17 3.42c-.43-.22-1.02.08-.97.74.24.65.96.65 1.24.21a.66.66 0 0 0-.16-.88l2.17-3.43c.3.16.68.06.86-.23.28-.45-.02-1.1-.72-1.03m10.09-3.44c-.54-.4-1.1-.06-1.15.43h-4.06c-.04-.49-.61-.83-1.14-.43-.43.55-.04 1.16.48 1.16.35 0 .63-.27.66-.6h4.06c.03.33.31.6.66.6.52 0 .9-.6.49-1.16"/><path d="M28.96 38.16c.66.12 1.02-.44.84-.9l3.64-1.79c.26.42.92.47 1.22-.12.13-.68-.48-1.06-.95-.82a.66.66 0 0 0-.33.83l-3.63 1.8a.66.66 0 0 0-.86-.26c-.47.23-.55.95.07 1.26m21.39-5.02c-.35.57.04 1.1.53 1.1l.4 4.04c-.49.1-.77.7-.32 1.18.59.37 1.16-.07 1.1-.6a.66.66 0 0 0-.66-.6l-.39-4.03a.66.66 0 0 0 .54-.72c-.05-.52-.7-.84-1.2-.37m-5.9 6.15c-.2.63.31 1.06.79.94l1.32 3.84c-.44.2-.58.85-.03 1.22.66.22 1.11-.34.94-.84a.66.66 0 0 0-.79-.43l-1.32-3.83c.3-.14.47-.5.35-.82-.17-.5-.87-.66-1.25-.08M1.9 28.05c-.27.6.18 1.09.66 1.03l.87 3.96c-.47.15-.67.78-.17 1.21.63.3 1.14-.21 1.03-.72a.66.66 0 0 0-.73-.52l-.87-3.96c.32-.1.52-.44.45-.77-.12-.52-.8-.76-1.24-.23M35.96 19c.5.44 1.09.16 1.18-.32l4.04.37c0 .49.53.87 1.1.53.47-.51.14-1.15-.38-1.2a.66.66 0 0 0-.71.54l-4.04-.37a.67.67 0 0 0-.6-.66c-.53-.05-.96.52-.6 1.1m-8.91-3.61c-.6.3-.53.96-.11 1.22l-1.75 3.66c-.46-.17-1 .2-.88.85.32.62 1.03.53 1.26.06a.66.66 0 0 0-.26-.86l1.74-3.66c.32.12.68-.02.83-.33.23-.48-.15-1.09-.83-.94m4.88 13.13c.3-.6-.13-1.1-.62-1.06l-.67-4c.47-.13.71-.74.23-1.2-.61-.33-1.15.15-1.06.67.06.34.37.58.7.55l.68 4a.66.66 0 0 0-.49.75c.09.52.75.8 1.23.29m-21.2-17.8c.65.1.98-.48.78-.93l3.53-2c.28.4.94.41 1.2-.2.1-.69-.53-1.02-.99-.76a.66.66 0 0 0-.28.85l-3.52 2a.66.66 0 0 0-.87-.2c-.46.26-.5.98.15 1.25"/><path d="M31.5 21.94c-.65-.14-1.02.4-.86.87l-3.68 1.7c-.24-.42-.9-.49-1.22.1-.15.67.45 1.06.93.84.32-.14.46-.5.35-.82l3.68-1.7c.17.29.53.4.85.26.48-.22.57-.93-.05-1.25M13.27 8.27c.55-.37.42-1.02-.02-1.23l1.33-3.83c.48.12.99-.3.79-.94-.38-.58-1.08-.42-1.26.08-.11.33.05.68.35.82L13.13 7a.66.66 0 0 0-.8.43c-.17.5.28 1.05.94.84m7.13 10.25c-.63.23-.65.89-.26 1.2l-2.2 3.4c-.43-.22-1.02.08-.97.74.23.65.95.66 1.23.22a.66.66 0 0 0-.15-.89l2.2-3.4c.3.15.67.05.86-.24.28-.44-.02-1.1-.71-1.03m15.3-1.32c-.4.53-.06 1.1.43 1.15v4.05c-.5.05-.83.62-.43 1.15.55.42 1.16.04 1.16-.49a.66.66 0 0 0-.6-.66v-4.05c.33-.03.6-.32.6-.66 0-.53-.61-.91-1.16-.49m6.84-8.8c.44.5 1.06.28 1.2-.19l3.98.84c-.06.49.43.93 1.03.65.53-.45.28-1.12-.24-1.23a.66.66 0 0 0-.77.45l-3.97-.83a.66.66 0 0 0-.52-.73c-.51-.1-1.01.41-.71 1.04M19.77 32.15c.57.35 1.1-.04 1.1-.54l4.04-.4c.1.49.69.77 1.18.32.37-.59-.08-1.16-.6-1.1a.66.66 0 0 0-.6.66l-4.03.4a.66.66 0 0 0-.72-.54c-.52.05-.84.7-.37 1.2"/><path d="M21.2 35.28c.3-.6-.14-1.1-.63-1.05l-.76-3.98c.47-.14.7-.76.2-1.2-.61-.32-1.14.17-1.04.69.07.34.38.56.72.53l.75 3.99a.66.66 0 0 0-.46.76c.1.51.76.78 1.22.26m-2.85-17.7c-.66-.07-.98.5-.77.95l-3.5 2.06c-.29-.4-.95-.4-1.2.21-.09.7.55 1.02 1 .76.3-.18.41-.55.27-.86l3.49-2.06c.2.27.58.36.88.18.45-.26.47-.98-.17-1.24m-12.29.84c.67-.03.9-.65.62-1.06l3.16-2.55c.34.35 1 .25 1.16-.39-.02-.7-.7-.92-1.11-.6a.66.66 0 0 0-.13.9L6.6 17.25a.66.66 0 0 0-.89-.05c-.4.33-.32 1.05.35 1.2M31.93 5c.53.4 1.1.06 1.14-.43h4.06c.05.49.61.83 1.15.43.42-.55.04-1.16-.49-1.16a.66.66 0 0 0-.66.6h-4.06a.66.66 0 0 0-.66-.6c-.52 0-.9.6-.48 1.16M17.58 6.04c.6-.27.58-.93.18-1.21l1.95-3.55c.45.19 1.02-.14.93-.8-.28-.64-1-.6-1.25-.13-.17.3-.07.67.2.86l-1.94 3.56a.66.66 0 0 0-.85.29c-.25.46.1 1.09.78.98"/><path d="M16.67 21.53c-.37-.55-1.02-.42-1.22.02l-3.83-1.35c.12-.48-.3-.98-.93-.79-.59.38-.43 1.08.07 1.26.32.11.68-.04.82-.35l3.82 1.35c-.08.33.1.68.43.8.5.17 1.05-.28.84-.94m-14.5-.58c.03.67.65.9 1.06.62l2.57 3.14c-.35.35-.25 1 .39 1.16.7-.02.92-.7.59-1.1a.66.66 0 0 0-.89-.14L3.33 21.5a.66.66 0 0 0 .05-.9c-.33-.4-1.05-.31-1.2.36m20.65-.32c-.59.32-.52.97-.1 1.22l-1.71 3.68c-.46-.17-1.01.2-.87.86.32.61 1.03.52 1.25.04a.66.66 0 0 0-.27-.85l1.72-3.68c.32.12.67-.03.82-.34.22-.48-.17-1.08-.84-.93m-16.95-4.9c-.16.65.37 1.04.84.9l1.6 3.72c-.44.24-.52.89.05 1.22.68.18 1.08-.42.88-.9a.66.66 0 0 0-.82-.37l-1.59-3.73c.3-.16.43-.52.3-.84-.21-.49-.92-.6-1.26 0m27.82 3.1c-.65-.13-1.01.42-.84.88l-3.65 1.77c-.26-.41-.91-.47-1.22.12-.14.68.47 1.06.94.83a.66.66 0 0 0 .33-.83l3.65-1.77c.18.29.55.4.86.25.47-.23.55-.94-.07-1.25M27.02 5c-.18-.64-.84-.72-1.17-.36L22.62 2.2c.26-.42 0-1.03-.66-1.03-.67.18-.73.9-.31 1.22.28.2.66.16.9-.09l3.22 2.45a.66.66 0 0 0 .16.88c.42.32 1.1.07 1.1-.62m19.19 19.37c.6-.3.55-.95.13-1.22l1.84-3.61c.46.18 1.01-.18.9-.83-.3-.63-1.02-.56-1.25-.1a.66.66 0 0 0 .24.87l-1.84 3.62a.66.66 0 0 0-.84.31c-.23.47.14 1.09.82.96m-7.97 10.37c.53.4 1.1.06 1.14-.43h4.06c.05.49.61.82 1.15.43.42-.55.04-1.16-.49-1.16a.66.66 0 0 0-.66.6h-4.06a.66.66 0 0 0-.66-.6c-.52 0-.9.6-.48 1.16m14.32-2.56c.4-.53.06-1.1-.43-1.15V27c.49-.05.83-.62.43-1.15-.55-.42-1.16-.04-1.16.49 0 .34.27.63.6.66v4.05a.66.66 0 0 0-.6.66c0 .53.6.91 1.16.49M19.79 18.73c.53.4 1.1.07 1.15-.42h4.05c.05.49.62.82 1.15.42.42-.55.04-1.15-.49-1.15a.66.66 0 0 0-.66.6h-4.05a.66.66 0 0 0-.66-.6c-.53 0-.91.6-.5 1.15"/><path d="M48.66 22.96c-.6-.29-1.1.15-1.04.64l-3.98.8c-.14-.47-.77-.7-1.21-.2-.3.63.19 1.15.7 1.04a.66.66 0 0 0 .53-.72l3.98-.8c.1.33.43.54.77.47.51-.1.77-.78.25-1.23m-28.23 7.7c.02-.67-.58-.94-1-.7l-2.33-3.32c.37-.32.32-.98-.31-1.19-.7-.03-.97.63-.67 1.07.2.28.58.36.87.19l2.33 3.32a.66.66 0 0 0-.12.89c.3.43 1.02.4 1.23-.27m22.32-19.32c.03-.67-.57-.94-1-.7l-2.3-3.34c.37-.32.33-.97-.3-1.19-.7-.03-.98.63-.68 1.06.2.29.57.37.87.2l2.3 3.34a.66.66 0 0 0-.12.89c.3.43 1.02.4 1.23-.26m6.23 9.4c.37.56 1.01.43 1.23-.01L54 22.1c-.12.48.3.99.94.8.58-.37.43-1.08-.06-1.26a.66.66 0 0 0-.83.35l-3.81-1.39a.66.66 0 0 0-.42-.8c-.49-.17-1.06.27-.85.93m.46 3.58c.02.67.63.9 1.05.64L53 28.13c-.35.34-.26 1 .38 1.16.7 0 .93-.69.6-1.1a.66.66 0 0 0-.88-.14l-2.51-3.18a.66.66 0 0 0 .06-.9c-.33-.4-1.04-.33-1.21.34m-29.57-9.57c.22-.63-.27-1.07-.75-.96l-1.24-3.86c.45-.2.6-.84.06-1.23-.66-.23-1.12.32-.96.82.1.33.45.52.78.44L19 13.82a.66.66 0 0 0-.38.8c.16.5.86.69 1.25.12M8.05 13.7c.15.65.8.76 1.15.41l3.11 2.6c-.28.41-.06 1.03.6 1.07.68-.15.78-.86.37-1.2a.66.66 0 0 0-.89.04l-3.1-2.6a.66.66 0 0 0-.13-.9c-.4-.33-1.08-.11-1.11.58M45.3 6.1c.65.11 1-.45.82-.9l3.6-1.86c.27.4.93.45 1.22-.15.12-.68-.5-1.05-.96-.8a.66.66 0 0 0-.31.83l-3.6 1.86a.66.66 0 0 0-.87-.23c-.47.24-.53.95.1 1.25m-40.16.06c.53.4 1.1.06 1.14-.43h4.06c.04.49.61.83 1.14.43.43-.55.04-1.16-.48-1.16a.66.66 0 0 0-.66.6H6.29a.66.66 0 0 0-.66-.6c-.52 0-.9.6-.48 1.16"/><path d="M12.85 4.23c-.67.02-.9.63-.64 1.04L9.03 7.8c-.34-.36-1-.27-1.16.37 0 .7.68.94 1.1.61.27-.21.32-.6.14-.88l3.18-2.52c.24.25.62.28.9.07.4-.33.33-1.04-.34-1.21M7.45 26.4c-.66.05-.87.67-.58 1.07L3.8 30.12c-.36-.33-1-.22-1.15.43.04.7.73.9 1.13.56.26-.23.3-.61.1-.89l3.06-2.66c.25.23.63.25.9.02.39-.35.28-1.06-.4-1.2M20 22.49c-.61.28-.6.94-.19 1.22l-1.98 3.54c-.45-.2-1.02.13-.93.79.27.64 1 .6 1.25.14a.66.66 0 0 0-.2-.87l1.97-3.54c.31.13.68.02.85-.28.26-.46-.09-1.1-.77-1"/><path d="M3.34 30.98c.34.57.99.48 1.22.05l3.75 1.55c-.15.47.25 1 .9.83.6-.34.47-1.05-.01-1.25a.66.66 0 0 0-.84.3L4.6 30.91a.66.66 0 0 0-.38-.81c-.49-.2-1.07.21-.9.88m23.7-24.27c-.54.38-.4 1.03.05 1.23l-1.3 3.84c-.48-.11-.98.32-.77.95.39.58 1.09.4 1.25-.09a.66.66 0 0 0-.36-.82l1.3-3.84c.33.07.67-.1.78-.44.17-.5-.29-1.05-.95-.83m-9.08 21.26c-.52.42-.33 1.05.14 1.22l-.98 3.93c-.49-.07-.95.4-.7 1.01.44.54 1.12.32 1.25-.2a.66.66 0 0 0-.43-.78l.98-3.93c.34.05.66-.16.74-.5.13-.5-.37-1.03-1-.75M43.49 7.88c-.49.46-.26 1.07.22 1.2l-.73 4c-.5-.04-.93.45-.63 1.05.47.51 1.13.25 1.23-.27a.66.66 0 0 0-.48-.76l.73-3.99c.34.03.65-.2.71-.54.1-.52-.43-1-1.05-.69M8.05 27.77c.66-.07.85-.7.55-1.1l2.96-2.77c.37.33 1.01.18 1.13-.47-.07-.7-.77-.87-1.15-.51a.66.66 0 0 0-.07.89l-2.96 2.77a.66.66 0 0 0-.9.01c-.38.36-.24 1.07.44 1.18m19.36-.64c-.65-.1-1 .47-.8.92l-3.58 1.91c-.28-.4-.93-.44-1.22.16-.11.69.51 1.04.98.8.3-.17.43-.53.3-.85l3.57-1.9c.2.28.56.38.87.21.46-.24.52-.96-.12-1.25M8.01 15.74c.4-.53.07-1.1-.42-1.14v-4.06c.49-.04.82-.61.43-1.14-.55-.43-1.16-.04-1.16.48 0 .35.26.63.6.66v4.06a.66.66 0 0 0-.6.66c0 .52.6.9 1.16.48"/><path d="M15.24 27.52c-.37-.55-1.01-.44-1.23 0l-3.8-1.4c.13-.48-.29-1-.93-.8-.58.36-.44 1.07.06 1.25.32.12.68-.03.83-.34l3.8 1.42c-.09.32.08.67.4.8.5.17 1.07-.26.87-.93m22.28 3.56c-.55-.37-1.1 0-1.12.48l-4.05.21c-.07-.48-.66-.79-1.17-.37-.4.58.02 1.16.55 1.14.34-.02.61-.3.63-.64l4.05-.2c.05.33.34.58.69.56.52-.03.87-.65.42-1.18"/><path d="M28.1 34.2c.66.08.99-.5.79-.94l3.52-2.02c.28.4.94.42 1.2-.2.1-.68-.54-1.02-1-.76a.66.66 0 0 0-.27.85l-3.52 2.02a.66.66 0 0 0-.87-.2c-.46.27-.49.98.15 1.25m17.5-11.27c-.53-.4-1.1-.06-1.14.43H40.4c-.05-.49-.61-.83-1.14-.43-.43.55-.04 1.16.48 1.16.35 0 .63-.27.66-.6h4.06c.03.33.31.6.66.6.52 0 .9-.6.48-1.16m-23.65-7.32c.4-.53.06-1.1-.43-1.14V10.4c.49-.05.82-.61.43-1.15-.56-.42-1.16-.04-1.16.49 0 .35.26.63.6.66v4.06a.66.66 0 0 0-.6.66c0 .52.6.9 1.16.48m16.18 15.5c.63.18 1.05-.34.92-.81l3.79-1.44c.22.44.87.56 1.22 0 .2-.67-.37-1.1-.86-.91a.66.66 0 0 0-.4.8L39 30.16a.66.66 0 0 0-.83-.33c-.5.19-.63.89-.04 1.26m-24.44.44c-.16-.64-.82-.73-1.16-.38l-3.16-2.54c.27-.41.04-1.03-.63-1.05-.67.16-.75.88-.34 1.2.27.22.65.2.89-.05l3.16 2.54a.66.66 0 0 0 .14.88c.4.33 1.09.1 1.1-.6"/><path d="M30.19 31.48c-.53-.4-1.1-.07-1.15.42l-4.06-.03c-.04-.49-.6-.83-1.14-.43-.43.54-.05 1.15.48 1.16.34 0 .63-.26.66-.6l4.06.03c.03.34.3.6.65.6.53.01.92-.6.5-1.15M17.22 34.7c.09-.66-.49-.99-.94-.79l-2-3.52c.4-.29.41-.95-.2-1.21-.68-.1-1.02.54-.76 1 .17.3.54.4.85.27l2 3.52a.66.66 0 0 0-.2.88c.27.45.98.49 1.25-.15m30.23-21.91c-.4.53-.06 1.1.43 1.14V18c-.49.05-.82.61-.43 1.15.55.42 1.16.03 1.16-.5a.66.66 0 0 0-.6-.65v-4.06c.34-.03.6-.31.6-.66 0-.52-.6-.9-1.16-.48m9.6 21.49c-.24-.62-.9-.63-1.2-.24l-3.44-2.14c.22-.44-.09-1.03-.75-.97-.65.24-.64.96-.2 1.24.3.18.68.1.88-.16l3.45 2.13c-.15.3-.05.68.24.87.45.27 1.1-.04 1.03-.73m-7.08-24.22c.4-.53.06-1.1-.43-1.14V4.86c.49-.05.82-.61.43-1.15-.56-.42-1.16-.03-1.16.5 0 .34.26.62.6.65v4.06a.66.66 0 0 0-.6.66c0 .52.6.9 1.16.48M39.97 17.9c-.35-.56-1-.45-1.23-.01l-3.78-1.46c.13-.48-.27-1-.91-.82-.6.36-.46 1.07.03 1.26.33.12.68-.02.84-.33l3.78 1.47c-.1.32.07.67.4.8.49.19 1.06-.24.87-.9m-9.8-15.39c-.62-.23-1.07.25-.98.73l-3.9 1.13c-.18-.46-.82-.63-1.22-.1-.25.65.29 1.13.79.98.33-.1.53-.43.47-.76l3.9-1.12c.12.31.46.49.8.4.5-.15.7-.84.14-1.26"/><path d="M45.28 10.54c.66.1 1-.47.8-.92l3.56-1.95c.28.4.94.43 1.21-.17.11-.69-.52-1.04-.98-.79a.66.66 0 0 0-.29.85l-3.56 1.95a.66.66 0 0 0-.86-.22c-.47.26-.51.97.12 1.25m8.23 8.23c-.53-.4-1.1-.06-1.14.43H48.3c-.05-.49-.61-.83-1.15-.43-.42.55-.04 1.16.49 1.16.35 0 .63-.27.66-.6h4.06c.03.33.31.6.66.6.52 0 .9-.6.48-1.16M31.96 36.6c.66-.07.85-.7.55-1.1l2.96-2.76c.37.32 1.01.18 1.13-.47-.07-.7-.76-.88-1.15-.52a.66.66 0 0 0-.07.9l-2.96 2.76a.66.66 0 0 0-.9.02c-.38.35-.24 1.06.44 1.17m-21.55-9.82c-.2-.64-.87-.69-1.19-.31l-3.31-2.34c.24-.43-.03-1.03-.7-1.01-.66.2-.7.92-.26 1.23.28.2.66.14.89-.12l3.31 2.34c-.17.3-.09.67.2.87.42.3 1.09.03 1.06-.66m-3.16-12.7c-.66-.03-.94.57-.7 1l-3.36 2.28c-.32-.38-.97-.34-1.19.3-.04.69.62.97 1.05.68.29-.2.37-.58.21-.87l3.35-2.28c.22.26.6.32.89.12.43-.3.4-1-.25-1.23M43.1 33.34c.6-.28.58-.93.17-1.2l1.92-3.58c.46.2 1.02-.15.92-.8-.28-.64-1-.59-1.25-.13-.16.3-.06.68.22.87l-1.92 3.57a.66.66 0 0 0-.85.3c-.24.46.1 1.09.8.97M39.55 8.17c.53.4 1.1.06 1.15-.43h4.05c.05.49.62.83 1.15.43.42-.55.04-1.16-.49-1.16a.66.66 0 0 0-.66.6H40.7a.66.66 0 0 0-.66-.6c-.53 0-.91.6-.49 1.16m1.25 8.58c-.4.53-.06 1.1.43 1.14v4.06c-.49.04-.83.61-.43 1.14.55.43 1.16.04 1.16-.48a.66.66 0 0 0-.6-.66v-4.06c.33-.03.6-.31.6-.66 0-.52-.6-.9-1.16-.48m-20.2-.46c-.64.2-.69.86-.32 1.18l-2.32 3.33c-.43-.25-1.03.03-1 .69.2.66.92.7 1.22.27a.66.66 0 0 0-.12-.9l2.33-3.31c.3.16.67.08.87-.2.3-.43.03-1.1-.67-1.06M39.8 31.3c-.31-.58-.97-.52-1.22-.1l-3.67-1.72c.16-.46-.2-1-.86-.87-.61.32-.52 1.03-.05 1.26.31.14.68.02.86-.27l3.67 1.72c-.12.32.03.68.34.82.48.23 1.08-.16.93-.84m17.6-1.58c-.1-.65-.74-.8-1.11-.49l-2.9-2.83c.3-.39.13-1.02-.53-1.11-.68.1-.83.8-.46 1.17.25.24.64.25.9.03l2.9 2.83c-.21.26-.2.65.05.9.38.36 1.07.2 1.16-.5m-6.04 4.55c.61-.25.61-.91.21-1.2l2.07-3.5c.44.21 1.02-.1.95-.77-.26-.64-.98-.62-1.25-.17-.17.3-.09.68.19.88l-2.07 3.5a.66.66 0 0 0-.85.25c-.27.46.06 1.1.75 1.01"/><path d="M41.52 22.51c.66.08.98-.5.77-.95l3.5-2.04c.3.4.95.4 1.21-.21.09-.69-.55-1.02-1-.76a.68.68 0 0 0-.27.86l-3.5 2.04a.66.66 0 0 0-.87-.18c-.46.26-.48.98.16 1.24m-32.05-11c-.13-.64-.78-.77-1.14-.43L5.3 8.38c.3-.4.09-1.02-.57-1.08-.68.13-.8.84-.4 1.19.25.23.64.22.89-.01l3.03 2.7c-.2.27-.17.65.1.88.38.35 1.07.15 1.12-.54M41.44 28.1c-.54-.4-1.1-.06-1.15.43h-4.06c-.04-.5-.61-.83-1.14-.43-.43.55-.04 1.16.48 1.16.35 0 .63-.27.66-.6h4.06c.03.33.31.6.66.6.52 0 .9-.61.49-1.16"/><path d="M3.26 7.76c.53.4 1.1.06 1.14-.43h4.06c.05.49.61.82 1.15.43.42-.56.04-1.16-.49-1.16a.66.66 0 0 0-.66.6H4.4a.66.66 0 0 0-.66-.6c-.52 0-.9.6-.48 1.16m28.66 3.26c-.4.53-.06 1.1.43 1.14v4.06c-.49.05-.82.61-.43 1.14.55.43 1.16.04 1.16-.48a.66.66 0 0 0-.6-.66v-4.06c.34-.03.6-.31.6-.66 0-.52-.6-.9-1.16-.48m16.5-4.13c.63.19 1.04-.32.92-.8l3.8-1.4c.22.45.87.57 1.23.01.21-.66-.36-1.1-.85-.92a.66.66 0 0 0-.42.8l-3.8 1.4a.66.66 0 0 0-.83-.35c-.5.18-.65.89-.06 1.26m-32.22 9.5c-.13-.65-.77-.78-1.13-.45l-3.01-2.72c.3-.4.1-1.02-.56-1.09-.69.13-.81.84-.42 1.19.26.23.64.22.9 0l3 2.72c-.2.27-.17.66.08.89.4.35 1.09.16 1.14-.53M.87 31.37c.6-.27.57-.93.17-1.2l1.93-3.57c.45.19 1.02-.15.93-.8-.29-.64-1-.6-1.25-.13-.17.3-.07.68.21.87L.93 30.1a.66.66 0 0 0-.85.3c-.25.46.1 1.08.79.97"/><path d="M6.15 7.25c-.28-.6-.94-.56-1.21-.15L1.35 5.2c.19-.45-.16-1.01-.81-.9-.63.28-.58 1-.11 1.24.3.16.68.06.86-.22L4.88 7.2c-.13.31 0 .68.3.84.47.25 1.09-.11.97-.8m28.53 19.67c-.65-.11-1 .45-.82.9l-3.6 1.87c-.26-.41-.92-.45-1.21.15-.12.68.5 1.05.96.8a.66.66 0 0 0 .31-.84l3.6-1.86c.19.28.56.39.87.23.46-.24.52-.96-.1-1.25M6.02 28.53c.09-.65-.48-.99-.93-.8L3.14 24.2c.4-.28.42-.94-.18-1.21-.7-.1-1.04.52-.78.98.17.3.53.43.85.29l1.96 3.55a.66.66 0 0 0-.21.87c.25.46.97.5 1.25-.14m9.46-16.23c-.35-.57-1-.45-1.22-.01l-3.8-1.44c.14-.47-.27-1-.91-.8-.6.36-.45 1.06.04 1.25.33.12.68-.03.83-.33l3.8 1.44c-.1.32.08.67.4.8.49.18 1.06-.25.86-.91"/><path d="M16.83 6.42c-.6.3-.54.96-.13 1.22l-1.78 3.64c-.46-.17-1.02.19-.9.84.31.62 1.03.55 1.26.08a.66.66 0 0 0-.25-.86l1.79-3.64c.32.12.68-.02.83-.33.23-.47-.14-1.08-.82-.95M36.2 18.35c-.01-.66-.62-.9-1.04-.64l-2.49-3.2c.36-.34.27-1-.37-1.17-.69 0-.93.68-.61 1.1.21.27.6.33.88.14l2.5 3.2a.66.66 0 0 0-.08.9c.32.41 1.04.34 1.21-.33m-21.1 9.12c-.64.2-.69.86-.32 1.18l-2.34 3.3c-.43-.24-1.03.03-1.01.7.2.66.92.7 1.22.27a.66.66 0 0 0-.1-.89l2.34-3.3c.3.16.67.08.87-.2.3-.43.03-1.1-.66-1.06M48.9 14.8c.17.64.83.73 1.17.37l3.2 2.5c-.27.4-.03 1.02.64 1.03.67-.17.74-.89.33-1.2a.66.66 0 0 0-.9.06l-3.2-2.5a.66.66 0 0 0-.15-.87c-.41-.32-1.09-.08-1.1.61m-26.91-2.9c-.5.45-.29 1.07.18 1.22l-.85 3.96c-.49-.05-.94.43-.66 1.04.45.52 1.13.28 1.24-.24a.66.66 0 0 0-.46-.77l.85-3.96c.34.03.66-.19.73-.52.11-.52-.4-1.02-1.03-.72m-10.5 2.88c-.4.53-.07 1.1.42 1.15V20c-.49.05-.82.62-.42 1.15.55.42 1.15.04 1.15-.49a.66.66 0 0 0-.6-.66v-4.05c.34-.04.6-.32.6-.66 0-.53-.6-.91-1.15-.49"/><path d="M20.75 17.46c-.24.62.24 1.07.73.98l1.12 3.9c-.46.18-.62.82-.1 1.22.65.25 1.13-.28.98-.79a.66.66 0 0 0-.76-.47l-1.12-3.9c.31-.12.5-.46.4-.8-.15-.5-.84-.7-1.25-.14m-10.5 17.61c-.42-.52-1.06-.34-1.23.13L5.1 34.17c.08-.48-.39-.95-1-.7-.55.42-.33 1.1.18 1.24.33.09.67-.1.79-.42l3.92 1.03c-.05.33.15.66.49.75.5.13 1.03-.36.76-1M3.78 8.23c-.52.42-.33 1.05.13 1.21l-.98 3.94c-.48-.08-.95.4-.7 1 .44.55 1.12.32 1.25-.18a.66.66 0 0 0-.43-.8l.99-3.93c.33.05.66-.16.74-.5.13-.5-.37-1.02-1-.74m11.41 17.9c.64-.19.71-.84.35-1.18L18 21.72c.42.26 1.03 0 1.03-.66-.18-.66-.9-.73-1.21-.3a.65.65 0 0 0 .08.88l-2.45 3.24a.66.66 0 0 0-.88.16c-.32.42-.06 1.09.63 1.09M25.24 12.4c-.4.53-.06 1.1.43 1.14v4.06c-.49.04-.82.61-.43 1.14.55.43 1.16.04 1.16-.48a.66.66 0 0 0-.6-.66v-4.06c.34-.03.6-.31.6-.66 0-.52-.6-.9-1.16-.48M4.95 36.04c-.47.47-.22 1.08.26 1.2l-.6 4.01c-.49-.02-.9.49-.59 1.07.49.5 1.14.21 1.22-.3a.66.66 0 0 0-.5-.75l.6-4.01c.33.02.64-.22.69-.57.07-.52-.47-.98-1.08-.65"/></g></svg>