<svg xmlns="http://www.w3.org/2000/svg" xml:space="preserve" viewBox="0 0 30.581144 71.922165"><g fill="#231f20"><path d="M11.366054 70.75227344c.59725452.29068712 1.09149616-.14605 1.04633972-.635l3.98391836-.75953142c.13758333.47131022.75812118.69567689 1.20614805.20566856.31185642-.62018333-.17850643-1.14476211-.69426663-1.04669166-.34043142.06491288-.56726664.37817954-.53586854.71649166l-3.983921.75917953c-.09489546-.32596666-.42121665-.53375453-.76164543-.46884166-.51576285.098425-.77893329.76693712-.26070452 1.22872499m8.75523932.09666023c.55315641-.36724167.42686021-1.01494166-.0176477-1.22343332L21.466427 65.8056235c.47624997.12029546.98389805-.3012731.78845829-.9359212-.37676665-.58314166-1.07773518-.42615378-1.25412494.06879167-.11641666.3263212.03880644.68050832.34607499.82444166l-1.36278137 3.81987949c-.32949355-.08325644-.67380376.09277879-.79022042.4191-.17638976.49459355.26669998 1.06009544.92745185.84701855"/><path d="M14.9075917 70.30953557c.65299164-.12065.79127875-.76587878.46425377-1.13206211l2.7534313-2.97779807c.39087687.29739166 1.02340828.10936023 1.09255184-.55103976-.117475-.68438712-.82373519-.81526855-1.1803935-.42932879-.23495.2543519-.2314231.64099545-.00529167.89429166l-2.7534313 2.97744352c-.27022688-.20566856-.65616663-.17921023-.89146852.07514167-.35665831.38593976-.17074355 1.07985188.52034808 1.14335188m-.08748976 1.60725642c.66075186.06738143.97472495-.51329166.76341019-.95638143l3.4783896-2.08562043c.29174808.39511022.95144161.39193522 1.20332493-.22260454.079375-.68967878-.56197497-1.01317688-1.01247305-.74330189-.29703711.1781519-.40216665.55033333-.25611666.8568981L15.51825 70.85140223c-.20143786-.2734019-.57926284-.3559519-.8766545-.1778-.45049543.269875-.46707687.98813143.17850644 1.24318976m-5.58094329-2.20203975c.62829543-.21554545.66992497-.87418332.29245189-1.18815377l2.28529344-3.3503314c.43038975.23636023 1.02834805-.04268523.99977306-.70626022-.21695833-.65934166-.93486019-.68474166-1.2308416-.250825-.19508523.2861019-.13476023.66816022.12629355.88547045l-2.28529345 3.3503314c-.29774355-.16368977-.67521663-.08078523-.8706564.20566856-.29597877.43391666-.01023937 1.09290642.68297951 1.05409998"/><path d="M13.73142889 71.00733177c.39722952-.53198977.06067953-1.09960832-.42791855-1.14652953v-4.05553328c.48859808-.04691856.82514807-.61453712.42791855-1.14652688-.5510371-.422275-1.1581685-.03915834-1.1581685.48612689 0 .34642953.26528975.6279462.60324996.66039999v4.05553328c-.33796021.03245644-.60324997.3139731-.60324997.6604 0 .52528786.6071314.90875642 1.1581685.48612953"/><path d="M14.2814103 67.99355037c-.6364102-.1901481-1.05339351.32138143-.92886473.79621855l-3.8075286 1.39699998c-.2123731-.44273522-.8611314-.56338522-1.22378781-.00706437-.20707878.66251666.36194998 1.10066665.85513329.92004355.32526286-.11959167.49812308-.46531477.41239808-.79375l3.80753125-1.39699997c.14675378.30621022.50235376.45825832.82761662.33901856.49318331-.180975.64381853-.88300189.0575019-1.25447688m1.68169158-1.68062273c.63535186.193675 1.05551017-.31503144.93415639-.79092689l3.81599526-1.37301286c.20990454.4441481.8576045.56867954 1.22378782.01447271.21131211-.66110643-.35524809-1.10278332-.84948973-.92498332-.32596665.1171231-.50094354.46213976-.41698331.79128143l-3.81634981 1.3730102c-.14499166-.30726855-.4995333-.46143332-.82549996-.34431022-.49424164.1778-.64946474.87912045-.06561666 1.25447688m-10.35790781-.92040603c.53234164.39758144 1.09960827.06103144 1.14652683-.42791855h4.05588767c.04691857.48895.6141852.82549999 1.14617495.42791855.42262687-.55068522.03915833-1.15816854-.48612952-1.15816854-.34642688 0-.62759164.26528976-.66004543.60324999H6.7517209c-.03245379-.33796023-.31361854-.60325-.66039996-.60325-.5249333 0-.90840185.60748333-.48612687 1.15816855m16.19073441-4.18535374c-.0352769.66322045.5595064.94826666.99236472.71578523l2.25178132 3.37326018c-.38064808.3104462-.34537119.96943332.28045832 1.19097953.69285376.04586023.98495375-.61030643.6932083-1.0470462-.19226476-.28821856-.5690314-.37500189-.86818783-.21448712l-2.25177868-3.37290829c.26317045-.21484166.32737688-.5961962.13511212-.88441476-.29174544-.43673712-1.00964995-.41839356-1.23295827.23883143m7.62705605-3.44381662c-.39758141.53198977-.06103143 1.09960832.42791854 1.14652688v4.05588518c-.48894997.0469212-.82549995.61418787-.42791854 1.14617499.5506852.42262953 1.1581685.03915833 1.1581685-.4861269 0-.34642688-.26528975-.62794355-.60324996-.66004809v-4.05588518c.3379602-.03245379.60324997-.31361856.60324997-.66039999 0-.52528522-.6074833-.90840188-1.1581685-.48612689"/><path d="M9.01091056 66.17780229c.63993974.1770962 1.04633972-.34254546.91263518-.81491666l3.77860436-1.47319998c.22119165.43815.87241851.5457481 1.22378516-.01799167.1933231-.66639545-.38452687-1.09325832-.87383139-.90240378-.32279165.12594167-.48859543.47519166-.39616854.80186212l-3.7786017 1.47319998c-.15275454-.30303523-.51152952-.4480269-.83432117-.32208523-.48930188.1908519-.62582687.89605643-.0321019 1.25553522m11.38590132-9.80792678c-.39757877.53198977-.06067689 1.09960832.42792119 1.14652953v4.05553064c-.48859808.0469212-.82549996.61453976-.42792119 1.14652953.55068785.422275 1.15817115.03915833 1.15817115-.48612954 0-.3464269-.26528975-.62794355-.60324997-.6604v-4.05553063c.33796022-.03245643.60324997-.3139731.60324997-.66039999 0-.52528787-.6074833-.90875643-1.15817115-.48612954m-5.46064518-1.53070187c-.62406474.22754166-.65334618.88653142-.27022953 1.19379998l-2.22214534 3.39266473c-.4342712-.2286-1.02693783.06173523-.98601473.72460378.22930643.65510833.94756019.6671019 1.23507494.2278962.1901481-.28998332.12241477-.67063142-.1425231-.88300452l2.2217961-3.39266208c.30056665.15804356.67662686.06773333.86677496-.2218981.2875121-.43956023-.01058333-1.09290643-.7027333-1.0414m13.6468531 9.54687035c-.53198974-.39757879-1.09960827-.0606769-1.14652683.4279212h-4.05553313c-.04691856-.4885981-.61453974-.82549999-1.14652684-.4279212-.42262952.55068786-.03915833 1.15817119.48612687 1.15817119.34642688 0 .62794353-.26528977.66039997-.60325h4.05553313c.03245379.33796023.31397044.60325.66039996.60325.5252852 0 .90875375-.60748333.48612687-1.1581712"/><path d="M12.0021123 62.08593378c.3517212.56338522 1.00259616.45543522 1.22378782.01693333l3.77966004 1.47037688c-.1337019.4727231.27340188.99201286.91334162.81456476.59337307-.36018523.45614164-1.06538976-.03316023-1.25553522-.32314619-.12558977-.68156663.01939396-.83432116.32279167l-3.77966004-1.47037953c.09242689-.327025-.07373144-.67627499-.39652309-.80186211-.48965376-.1905-1.06715184.23671212-.87312495.90311022"/><path d="M16.29965186 61.94552734c-.25470642-.61347878-.91439995-.61383333-1.20438327-.21766212l-3.48720816-2.07009998c.2091981-.44449999-.10724356-1.02340832-.76764352-.95320642-.64452497.25788143-.62477118.97578332-.17321477 1.2438962.2980981.17674166.67556853.09242689.87594806-.18168144l3.48720816 2.07045187c-.14463976.30726855-.0381.67874355.25999545.85583976.45155641.26811022 1.09149615-.05856288 1.00929805-.74753787m-2.24684156 5.3992647c.66286854-.04621477.87312496-.67168976.58949164-1.07244355l3.07304795-2.64689163c.35454165.339725 1.00435829.22436666 1.14793707-.42403976-.03951023-.69320833-.72636853-.90311022-1.12430184-.56021023-.26246665.2261288-.30268332.61065833-.10653976.88794166l-3.0730453 2.64689163c-.24518143-.23495-.63147308-.25223787-.89393973-.02611437-.39793332.3429-.29209999 1.05304165.38734998 1.19485832m10.6083809-12.15882904c-.16615832.64311212.3605371 1.04069355.83079162.89887689l1.53740372 3.75284995c-.43462308.2286-.53093141.88159165.03880643 1.22307878.66957043.18238787 1.08655374-.40287046.88723519-.88899735-.13123333-.3203231-.48330641-.48048333-.80856663-.38205833l-1.53740371-3.7532045c.30056665-.15804355.43920831-.51893521.30797498-.8396102-.1993212-.4861269-.90663972-.61065834-1.2562416-.0109273"/><path d="M15.77789355 66.5009485c.3425481.56902878.99518518.47166211 1.22308138.03668712l3.75531837 1.53176285c-.14111022.4702519.25717499.99624355.89993519.82937878.59937117-.35066022.47378141-1.05762688-.0127-1.25624165-.32067499-.13087879-.68156664.00846667-.8392583.30938787l-3.75531837-1.53176285c.09771856-.32526023-.06279356-.67697879-.38346854-.80786022-.48648141-.19861477-1.07103328.219075-.88758973.8886481m-7.00475608-7.44290635c-.5316352.39793333-.36935832 1.0375212.08607954 1.22061286l-1.14688138 3.89007874c-.48224808-.09348523-.96555185.3559519-.7348352.97860643.40851665.56091665 1.09960828.365125 1.24847873-.13864167.0977212-.33231666-.07690378-.67733332-.3919352-.80398143l1.14723327-3.89007874c.33337498.06455833.66710186-.13052954.76517496-.4628462.14851856-.50376666-.32561475-1.04316211-.97331472-.79375m16.65287416-1.46614354c-.32667044.57855643.079375 1.09854999.57008974 1.08267499l.51646664 4.02272495c-.47871854.10865379-.7404814.71472689-.27834165 1.19168332.60007497.34889545 1.15358328-.10865644 1.08690828-.62970833-.0440981-.34360643-.34325453-.58913976-.68262497-.57820453l-.51646664-4.02237041c.33125832-.07549356.55844543-.38840833.51434998-.73201476-.066675-.5210519-.71790186-.82373522-1.21038138-.33478523m-8.5707348 2.17699164c-.07090833.6604.50799998.97719355.95214806.76870189l2.06621846 3.48967685c-.39652309.28963143-.39722688.94932499.21589999 1.20473786.68932686.0829019 1.01670638-.55633143.74894806-1.00823976-.17638976-.29845-.54821664-.40534166-.85548783-.26105643l-2.06621846-3.49002875c.27446022-.200025.35912688-.57714355.18273976-.87524165-.26740642-.45226023-.98566282-.4727231-1.24424804.17145"/><path d="M11.62040853 59.72620501c-.53234164-.39758143-1.09960827-.06103143-1.14652948.42791856H6.41799403c-.04691856-.48895-.6141852-.82549999-1.14652684-.42791856-.42227498.55068523-.03915833 1.15781401.48612687 1.15781401.34678142 0 .62794353-.26493523.66039997-.60289545h4.05588502c.03245644.33796022.3136212.60289545.66004807.60289545.5252852 0 .9087564-.60712878.48648141-1.157814"/><path d="M11.17096879 61.96881067c.39758141-.53198711.06103143-1.09960832-.42791855-1.14652688v-4.05553328c.48894998-.04691856.82549996-.61453712.42791855-1.14652688-.5506852-.4226269-1.1581685-.03915833-1.1581685.48612689 0 .34642954.2652871.6279462.60324996.66039999v4.05553328c-.33796286.03245644-.60324997.3139731-.60324997.6604 0 .52528522.6074833.90840188 1.1581685.48612688m8.49065602-1.8714852c-.53198975-.39757879-1.09960828-.0606769-1.14652949.4279212h-4.05553313c-.04691856-.4885981-.6145371-.82549999-1.14652684-.4279212-.42262687.55068787-.03915833 1.15816855.48612688 1.15816855.34642952 0 .62794617-.26528713.66039996-.60324735h4.05553313c.03245644.33796022.31397309.60324735.66039997.60324735.52528785 0 .90875639-.60748068.48612952-1.15816855m5.10716186 4.8725666c.66392951.02328334.93803783-.57714355.69779618-1.00541665l3.33092672-2.31316474c.31749999.37465.97578329.32737954 1.18568517-.30268333.03316023-.69320568-.62829807-.97366401-1.0597435-.67380379-.28469166.1975538-.3644212.57608523-.19826287.87206666l-3.33127862 2.31351664c-.21942689-.25929167-.60183974-.31644166-.88617686-.11888788-.43144808.29950833-.40004998 1.01705833.26105378 1.2283731M8.8535708 55.47523196c-.60889353.26458333-.5983102.92463143-.19720189 1.20791022l-2.0129499 3.52072306c-.44732308-.20178977-1.02129161.123825-.94015184.78316665.2684621.64029166.98601207.60854166 1.2467166.1527519.17180189-.30091856.08113712-.67697878-.1961462-.87277045l2.012598-3.52107495c.30938522.1397.67944997.02681022.8516064-.27375644.26034999-.45614166-.07655454-1.09043521-.76447117-.99694999m5.55060616-10.75054986c-.39758142.53198976-.06103144 1.09925642.42756664 1.14617498v4.05588518c-.48859808.04692121-.82514806.61453977-.42756664 1.14652953.5506852.422275 1.1578166.03915833 1.1578166-.48612954 0-.34677878-.26493521-.62794355-.60324997-.66039999v-4.05588518c.33831476-.0321019.60324997-.31361855.60324997-.6600481 0-.52528521-.6071314-.90875377-1.1578166-.48612688m.77223139-6.55284802c-.53198974-.39757879-1.09960827-.0610288-1.14652948.4279212H9.97434574c-.04691856-.48895-.6145371-.82549999-1.14652684-.4279212-.42262687.55068787-.03915833 1.1581712.48612688 1.1581712.34642952 0 .62794617-.26528978.66039996-.60325h4.05553313c.03245644.33796022.31397309.60325.66039997.60325.52528785 0 .90875639-.60748333.48612951-1.1581712m-4.12503122-5.00450373c-.63182497-.20531667-1.06080185.29633333-.94791473.77399355L6.26312547 35.245897c-.20143786-.447675-.84702117-.5838481-1.22308138-.03633788-.22295642.65757954.33549165 1.10913332.8329083.94015453.32808331-.11147954.5090583-.45296666.43109354-.7835212L10.1440336 34.061622c.1397.30973713.49141854.4702519.81950185.358775.49741664-.16898144.6649852-.86748143.08784167-1.25306665m-2.66170819-2.20380451c-.66357497-.03175-.94544352.5647981-.71084807.9962462L4.3179089 34.22919055c-.31256286-.37888332-.97119805-.34007689-1.18992115.28716023-.04197879.69285643.61594997.98142953 1.0512795.68756476.2871602-.1940269.37182687-.5711481.20954998-.8695981l3.3612665-2.26941852c.21589999.26176022.59760376.32420189.88476662.130175.43532687-.29386477.41310188-1.01176666-.24518142-1.2315481M3.5770756 51.86278845c.6462871.1527519 1.03293329-.38205833.88123709-.84913787l3.72004148-1.61501664c.23777309.42933143.8925295.51223332 1.22237493-.0642038.1679231-.67345453-.42544997-1.07808975-.90734351-.86889165-.31785188.13828712-.47025187.49353522-.36547688.81632689l-3.72004148 1.61536854c-.1643962-.29703712-.5281083-.42827046-.84596283-.29033523-.48189354.2091981-.5916083.91898522.01516062 1.25588976m-.75034771-28.7933682c-.45402498.48436212-.18273976 1.08584998.29774355 1.18674354l-.45084998 4.03048518c-.49071475-.00775229-.88829352.51893523-.55244997 1.0918481.50023974.48118711 1.14652684.16756855 1.20473517-.35418977.03880643-.34431023-.193675-.6536981-.52599164-.7235481l.45084997-4.03048518c.3393731.00529167.63429618-.24482689.67309997-.58913711.05820833-.52211287-.5027083-.97049166-1.09713707-.61171666"/><path d="M4.64669601 18.38876387c-.61841853.24200643-.63217686.90169999-.24165188 1.19979809L2.2640359 23.03308237c-.43991475-.21836856-1.02517305.08607954-.96837495.74788976.24447499.64946477.96273139.644525 1.2400147.19826023.18309167-.29421666.10618523-.6731-.16368975-.87912045l2.14065633-3.44452306c.30444544.15063523.67803709.05185834.86112874-.24271022.27728332-.44591287-.03633522-1.09219999-.72707496-1.02411476m5.65008949-7.80203324c.66392686.0254.94015184-.57361666.70167496-1.00259355l3.34009983-2.30046474c.31608976.37606023.97437306.33125833 1.18709805-.29774356.03562879-.69320832-.62477118-.97613786-1.05727495-.67803976-.28539809.1964981-.36688975.5743231-.20178976.87136022L10.9264938 9.47936208c-.21836855-.2599981-.6007814-.31891287-.88617685-.12241476-.43250642.2980981-.40393142 1.01564809.25646855 1.22978331m1.44568326 17.88124524c-.6586352.08713787-.8297333.72425453-.5221102 1.10701665l-2.90336273 2.83174807c-.37464999-.3171481-1.01599995-.161925-1.11936207.49424166.08184356.68932689.78069542.85619165 1.15675827.48965643.24800189-.24200643.26422878-.6282981.0515038-.89288143L11.308904 29.6656573c.25929165.2194269.64593784.212725.89393972-.0289269.37606021-.36688976.22648333-1.0692712-.46037497-1.16875452m4.17371457 9.45726653c.6614583-.0606769.85760185-.69073711.56550186-1.08514354l3.01307485-2.71497687c.36194998.33196212 1.00894351.20214167 1.13806017-.44943976-.05467878-.6917981-.74612496-.88653143-1.1362954-.53481022-.25752952.231775-.28892498.61736022-.08678333.89005832l-3.01307484 2.71462496c-.2504731-.22930643-.63711664-.238125-.89429162-.00600604-.39052499.35136666-.26881666 1.05939166.4138083 1.18568522"/><path d="M13.6831001 30.67424894c.05326856.66216477.6808602.86536476 1.0787935.57785l2.68005177 3.04376662c-.33584355.3584231-.21342879 1.00682689.43638785 1.14335189.69250186-.04691857.89499541-.73589356.5478621-1.13029999-.22895189-.25999546-.6138333-.29597879-.88899996-.09701212L14.8571436 31.1681387c.23248143-.24765.24553332-.6342962.01658937-.89429166-.34713331-.39440643-1.05657115-.28081287-1.19062494.4004019m-2.89702066-17.12982857c-.09172046-.65757954-.73024997-.82408976-1.1105435-.5136462l-2.85361843-2.88184164c.31432499-.37711855.15416212-1.01741021-.5027083-1.11548331-.68862308.08713787-.85054807.78704809-.48083786 1.16028786.2437712.24623712.63006285.25929166.8932333.0448019l2.85362106 2.88184162c-.21731287.2607019-.20778787.6473481.03598333.89358522.3697102.37323977 1.07103328.2183712 1.1648704-.46954545m3.91548123 42.20386159c.66357497.0239977.93874163-.57573333.69920641-1.00435832l3.33480817-2.30787308c.31679354.37500454.97507684.32878977 1.18603706-.30091855.0342212-.69320833-.6268852-.9743731-1.05868518-.67556856-.28504354.1972019-.36547687.57537879-.19967309.87206666l-3.33480816 2.30787043c-.219075-.25964356-.6014852-.3175-.88617686-.12029546-.43215187.2988019-.40181475 1.01670378.25929166 1.22907688m3.67488504-18.36384787c-.40004998.5298731-.06632045 1.09925642.42227498 1.14829165l-.01905 4.05553328c-.48894997.04480454-.82832042.61065833-.4332102 1.14476476.54856853.4250981 1.1578166.04445 1.16028516-.48083522.00132292-.34642954-.26246665-.62900454-.60007496-.6632231l.01905-4.05553328c.33831475-.03104356.60466284-.31115.60642496-.65757689.00238125-.52528787-.60324997-.91157953-1.15569994-.4914212"/><path d="M10.06007074 34.97143412c.63747117-.18556023.71049617-.841375.34854619-1.17298522l2.44192677-3.23814806c.41839354.2568231 1.02869995.00635 1.03187495-.65792878-.18556022-.66886666-.90134806-.72848787-1.21743517-.30903333-.20849165.27657689-.16615832.66110378.08396023.89041022L10.30736883 33.721897c-.28963142-.1774481-.6706314-.11253787-.87947496.16404166-.31608975.4194519-.06208976 1.09114166.63217687 1.08549545m3.2215665-19.05775998c.08748977-.65828333-.48330377-.98954166-.93274351-.79198522l-1.97873134-3.54047685c.40393142-.2794.42086475-.9390962-.18591212-1.2093231-.6868583-.10018976-1.02975828.5305769-.77364162.98918977.16897878.30268333.5379852.41874545.84878329.28222045l1.97872869 3.54012496c-.27939999.1933231-.37359165.568325-.20461022.87065642.25646855.45861023.97366662.49706477 1.24812683-.14040643m-5.8582266-4.63620373c.6586352-.0853731.83149806-.72248977.52458141-1.10560643l2.91006198-2.82504352c.37394619.31785189 1.01564805.16439356 1.12042305-.4917731-.08043333-.68932689-.7785814-.85795643-1.15534805-.492125-.24870832.2413-.26599355.62759166-.05362045.89288143l-2.91006463 2.82469163c-.25858521-.21978143-.6452314-.21413787-.89393972.02716213-.37676665.36583143-.22895189 1.06891665.45790641 1.16981286M1.13091285 6.51214735c.53198975.39758143 1.09960828.06103144 1.14652949-.42756666h4.05553313c.04691856.4885981.6145371.8251481 1.14652684.42756666.42227497-.55068522.03915833-1.15781665-.48612688-1.15781665-.34642952 0-.62794617.26528977-.66039996.60325H2.27744234c-.03245644-.33796023-.31397309-.60325-.66039997-.60325-.52528785 0-.90875639.60713143-.48612952 1.15781665m20.7112304 40.80368661c-.43532688-.50165-1.06150828-.29351022-1.21108517.1742731l-3.96310624-.86289355c.05820833-.48753976-.42474354-.93697953-1.02905184-.66181286-.52987308.44838143-.28469165 1.12324619.22859999 1.23507498.33866665.07373144.66992496-.12558712.77364162-.44908522l3.9627517.86254165c-.04021666.33725644.17850643.65651856.51681854.7298981.51329164.11182879 1.01705828-.40005.7214314-1.0279962m-3.56376005-5.95594538c.3792352-.5453962.02328333-1.1010212-.46672498-1.13100642l-.13864166-4.05341662c.48683331-.0635.80362686-.64240832.38840832-1.16028521-.56514998-.40357954-1.15887495.00026458-1.14088328.52528522.01164167.34642689.28645378.61841855.62547497.63923332l.13864166 4.05341662c-.33654998.0440981-.59196285.33443333-.58032118.68050832.01799167.52493333.63817497.88758976 1.17404615.44626477"/><path d="M7.80441062 39.98581739c.63746853-.18626667.7094352-.84243332.34713332-1.17369165l2.43698965-3.24167496c.41874543.2564712 1.02905184.0049477 1.03081661-.65934166-.18626666-.66851212-.9020545-.727075-1.2177897-.30726856-.20813977.27693143-.1651.66145833.0853731.89041022l-2.43698966 3.24167496c-.28963142-.17709356-.6709833-.1114769-.87912306.16545454-.31538331.41980378-.060325 1.09114165.63358974 1.0844371m10.45915591 10.43552108c-.53198974-.39758143-1.09960828-.06103143-1.14652948.42791856h-4.05553313c-.04691856-.48895-.6145371-.82549999-1.14652684-.42791856-.42262687.55068523-.03915833 1.15816855.48612687 1.15816855.34642953 0 .62794618-.26528976.66039997-.60324999h4.05553313c.03245643.33796023.31397309.60325.66039997.60325.52528784 0 .90875639-.60748333.48612951-1.15816856M7.4636273 17.57631577c-.5122333-.42297878-1.09537494-.11394545-1.16593137.37182954l-4.05094526-.19579166c-.02328333-.49071477-.57397118-.85442953-1.12465638-.48295454-.44838141.5295212-.0948981 1.1549962.42968331 1.1803962.34607499.01658937.63993974-.2345981.68862307-.5707962l4.05094526.1961462c.01621896.33901856.28433975.61771212.63041474.63429355.5249333.0254.93697685-.56268143.54186664-1.13312309M9.32876244 6.83423258c-.62935376-.21201856-1.06397684.28469166-.95637874.76376476L4.51863768 8.86094088c-.19684999-.45014355-.84102041-.59337045-1.22272683-.04974166-.23001022.65475643.32349809 1.11266286.82232496.9489731.32949354-.10759811.51434997-.4473231.43991475-.77858144l3.85409526-1.26294354c.1358212.31115.48577498.47554355.81527117.36759355.49917876-.16333522.6741583-.86007044.10124545-1.25200831M6.1251876 22.55330548c.35948142.5588 1.00894616.4416769 1.22378782.00026459l3.79941647 1.41816664c-.127.47448787.28716022.98848333.92462875.80186477.5884333-.3679481.44167952-1.07138522-.05044546-1.25483143-.32455642-.12135379-.68121474.02892955-.8297333.33408144l-3.79941647-1.41816665c.08784167-.32808333-.08325643-.67521666-.40781285-.79621855-.49212498-.1837981-1.06362495.25117689-.86042496.91475188m1.33173781 20.05797229c-.30056665-.59266666-.95849806-.5425731-1.21743781-.12558977l-3.6343165-1.79987044c.17497954-.45861286-.18414999-1.01247309-.83749352-.89217498-.6230064.30585832-.54892307 1.02058521-.07831666 1.25341854.31044355.15381023.6805083.041275.85936662-.2472981l3.63431649 1.79987308c-.12065.3171481.01375833.67980189.32420188.83361476.47060641.23318523 1.08373328-.14111287.94967949-.8219731M5.89552928 15.00738891c.22436666.6251231.8833564.657225 1.19238971.27551856l3.38243316 2.23731664c-.23036475.43356476.05715 1.02764165.72037307.98954165.65616664-.22612879.6713352-.94438521.23318522-1.23401665-.28892499-.19120379-.66992497-.12523523-.8833564.13864167L7.157769 15.17707414c.15945643-.29986023.07126022-.676275-.21801666-.86747878-.43779808-.28998333-1.09290638.00529166-1.04422305.69779355"/><path d="M9.42648364 16.02585746c.36829999.55245 1.01599995.4247462 1.22343328-.02010833l3.82234526 1.35502119c-.11888522.47660189.30338976.98354355.93768329.78634166.58243784-.377825.42403975-1.07844166-.07126023-1.2537731-.32631854-.11571022-.6805083.04021667-.82373519.34783977l-3.8226998-1.35537308c.08255-.32914167-.09419166-.6734519-.42086475-.78916476-.49494808-.17568334-1.05939162.26881666-.84490186.92921665m7.15397844-6.06671849c-.61912497-.24059355-1.0759704.23600834-.99024541.71931477l-3.90736647 1.08620188c-.17603787-.45861022-.8131545-.63076666-1.21919994-.1051269-.2596462.64346666.27234355 1.12606666.77857875.98530833.33372953-.09278144.53375452-.42368787.47448785-.75776666l3.90771837-1.08620453c.12170833.3167962.46390187.49706476.7976314.40428333.5062352-.14075833.71296208-.828675.15839545-1.24601022m-8.16786172 7.80626657c-.64981663-.1361731-1.02270449.40851666-.85901473.87171476l-3.67735625 1.71026665c-.24870832-.42333333-.90522685-.48930454-1.21990373.0956019-.15098976.67733332.45296665 1.06644808.92921662.84490188.31432499-.14605.45755187-.5051769.34431021-.8255l3.67735626-1.71026664c.17180188.29280644.53904353.41451477.85301662.26846477.47624998-.22154356.56797043-.93380188-.047625-1.25518332m5.43771639 24.37306182c.5319871.39758143 1.09960828.06103144 1.14652684-.42756666h4.05553313c.04691856.4885981.61453974.8251481 1.14652684.42756666.42262952-.55068522.03915833-1.15781665-.48612687-1.15781665-.34642688 0-.62794353.26493787-.66039997.60325H14.9968436c-.03245643-.33831213-.31397309-.60325-.66039996-.60325-.5252852 0-.9087564.60713143-.48612688 1.15781665m-6.0578997 6.54826279c.52987043-.40075643.36406665-1.03963786-.09242954-1.22025831l1.12712495-3.8960795c.48259997.09066477.96378972-.36089166.72954617-.98248521-.41133975-.5588-1.10137305-.35948144-1.24742304.14534356-.09630833.3326712.08043333.67698143.39581664.80186476L7.5782792 47.43119229c-.33372688-.06279356-.66674997.13370454-.7630583.4663731-.14605.504825.33090642 1.04175189.97719616.78916476M3.4694775 24.96207212c-.49812307.43920833-.28504354 1.06362499.1837981 1.21002688l-.83114616 3.96945639c-.48789165-.05432954-.93380185.43215189-.65369543 1.03434355.4522602.52634355 1.12536017.2758731 1.23295827-.2384769.07126023-.3390212-.13088143-.66886665-.4550833-.76976286l.8314954-3.96980828c.33725643.0377481.65475641-.18344357.72566474-.52246212.1075981-.51435-.40816475-1.01388332-1.03399161-.71331666M18.202887 54.8599884c.63394163.19826024 1.05762948-.3076231.93979995-.78422498l3.8258748-1.3454962c.206375.44555834.85337117.574675 1.22343328.02328334.21589998-.65969355-.34748522-1.10560378-.8427852-.93133332-.32702497.11500644-.50447307.45861287-.4229814.78810643l-3.82587481 1.34584808c-.14252046-.30832953-.49600377-.46496287-.82302875-.35030833-.49529998.17427046-.65546285.87453522-.07443788 1.25412499M5.94809405 52.6371339c.6452314.15663333 1.03504995-.37606023.88582495-.84384356l3.72956648-1.59384998c.23530189.43109356.88935185.517525 1.22237494-.05715.17215643-.67239355-.41909998-1.08020642-.90205185-.87383142-.31891286.1361731-.47342952.49071476-.37041665.81421286l-3.72921458 1.59384998c-.16263143-.2980981-.52563974-.4314481-.84419806-.295275-.48295187.206375-.59689997.91545833.0081227 1.25588712"/><path d="M8.96222723 21.95569905c.6484064-.14357879.76376473-.79304355.42439165-1.1479371l2.64794986-3.07163784c.40075642.28363333 1.02623139.07337954 1.07244351-.58913712-.14111022-.67945-.85160375-.78563787-1.19450373-.38805643-.22613143.26246666-.2091981.64875832.02574396.89429165l-2.64794987 3.0716352c-.27728332-.19579167-.6618102-.1559269-.88794162.10653976-.34289998.39793333-.13335 1.08479165.5598583 1.12430188M7.47738564 34.852197c.53198974.39757878 1.09960828.06067689 1.14652684-.4279212h4.05553313c.0469212.48859809.61453974.82549998 1.14652948.4279212.42262687-.55068787.03915833-1.1581712-.48612952-1.1581712-.34642688 0-.62794353.26528977-.66039996.60325H8.62391248c-.0324538-.33796023-.31397045-.60325-.66039997-.60325-.5252852 0-.90840185.60748333-.48612687 1.1581712m12.5867577-22.37245995c-.53974998-.3869981-1.10066661-.03915834-1.13770828.45049545l-4.05482669.08043333c-.0564462-.48753712-.63076663-.81279999-1.1546416-.40498712-.41169165.5591519-.01621897 1.15887499.5090583 1.14829165.34642688-.00669395.62229997-.27763787.64805186-.61630453l4.0548267-.08043333c.03915833.33725643.32596664.5969.67239617.5898462.5249333-.01023938.89640829-.6251231.46284354-1.16734165m-4.80095166 38.71524307c-.1421712-.64875832-.79163329-.76552953-1.14688138-.42650833l-3.06810817-2.65253784c.28433975-.40040189.07514166-1.02622878-.58737498-1.07350188-.67980186.14040644-.78704806.8505481-.38946664 1.19415188.26211476.22648333.6484064.20990454.89393972-.02434167l3.06775364 2.65253785c-.19649545.27692878-.15698522.66145832.10512954.88829355.39722687.34325189 1.08443707.13476022 1.12500827-.55809356M.62256098 35.79764055c.53198975.39758143 1.09960828.06103143 1.14652684-.42791856h4.05553313c.0469212.48895.61453974.82549999 1.14652948.42791856.42262688-.55068523.03915834-1.15816855-.48612951-1.15816855-.34642688 0-.62794353.26528712-.66039997.60324999H1.76908782c-.03245379-.33796287-.31397044-.60325-.66039996-.60325-.5252852 0-.90840185.60748333-.48612688 1.15816856m15.93638253 8.93092299c-.08995832-.65793143-.7281333-.82585453-1.10948517-.51646666l-2.84585819-2.88924997c.31502878-.37641476.15663333-1.01670642-.49988785-1.1168962-.68897496.08537311-.85266208.78493144-.4840102 1.158875.24341665.2469462.6297083.26140832.89323328.0472731l2.8462101 2.88924996c-.21801667.26035-.20955.64699356.03351476.89393976.36865188.37394356 1.07068138.22083712 1.16628327-.466725M8.28595226 43.610609c-.53198974-.39757878-1.09960827-.06102878-1.14652683.42792121H3.0838923c-.0469212-.48895-.61453974-.82549999-1.14652949-.4279212-.42262687.55068787-.03915833 1.1581712.48612952 1.1581712.34642688 0 .62794353-.26528977.66039997-.60325h4.05553313c.03245379.33796023.31397044.60325.66039996.60325.5252852 0 .90840185-.60748333.48612687-1.1581712M3.15973775 31.4034406c.53198975.39758143 1.09925638.06103144 1.14617494-.42791856h4.05588767c.04691856.48895.6145371.8255 1.14652684.42791856.42227498-.55068522.03915833-1.15816855-.48612687-1.15816855-.34678142 0-.62794618.26528712-.66039997.60325H4.3059127c-.03210189-.33796288-.31361854-.60325-.66004542-.60325-.52528785 0-.9087564.60748333-.48612952 1.15816855m14.54114736-12.19940818c-.5633852.3517212-.4554352 1.0025962-.01693333 1.22378786l-1.47037682 3.77966018c-.47272308-.1337019-.99201283.2734019-.81456473.91334166.36018521.59337045 1.06538972.45614166 1.25553517-.03316023.12594166-.3231462-.01939396-.68156666-.32279166-.8343212l1.47037947-3.77966018c.32667044.0924269.67592043-.07373144.8015102-.396875.19049998-.48930189-.23636023-1.06679998-.9027583-.87277309M8.00972728 50.82809036c.06596856.66075188.69744163.85231021 1.08973138.55668332l2.7379082 2.9919083c-.32878976.36441856-.19402954 1.01035642.4586102 1.13453332.69144353-.0599731.88088519-.75318143.52599164-1.14053143-.23389165-.25576212-.61947686-.28398522-.89076472-.0797269l-2.7382601-2.99190829c.22754166-.25188333.23318522-.63888143-.00079374-.89429165-.35489355-.38735-1.06150828-.26035-1.18251017.42333333M.64302121 11.58085752c.66039997-.06914356.84913783-.70132045.55174618-1.09219999L4.17432747 7.736639c.36583142.3273769 1.01141472.18944167 1.13241661-.46355-.0631481-.69109165-.75706019-.87700642-1.14299994-.52069998-.25435188.23495-.28116476.62088976-.07549356.89111665L1.10868786 10.3951723c-.25294166-.22613143-.6399371-.23001022-.89429163.00494771-.3859371.35630379-.25541021 1.06256665.42862498 1.18074544"/><path d="M14.55975195 42.09895713c.04021666.66286856.66392686.87876855 1.06715184.59866477l2.6204332 3.09527041c-.34254544.3517212-.23283332 1.00224166.41451475 1.15146666.6932083-.03316023.90910829-.71825379.5697352-1.11936211-.22401211-.26423144-.6081871-.3076231-.88723518-.1139481l-2.6204332-3.09562497c.23706665-.24306477.25752688-.62935643.03386666-.89358522-.33937309-.40110832-1.05092495-.3012731-1.19803327.37711856m-2.95098508-16.14346457c-.31785453.58278977.09560189 1.09678787.58631664 1.07385643l.57537876 4.01461018c-.47730831.11606477-.72989542.72566476-.26105378 1.19591665.6050121.34007954 1.1521704-.12558712 1.07738328-.64558333-.04903787-.3429-.35136665-.58384545-.69073974-.56832499l-.5753814-4.01461018c.32984808-.08008143.5528045-.39616856.50341474-.73906855-.07443523-.5199962-.73024996-.81350643-1.2153185-.3167962M8.04571061 8.92126588c.18556022.6378231.84172685.7104962 1.17333971.34819167l3.23849984 2.44157497c-.2568231.4183962-.00600604 1.02869998.65792876 1.03152309.66886663-.18520833.72848784-.90099355.30903331-1.21743522-.27692877-.20849166-.66110375-.16615833-.89041018.08431213L9.29525032 9.16821209c.17779999-.28927954.11253522-.67063143-.16404166-.8791231-.41945452-.31608976-1.09114161-.06208976-1.08549805.6321769M14.55199172.215416c-.36018786.5580962.0144727 1.10102119.50517687 1.11442498l.27763522 4.04600828c-.4843621.08043333-.78140186.6695731-.34854355 1.17333976.5785564.3838231 1.1581685-.04021667 1.12218517-.56444356-.02362729-.3457231-.30762044-.60818976-.64699353-.61736286l-.27763521-4.04636018c.3351371-.05538523.58031853-.35418977.5566833-.69991022-.03598333-.523875-.66816284-.86501287-1.18850827-.4056962M9.04865866 14.81653702c-.59513784-.2949231-1.09219994.13864166-1.05022115.62794355l-3.98885813.73271856c-.13440833-.47236856-.7535333-.70096856-1.20508707-.21378334-.31608975.61806666.17074356 1.14617499.6875621 1.05127953.3407833-.06244166.56973784-.3742981.5404564-.71261286l3.98885813-.73271856c.09313333.3266731.41768975.536575.75847307.47413333.51646664-.0948981.78387042-.7616481.26881665-1.22696021m2.99367031 4.37973518c.65546284.1075981 1.00400639-.45296667.8202083-.9084019l3.59868769-1.87007497c.26705188.41239545.92604162.44908522 1.21461206-.1488731.12100454-.68333143-.49917877-1.04563332-.96519995-.803275-.30762044.15945644-.43497498.52458144-.30797499.83961023l-3.59868504 1.87007497c-.18450189-.28504356-.5566833-.390525-.86395186-.23071666-.46637308.24200643-.52634618.95779165.1023038 1.25165642m1.96250443 24.85001825c.24306212-.61841855-.23177498-1.07667688-.7154333-.99271665l-1.07173971-3.91159995c.45896475-.1742731.63358974-.81068333.10971477-1.2188481-.64276285-.26176022-1.12747949.26846477-.98848329.77505454.09136856.33407879.42156854.53551666.75600186.47730833l1.07173972 3.91159995c-.3171481.12065-.49882952.46213712-.40710642.79621855.13864166.50658976.82585185.71578522 1.24530637.16298333"/><path d="M5.4986543 27.41740542c.58631664.31220833 1.09608138-.10689166 1.06821282-.59725453l4.00861192-.61595c.12065.4758981.73272118.72213787 1.19803328.24835644.33408142-.60818976-.13722879-1.15040832-.65651853-1.07067878-.34219355.05256213-.58031853.35771402-.56091664.69673522l-4.00861457.61630189c-.08325379-.32914166-.4018121-.54856856-.74436019-.49600643-.5189352.07972954-.80574352.73836476-.30444809 1.2184962m1.16452115-4.71487495c.64064353.17533144 1.04563328-.3457231.91016662-.81773976l3.77436837-1.4844871c.22260189.43779545.8738314.54327688 1.22343328-.02151063.19155832-.66710189-.38734999-1.09219999-.87629996-.89993522-.32243976.127-.4871852.47695643-.39369998.803275L7.5271273 21.7666225c-.15416476-.30268333-.51293974-.44661666-.83537685-.31961666-.48894998.19226212-.6233583.89781855-.028575 1.25553521M4.34895246 49.94861537c.58067308-.32279167.50588331-.97825189.0790231-1.22131665l1.66087682-3.70028519c.4649602.15733713 1.00435828-.22260454.85971851-.87065642-.32949354-.61101023-1.0406935-.50976477-1.25588706-.03069167-.14181666.31608977-.01481666.68156666.28010378.84948976l-1.66052492 3.70028518c-.32173331-.10900833-.67874352.03915834-.82056018.3552481-.21519356.479425.18203332 1.07773522.85724995.91792689m11.57887252-4.93818327c.53234164.39758143 1.09960828.06103143 1.14652684-.42791856h4.05588503c.0469212.48895.61418784.82549999 1.14652948.42791856.42227498-.55068523.03880379-1.15816855-.48648141-1.15816855-.34642688 0-.62759164.26528712-.66004807.60324999h-4.05588503c-.03245643-.33796287-.31361855-.60325-.66039997-.60325-.5249333 0-.90840185.60748333-.48612687 1.15816856m-13.3208891-6.42972682c.46072688.47836666 1.07526662.238125 1.20085638-.23671477l4.00191003.6568731c-.03280833.49000833.47272308.91404545 1.06221472.60783522.5058833-.47483976.22612878-1.13629809-.29209999-1.22131665-.3421962-.05644356-.66287117.15980833-.74929996.48824356l-4.00226457-.65687045c.02256896-.33866667-.21201855-.64593787-.5538602-.70202954-.5185833-.08501856-.99518783.45226287-.6674564 1.06397953"/><path d="M12.28645206 20.86879073c.53198975.39758144 1.09960828.06067954 1.14652684-.42791855h4.05553313c.0469212.4885981.61453974.82549999 1.14652948.42791855.42262688-.55068522.03915834-1.15816854-.48612951-1.15816854-.34642688 0-.62794353.26528976-.66039997.60324999H13.4329789c-.03245379-.33796023-.31397044-.60325-.66039997-.60325-.5252852 0-.90875374.60748333-.48612687 1.15816855m4.8330562 4.44711661c-.66392951.00635-.91122496.61806666-.65228785 1.03505l-3.22579983 2.4585083c-.33337499-.36018523-.98883518-.28398523-1.1712204.35454166-.00211667.69426665.6709833.94473975 1.0886704.62653332.2755212-.2099019.33866665-.59160833.15945643-.88018143l3.22579984-2.45815376c.23071665.24906023.61524353.2892769.89076472.079375.4176871-.31855833.35454165-1.03399165-.31538331-1.21567309M8.23444583 6.32588069c.53198974.39758143 1.09960828.06103143 1.14652948-.42791856h4.05553313c.04691856.48895.6145371.82549999 1.14652684.42791856.42262688-.55068523.03915833-1.15816855-.48612687-1.15816855-.34642953 0-.62794618.26528712-.66039997.60325H9.38097531c-.03245643-.33796288-.31397308-.60325-.66039996-.60325-.52528785 0-.9087564.60748332-.48612952 1.15816855m6.39515611 23.66927016c-.5379852.3898212-.38488141 1.03187498.06773333 1.22167119l-1.2050897 3.87279351c-.48048331-.10054166-.97049162.34113523-.74929997.96731666.40040452.56726666 1.09431661.38170643 1.25024615-.11994356.10301022-.33090644-.066675-.67839166-.37958975-.809625l1.2050897-3.87279615c.33231666.0694981.66921853-.12029546.77222876-.4512019.15592953-.50129809-.31009165-1.04810187-.96131852-.80821475M10.20965027 44.5782802c-.19826286-.63394165-.85548783-.69356286-1.17968971-.32490832l-3.28647673-2.37666474c.24835378-.42368523-.0141023-1.02905189-.67839163-1.0188231-.66498784.19896667-.71014163.91581287-.28469165 1.22343332.28081021.2032.66427875.15310644.8886454-.1019519l3.28647938 2.37666475c-.17180453.29280379-.09913143.67274545.18167879.87594545.42544998.3076231 1.09219994.04021666 1.07244615-.65369545m1.9152287-28.79160608c.6639295-.0236273.89534995-.64135.6258295-1.05162878l3.16124151-2.5407064c.34254545.35136666.99589162.25823333 1.1616954-.38488144-.015875-.69391211-.69497042-.92709998-1.1045454-.59795832-.27022953.21695833-.3231462.600075-.13687953.88370832l-3.16124151 2.5407064c-.23706666-.24306476-.62229997-.27375643-.89252685-.05644356-.40957498.32878712-.32773142 1.04245832.34642688 1.20720378"/><path d="M13.72014176 24.09847213c.24906022.61595.90875375.6223 1.2022666.2286l3.46851006 2.10184997c-.21307688.44238333.09771856 1.02446665.75882496.96026022.64664164-.25223523.63358974-.97013976.18450189-1.24248332-.29633332-.17956477-.6745102-.098425-.87771018.17356666l-3.46815816-2.10184997c.14746022-.30585833.0440981-.67874355-.25223522-.85830832-.44908785-.27234356-1.09184805.04868333-1.01599995.73836476M8.0428875 21.33304716c-.60712876.269875-.59090186.92921666-.18767688 1.2093231L5.87154216 26.080024c-.44908786-.19826023-1.02023328.13193977-.9338045.790575.27375643.63782309.9909545.60042688 1.24777494.1425231.16968787-.30233144.0758481-.67768787-.20319999-.87100833l1.9836711-3.5376564c.31079545.13723144.67980187.02151063.8491352-.28081022.25682309-.45825833-.0853731-1.08973142-.7722314-.99059999M19.08624339 5.12079093c-.60254354-.2794-1.08831851.16686477-1.03363972.65510833l-3.96839526.83573142c-.14675643-.46884166-.77152496-.68121476-1.21038138-.18273976-.29986021.62618142.20037689 1.14158975.71437497 1.03328786.33937308-.07161477.5598583-.38911477.5221102-.7263712l3.9683979-.83572878c.1016.32385.43144809.52563712.77046663.454025.51399808-.10795.76411663-.78140454.23706666-1.23331287m-6.57224967 30.37275606c.53198974.39757878 1.09960828.06102879 1.14652684-.4279212h4.05553313c.0469212.48894999.61453973.82549998 1.14652948.4279212.42262687-.55068787.03915833-1.1581712-.48612952-1.1581712-.34642688 0-.62794353.26528977-.66039996.60325h-4.05553313c-.0324538-.33796023-.31397045-.60325-.66039997-.60325-.5252852 0-.90875375.60748333-.48612687 1.1581712"/><path d="M1.7359276 22.43900548c.16898142.64240833.82267685.73236666 1.16346017.37888333l3.1739415 2.5248314c-.26740378.41168902-.03280833 1.02834545.63112118 1.04845379.67345186-.1679231.75141663-.88194355.34042877-1.20896855-.27128521-.2155481-.65651853-.18309166-.89252685.06103144l-3.1739415-2.5248314c.18520832-.28469167.13017499-.66745644-.14111023-.8830019-.41098785-.32702499-1.08937948-.09031287-1.10137305.6036019M8.55476892 8.93608255c-.6420564-.17109546-1.04351662.35277954-.90487496.82373786l-3.76413958 1.51024165c-.22542499-.43603333-.87735829-.53692953-1.22307873.02998523-.18732499.66851476.39475832 1.08937688.88229542.89393976.32173331-.12911666.48401285-.48013143.38840831-.8057462L7.69716707 9.8779992c.15592688.301625.5157602.44273787.83749352.3139731.48753974-.19579166.6170083-.90240642.02010833-1.25588975m7.41362462 25.46879135c-.6427602.1679231-.73342496.82161855-.38029354 1.16310831l-2.52906464 3.17076663c-.41133975-.26811022-1.02834806-.03421856-1.04916018.62935643.16686212.67380378.88088519.75282689 1.2086166.34219356.2159-.27093333.18415-.65616666-.0599731-.89252689l2.5287101-3.17076662c.28433976.18556022.66745641.13087879.8833564-.14005454.32737688-.41063333.0917231-1.08902499-.60219164-1.10207688m-.76834996 16.19179335c.26705189.60854166.92674806.59548977 1.2086166.1933231l3.52813127 2.00024998c-.20037953.44838143.12735189 1.02129165.78598708.93768332.6392333-.27058143.60536664-.98813142.1485212-1.24706854-.30162498-.1710981-.6769814-.0790231-.87206662.19896666l-3.52813126-2.00024997c.13864166-.31009167.02468563-.67945-.27693142-.8505481-.45684544-.25893977-1.09008328.08043333-.99412685.76764355m1.87748324-22.25710161c-.39758142.53198976-.06103143 1.09960832.42791854 1.14652688v4.05553328c-.48894997.04692121-.82549996.61453977-.42791854 1.14652953.5506852.422275 1.15781661.03915833 1.15781661-.48612954 0-.34642689-.26493522-.62794355-.60289807-.66039999v-4.05553328c.33796285-.0324538.60289807-.31397045.60289807-.6604 0-.52528521-.6071314-.90875377-1.1578166-.48612688M4.02862937 15.88792223c.66392951.01058334.92709996-.59443143.67909807-1.01811665l3.28788961-2.37454807c.32420188.36900643.98142685.30973976 1.1800416-.3242019.02010834-.69391476-.64628973-.96167309-1.0720916-.65440188-.28116476.20284545-.35383786.58278711-.18238787.87594544l-3.28788696 2.37419618c-.22436666-.25505833-.60783784-.30550643-.88864806-.10265833-.42580187.30762045-.38099998 1.02446665.28398521 1.22378521m1.6841628 37.45653287c-.127.65193332.42262687 1.01705832.88335374.84701855l1.76177302 3.65266018c-.41980642.25470643-.47624998.91228332.11288976 1.2184962.67944997.14146212 1.0600954-.46778333.83184996-.94085833-.15063787-.31220833-.51188141-.4504981-.83008783-.3326712L6.7104459 54.13608842c.29033786-.17603787.40710641-.54468977.2564712-.8568981-.2282481-.47307499-.94191663-.55456665-1.25412494.06526477m16.58655106-1.34020452c.0448019-.66286855-.54645186-.95637878-.98213328-.72989545l-2.20380178-3.40465829c.38487877-.30515454.35912687-.9644962-.26387953-1.19485832-.69179543-.05573977-.99342041.59619356-.70802497 1.03716666.18838333.29104166.56373975.38311666.86536473.22683522l2.20380179 3.4043064c-.26634545.21096022-.33584355.59125378-.14781212.88229544.28539544.4409731 1.00365184.43285833 1.23648516-.22119166M9.09381245 46.16965898c.53234164.39758143 1.09960828.06067954 1.14652949-.42791856h4.05588502c.04691856.4885981.6141852.82549999 1.14617494.42791856.42262688-.55068523.03915834-1.15816855-.48612687-1.15816855-.34642952 0-.62759163.26528977-.66004807.60325h-4.05588502c-.03245644-.33796023-.3136212-.60325-.66039997-.60325-.5249333 0-.9084045.60748332-.48612952 1.15816855m-4.76426188 2.12301664c.5319871.39758143 1.09960828.06103143 1.14652684-.42791856h4.05553313c.04691856.48895.61453973.82549999 1.14652683.42791856.42262952-.55068523.03915833-1.15816855-.48612687-1.15816855-.34642688 0-.62794353.26528977-.66039996.60325H5.4760774c-.03245644-.33796023-.3139731-.60325-.66039997-.60325-.5252852 0-.9087564.60748332-.48612687 1.15816855M2.84470898 35.64030078c.59725186-.29068713.55844543-.949325.14569545-1.21496666L4.849896 30.82100538c.45578975.18238523 1.01529616-.1675712.90593329-.82267953-.29562688-.62794356-1.01141208-.56585379-1.25200827-.0991288-.15910189.307975-.05221023.6798019.23318786.8636l-1.85949157 3.60432874c-.31538332-.12629356-.6801564.00211667-.8389064.31009166-.24094809.466725.12311856 1.08620453.80609807.96308333"/><path d="M20.78345807 50.32855703c-.33796286-.57185189-.99130639-.479425-1.22272948-.04656667l-3.74297027-1.56209998c.14499166-.46884166-.24906286-.99836021-.89323329-.83643522-.60219163.34572046-.48224808 1.05374545.00238125 1.25624165.31996855.13335.68191853-.003175.84172686-.30233143l3.74297291 1.56174809c-.10018976.32455378.05715.67768522.37711855.81103521.48471664.20249356 1.07244615-.21060833.89464616-.88159165m-8.66554558-19.40700999c.5319871.3975788 1.09960827.0610288 1.14652683-.4279212h4.05553313c.04691856.48895.61453974.8255 1.14652684.4279212.42262952-.55068786.03915833-1.15817119-.48612687-1.15817119-.34642688 0-.62794353.26528977-.66039997.60325h-4.05553313c-.03245643-.33796023-.31397308-.60325-.66039996-.60325-.5252852 0-.9087564.60748333-.48612687 1.1581712M5.63094596 41.2505257c.0945462-.65757688-.47236854-.99483332-.92427685-.80221665l-1.9399249-3.56164352c.40675187-.27481477.43109354-.93415642-.17250833-1.21143975-.68579996-.10759546-1.03575638.51964166-.78457685.98107498.16580378.3040962.53339997.42439166.84560829.29104167l1.9399249 3.56164616c-.28116476.19014546-.37958975.56444356-.21378332.86853711.25117688.46143333.9680204.5072962 1.24953706-.127m8.03698293 14.3397127c-.4649602-.47413333-1.07738328-.2286-1.19873707.24729546l-4.00755623-.62088712c.0282231-.49036287-.4808352-.90981476-1.06750638-.59831287-.50200188.479425-.21625189 1.13841476.30303786 1.21884809.34219354.05291667.66110375-.16615833.74471208-.4949481l4.00790813.62088976c-.01976437.33901856.21801666.6441731.56021285.69708977.5189352.08043333.99095185-.46108144.65792876-1.06997499m1.70603325-53.45147622c-.66427876-.00635-.92321852.60042689-.67239353 1.02234998l-3.2727184 2.3957121c-.32667309-.36688712-.98319162-.30338712-1.17792494.33161287-.01553104.69391212.6526371.95779165 1.07632495.6477.27975188-.20496478.34995377-.58525833.17674165-.87700643l3.2723665-2.3953602c.22612879.25364545.60959997.30127045.88935186.09666022.4236852-.31009166.37429808-1.02693521-.2917481-1.22166854"/><path d="M11.79785398 51.85538011c-.19155832.63605833.31926476 1.05409999.7944564.93062689l1.38888516 3.81070639c-.44344164.21131212-.56514997.85971855-.009525 1.22378521.66216474.20813977 1.10137305-.35983333.9214564-.85336855-.11853334-.32561477-.46425642-.49918143-.79269164-.41380833l-1.38888515-3.81070639c.3065621-.14605.45931664-.5012981.34078331-.82691022-.17991666-.49353787-.88194616-.64593786-1.25447948-.060325m.58525831-34.40253479c.01905-.66392954-.5827871-.93450832-1.00964995-.6914462L9.040192 13.4442306c.3728852-.31961667.32137877-.9775481-.30973976-1.1839231-.6935602-.02892689-.96978518.6342962-.6674564 1.06397954.1993212.28327878.57820451.36089166.87312495.19296856l2.33362489 3.31716852c-.25787878.22083977-.31291211.60360453-.11359356.88723786.30233142.42932879 1.01952684.3937 1.22696017-.26881666M9.52032076 35.33726555c-.5887852-.3076231-1.0950204.11535833-1.0632704.60536666l-4.0036748.6477c-.12453143-.47519167-.73836473-.71684356-1.20014994-.23918334-.32914165.61101022.1464019 1.14934999.6649852 1.06538976.34184165-.05538788.57749807-.36195.55527307-.7009712l4.0036748-.6477c.0860769.32843788.40604544.5453962.74824163.49000833.5185833-.08360833.80009996-.74471211.29492044-1.2206102m1.65099992-12.70035175c.44097308.49671023 1.06468328.28116477 1.20932304-.18803143l3.9722767.81668143c-.05256212.48824355.43568142.93239165 1.03681472.65016855.5249333-.45437689.27163976-1.12641855-.24271022-1.23225188-.33937308-.06985-.66851474.13335-.76834996.45790643l-3.97263124-.81703332c.03633523-.33760833-.18591476-.65405-.5252852-.7239-.51434997-.10583332-1.01247305.41204357-.70943784 1.03646022"/><path d="M9.52631887 36.9836803c.6230064.23001023 1.07138517-.25435454.97754805-.7362481l3.88831647-1.15252498c.18379545.45508333.8237352.61665643 1.22096207.08431477.24835642-.64805453-.29174545-1.12148142-.79551209-.97225642-.33196475.098425-.52634618.43285832-.4614333.76623332l-3.88831648 1.15252498c-.12735453-.31467689-.47237118-.48894999-.80468783-.390525-.5034121.149225-.69849997.84066856-.1368769 1.24848143m-1.95015633-17.676635c-.65722497.09489545-.82056019.73448332-.50835187 1.1130121l-2.86808319 2.8677314c-.37853142-.31256022-1.01811661-.14957689-1.11336661.508.09066477.68791666.7912814.84666666 1.16275638.47519166.24517878-.2448269.25646855-.6314731.04056856-.89358522l2.86808319-2.8673795c.26176021.2159.6484064.20461287.89323329-.04021667.37147498-.371475.21343142-1.07209165-.47483975-1.16275378"/></g></svg>