<svg xmlns="http://www.w3.org/2000/svg" xml:space="preserve" viewBox="0 0 22.68 69.43"><g fill="#231f20"><path d="M8.07 62.6c0 .66.62.9 1.04.65l2.47 3.21c-.36.34-.28 1 .36 1.17.7 0 .94-.67.62-1.09a.66.66 0 0 0-.88-.15L9.2 63.17a.66.66 0 0 0 .07-.89c-.32-.42-1.03-.35-1.21.32m8.25 1.95c-.34-.57-1-.48-1.23-.04l-3.74-1.55c.14-.47-.26-1-.9-.83-.6.34-.48 1.05 0 1.25.33.13.69 0 .85-.3l3.75 1.54c-.1.33.06.68.38.81.48.2 1.07-.21.89-.88"/><path d="M11.79 66.86c.53.4 1.1.06 1.14-.43H17c.04.5.61.83 1.14.43.43-.55.04-1.16-.48-1.16a.66.66 0 0 0-.66.6h-4.06a.66.66 0 0 0-.66-.6c-.52 0-.9.61-.48 1.16"/><path d="M13.35 66.08c-.65-.16-1.04.36-.9.83L8.7 68.46c-.23-.44-.88-.53-1.22.04-.19.67.4 1.08.89.88a.66.66 0 0 0 .38-.8l3.75-1.55c.16.3.52.44.84.3.48-.2.6-.9 0-1.25"/><path d="M6.56 62.59c-.19.63.33 1.05.8.92l1.42 3.8c-.44.21-.56.86 0 1.22.66.2 1.1-.36.91-.86a.67.67 0 0 0-.8-.4l-1.4-3.8c.3-.15.45-.5.33-.83-.19-.5-.9-.64-1.26-.05m5.58-4.2c-.14.65.4 1.03.87.87l1.68 3.69c-.43.24-.5.9.09 1.22.67.15 1.07-.45.85-.92a.66.66 0 0 0-.82-.35l-1.69-3.7c.3-.16.42-.53.28-.85-.22-.47-.93-.57-1.26.04"/><path d="M14.42 66.48c.66-.1.81-.75.5-1.12l2.83-2.9c.38.3 1.02.13 1.1-.53-.1-.69-.8-.84-1.17-.46a.66.66 0 0 0-.03.9l-2.82 2.9a.66.66 0 0 0-.9.05c-.36.38-.2 1.08.5 1.16m-8.3-11.03c-.62-.22-1.06.26-.97.74l-3.88 1.18c-.18-.46-.82-.62-1.22-.08-.24.65.3 1.12.8.97.33-.1.53-.44.46-.77l3.88-1.17c.13.31.48.48.8.38.51-.15.7-.84.14-1.25m1.83 7.12c.53.4 1.1.06 1.15-.43h4.05c.05.49.62.82 1.15.43.42-.55.04-1.16-.49-1.16a.66.66 0 0 0-.66.6H9.12a.66.66 0 0 0-.66-.6c-.53 0-.91.6-.5 1.16"/><path d="M.74 54.16c.42.52 1.05.33 1.22-.13l3.93 1c-.07.49.4.95 1 .7.55-.43.33-1.12-.18-1.24a.66.66 0 0 0-.79.42L2 53.9a.66.66 0 0 0-.49-.75c-.5-.13-1.03.37-.76 1m13.8 4.3c-.2.64.3 1.06.78.95l1.36 3.82c-.44.2-.57.85-.02 1.22.66.21 1.1-.35.93-.85a.66.66 0 0 0-.79-.42l-1.36-3.82c.3-.14.46-.5.35-.82-.18-.5-.88-.65-1.26-.07m-6.52-6.83c-.53-.4-1.1-.06-1.15.43H2.81c-.05-.49-.62-.82-1.15-.43-.42.56-.04 1.16.49 1.16.34 0 .62-.26.66-.6h4.05c.03.34.32.6.66.6.53 0 .91-.6.49-1.16M4.3 35.3c.65.1.99-.47.8-.92l3.56-1.93c.27.4.93.43 1.21-.18.11-.68-.52-1.03-.98-.78a.66.66 0 0 0-.29.84l-3.56 1.94a.66.66 0 0 0-.87-.21c-.46.25-.51.96.12 1.24m.28-17.25c.51.42 1.1.12 1.17-.37l4.05.21c.02.5.57.86 1.12.49.45-.53.1-1.16-.42-1.18a.66.66 0 0 0-.7.56l-4.04-.2a.66.66 0 0 0-.63-.64c-.53-.03-.94.56-.55 1.13m14 .3c.39-.53.05-1.1-.43-1.14v-4.06c.5-.05.83-.61.44-1.15-.55-.42-1.16-.04-1.16.49 0 .34.26.63.6.66l-.01 4.06a.66.66 0 0 0-.6.65c0 .53.6.91 1.15.5M9.44 30.77c.04.66.66.88 1.07.6l2.6 3.11c-.34.35-.23 1 .41 1.16.7-.03.91-.72.58-1.12a.66.66 0 0 0-.89-.12l-2.6-3.1a.66.66 0 0 0 .03-.9c-.33-.4-1.05-.3-1.2.37"/><path d="M4.86 46.45c-.46.47-.2 1.08.27 1.19l-.53 4.02c-.49-.02-.9.5-.57 1.08.49.5 1.14.2 1.2-.33a.66.66 0 0 0-.5-.73l.53-4.02c.34 0 .64-.23.68-.58.07-.52-.48-.98-1.08-.63m12.94-14.9c-.53-.4-1.1-.06-1.15.43H12.6c-.05-.5-.62-.83-1.15-.43-.42.55-.04 1.16.49 1.16.34 0 .63-.27.66-.6h4.05c.04.33.32.6.66.6.53 0 .91-.61.49-1.16"/><path d="M19.9 29.36c-.66-.08-.98.5-.78.94l-3.52 2.02c-.29-.4-.95-.42-1.21.2-.1.68.54 1.02 1 .76.3-.17.4-.54.27-.85l3.52-2.02c.2.28.57.37.87.2.46-.26.49-.98-.15-1.25m-2.08 25.22c0-.66-.62-.9-1.03-.65l-2.47-3.22c.36-.33.28-.99-.36-1.17-.7 0-.94.68-.62 1.1.2.27.6.33.88.15l2.46 3.22a.66.66 0 0 0-.07.9c.32.4 1.03.34 1.21-.33"/><path d="M22 28.34c-.66.1-.81.75-.5 1.12l-2.8 2.92c-.4-.3-1.03-.13-1.11.53.1.68.8.83 1.17.45a.66.66 0 0 0 .02-.9l2.82-2.91c.27.2.65.2.9-.06.36-.38.19-1.07-.5-1.15M9.8 16c.46-.47.22-1.08-.26-1.2l.61-4c.5.02.91-.5.6-1.08-.48-.5-1.14-.21-1.22.3-.05.35.17.67.5.75l-.61 4.01a.66.66 0 0 0-.7.56c-.08.52.46 1 1.07.66m-.63 36.27c.07-.67-.5-.98-.95-.77l-2.07-3.49c.4-.29.4-.95-.22-1.2-.69-.09-1.01.55-.75 1 .18.3.55.4.86.27l2.07 3.48a.66.66 0 0 0-.18.88c.27.45.98.47 1.24-.17m-.58 2.93c-.1.66.45 1 .9.82l1.9 3.59c-.41.27-.44.92.15 1.21.69.12 1.05-.5.8-.97a.66.66 0 0 0-.84-.3l-1.89-3.6a.66.66 0 0 0 .23-.86c-.25-.46-.96-.52-1.25.11m1.14-5.9c.4-.53.05-1.1-.44-1.14l-.02-4.06c.49-.04.82-.61.42-1.14-.55-.42-1.15-.04-1.15.49 0 .34.27.62.6.66l.03 4.05a.66.66 0 0 0-.6.66c0 .53.6.91 1.16.48m6.96-2.3c-.06.66.52.97.96.76l2.11 3.46c-.39.3-.38.96.23 1.2.7.08 1.01-.57.74-1.02a.66.66 0 0 0-.86-.24l-2.11-3.47c.27-.2.35-.58.17-.88-.27-.44-.99-.46-1.24.2"/><path d="M8.6 59.14c.4-.54.06-1.1-.43-1.15v-4.06c.49-.04.83-.61.43-1.14-.55-.42-1.16-.04-1.16.48 0 .35.27.63.6.66V58a.66.66 0 0 0-.6.66c0 .53.6.9 1.16.49M4.38 44.79c.51.43 1.1.12 1.17-.36l4.05.22c.02.5.57.86 1.12.5.45-.53.1-1.16-.42-1.19a.66.66 0 0 0-.7.57l-4.04-.23a.66.66 0 0 0-.63-.64c-.52-.02-.94.56-.55 1.13m15.16-12.4c-.64-.15-1.03.38-.89.85l-3.73 1.57c-.24-.43-.9-.52-1.23.05-.17.67.42 1.09.9.88a.66.66 0 0 0 .37-.81l3.74-1.58c.16.3.53.44.84.3.49-.2.6-.91 0-1.25m-.82-3.57c.57-.34.47-1 .03-1.22l1.51-3.77c.47.14 1-.26.83-.9-.36-.6-1.06-.47-1.26.02-.13.32.01.68.32.84l-1.52 3.76a.66.66 0 0 0-.8.39c-.2.49.22 1.07.9.88"/><path d="M15.17 23.46c.54.4 1.1.06 1.15-.43h4.06c.04.5.61.83 1.14.43.42-.55.04-1.16-.48-1.16a.66.66 0 0 0-.66.6h-4.06a.66.66 0 0 0-.66-.6c-.53 0-.9.61-.49 1.16M9.87 12.1c-.66.11-.8.76-.48 1.12l-2.78 2.96c-.39-.3-1.02-.12-1.1.54.11.68.82.82 1.18.44a.66.66 0 0 0 .01-.9l2.78-2.95c.27.21.66.19.9-.06.36-.39.18-1.08-.51-1.15M8.05 39.86c.17-.64-.35-1.05-.82-.92l-1.47-3.78c.44-.22.54-.87-.02-1.22-.67-.2-1.1.38-.9.87.12.33.47.5.8.4l1.47 3.78a.66.66 0 0 0-.32.83c.19.5.9.63 1.26.04"/><path d="M10.08 12.38c.4-.53.06-1.1-.43-1.14V7.18c.49-.04.83-.61.43-1.14-.55-.43-1.16-.04-1.16.48 0 .35.27.63.6.66v4.06a.66.66 0 0 0-.6.66c0 .52.6.9 1.16.48m.65 39.04c.4-.53.06-1.1-.43-1.14v-4.06c.49-.05.83-.61.43-1.15-.55-.42-1.16-.03-1.16.5 0 .34.27.62.6.65v4.06a.66.66 0 0 0-.6.66c0 .52.6.9 1.16.48"/><path d="M11.74 6.28c-.53-.4-1.1-.06-1.15.43H6.54c-.05-.49-.62-.82-1.15-.43-.42.55-.04 1.16.49 1.16.34 0 .62-.26.66-.6h4.05c.03.34.32.6.66.6.53 0 .91-.6.49-1.16m-.35 31.67c-.54-.4-1.1-.06-1.15.43H6.18c-.04-.49-.61-.83-1.14-.43-.43.55-.04 1.16.48 1.16.35 0 .63-.27.66-.6h4.06c.03.33.31.6.66.6.53 0 .9-.6.49-1.16m6.04-25.02c-.66 0-.91.62-.65 1.03l-3.24 2.45c-.33-.37-.99-.3-1.17.35-.01.69.66.94 1.08.63.28-.21.34-.6.17-.88l3.23-2.44c.23.25.62.29.9.08.41-.32.35-1.03-.32-1.22"/><path d="M7.33 38.23c.3.6.95.55 1.22.14l3.62 1.81c-.18.46.18 1.02.83.9.63-.3.56-1.02.09-1.25a.66.66 0 0 0-.86.24L8.6 38.25a.66.66 0 0 0-.32-.83c-.47-.24-1.08.13-.95.81m-1.08 7.32c.4-.53.06-1.1-.43-1.14v-4.06c.49-.04.83-.61.43-1.14-.55-.43-1.16-.04-1.16.48 0 .35.27.63.6.66v4.06a.66.66 0 0 0-.6.66c0 .52.6.9 1.16.48m9.18.76c-.4.53-.06 1.1.43 1.15v4.05c-.5.05-.83.62-.43 1.15.55.42 1.16.04 1.16-.49a.66.66 0 0 0-.6-.66v-4.05c.33-.03.6-.32.6-.66 0-.53-.61-.91-1.16-.49M5.69 22.63c.67.03.95-.56.72-1l3.36-2.26c.31.38.97.34 1.2-.28.04-.7-.62-.99-1.06-.7a.66.66 0 0 0-.2.88l-3.37 2.26a.66.66 0 0 0-.89-.13c-.43.3-.41 1 .24 1.23m12.63 17.15c-.1.66.47 1 .92.8l1.93 3.58c-.4.27-.43.93.17 1.2.69.12 1.04-.5.8-.97a.66.66 0 0 0-.85-.3l-1.93-3.56a.66.66 0 0 0 .21-.87c-.25-.46-.96-.51-1.25.12"/><path d="M10.36 16.71c-.4.53-.06 1.1.43 1.15v4.05c-.5.05-.83.62-.43 1.15.55.42 1.16.04 1.16-.49a.66.66 0 0 0-.6-.66v-4.05c.33-.03.6-.32.6-.66 0-.53-.61-.91-1.16-.49"/><path d="M10.78 23.12c.35.56 1 .45 1.22.01l3.79 1.47c-.14.47.27 1 .91.81.6-.36.46-1.06-.03-1.25a.66.66 0 0 0-.84.32l-3.78-1.47a.66.66 0 0 0-.4-.8c-.49-.19-1.06.24-.87.9M7.61 51.6c.2.64.85.7 1.18.33l3.27 2.39c-.25.42.01 1.03.68 1.02.66-.2.71-.91.29-1.22a.66.66 0 0 0-.9.1l-3.27-2.4a.66.66 0 0 0-.18-.87c-.42-.3-1.09-.04-1.07.65"/><path d="M11.3 27.08c.39-.53.05-1.1-.44-1.15v-4.05c.5-.05.83-.62.43-1.15-.55-.42-1.16-.04-1.16.49 0 .35.27.63.6.66v4.05a.66.66 0 0 0-.6.67c0 .52.61.9 1.16.48M7 43c.44.5 1.07.3 1.22-.17l3.96.89c-.06.48.42.94 1.03.66.53-.44.29-1.12-.23-1.23a.66.66 0 0 0-.77.44l-3.96-.88a.66.66 0 0 0-.51-.73c-.52-.12-1.02.4-.73 1.02m5.22-34c.48.46 1.09.19 1.19-.3l4.03.47c-.01.49.51.89 1.09.55.48-.5.17-1.14-.35-1.2a.66.66 0 0 0-.73.52l-4.03-.46a.66.66 0 0 0-.59-.67c-.52-.06-.97.5-.61 1.1m7.72 32.26c-.63.22-.66.88-.28 1.19l-2.26 3.37c-.43-.23-1.02.05-.99.71.22.66.94.68 1.23.24a.66.66 0 0 0-.13-.88l2.26-3.37c.3.16.67.07.86-.21.3-.44 0-1.1-.69-1.05"/><path d="M18 44.7c.39-.53.05-1.1-.44-1.15V39.5c.5-.05.83-.62.43-1.15-.55-.42-1.16-.04-1.16.49 0 .34.27.62.6.66v4.05a.66.66 0 0 0-.6.66c0 .53.61.91 1.16.49m-4.77-22.88c-.5-.44-1.09-.15-1.18.34L8 21.83c0-.5-.54-.87-1.1-.52-.47.51-.14 1.15.38 1.2.35.02.65-.22.71-.56l4.04.33c0 .34.27.63.61.66.53.04.96-.54.58-1.12m-4.9 6.57c-.4.53-.06 1.1.43 1.14v4.06c-.5.05-.83.61-.43 1.15.55.42 1.16.04 1.16-.49a.66.66 0 0 0-.6-.66v-4.06c.33-.03.6-.31.6-.66 0-.52-.61-.9-1.16-.48m6.82-1.88c-.65.11-.8.75-.47 1.12l-2.79 2.95c-.38-.3-1.02-.12-1.1.54.11.69.82.83 1.18.44a.66.66 0 0 0 .02-.89l2.78-2.95c.27.21.65.19.9-.06.35-.39.18-1.08-.52-1.15m4.78 22.61c-.01-.66-.63-.9-1.04-.64l-2.49-3.2c.36-.34.28-1-.36-1.18-.7 0-.94.68-.62 1.1.21.27.6.33.88.15l2.49 3.2a.66.66 0 0 0-.07.9c.32.41 1.03.34 1.21-.33M9.01 40.97c.53.4 1.1.07 1.15-.42h4.05c.05.49.62.82 1.15.42.42-.55.04-1.15-.49-1.15a.66.66 0 0 0-.66.6h-4.05a.66.66 0 0 0-.66-.6c-.53 0-.91.6-.5 1.15m5.53-29.36c.6.26 1.08-.2 1-.7l3.94-.96c.17.46.8.65 1.22.14.28-.64-.24-1.14-.75-1.01a.66.66 0 0 0-.5.74l-3.93.97a.66.66 0 0 0-.79-.42c-.5.12-.74.8-.2 1.24"/><path d="M4.43 30.14c.53.4 1.1.06 1.14-.43h4.06c.05.5.61.83 1.15.43.42-.55.04-1.16-.49-1.16a.66.66 0 0 0-.66.6H5.57a.66.66 0 0 0-.66-.6c-.52 0-.9.61-.48 1.16m7.72-16.22c.66-.07.84-.71.54-1.1l2.94-2.79c.37.33 1.01.18 1.13-.48-.08-.69-.77-.86-1.15-.5a.66.66 0 0 0-.07.9l-2.94 2.78a.66.66 0 0 0-.9.02c-.37.36-.24 1.06.45 1.17m9.4 20.44c-.66 0-.9.61-.65 1.03l-3.23 2.46c-.33-.36-.98-.29-1.17.35 0 .7.67.95 1.1.63.27-.21.33-.6.15-.88l3.23-2.46c.23.25.61.3.89.08.42-.31.36-1.03-.31-1.21M16.2 20.9c.5-.42.31-1.05-.15-1.21l.94-3.95c.48.07.94-.4.68-1.01-.44-.54-1.12-.31-1.24.2-.08.34.11.67.43.78l-.94 3.95a.66.66 0 0 0-.74.5c-.12.51.38 1.02 1.02.74m-6.12 27.96c.07.66.7.84 1.1.54l2.76 2.97c-.33.37-.18 1.01.47 1.13.69-.07.87-.76.51-1.14a.66.66 0 0 0-.89-.08l-2.76-2.96a.66.66 0 0 0-.01-.9c-.36-.38-1.07-.25-1.18.44M9.45 4.43c.03.67.66.89 1.06.6l2.6 3.11c-.34.35-.23 1 .42 1.16.69-.03.9-.72.57-1.12a.66.66 0 0 0-.88-.12l-2.61-3.1a.66.66 0 0 0 .04-.9c-.34-.4-1.05-.3-1.2.37M8.27 57.1c.64.16 1.04-.37.9-.83l3.75-1.55c.23.44.88.53 1.22-.04.18-.67-.4-1.08-.89-.88a.66.66 0 0 0-.38.8l-3.75 1.55a.66.66 0 0 0-.84-.3c-.49.2-.61.9-.01 1.25M19.4 1.74c-.4.53-.06 1.1.43 1.15v4.05c-.5.05-.83.62-.43 1.15.55.42 1.16.04 1.16-.49a.66.66 0 0 0-.6-.66V2.9c.33-.04.6-.32.6-.66 0-.53-.61-.91-1.16-.49m-1.07 51.6c-.52.41-.33 1.04.13 1.2l-1 3.94c-.48-.07-.95.4-.7 1 .44.55 1.12.33 1.25-.18a.66.66 0 0 0-.42-.79l1-3.93c.33.05.66-.16.74-.5.13-.5-.36-1.02-1-.75m-8.53-6c.36.55 1.01.43 1.23 0l3.8 1.42c-.14.47.28.99.92.8.58-.37.44-1.07-.05-1.25a.66.66 0 0 0-.83.33l-3.8-1.43a.66.66 0 0 0-.4-.8c-.5-.18-1.07.26-.87.92"/><path d="M9.6 12.23c.66.03.94-.57.7-1l3.35-2.29c.32.38.98.34 1.2-.3.03-.69-.63-.97-1.06-.67a.66.66 0 0 0-.2.87l-3.36 2.28a.66.66 0 0 0-.88-.12c-.44.3-.41 1.01.25 1.23m-.86 11.09c-.59.3-.53.96-.11 1.22l-1.76 3.65c-.46-.17-1 .2-.88.85.31.62 1.03.54 1.25.06a.67.67 0 0 0-.25-.85l1.75-3.66c.32.12.68-.02.83-.33.23-.47-.15-1.08-.83-.94m6.4 32.17c-.37.55-.02 1.1.47 1.13l.15 4.05c-.48.07-.8.65-.38 1.17.56.4 1.16 0 1.14-.53a.66.66 0 0 0-.63-.64l-.15-4.05c.34-.05.6-.34.58-.68-.02-.53-.64-.89-1.17-.45m6.25-37.08c-.6.28-.57.94-.16 1.22l-1.92 3.57c-.46-.2-1.02.15-.92.8.28.64 1 .59 1.25.13a.66.66 0 0 0-.22-.87l1.92-3.57c.31.13.68 0 .84-.3.25-.46-.1-1.09-.79-.98m-3.86 9.04c-.25-.62-.91-.62-1.2-.23l-3.48-2.08c.2-.45-.1-1.03-.77-.96-.64.26-.63.97-.18 1.24.3.18.68.1.88-.17l3.48 2.08c-.15.3-.04.68.25.86.45.27 1.1-.05 1.02-.74M6.76 16.32c.27.61.93.6 1.21.2l3.53 2c-.2.44.13 1.01.8.93.63-.27.6-1 .14-1.25a.66.66 0 0 0-.87.2l-3.53-2a.66.66 0 0 0-.28-.85c-.46-.25-1.1.08-1 .77m9.65 27.26c-.62.22-.66.88-.27 1.19l-2.25 3.38c-.43-.23-1.03.05-.99.71.22.66.94.68 1.23.24a.66.66 0 0 0-.13-.88l2.24-3.38c.3.16.68.07.87-.22.29-.43 0-1.09-.7-1.04M9.54 26.15c-.18.64.34 1.05.81.92l1.46 3.79c-.44.21-.55.87.01 1.22.67.2 1.1-.38.91-.87a.66.66 0 0 0-.8-.4l-1.46-3.78c.3-.16.45-.51.33-.84-.2-.49-.9-.63-1.26-.04m5.17 33.01c-.53-.4-1.1-.06-1.15.43H9.51c-.05-.5-.62-.83-1.15-.43-.42.55-.04 1.16.49 1.16.34 0 .62-.27.66-.6h4.05c.04.33.32.6.66.6.53 0 .91-.6.49-1.16"/><path d="M12.5 27.25c-.53-.4-1.1-.06-1.15.43H7.3c-.05-.5-.62-.83-1.15-.43-.42.55-.04 1.16.49 1.16.35 0 .63-.27.66-.6h4.05c.04.33.32.6.67.6.52 0 .9-.61.48-1.16m1.55-8.97c.16-.64-.37-1.03-.84-.88l-1.6-3.73c.44-.24.53-.9-.05-1.23-.67-.17-1.08.42-.87.9.13.33.49.48.81.38l1.6 3.73a.66.66 0 0 0-.3.84c.2.49.91.6 1.25 0M9.21 43.27c.07.66.7.84 1.1.54l2.78 2.94c-.32.37-.18 1.02.48 1.13.69-.07.87-.77.5-1.15a.66.66 0 0 0-.89-.06l-2.78-2.95a.66.66 0 0 0-.02-.9c-.36-.38-1.06-.24-1.17.45M19.6 22.84c-.65-.12-1.01.44-.84.9l-3.63 1.8c-.26-.42-.92-.47-1.22.13-.13.68.48 1.05.95.82a.66.66 0 0 0 .33-.84l3.63-1.8c.18.29.55.4.86.24.47-.23.54-.94-.08-1.25m-8.5-21.1c-.63.22-.67.88-.28 1.19L8.57 6.3c-.43-.23-1.02.05-.99.72.23.65.95.67 1.24.23a.66.66 0 0 0-.14-.88L10.92 3c.3.16.68.07.87-.22.29-.44 0-1.1-.7-1.05"/><path d="M14.96 11.68c-.63-.23-1.08.26-.98.74l-3.88 1.17c-.19-.46-.83-.62-1.22-.08-.25.65.3 1.12.8.97.33-.1.52-.44.45-.77l3.89-1.17c.13.32.47.49.8.39.5-.15.7-.84.14-1.25M4.84 40.88c.3.6.95.55 1.22.14l3.6 1.85c-.18.46.17 1.02.83.9.63-.3.56-1 .1-1.25a.66.66 0 0 0-.87.24l-3.6-1.85a.66.66 0 0 0-.32-.84c-.47-.24-1.08.13-.96.8m-2.85 5.77c.53.4 1.1.06 1.15-.43h4.05c.05.49.62.83 1.15.43.42-.55.04-1.16-.49-1.16a.66.66 0 0 0-.66.6H3.14a.66.66 0 0 0-.67-.6c-.52 0-.9.6-.48 1.16m11.6-40.11c.4-.53.07-1.1-.42-1.15V1.33c.49-.05.82-.62.42-1.15-.55-.42-1.15-.04-1.15.49 0 .34.26.62.6.66v4.05a.66.66 0 0 0-.6.66c0 .53.6.91 1.15.49m5.33 26.32c.4-.53.06-1.1-.43-1.14v-4.06c.49-.05.82-.61.43-1.15-.55-.42-1.16-.03-1.16.49 0 .35.26.63.6.66v4.06a.66.66 0 0 0-.6.66c0 .52.6.9 1.16.48m-1.14 5c-.62-.23-1.07.25-.98.74l-3.88 1.16c-.19-.46-.83-.62-1.23-.09-.24.65.3 1.12.8.97.33-.1.53-.43.46-.76l3.89-1.16c.13.31.47.49.8.39.5-.15.7-.84.14-1.25m-4.11 13.4c-.5.44-.3 1.07.16 1.22l-.9 3.96c-.48-.07-.93.41-.66 1.02.44.53 1.12.3 1.23-.22a.66.66 0 0 0-.44-.78l.9-3.95c.33.04.65-.18.73-.51.11-.52-.4-1.02-1.02-.73"/><path d="M9.53 39.13c-.54-.4-1.1-.05-1.14.44l-4.06.06c-.05-.49-.63-.82-1.15-.41-.42.56-.02 1.16.5 1.15.35 0 .62-.27.65-.61l4.06-.06c.04.34.32.6.67.6.52-.01.9-.63.47-1.17M21.5 13.48c-.26-.61-.92-.61-1.2-.22l-3.5-2.07c.21-.44-.1-1.02-.76-.95-.65.26-.63.98-.18 1.24.3.18.68.1.88-.18l3.49 2.07a.66.66 0 0 0 .26.86c.45.27 1.09-.06 1-.75M10.16 52.16c-.61-.25-1.08.22-1 .7l-3.92 1.05c-.17-.46-.8-.64-1.22-.12-.26.64.26 1.13.77 1a.66.66 0 0 0 .49-.76l3.92-1.04c.11.32.45.5.79.41.5-.13.72-.82.17-1.24m5.04-6.48c.15-.65-.38-1.04-.85-.9l-1.59-3.72c.43-.24.52-.89-.06-1.22-.67-.18-1.08.42-.87.9.14.32.49.47.81.37l1.6 3.73a.66.66 0 0 0-.3.84c.2.49.92.6 1.26 0M4.79 23.66c.52.4 1.1.06 1.14-.42h4.05c.05.48.62.82 1.15.42.42-.55.04-1.15-.48-1.15a.66.66 0 0 0-.67.6H5.93a.66.66 0 0 0-.66-.6c-.53 0-.91.6-.49 1.15m7.57 9.75c-.09.66.49.99.94.79l2 3.53c-.41.28-.43.94.18 1.2.69.1 1.03-.53.77-.98a.66.66 0 0 0-.85-.28l-2-3.53c.28-.2.38-.57.2-.88-.25-.45-.97-.49-1.24.15m7.18-2.78c.4-.53.06-1.1-.43-1.15v-4.05c.49-.05.83-.62.43-1.15-.55-.42-1.16-.04-1.16.49 0 .35.26.63.6.66v4.05a.66.66 0 0 0-.6.66c0 .53.6.91 1.16.5"/></g></svg>