<svg xmlns="http://www.w3.org/2000/svg" xml:space="preserve" viewBox="0 0 57.406349 48.213096"><g fill="#231f20"><path d="M22.27670931 39.59260381c-.06491022-.66110378-.69602875-.85336855-1.0886704-.55879999l-2.73332297-2.99614163c.32949355-.36406666.19579166-1.01035378-.45649354-1.13559165-.69144617.05891477-.88194616.7517712-.5277564 1.13982498.23353975.25576477.61912496.2850462.89041018.08113977l2.73332296 2.99649353c-.22789355.25153143-.23424355.63852953-.00079375.89429165.35418976.38805644 1.06115639.26211477 1.18321661-.42121666m32.80418566 6.1259878c-.53198974-.39722954-1.09960828-.06067954-1.14652684.42791856H49.8787477c-.0469212-.4885981-.61453974-.8251481-1.14652948-.42791856-.42262687.55103712-.03915833 1.15816855.48612952 1.15816855.34642688 0 .62794353-.26528977.66039996-.60325h4.05553313c.0324538.33796023.31397045.60325.66039997.60325.5252852 0 .90875375-.60713143.48612687-1.15816855M4.2286 47.16109993c.60783784-.26775833.5940795-.92745453.19155832-1.20861666l1.99531277-3.5309545c.44873331.1996731 1.02093708-.12876212.93662496-.78739998-.27128787-.63887879-.98883783-.60395379-1.24742305-.1467538-.17039165.301625-.07796476.67733333.20037689.87171212l-1.99566202 3.53059996c-.31009166-.13793523-.67944997-.02328334-.84984163.27834166-.25858786.4572.08149166 1.08973142.76905375.9930712"/><path d="M25.18324704 35.60057053c-.53198974-.39757879-1.09960828-.0606769-1.14617494.4279212h-4.05588767c-.04691856-.4885981-.6145371-.82549999-1.14652684-.4279212-.42227498.55068787-.03915833 1.1581712.48612687 1.1581712.34678142 0 .62794618-.26528977.66039997-.60325h4.05588767c.0324538.33796023.31361855.60325.66004543.60325.52528784 0 .90875639-.60748333.48612951-1.1581712m13.60487432-2.3195121c-.33725642.57220379.05891212 1.09996022.54997876 1.09325832l.44026665 4.03189541c-.4808352.09948333-.7538852.70026476-.30091855 1.18603976.59337307.36018522 1.15569994-.08678334 1.09854994-.60889356-.0377481-.34466476-.33196475-.59548976-.6713352-.59090453l-.44062118-4.03189541c.3326712-.06879167.56585641-.3774731.5281083-.72178332-.05714999-.52211287-.70237875-.8374962-1.20402872-.35771667M6.05669611 38.24887504c-.18273976.63852689.33372688 1.04951211.80715375.91969165L8.304596 42.95951665c-.43991475.21766212-.55315641.86747878.00740833 1.2237852.6649852.19931857 1.09643328-.37500188.90981208-.86606854-.12276666-.32385-.47095831-.49247954-.79833519-.4028731l-1.44074349-3.79094995c.30444544-.15028334.4522602-.5076481.32914165-.8314981-.1866212-.49106666-.89041283-.63358711-1.25518327-.04303712m9.17010333.04550833c.22083976.62653333.87947496.66286855 1.19062494.2829269l3.36938127 2.25742496c-.23318787.4321519.0508 1.02799355.71402042.993775.6575795-.22225.6773333-.94050643.2409481-1.23260643-.28786666-.19296856-.66921854-.12946856-.88441473.13335l-3.36902673-2.25742497c.16086666-.2988019.07478977-.67592045-.21307688-.86889166-.43638786-.2924519-1.09290639-.00105833-1.04845639.6914462"/><path d="M25.20370727 40.79698713c.39758142-.53234166.06103144-1.09960832-.42791854-1.14652688v-4.05588518c.48894998-.0469212.82549996-.61418787.42791854-1.14652953-.5506852-.42227499-1.1581685-.03915833-1.1581685.48612954 0 .34677879.2652871.62794355.60324997.6604v4.05588517c-.33796286.03245644-.60324997.31361856-.60324997.6600481 0 .52528522.6074833.90875378 1.1581685.48647878m10.50819113.91545832c.66286854-.04021666.87912307-.66357499.59901664-1.06715188l3.09703508-2.61866853c.35136665.3429 1.00224161.23353712 1.15182115-.41345643-.03316288-.69356022-.7179045-.90981476-1.11901282-.57044166-.26458332.22366023-.30832688.60783522-.1146519.88688332L36.2290715 40.5482788c-.24306476-.23706666-.62900451-.25787879-.89358783-.03421856-.40110832.33901856-.30197688 1.05057309.37641475 1.19838521m-4.68594788 2.33115641c.39758142-.53234166.06103143-1.09960832-.42756665-1.14652688v-4.05588782c.48859808-.04691857.82514807-.61418523.42756665-1.14652689-.5506852-.422275-1.1578166-.03880643-1.1578166.4861269 0 .34678143.26528975.6279462.60324996.66039999v4.05588782c-.33796021.0324538-.60324997.31361856-.60324997.66004545 0 .52528787.6071314.90875643 1.15781661.48648143"/><path d="M24.98110539 34.42441032c.28469165.60007499.94367874.56761855 1.21355373.15733976l3.5859877 1.8940621c-.1866212.454025.15769165 1.01705833.81385828.9140481.63111853-.28963144.5757333-1.00576855.111125-1.25130188-.30621286-.161925-.67909807-.05856288-.86571663.22507045l-3.58598769-1.89441664c.12911666-.31397045.00423333-.67980189-.30197688-.84172688-.46460831-.24518144-1.08726017.11253522-.97084351.79692499m22.62716288 1.17263331c-.61912497.2409481-.63394164.90064166-.24412045 1.19909166L45.2171415 40.2367769c-.4395602-.219075-1.02587684.08431477-.97013707.74612499.24341665.64981666.9616704.64628976 1.24001206.20073143.18344355-.29386476.10724356-.67309999-.16227689-.87982953l2.14735823-3.44028708c.30374165.15134167.67768519.05291667.86112874-.2409481.27834166-.44555833-.03421856-1.09255188-.7249583-1.02552499m-24.13634614 1.33173523c-.60183974.28151666-.57291285.94050642-.1643962 1.21284998l-1.9148768 3.57504996c-.45296664-.18944167-1.01776472.1520481-.9182814.80856665.28575.63253143 1.00224162.58137954 1.25024615.11818144.16368712-.3051519.06279356-.67874356-.22013332-.866775l1.9152287-3.57504995c.31326665.13088144.6798045.00812271.84349162-.29739166.24800453-.46284356-.10653712-1.08761476-.79127875-.97543142m18.32504074 6.34188779c-.30197952-.59160832-.95955639-.54010453-1.21743781-.12206287l-3.63925361-1.79034544c.17356666-.45931666-.1869731-1.01176665-.83996473-.89005832-.62229997.307975-.54609997 1.02199545-.07478977 1.25377044.3107981.15310644.6805083.03915834.85866284-.24976666l3.6392536 1.79034808c-.12029545.3175.01516063.67980189.3263212.83255643.4713102.231775 1.08337873-.14393333.94720828-.82444166"/><path d="M44.52816653 43.3683852c.39758141-.53198976.06103143-1.09960832-.42791854-1.14652688v-4.05553328c.48894997-.0469212.82549995-.61453976.42791854-1.14652953-.5506852-.422275-1.1581685-.03915833-1.1581685.48612954 0 .34642689.26528975.62794355.60324996.66039999v4.05553328c-.33796021.0324538-.60324997.31397046-.60324997.6604 0 .52528522.6074833.90875377 1.1581685.48612688m-.84807685 3.68899806c-.14428522-.64840643-.79410185-.76270643-1.1482916-.42262954l-3.07657485-2.6426583c.28292688-.40110832.07196666-1.02658332-.59090187-1.0717371-.67909807.14252045-.78422496.85301665-.38558785 1.1955621.2628212.22577954.64911284.20778787.89393972-.02751666l3.07622295 2.6426583c-.19543976.27763787-.1548712.66216476.10795.88794165.3982852.3421962 1.0851435.13158787 1.1232435-.56162045"/><path d="M41.42972122 47.65710371c.53234164.39758143 1.09960828.06103144 1.14652684-.42791856h4.05588503c.04691856.48895.6141852.8255 1.14652683.42791856.42227498-.55068522.03880644-1.15816855-.48612687-1.15816855-.34678142 0-.62794353.26528977-.66039996.60325h-4.05588503c-.03245643-.33796023-.31361854-.60325-.66039996-.60325-.52493331 0-.90840185.60748333-.48612688 1.15816855m-13.95165573-1.10242878c.60959997-.26387953.60007497-.92357309.1996731-1.20755831l2.01788702-3.51789996c.44732308.20284546 1.02199805-.12206287.94191662-.78140453-.26740378-.64064356-.98530829-.61030379-1.2467166-.15451667-.1721538.30056667-.08219546.67662954.19473332.8727731l-2.01824157 3.51789995c-.30938521-.1400519-.67944996-.02786856-.85160375.2726981-.26140832.45543523.07443523 1.09043522.76235186.99800832M44.4057544 43.9180121c-.05468143-.66181023-.6829795-.8636-1.08020638-.5750269l-2.68746009-3.03741663c.33478521-.358775.21096022-1.00718142-.43920831-1.14194165-.6925045.04833144-.89323329.73801022-.54539618 1.13135832.22965832.25964356.61489163.29456856.8893545.0948981l2.68781198 3.03741663c-.23177498.2480019-.24412044.63464545-.0144727.89429166.34819165.39334545 1.05727494.27798712 1.1895666-.40357954m7.94421208 2.58339164c.17603522-.64064356-.34431285-1.04633712-.8166814-.91157689l-1.47919802-3.77613328c.43779808-.2218981.54433784-.873125-.02010834-1.22378522-.66674996-.19226477-1.09255184.38629166-.90099351.87524166.1266481.32279166.47624997.48789166.80256852.39475833l1.47954993 3.77613328c-.30303522.15345833-.44732044.51223333-.32067499.835025.19155832.48894998.89676283.62441665 1.25553781.03033712m-38.07071664-8.09907036c-.36900642.55245-.00283104 1.10137044.48789164 1.12253711l.21342878 4.04988972c-.48542043.0726731-.7916333.657225-.3668871 1.16769355.57220376.39264166 1.1585204-.022225 1.13100373-.5464519-.01833562-.34607499-.29809544-.61312688-.63711663-.62794355l-.21378333-4.04988972c.3358462-.05009356.58596474-.34536855.56762118-.69109165-.02751666-.52458143-.6544045-.87559355-1.18215827-.42474356m-9.00253478 9.81074988c.6526371-.12453144.78704542-.7708212.45790377-1.13523976l2.73579153-2.99367307c.39228975.2949231 1.02376282.10301288 1.08937949-.55774166-.12170833-.68332878-.82867496-.80997688-1.1832166-.422275-.23353977.25576478-.22754166.64240833 0 .89429166L5.64077112 46.9924704c-.27128786-.20425833-.65722497-.1753288-.89076472.08043333-.35454165.38770454-.1647481 1.08055832.52669807 1.14017953m42.86884521-9.94304156c.4046352-.5266981.07549356-1.09854998-.41239809-1.15217309l.05432954-4.05518138c.48930187-.04056856.83361209-.60325.4430871-1.14088332-.54504163-.42968333-1.15746206-.0543269-1.1645185.47060643-.00457729.3464269.2568231.6314731.5944314.66851476l-.05432953 4.05517874c-.3383121.02787121-.6074833.30585833-.61206853.65228787-.00706438.52528522.5951352.91686855 1.1514666.50165m-26.14083201 2.72732496c-.6205352.23706666-.6395852.89676022-.25152878 1.19767878l-2.16887943 3.42688329c-.43814998-.22154356-1.02622874.07796477-.97472495.74012953.23953786.65157878.95779162.65228522 1.23860448.20849166.18520832-.29280643.11182878-.6723962-.15663333-.88053332l2.16887679-3.42688329c.30303521.1531038.6776852.05715.86289352-.23565643.28081286-.44379356-.02716213-1.09255189-.7186083-1.03011022m10.08062449-3.4357045c-.5319871-.39757878-1.09960827-.06102879-1.14652683.4279212h-4.05553313c-.04691856-.48894999-.61453974-.82549998-1.14652684-.4279212-.42262952.55068787-.03915833 1.1581712.48612687 1.1581712.34642688 0 .62794353-.26528977.66039997-.60325h4.05553313c.03245643.33796023.31361854.60325.66039996.60325.5252852 0 .90840185-.60748333.48612687-1.1581712"/><path d="M28.96255519 38.15538716c.65299163.12170834 1.01352874-.43109355.83961018-.89005832l3.63854982-1.79140377c.25823332.41768712.91616472.46884166 1.2177897-.12276666.13581856-.68050833-.4766045-1.05621666-.94791471-.82408976-.3107981.15310643-.44591021.51540832-.32596665.83290832l-3.63854982 1.79140642c-.17815189-.288925-.54786474-.4025212-.85866019-.24976667-.47131285.2321269-.5471583.94650189.07514167 1.25377044m21.38503415-5.0126185c-.34431286.5679731.04550833 1.10031476.53657497 1.09996022l.39193521 4.03648328c-.48189354.09383977-.76235186.6914462-.31503142 1.18251286.58878784.36724166 1.15640638-.073025 1.10560638-.59584166-.03351477-.34466476-.32455642-.5993712-.6642814-.59866476l-.39158332-4.03683518c.33302309-.06491287.57008974-.3707712.53657498-.71543332-.0508-.52281666-.69250187-.84596287-1.1997954-.37218144m-5.88821448 6.14644804c-.20214165.63288332.30162499 1.05939164.7789333.94403331l1.32468137 3.83328329c-.44661665.20390379-.57926285.85019355-.02998788 1.22307877.65863785.21942954 1.10737116-.34113522.93592117-.83749355-.11324167-.32773143-.45578975-.50694166-.78598974-.42721476l-1.32467872-3.83328329c.30903067-.14111023.46778066-.49353522.354539-.82126665-.17180188-.49635833-.87100564-.6604-1.2534185-.08113713M1.91014632 28.04830396c-.27446286.60501476.17603522 1.08726286.66357497 1.02834809l.86818518 3.96169351c-.46743141.15028333-.6745102.77681666-.17250832 1.21143976.62864997.2949231 1.13982494-.20955 1.02728972-.72284166-.07408333-.33831477-.39369998-.55668333-.7306045-.51576022l-.86853709-3.96169616c.32314355-.10406856.5221102-.43567879.44802687-.77399355-.11253522-.51329166-.7881064-.75776666-1.23542683-.22718977m34.0476373-9.04910178c.49388975.4445 1.08973139.16051477 1.18074805-.32173333l4.0389517.3683c.00211666.49106665.5369295.87806475 1.10278327.53022499.4709583-.50976212.14428787-1.14970189-.37888331-1.19732688-.34501665-.0313981-.6494621.20708143-.7126102.54080832l-4.0385998-.36865189c-.00185208-.3393731-.25788142-.62900453-.60289807-.66075453-.52316853-.047625-.96026018.52246476-.58949164 1.10913332M27.03674051 15.378292c-.5880814.30903332-.52881474.96625831-.10795 1.21919998l-1.74695634 3.66006851c-.46107877-.168275-1.00964995.19896667-.87982685.8501962.31503142.61841856 1.02834805.53410379 1.25447683.060325.149225-.31291477.0310462-.68121476-.25999545-.85583976l1.7469537-3.66006852c.31891287.11606213.67980451-.02362729.8290295-.3361981.22612879-.47413332-.15698786-1.08161665-.83573139-.93768332m4.87891642 13.1310934c.30374165-.59055-.12241476-1.09431665-.61206853-1.05974355l-.67274807-3.99944162c.47413331-.12735454.7119064-.74259809.23177499-1.20156021-.61312687-.32526287-1.1486435.15381023-1.06150828.67168712.0575019.34148976.36583142.57502689.70449807.55103976l.67274542 3.99944162c-.32808331.08819356-.54292497.409575-.48542043.75141665.08713522.5178769.74965186.79516022 1.22272683.28716023M10.71547656 10.71774395c.65898974.08290454.98601472-.49000833.7852833-.93803522l3.52672103-2.00307308c.28222044.40181477.94191662.41416287 1.20826206-.19437879.09525-.68756476-.5379852-1.02623142-.99483328-.76693976-.30127044.1710981-.41486665.54080833-.27622499.85089999L11.4383182 9.66929017c-.19508522-.27798977-.57079353-.36971287-.87206662-.19861477-.45684543.25964356-.4903602.97684165.149225 1.24706855"/><path d="M31.5036134 21.93713547c-.65017118-.13722879-1.0234083.40675454-.86042497.86995l-3.68017935 1.70497497c-.24800189-.42368522-.90452041-.49071476-1.21990373.09348523-.1520481.67733332.45120187 1.06750642.92780374.84666665.31432499-.14569545.45825831-.50482499.34572309-.82514544l3.67982481-1.70462309c.17145.29315833.53833975.41521856.85266473.269875.47660187-.22083712.56902876-.93309545-.04550833-1.25518332M13.27064764 8.26629208c.5510371-.37076856.42051021-1.01776476-.0254-1.22343332l1.3387916-3.82834351c.47660188.11712046.98177875-.3076231.7821083-.94085832-.3802962-.5806731-1.08020639-.4191-1.25342115.0765519-.11465189.32702499.04303977.68015642.35136665.82232498l-1.3387916 3.82834352c-.32984544-.08078523-.67309996.09736666-.78739996.42439166-.17321211.49565453.27340453 1.05798142.93274616.8410231m7.12575798 10.2499582c-.62194808.23283333-.6452314.89217499-.25929166 1.19591665l-2.19074989 3.41277041c-.43673974-.22436401-1.02658328.07126288-.97966472.73377954.23530189.65299165.95355829.65863522 1.2371916.21660378.187325-.29174545.11606477-.67168711-.15063521-.88159165l2.19074989-3.41312231c.30197688.15522045.6773333.06173523.86430374-.22965833.28398786-.44203143-.02010833-1.09290643-.71190375-1.0346981M35.6995503 17.2014484c-.39757877.53198713-.06102878 1.09960833.4279212 1.14652689v4.05553328c-.48894998.04691856-.82549997.61453712-.4279212 1.14652688.55068785.4226269 1.15817115.03915834 1.15817115-.48612689 0-.34642689-.26528975-.62794355-.60324997-.66039999V18.3479753c.33796022-.03245644.60324997-.3139731.60324997-.6604 0-.52528522-.6074833-.90840188-1.15817115-.48612688m6.83718753-8.80533324c.43850188.498475 1.06327041.2861019 1.21002684-.18273976l3.96839526.83573142c-.0546788.48789166.43144808.93415378 1.03399161.65475379.52669808-.45190833.27657953-1.12500832-.23741855-1.23331022-.33901854-.07126023-.66886663.130175-.77046663.4543769l-3.96839525-.83572879c.03774545-.33725643-.18273977-.65510832-.52211285-.7263712-.51399544-.1083019-1.01423518.40710644-.71402043 1.03328786M19.77093065 32.15287511c.56867687.3432519 1.10031207-.047625 1.09925374-.53833976l4.03577933-.39828522c.09489546.48189355.69250186.76094165 1.18321661.31326666.36618332-.58949166-.07478977-1.15640642-.5976064-1.10489999-.34501666.03421857-.59901664.32561212-.59795831.66533712l-4.03613123.39793333c-.06526213-.33302046-.37147499-.56938333-.71649163-.53551666-.5224621.05150644-.84454996.69391476-.37006211 1.20050452"/><path d="M21.20391391 35.2781334c.29104165-.59689998-.1456981-1.09149619-.63464807-1.04633975l-.75776663-3.98391851c.4713102-.13758333.6960314-.7581212.2060231-1.20649999-.61983141-.31220833-1.14476472.1781519-1.04669162.69391212.06455833.34043143.37782498.56726666.71613709.5362231l.75741473 3.98427305c-.32596665.09489546-.53375187.42086212-.46919354.76129355.09807046.51611477.7665852.77928522 1.22872494.26105644m-2.85820629-17.69956644c-.66039997-.07231857-.97789995.50623522-.77011474.95108975l-3.49285172 2.06092687c-.28857308-.39722689-.94861851-.39863976-1.20473516.21413523-.08396287.688975.55491853 1.01705832 1.00717874.75035832.29844998-.17603522.40604808-.54751022.26211475-.85513332l3.49285172-2.06092687c.1996731.27446023.57714618.35983333.87524163.1837981.45261475-.2667.4741333-.98495642-.16968522-1.24424808M6.063398 18.4174734c.66357497-.02611438.89252686-.64487954.62124164-1.0541l3.15101007-2.5534064c.34431286.35030833.99730185.2543519 1.16028517-.38946666-.01833562-.69391476-.69885186-.92427689-1.10666207-.593725-.26952309.21836857-.32102688.60148523-.13334999.88441477l-3.15101007 2.55340375c-.23812499-.24235833-.62371284-.27093333-.8928814-.05291666-.40816474.33055454-.32349808 1.0438712.35136666 1.2057962M31.92870883 5.00909402c.53198974.39758143 1.09925638.06103144 1.14617494-.42791856h4.05588767c.04691856.48895.6141852.8255 1.14652684.42791856.42227498-.55068522.03915833-1.15816855-.48612687-1.15816855-.34678142 0-.62794618.26528977-.66039997.60325h-4.05588767c-.0321019-.33796023-.31361855-.60325-.66004542-.60325-.52528785 0-.9087564.60748333-.48612952 1.15816855M17.57982622 6.040969c.60466284-.27481212.58278974-.93415377.1770962-1.21073331l1.95403513-3.55423519c.45084998.19438144 1.01917495-.14075833.92709995-.79833522-.27869355-.63570642-.99589162-.59231476-1.24883327-.13193976-.16686476.30338976-.0702019.67803976.21025643.86924355l-1.95368324 3.55388329c-.31185642-.13440834-.6798045-.01553105-.84666662.2882212-.2532962.46002045.09454356 1.08867044.78069542.98389545"/><path d="M16.67036603 21.53391048c-.36865187-.55245-1.01599994-.42474356-1.22343327.02045229l-3.8230517-1.35396286c.11923712-.47660189-.30338976-.98319165-.93768329-.78634166-.5820833.37817954-.42368785 1.0787962.07161212 1.25412499.3266731.11571287.6805083-.04056856.82373784-.34819166l3.8230517 1.35396285c-.0821981.32949356.09454356.6734519.42086475.78916212.49529998.17533143 1.05939161-.26916856.84490185-.92921666M2.1740232 20.95429836c.028575.663575.6484064.89005832 1.05656851.61736022l2.56539987 3.1411333c-.34889544.34572045-.25082499.99800832.39369998 1.15887498.69356284-.02116667.92180829-.70238143.58949164-1.10913332-.21907499-.26846477-.60254353-.31855833-.88511852-.1298231l-2.56504797-3.1414852c.24129998-.23883143.26881665-.62476855.04938976-.89288142-.33196475-.40675189-1.04492684-.31961666-1.20438327.35595454m20.65196109-.3231462c-.5852583.314325-.51964164.9708462-.09630833 1.21990642l-1.71167681 3.67664995c-.46284354-.16404166-1.00788518.20849167-.87206662.85866022.32102688.6155981 1.03363971.52422689 1.25518327.0479769.14640188-.31397046.02468562-.68121212-.26811022-.85301666l1.7120287-3.6766473c.3199712.11324166.67909808-.02998788.82549996-.34395834.2215462-.47625-.16721665-1.08020642-.84454995-.9295712M5.87854158 15.73495032c-.15627879.64558333.37606285 1.03540188.84384616.88653143l1.59314349 3.72956662c-.43074165.23495-.51752498.88935188.05715 1.22237498.67239352.1721538 1.08020638-.4191.87383139-.90205453-.1361731-.31855833-.49036285-.473075-.81421284-.37006212L6.8395082 16.57138554c.29774619-.16262879.43144808-.52563712.29527498-.84419545-.20637499-.48295453-.91545829-.59689999-1.2562416.0077523m27.82323003 3.09316433c-.65228784-.12523787-1.01599995.42545-.84454995.88547045L29.2084404 21.4841688c-.25576476-.4191-.91334162-.47413333-1.2184935.11571288-.1397.67980188.47060377 1.0590371.94297495.82973332.31185378-.15134167.44908521-.51293977.33090378-.8311462l3.64878125-1.77059164c.17674166.28998333.54574808.4056962.85724996.25435453.47272308-.22930643.55244997-.94297498-.06808523-1.25412498m-6.6809061-13.82289148c-.1837981-.638175-.83925829-.71296476-1.17192683-.3520731l-3.23144605-2.45074808c.25823332-.41804166.009525-1.02905188-.65475376-1.03399165-.66957307.1834462-.7309564.89923143-.31256286 1.21673142.2758731.2091981.66039997.1679231.89076473-.08184356l3.2310915 2.45109997c-.17850643.288925-.11465189.67027689.1615731.87982689.41839354.3175 1.09114161.06526477 1.08726017-.6290019M46.21797288 24.3808271c.5951352-.2949231.55174353-.95320642.13687689-1.21602498l1.83373968-3.61738328c.45719997.17921287 1.01423517-.1749769.90028708-.82937879-.30021211-.62582953-1.01529352-.5584481-1.25271207-.08995833-.15698786.30903333-.047625.68015379.23918333.86183522l-1.83373968 3.61738329c-.31608976-.12417954-.6801564.00706437-.83678709.31608712-.2374212.46848976.13087879 1.0851462.81315186.95743976m-7.96995604 10.36531653c.53198975.39758144 1.09960828.06103144 1.14652949-.42791855h4.05553313c.04691856.48895.61453709.82549999 1.14652683.42791855.42262688-.55068522.03915834-1.15816854-.48612687-1.15816854-.34642952 0-.62794617.26528712-.66039996.60324999h-4.05553313c-.03245644-.33796287-.3139731-.60325-.66039997-.60325-.52528785 0-.9087564.60748333-.48612952 1.15816855m14.32065951-2.55622686c.39758142-.53198976.06103143-1.09960832-.42791854-1.14652953v-4.05553328c.48894997-.04691856.82549996-.61453712.42791854-1.14652688-.5506852-.422275-1.1581685-.03915833-1.1581685.48612689 0 .34642954.26528975.6279462.60324997.6604v4.05553327c-.33796022.03245644-.60324997.3139731-.60324997.6604 0 .52528786.6074833.90875642 1.1581685.48612953M19.78892231 18.73497339c.5319871.39757878 1.09960828.06102879 1.14652684-.42756666h4.05553313c.04691856.48859545.61453974.82514544 1.14652684.42756666.42262952-.55068787.03915833-1.15781665-.48612687-1.15781665-.34642688 0-.62794353.26528712-.66039997.60324999h-4.05553313c-.03245643-.33796287-.31397309-.60325-.66039996-.60325-.5252852 0-.9087564.60712879-.48612688 1.15781666"/><path d="M48.65566632 22.95772333c-.59972308-.2853981-1.09043518.1559269-1.04034162.64417046l-3.97686192.79551476c-.1421712-.47025454-.76447117-.688975-1.20826471-.19473334-.30621021.62300379.18873522 1.14335189.70379163 1.04034166.33972498-.06808788.56373974-.3834712.52916664-.72107953l3.97686193-.79516022c.0980731.32490833.42615641.5298731.7658814.46178522.5150564-.10301023.77187685-.77364166.24976665-1.230839M20.42850751 30.6539206c.0208227-.6639269-.58031853-.93556666-1.00788518-.69391212l-2.32551275-3.32281473c.37359164-.31855833.32384998-.97648976-.30691666-1.18462688-.6932083-.03033977-.9711954.63217688-.66992496 1.06256665.19861476.28363333.57749807.36230189.87277306.19508523l2.32551011 3.32246018c-.25823332.22048788-.31432498.60325-.11535833.88723787.3009212.43003522 1.01847116.39616855 1.22731471-.2659962M42.7515795 11.32840227c.02505603-.66392688-.57432308-.93979999-1.00329996-.70096855l-2.30293322-3.3379833c.37570832-.31608976.33019999-.97437308-.29915642-1.18674354-.6932083-.034925-.97543139.625475-.6769814 1.05797878.19684999.2850462.57502951.36618333.87136283.20073143l2.30328511 3.3383352c-.25964355.2187231-.31820642.60078142-.12135643.88617952.29809809.4321519 1.01599995.40287045 1.22907948-.25752954m6.23040537 9.40152943c.3644212.55562499 1.01282495.43285832 1.22378782-.01058334l3.81176193 1.38535832c-.12276666.47554356.29562953.98566022.93133329.79374999.5852583-.37323977.43250641-1.07491476-.06138333-1.25447953-.32561211-.11817879-.6805083.034925-.8265583.34148977l-3.81176193-1.38535832c.08501856-.32878976-.0889-.67415832-.41451475-.79233976-.4935352-.17956212-1.06150828.26035-.85266473.92216287m.45755452 3.5842204c.01870604.6639269.63464543.90028977 1.04704351.63358977l2.51671654 3.18029163c-.3538352.34007689-.26564165.99412688.37606021 1.16451855.69426663-.01058334.93239162-.68791666.60642497-1.09996022-.21484165-.27163977-.59760376-.32773143-.88264995-.14322954l-2.51706844-3.18029163c.24518143-.23530189.27834165-.62053522.0635-.89217498-.32596665-.41204356-1.04034162-.33584356-1.21002684.33725643m-29.56524661-9.57579988c.21625453-.62794355-.27763522-1.06574165-.75741209-.96096665l-1.23789804-3.86221019c.45084998-.193675.5983102-.83714165.05715-1.22237498-.65334353-.23424356-1.11477684.31644166-.95426473.81632689.10583333.3302.44414809.5171731.77611284.44485453l1.2378954 3.86221018c-.31185378.13405644-.47871854.4829519-.37288521.8128.16051476.50023976.85583972.67980188 1.25130183.10936022M8.04742101 13.71247535c.1524.64664166.80362686.75282688 1.15358328.40851666l3.10867673 2.6045583c-.27798975.40463522-.05926666 1.02728976.60395377 1.06433142.67768784-.15063787.77364162-.86254165.37112308-1.19979809-.26564165-.22260189-.6515814-.200025-.89358518.0381l-3.10867674-2.6045583c.19226211-.28010643.14675378-.66392688-.11853333-.88653142-.40287308-.3372538-1.08690828-.1178269-1.1165416.57538143m37.2593269-7.61223968c.6551083.10971477 1.00506208-.44979166.82302875-.90557878l3.60433126-1.85878785c.26599355.41310454.9246314.45190833 1.2153185-.14499166.1231212-.68332879-.49600376-1.04739545-.96308328-.80680189-.30797499.15875-.43638521.5235231-.31044355.83890643l-3.60433126 1.8587852c-.18379544-.28575-.55562497-.39228976-.8635973-.23353977-.46672498.24059621-.52916665.95638143.09877688 1.25200832M5.14582305 6.1580921c.53198975.39758144 1.09960828.0606769 1.14652684-.42791855h4.05553313c.04691856.48859545.61453974.8255 1.14652684.42791856.42262952-.55068522.03915833-1.15816855-.48612687-1.15816855-.34642688 0-.62794353.26528712-.66039997.60325H6.29234989c-.03245379-.33796288-.31397044-.60325-.66039997-.60325-.5252852 0-.90875374.60748333-.48612687 1.15816855"/><path d="M12.84872456 4.22804403c-.66392686.01799167-.90064162.63394166-.63429353 1.04633976L9.03167096 7.78827732c-.33972498-.35454166-.99377495-.2670519-1.16487304.37465.009525.69391475.6868583.93309809 1.09925638.60748332.27199165-.21484167.32808331-.59725189.14428522-.88264999l3.18276007-2.51354164c.23494999.24518144.6201833.2786962.89217495.06420644.41204354-.32561477.33654999-1.03998976-.33654998-1.21038142M7.4494627 26.38672065c-.66216473.04938977-.86959805.6755712-.58384807 1.07526665l-3.0599934 2.66206284c-.35595453-.33796287-1.00506473-.21942954-1.14547116.42968333.04268788.69285378.7306045.89958332 1.12677305.55456666.26140832-.22754167.29950832-.6120712.10230643-.8886481l3.05964152-2.6617083c.2462371.23353977.63252876.24906023.89393708.02151063.39652308-.34466212.28716286-1.05480378-.39334544-1.19274165m12.55712172-3.90030224c-.60642497.27058143-.58949164.93027498-.18556022 1.20967498l-1.9783768 3.54047685c-.44943975-.19755379-1.02023328.13370454-.93274616.79198787.27481476.63746855.99201283.59901666 1.24812948.14040379.16897878-.3023288.07478712-.67733333-.20425832-.87065378l1.9780249-3.5404795c.31079544.136525.67980186.02045229.84878329-.28222046.25611665-.45825832-.08713787-1.08937688-.77399617-.98918975"/><path d="M3.33642504 30.9837687c.33937309.57079355.99271662.47695642 1.22308138.04303976l3.7468517 1.55151665c-.14357878.46954545.25223786.99765378.8957045.83396666.6011333-.34713333.47942497-1.05515832-.00600604-1.25588976-.32032309-.13264356-.68156663.0049477-.84102306.3048l-3.7472036-1.55151665c.09948332-.32490833-.05891477-.67768522-.37923786-.80997689-.48542044-.20108333-1.07173707.2134288-.89217496.88406022M27.03497574 6.714069c-.54645187.3774731-.4081621 1.02270453.04021667 1.22308142l-1.29222494 3.84421851c-.47836664-.11147689-.97825185.31926477-.77117042.95038333.38734998.57573332 1.0854954.4060481 1.25271206-.092075.1104212-.32843523-.05115189-.67945-.36124354-.81809166l1.29222493-3.84421851c.33090642.07690643.67204164-.1051269.7824602-.43356477.16721665-.49776856-.28645378-1.05480378-.94297496-.82973332m-9.08790787 21.25627283c-.51399544.42051023-.32384999 1.05233522.1393481 1.21567045l-.97684162 3.93629616c-.48577498-.07232121-.94897306.39757878-.69144353 1.00964998.4328583.542925 1.11477684.31679356 1.2410704-.1929712.08360832-.33619546-.10618523-.6731-.42650832-.78598712l.97684162-3.93629616c.3358462.04974167.6611064-.15945379.74471473-.49565189.12629356-.50976476-.37076854-1.02834809-1.00718138-.75071022M43.49099991 7.88423375c-.4868333.45190833-.25752688 1.07068143.21484166 1.20473522l-.72954353 3.98956472c-.48930187-.04198144-.92251472.45578976-.6268852 1.05057309.46566665.51470189 1.13206207.24694356 1.22660828-.269875.06244166-.34078333-.14816666-.66533976-.47483975-.7581212l.72954352-3.98956207c.33831476.0289269.64981664-.200025.7122583-.54080833.09419166-.5168212-.43426854-1.00329998-1.05198328-.68650643M8.0541229 27.77031684c.66004808-.07373144.84419807-.7073212.5443352-1.09608143l2.95945175-2.7728333c.36865453.32455644 1.01282495.18203334 1.12924161-.47166476-.06808522-.69073712-.7630583-.87206401-1.14652683-.51293712-.25294166.23706666-.27693143.62300378-.0694981.89182045l-2.95945175 2.7728333c-.25505832-.22436667-.64170186-.2257769-.89464352.0112977-.38311665.3591269-.24764999 1.06433143.43709165 1.1775731m19.35903235-.63677271c-.65652117-.10018977-.99836282.46425644-.80962496.917575l-3.57716648 1.91064353c-.27163976-.40886856-.9309814-.43850189-1.21284994.16298333-.11324166.68474166.51117497 1.03963786.9743704.79233976.30550643-.16333522.42897953-.5298731.2980981-.84313976l3.57751838-1.91099543c.18767953.2829269.56091664.384175.86642306.22119166.46354998-.24765.5154083-.96414165-.11676856-1.25059809M8.0160229 15.74412343c.39758143-.53198977.0606769-1.09960832-.42791853-1.14652953v-4.05588518c.48859543-.04656667.82549996-.61418522.42791854-1.14617499-.5506852-.42262689-1.1581685-.03915833-1.1581685.4861269 0 .34642953.2652871.6279462.60324996.66004809v4.05588518c-.33796285.03245644-.60324997.3136212-.60324997.66039999 0 .52528787.6074833.90840453 1.1581685.48612954"/><path d="M15.2352661 27.52407707c-.36053975-.55774166-1.00964994-.43956022-1.22378516.00238125l-3.80223958-1.41111021c.12629356-.47448523-.28892499-.98742499-.92604162-.7997481-.58772687.36935833-.4395602 1.07209166.05291666 1.25483143.32490832.12065.68086284-.03033978.8290295-.33584356l3.80223694 1.41075831c-.08713523.32843523.08431476.67486212.40922308.79551212.49247687.18273977 1.0632704-.25364546.85866019-.91686855m22.28708864 3.55432249c-.55174618-.36971022-1.10102115-.00457729-1.1228916.48612954l-4.05024147.20813712c-.07196666-.485775-.65616663-.79269166-1.16698971-.3683-.39369998.5715.02045229 1.1585231.54504164 1.13135832.34607498-.0176477.6134814-.29703712.62829807-.63605832l4.05059336-.20849166c.04974166.3358462.34431021.58631665.6903852.56867953.5245814-.02716477.87629995-.6533462.42580451-1.18145453"/><path d="M28.1045988 34.20110198c.65934162.08043334.98424994-.49388976.78210829-.94121021l3.51931005-2.01542119c.28363332.40075644.9433295.41063333 1.20755827-.19861212.09278143-.68791666-.5415121-1.02446665-.99730185-.76341286-.30091854.17215643-.41310187.5422212-.27340188.85160642l-3.5193127 2.01577308c-.19614355-.27728333-.57220376-.3675962-.87277041-.19543977-.45578975.26105644-.48648141.97860643.15381022 1.24671665m17.49918624-11.27089531c-.5319871-.39758143-1.09960563-.06067954-1.14652683.42791856h-4.05553313c-.04691856-.4885981-.6145371-.8255-1.14652684-.42791856-.42227498.55068522-.03915833 1.15816855.48612687 1.15816855.34642953 0 .62794618-.26528977.66039997-.60325h4.05553313c.03245643.33796023.31397308.60325.66039996.60325.5252852 0 .9087564-.60748333.48612687-1.15816855M21.945451 15.61183176c.39758142-.53198976.06103143-1.09960832-.42756665-1.14652953v-4.05553328c.48859808-.04691856.82514807-.61453712.42756665-1.14652688-.5506852-.4226269-1.15781661-.03915833-1.15781661.48612689 0 .34642954.26493786.6279462.60324997.6604v4.05553327c-.3383121.03245644-.60324997.3139731-.60324997.6604 0 .52528786.6071314.90875642 1.1578166.48612953m16.18015373 15.48376837c.63817497.18309166 1.04951208-.3326712.92039542-.80645l3.79236268-1.43721664c.21695832.44026666.86712685.55386022 1.22378517-.00635.1996731-.66463333-.37394355-1.09678786-.86501019-.9105212-.32420452.12276667-.4931833.47025454-.40393142.79798333l-3.79236003 1.43721664c-.14993143-.30444545-.50729619-.45261211-.83114617-.32984545-.49141854.18591212-.63464543.88970378-.04409546 1.25518332m-24.43303664.44908522c-.16580378-.64311476-.81914996-.7362481-1.16204994-.38452689l-3.1615934-2.53999997c.26952309-.41063333.0381-1.02834809-.62582687-1.05163142-.6741583.1647481-.75564996.87806476-.34607498 1.20720642.26987499.21695833.6554602.18661856.89252685-.0567981l3.1615934 2.54035186c-.18626665.28363333-.13299545.66675.13687954.88370832.40957498.32914167 1.08902494.09560454 1.1045454-.59831022"/><path d="M30.18880892 31.48295012c-.5288121-.40181476-1.09890184-.0691462-1.14970184.4191l-4.05553313-.02998788c-.04303977-.48930189-.60818974-.83008522-1.14299994-.43638522-.42686021.54751022-.0479769 1.15781665.4773083 1.16169809.34642688.00238125.6300602-.26070454.6649852-.59831287l4.05553313.02998788c.02998787.33831212.30938786.60571855.65581474.60818711.5252852.00388938.91298972-.60077878.49459354-1.1542871m-12.96634481 3.21415829c.0829019-.65898977-.49036285-.98601476-.93838972-.78528333l-2.00413134-3.52601472c.40181475-.2822231.41380831-.94191666-.19473332-1.20826476-.6875621-.09489546-1.02587685.53833976-.7665852.99518786.17145.30091856.5411602.41451212.85089996.27587046l2.00413134 3.52601472c-.27798976.19508523-.36935831.57079356-.19826286.87206666.25964619.45649356.97719615.48965643 1.24707114-.1495769m30.2309356-21.91067471c-.39758142.53198976-.06103143 1.09960831.42791854 1.14652687v4.05553329c-.48894997.0469212-.82549996.61453976-.42791854 1.14652952.5506852.4226269 1.1581685.03915834 1.1581685-.48612953 0-.3464269-.2652871-.62794356-.60324996-.6604v-4.05553328c.33796285-.03245379.60324997-.31397045.60324997-.66039999 0-.52528522-.6074833-.90875378-1.1581685-.48612689m9.60331618 21.49157473c-.24235833-.6184212-.90205186-.631825-1.19979805-.2413l-3.44557862-2.13924618c.21801666-.43991212-.08678333-1.02517044-.74859617-.96802044-.6491102.24482689-.64381853.96308332-.19755378 1.24036665.29421665.18273712.67309997.10583333.87912041-.1643962l3.44558127 2.13924617c-.15063522.30409356-.05150644.67803712.24271022.86077689.44626474.27693143 1.09255448-.03668977 1.02411471-.72742689m-7.08130797-24.21501826c.39758142-.53198976.0606769-1.09960832-.42791854-1.14652952V4.86092735c.48859543-.04691856.82549996-.61453711.42791854-1.14652688-.5506852-.422275-1.1581685-.03915833-1.1581685.4861269 0 .34642953.2652871.6279462.60324996.66039998v4.05553329c-.33796285.03245643-.60324997.3139731-.60324997.66039999 0 .52528787.6074833.90875642 1.1581685.48612953m-10.00759949 7.84154347c-.35277688-.56303333-1.00329995-.454025-1.22378516-.01516063l-3.78177671-1.46402952c.13264356-.47272045-.27516665-.99165832-.9147545-.81315189-.59301853.36124356-.45472876 1.06609355.03527954 1.25553522.32314355.12523787.6812121-.0204523.83361209-.3242019l3.78177935 1.46438142c-.0917231.327025.07514166.67592045.3982852.80115833.48965642.18944166 1.06644806-.23847954.8713602-.9045231M30.17223012 2.52448193c-.62159617-.2345981-1.07350448.24623712-.98319161.72883711l-3.89678314 1.12394999c-.1806231-.45684546-.81914996-.62300379-1.22025827-.09348523-.2532962.64628976.28363332 1.12359809.78810375.97789999.33302309-.09595644.52987308-.428625.46743141-.76235189l3.89678314-1.12394999c.12488333.31573523.46884164.49282879.80151019.39652046.50482497-.14534356.70484996-.83537689.14640453-1.24742044"/><path d="M45.28452293 10.54417728c.65757686.09348788.99412684-.47448522.80045185-.92568711l3.55811649-1.94627498c.27587309.4064.93521472.42932879 1.21108517-.17497954.10653976-.68579999-.52140377-1.03469544-.98213329-.78246021-.30409354.16615833-.4236852.53375188-.28998332.84596021l-3.55811648 1.94627498c-.1905-.28081023-.56479543-.37852879-.86853708-.21237046-.46108142.25223523-.50588331.96907878.12911666 1.24953711m8.22818671 8.2264249c-.5319871-.39757879-1.09960828-.0606769-1.14652684.4279212h-4.05553313c-.04691856-.4885981-.61453974-.82549999-1.14652684-.4279212-.42262952.55068787-.03915833 1.1581712.48612687 1.1581712.34642688 0 .62794353-.26528977.66039997-.60325h4.05553313c.03245643.33796023.31361854.60325.66039996.60325.5252852 0 .90840185-.60748333.48612688-1.1581712M31.96434026 36.5925834c.66039997-.073025.84454996-.70661477.54504164-1.09572954l2.96156842-2.77071663c.36829998.32490833 1.01247305.18309167 1.12959615-.47095832-.06773333-.69073712-.7627064-.87206666-1.14617494-.51329167-.2532962.23671477-.27728332.62265454-.07020454.8914712l-2.96156842 2.77106853c-.25470642-.22471856-.64134996-.22613143-.89429162.01058333-.38346854.358775-.24870832 1.06433143.43603331 1.1775731m-21.55719058-9.82662488c-.2060231-.6314731-.86359995-.68297954-1.1835685-.3104462l-3.31505173-2.33644544c.24306211-.42650833-.02681287-1.02869998-.69073973-1.01000453-.66286853.20672954-.6992064.923925-.269875 1.22660832.28328143.1996731.66604354.14499167.8872352-.11253523l3.31540626 2.33609354c-.16827499.2949231-.09101666.67380643.19226477.87347953.42932877.30268333 1.09255184.02681023 1.06432873-.66675M7.2501415 14.07301511c-.66357496-.02963333-.94367874.56797045-.70767041.99836022L3.18861292 17.3513772c-.31362119-.377825-.97225639-.3369019-1.18886281.29068976-.03986213.69320833.61877307.98001666 1.05304161.68474166.28680832-.19508522.37041665-.57255832.20708143-.87030188l3.35421006-2.28000452c.21660642.26140833.59866474.32243977.88512116.12770644.43426854-.295275.40992688-1.01317688-.24906286-1.23119355M43.10364993 33.3442039c.60254618-.2797519.57502951-.93909356.16686476-1.21214356l1.92228514-3.57116851c.45261474.1905 1.01776472-.14993144.92004351-.80680453-.28469165-.63288333-1.00118063-.58314166-1.2502435-.12065-.16404166.3048-.06385189.67839165.2183712.86712953l-1.92228778 3.57116851c-.3129121-.13158522-.68015376-.009525-.84419541.2956269-.24906287.46249166.10406855 1.08796665.78916208.97684165M39.56070465 8.16857352c.5319871.39757879 1.09960828.0610288 1.14652684-.42756666h4.05553313c.04691856.48859545.61453974.82514545 1.14652684.42756666.42262687-.55068787.03915833-1.15781665-.48612687-1.15781665-.34642688 0-.62794354.26493522-.66039997.60325h-4.05553313c-.03245644-.33831478-.31397309-.60325-.66039997-.60325-.5252852 0-.90875639.60712878-.48612687 1.15781665m1.24953706 8.57743702c-.39757877.53198976-.06067689 1.09960832.42792119 1.14652953v4.05553328c-.48859808.04691856-.82549996.61453711-.42792119 1.14652688.55068785.42262689 1.15817115.03915833 1.15817115-.4861269 0-.34642953-.26528975-.6279462-.60324997-.66039998v-4.05553328c.33796022-.03245644.60324997-.3139731.60324997-.6604 0-.52528786-.6074833-.90840453-1.15817115-.48612953m-20.20851944-.45755189c-.63076663.20778522-.6805083.86571665-.30691665 1.18462688l-2.32586465 3.32210829c-.42756665-.2416519-1.02869995.02998788-1.00823972.69391476.2088462.66181022.92639616.69638333 1.2276666.26599356.19861476-.28398522.142875-.66639545-.11571022-.88688332l2.32621655-3.32246019c.29527498.16721667.6741583.0889.87277306-.19508522.30127044-.43003787.02362729-1.09255453-.66992497-1.06221476m19.20028237 15.02339337c-.3136212-.58561022-.97013972-.52105189-1.21990638-.098425l-3.67347481-1.7187333c.1647481-.46249167-.20672689-1.00788523-.85689806-.8734769-.61630187.31996856-.52634354 1.03257878-.05044546 1.25518332.31361855.1467538.6808602.02574396.85372042-.2667l3.67347481 1.71873332c-.11394545.31996856.028575.67944999.3421962.82620378.47589543.22260454 1.08055827-.1651.93133328-.84278522m17.60431313-1.57762308c-.10301022-.65581212-.7440083-.81174166-1.11901017-.49459356l-2.90194985-2.8335102c.30797498-.38241286.13687689-1.01988142-.52140641-1.10701665-.6868583.0987769-.83714163.80115833-.46107877 1.16839999.24764998.24200379.63429353.24870833.89393708.02963333l2.90159795 2.8331583c-.21272498.26458333-.19684999.650875.0511519.89323332.37570831.36688712 1.07456282.200025 1.15675827-.48930453m-6.03814326 4.54695448c.61277497-.25576477.61171664-.91581286.21448976-1.20473786l2.06269157-3.49214541c.44449998.20813712 1.02305374-.10900833.95144162-.76940833-.25929166-.6438212-.97754806-.62265453-1.24459994-.17039166-.17603787.29845-.09066477.67556855.18379545.87524165l-2.06269156 3.49214542c-.30726855-.14393333-.67874353-.03633523-.8551333.26176287-.26705188.45226022.06103144 1.09149355.7500064 1.00753332"/><path d="M41.51967955 22.51040024c.66004543.07514166.98036852-.50165.77434542-.94756022l3.50237672-2.04505452c.28680832.39863977.9468564.403225 1.20579615-.20849166.08713522-.68862045-.5503333-1.01987878-1.0036545-.75494355-.29950831.174625-.40851664.5457481-.26634544.85407499l-3.50237672 2.04469997c-.19826286-.27551856-.5750295-.36265643-.87418329-.18803144-.45367308.26493788-.47872118.98283976.16404166 1.24530643M9.47369973 11.51784394c-.13370189-.65052045-.78140186-.77611022-1.14123517-.4416769L5.30104615 8.38165042c.28998332-.3965231.08925189-1.02517309-.5725583-1.08161665-.68156664.13123333-.79868974.83961022-.40604809 1.18886022.25893976.23001287.6455833.2187231.89429162-.01235605l3.03141841 2.69451664c-.20037688.27410833-.16615832.65934166.09278143.88935188.39264165.3488981 1.08267495.14993144 1.13276851-.5425731m31.96131316 16.5907956c-.53198974-.39757879-1.09960828-.0610288-1.14652948.4279212h-4.05553313c-.04691856-.48895-.6145371-.82549999-1.14652684-.4279212-.42262687.55068787-.03915833 1.1581712.48612687 1.1581712.34642953 0 .62794618-.26528978.66039997-.60325h4.05553313c.03245643.33796022.31397308.60325.66039996.60325.52528785 0 .9087564-.60748333.48612952-1.1581712"/><path d="M3.25810838 7.75546898c.53198974.39758144 1.09960827.06103144 1.14652948-.42791855H8.460171c.04691856.48895.6145371.82549999 1.14652684.42791855.42262687-.55068522.03915833-1.15816854-.48612687-1.15816854-.34642953 0-.62794618.26528976-.66039997.60324999H4.40463786c-.03245644-.33796023-.31397309-.60325-.66039997-.60325-.52528784 0-.90875639.60748333-.48612951 1.15816855m28.66460499 3.26072496c-.39758142.53198977-.06067954 1.09960832.42791854 1.14652953v4.05553328c-.48859808.04691856-.82549996.61453712-.42791854 1.14652688.5506852.4226269 1.1581685.03915834 1.1581685-.48612689 0-.34642953-.26528975-.6279462-.60324997-.66039999v-4.05553328c.33796022-.03245644.60324997-.3139731.60324997-.6604 0-.52528786-.6074833-.90875642-1.1581685-.48612953M48.41083943 6.8879902c.6364102.1905 1.05374541-.32102953.92956852-.79586665l3.80823504-1.39523786c.2120212.44308977.8607795.56373976 1.22378781.00740833.20707878-.66216211-.36159808-1.10066665-.85513329-.92004355-.32526286.11923977-.49812308.46496023-.41239808.7933981l-3.80823504 1.3952352c-.14675643-.30621022-.50200452-.45861022-.82761662-.3393731-.49318331.18062311-.64417308.88265-.05820834 1.25447953m-32.21848814 9.507712c-.12770379-.65193332-.77434542-.78351854-1.13700184-.45261211l-3.00637295-2.72238784c.29351286-.3937.09877953-1.02411211-.56267877-1.08655378-.68262496.1245288-.80644996.83220189-.4169833 1.18462688.25682044.23283333.64346662.2250731.89429161-.00388937l3.0063703 2.72238784c-.20284544.27234356-.17215377.65792878.08466667.89041022.38911475.352425 1.08126472.15980833 1.13770828-.53198977M.8666297 31.37323535c.60324998-.27798976.57820187-.93733142.17109546-1.21179165l1.93463323-3.56446662c.45190831.19191023 1.01847116-.14605.92286662-.80327499-.28222044-.63429355-.99906661-.5870231-1.24953706-.12523523-.16545453.30444546-.066675.67839166.21519355.86818522L.92589637 30.1011187c-.31256286-.1329981-.6798045-.01198562-.8449045.2924519-.25082499.46178786.10018977 1.08832119.78563784.97966475"/><path d="M6.15300444 7.2531152c-.28539809-.5997231-.94438783-.56691476-1.21390827-.15628144L1.35169824 5.20524023c.18661856-.45437954-.1583981-1.01670643-.81456473-.91334166-.63041209.29033523-.57467497 1.00612045-.11006666 1.25130188.30656476.1615731.67909807.05820833.86536473-.2257769L4.8798295 7.2090171c-.12876476.314325-.00351895.68015642.30303522.84172688.4646083.24482954 1.08690828-.11359356.97013972-.79762878m28.52984212 19.66242021c-.6551083-.1075981-1.00400638.45261477-.82020829.90804999l-3.59974602 1.8683102c-.2667-.41204355-.92568708-.44943712-1.21461207.14852121-.12135643.68332878.49882687 1.04598522.96484541.80397878.30762309-.15980833.43532952-.52493332.30832953-.83961022l3.59939148-1.86866474c.18450189.2850462.5566833.39087953.86430375.2314231.46602119-.24200644.52634618-.95779166-.10230379-1.25200832M6.02917945 28.53302062c.09031022-.65792878-.47907308-.99165832-.92957117-.79621855l-1.96320823-3.54859163c.40498975-.27763522.42474619-.93733142-.18062045-1.21037877-.6865064-.10301288-1.03222949.52634355-.77787496.98601211.16756855.30338977.53586854.42121666.84737042.28575l1.96320823 3.54894351c-.28010378.19191288-.37570831.56656287-.20813711.8695981.25435188.45966855.97154995.5012981 1.24883327-.13511477m9.46573021-16.23765359c-.35630378-.56056476-1.00647495-.4473231-1.22378517-.00706437l-3.79165625-1.43933332c.1294712-.47342689-.28151665-.98954165-.92004351-.80680188-.59054997.3647731-.44767498 1.06891665.04339166 1.25518331.32420453.12311856.68121474-.02505604.83149806-.32949355l3.7916536 1.43933331c-.08960378.3273769.079375.67521666.40322498.79833522.49106664.18626666 1.06503782-.24553333.86571663-.91016666"/><path d="M16.82594103 6.42373377c-.5916083.3019769-.53974998.95990832-.12170833 1.21778976l-1.78893514 3.63960829c-.45931664-.17356667-1.01176662.187325-.8897064.84031665.3076231.62194545 1.02199806.54574545 1.25377305.07443523.15275189-.3107981.03880379-.68050833-.2501212-.85866022l1.78893779-3.63996283c.31749998.1199462.67980186-.01553104.83255375-.32631856.23177499-.47166476-.14428522-1.08338142-.82479352-.94720832m19.38654902 11.92565175c-.01304396-.66427879-.62723974-.90522689-1.04175184-.64205379l-2.49061275-3.2011064c.35701285-.33725643.27446286-.99165831-.36618332-1.16769354-.69426663.0049477-.93803518.68050832-.61559543 1.09502044.212725.27340454.5951352.3326712.88159163.15063788l2.4906101 3.20110375c-.24694355.23318787-.28363332.61806666-.07055643.8914712.32243975.41451212 1.03716661.34431022 1.21249804-.32737954m-21.1158656 9.11577678c-.63217687.20425833-.68579997.86183786-.3139731 1.18286475l-2.34526654 3.30870186c-.42615377-.244475-1.02869995.0239977-1.01211851.68791666.20496476.6632231.92216018.70167499 1.22590183.27305.20037953-.282575.14675643-.66569166-.11041855-.88758712l2.34561844-3.3087045c.29421665.16898144.6734545.09278144.8738314-.18979356.30374164-.428625.02998522-1.09255188-.66357497-1.0664481M48.89837654 14.8127901c.17568332.64064356.83043972.72354545 1.16769614.36688712l3.1996934 2.49167118c-.26317308.41451212-.022225 1.02869999.64205641 1.04175188.6716871-.17497689.74224353-.88970642.32772878-1.21214354-.27340189-.21307954-.6582833-.17674167-.89146852.0702019L50.1440348 15.0794901c.18203332-.28680833.12276666-.66886666-.15063523-.88159165-.4141602-.32279167-1.09008327-.0790231-1.09502304.61489165m-26.91905887-2.89454163c-.4998852.43709167-.28962877 1.06256666.17850643 1.21073332l-.8484314 3.96592685c-.4875371-.05644356-.93556661.42791855-.6582833 1.03152309.4501462.52846022 1.1243045.28045833 1.23437115-.23318787.07231856-.33866667-.12805832-.66957045-.4519083-.77187689l.84842874-3.96592685c.33725642.03915834.65581474-.1806231.7281333-.51964166.11006666-.5136462-.40392877-1.01564809-1.03081662-.71754999M11.47500796 14.800442c-.39758141.53198976-.06067689 1.09960832.42791854 1.14652688v4.05553328c-.48859543.04692121-.82549995.61453977-.42791854 1.14652953.5506852.422275 1.1581685.03915833 1.1581685-.48612953 0-.3464269-.2652871-.62794356-.60324996-.6604v-4.05553328c.33796286-.03245379.60324997-.31397045.60324997-.66039999 0-.52528522-.6074833-.90875378-1.1581685-.48612689"/><path d="M20.74777227 17.4589753c-.23495.62124166.24588521 1.07350188.72848519.98319165l1.12253971 3.89713518c-.45649618.18027121-.6230064.8187981-.09348787 1.22025832.64593785.25329356 1.12359805-.28328143.9782545-.78775188-.09595644-.3330231-.42897952-.530225-.7627064-.46778333l-1.12253972-3.89713518c.31573786-.12453144.49283141-.46848977.39687498-.80151287-.14534355-.50447045-.83537685-.70484999-1.2474204-.14640189M10.2416978 35.07105197c-.41451475-.51893522-1.04880828-.33655-1.21743517.12453144l-3.9242998-1.02411476c.07796212-.48471666-.38593976-.95391022-1.00118329-.70343976-.54786474.42615643-.33019998 1.1105462.1778 1.24318976.33549164.08748976.67451019-.0980731.79127875-.41663144l3.9242998 1.02376286c-.053975.33549167.15134166.66322045.48648141.75071022.50835187.13264357 1.03257874-.3584231.7630583-.99800832M3.7759879 8.22642731c-.51434998.42015833-.32526287 1.05233786.13758332 1.21602499l-.98178139 3.93488328c-.48542308-.07267046-.94967685.3965231-.69250186 1.0089462.43179998.54327689 1.1140704.31820378 1.2410704-.19120644.08396287-.3361981-.1051269-.67345189-.42544998-.78669355l.98178139-3.93523783c.33584354.0504481.6614583-.15839545.74541852-.49459355.127-.50976477-.36935831-1.02869999-1.0061204-.7521231m11.41553465 17.89959144c.63817496-.18415.71261019-.83996476.3510121-1.17228142l2.44827942-3.23320565c.41804165.2575269 1.02905185.00812271 1.03328518-.65581476-.1837981-.66921855-.89958329-.73024999-1.21673138-.3115019-.20919544.276225-.16756855.6604.0821981.89041023l-2.44827677 3.23320829c-.28892499-.17815454-.6702795-.1139481-.87947496.16262879-.31714808.4183962-.06420643 1.09078976.6297083 1.08655642m10.0520495-13.73046195c-.39758142.53198712-.06103143 1.09960832.42756664 1.14652688v4.05553328c-.48859807.04691857-.82514806.61453977-.42756664 1.14652689.5506852.42262953 1.1578166.03915833 1.1578166-.4861269 0-.34642688-.26493785-.62794355-.60324996-.66039999v-4.05553328c.3383121-.03245643.60324997-.3139731.60324997-.66039999 0-.52528522-.6071314-.90875643-1.15781661-.48612689M4.9532064 36.0440122c-.47095831.46813786-.22119166 1.07879619.25541021 1.19662308l-.59372497 4.01214162c-.4903602-.0254-.90663708.48683332-.59125376 1.07138521.48295187.498475 1.13982494.20813977 1.21672873-.31150189.0508-.3425481-.17039166-.65969355-.4998852-.74153976l.59372497-4.01178708c.33937308.0172773.6427602-.22225.6935602-.5647981.07690642-.51964165-.46778332-.98777688-1.07456018-.65052309"/></g></svg>