<svg xmlns="http://www.w3.org/2000/svg" xml:space="preserve" viewBox="0 0 87.12 67.32"><g fill="#231f20"><path d="M16.82 62.93c-.66-.07-.97.51-.76.96l-3.48 2.08c-.29-.4-.95-.39-1.2.23-.08.68.56 1 1.01.74.3-.18.4-.55.26-.86L16.13 64c.2.28.58.36.87.18.45-.27.47-.99-.18-1.24m-5.3-24.57c.34.57.99.47 1.21.03l3.77 1.52c-.14.47.26 1 .9.82.6-.35.47-1.05-.02-1.25a.66.66 0 0 0-.84.31l-3.76-1.52a.66.66 0 0 0-.38-.8c-.5-.2-1.07.22-.89.89m-.49 4.17c.2.63.86.69 1.19.32l3.3 2.35c-.25.43.02 1.03.68 1.02.67-.2.7-.92.28-1.23a.66.66 0 0 0-.89.1l-3.3-2.35c.17-.3.1-.67-.19-.87-.43-.3-1.09-.03-1.07.66m7.05 13.29c-.12-.66-.76-.8-1.13-.47l-2.96-2.78c.3-.39.12-1.02-.54-1.1-.69.12-.83.82-.44 1.18.25.24.64.24.9.01l2.95 2.78c-.2.27-.18.65.07.89.38.36 1.08.18 1.15-.51m-.38 1.78c-.67-.03-.94.57-.7 1l-3.34 2.3c-.31-.37-.97-.32-1.18.31-.04.7.62.97 1.05.68.29-.2.37-.58.2-.88l3.34-2.3c.22.25.6.31.89.12.43-.3.4-1.02-.26-1.23m.44-26.66c-.66.05-.87.68-.58 1.07l-3.06 2.67c-.35-.33-1-.21-1.14.44.04.69.73.9 1.13.55.26-.23.3-.62.1-.9l3.05-2.66c.25.23.64.25.9.02.4-.35.28-1.06-.4-1.2M12.1 46.8c.05.66.68.86 1.08.58l2.67 3.05c-.33.35-.21 1 .44 1.14.7-.05.9-.73.55-1.13a.66.66 0 0 0-.9-.1l-2.67-3.05a.66.66 0 0 0 .02-.89c-.34-.4-1.05-.28-1.19.4"/><path d="M10.63 42.31c.53.4 1.1.06 1.14-.42h4.06c.04.48.61.82 1.14.42.43-.55.04-1.15-.48-1.15a.66.66 0 0 0-.66.6h-4.06a.66.66 0 0 0-.66-.6c-.52 0-.9.6-.48 1.15m64.26-9.85c.02-.67-.58-.94-1-.7l-2.33-3.32c.37-.32.32-.98-.3-1.18-.7-.04-.98.63-.68 1.06.2.28.58.36.88.2l2.32 3.32a.66.66 0 0 0-.12.88c.3.43 1.02.4 1.23-.26m2.21 3.89c-.56-.36-1.1.02-1.11.5l-4.05.3c-.08-.5-.67-.79-1.17-.36-.38.58.04 1.16.56 1.12.35-.02.61-.3.62-.64l4.05-.29c.05.34.35.58.7.56.52-.04.86-.67.4-1.19m-7.66 24.8c.49.44 1.09.16 1.18-.33l4.04.38c0 .49.53.88 1.1.53.47-.5.14-1.15-.38-1.2a.66.66 0 0 0-.71.54l-4.04-.37a.67.67 0 0 0-.6-.66c-.53-.05-.96.52-.6 1.1M75.6 41.5c-.53-.4-1.1-.07-1.15.42H70.4c-.05-.49-.62-.82-1.15-.42-.42.55-.04 1.15.49 1.15.34 0 .63-.26.66-.6h4.05c.04.34.32.6.66.6.53 0 .91-.6.5-1.15m-6.61-9c.36.57 1 .45 1.22.01l3.8 1.44c-.13.47.28.99.92.8.59-.36.44-1.07-.05-1.25a.66.66 0 0 0-.83.33l-3.8-1.44a.66.66 0 0 0-.4-.8c-.49-.18-1.06.25-.86.92m-18.21.87c.3-.6-.13-1.1-.62-1.06l-.69-4c.47-.12.7-.74.23-1.2-.62-.32-1.15.16-1.06.68.06.34.37.57.7.55l.7 4a.66.66 0 0 0-.49.75c.1.52.76.8 1.23.28M36.2 26.71c-.36.56.01 1.1.5 1.12l.27 4.05c-.49.08-.79.66-.36 1.17.58.39 1.16-.04 1.13-.56a.66.66 0 0 0-.65-.62l-.26-4.05a.66.66 0 0 0 .56-.7c-.04-.52-.67-.86-1.19-.4M20.8 45.85c.65-.17.74-.82.39-1.16l2.52-3.18c.41.27 1.03.04 1.05-.63-.17-.67-.88-.75-1.2-.34a.66.66 0 0 0 .05.9l-2.52 3.17a.67.67 0 0 0-.89.14c-.32.41-.09 1.09.6 1.1m.95-15.94c0 .67.62.9 1.04.65l2.48 3.2c-.36.34-.28 1 .36 1.17.7 0 .94-.68.62-1.1a.66.66 0 0 0-.88-.15l-2.48-3.2a.66.66 0 0 0 .07-.9c-.32-.4-1.04-.34-1.21.33m-1.1 16.5c-.35-.57-1-.47-1.23-.04l-3.76-1.51c.14-.47-.26-1-.9-.83-.6.35-.47 1.06.02 1.26.32.13.68-.01.83-.32l3.76 1.52c-.1.33.07.68.39.8.49.2 1.07-.21.88-.88M31.3 53.1c-.16-.64-.81-.75-1.16-.4l-3.12-2.58c.27-.4.05-1.03-.62-1.06-.67.15-.76.87-.36 1.2.27.22.65.2.9-.04l3.12 2.58a.66.66 0 0 0 .13.88c.4.34 1.08.11 1.1-.58"/><path d="M73.84 63.44c-.24-.62-.9-.64-1.2-.25l-3.43-2.16c.22-.44-.08-1.03-.75-.97-.65.24-.65.96-.2 1.24.3.18.67.1.88-.16l3.43 2.16c-.15.3-.05.67.24.86.44.28 1.1-.03 1.03-.72"/><path d="M70.8 62.79c-.35-.57-1-.47-1.23-.03l-3.76-1.52c.14-.47-.26-1-.9-.82-.6.35-.48 1.06.01 1.25.32.13.68 0 .84-.31l3.76 1.51c-.1.33.07.68.39.81.49.2 1.07-.22.88-.9m-28.66-31c-.66-.09-.99.49-.79.94l-3.52 2c-.28-.4-.94-.4-1.2.2-.1.69.53 1.03.99.76.3-.17.41-.54.27-.85l3.53-2c.2.27.57.36.87.2.45-.27.49-.98-.15-1.25M50 39.4c-.48-.47-1.08-.2-1.2.27l-4.02-.53c.02-.5-.5-.9-1.08-.58-.49.49-.19 1.14.33 1.21.35.05.66-.18.74-.5l4.02.53c-.01.34.23.64.57.68.52.07.98-.48.64-1.08m-13.8-.43c.39-.53.05-1.1-.44-1.15v-4.05c.5-.05.83-.62.43-1.15-.55-.42-1.16-.04-1.16.49 0 .34.27.62.6.66v4.05a.66.66 0 0 0-.6.66c0 .53.61.91 1.16.49"/><path d="M48.22 39.1c.4-.53.06-1.1-.43-1.15V33.9c.5-.05.83-.62.43-1.15-.55-.42-1.16-.04-1.16.49 0 .35.27.63.6.66v4.05a.66.66 0 0 0-.6.67c0 .52.61.9 1.16.48m4.17 22.22c.53.4 1.1.06 1.14-.42h4.06c.05.48.61.82 1.15.42.42-.55.04-1.15-.49-1.15a.66.66 0 0 0-.66.6h-4.06a.66.66 0 0 0-.66-.6c-.52 0-.9.6-.48 1.15m-7.63-10.05c.66-.06.86-.69.57-1.08l3.04-2.7c.35.34 1 .21 1.14-.44-.05-.69-.74-.89-1.14-.54a.66.66 0 0 0-.09.89l-3.03 2.7a.66.66 0 0 0-.9-.02c-.4.35-.27 1.05.4 1.19m5.95 12.2c-.55-.38-1.1-.02-1.14.47l-4.05.12c-.06-.49-.64-.8-1.16-.4-.4.57 0 1.17.52 1.15a.66.66 0 0 0 .64-.62l4.06-.13c.04.34.33.6.68.58.52-.01.89-.63.45-1.17m22.61 1.39c-.37-.55-1.01-.43-1.22.02l-3.82-1.37c.12-.47-.3-.98-.94-.78-.58.37-.42 1.07.07 1.25.33.12.68-.04.82-.35L72.04 65c-.08.33.1.67.42.79.5.17 1.06-.27.85-.93M54.53 30.69c-.58.3-.52.97-.1 1.22l-1.74 3.66c-.46-.16-1 .2-.87.86.31.61 1.03.53 1.25.05a.66.66 0 0 0-.26-.85l1.73-3.67c.32.12.68-.02.83-.34.23-.47-.16-1.08-.84-.93"/><path d="M50.85 32.22c-.58.32-.52.97-.1 1.22l-1.7 3.68c-.47-.16-1.01.2-.88.86.32.61 1.04.52 1.26.05a.66.66 0 0 0-.27-.86l1.71-3.67c.32.1.68-.03.83-.35.22-.47-.17-1.08-.85-.93"/><path d="M52.56 37.14c-.6-.29-1.1.16-1.04.65l-3.98.8c-.14-.46-.76-.68-1.2-.18-.3.62.19 1.14.7 1.03a.66.66 0 0 0 .53-.72l3.97-.81c.1.32.43.53.77.46.52-.1.77-.78.25-1.23m-32.48.37c-.17-.64-.83-.72-1.17-.37l-3.19-2.5c.27-.41.03-1.02-.64-1.04-.67.17-.74.89-.33 1.21.27.22.66.18.9-.07l3.19 2.5a.66.66 0 0 0 .14.89c.42.32 1.1.08 1.1-.62m27.87-2.05c-.05-.67-.67-.88-1.08-.6l-2.64-3.07c.34-.35.22-1-.43-1.14-.69.03-.9.72-.56 1.12.23.26.61.3.9.1l2.64 3.08a.66.66 0 0 0-.03.9c.35.4 1.06.29 1.2-.4"/><path d="M55.26 37.18c-.65-.14-1.03.4-.87.87l-3.69 1.68c-.25-.43-.9-.5-1.22.09-.16.67.45 1.07.92.85.32-.15.46-.5.35-.83l3.7-1.68c.16.3.53.42.84.28.48-.22.58-.93-.03-1.26m-1.74 28.4c-.38-.55-1.02-.4-1.22.05l-3.86-1.25c.1-.48-.33-.97-.96-.76-.57.4-.4 1.1.1 1.25.34.11.69-.05.82-.37l3.86 1.25c-.07.33.12.67.45.78.5.16 1.05-.3.81-.96M17.14 53.13c.4-.53.06-1.1-.42-1.14v-4.06c.48-.05.82-.61.42-1.15-.55-.42-1.15-.03-1.15.5 0 .34.26.62.6.65V52a.66.66 0 0 0-.6.66c0 .52.6.9 1.15.48m44.16 4.35c.14-.65-.4-1.02-.87-.86l-1.7-3.68c.41-.25.48-.9-.1-1.22-.68-.15-1.07.45-.85.93.15.31.5.46.83.35l1.7 3.67a.66.66 0 0 0-.27.86c.22.47.94.57 1.26-.05m1.08 2.31c0 .67.6.93 1.02.68l2.37 3.29c-.37.32-.3.98.33 1.18.7.02.96-.65.65-1.07a.66.66 0 0 0-.87-.18l-2.38-3.3c.26-.22.3-.6.1-.88-.3-.43-1.02-.38-1.22.28"/><path d="M61.27 60.78c.63.2 1.05-.3.94-.78l3.83-1.34c.2.45.85.58 1.22.03.22-.66-.34-1.11-.84-.94a.66.66 0 0 0-.42.8l-3.83 1.33a.67.67 0 0 0-.83-.35c-.5.17-.65.87-.07 1.25M38.42 35.7c.07.66.7.85 1.1.55l2.76 2.96c-.33.37-.19 1.02.47 1.13.69-.06.87-.76.51-1.14a.66.66 0 0 0-.89-.07l-2.77-2.97a.66.66 0 0 0 0-.9c-.36-.38-1.07-.25-1.18.44M37.2 54.47c.62-.22.66-.88.28-1.19l2.25-3.37c.43.23 1.03-.05 1-.72-.23-.65-.95-.67-1.24-.23-.2.28-.13.66.13.88l-2.25 3.37a.66.66 0 0 0-.87.22c-.29.43 0 1.09.7 1.04m26.85-10.56c-.54-.4-1.1-.06-1.15.42h-4.06c-.04-.48-.61-.82-1.14-.42-.42.55-.04 1.15.48 1.15.35 0 .63-.26.66-.6h4.06c.03.34.31.6.66.6.53 0 .9-.6.49-1.15m-8.88 12.56c-.67.07-.86.7-.56 1.09l-3 2.74c-.36-.33-1-.2-1.13.46.06.69.76.88 1.15.52a.66.66 0 0 0 .07-.89l3-2.74c.25.23.63.24.89 0 .39-.35.26-1.06-.42-1.18m8.9-30.35c-.33.58.07 1.1.56 1.08l.52 4.03c-.48.1-.74.71-.28 1.19.6.35 1.15-.11 1.08-.63a.66.66 0 0 0-.68-.58l-.51-4.02a.66.66 0 0 0 .51-.73c-.06-.53-.71-.83-1.2-.34M31.4 53.92c.6-.26.58-.92.18-1.2l1.96-3.55c.46.2 1.02-.14.94-.8-.28-.63-1-.59-1.25-.13-.17.3-.08.68.2.87l-1.96 3.55a.66.66 0 0 0-.85.28c-.26.46.09 1.1.78.99m6.12-17.3c.43-.5.14-1.08-.34-1.17l.3-4.04c.5-.01.88-.55.52-1.11-.51-.46-1.15-.13-1.19.4-.03.34.22.64.55.7l-.3 4.04a.66.66 0 0 0-.66.62c-.04.52.54.95 1.12.57m-1.44-3.2c-.53-.4-1.1-.06-1.15.43h-4.05c-.05-.49-.62-.83-1.15-.43-.42.55-.04 1.16.49 1.16.34 0 .62-.27.66-.6h4.05c.03.33.32.6.66.6.53 0 .91-.6.49-1.16M27.5 63.11c-.26-.61-.92-.61-1.2-.22l-3.5-2.06c.22-.45-.1-1.03-.76-.96-.65.26-.63.98-.17 1.25.3.17.67.09.87-.18l3.5 2.06a.67.67 0 0 0 .26.86c.45.27 1.1-.06 1-.75m16.1 1.55c-.16-.64-.8-.74-1.15-.39l-3.16-2.55c.28-.4.05-1.02-.62-1.05-.67.16-.76.88-.35 1.2.27.22.66.2.9-.05l3.15 2.55a.66.66 0 0 0 .13.89c.41.33 1.09.1 1.1-.6m15.69-1.21c.38.54 1.03.38 1.22-.07l3.87 1.22c-.1.48.34.97.96.75.57-.4.39-1.1-.11-1.25a.66.66 0 0 0-.81.38l-3.87-1.22a.66.66 0 0 0-.45-.77c-.5-.16-1.05.3-.81.96m-25.8-7.9c-.62.22-.66.88-.28 1.2l-2.3 3.34c-.43-.23-1.02.05-1 .7.22.67.94.7 1.23.26a.66.66 0 0 0-.12-.88l2.29-3.35c.3.16.67.08.87-.2.3-.44.01-1.1-.68-1.06M44.42 33.8c.64-.15.76-.8.42-1.15l2.64-3.08c.4.29 1.03.07 1.07-.59-.14-.68-.85-.78-1.2-.38-.22.26-.2.64.04.89l-2.65 3.08a.66.66 0 0 0-.89.1c-.34.4-.13 1.09.57 1.13m12.77 1.68c-.6-.29-1.1.15-1.05.64l-3.98.78c-.14-.47-.76-.7-1.2-.2-.31.62.18 1.14.7 1.04a.66.66 0 0 0 .53-.72l3.98-.77c.1.32.42.53.76.46.52-.1.78-.77.26-1.23M24.54 26.9c.04.66.67.87 1.07.6l2.64 3.07c-.34.35-.23 1 .42 1.15.7-.04.9-.72.56-1.12a.66.66 0 0 0-.89-.11L25.7 27.4a.66.66 0 0 0 .03-.9c-.34-.4-1.05-.29-1.2.39m22.11 7.44c.65.13 1.02-.42.86-.88l3.67-1.73c.25.43.9.49 1.22-.1.14-.68-.46-1.06-.94-.84a.66.66 0 0 0-.34.83l-3.67 1.73a.66.66 0 0 0-.85-.27c-.48.23-.56.94.05 1.26m-15.02 2.22c.05.66.68.86 1.07.57l2.69 3.04c-.34.36-.21 1.01.44 1.15.69-.05.89-.74.54-1.13a.66.66 0 0 0-.89-.1l-2.68-3.04a.66.66 0 0 0 .02-.9c-.35-.39-1.06-.27-1.2.4m.5 10.32c-.53-.4-1.1-.06-1.15.43h-4.05c-.05-.5-.62-.83-1.15-.43-.42.55-.04 1.16.49 1.16.34 0 .62-.27.66-.6h4.05c.04.33.32.6.66.6.53 0 .91-.6.49-1.16"/><path d="M33.27 34.3c.64-.18.72-.84.36-1.17l2.48-3.22c.41.26 1.02.02 1.03-.65-.17-.67-.89-.73-1.21-.32a.66.66 0 0 0 .08.9l-2.48 3.2a.66.66 0 0 0-.88.16c-.32.42-.07 1.1.62 1.1M53.5 52.51c-.58.32-.5.97-.08 1.22l-1.66 3.7c-.47-.16-1 .22-.86.87.33.6 1.04.5 1.26.03a.66.66 0 0 0-.28-.85l1.66-3.7c.32.1.68-.04.82-.36.21-.47-.18-1.07-.86-.91m-7.83-20.05c-.6.28-.57.94-.16 1.21l-1.9 3.59c-.45-.2-1.01.15-.91.8.29.64 1 .59 1.25.12a.66.66 0 0 0-.22-.86l1.9-3.59c.3.13.67 0 .84-.3.24-.46-.11-1.09-.8-.97m18.24 7.69c-.07-.67-.7-.86-1.1-.56l-2.74-2.98c.33-.37.2-1.01-.46-1.14-.7.07-.88.76-.52 1.15.23.25.62.28.89.07l2.74 2.99a.66.66 0 0 0 0 .9c.36.38 1.07.25 1.19-.43m-5.11-7.44c.08.66.72.84 1.1.54l2.8 2.93c-.32.37-.17 1.01.49 1.12.69-.07.86-.77.5-1.15a.66.66 0 0 0-.9-.06L60 33.17a.66.66 0 0 0-.02-.9c-.36-.38-1.06-.23-1.17.45m-35.34-.45c.54-.38.39-1.03-.06-1.22l1.23-3.86c.48.1.97-.34.75-.97-.4-.57-1.1-.38-1.25.12-.1.33.06.67.37.8l-1.22 3.87a.66.66 0 0 0-.78.45c-.16.5.3 1.05.96.81m8.34-1.2c.66-.01.9-.62.65-1.04l3.21-2.47c.34.36 1 .28 1.17-.36 0-.7-.67-.94-1.09-.62a.66.66 0 0 0-.15.88l-3.22 2.47a.66.66 0 0 0-.9-.08c-.4.32-.34 1.04.33 1.22m-2.74 2.12c.57-.33.49-.99.06-1.22l1.62-3.72c.47.15 1-.24.85-.88-.34-.61-1.05-.5-1.25-.02a.67.67 0 0 0 .28.85L29 31.9a.66.66 0 0 0-.81.37c-.21.48.2 1.07.87.9"/><path d="M67.18 35.3c-.53-.4-1.1-.06-1.14.43h-4.06c-.05-.49-.61-.82-1.15-.42-.42.55-.03 1.15.5 1.15.34 0 .62-.26.65-.6h4.06c.03.34.31.6.66.6.52 0 .9-.6.48-1.15m-5.46 16.94c-.05.66.53.96.97.74l2.15 3.44c-.4.3-.38.96.24 1.2.7.07 1-.58.73-1.02a.66.66 0 0 0-.86-.24l-2.15-3.45c.27-.2.35-.58.16-.87-.28-.45-1-.45-1.24.2m.53-20.36c.29.6.95.56 1.21.14l3.6 1.86c-.17.45.18 1.01.83.9.63-.3.57-1.01.1-1.25a.66.66 0 0 0-.86.23l-3.61-1.85a.66.66 0 0 0-.31-.84c-.47-.24-1.09.13-.96.8m-35.4 25.63c0 .67.61.92 1.03.66l2.44 3.24c-.36.33-.28.99.35 1.17.7 0 .95-.67.64-1.09a.66.66 0 0 0-.88-.16l-2.45-3.24c.25-.22.3-.6.08-.89-.31-.42-1.03-.35-1.21.31m17.44.09c-.65-.13-1.02.42-.84.88l-3.65 1.79c-.25-.42-.91-.48-1.21.11-.14.69.47 1.06.94.83a.66.66 0 0 0 .33-.83l3.64-1.78c.18.29.55.4.86.25.47-.23.55-.95-.07-1.25m-6.87-11.9c.67-.05.88-.67.6-1.07l3.06-2.65c.36.34 1 .22 1.15-.42-.04-.7-.72-.9-1.12-.56a.66.66 0 0 0-.1.88l-3.08 2.65a.66.66 0 0 0-.9-.02c-.4.34-.29 1.05.4 1.2m-13.8 16.51c.29-.6-.16-1.09-.65-1.03l-.83-3.97c.47-.15.68-.77.18-1.21-.62-.3-1.14.2-1.03.71.07.34.39.56.72.52l.84 3.97a.66.66 0 0 0-.46.77c.11.52.79.77 1.24.24m16.31-28.74c.4-.53.06-1.1-.43-1.15V28.3c.5-.05.83-.62.43-1.15-.55-.42-1.16-.04-1.16.49 0 .35.27.63.6.66v4.05a.66.66 0 0 0-.6.67c0 .52.61.9 1.16.48"/><path d="M41.84 43.52c.19-.64-.33-1.05-.8-.93l-1.42-3.8c.44-.21.55-.86 0-1.22-.67-.2-1.1.37-.92.86.12.33.47.5.8.41l1.42 3.8c-.3.15-.45.5-.33.83.18.49.88.64 1.25.05m-8.94-7.26c-.07-.66-.7-.86-1.09-.56l-2.73-3c.33-.36.2-1-.46-1.13-.7.06-.88.75-.53 1.14.24.25.62.28.9.08l2.73 3a.66.66 0 0 0 0 .89c.35.39 1.06.26 1.18-.42m-3.65 24.53c-.4.53-.06 1.1.43 1.14V66c-.49.05-.83.61-.43 1.15.55.42 1.16.04 1.16-.49a.66.66 0 0 0-.6-.66v-4.06c.33-.03.6-.3.6-.66 0-.52-.6-.9-1.16-.48m12.69.2c-.53-.4-1.1-.06-1.15.43h-4.05c-.05-.49-.62-.82-1.15-.43-.42.55-.04 1.16.49 1.16.34 0 .63-.26.66-.6h4.05c.04.34.32.6.66.6.53 0 .91-.6.49-1.16M38.7 39.93c-.46-.48-1.08-.24-1.2.23l-4-.7c.04-.49-.46-.92-1.06-.61-.5.47-.23 1.13.28 1.22.34.06.67-.15.76-.48l4 .7c-.03.33.2.64.54.7.52.1 1-.44.68-1.06m13.65-11.12c-.2.64.31 1.06.79.94l1.37 3.82c-.44.2-.57.85-.02 1.22.66.21 1.1-.35.93-.85a.66.66 0 0 0-.8-.42l-1.36-3.81c.3-.15.46-.5.34-.83-.17-.5-.87-.65-1.25-.07m-6.63 11.9c.36-.56-.01-1.1-.5-1.12l-.26-4.04c.48-.08.78-.67.35-1.18-.58-.38-1.16.04-1.13.56.03.35.31.61.65.62l.26 4.05a.66.66 0 0 0-.56.7c.04.52.67.87 1.19.41m22.45 23.55c-.54-.4-1.1-.06-1.15.43h-4.06c-.04-.49-.61-.83-1.14-.43-.42.55-.04 1.16.48 1.16.35 0 .63-.27.66-.6h4.06c.03.33.31.6.66.6.53 0 .9-.6.49-1.16M25.8 63.02c-.63-.2-1.07.3-.95.77L21 65.1c-.2-.46-.85-.6-1.22-.05-.23.66.33 1.11.83.94a.66.66 0 0 0 .43-.78l3.85-1.29c.13.31.48.48.81.37.5-.17.67-.87.1-1.26m.4-7.21c.54.4 1.1.06 1.15-.43h4.06c.04.49.61.82 1.14.43.42-.55.04-1.16-.48-1.16a.66.66 0 0 0-.66.6h-4.06a.66.66 0 0 0-.66-.6c-.53 0-.9.6-.49 1.16M63.05 35c.25-.61-.22-1.07-.7-1l-1.04-3.92c.46-.17.65-.8.13-1.22-.64-.27-1.13.26-1 .77.09.33.42.54.75.48l1.03 3.93a.66.66 0 0 0-.42.79c.14.5.82.72 1.25.17m-2.8-1.53c-.66.05-.87.68-.58 1.08l-3.05 2.67c-.35-.33-1-.21-1.14.44.05.7.74.9 1.13.55.26-.23.3-.62.1-.9l3.04-2.67c.25.23.64.25.9.02.4-.35.28-1.06-.4-1.2M55.9 62.02c-.66.08-.84.71-.54 1.1L52.4 65.9c-.36-.33-1-.18-1.12.47.07.7.76.87 1.14.51a.66.66 0 0 0 .07-.89l2.95-2.78c.26.22.65.22.9-.01.38-.36.24-1.07-.44-1.18m-12.95-1.87c.37.55 1.02.43 1.23-.01l3.8 1.4c-.12.47.3.98.94.79.58-.38.43-1.08-.06-1.26a.66.66 0 0 0-.83.34l-3.8-1.39a.66.66 0 0 0-.42-.8c-.5-.17-1.06.27-.86.93m6.4-1.05c0-.66-.6-.92-1.02-.67l-2.38-3.3c.37-.32.31-.97-.32-1.17-.7-.02-.96.65-.66 1.07.2.28.59.36.88.18l2.38 3.29c-.26.22-.3.6-.1.89.3.42 1.02.38 1.22-.29m-8.7-25.24c-.65.1-.81.74-.5 1.12l-2.85 2.88c-.38-.31-1.02-.15-1.11.5.09.7.8.85 1.16.48a.66.66 0 0 0 .04-.9l2.85-2.88c.26.22.65.2.9-.04.37-.37.2-1.07-.49-1.16m-4.42 18.71c.35-.56-.03-1.1-.52-1.1l-.34-4.05c.48-.08.77-.68.33-1.17-.58-.38-1.16.05-1.11.58.03.34.31.6.65.6l.34 4.05a.66.66 0 0 0-.55.7c.05.53.68.86 1.2.4m1.24-7.62c-.11.65.45 1 .9.82l1.88 3.6c-.4.26-.44.92.16 1.2.68.12 1.04-.5.8-.96a.66.66 0 0 0-.84-.3l-1.88-3.6a.66.66 0 0 0 .23-.87c-.25-.46-.96-.52-1.25.1"/><path d="M47.08 59.46c-.53-.4-1.1-.06-1.14.43h-4.06c-.04-.5-.61-.83-1.14-.43-.43.55-.04 1.16.48 1.16.35 0 .63-.27.66-.6h4.06c.03.33.31.6.66.6.52 0 .9-.61.48-1.16m-21.97 7.47c.66-.07.85-.7.55-1.1l2.96-2.77c.36.32 1 .18 1.13-.47-.07-.7-.77-.87-1.15-.52a.66.66 0 0 0-.07.9l-2.96 2.77a.66.66 0 0 0-.9.01c-.38.36-.24 1.07.44 1.18m19.5-9.65c.55-.37.42-1.02-.02-1.23l1.38-3.81c.47.12.98-.3.8-.93-.38-.59-1.08-.43-1.26.06-.12.33.03.68.34.83L44.47 56a.66.66 0 0 0-.79.42c-.18.5.26 1.06.92.85"/><path d="M41.6 59.95c-.16-.64-.81-.74-1.16-.39l-3.15-2.55c.27-.41.04-1.03-.62-1.06-.68.17-.76.88-.35 1.21.27.22.65.19.89-.05l3.15 2.55a.66.66 0 0 0 .14.88c.4.34 1.08.1 1.1-.59"/><path d="M36.58 55.33c-.64.16-.75.81-.4 1.16l-2.6 3.11c-.4-.27-1.03-.05-1.06.6.15.69.86.78 1.2.38a.66.66 0 0 0-.04-.9l2.6-3.11c.27.2.66.15.88-.12.34-.4.12-1.09-.58-1.12m35-12.9c.47-.48.22-1.09-.25-1.2l.59-4.02c.49.03.9-.48.59-1.07-.48-.5-1.14-.2-1.22.31-.05.35.17.66.5.74l-.59 4.02a.66.66 0 0 0-.7.56c-.07.52.48.99 1.08.65m-9.52 23.8c.02-.66-.58-.94-1-.7l-2.3-3.33c.37-.32.32-.98-.3-1.19-.7-.03-.98.63-.69 1.06.2.28.58.36.88.2l2.3 3.33a.66.66 0 0 0-.12.9c.3.42 1.02.4 1.23-.27M20.28 32.98c.11-.66-.44-1.01-.9-.83l-1.83-3.63c.42-.26.46-.92-.13-1.21-.69-.13-1.06.49-.82.95.16.31.52.45.84.32l1.82 3.62a.66.66 0 0 0-.24.86c.24.47.96.54 1.26-.08m2 31.35c-.6-.25-1.07.22-1 .7l-3.91 1.04c-.17-.46-.8-.64-1.22-.12-.27.64.26 1.13.76 1a.66.66 0 0 0 .49-.76l3.92-1.03c.12.32.46.5.8.42.5-.14.72-.82.17-1.25M51.17 43.3c.12-.66-.43-1.02-.9-.85L48.5 38.8c.42-.26.47-.91-.12-1.22-.68-.14-1.06.47-.83.95.15.3.52.44.83.33l1.78 3.64a.66.66 0 0 0-.25.86c.23.47.95.55 1.26-.07"/><path d="M19.3 64.86c.39-.53.05-1.1-.44-1.15v-4.05c.5-.05.83-.62.43-1.15-.55-.42-1.16-.04-1.16.49 0 .34.27.62.6.66v4.05a.66.66 0 0 0-.6.66c0 .53.61.91 1.16.49M53.1 36.14c.53.4 1.1.06 1.15-.42h4.05c.05.48.62.82 1.15.42.42-.55.04-1.15-.49-1.15a.66.66 0 0 0-.66.6h-4.05a.66.66 0 0 0-.66-.6c-.53 0-.91.6-.49 1.15m13.66 25.28c.65.1 1-.46.81-.92l3.58-1.9c.27.42.93.45 1.22-.15.11-.68-.5-1.04-.97-.8a.66.66 0 0 0-.3.85l-3.59 1.9a.66.66 0 0 0-.87-.23c-.46.24-.51.96.12 1.25m-49.32-2.67c.59-.3.53-.96.11-1.21l1.76-3.66c.46.17 1-.2.88-.85-.32-.62-1.03-.54-1.26-.06a.66.66 0 0 0 .26.85l-1.75 3.66a.66.66 0 0 0-.83.34c-.23.47.15 1.08.83.93M40.91 32c-.25.62.22 1.08.7 1l1.02 3.93c-.46.17-.65.8-.13 1.22.64.27 1.13-.25 1-.76a.66.66 0 0 0-.75-.49l-1.01-3.92c.32-.12.5-.46.42-.8-.14-.5-.82-.72-1.25-.18m34.8-8.5c-.67-.03-.94.57-.7 1l-3.33 2.31c-.32-.38-.98-.33-1.19.3-.03.7.63.98 1.06.68.29-.2.37-.58.2-.88l3.33-2.31c.22.26.6.32.89.12.43-.3.4-1.02-.26-1.23m-18.62 3.34c-.66-.12-1.02.43-.84.9l-3.64 1.8c-.25-.42-.91-.47-1.21.12-.14.68.48 1.05.95.82a.66.66 0 0 0 .32-.83l3.63-1.8c.18.28.55.4.86.24.47-.23.55-.94-.07-1.25m10.43-9.22c.4.52 1.04.35 1.22-.1l3.9 1.07c-.08.49.38.96 1 .72.55-.42.35-1.1-.16-1.25a.66.66 0 0 0-.8.41l-3.9-1.08a.66.66 0 0 0-.48-.76c-.5-.14-1.04.34-.78.99m9.92.38c.23.62.9.65 1.2.27l3.4 2.21c-.23.44.06 1.03.72.99.66-.23.67-.95.23-1.24a.66.66 0 0 0-.89.14l-3.4-2.21a.66.66 0 0 0-.22-.87c-.44-.28-1.09.02-1.04.7M44.05 29.54c-.13-.65-.77-.78-1.14-.45l-3.02-2.7c.3-.4.1-1.03-.57-1.09-.68.13-.8.84-.4 1.19.25.23.64.22.89-.01l3.02 2.7c-.2.28-.17.66.09.9.39.35 1.08.15 1.13-.54m3.76-3.45c-.1-.66-.74-.82-1.12-.5l-2.88-2.85c.3-.38.14-1.02-.52-1.11-.69.1-.84.8-.47 1.16.25.24.64.25.9.04l2.88 2.85c-.21.26-.2.65.05.9.37.36 1.07.2 1.16-.49M17.3 14.44c-.66.02-.9.64-.63 1.05L13.49 18c-.34-.36-1-.27-1.17.38.01.69.7.93 1.1.6.28-.21.33-.6.15-.88l3.18-2.52c.23.24.62.28.89.06.41-.32.33-1.04-.34-1.2"/><path d="M44.47 17.5c-.54.37-.4 1.02.04 1.22l-1.29 3.84c-.48-.11-.98.32-.77.95.39.58 1.08.4 1.25-.09a.66.66 0 0 0-.36-.82l1.3-3.84c.32.07.67-.1.78-.44.16-.5-.3-1.05-.95-.83m-13.03-.11c-.5-.46-1.1-.18-1.19.3l-4.03-.43c0-.49-.53-.88-1.1-.54-.48.5-.16 1.15.36 1.2.35.04.66-.2.72-.53l4.04.43c0 .34.25.63.6.67.51.05.96-.51.6-1.1m30.54 2.27c.6.3 1.1-.14 1.06-.62l3.99-.72c.13.47.75.7 1.2.22.32-.62-.16-1.15-.68-1.06a.66.66 0 0 0-.54.71l-4 .72a.66.66 0 0 0-.75-.48c-.52.1-.8.76-.28 1.23m.1-4.07c.53.4 1.1.06 1.14-.43h4.06c.05.5.61.83 1.15.43.42-.55.03-1.16-.5-1.16a.66.66 0 0 0-.65.6h-4.06a.66.66 0 0 0-.66-.6c-.52 0-.9.61-.48 1.16m-47.69 1.15c-.24.62.24 1.08.72 1l1.08 3.9c-.46.18-.63.82-.1 1.22.63.26 1.12-.27.98-.77a.66.66 0 0 0-.76-.48l-1.08-3.91c.32-.12.5-.46.4-.8-.13-.5-.82-.71-1.24-.16m34.63-2.18c-.54-.38-1.1-.03-1.13.46l-4.06.12c-.06-.5-.63-.81-1.15-.4-.41.56-.01 1.16.52 1.15a.66.66 0 0 0 .64-.63l4.05-.11c.04.33.33.6.68.58.52-.01.89-.63.45-1.17m-6.8-1.5c-.24-.61-.9-.63-1.2-.24l-3.44-2.15c.22-.44-.08-1.02-.74-.97-.65.24-.65.96-.2 1.24.29.18.67.1.87-.16l3.44 2.15c-.15.3-.05.68.24.86.45.28 1.1-.03 1.03-.72m12.95.1c-.16-.65-.81-.74-1.16-.4l-3.15-2.55c.27-.4.04-1.02-.62-1.05-.68.16-.76.88-.35 1.2.27.22.65.2.9-.05l3.14 2.56a.66.66 0 0 0 .14.88c.4.33 1.08.1 1.1-.6m-9.85-6.12c-.6-.3-1.1.13-1.06.62l-4 .7c-.12-.47-.74-.7-1.2-.21-.32.61.17 1.14.68 1.05a.66.66 0 0 0 .55-.7l4-.71c.08.32.4.54.75.48.51-.1.79-.76.28-1.23"/><path d="M49.02 7.05c-.42-.52-1.05-.33-1.22.13l-3.92-1.02c.07-.49-.39-.95-1-.7-.55.42-.33 1.1.17 1.24.34.09.68-.1.8-.42l3.92 1.02c-.05.34.15.66.49.75.5.13 1.03-.36.76-1M13.17 22.73c-.53-.4-1.1-.06-1.14.43H7.97c-.05-.49-.61-.83-1.14-.43-.43.55-.04 1.16.48 1.16.35 0 .63-.26.66-.6h4.06c.03.34.31.6.66.6.52 0 .9-.6.48-1.16m13.84-1.88c.18.64.83.72 1.17.36l3.21 2.47c-.26.42-.01 1.03.65 1.04.67-.18.74-.9.32-1.22a.66.66 0 0 0-.89.08l-3.22-2.47a.66.66 0 0 0-.15-.88c-.42-.32-1.1-.07-1.1.62m22.17 6.74c.55-.37.42-1.02-.02-1.23l1.34-3.82c.48.11.99-.3.79-.94-.38-.58-1.08-.42-1.26.07-.11.33.05.68.35.82l-1.34 3.83a.66.66 0 0 0-.8.42c-.17.5.28 1.06.94.85M53.2 4.18c.24.62.9.64 1.2.25l3.44 2.15c-.22.44.08 1.03.74.97.65-.24.65-.96.2-1.24a.66.66 0 0 0-.88.16l-3.43-2.15a.66.66 0 0 0-.24-.86c-.45-.28-1.1.03-1.03.72"/><path d="M55.38 6.48c.35-.56-.02-1.1-.51-1.11l-.3-4.05c.49-.08.78-.67.35-1.17-.58-.39-1.16.04-1.12.56.02.35.3.61.65.62l.3 4.05a.66.66 0 0 0-.56.7c.03.52.67.86 1.19.4M36.32 3.26c-.66.08-.84.72-.54 1.1l-2.94 2.8c-.37-.33-1.01-.18-1.12.47.07.7.77.87 1.15.51a.66.66 0 0 0 .06-.9l2.94-2.78c.26.22.64.22.9-.02.38-.36.24-1.07-.45-1.18"/><path d="M53.43 5.94c-.4.53-.06 1.1.43 1.15v4.05c-.49.05-.83.62-.43 1.15.55.42 1.16.04 1.16-.49a.66.66 0 0 0-.6-.66V7.1c.33-.04.6-.32.6-.66 0-.53-.6-.91-1.16-.49m-3.09-.27c-.4.54-.06 1.1.43 1.15v4.06c-.49.04-.83.61-.43 1.14.55.43 1.16.04 1.16-.48a.66.66 0 0 0-.6-.66V6.82c.33-.03.6-.31.6-.66 0-.52-.6-.9-1.16-.49m8.48 11.92c.48.46 1.08.2 1.19-.29l4.03.48c-.01.49.51.89 1.08.55.49-.5.18-1.14-.34-1.2a.66.66 0 0 0-.73.52l-4.03-.47a.66.66 0 0 0-.58-.68c-.52-.06-.98.5-.62 1.1M33.76 7.56c0 .66.62.9 1.04.64l2.49 3.2c-.36.34-.28 1 .36 1.17.7 0 .94-.68.62-1.1a.66.66 0 0 0-.88-.15l-2.5-3.2a.66.66 0 0 0 .08-.9c-.32-.4-1.04-.34-1.21.34M31 17.25c.65.13 1.02-.42.85-.88l3.67-1.73c.25.42.9.49 1.22-.1.15-.68-.46-1.07-.94-.84a.66.66 0 0 0-.34.83l-3.66 1.73a.66.66 0 0 0-.86-.27c-.47.23-.56.94.06 1.26"/><path d="M38.45 12.86c.59.32 1.1-.09 1.08-.58l4.02-.56c.11.47.72.73 1.2.26.33-.6-.13-1.15-.65-1.08a.66.66 0 0 0-.57.69l-4.02.56a.66.66 0 0 0-.74-.5c-.52.07-.81.73-.32 1.21M54.14.65c-.66.08-.84.71-.54 1.1l-2.95 2.78c-.37-.32-1.01-.18-1.13.48.07.69.77.86 1.15.5a.66.66 0 0 0 .07-.89l2.95-2.78c.25.22.64.22.89-.01.38-.36.24-1.07-.44-1.18M41.07 2.48c-.65.13-.78.78-.45 1.14L37.9 6.64c-.4-.3-1.03-.1-1.09.56.13.68.84.8 1.19.41a.66.66 0 0 0 0-.89l2.7-3.02c.28.2.66.17.9-.08.34-.4.15-1.09-.54-1.14m-8.54 18.83c-.2-.63-.85-.69-1.18-.32l-3.29-2.37c.25-.43-.01-1.03-.68-1.02-.66.2-.7.91-.28 1.22.28.2.66.15.89-.1l3.29 2.37c-.17.3-.1.68.18.88.43.3 1.1.04 1.07-.66m-4.4-.34c-.65.16-.76.81-.4 1.16l-2.59 3.13c-.4-.28-1.03-.05-1.06.61.16.68.87.77 1.2.36a.67.67 0 0 0-.04-.9l2.58-3.12c.28.2.66.14.88-.12.34-.41.11-1.1-.58-1.12m14.6-13.6c-.65-.05-.96.54-.74.98l-3.44 2.14c-.3-.4-.96-.38-1.2.24-.07.7.58 1 1.02.73.3-.18.4-.56.25-.86l3.44-2.15c.2.27.58.35.88.17.44-.28.45-1-.2-1.24"/><path d="M36.22 5.86c.08.66.72.84 1.1.53l2.8 2.94c-.32.37-.17 1.01.49 1.12.69-.08.86-.77.5-1.15a.66.66 0 0 0-.9-.06l-2.8-2.93a.66.66 0 0 0-.02-.9c-.36-.38-1.06-.23-1.17.45M4.66 23.17c-.4.53-.06 1.1.42 1.15v4.05c-.48.05-.82.62-.42 1.15.55.42 1.15.04 1.15-.49a.66.66 0 0 0-.6-.66v-4.05c.34-.03.6-.32.6-.66 0-.53-.6-.91-1.15-.49m25.46-8.52c-.23.62.26 1.07.74.97l1.16 3.89c-.46.18-.62.82-.08 1.22.64.25 1.12-.3.97-.8a.66.66 0 0 0-.77-.46l-1.16-3.88a.66.66 0 0 0 .39-.81c-.15-.5-.84-.7-1.25-.13m23.27-2.68c-.47-.47-1.08-.22-1.2.26l-4.01-.59c.02-.5-.49-.9-1.07-.59-.5.48-.21 1.14.3 1.22.35.05.67-.18.75-.5l4.01.58c-.01.34.23.65.57.7.52.07.99-.47.65-1.08m-10.58.9c-.5.44-.3 1.06.17 1.21l-.87 3.96c-.49-.06-.94.43-.66 1.03.44.53 1.12.29 1.23-.22a.66.66 0 0 0-.45-.78l.88-3.96c.34.04.66-.18.73-.51.11-.52-.4-1.02-1.03-.73m31.64 11.6c.18-.64-.34-1.05-.82-.92l-1.46-3.78c.44-.22.55-.87-.01-1.23-.67-.2-1.1.39-.9.88.12.32.47.49.8.4l1.46 3.78a.66.66 0 0 0-.33.83c.19.5.9.63 1.26.04M66.68 13.8c-.38-.54-1.03-.4-1.22.05l-3.86-1.26c.1-.47-.33-.97-.96-.76-.57.4-.4 1.1.1 1.25.33.11.68-.05.82-.36l3.86 1.25c-.08.33.1.67.44.78.5.16 1.05-.3.82-.95"/><path d="M73.3 24.47c-.61.22-.64.88-.26 1.19l-2.22 3.4c-.44-.24-1.03.06-.99.72.23.65.95.66 1.24.23a.66.66 0 0 0-.14-.89l2.22-3.4c.3.17.67.08.86-.21.29-.44 0-1.1-.7-1.04m-14.05-6.4c-.62.24-.64.9-.26 1.2l-2.19 3.42c-.43-.23-1.02.07-.98.73.24.65.96.66 1.24.22a.66.66 0 0 0-.15-.89l2.2-3.4c.3.15.67.05.86-.24.28-.44-.02-1.09-.72-1.03m19.77 5.5c.53.4 1.1.07 1.14-.42h4.06c.04.49.61.82 1.14.43.43-.55.04-1.16-.48-1.16a.66.66 0 0 0-.66.6h-4.06a.66.66 0 0 0-.66-.6c-.52 0-.9.6-.48 1.16M26.27 12.14c-.4.53-.06 1.1.43 1.14v4.06c-.5.04-.83.61-.43 1.14.55.43 1.16.04 1.16-.48a.66.66 0 0 0-.6-.66v-4.06c.33-.03.6-.31.6-.66 0-.52-.61-.9-1.16-.48m-22 11.91c.67-.05.87-.67.58-1.07l3.06-2.68c.35.34 1 .22 1.14-.43-.05-.7-.73-.9-1.13-.55a.67.67 0 0 0-.1.89l-3.05 2.67a.66.66 0 0 0-.9-.02c-.39.35-.28 1.06.4 1.2m64.8 4.5c.4-.53.06-1.1-.42-1.14v-4.06c.48-.04.82-.61.42-1.14-.55-.43-1.15-.04-1.15.48 0 .35.26.63.6.66v4.06a.66.66 0 0 0-.6.66c0 .52.6.9 1.15.49M42.42.68c-.08.66.5 1 .94.8l2 3.52c-.4.28-.41.94.2 1.2.68.1 1.02-.53.76-.99a.66.66 0 0 0-.85-.27l-2-3.53c.28-.2.37-.57.2-.87-.26-.46-.98-.5-1.25.14m-.99 9.53c.27.61.93.6 1.2.2l3.53 2c-.2.45.13 1.03.79.95.64-.27.6-1 .15-1.25a.66.66 0 0 0-.87.2L42.7 10.3a.66.66 0 0 0-.27-.85c-.46-.26-1.1.08-1 .76m-8.6-.85c-.4.53-.06 1.1.43 1.15v4.05c-.49.05-.82.62-.43 1.15.55.42 1.16.04 1.16-.49a.66.66 0 0 0-.6-.66v-4.05c.34-.04.6-.32.6-.66 0-.53-.6-.91-1.16-.5m4.49 10.25c-.67-.04-.96.55-.73.98l-3.39 2.23c-.3-.38-.96-.35-1.19.27-.05.7.6 1 1.04.7a.66.66 0 0 0 .22-.86l3.4-2.23c.2.27.59.33.88.14.44-.29.42-1-.23-1.23"/><path d="M33.72 21.73c-.09.66.49.99.93.79l2 3.52c-.4.28-.4.94.2 1.2.7.1 1.03-.53.77-.99a.66.66 0 0 0-.85-.27l-2-3.53c.27-.2.36-.57.2-.87-.27-.46-.98-.49-1.25.15m.27-9.6c.4-.53.06-1.1-.43-1.15V6.93c.49-.05.82-.62.43-1.15-.55-.42-1.16-.04-1.16.49 0 .34.26.62.6.66v4.05a.66.66 0 0 0-.6.66c0 .53.6.91 1.16.49"/><path d="M35.5 24.19c-.53-.4-1.1-.06-1.14.43H30.3c-.05-.5-.61-.83-1.15-.43-.42.55-.04 1.16.49 1.16.35 0 .63-.27.66-.6h4.06c.03.33.3.6.66.6.52 0 .9-.61.48-1.16m5.64-5.63c-.62-.22-1.07.27-.97.75l-3.87 1.2c-.19-.45-.83-.6-1.22-.06-.24.65.3 1.11.8.96.34-.1.53-.44.46-.78l3.87-1.2c.13.31.48.48.81.38.5-.16.69-.85.12-1.25m15.8-6.92c-.4.53-.06 1.1.43 1.15v4.05c-.5.05-.83.62-.43 1.15.55.42 1.16.04 1.16-.48a.66.66 0 0 0-.6-.67V12.8c.33-.03.6-.31.6-.66 0-.53-.61-.91-1.16-.49m-3.12-4.08c.3.58.96.53 1.22.1l3.65 1.76c-.17.46.2 1 .85.88.62-.31.54-1.03.06-1.25a.66.66 0 0 0-.85.25l-3.66-1.75a.66.66 0 0 0-.33-.83c-.48-.23-1.09.16-.94.84m-3.48-1.5c-.66.08-.85.71-.55 1.1l-2.96 2.77c-.37-.32-1.02-.18-1.13.47.06.7.76.87 1.14.51a.66.66 0 0 0 .07-.89l2.97-2.77c.25.23.64.23.9 0 .37-.37.24-1.07-.44-1.18"/><path d="M58.84 17.12c-.65-.17-1.05.35-.91.82l-3.77 1.5c-.22-.44-.88-.54-1.22.02-.2.67.39 1.1.87.9a.66.66 0 0 0 .4-.8l3.77-1.5c.15.3.51.44.83.32.49-.2.62-.9.03-1.26m-10.7 3.4c-.12-.66-.77-.8-1.13-.47l-2.97-2.77c.3-.39.11-1.02-.55-1.1-.68.12-.82.83-.43 1.19.25.23.64.23.9 0l2.96 2.77c-.2.27-.18.65.07.9.39.35 1.08.17 1.15-.53m16.28 7.54c.57-.33.48-.98.05-1.22l1.58-3.73c.47.14 1-.25.84-.9-.34-.6-1.05-.48-1.25 0-.14.32 0 .69.3.85l-1.59 3.73a.66.66 0 0 0-.8.37c-.21.49.2 1.08.87.9m18.75-4.33c-.66-.08-.99.5-.79.94l-3.52 2.01c-.28-.4-.94-.4-1.2.2-.1.69.53 1.03.99.77.3-.18.41-.55.27-.86l3.53-2c.2.27.57.36.87.19.45-.26.49-.98-.15-1.25M57.47 9c-.32.6.1 1.1.6 1.07l.62 4c-.48.13-.72.74-.24 1.2.6.34 1.15-.13 1.06-.65a.66.66 0 0 0-.7-.56l-.62-4a.7.7 0 0 0 .5-.76c-.09-.51-.75-.8-1.23-.3m3.42 8.6c-.45.49-.17 1.09.3 1.19l-.42 4.03c-.49 0-.88.53-.54 1.1.5.47 1.15.16 1.2-.37a.66.66 0 0 0-.53-.72l.42-4.03c.34 0 .64-.25.67-.6.06-.52-.5-.96-1.1-.6M48.04 7.65c-.62-.24-1.08.23-1 .72l-3.91 1.06c-.18-.46-.81-.64-1.22-.11-.26.64.26 1.12.77.99.34-.1.54-.42.48-.76l3.92-1.06c.11.32.46.5.79.4.5-.13.72-.82.17-1.24M68.56 19c.4-.53.06-1.1-.43-1.15V13.8c.49-.05.82-.62.43-1.15-.55-.42-1.16-.04-1.16.49 0 .34.26.63.6.66v4.05a.66.66 0 0 0-.6.66c0 .53.6.91 1.16.49m-25.74.05c-.18-.64-.83-.72-1.17-.36l-3.2-2.48c.26-.42.01-1.03-.65-1.04-.67.17-.74.89-.32 1.21.27.21.65.17.89-.07l3.2 2.48a.66.66 0 0 0 .16.88c.41.32 1.09.08 1.09-.62m3.93-11.84c.66.09.98-.49.79-.93l3.53-2c.28.4.94.42 1.2-.2.1-.68-.53-1.02-.99-.76a.66.66 0 0 0-.28.85l-3.53 2a.66.66 0 0 0-.87-.2c-.46.25-.5.97.15 1.24m3.4 16.83c-.61.26-.6.92-.2 1.2l-2 3.53c-.45-.2-1.03.12-.95.78.27.64.99.6 1.25.15a.67.67 0 0 0-.2-.87l2.01-3.52c.31.14.68.02.85-.28.26-.45-.07-1.09-.76-1M40.7 27.7c.26-.61-.2-1.09-.69-1.02l-.95-3.94c.47-.16.66-.79.15-1.21-.64-.28-1.14.23-1.01.74.08.34.4.55.74.5l.95 3.94a.66.66 0 0 0-.43.79c.12.5.8.74 1.24.2m-18.47-9.33c-.38.55-.02 1.1.47 1.13l.17 4.05c-.48.07-.8.65-.38 1.16.57.4 1.16 0 1.14-.53a.66.66 0 0 0-.63-.64l-.17-4.05a.66.66 0 0 0 .58-.68c-.03-.53-.65-.89-1.18-.44"/><path d="M57.58 7.84c-.63.22-.66.88-.28 1.2l-2.25 3.37c-.43-.24-1.03.05-1 .71.23.66.95.68 1.24.24a.66.66 0 0 0-.14-.88L57.4 9.1c.3.16.68.08.87-.21.3-.44 0-1.1-.7-1.05m-32.53 9.55c-.53-.4-1.1-.06-1.14.43h-4.06c-.05-.5-.61-.83-1.15-.43-.42.55-.04 1.16.49 1.16.35 0 .63-.27.66-.6h4.06c.03.33.3.6.66.6.52 0 .9-.61.48-1.16M50.25 5c-.36-.55-1.01-.43-1.22.01l-3.81-1.4c.12-.47-.3-.98-.93-.8-.59.38-.44 1.08.06 1.26.32.12.68-.03.82-.34l3.81 1.4c-.08.33.09.67.41.8.5.17 1.07-.26.86-.93m35.54 17.8c-.38.54-.03 1.1.46 1.13l.12 4.05c-.48.07-.8.64-.39 1.16.56.4 1.16 0 1.14-.52a.66.66 0 0 0-.62-.64l-.12-4.05a.68.68 0 0 0 .58-.68c-.02-.53-.63-.9-1.17-.45m-22.63.7c-.49-.46-1.1-.19-1.19.3l-4.03-.44c0-.49-.52-.88-1.1-.55-.47.5-.16 1.15.36 1.2.35.05.66-.19.72-.52l4.04.43c0 .34.24.64.59.67.52.06.97-.5.6-1.1M.19 27.62c.53.4 1.1.06 1.15-.43h4.05c.05.49.62.83 1.15.43.42-.55.04-1.16-.49-1.16a.66.66 0 0 0-.66.6H1.33a.66.66 0 0 0-.66-.6c-.53 0-.91.6-.49 1.16M56.17 5.49c-.63-.22-1.07.27-.97.75l-3.87 1.2c-.2-.45-.84-.6-1.23-.07-.24.65.31 1.12.81.96.33-.1.52-.44.45-.77l3.88-1.2c.13.31.47.48.8.38.5-.16.7-.85.13-1.25m-9.75 20.25c-.64-.15-1.03.38-.87.85l-3.72 1.63c-.24-.43-.9-.5-1.22.07-.16.68.43 1.08.91.87.32-.14.47-.5.36-.82l3.72-1.63c.16.3.53.42.84.28.48-.2.6-.92-.02-1.25m-9.98-8.84c.65.1 1-.47.8-.92l3.58-1.92c.27.41.93.44 1.21-.16.12-.69-.5-1.04-.97-.8a.66.66 0 0 0-.3.85l-3.57 1.92a.66.66 0 0 0-.87-.22c-.46.24-.52.96.12 1.25m7.1 7.77c.09-.66-.48-1-.93-.8l-1.94-3.57c.41-.27.44-.93-.17-1.2-.68-.12-1.03.51-.78.97.16.3.53.43.84.3l1.94 3.56a.66.66 0 0 0-.21.87c.25.46.96.5 1.25-.13M39.3 6.5c-.07-.66-.7-.85-1.1-.55l-2.74-2.98c.33-.37.19-1.02-.46-1.14-.7.06-.88.76-.53 1.14.24.26.62.29.9.08l2.74 2.99a.66.66 0 0 0 0 .89c.36.39 1.07.26 1.19-.43"/><path d="M20.3 13.67c.19.64.84.7 1.17.33l3.28 2.4c-.25.42 0 1.02.67 1.02.67-.2.71-.91.29-1.22a.66.66 0 0 0-.89.1l-3.27-2.4a.67.67 0 0 0-.18-.88c-.43-.3-1.1-.04-1.08.65m39.46 9.9c-.47-.47-1.08-.23-1.2.25l-4.01-.62c.03-.49-.48-.9-1.07-.6-.5.48-.21 1.14.3 1.22.35.05.67-.17.75-.5l4 .63a.7.7 0 0 0 .57.7c.52.07.99-.47.66-1.08m-32.26-.4c-.17.64.36 1.03.83.9l1.55 3.74c-.43.23-.52.88.05 1.22.67.18 1.08-.4.88-.9a.66.66 0 0 0-.8-.37L28.43 24c.3-.16.43-.52.3-.84-.2-.48-.9-.6-1.25 0m12.22-1.78c.66-.05.86-.68.58-1.08l3.06-2.66c.35.33 1 .21 1.14-.44-.04-.69-.73-.9-1.13-.55a.66.66 0 0 0-.1.89l-3.05 2.67a.66.66 0 0 0-.9-.02c-.4.34-.28 1.05.4 1.19m.14-14.17c.62.24 1.07-.24.98-.73l3.9-1.1c.18.46.82.62 1.22.1.26-.65-.27-1.13-.78-.98a.66.66 0 0 0-.47.76l-3.9 1.1a.66.66 0 0 0-.8-.4c-.5.14-.71.83-.15 1.25"/><path d="M24.52 18.43c-.14.65.4 1.02.87.86l1.7 3.68c-.42.25-.48.9.1 1.22.68.15 1.07-.45.85-.93a.66.66 0 0 0-.83-.34l-1.7-3.68a.68.68 0 0 0 .27-.86c-.23-.47-.94-.57-1.26.05m52.57.24c-.1-.66-.75-.82-1.12-.5l-2.9-2.85c.32-.38.15-1.02-.5-1.1-.7.09-.85.79-.47 1.16.24.24.63.25.89.03l2.89 2.85c-.21.26-.2.65.05.9.37.36 1.07.2 1.16-.5m-57.2 10.15c-.45-.5-1.07-.27-1.2.2l-3.99-.78c.05-.49-.44-.93-1.04-.64-.52.46-.26 1.13.25 1.23.34.07.67-.14.77-.47l3.98.78c-.04.34.19.66.53.72.51.1 1-.42.7-1.04M49.15 9.08c-.65.16-.75.8-.4 1.16l-2.6 3.11c-.4-.28-1.03-.05-1.06.6.15.69.86.78 1.2.38a.66.66 0 0 0-.05-.9l2.6-3.11c.28.19.67.14.89-.12.33-.4.11-1.1-.58-1.12m-4.98 36c.62.23 1.07-.26.97-.74l3.88-1.18c.19.46.83.61 1.22.08.25-.65-.3-1.12-.8-.97a.66.66 0 0 0-.46.77l-3.88 1.18a.66.66 0 0 0-.8-.39c-.5.15-.7.85-.13 1.25M24.1 63.68c-.3-.6-.95-.57-1.22-.15l-3.6-1.87c.19-.46-.16-1.02-.82-.91-.63.3-.57 1-.1 1.25.3.16.68.05.86-.23l3.6 1.87c-.12.31 0 .68.31.84.47.24 1.09-.12.97-.8"/></g></svg>