<svg xmlns="http://www.w3.org/2000/svg" xml:space="preserve" viewBox="0 0 87.123047 67.317306"><g fill="#231f20"><path d="M16.82397643 62.92928608c-.66075451-.06737879-.97437306.51329166-.7630583.95673332l-3.47768316 2.08632952c-.29174809-.39511287-.95179616-.39158333-1.20332494.22295379-.0790231.68968143.56232687 1.01317953 1.01247041.74294999.29739165-.1781519.40216665-.55033333.25611665-.85689545l3.47768316-2.08668141c.20178976.2734019.57961474.3559519.8766545.1778.45049544-.2702269.46672498-.98848332-.17885832-1.24318976m-5.31212928-24.57132204c.34431286.56797045.99659806.46813522 1.22308138.03245379l3.76061004 1.51835642c-.13934545.47060643.26105642.99553976.90311283.82585188.5979583-.352425.46989997-1.0590371-.0172773-1.2558871-.32137877-.12947121-.68156663.01092728-.83819995.31220832l-3.76061004-1.51835642c.09630833-.32561476-.06526477-.67698142-.38664354-.80644999-.48683331-.19685-1.06997495.22295644-.88406283.8918231m-.48790223 4.17089161c.20214166.63252879.85972116.68826856 1.18180638.3178519l3.3012934 2.35584996c-.24588522.4250981.02045228 1.0287.68474163 1.01423522.66357496-.20284546.70449806-.92004355.27693142-1.22519544-.28222309-.20108333-.66533974-.1488731-.88794162.10759545l-3.3012934-2.35584997c.17003712-.29421666.09489546-.67345188-.1869731-.87488711-.42756664-.3048-1.09255183-.03316287-1.06856471.6604m7.04426631 13.28807862c-.11641666-.65405-.76094163-.7965731-1.1292416-.47166477l-2.95980365-2.7731852c.3002121-.38840832.11606212-1.02234998-.5439833-1.09608142-.68474164.11324167-.8202083.8184462-.43709165 1.1775731.25294165.23706666.6395852.23600832.89429162.0112977l2.95980364 2.7728333c-.20743332.26881666-.18344355.65475378.0694981.89182045.38311665.35912953 1.07808972.17815454 1.14652684-.51258523m-.38241021 1.77975681c-.66357496-.0239977-.93874162.57573333-.6992064 1.00435832l-3.33480817 2.30822498c-.31644165-.37535644-.97472495-.32914167-1.18603706.30056666-.03386667.69320832.6268852.97437044 1.05868517.67556855.28504355-.1972019.36547688-.57538143.1996731-.87171476l3.33480816-2.30822497c.219075.25929167.6014852.3171481.88617686.1199462.43215187-.29880453.4014602-1.01635452-.25929166-1.22872498m.44449998-26.65906443c-.66216474.0508-.86783329.67768787-.5817314 1.07667953l-3.05364342 2.66911663c-.35665831-.33725643-1.0057685-.21731287-1.14476471.4321519.04445.69285642.73272117.89781854 1.12818328.55209809.26105642-.2278962.29844998-.612775.10018976-.8886481l3.05364341-2.66911663c.2469462.23318523.63323784.24765.89429162.01976438.39546475-.3457231.28433976-1.05551286-.39616854-1.19203786M12.100635 46.79781772c.05185833.66216477.67944996.866775 1.07773517.57961477l2.67511464 3.04835185c-.33654998.35771667-.2151962 1.0061231.43462043 1.14370643.69250451-.04550834.8964083-.73448333.54962952-1.12924166-.2282481-.26035-.6134814-.29703976-.88899996-.098425l-2.67511463-3.04799996c.23283332-.2472981.24659165-.63394165.01799166-.89429165-.34642688-.39475833-1.05586471-.282575-1.19097683.39828522"/><path d="M10.6253184 42.31365945c.5319871.39758143 1.09960828.06103143 1.14652684-.42791856h4.05553313c.04691856.48895.61453974.82549999 1.14652684.42791856.42262952-.55068523.03915833-1.15816855-.48612687-1.15816855-.34642688 0-.62794353.26528977-.66039997.60324999h-4.05553313c-.03245643-.33796022-.31397309-.60325-.66039996-.60325-.5252852 0-.90840185.60748333-.48612688 1.15816856m64.2669339-9.85555178c.0208227-.66392688-.57996665-.93591855-1.0075333-.69426665l-2.32409987-3.32387307c.37359164-.31855833.32420188-.9764871-.30656476-1.18462688-.6932083-.03069166-.97154995.6314731-.67027686 1.06221476.19861211.28363333.57714353.3623019.87277041.19543712l2.32409989 3.32352117c-.25858522.22013333-.31467688.60289545-.11606212.88688332.30091854.43038712 1.0184685.39652046 1.2276666-.26528977m2.21015179 3.89219806c-.55844808-.35948143-1.10137305.01621896-1.11371851.50694166l-4.04600813.28327879c-.08078787-.48436212-.6706314-.78069545-1.17333971-.34677879-.38311665.57855378.0416269 1.15781665.56550187 1.12112688.34572308-.0239977.60818974-.30832689.6166564-.64769999l4.04600813-.28328143c.05573977.33513976.35524809.57996666.70061663.55562499.52422687-.03668713.8643064-.66921855.40428332-1.18921211m-7.66515606 24.79498492c.49318331.44485189 1.08902495.161925 1.18074805-.3203231l4.0385998.37359166c.00185208.49106666.53586853.87841665 1.10207684.53163522.47166474-.50941022.1456981-1.14970188-.37747044-1.19803332-.34501665-.0321019-.64946474.206375-.71296474.53975l-4.0382479-.37359167c-.00132292-.33937045-.25717499-.62935378-.60219164-.66145832-.52281664-.0483288-.96061207.52140643-.59054997 1.10842953M75.60098105 41.485339c-.5319871-.39758143-1.09960828-.06103144-1.14652684.42791856h-4.05553313c-.04691856-.48895-.61453974-.8255-1.14652684-.42791856-.42262952.55068522-.03915833 1.15816855.48612687 1.15816855.34642688 0 .62794353-.26528977.66039997-.60325h4.05553313c.03245644.33796023.31397309.60325.66039997.60325.5252852 0 .90875639-.60748333.48612687-1.15816855m-6.6025868-8.98948322c.35701022.56021022 1.00717875.44591022 1.22378517.00563562l3.79341837 1.43439355c-.12911666.47378143.28292953.98954165.9211045.8057462.58984353-.36547954.4462621-1.0692712-.04515644-1.25518332-.32420188-.12241477-.68121473.02611437-.83114352.33055189l-3.79342101-1.43439354c.08925453-.32773144-.0800788-.67521666-.40428332-.79798333-.49106664-.18556287-1.06468328.24694356-.86430375.911225m-18.21179908.87454315c.3012731-.59196023-.12735189-1.09396476-.6166564-1.0569231l-.6903852-3.99626661c.47378142-.12946856.7090833-.746125.22648332-1.20261855-.61453974-.32279166-1.14758517.1583981-1.05833328.6759231.05891477.34148712.36829999.57361666.70696663.54821666l.6900333 3.99626661c-.32773142.0896038-.5411602.41204356-.48224808.75353333.08960644.517525.7531814.79198522 1.22413971.28186856M36.2009978 26.71418085c-.36230187.55668333.01058334 1.10137045.50129808 1.11654165l.2631731 4.04706662c-.48471665.07831666-.78387307.66675-.35242499 1.17192688.57679164.38558522 1.1581685-.03633523 1.12394994-.56056476-.02256895-.34572046-.30550642-.60924545-.6448795-.61982879l-.26317045-4.04706661c.3351371-.05432954.58172876-.3520731.55915187-.6981481-.03386667-.523875-.6649852-.86712688-1.18709805-.40992689M20.80648456 45.86189917c.6424083-.16898143.73236663-.82267688.37888331-1.16381475l2.5255351-3.1732352c.41169165.26775834 1.02869995.03316024 1.04880829-.63076665-.1679231-.67345189-.88194352-.75176855-1.2089685-.34078333-.2159.27128522-.1834462.65651855.06102878.89252688l-2.5255351 3.17323784c-.28469165-.18485644-.6674564-.1298231-.8833564.14111023-.32702498.41098522-.09031022 1.08937688.60360452 1.10172498m.93874162-15.93991003c.01164166.66427879.62547497.90663712 1.04034161.64417045l2.4842601 3.20604617c-.35771664.33655-.27622498.99130378.36371476 1.16839999.69426663-.003175.93944541-.67839166.6177121-1.09361286-.21201856-.2737538-.59407687-.3340788-.88123709-.1524l-2.4839082-3.20604352c.24729544-.23283333.28469165-.61771477.07231855-.89146856-.32173331-.4152212-1.03646017-.34642953-1.21320183.32490833m-1.10031472 16.49518313c-.34466475-.5676212-.99694995-.46813787-1.22343327-.03245644l-3.76096458-1.51800187c.1397-.47095833-.26070188-.99553976-.90275829-.82585454-.5979583.352425-.46989997 1.05903976.0172773 1.25588976.32137877.12946856.68156662-.0109273.83819995-.31220833l3.76061004 1.51800188c-.09630833.32561476.06526477.67698143.38664354.80644999.48718785.19685 1.06997495-.2229538.88441473-.89182045m10.65425172 6.68407871c-.15698787-.64523143-.80892118-.74718333-1.15640639-.4004019l-3.1266684-2.58303973c.27516665-.4064.05185833-1.02764166-.61136474-1.06009545-.67662686.155575-.76799542.86818522-.36300832 1.20261855.26705453.22083977.65299164.19543977.8932333-.04445l3.1266684 2.5830371c-.19014545.28116476-.14216856.66498786.12488332.88547309.40498975.33478522 1.08761472.11041856 1.11266282-.58314166"/><path d="M73.83815234 63.43587585c-.23883142-.61983143-.89852495-.63711666-1.19838781-.24835644l-3.43287862-2.15899997c.22048522-.43885379-.08078787-1.02587688-.74294996-.97260832-.65087497.2413-.64946474.95955642-.20496476 1.23930832.29315832.18415.67274807.10971477.8801814-.1591019l3.43323315 2.15899998c-.15275453.30338976-.05573977.67768522.23777045.86218975.44449998.2797519 1.09255448-.03033977 1.02799615-.72143142"/><path d="M70.7933275 62.78676563c-.3453712-.5676212-.9973045-.46707954-1.22343327-.03104621l-3.76237481-1.51376855c.13899355-.47095832-.26211476-.99518521-.90417117-.82514809-.59725186.35348333-.4684871 1.0600981.01870604 1.25588976.32173332.12946856.68156664-.01164167.83784807-.31291477l3.7627267 1.51377119c-.09630833.32561212.06596856.67662689.38734998.80609545.4871852.1961462 1.06962305-.22436667.8833564-.89287878m-28.6667296-31.01093105c-.6589871-.08184356-.98530829.4917731-.78422496.9394481l-3.5231915 2.00836474c-.28292687-.40146287-.9426204-.41275-1.20826206.19614356-.09419166.68756476.53974998 1.02552498.99589162.76517499.30127044-.17145.4141602-.54116023.27516665-.8509l3.52354339-2.00836474c.19543976.27763787.57114807.36865454.87241852.19720454.45614164-.2599981.48859808-.97789999-.15134166-1.2470712m7.8708246 7.62317491c-.4748371-.46425378-1.0819685-.20566856-1.1930935.2726981l-4.02025624-.5362231c.01833563-.49071211-.4998852-.89922877-1.07985184-.57573332-.49141853.49000833-.19155832 1.14299999.32878976 1.2121462.34360377.04586022.65757686-.17991667.7344833-.5104712l4.01990169.5358712c-.01235604.33937045.23142309.63958521.57502686.68544544.52034808.0694981.98072306-.48189355.63499997-1.08373332m-13.80454476-.42968333c.39757877-.53198711.06102879-1.09960831-.42792119-1.14652688V33.767266c.48894998-.04691856.82549996-.61453976.42792119-1.14652688-.55068785-.42262954-1.15817115-.03915833-1.15817115.48612689 0 .3464269.26528976.62794355.60324997.6604v4.05553327c-.33796021.03245644-.60324997.3139731-.60324997.6604 0 .52528522.6074833.90840188 1.15817115.48612688"/><path d="M48.22190174 39.10126592c.39757877-.53234166.0606769-1.09960832-.42792119-1.14652688v-4.05588782c.48859808-.04656667.82549996-.61418522.42792119-1.14617499-.55068785-.42262689-1.15817115-.03915833-1.15817115.48612954 0 .34642689.26528976.62794355.60324997.66004545v4.05588782c-.33796021.0324538-.60324997.31361856-.60324997.6604 0 .52528522.6074833.90840188 1.15817115.48612688m4.16595169 22.22252852c.53198974.39758143 1.09960827.06103143 1.14652683-.42756667h4.05553313c.0469212.4885981.61453974.8251481 1.14652949.42756667.42262687-.55068523.03915833-1.15781666-.48612952-1.15781666-.34642688 0-.62794353.26493788-.66039997.60325h-4.05553313c-.03245379-.33831212-.31397044-.60325-.66039996-.60325-.5252852 0-.90875375.60713143-.48612687 1.15781666M44.75656404 51.2664529c.66216474-.05538523.86324806-.68403522.57397118-1.08055568l3.0345934-2.69098974c.35912689.33443333 1.0071814.2099019 1.14158972-.44061855-.04938977-.69250453-.73907117-.89252953-1.13206471-.54398333-.25929166.23001023-.29386476.61524356-.09383977.88935189l-3.0345934 2.69098973c-.24835643-.2314231-.63499998-.24306476-.89429163-.01304396-.39299354.3485462-.27657688 1.057275.4046352 1.18886022m5.93936637 12.2050438c-.5439833-.3806481-1.1010185-.02645833-1.1324166.46355l-4.05376836.12558712c-.06208977-.48683333-.63993974-.80574355-1.15922684-.39193522-.40534165.56373976-.003175 1.15887498.5217583 1.14264809.34642689-.0109273.61947687-.28469167.64134998-.62371287l4.05376835-.12594167c.04268523.33690454.33231665.5933731.67874353.58243787.5249333-.01621896.8893545-.63499999.44979165-1.17263332m22.61481742 1.38782688c-.36724165-.55315643-1.01494162-.42686022-1.22343327.01764771l-3.8198767-1.36278142c.1202981-.47625-.3012731-.9838981-.93591852-.78845832-.58314164.37676666-.42615642 1.07773521.06879166 1.25412498.32631855.11641667.6805083-.03880644.82444163-.346075l3.8198767 1.36278143c-.08325643.32914166.09278143.67380378.41909998.79022044.49494808.17638977 1.06009805-.2667.84701852-.92745188M54.53309498 30.68822247c-.58702307.31115-.52563974.96802044-.10371666 1.21955188l-1.73496014 3.66571472c-.46178785-.16651287-1.00894616.20249356-.8770064.85336855.31679355.61736023 1.03011018.5305769 1.25447684.05609167.1485212-.31326666.02892954-.68121476-.26246665-.85513332l1.73460824-3.66571473c.31961665.11500644.67944997-.02574395.82797117-.33901856.22436665-.47483976-.16051476-1.08091021-.8389064-.93486021"/><path d="M50.85044707 32.22209934c-.58490377.3146769-.5189352.9711981-.0956019 1.21990643L49.0445786 37.1193595c-.46319808-.16368712-1.00753328.2088462-.87171472.85901476.32138142.61524356 1.03363972.523875 1.25518327.047625.14604999-.3139731.02434166-.68121476-.26846211-.85301666l1.71061847-3.67735639c.31996855.11324167.67909807-.03033712.82549996-.34431022.22154355-.47625-.16756855-1.08020642-.8452564-.92921666"/><path d="M52.55542198 37.13664739c-.60077876-.28292954-1.08972874.16051212-1.03751851.64875832l-3.97368957.81174166c-.14393333-.4695481-.76729163-.6858-1.2089685-.1897962-.30374165.62406475.1933231 1.14264808.70802496 1.03716665.33937309-.06914357.56232687-.38523333.52634354-.72319356l3.97368957-.81174165c.09913143.32490832.42791854.52846022.76764352.45896476.51470452-.10512954.7687045-.77681666.24447499-1.23189998m-32.47389572.37676666c-.1739212-.6409981-.82832306-.72566476-1.16663781-.36971287l-3.1936953-2.4997833c.26458332-.41380833.02505604-1.0287-.6388814-1.04351666-.67239354.17321477-.74471474.88758976-.33090643 1.21143976.2726981.21378333.6579314.1781519.89147117-.06808523l3.1936953 2.4997833c-.18273712.28645379-.1245288.66851212.14816665.88229545.41380831.32385 1.09008328.0818462 1.09678782-.61242045m27.86591262-2.05775452c-.04586023-.66251666-.6713352-.87312499-1.07244351-.58949166l-2.64653964-3.07304542c.33972499-.35454166.22436666-1.00435832-.4240371-1.14793975-.6928564.03915833-.90311283.72601665-.56021285 1.12430188.22613143.26246666.6106583.30268333.88794162.10653977l2.64689154 3.07304806c-.23495.2451788-.25258712.63147045-.02645833.89393712.34289998.39793333 1.05339615.2921 1.19485827-.38735"/><path d="M55.25523018 37.17968451c-.6491102-.14040379-1.02552495.40146287-.86501019.86536476l-3.68934981 1.68451475c-.24588522-.4250981-.90205185-.49565454-1.22096471.08678333-.155575.67662689.4455583 1.06997499.92322116.85160378.31538332-.14393333.46107877-.50200189.35030832-.82302878l3.6893498-1.68416285c.17003713.29386477.53622044.4183962.85125186.27446287.4776602-.21801666.57432308-.9299231-.03880643-1.25553786m-1.73107871 28.39437654c-.38417498-.54186666-1.02799615-.39581666-1.22272948.05468144l-3.85938693-1.24601022c.10547879-.479425-.33125831-.97437309-.95955639-.75953143-.57114807.39440644-.39299354 1.09008332.10689166 1.25165643.32949355.10653712.67874353-.05962121.8135064-.3711231l3.85974147 1.24601021c-.073025.33161287.11324166.67063143.4427352.77681666.49988521.1615731 1.0516314-.2988019.81879807-.9525m-36.3802065-12.44106006c.39758142-.53198977.06103144-1.09960832-.42791854-1.14617499v-4.05588518c.48894998-.04691856.82549996-.61453976.42791854-1.14652688-.5506852-.422275-1.1581685-.03915833-1.1581685.4861269 0 .34678142.26528711.62794355.60324997.66039998V51.986826c-.33796286.0321019-.60324997.31361856-.60324997.6600481 0 .52528522.6074833.90875378 1.1581685.48612689m44.15472278 4.34798516c.13652499-.65016855-.40745832-1.02305378-.8706564-.86007045l-1.70673968-3.67912116c.42368785-.2480019.4900083-.90452045-.09454356-1.21990378-.6773333-.1516962-1.06679995.45190833-.84596019.92815833.14605.314325.50482498.45825832.82514542.34536855l1.70673969 3.67876663c-.29280643.17180189-.41521855.53869165-.26916855.85301665.22083711.4766019.93344995.56867689 1.25518327-.04621477m1.08373328 2.31069618c-.0109273.66392689.59407686.92709999 1.01776207.67909545l2.3731351 3.28894806c-.36900376.3242019-.3097371.98142689.32385 1.18039355.69391473.0204523.96202494-.64593522.6547564-1.07209165-.2028481-.28081023-.5824352-.35383523-.87559352-.18238523l-2.37313776-3.28894806c.25541287-.22401212.30585832-.60748333.10301287-.88864545-.30727119-.42580454-1.02411472-.38135454-1.22378516.28363333"/><path d="M61.26691775 60.77910732c.6332352.200025 1.05797874-.3048.94121018-.78175643l3.8290498-1.33667498c.20531666.44591022.8523102.57679166 1.22343328.02611437.21766211-.65898976-.34466475-1.10631286-.84067117-.9330981-.32702498.1143-.50517687.4572-.42439164.7870481l-3.82904716 1.33667499c-.1421712-.30832954-.49529998-.4660212-.82232496-.3520731-.49600641.17321477-.6579314.87312499-.07725833 1.25377309M38.4167958 35.6990762c.07196666.66039999.70520186.84596286 1.0946685.54715832l2.76542486 2.9665083c-.3256121.3675962-.18485378 1.01247309.46884165 1.13065453.69073973-.066675.8734795-.7612962.5154083-1.1454712-.23600832-.25329356-.62194542-.27834166-.89146851-.07161212l-2.76542486-2.96686284c.22542498-.254.22754165-.64064355-.00881063-.89429166-.35807119-.38417499-1.06397949-.25047045-1.17863138.43391667m-1.21179954 18.77412666c.6261814-.22119167.6618102-.88017879.28151665-1.19097689l2.25354345-3.37184995c.43250642.23283333 1.02764162-.05221023.99271662-.71543333-.22295378-.65722499-.94085829-.67592045-1.23295827-.23918333-.19226212.28786667-.12841023.6692212.13476287.88406287l-2.2535461 3.3718473c-.29915378-.16086666-.67592042-.07408332-.86853708.21378334-.29174809.43673976 0 1.09325832.69250186 1.04774999M64.05632973 43.9060992c-.53198974-.39758144-1.09960827-.06103144-1.14617494.42791855h-4.05588502c-.04691856-.48894999-.61453974-.82549999-1.14652684-.42791855-.42227498.55068522-.03915833 1.15816854.48612687 1.15816854.34678142 0 .62794353-.26528712.66039997-.60324999h4.05588502c.0321019.33796287.31361855.60325.66004807.60325.5252852 0 .90875375-.60748333.48612687-1.15816855m-8.88117834 12.56417863c-.6607545.0663231-.8519583.6977962-.55633141 1.09008332l-2.99014341 2.73932117c-.36477309-.32843787-1.01070828-.1933231-1.13453328.45896212.060325.6917981.7535333.88053333 1.14088328.52563977.25541021-.23389167.28363332-.61983143.079375-.89076476l2.9904953-2.73967043c.25223786.22718713.6388814.23283333.89429162-.00132291.38734998-.35454167.2596462-1.06150832-.4240371-1.18215832m8.89952191-30.35097026c-.32702499.57820188.0786712 1.09854998.5693833 1.08337877l.51258785 4.0230795c-.47907308.10830189-.74118784.71366855-.27939999 1.19132877.59972043.34960454 1.15358328-.10759546 1.08726018-.62865-.04374356-.34360378-.34254809-.58949165-.68191853-.57890832l-.51258785-4.02307684c.33125832-.07478977.55879997-.38735.51470452-.73130833-.0663231-.52105189-.71719807-.82444165-1.21002949-.33584355M31.39687115 53.92851574c.60571853-.2726981.58666853-.93239166.18168143-1.21038143l1.96638323-3.54682685c.45049544.19579167 1.01987874-.13723143.93027496-.79551476-.27693143-.63641022-.9941295-.59548711-1.24848138-.13617045-.168275.30303522-.0726731.67768522.20743332.86994999l-1.96673513 3.54717874c-.31114998-.13546666-.67944996-.01799166-.84772495.28504356-.25470643.45931666.09066212 1.08902499.77716852.9867212m6.12069325-17.28928501c.43709165-.50023977.14463977-1.0918481-.33901854-1.17580832l.30938521-4.04389162c.49071475-.009525.86994996-.54962953.51399808-1.1105462-.51681854-.46319545-1.1518185-.12735189-1.19168327.3965231-.02645833.34536856.21660642.64628977.55103974.7044981l-.30938786 4.04353708c-.33972498.00669395-.62547497.26705453-.6519333.6124231-.04021666.52387499.53622308.95249998 1.11759994.57326476m-1.43968515-3.19863783c-.53198975-.3975788-1.09960828-.0606769-1.14652684.4279212h-4.05553313c-.0469212-.4885981-.61453974-.8255-1.14652948-.4279212-.42262688.55068786-.03915834 1.15817118.48612951 1.15817118.34642688 0 .62794353-.26528976.66039997-.60324999h4.05553313c.03245379.33796023.31397044.60325.66039997.60325.5252852 0 .90840185-.60748333.48612687-1.1581712m-8.56861813 29.67002273c-.25470643-.61348143-.91475185-.61312953-1.20438328-.21660643l-3.48861838-2.0683352c.20884355-.4441481-.1075981-1.02340833-.76799807-.9525-.64417307.25823334-.62441663.97613522-.17250832 1.24389355.29809809.17674167.67556853.092075.87559352-.18203333l3.48897292 2.0679833c-.14463976.30726857-.0377481.6790981.26035.85583977.4519083.26775833 1.0914935-.05926667 1.0085916-.74824166m16.09865942 1.55222044c-.16368976-.64381855-.8166814-.73906855-1.1606397-.38876022l-3.15277485-2.5509352c.27093332-.4092231.041275-1.0279962-.62229997-1.0537481-.67486209.16263144-.75882496.8759481-.35030831 1.2061481.2691712.21801666.6547564.18873522.8925295-.0536231l3.15312673 2.5509352c-.18732499.28328142-.13546666.66639809.13370189.88441475.40851665.3305519 1.08867305.09948333 1.10666471-.59443143m15.67814921-1.21531855c.38840832.53833977 1.03081662.3869981 1.22202305-.06526477l3.86961836 1.21390832c-.10159999.48048333.33901855.97154999.96590375.75141666.56797307-.39899166.38382308-1.09325832-.117475-1.25059544-.33055188-.10371667-.67839163.06526212-.81032875.37817689l-3.8699729-1.21390832c.07020453-.33231666-.11888523-.6695731-.4494371-.77328976-.50129809-.15733713-1.04880829.3076231-.8103314.95955642m-25.78664227-7.88811013c-.62864997.21448713-.67133784.873125-.29421665 1.18780188l-2.29058776 3.3471564c-.42968331-.2374212-1.02799351.04092046-1.00047685.70449545.2159.6596962.93380185.68615453 1.23048971.25258977.19543712-.28575.13546666-.66780833-.12523787-.8854731l2.29058776-3.34715375c.29703711.16439356.6748621.08184357.87065375-.20425833.29668786-.43321287.01198563-1.09290642-.68121209-1.05515832m10.91600135-21.75263116c.64805186-.14463712.7627064-.79445378.42262687-1.14864355l2.64371654-3.07551663c.40146285.28328144 1.02658328.07231857 1.0720916-.59054999-.14216855-.6790981-.85301662-.78457688-1.19521016-.38629166-.22577689.26281856-.20813976.64911022.02681023.89429165l-2.64371654 3.07551663c-.27728332-.19579166-.6618102-.1552231-.88758708.1075981-.34254808.39828523-.13193976 1.08479166.56126854 1.12359545m12.77231792 1.68663142c-.5983102-.2885731-1.09114162.15028333-1.04386851.63888143l-3.98074337.77505188c-.1393481-.47060643-.76094162-.69250189-1.20720637-.20073143-.30938522.62124166.18309165 1.14441286.69849996 1.0438712.34007688-.06632311.56585641-.38029621.53304808-.71825644l3.98074336-.77505188c.09630833.32561212.42333331.53198712.7634102.46566666.51576284-.10018977.77575829-.76976287.25611665-1.22943142m-32.65099192-8.59296012c.04480454.66286855.66992497.87418332 1.07138782.59160832l2.640187 3.07869163c-.34043143.35348333-.22648333 1.00365188.42192307 1.14864355.69285376-.0377481.90452042-.72425189.56232687-1.12289166-.22542499-.2631731-.60995186-.30409355-.88758972-.10865643l-2.6405389-3.07833709c.2353019-.24482954.25364545-.6311212.02786857-.89393976-.34184165-.39863976-1.05233518-.29421666-1.19556471.38488144m22.10611366 7.43726013c.65052042.1329981 1.02058517-.41345643.85477874-.87559355l3.66924149-1.72825831c.25047309.422275.90734616.48506855 1.21919993-.1012481.14781477-.67839166-.45790376-1.06433143-.9330954-.84066856-.3136212.14781213-.45508332.50764545-.34043143.82726212l-3.66888958 1.72790641c-.17356666-.2921-.5411602-.41204355-.85442686-.26423143-.47519164.22366287-.5633852.93662499.0536231 1.25483142m-15.02727424 2.21932497c.053975.66216477.68191853.86501022 1.0791454.57679166l2.6835813 3.04094353c-.33549164.3584231-.21237308 1.00682953.4377981 1.14264809.69250185-.047625.89429161-.73695189.54680376-1.13100643-.22930378-.25964356-.6145371-.295275-.88935186-.09595379l-2.6835813-3.04094617c.23212953-.24765.24482953-.63429355.01553104-.89429165-.3474852-.3937-1.0565685-.2794-1.1899185.40181476m.49352727 10.31345821c-.53234164-.39758144-1.09960828-.06103144-1.14652684.42756666h-4.05588503c-.0469212-.4885981-.61418784-.8251481-1.14617494-.42756666-.42262952.55068522-.03915833 1.15781665.48612687 1.15781665.34642688 0 .62759164-.26528977.66004807-.60325h4.05588503c.03245379.33796023.31361855.60325.66039997.60325.5249333 0 .90840185-.60713143.48612687-1.15781665"/><path d="M33.27258962 34.29466788c.63958784-.17921023.71896284-.83431855.36018785-1.16945832l2.47332488-3.2141583c.41592498.26070455 1.02869995.01621897 1.03822495-.64769998-.17885833-.67098333-.89393973-.73730379-1.21426282-.3210269-.21131211.27446023-.17286022.65934166.07514167.89111666l-2.47332488 3.2141583c-.2875121-.18026857-.66921853-.11923978-.88053329.155575-.32032044.41627688-.073025 1.0904352.62124164 1.09149354M53.5001617 52.51634455c-.58067307.32243976-.5058833.97825453-.079375 1.22096475l-1.66123135 3.69993329c-.4649602-.15733977-1.00471018.2226019-.85971852.87065643.32914165.61101022 1.04034162.51011666 1.25553517.03104356.14181666-.31608977.01516062-.68156666-.27975188-.84948976l1.66123135-3.69993329c.32173332.10900833.67874353-.03915833.82091209-.35524545.21484165-.4790731-.18203333-1.07773786-.85760186-.91792953M45.670964 32.46974934c-.60042687.28398523-.56867687.94297499-.15875 1.21320188l-1.8986499 3.58387116c-.45402498-.18767953-1.01705829.1562788-.91510375.81244545.28892499.6314731 1.00506208.57679166 1.25094994.11288977.16227689-.30621022.05961856-.6790981-.22366287-.86606855l1.8986499-3.58351662c.3139731.12946856.68015641.0049477.8424333-.3012731.24588786-.4639019-.1114769-1.08726022-.79586663-.97154999m18.23790552 7.68561657c-.06773333-.66075189-.69991284-.8505481-1.09114161-.55386022l-2.74637486-2.98449996c.32808331-.36547954.19155832-1.01106287-.46143331-1.13347499-.69109163.06208712-.87841662.75529545-.52281664 1.14194165.23459809.25505833.6201833.282575.89076472.07761023l2.74637222 2.98414807c-.22683522.25294166-.23142045.63958522.003175.89464355.35559998.38629166 1.06221472.257175 1.18145448-.42650833m-5.10928118-7.43161657c.08043333.65934166.71613974.83678976 1.10172495.53269355l2.80352485 2.93052497c-.32067498.37182953-.17180188 1.01458975.48330642 1.12430452.6900333-.0754962.86395185-.77258332.50094353-1.15217309-.23953521-.25011855-.62582686-.27022689-.89252685-.0599731l-2.80352485-2.93052496c.22154355-.257175.21872309-.64381856-.02082271-.89429166-.36300832-.37958712-1.06679995-.23671212-1.17263328.44943977m-35.34056074-.44979166c.53974998-.3869981.39052498-1.02975832-.06103143-1.22237499l1.2273147-3.86538518c.48013142.10336213.9726083-.3358462.75494353-.96308332-.39722687-.56938333-1.09219994-.38805643-1.25094993.11288712-.1051269.3302.0627962.6787462.37500452.81174166l-1.22731471 3.86538783c-.33196475-.07126288-.66992497.11676856-.77469996.44696855-.15910189.50059166.30374165 1.04986666.95673328.81385833m8.33825338-1.20685188c.6639295-.00881063.90910828-.6215962.6484064-1.0375212l3.21662673-2.47050186c.33478786.35912689.98989616.28045833 1.16981282-.3591269-.00026458-.69391476-.67451284-.9422712-1.09078972-.62229999-.27481475.21096023-.33654998.59301856-.15628143.88088522l-3.21662673 2.47014997c-.2314231-.24835643-.61630186-.28716023-.89111662-.0762-.41663142.31996856-.35066021 1.03540188.31996855 1.21461476m-2.74178699 2.12019353c.57714353-.32878976.49494543-.98354355.06561666-1.22166855l1.61960182-3.71827949c.46707687.1520481 1.00224161-.23353712.85019352-.88017878-.33619545-.60748333-1.04598518-.498475-1.25588707-.01693333-.13828976.31785189-.00740833.68156665.28927689.84631211l-1.61960182 3.7182795c-.32279165-.10512954-.67839163.04691856-.8166814.36441855-.20990188.48154166.1940269 1.07561855.8674814.90805"/><path d="M67.18299814 35.3053762c-.5319871-.39757879-1.09960828-.0606769-1.14652684.4279212h-4.05553313c-.04691856-.4885981-.6145371-.82549999-1.14652684-.4279212-.42227498.55068787-.03915833 1.1581712.48612687 1.1581712.34642953 0 .62794618-.26528977.66039997-.60325h4.05553313c.03245644.33796023.31397309.60325.66039997.60325.5252852 0 .90875639-.60748333.48612687-1.1581712m-5.46029329 16.94038956c-.05573712.66181022.53022497.96519999.96978518.74612499l2.14665443 3.44134541c-.38982118.29845-.37535641.9581462.24376855 1.19909166.69073974.06702954 1.00329995-.57961212.7253102-1.025525-.18344356-.29386211-.5573871-.39228711-.8614833-.24094545l-2.14629988-3.44099616c.26952309-.206375.34572308-.58561022.16227953-.879475-.27798976-.44591021-.99624351-.44979165-1.2400147.20037955m.52246474-20.35739331c.29139354.5969.95002874.55703522 1.2153185.14393333l3.60644792 1.85490377c-.18168143.45614166.16897878 1.01494166.82373519.904875.62759163-.29633334.56444353-1.01211856.09736666-1.25236022-.30797499-.1583981-.67944997-.0511519-.86289352.2345981l-3.60679982-1.85525831c.12594166-.31538333-.003175-.67980453-.31114998-.8382-.46707952-.24024165-1.08584995.1245288-.96202495.80750833M26.84780282 57.51414903c.00351895.66427878.6141852.91439998 1.03222684.65722499l2.44474988 3.23567685c-.36159809.33231666-.28821855.98813143.34960188 1.17298522.69426663.0049477.94791472-.6671019.63112117-1.08620189-.2088462-.276225-.59019807-.34113522-.87947495-.16333522l-2.44439798-3.2360314c.25011855-.22930643.29209998-.61383333.08325643-.89041022-.3167962-.4191-1.03258139-.358775-1.21708327.31009167m17.44027412.08113712c-.65263974-.12311856-1.01458972.428625-.8417295.8882962l-3.64348694 1.78187877c-.2568231-.41839356-.91439996-.47166212-1.21778971.11923977-.13758333.68050832.47378141 1.05762688.94544351.82691021.31150453-.1524.44767498-.51434999.32843786-.83220188l3.64313505-1.78188142c.1774481.28927954.5468064.40393144.85830829.25188333.47166474-.23071666.54927497-.94509165-.07231856-1.25412498m-6.8647042-11.88437675c.66251664-.04621212.87242117-.67168711.58913974-1.07279544l3.07163508-2.64794997c.35454165.33937046 1.00435828.22401212 1.14758781-.4247462-.03951287-.69285378-.72637117-.90240378-1.12430448-.55950379-.26246665.2261288-.30232878.61101023-.10618522.88794166l-3.07198962 2.64830186c-.24517878-.23495-.63147043-.25188333-.89393708-.02574396-.39793331.3429-.2913962 1.05339355.38805377 1.19450378M23.63787798 62.2304342c.27939998-.60254356-.16686476-1.0886731-.6547564-1.03399166l-.83431853-3.96874995c.46848975-.1464019.68121474-.7711731.18273976-1.21002688-.6258295-.30021477-1.1415897.200025-1.03328782.71402045.07126287.3390212.38876286.55985833.72601663.52211287l.83467306 3.96874995c-.32420188.10124546-.52599164.43144545-.45473141.77046666.10830454.51399545.7814045.76411665 1.2336647.23741856m16.31420752-28.73904131c.39757877-.53198712.06102879-1.09960832-.42792119-1.14652688v-4.05553328c.48894998-.04691857.82549996-.61453977.42792119-1.14652688-.55068785-.422275-1.15817115-.03915834-1.15817115.48612689 0 .34678143.26528976.62794355.60324997.66039999V32.344866c-.33796021.03245644-.60324997.3139731-.60324997.6604 0 .52528521.6074833.90875642 1.15817115.48612688"/><path d="M41.84226873 43.51663254c.18556022-.6378231-.32878976-1.050925-.80292307-.9235731l-1.42239992-3.79800374c.44132497-.2155481.55774163-.86501287-.00132292-1.22378786-.66357497-.20249356-1.09819805.36935833-.91404806.86148332.12170833.32455643.46884164.4949481.79657306.40675454l1.42239993 3.79800374c-.30515452.1488731-.45473141.50553143-.33337498.83008787.18415.49177045.88758708.63782045 1.25518327.04903523m-8.94370997-7.25981468c-.06491022-.6607519-.6960314-.85336856-1.08867305-.5588l-2.73296842-2.99614163c.32949355-.36406666.19579166-1.01035378-.45649354-1.13559165-.69179807.05891477-.88229806.75141666-.5281083 1.1394731.2335371.25611665.61912496.2853981.89076207.08149166l2.73297107 2.99649352c-.2278962.25188333-.2342462.63852954-.00079375.89429166.35383522.38805643 1.06115639.26211476 1.18321661-.42121666m-3.6479875 24.53110802c-.39758142.53234166-.06103144 1.09960832.42756664 1.14652688v4.05588783c-.48859808.04691856-.82514806.61418522-.42756664 1.14652688.5506852.422275 1.1578166.03880643 1.1578166-.48648143 0-.3464269-.26493521-.62759166-.60324996-.66004545v-4.05588783c.33831475-.03245379.60324997-.31361856.60324997-.66039999 0-.52493333-.60713141-.90840188-1.15781661-.48612689m12.68976792.20531666c-.5319871-.39758143-1.09960828-.06103143-1.14652684.42791856h-4.05553313c-.04691856-.48895-.61453974-.82549999-1.14652683-.42791856-.42227498.55068523-.03915834 1.15816855.48612687 1.15816855.34642688 0 .62794353-.26528712.66039996-.60324999h4.05553313c.03245644.33796287.3139731.60325.66039997.60325.5252852 0 .9087564-.60748333.48612687-1.15816856m-3.24308506-21.05836186c-.45578975-.48295453-1.07279805-.24870833-1.20297305.22471856l-3.99556003-.69603142c.0377481-.48965379-.46354997-.91863333-1.05586471-.61841856-.51082044.4699-.23741855 1.13418142.28010642 1.22413976.34148975.05961856.6642814-.15345834.75423973-.48083787l3.99520813.69603143c-.02611437.33866666.20566856.64840643.54715831.7076731.51752497.09031022.99941851-.44238334.6776852-1.057275m13.65320574-11.12096652c-.19473332.63535189.31397045 1.0558621.78986853.93486022l1.36913137 3.81740828c-.44414809.2091981-.5693833.85724999-.01553104 1.22378521.66075186.21166667 1.10313517-.35418712.92568972-.84878332-.1167712-.32596666-.46143331-.50129545-.79057496-.41768712l-1.36948327-3.81740828c.30726855-.14463977.4621371-.49918143.34501665-.8255-.1774481-.49424165-.87841662-.6501712-1.25412493-.066675m-6.6315084 11.89566652c.36230188-.55668332-.01023937-1.10102119-.50094618-1.11618975l-.26246665-4.04741851c.48471664-.07831667.78387306-.6663981.35277952-1.17157499-.57679164-.38593976-1.15817115.03598333-1.12394994.55985833.022225.34572045.30515188.60959999.64452496.62018332l.26246666 4.04706662c-.33549165.0543269-.58173141.35207045-.55950641.69779355.03421856.5242269.6649852.86748143 1.18709804.41028143m22.44724623 23.55179517c-.5319871-.39758144-1.09960828-.06103144-1.14652684.42756666h-4.05553313c-.04691856-.4885981-.6145371-.8251481-1.14652684-.42756666-.42227498.55068522-.03915833 1.15781665.48612687 1.15781665.34678142 0 .62794353-.26493523.66039997-.60325h4.05553313c.03245643.33831477.31397309.60325.66039996.60325.5252852 0 .9087564-.60713143.48612688-1.15781665m-42.36966379-1.23754355c-.63076663-.20813977-1.06221471.29139356-.95144162.76976022l-3.84598313 1.28763975c-.1993212-.44873332-.84454996-.58772953-1.22272948-.04162954-.22577689.65616666.33055452 1.1105462.82867495.94368143.32843786-.11006667.51117498-.45085.43462309-.78175643l3.84563124-1.2876371c.13828712.31009165.48930187.47236855.81773708.36230188.49812308-.16651022.66886664-.86430642.09348787-1.25236021m.40710377-7.21712945c.53198975.39758143 1.09960828.06103144 1.14652684-.42791856h4.05553313c.0469212.48895.61453974.8255 1.14652949.42791856.42262687-.55068522.03915833-1.15816855-.48612952-1.15816855-.34642688 0-.62794353.26528977-.66039997.60325h-4.05553313c-.03245379-.33796023-.31397044-.60325-.66039732-.60325-.52528785 0-.90875639.60748333-.48612952 1.15816855M63.04809001 34.9942262c.24941476-.61559545-.22048521-1.07914544-.70520186-1.00047688l-1.02940374-3.92253518c.46072688-.16968787.6424083-.80398143.12276666-1.21778975-.63993974-.26881667-1.12994804.25611666-.99659805.76446855.08784166.33513977.41592498.53975.75106473.4854231l1.02940374 3.92288972c-.31855831.11712046-.50376664.45649356-.41592498.79163332.13335.508.81844352.72495833 1.2438935.17638712m-2.79999531-1.53705187c-.66216474.05256477-.86606852.68015643-.57855641 1.07844165l-3.04588318 2.6775833c-.35806855-.3361981-1.00647495-.21413523-1.14370374.43568143.04621213.69250189.7351871.89570189 1.1299454.54892045.2599981-.22895189.29633332-.61383332.09736667-.88935188l3.04623772-2.6775833c.24729544.23248143.63394163.24588523.89429162.01693333.39440377-.34678143.28116211-1.05586475-.39969808-1.19062498m-4.34974978 28.55312653c-.66004808.07514167-.8424333.70943522-.54151475 1.09749166l-2.95274985 2.77988973c-.36900377-.3234981-1.01317684-.17956477-1.12782873.47448523.06985.69073976.76517496.86994999 1.14758517.51011666.25223521-.2377731.27551855-.62371022.06738143-.892175l2.95274985-2.77988973c.25541022.22366287.64205376.22401477.89429162-.01341437.38241021-.36018787.24517878-1.06538976-.43991474-1.17651476m-12.94482625-1.8728875c.36336021.55597954 1.01211851.4346231 1.22378517-.00846666l3.80929337 1.39170831c-.12347045.47519166.29421665.98601476.93027495.79516287.58561285-.37218143.43391665-1.07420832-.05926666-1.25447953-.32561211-.11888523-.6808602.03351477-.82726208.34007954l-3.80964792-1.39170832c.085725-.32843787-.08748976-.67415832-.41310187-.7930462-.49353785-.18026855-1.06186282.25858788-.85407496.92075m6.39444968-1.04422045c.01023937-.66428143-.59513785-.9267481-1.01847116-.67803976l-2.37736844-3.28612496c.36865188-.3242019.30868142-.98142689-.32526021-1.17968976-.69391474-.01939396-.96132116.6473481-.65334618 1.0727981.2032.28081022.58278974.35313143.87594806.18132689l2.37701655 3.28612495c-.25470643.22436667-.30479999.60783787-.1016.8886481.3076231.42545 1.02446662.37994166 1.22308138-.28504356m-8.69314956-25.24336635c-.65687307.0980731-.8170333.73801022-.50306285 1.11548332l-2.85467675 2.8807833c-.38029355-.3107981-1.01882306-.14463977-1.11089805.51293976.09383976.68791666.79516283.84313712 1.16487304.4699.24376855-.24588788.2536481-.63253143.03633523-.89358787l2.8546794-2.8807833c.26281855.21484167.6494621.20178977.89323329-.04445.3697102-.37288522.20813711-1.07279544-.48048331-1.16028521m-4.42665622 18.71274333c.35207309-.56338523-.03069166-1.10066666-.5217583-1.10701666l-.33725642-4.0414204c.48295451-.08748977.77152496-.68086287.33090642-1.17827953-.58384808-.3750019-1.15746472.05750454-1.11371851.581025.0289269.3453712.31679355.60360453.65616663.60783786l.33760832 4.0414204c-.33443332.0606769-.57502951.36300834-.54645451.7083769.0437462.5235231.68086284.85513332 1.19450637.38805643m1.2375435-7.6143537c-.10583332.65581212.45508331 1.00294545.91016662.81809166l1.87818968 3.59445185c-.41169165.26811022-.44732308.92709999.15169355 1.21461475.6836833.11923713 1.04457495-.50164999.8011583-.96731665-.16051212-.3072712-.52599164-.43356477-.84031663-.30585833l-1.87818703-3.5948064c.28469166-.18520832.38946665-.55738976.22895189-.86465832-.24341666-.46531476-.95920185-.52387499-1.25165638.10548144"/><path d="M47.08419346 59.45901113c-.53198974-.3975788-1.09960827-.0610288-1.14652948.42756666h-4.05553313c-.04691856-.48859546-.6145371-.82514545-1.14652684-.42756666-.42262687.55068786-.03915833 1.15781665.48612687 1.15781665.34642953 0 .62794618-.26528712.66039997-.60325h4.05553313c.03245644.33796288.31397309.60325.66039997.60325.52528784 0 .90875639-.60712879.48612951-1.15781665M25.1142529 66.92943414c.66004807-.07408334.84384352-.7076731.54363141-1.09643332l2.95874531-2.77389164c.36829998.32455644 1.01282495.18168144 1.12888972-.47201666-.06843977-.69073976-.76341284-.87171476-1.14652949-.51258522-.25294165.23706666-.27692877.62300379-.06914356.89182045l-2.9587453 2.77389163c-.25470643-.22436666-.64170451-.225425-.89429163.01164167-.38311664.35948143-.24729809 1.06468332.43744354 1.17757309m19.48991115-9.65199988c.55456664-.3654769.43074164-1.01353143-.01304396-1.22378522l1.37794993-3.81423328c.47554354.12170833.98495639-.2977462.7916333-.9330981-.3742981-.58455188-1.07561852-.43003522-1.25412494.0638519-.1178269.32596666.03598333.68086287.34289998.82585453l-1.37759804 3.81458518c-.32914165-.08431477-.6741583.09031023-.79163329.4162769-.17850378.49388976.26246665 1.06080452.92392495.85054809"/><path d="M41.60202707 59.95113612c-.16333786-.64381855-.81597496-.73942045-1.16028781-.38946666l-3.15136197-2.55269997c.27128522-.40922045.04197879-1.02799355-.62159618-1.05409999-.67486209.16227954-.75952875.8755962-.35136665 1.2061481.2695231.21801666.6551083.18908976.8928814-.05326857l3.1517165 2.55269997c-.18767688.28327879-.13581855.66639545.13335.88441211.40816475.33055454 1.0883185.09983788 1.10666471-.59372499"/><path d="M36.58270422 55.33468618c-.6459352.15381287-.75106473.80539165-.40569354 1.15428975l-2.5982082 3.11432307c-.40534165-.27728333-1.02764162-.05715-1.06327305.60607045.15239999.67733332.8643064.77187953 1.20085637.36865454.22189545-.2659962.19861212-.65193333-.04021666-.89358787l2.5982082-3.11396852c.28045832.19155833.66427876.14534356.88617685-.12065.33654999-.403225.11571023-1.08690832-.57784997-1.11513142m34.99943347-12.91307674c.4709583-.46848711.22083976-1.07879354-.25576476-1.19662044l.59196284-4.01214161c.4903602.02468562.90628519-.48753977.59054997-1.07209166-.4833064-.4981231-1.14017948-.20743333-1.21673137.31220833-.0504481.34254546.17074355.65969356.50059164.74118522l-.5919602 4.01214162c-.3390212-.0172773-.64276284.22260189-.6932083.56550189-.07655454.51928976.4681352.98742498 1.07456018.64981665m-9.52217642 23.80120993c.02468563-.66357499-.57502687-.93944544-1.00365184-.69991022L58.750905 62.1859842c.37570831-.31644167.32984809-.974725-.29950832-1.18639166-.6932083-.0345731-.97507684.6258269-.67662686 1.05798143.19685.28504356.5753814.36582879.87171473.2003769l2.30504988 3.33692495c-.2596462.2187231-.31785452.60113333-.12100453.88617688.29880452.43215454 1.01635449.4025212 1.22943137-.25823333M20.27661148 32.97598456c.11500643-.65404999-.44132498-1.00894355-.89887685-.83043711l-1.82774157-3.62055829c.41521854-.26211477.45966854-.9203981-.13476287-1.21602498-.68227043-.12911667-1.05162874.48683332-.81491663.95567498.15628143.30938523.51999618.44097046.83643783.3178519l1.82774158 3.62020639c-.28716286.1813269-.39687498.55209545-.2409481.86148332.23671477.46884166.95179352.53727879 1.25306661-.0881962m2.012598 31.35665149c-.61594997-.24906022-1.07914805.22083977-1.00012495.70555643l-3.92218313 1.0315231c-.16968787-.46072954-.8043333-.64205644-1.21778971-.12206288-.26846476.63993976.25682309 1.1299481.76482306.9962462.33513711-.08819621.53974998-.41627954.48506854-.75141666l3.92253503-1.0315231c.1171231.31855834.45684809.50341477.79198784.41521857.50799997-.13335.72425186-.81844356.17568332-1.24354166m28.87626901-21.04636829c.1234731-.65263712-.42791854-1.01494166-.88758973-.84243333l-1.78046847-3.64419351c.41874808-.25646856.47201664-.9144-.11888523-1.21778976-.6801564-.13793523-1.05762948.473075-.82691283.94509166.1520481.31150453.51399808.447675.83184996.32843787l1.78011658 3.64419351c-.28927688.1774481-.40428332.54680644-.25223522.85795643.23071666.47201666.94473972.54997879 1.25412494-.07126287"/><path d="M19.2916551 64.8575694c.39758141-.53198713.06103143-1.09960833-.42756665-1.14652689v-4.05553328c.48859808-.04691856.82514806-.61453977.42756664-1.14652688-.5506852-.42262954-1.1578166-.03915834-1.1578166.48612689 0 .34642689.26493786.62794355.60324996.66039999v4.05553328c-.3383121.03245644-.60324997.3139731-.60324997.6604 0 .52528521.60713141.90875642 1.15781661.48612688m33.80880853-28.7139932c.53198974.39758143 1.09960828.06067954 1.14652948-.42791856h4.05553313c.04691856.4885981.6145371.8255 1.14652684.42791856.42262687-.55068522.03915833-1.15816855-.48612687-1.15816855-.34642953 0-.62794618.26528977-.66039997.60325H54.2469931c-.03245643-.33796023-.31397309-.60325-.66039996-.60325-.52528785 0-.9087564.60748333-.48612952 1.15816855M66.75613793 61.4179861c.65616663.10265833 1.00047685-.460375.8135064-.91404545l3.58492671-1.8965333c.26987499.40992689.92921662.44238332 1.21355638-.15804621.11606212-.68403522-.50694164-1.04175188-.97119806-.79621855-.30656475.161925-.43109354.52810832-.30162498.84208142l-3.58528126 1.89617877c-.18661855-.28363333-.55950376-.38629166-.86571662-.22436666-.46425377.24553333-.5189352.96167309.11183143 1.25094998m-49.31480131-2.66347042c.5884333-.307975.53057687-.9652.11006667-1.2188481l1.75365824-3.6568935c.46108141.16897878 1.01000184-.19720455.88159162-.84878333-.31397309-.619125-1.02728972-.5362231-1.25447683-.06244167-.14993143.31256023-.03245644.68086022.25858522.85619166l-1.75401015 3.65689351c-.31855831-.11676856-.67944996.022225-.8293814.33443333-.22718975.47378144.15486856 1.08196855.83396663.9394481m23.47100905-26.7596061c-.25153142.61453976.21625189 1.07985452.70132307 1.00294809l1.0156454 3.92641661c-.4614333.16756857-.64522875.80151022-.12735188 1.21708332.6392333.27093333 1.13100638-.25223522.9994185-.76058976-.08678332-.33549166-.4138083-.54151212-.74929995-.48824355l-1.01564541-3.92641662c.3192621-.11606477.50552877-.45508333.41874544-.790575-.13158523-.50835188-.81562042-.72742688-1.24283517-.1806231m34.79588158-8.51429155c-.6639295-.02293938-.93768329.5771462-.69744163 1.00541665l-3.33092938 2.31387118c-.31749998-.37500454-.97578328-.32773143-1.18603706.30232879-.03280833.69356286.62864997.97366665 1.0600954.67415832.28469166-.19790833.3644212-.57608522.19826287-.87241855l3.33092673-2.31351664c.21942688.25893977.60183974.31644167.88653139.11888523.43144544-.29986022.39969544-1.01741022-.26140832-1.22872498m-18.62278429 3.33939616c-.65299163-.1199462-1.01212116.43356212-.83714163.89252689l-3.63431648 1.80022497c-.25893976-.41698332-.91687116-.46672499-1.21708327.12558977-.13405643.68121212.47907043 1.05515832.94967685.82197045.31044354-.15381023.44485187-.51646666.32384998-.83361211l3.63396459-1.80057952c.17921022.2885731.54927497.40146287.85971852.24765.47060641-.23318523.54468974-.94791212-.07866856-1.25377045m10.4348116-9.22196465c.40675187.52493332 1.04351661.35171856 1.21884804-.10653977l3.9091286 1.08091286c-.08537046.48365833.37218141.95955378.99095449.71825378.5538602-.41839355.34642688-1.10595832-.15980833-1.24601021-.33408142-.0924269-.67592307.08819356-.7972795.40534166l-3.9091286-1.08091021c.05891213-.33443333-.14146476-.66533977-.47554618-.75776666-.5062352-.14005454-1.0375185.34325189-.77716852.98671855m9.92363927.37958977c.22859999.62371022.88794162.65157878 1.19415183.26775832l3.39689794 2.21579543c-.2278962.434975.0638519 1.02693787.72672042.98460453.6544045-.23036476.66533974-.9486212.22542499-1.23542952-.29033522-.18944167-.6709833-.1210019-.88264996.14428787l-3.39724983-2.21544618c.15769166-.30091856.066675-.67662689-.22330832-.86606855-.4399121-.28680833-1.09290373.01235604-1.03998707.7044981M44.05383074 29.52617248c-.13123333-.65087499-.77857875-.77893332-1.13982494-.44591287l-3.02118697-2.70545186c.29104165-.39546476.09277878-1.02481855-.56903141-1.08338142-.68191853.12841287-.8015102.83678976-.41028142 1.18709809.25823332.23106856.6448795.22119166.89429162-.00918105l3.02154152 2.70545451c-.20108333.2734019-.1686269.65898712.08960643.89005832.39123142.35030833 1.08232305.15345834 1.13488517-.53869166m3.75143958-3.44627989c-.09877689-.65651855-.73906852-.81632689-1.11618971-.50165l-2.88360365-2.85185375c.31009165-.3806481.1432269-1.01882309-.51470451-1.11019165-.6875621.09454356-.84207875.79586666-.4684871 1.16522498.2462371.24341667.6328833.25294167.89358518.0352769l2.88395819 2.8518564c-.21448976.26281856-.20108333.64946212.04550833.89323332.37323975.36935833 1.07314994.2067269 1.15993327-.4818962M17.29951996 14.44209957c-.66392686.01870604-.89958328.63535453-.6325314 1.04739809l-3.17852674 2.5191852c-.34043142-.35418977-.99448138-.26528977-1.1645185.37676666.01092729.69391476.68897496.93168522 1.10066661.60536666.27128522-.21519356.32702498-.59760643.14252045-.88265l3.17852938-2.51918519c.23530189.2448269.6208871.27798712.89217496.06279356.41169164-.32631856.33478521-1.04069355-.33831476-1.20967498"/><path d="M44.47257882 17.49433286c-.54645186.3774731-.40816475 1.02305643.04021667 1.22308142l-1.29257683 3.84421852c-.47836664-.1114769-.9782545.31926477-.77082117.95038332.38734998.57608522 1.08514615.4060481 1.25236281-.0917231.11077045-.32843523-.05115454-.67980189-.36124619-.81809166l1.29257948-3.84421851c.33090377.07690643.67204163-.1051269.78246019-.43356477.16721665-.49812045-.28610188-1.05515832-.94297496-.83008522m-13.03654934-.11818143c-.48753975-.4512019-1.08726017-.17603523-1.18533327.30515453l-4.0329536-.42650832c.0045773-.49071477-.5242295-.8851212-1.09537494-.5457481-.47801474.50306022-.16051476 1.14758521.36194999 1.20261855.3443102.03633787.6522852-.1975538.72001852-.530225l4.03330813.42615644c-.00351896.3393731.24870832.63288332.59301854.66921855.52246474.05538787.9676685-.50835189.60536663-1.10066665m30.54667346 2.27259617c.59372497.29739167 1.09290374-.13405643 1.05304162-.62335832l3.99167859-.71613976c.1326462.4727231.75071283.70379166 1.20403137.2187231.31855832-.61665643-.16580643-1.14688142-.68297686-1.05409999-.34113786.0610288-.57114807.3718269-.54327951.71014166l-3.99203314.71613712c-.09172045-.327025-.41557043-.53833712-.75635375-.47695379-.51717308.0924269-.78739996.75811855-.27410832 1.22554999m.09383976-4.06611661c.5319871.39757878 1.09960564.06102878 1.14652685-.42791857h4.05553312c.04691857.48894735.6145371.82549735 1.14652684.42791856.42227498-.55068522.03915833-1.15816855-.48612687-1.15816855-.34642952 0-.62794618.26528712-.66039997.60325h-4.05553312c-.03245644-.33796288-.3139731-.60325-.66039997-.60325-.5252852 0-.9087564.60748333-.48612687 1.15816855M14.391572 16.73268477c-.24165188.6184212.23389166 1.07597309.71754997.99130642l1.07914805 3.9091314c-.4586102.17532878-.63182497.81209354-.10724356 1.21919998.64346664.26070189 1.1267704-.27058144.98707041-.77681666-.092075-.33408143-.42297877-.53481287-.75741208-.47625l-1.07914805-3.90913138c.31714808-.12135644.49776853-.4631981.40569354-.79727689-.1397-.50623787-.82726209-.7140231-1.24565827-.16016287m34.63007515-2.18369354c-.54327687-.38205833-1.10101851-.02927879-1.13382684.46072954l-4.05376836.11712046c-.06103143-.48753712-.63817497-.80750833-1.15852305-.39475833-.40639997.56268143-.00563562 1.15887498.51964165 1.14370642.34607498-.01023937.6198314-.28328143.6424083-.6223l4.0541229-.11676855c.04197879.33690189.33090377.59407689.6773333.58384545.5249333-.01516063.89076208-.63323522.4526121-1.17157499m-6.80331822-1.49013331c-.23988976-.619125-.89958329-.635-1.19873971-.24553333l-3.4378184-2.1512371c.2194269-.43920833-.08325643-1.02587953-.74506662-.9708462-.65016853.24271288-.64769997.96096666-.20214166 1.23930832.29351022.18415.67274807.10830454.87982685-.16086666l3.43782104 2.15123974c-.1516962.30374166-.053975.67803976.23988711.86183522.44520642.2786962 1.09255449-.03280833 1.02623139-.7239m12.95470578.09666289c-.16333786-.6438212-.8163295-.7390712-1.16028781-.38876288l-3.15171651-2.55269997c.27128786-.40922045.04198143-1.02799354-.62159353-1.05409998-.67486474.16227954-.75917686.8755962-.35101476 1.20614809.2691712.21801666.6547564.18908977.8925295-.05326857l3.1517165 2.55234543c-.18732498.28328144-.13546665.6663981.1337019.88441476.40816475.3305519 1.0883185.09983523 1.10666471-.59407689m-9.8580226-6.12422302c-.59301854-.29915644-1.09325828.13123333-1.05445185.62053522l-3.9941498.70520453c-.13088143-.473075-.74859617-.70590832-1.20332494-.2218981-.32032308.6155981.16298333 1.14723332.68015376 1.05586476.34113786-.060325.57220641-.37041667.54539618-.70908333l3.99379526-.70484999c.09066477.327025.41416285.53939545.75529807.47907045.51717307-.09136856.78916473-.75600188.27728332-1.22484354"/><path d="M49.0191786 7.05317087c-.41486665-.51858333-1.04880829-.33549166-1.21708328.12594166L43.8767372 6.15852467c.07761022-.48471666-.38699809-.95320378-1.00188972-.70237878-.5475102.42686022-.32914165 1.11089544.17921286 1.2431871.33513711.08713788.6745102-.09877689.79092686-.41768711l3.92500624 1.02023332c-.0536231.33513712.15204545.66286855.4875371.75000378.50835452.13193977 1.03222949-.35947879.76164807-.99871211M13.17378494 22.73237636c-.53198974-.39757879-1.09960827-.0610288-1.14652948.4279212H7.97172233c-.04691856-.48895-.6145371-.82549999-1.14652684-.4279212-.42227498.55068787-.03915833 1.1581712.48612687 1.1581712.34642953 0 .62794618-.26528977.66039997-.60325h4.05553313c.03245644.33796023.31397309.60325.66039997.60325.52528784 0 .90875639-.60748333.48612951-1.1581712m13.83311976-1.88065831c.17991666.63923333.83537686.71755 1.17016472.3584231l3.21733317 2.46873974c-.2599981.41627689-.01481667 1.02905188.64946209 1.03751855.6702795-.17991667.73589617-.8949981.31926475-1.21496665-.27516665-.21060833-.65969352-.17145-.89111662.07690643l-3.21768506-2.46909163c.17991665-.28786666.11817878-.6695731-.15663333-.88053332-.41698331-.31961667-1.09078972-.07126288-1.09078972.62300378m22.16290912 6.73417491c.55174618-.37006212.42262952-1.01705832-.02293938-1.22343331l1.34619993-3.82587495c.47660188.11782954.98248518-.3055038.78422497-.93944545-.37923786-.58137954-1.07949995-.42121666-1.25377305.07408333-.11535832.327025.0416269.68050833.34960188.82302878l-1.34619993 3.82587495c-.32949355-.08149166-.67309997.09595644-.78810375.42262954-.1742731.49565189.27128521 1.05868522.93097874.84313711m4.03226038-23.4064516c.23953787.61947954.8992314.63605833 1.19873971.2469462L57.83615315 6.581858c-.22013332.43885643.08184356 1.02587953.7436564.97154999.65052043-.2416519.6487583-.95990832.20390378-1.23930832-.29351021-.18415-.67309996-.10900833-.88017875.16016287l-3.43534982-2.15547307c.15204545-.30338977.05467879-.67768522-.23883143-.86183522-.44485187-.2794-1.09255184.03139546-1.02728972.72248711"/><path d="M55.37623471 6.47884777c.35842044-.55950643-.01833562-1.10101855-.5090583-1.11266021l-.2921-4.0453045c.48401021-.08184355.7789333-.67239355.34431022-1.17439544-.57996664-.38170643-1.1581685.04445-1.1200685.568325.02468562.34572045.3097371.60712878.6491102.61524355l.29209998 4.04530185c-.33478522.0564462-.5792602.35630643-.55421475.70202953.0377481.523875.6709833.86254165 1.18992115.40146022M36.32058946 3.26327925c-.65969353.07831667-.83925829.71296212-.53692686 1.09996022l-2.9411082 2.79223519c-.37041665-.32208523-1.01388328-.17568333-1.12606661.4790731.0726731.69038522.7690564.86677499 1.15005638.50517689.25117688-.2384769.27269544-.62476856.0635-.892175l2.94110818-2.79223519c.25611666.2226019.6431121.22119167.89429162-.01727729.38099998-.3615981.24059355-1.0660962-.44485452-1.17474998"/><path d="M53.43137004 5.94015611c-.39758142.53198977-.0606769 1.09960832.42791854 1.14652688v4.05553329c-.48859543.0469212-.82549996.61453976-.42791854 1.14652952.5506852.4226269 1.1581685.03915834 1.1581685-.48612953 0-.3464269-.2652871-.62794356-.60324997-.6604V7.086683c.33796286-.03245379.60324997-.31397045.60324997-.66039999 0-.52528522-.6074833-.90875378-1.1581685-.48612689m-3.08927484-.26564167c-.39758142.53198976-.0606769 1.09960832.42791854 1.14652688v4.05553328c-.48859544.04692121-.82549996.61453977-.42791854 1.14652953.5506852.4226269 1.1581685.03915833 1.1581685-.48612954 0-.34642689-.26528711-.62794355-.60324997-.66039999V6.82104133c.33796286-.0324538.60324997-.31397045.60324997-.6604 0-.52528521-.6074833-.90875377-1.1581685-.48612688m8.47760146 11.91894985c.48224808.45684545 1.08514616.18873523 1.18850828-.2913962l4.02801646.47307499c-.01023937.49106666.51399808.8914712 1.08867305.5588.4840102-.49776856.17391855-1.14582045-.34748786-1.20685189-.3443102-.04056856-.65475376.1901481-.72636852.52211022l-4.02801647-.473075c.00740834-.33937044-.24129998-.63570377-.5852583-.67627498-.5217583-.0610288-.97331208.49741666-.61806664 1.09361286M33.7551896 7.56610799c.0127.66428143.6265333.90558142 1.04139994.64276286l2.48849608 3.20251663c-.35701285.3369019-.27481475.99165832.36582878 1.16769355.69391473-.00423333.93838972-.67980189.61594997-1.09431665-.21237045-.27375644-.5947833-.3330231-.88159163-.15134167l-2.48849343-3.20251663c.24694355-.23283333.28398521-.61771476.07126022-.89146855-.3224371-.41486666-1.03716661-.34466476-1.21284994.32667046m-2.75872032 9.68057488c.65087497.13264356 1.02058518-.41380833.85442686-.8759481l3.66818315-1.73002043c.25082498.4219231.90769805.48436476 1.21955183-.10230644.14710833-.67839166-.4589621-1.06397688-.93380185-.83996211-.31361855.14781212-.45473141.50764545-.34007688.82726211l-3.66818315 1.73002308c-.17321476-.2917481-.54116284-.41169166-.8544295-.26387954-.47519164.22401477-.56267876.93697953.05432954 1.25483143"/><path d="M38.45418936 12.86271436c.58243784.31961666 1.0974916-.0924269 1.07597305-.58314166l4.0163748-.56373976c.11429999.47766286.72319352.73201476 1.19485827.26458333.34184165-.60430833-.12241477-1.15252499-.6424083-1.0795-.34325188.04833145-.58490641.34995644-.57008975.68932954l-4.0163748.56373712c-.07902045-.3302-.39440377-.55386022-.73765829-.50588333-.52034543.073025-.81562042.72778143-.32067498 1.21461476M54.139395.64954785c-.66004807.0758481-.84172685.71014165-.5404564 1.09784354l-2.9506332 2.78271284c-.3693583-.3234981-1.01317684-.17921287-1.12747683.47519167.0702019.69038522.7658814.86924355 1.14793971.50905832.25223522-.2377731.27481211-.62371287.066675-.89217499l2.95063318-2.7823583c.25541022.22366023.64205376.22330834.89429163-.01410229.38205831-.36053712.24412044-1.0653871-.44097309-1.17616021M41.06686233 2.4801126c-.65122686.130175-.78034352.77716855-.44802687 1.13876665L37.90808938 6.6354811c-.3947583-.2917481-1.02446661-.09454356-1.08443707.56691477.1273519.68227045.83537686.80327499 1.18639161.41239545.23142045-.2575269.22224999-.64417045-.00740833-.89429165L40.713379 3.7038978c.27304999.20143522.6582833.16968522.8900583-.08819356.35101475-.390525.15557498-1.0819712-.53657498-1.13559166m-8.53545789 18.83339334c-.19861476-.63358976-.85583973-.69285643-1.18004161-.32420454l-3.2882415-2.37384164c.24835642-.42368522-.01481667-1.02905188-.67909807-1.01811665-.6649852.1993212-.7094352.91616476-.28363068 1.22378786.28081022.20284546.66427876.1524.88864542-.10265833l3.2882415 2.37384164c-.17180189.29315832-.0987769.67274544.18203332.87559355.42615642.3076231 1.09255184.03951023 1.07209162-.6544019m-4.41078122-.33972499c-.64522876.15733713-.74682875.80927045-.39969544 1.15640378L25.1400048 25.258618c-.40675188-.27481213-1.02764162-.0511519-1.05974351.6124231.15592689.67627498.86853973.76693975 1.20297304.36194999.22048522-.26740644.19473333-.65334356-.04515643-.89358522l2.58092033-3.1284333c.28116475.19014546.66498784.14181667.88547306-.12523787.33408142-.40534166.10971476-1.08761211-.58384808-1.11195378M42.72915202 7.37737276c-.66181285-.05609166-.9659064.52951856-.7471833.96908143l-3.4434646 2.14312497c-.29809809-.3901731-.95779162-.37606287-1.1994435.24271023-.06773333.69073976.5789083 1.00365188 1.02481851.72636855.29421665-.18309167.39299354-.55703522.24200643-.86112878l3.44311005-2.14312497c.2060231.269875.5852583.34642689.87947496.16333522.4459102-.27763522.45049808-.99589165-.19931855-1.24036665"/><path d="M36.21934401 5.86183945c.08043333.65934166.71613709.83678976 1.10172495.5330481l2.80317031 2.93087685c-.32067498.371475-.17180188 1.01458976.48330642 1.12430188.6900333-.07549356.86395185-.77222878.50094353-1.15181854-.23953521-.2504731-.62582686-.27058144-.89252685-.060325l-2.80317296-2.93087686c.2218981-.257175.21907499-.6438212-.0204523-.89429166-.3630083-.37958976-1.06715183-.23671476-1.17298516.44908523M4.6563187 23.17158469c-.39758141.53234166-.06103143 1.09960832.42791855 1.14652952v4.05588518c-.48894998.04691856-.82549996.61418522-.42791854 1.14652688.5506852.422275 1.1581685.03880644 1.1581685-.48647878 0-.34642954-.26528976-.62759166-.60324997-.6600481v-4.05588518c.33796021-.03245643.60324997-.3136212.60324997-.66039999 0-.52493332-.6074833-.90840453-1.1581685-.48612953m25.46349607-8.52628512c-.22895189.62335832.25611665 1.07103332.7376583.97613521l1.15993327 3.88619995c-.45508331.18485644-.61524353.8247962-.08219546 1.22096476.64840376.24765 1.12077495-.29351023.97084352-.796925-.09913144-.33196476-.43391665-.52599165-.76693974-.46037499l-1.15993327-3.88619995c.31467953-.12770643.48824618-.47307499.38946665-.80539165-.15028333-.50306023-.84207875-.69673522-1.24883327-.13440833m23.26745716-2.67405377c-.4684871-.47060642-1.0791454-.21978143-1.1962685.257175l-4.0128479-.58878786c.02468562-.49071212-.48789165-.90593333-1.07209162-.58984356-.49812043.48330643-.20672688 1.14017688.31291476 1.21637688.34254808.0504481.65969352-.17145.7408333-.50094355l4.01249335.58878522c-.01693333.3390212.22295643.64240832.56585641.69250453.51964164.0762.98742495-.46884166.6491102-1.07526665m-10.57310137.89993522c-.5027083.43391666-.29633331 1.06080188.17074356 1.21179165l-.8741833 3.96028328c-.4871852-.0596212-.93838707.422275-.6646333 1.02728711.44661665.53128333 1.12218783.28786667 1.23542949-.22507045.07478712-.33831477-.1234731-.67027954-.44661665-.7747l.8741833-3.96028328c.33690187.0409231.65651852-.17674166.73130829-.51505643.11324166-.51293712-.39722952-1.01811665-1.02623139-.72425188m31.63252341 11.59615818c.17921022-.63958786-.33937309-1.04774998-.81244806-.91545832l-1.46085183-3.78318972c.43885377-.21978144.54856854-.87065643-.01410229-1.22378522-.66569163-.19543976-1.0943166.381-.90522685.87100833.12488333.32314355.47378142.49000832.8008064.39863712l1.46120372 3.78318972c-.30374165.1520481-.44979165.51011666-.32490832.83326022.18908976.49000833.89393973.62900453 1.25553781.03633787m-7.7685314-10.6690582c-.3827621-.5425731-1.02658328-.39828522-1.22237493.05185834l-3.85656383-1.25518332c.10653712-.479425-.32878976-.97507688-.95779162-.7616481-.5722064.39264167-.39581665 1.08902499.10371666 1.25165643.32949355.10724356.67909543-.05785644.81456209-.36935833l3.85656647 1.25553521c-.07373144.33125833.11183143.67063143.44132498.777875.4995333.16263143 1.05198328-.29633334.82056018-.95073523"/><path d="M73.3093376 24.46522255c-.62406474.22754166-.65299163.88688332-.26952309 1.19379998l-2.22038322 3.39372042c-.43462044-.22824546-1.02728708.06244166-.98566018.72531286.22930642.65510833.94756018.66675 1.23507494.22718712.18979355-.28998333.12170832-.67062878-.1432269-.88300188l2.22038323-3.39372306c.30056665.15769166.67662686.06738143.86642041-.2226019.28751476-.43956022-.01092729-1.09290642-.70308519-1.04069354m-14.04514096-6.38774803c-.62229997.23283333-.6455833.89252689-.25964355 1.19591665l-2.19180822 3.41241852c-.43673975-.22471856-1.02658328.07090834-.97966472.733425.23494999.6533462.95320639.65898976 1.2371916.21695832.187325-.29174545.11606477-.67168711-.15063522-.88159165l2.19180822-3.41241852c.30162499.1552231.6769814.06173523.8643064-.22965833.28398521-.44203143-.02010834-1.09290642-.7115545-1.03504999m19.761199 5.50933137c.53198974.3972269 1.09960827.0606769 1.14652683-.4279212h4.05553313c.0469212.4885981.61453974.8251481 1.14652949.4279212.42262687-.55103976.03915833-1.1581712-.48612952-1.1581712-.34642688 0-.62794353.26528977-.66039997.60325h-4.05553313c-.03245379-.33796023-.31397044-.60325-.66039996-.60325-.5252852 0-.90875375.60713144-.48612687 1.1581712M26.26783618 12.13563937c-.39722688.53234166-.0606769 1.09960832.42791854 1.14652688v4.05588518c-.48859543.0469212-.82514542.61418786-.42791854 1.14652952.55103974.422275 1.1581685.0388038 1.1581685-.48612953 0-.34677879-.2652871-.62794356-.60324997-.6604v-4.05588517c.33796286-.0324538.60324997-.31361856.60324997-.66004545 0-.52528787-.60712876-.90875643-1.1581685-.48648143M4.27390585 24.05494111c.66216474-.05185833.8674814-.6790981.58067307-1.07738332l3.05046841-2.67264353c.35736476.33655 1.00612306.2159 1.14405828-.43391666-.04515379-.69250453-.73377686-.89676286-1.12888707-.55068786-.26034999.2286-.29739165.61348143-.09913143.88899998L4.7706187 22.8819559c-.2469462-.23283333-.63358974-.2469462-.89393973-.01870604-.3951102.346075-.28328142 1.05586476.39722688 1.19168332m64.79998196 4.51062454c.39722688-.53198976.0606769-1.09960832-.42791854-1.14652688v-4.05553328c.48859544-.0469212.82514542-.61453976.42791854-1.14652953-.55103974-.42262689-1.1581685-.03915833-1.1581685.48612954 0 .34642689.26528711.62794355.60324997.66039999v4.05553328c-.33796286.0324538-.60324997.31397046-.60324997.6604 0 .52528522.60712876.90875377 1.1581685.48612688M42.4236456.68447285c-.08325644.65863522.48930187.98636665.93768328.78634165l2.0002499 3.5281314c-.40216665.28186855-.41521854.9415621.19296855 1.2082621.68756474.09595644 1.02693783-.53692688.76764617-.99412688-.1707462-.3012731-.54010451-.41521856-.85019616-.27693143l-2.0002499-3.52812875c.27798975-.19473333.37006475-.57044166.1993212-.87206666-.25929166-.4568481-.97648973-.49071476-1.24742305.14851857m-.99271661 9.52923321c.26564165.60889355.92533518.5969 1.20791017.19543977l3.52424982 2.00695187c-.20108333.447675.12558976 1.02129165.7845795.93909355.6399371-.26952046.60712876-.98707045.15063522-1.24706855-.30091855-.17145-.6769814-.08008143-.87241852.19755644l-3.52424982-2.00695452c.13899356-.30973712.02574396-.67945-.27516665-.85089999-.45649619-.25964356-1.09043782.07831667-.99553972.76588143m-8.59754768-.85478143c-.39757877.53198977-.06067689 1.09960832.4279212 1.14617499v4.05588782c-.48859809.04691856-.82549997.61453712-.4279212 1.14652688.55068785.422275 1.15817116.03915834 1.15817116-.48612689 0-.34678143-.26528976-.6279462-.60324997-.66039999v-4.05588782c.3379602-.0324538.60324997-.31361856.60324997-.66004545 0-.52528787-.6074833-.90875643-1.15817115-.48612954m4.48309977 10.23796464c-.66286853-.03986477-.95214541.55315379-.72284163.987425l-3.38948695 2.22743709c-.3076231-.38276212-.96661283-.352425-1.19309615.27199166-.05044546.69250453.6036045.98954166 1.04245828.7009712.28963142-.1905.37923785-.56656287.22048786-.86677499l3.38913506-2.22743974c.21272499.26458333.59372497.33161022.8833564.14146477.43885376-.2885731.42580187-1.00682953-.23001287-1.23507499"/><path d="M33.71532747 21.73048925c-.08255.65898711.4907121.98601211.93874162.78492878l2.00483513 3.52566283c-.40181475.28222045-.41380831.94191665.19473332 1.20791021.68756474.09525 1.02623139-.53833976.7665852-.99483332-.17145-.3012731-.54116021-.41486666-.85089997-.2758731l-2.00483512-3.52566018c.27798975-.19508523.36935831-.57079356.19790832-.87206666-.25964355-.45649356-.97719351-.48965643-1.2470685.14993144m.27128522-9.60119988c.39758141-.53234166.06103143-1.09960832-.42791854-1.14652688V6.92687466c.48894997-.04691856.82549995-.61418522.42791854-1.14652688-.5506852-.422275-1.1581685-.03880644-1.1581685.4861269 0 .34678142.2652871.6279462.60324996.66039998v4.05588783c-.33796286.03245379-.60324997.31361856-.60324997.66039999 0 .52493332.6074833.90840188 1.1581685.48612689"/><path d="M35.50179405 24.18934945c-.53198975-.39758144-1.09960828-.06103144-1.14652949.42791855h-4.05553313c-.04691856-.48895-.61453709-.82549999-1.14652683-.42791855-.42227498.55068522-.03915834 1.15816854.48612687 1.15816854.34642952 0 .62794617-.26528712.66039996-.60324999h4.05553313c.03245644.33796287.3139731.60325.66039997.60325.52528785 0 .9087564-.60748333.48612952-1.15816855m5.63985805-5.63209804c-.6265333-.22119166-1.06821282.2691712-.96731662.74965453l-3.87208958 1.20649999c-.1901481-.45261477-.83220185-.60536666-1.22202304-.06738144-.23953522.65158143.3072712 1.1172481.80856663.96096666.33090642-.10301023.52069997-.43991477.45120451-.77223143l3.87208693-1.20649999c.13123333.31291477.47907308.4822481.80962496.37923787.50164998-.15628143.6868583-.8501962.1199462-1.25024619m15.79774088-6.91444347c-.39758142.53198976-.06067954 1.09960832.42791854 1.14652952v4.05553064c-.48859808.0469212-.82549996.61453976-.42791854 1.14652953.5506852.42262689 1.1581685.03915833 1.1581685-.48612954 0-.34642689-.26528976-.62794355-.60324997-.66039999v-4.05553064c.33796021-.03245643.60324997-.3139731.60324997-.66039999 0-.52528787-.6074833-.90875642-1.1581685-.48612953m-3.12243772-4.08763518c.30797498.58843332.96519995.53057689 1.21884804.11006666l3.65689338 1.75365832c-.16897878.46108143.19720453 1.01000188.8487833.88159165.61912496-.31361856.53587117-1.02728976.06244165-1.25447688-.3125602-.14957954-.6808602-.03210454-.85619162.25858523l-3.65689338-1.75401021c.11676856-.31855833-.022225-.67945-.33478521-.82938143-.47342952-.22718977-1.08197115.15486856-.93909616.83396666M50.3353933 6.06539134c-.66004807.0726731-.8449045.70626287-.54539618 1.09537499l-2.96262675 2.7696583c-.36829998-.32526023-1.01247305-.18344357-1.12994805.47025453.06738144.69073712.7623545.87277045 1.14617495.51399545.25294165-.23671212.27763786-.62265189.07055643-.89146855l2.96262675-2.7696583c.25435453.22471856.64134997.22648333.89429162-.01023937.38382308-.358775.24906286-1.06432878-.43567877-1.17792499"/><path d="M58.8359262 17.1210931c-.64099807-.17321213-1.04422305.34925-.90734616.82056286l-3.7694286 1.4971871c-.22401476-.43709165-.87559616-.54045378-1.22343327.0254-.18944166.66780833.39122877 1.09078976.87912041.89676287.32208786-.12770643.48577498-.47801476.39123142-.80433332l3.76943125-1.49683786c.15486855.30197954.51434997.44485454.83608329.3167962.48824354-.193675.6205352-.89993786.02434166-1.25553785m-10.69904566 3.39372306c-.11817879-.6536981-.7630583-.79410189-1.13065184-.46813523l-2.96791842-2.76401473c.29880188-.38981856.11288712-1.02270188-.54751284-1.09431665-.6843871.11500643-.81773709.82056021-.43321021 1.17863142.25329355.23636022.64029163.23389166.89429162.00846667l2.96791841 2.76401209c-.20672688.2695231-.18132688.65546286.0723212.8914712.38417499.35806855 1.07879352.17497689 1.14476208-.51611477m16.28034084 7.53956657c.57361664-.33478523.48506854-.98883522.05326856-1.22272688l1.58220826-3.7341545c.46813785.14746288.99977305-.24376855.84102306-.88864544-.34219355-.60395643-1.05092495-.48789166-1.25588971-.00423334-.13511212.31891023-.00079375.68156666.2977462.84313712l-1.58220826 3.73450639c-.32384998-.1019519-.67768784.0536231-.81279996.37253333-.20496476.48365833.20461022 1.07385642.87665185.89958332m18.74943239-4.33140638c-.65898974-.08113713-.98495639.49247953-.78351852.94015453l-3.52213316 2.0108333c-.28292953-.40110832-.94262306-.4120462-1.20755827.19685-.09383977.68791666.54010187 1.02517045.99624351.76482045.30091855-.1718019.41380831-.54186666.27446022-.85125188l3.52213315-2.01083331c.19579166.27728333.57149997.3683.87242117.1964981.45614164-.26070454.48789164-.97825453-.1520481-1.2470712M57.46150317 9.00403107c-.31009165.5870231.11041856 1.09572689.60042687 1.0664481l.62829807 4.0064954c-.47554354.12206288-.72001853.73483787-.24482689 1.19909165.60924543.33196477 1.15005374-.14075833 1.06856208-.65969355-.05362046-.3425481-.35912688-.57926022-.69814543-.55915189l-.62829807-4.00649805c.32878975-.08431477.5471583-.4035769.4935352-.7457731-.08149166-.51893522-.7408333-.80362688-1.21955183-.30091856m3.41947483 8.5978999c-.45084998.48789166-.17533143 1.08726021.30585832 1.18497877l-.42298142 4.03366283c-.49106664-.0045773-.88511852.52493332-.54504164 1.09537498.50341475.47766023 1.14758782.15980833 1.2022666-.36265643.03633788-.34466477-.19826021-.65228522-.53092876-.71966666l.42297877-4.03330828c.33972498.00283104.6328833-.24941477.66886663-.59407689.05503333-.52211287-.5090583-.96696476-1.1010185-.60430832M48.03633887 7.65359776c-.6173602-.244475-1.07702873.2289519-.99447874.71296476l-3.914071 1.06150832c-.17321213-.45931666-.80927043-.63570643-1.2188454-.11288977-.263525.64205643.26564165 1.12818332.77258329.99059999.33443332-.09066477.53657497-.42051023.47942497-.7552981l3.91406837-1.06150832c.11994356.31785454.46108141.50023977.79516019.409575.50694164-.13758333.7182564-.82408712.16615832-1.24495188m20.52002397 11.34639152c.39758142-.53234166.06103143-1.09960832-.42791854-1.14652953v-4.05588517c.48894997-.04656667.82549996-.61418523.42791854-1.14617499-.5506852-.42262689-1.1581685-.03915833-1.1581685.48612954 0 .34642689.2652871.62794355.60324997.66004545v4.05588517c-.33796286.03245644-.60324997.3136212-.60324997.6604 0 .52528786.6074833.90840453 1.1581685.48612953m-25.7365487.05362046c-.17709356-.64029166-.83220186-.72142878-1.16839994-.36371212l-3.20674984-2.48320451c.26211475-.41486666.01976437-1.02869734-.64452497-1.03998711-.6713352.17674166-.73977496.89182044-.32455378 1.21320188.27410832.21201856.6589871.174625.89146852-.0726731l3.20674984 2.4832045c-.18132689.28680833-.12135643.66886666.15275189.88123712.41522119.32138143 1.09043782.0758481 1.09325828-.61806666m3.9274748-11.84168887c.65898974.08431212.98742495-.4882462.7877545-.936625l3.53059982-1.99566474c.28151666.40251856.94121018.4162769 1.2086166-.19191022.09701213-.68721287-.53587117-1.02728976-.99307115-.76870454-.30162498.17039167-.41592498.53975-.27798711.84984166l-3.53059982 1.99566475c-.19473333-.27834167-.57008974-.37076856-.87171473-.200025-.45719998.25823333-.49212497.97578332.14640189 1.24742309m3.40113126 16.82432214c-.60889353.26493787-.5976064.92498332-.19614355 1.20755832l-2.0090711 3.52319162c-.44767498-.20143523-1.02129162.12488333-.93944542.78422499.26881666.63958787.98636662.60748333 1.2467166.15134166.17145-.30127045.08043334-.67697878-.19684998-.87277044l2.00906846-3.52283973c.30973975.1393481.67944996.02611438.85089996-.27481477.26034998-.45649355-.07725833-1.09043521-.76517497-.99589165m-9.44809308 3.66148139c.26140832-.61065832-.1993212-1.08302688-.68544807-1.01388332l-.9532064-3.94193972c.46390453-.16051212.65793141-.79127878.14640454-1.21496665-.63464807-.28116212-1.13488781.2342462-1.01141472.74471476.08149167.3369019.40534165.54786476.74153974.50023976l.95320374 3.94193708c-.32067498.1107731-.5125852.4469712-.43109354.7835212.1234731.51046855.8039814.74047878 1.2400147.2003769m-18.47144262-9.32956012c-.37500453.54821666-.01516063 1.10137044.47519164 1.12782878l.16862689 4.05200638c-.48648142.06738144-.79904163.64840643-.37994165 1.16346022.56797307.39899166 1.15887494-.00918104 1.13700184-.53410379-.01447271-.346075-.29104165-.61630453-.6300602-.6346481l-.16898143-4.05200638c.33654998-.04656667.58984618-.33866666.57538141-.68509355-.02188104-.52458143-.64452497-.8822981-1.1772185-.43744356"/><path d="M57.57933006 7.84021632c-.62617876.22225-.66110376.88088786-.28045832 1.19133142l-2.25072034 3.37361473c-.43285832-.23212954-1.02764162.05326856-.99236473.71649166.22366022.65687045.94156473.67521665 1.23331017.238125.19226476-.28822121.12770643-.6695731-.13546666-.88406287l2.250723-3.37361208c.29915641.16051212.67627496.07372879.86853972-.21448977.29139355-.43709166-.00105833-1.09325832-.69356284-1.0473981M25.04193435 17.3877931c-.53198975-.3975788-1.09960828-.0610288-1.14652949.42756665h-4.05553313c-.04691856-.48859545-.6145371-.82514544-1.14652684-.42756666-.42262687.55068787-.03915833 1.15781666.48612688 1.15781666.34642952 0 .62794617-.26528713.66039996-.60325h4.05553313c.03245644.33796287.31397309.60325.66039997.60325.52528785 0 .90875639-.60712879.48612952-1.15781666M50.2496683 5.00282469c-.36265642-.55668333-1.01141472-.43603333-1.2237878.00669396l-3.80717671-1.39735453c.12417689-.47483712-.29245188-.98636665-.92886473-.79657045-.58666853.371475-.43567877 1.07385378.05715 1.25482878.32526286.11923977.68086284-.03280833.82797117-.33901856l3.8071767 1.39735188c-.085725.32843787.08678333.67451287.41239808.79374999.49282877.180975 1.06221208-.257175.8551333-.91969166m35.53777056 17.7845956c-.38099998.54363142-.02751667 1.10066664.46249164 1.13277119l.12276666 4.0537685c-.4871852.06173524-.80644996.63923333-.39299354 1.158875.5633852.40569355 1.15887494.00423333 1.14299994-.5207-.01058333-.3464269-.28433976-.61983143-.6230064-.64205643l-.12276667-4.05376851c.33690453-.04268523.59337308-.33196477.58314164-.67803976-.01621896-.52528523-.63464542-.89005833-1.17263327-.45085m-22.63104432.69532499c-.48648141-.45190832-1.08690828-.1778-1.18568517.30303787l-4.0322498-.43321287c.00529167-.49106666-.52281664-.88617688-1.0943166-.54786211-.47907309.50235378-.16263144 1.14723332.35947877 1.20332498.34466475.03704167.65263973-.1964981.7210795-.52916666l4.0326017.43321023c-.00388938.3393731.24764998.63323522.5919602.67027688.52246474.05609167.96837494-.50694166.6071314-1.09960832M.18062726 27.61764296c.5319871.39758144 1.09960828.06103144 1.14652684-.42791855h4.05553313c.04691856.48895.61453974.82549999 1.14652684.42791855.42227498-.55068522.03915833-1.15816854-.48612687-1.15816854-.34642688 0-.62794353.26528976-.66039997.60324999H1.3271541c-.03245643-.33796023-.31397309-.60325-.66039996-.60325-.5252852 0-.9087564.60748333-.48612688 1.15816855M56.1650449 5.48648301c-.6261814-.22119166-1.06785828.26881667-.96731662.7493l-3.87244147 1.20544165c-.1901481-.45261212-.83220185-.60536666-1.22202304-.06773334-.23953522.65122954.30691665 1.1172481.80856663.9613212.33055452-.10301287.52069997-.43991477.45120451-.77223143l3.87244148-1.20544165c.13123332.31326666.47871853.4826.80962496.37958977.50164997-.15592954.68721019-.84984166.11994355-1.2502462m-9.74266428 20.24979785c-.64734542-.14957954-1.0311685.38699546-.87735829.85336855l-3.71263314 1.63265642c-.23953522-.4282731-.89464352-.508-1.2216685.06985-.1651.67451022.43038974 1.07597045.91122495.86465832.31714809-.1397.4681352-.49565453.36159809-.81809165l3.71263314-1.63300832c.16580379.29633333.53022498.4261538.84737042.2864538.48083785-.21131213.58702307-.92180833-.02116667-1.25588712m-9.98607829-8.84061276c.65687043.09948333.99836018-.46531212.80891853-.91827878l3.57504981-1.91487687c.27199166.40886856.9313333.43744355 1.21284994-.16404167.11218333-.6850962-.5122333-1.03928332-.97543138-.79128142-.30550378.16333522-.42827044.53022499-.29739166.84349165L37.18524775 15.865206c-.18838332-.282575-.56162043-.3834712-.86712685-.21978144-.46284354.2480019-.51399808.96449355.11818143 1.25024355m7.0989451 7.77345822c.09525-.65757688-.4716621-.99518521-.9235704-.80292044l-1.93710445-3.5634083c.40710642-.27446286.43179998-.93415642-.17145-1.21143975-.68579996-.1083019-1.03646017.51858333-.78528329.98001666.16545454.3044481.53269618.4250981.8452564.2921l1.9371018 3.56305639c-.28151666.19014545-.38029355.56409166-.21484166.86853711.25117953.46143333.96767116.508 1.2498916-.12594167m-4.22909978-18.15606c-.06773333-.66075188-.6999102-.85019355-1.09114161-.55350832l-2.74707866-2.98379353c.32772878-.36547689.19085189-1.01106021-.46178785-1.13312309-.69144353.06208977-.87841662.75565-.52281664 1.14194166.2345981.25505833.62053784.2822231.89111662.07725833l2.7470813 2.98379617c-.22683522.25258712-.2314231.63923332.00351896.89429165.35559998.38629167 1.06221472.257175 1.18109994-.42686287"/><path d="M20.29248648 13.67374958c.19508522.6346481.8519583.69744166 1.17827684.33055454l3.2751896 2.39147876c-.25011855.42262689.009525 1.02905188.6738064 1.02164355.66604353-.19543713.71437497-.91228333.29033522-1.22202045-.27975188-.20425833-.66357497-.15592954-.88899995.09807046l-3.2755415-2.39183066c.17321476-.2921.10230643-.6723962-.1774481-.87665453-.42439165-.30973712-1.09219995-.04515379-1.07561851.64875833m39.45254802 9.89823964c-.46496286-.47413332-1.07738329-.2278962-1.19838782.2480019l-4.00790813-.6194769c.0282231-.49036286-.4811871-.90946286-1.06785828-.59795832-.50164998.4797769-.21554545 1.13841211.30374165 1.21884545.34219619.05291666.6607545-.16651023.74471473-.4953l4.00790813.619125c-.01939395.3390212.21801666.64417309.56056475.69708976.5189352.08043333.99059995-.46143333.65722496-1.07032689m-32.25941125-.40639999c-.16333522.64381855.36477309 1.03928332.83432117.89534999l1.55363325 3.7461454c-.43321285.23036478-.52704997.88370833.04409546 1.22308143.6706314.17921023 1.08479161-.40781022.88370829-.89288143-.13299545-.31996855-.48577498-.47836666-.81032875-.37888332l-1.55363326-3.74614542c.29950832-.15945643.4367371-.52105453.30409355-.84102309-.20108332-.4854231-.90910829-.60677689-1.2558897-.00563562m12.22057438-1.77730413c.66216473-.05009356.86853972-.67697878.58278974-1.07597044l3.05646651-2.66594163c.35630642.33725378 1.00541662.21801666 1.14511661-.4314481-.04374356-.6925019-.7316602-.8981731-1.12783138-.55315643-.26105378.2278962-.29880188.61277499-.10089356.88864809l-3.05646651 2.66594163c-.24659165-.23318522-.6328833-.24835643-.89393973-.02045229-.39581664.34536856-.28574998 1.05515832.39475832 1.19238711m.14040643-14.17003011c.6205352.23741856 1.07456017-.2413.98671851-.72425454l3.9017229-1.10595831c.17850644.45755453.81632686.62688786 1.21990638.09913143.25611666-.64487689-.27834165-1.12500832-.78352117-.98178142-.33337498.0945462-.5319871.42650832-.4709583.76058976l-3.9020748 1.10595832c-.12311856-.31644167-.46637044-.4949481-.79974543-.4004019-.50517951.1432269-.7083795.8322019-.1520481 1.24671666"/><path d="M24.52017604 18.42919308c-.13687954.6501712.40710377 1.02340832.87030185.86042499l1.70532681 3.67982495c-.4236852.24800454-.4907121.9045231.09383977 1.22025832.6773333.1516962 1.06715184-.45155378.84631208-.92815832-.14569545-.314325-.50482498-.45825833-.82514542-.34536856l-1.70497491-3.67982495c.29280642-.17145.41521854-.53833977.26952309-.85266476-.22083976-.4766019-.93309806-.56938333-1.25518327.04550833m52.5652947.23742121c-.10018976-.6565212-.7408333-.81491666-1.11724804-.49953333l-2.88960175-2.8455064c.3093852-.3813519.14146476-1.01917499-.51681854-1.10948522-.68721284.09595644-.84031663.79798332-.46602119 1.16628332.2469462.24341666.63358974.25188333.89358783.03351212l2.88995365 2.8458583c-.21413522.263525-.19967045.64981666.0472731.89288143.37429809.36865189 1.07350184.20496477 1.15887494-.48401022m-57.19761947 10.1423601c-.44591285-.4924769-1.06750638-.27093333-1.20720638.1996731l-3.98039146-.77893332c.0479769-.4885981-.44449998-.92780643-1.04281018-.63993977-.52034808.45931666-.26070453 1.12924165.25470378 1.22978332.34007953.066675.6671045-.1397.76376473-.46496022l3.98039147.77857878c-.03316023.33796287.19191022.65228787.53198974.71896286.51540831.10089357 1.00859162-.4215712.6995583-1.04316475M49.1490017 9.0812894c-.64593785.15416478-.75071284.80574356-.40534165 1.15464166l-2.59609154 3.1157333c-.40569619-.27693144-1.02764161-.05644357-1.06256661.60677688.15239999.67733333.86465829.771525 1.20085373.3679481.2218981-.26599356.19826286-.65193332-.04092046-.89323332l2.59644343-3.1157333c.28045832.19120644.6642814.14499167.88617686-.12135643.33619808-.4035769.11500643-1.08690832-.57855377-1.11477688m-4.98157475 35.99955977c.62441664.22613144 1.06997495-.2607019.97296018-.74224355l3.88126004-1.17651476c.1866212.454025.82761662.61171666 1.2213166.0765519.24447499-.64946212-.29844998-1.11936211-.80115829-.96696212-.33161021.10054167-.52422687.43603333-.45719998.7687019l-3.88090814 1.17686664c-.12911666-.3139731-.47554353-.48648143-.80715375-.38593976-.5027083.1524-.6932083.84490453-.12911666 1.24953975M24.09684273 63.67400084c-.28892499-.59795832-.94791473-.56056476-1.21461471-.14851856l-3.59939149-1.86831285c.18344355-.45543522-.1651-1.01564544-.82056019-.90804999-.62864997.29421667-.56832497 1.01000453-.10195453 1.25200832.30727119.15945644.67944996.0536231.8639545-.23142045l3.59939148 1.8683102c-.1266481.31503143.00079375.68015643.30832688.83996476.46601854.2416519 1.08620184-.12065.96484806-.80398143"/></g></svg>