<svg xmlns="http://www.w3.org/2000/svg" xml:space="preserve" viewBox="0 0 30.58 71.92"><g fill="#231f20"><path d="M11.37 70.75c.6.3 1.09-.14 1.04-.63l3.99-.76c.13.47.75.7 1.2.2.31-.62-.18-1.14-.7-1.04a.66.66 0 0 0-.53.71L12.4 70a.66.66 0 0 0-.76-.47c-.52.1-.78.77-.26 1.23m8.75.1c.55-.37.43-1.02-.02-1.22l1.37-3.82c.47.12.98-.3.78-.94-.37-.58-1.07-.43-1.25.07-.12.32.04.68.35.82l-1.37 3.82a.66.66 0 0 0-.79.42c-.17.5.27 1.06.93.85"/><path d="M14.9 70.31c.66-.12.8-.77.47-1.13l2.76-2.98c.39.3 1.02.1 1.09-.55-.12-.69-.83-.82-1.18-.43a.66.66 0 0 0 0 .9l-2.76 2.97a.66.66 0 0 0-.9.08c-.35.38-.16 1.08.53 1.14m-.09 1.6c.66.07.97-.5.76-.95l3.48-2.09c.3.4.95.4 1.2-.22.08-.69-.56-1.01-1-.74-.3.18-.4.55-.26.86l-3.48 2.08a.66.66 0 0 0-.88-.18c-.45.27-.47 1 .18 1.25m-5.58-2.2c.63-.22.67-.88.3-1.2l2.28-3.34c.43.23 1.03-.05 1-.71-.22-.66-.94-.68-1.23-.25-.2.29-.14.67.12.88l-2.28 3.35a.66.66 0 0 0-.87.21c-.3.43-.01 1.1.68 1.05"/><path d="M13.73 71c.4-.52.06-1.1-.43-1.14v-4.05c.5-.05.83-.62.43-1.15-.55-.42-1.16-.04-1.16.48 0 .35.27.63.6.67v4.05a.66.66 0 0 0-.6.66c0 .53.61.91 1.16.49"/><path d="M14.28 68c-.63-.2-1.05.31-.93.79l-3.8 1.4c-.22-.45-.87-.57-1.23-.01-.2.66.36 1.1.86.92.32-.12.5-.47.4-.8l3.82-1.4c.14.32.5.47.82.35.5-.18.65-.88.06-1.26m1.68-1.68c.64.2 1.06-.31.94-.79l3.81-1.37c.21.44.86.57 1.23.01.2-.66-.36-1.1-.85-.92a.66.66 0 0 0-.42.79l-3.82 1.37a.66.66 0 0 0-.82-.34c-.5.18-.65.88-.07 1.25M5.61 65.4c.53.4 1.1.06 1.14-.43h4.06c.04.5.61.83 1.14.43.43-.55.04-1.16-.48-1.16a.66.66 0 0 0-.66.6H6.75a.66.66 0 0 0-.66-.6c-.52 0-.9.61-.48 1.16m16.19-4.18c-.04.66.56.95.99.71l2.25 3.38c-.38.3-.35.97.28 1.19.7.04.99-.61.7-1.05a.66.66 0 0 0-.87-.21l-2.26-3.38c.27-.21.33-.6.14-.88-.3-.44-1.01-.42-1.23.24m7.62-3.45c-.4.54-.06 1.1.43 1.15v4.06c-.49.04-.82.61-.43 1.14.55.42 1.16.04 1.16-.48a.66.66 0 0 0-.6-.66V58.9c.34-.03.6-.31.6-.66 0-.53-.6-.9-1.16-.49"/><path d="M9.01 66.18c.64.17 1.05-.34.91-.82l3.78-1.47c.22.44.87.55 1.23-.02.19-.66-.39-1.1-.88-.9a.66.66 0 0 0-.4.8l-3.77 1.47a.66.66 0 0 0-.84-.32c-.49.2-.62.9-.03 1.26m11.39-9.81c-.4.53-.06 1.1.42 1.15v4.05c-.48.05-.82.62-.42 1.15.55.42 1.15.04 1.15-.49a.66.66 0 0 0-.6-.66v-4.05c.34-.04.6-.32.6-.66 0-.53-.6-.91-1.15-.49m-5.46-1.53c-.63.23-.66.89-.27 1.2l-2.23 3.39c-.43-.23-1.02.06-.98.72.23.66.95.67 1.23.23a.66.66 0 0 0-.14-.88l2.22-3.4c.3.16.68.07.87-.22.29-.44-.01-1.1-.7-1.04m13.64 9.55c-.53-.4-1.1-.06-1.14.42h-4.06c-.05-.48-.61-.82-1.15-.42-.42.55-.03 1.15.5 1.15.34 0 .62-.26.65-.6h4.06c.03.34.31.6.66.6.52 0 .9-.6.48-1.15"/><path d="M12 62.09c.35.56 1 .45 1.23.01L17 63.57c-.14.48.27 1 .9.82.6-.36.47-1.07-.02-1.26a.66.66 0 0 0-.84.33l-3.78-1.48a.66.66 0 0 0-.4-.8c-.48-.19-1.06.24-.87.9"/><path d="M16.3 61.95c-.26-.62-.91-.62-1.2-.22l-3.5-2.07c.22-.45-.1-1.03-.76-.96-.64.26-.62.98-.17 1.25.3.18.67.1.87-.18l3.49 2.07c-.14.3-.04.68.26.85.45.27 1.1-.06 1.01-.74m-2.25 5.4c.67-.05.88-.68.6-1.08l3.07-2.64c.35.34 1 .22 1.14-.43-.04-.7-.72-.9-1.12-.56a.66.66 0 0 0-.1.89l-3.08 2.65a.66.66 0 0 0-.9-.03c-.4.34-.29 1.05.4 1.2m10.6-12.16c-.16.64.36 1.04.83.9l1.54 3.75c-.44.23-.53.88.04 1.22.67.18 1.08-.4.89-.89a.66.66 0 0 0-.81-.38l-1.54-3.75c.3-.16.44-.52.3-.84-.2-.49-.9-.61-1.25-.01"/><path d="M15.78 66.5c.34.57 1 .47 1.22.04l3.76 1.53c-.14.47.25 1 .9.83.6-.35.47-1.06-.02-1.26a.66.66 0 0 0-.84.31l-3.75-1.53a.66.66 0 0 0-.38-.8c-.5-.2-1.08.21-.9.88m-7-7.44c-.53.4-.37 1.04.09 1.22L7.7 64.17c-.48-.1-.96.35-.73.98.4.56 1.1.36 1.25-.14a.66.66 0 0 0-.4-.8l1.15-3.9c.33.07.67-.13.77-.46.14-.5-.33-1.04-.98-.8m16.66-1.46c-.33.58.08 1.1.57 1.08l.51 4.03c-.48.1-.74.71-.28 1.19.6.35 1.16-.11 1.1-.63a.66.66 0 0 0-.7-.58l-.5-4.02a.66.66 0 0 0 .5-.73c-.06-.52-.71-.83-1.2-.34m-8.57 2.18c-.08.66.5.98.95.77l2.06 3.49c-.4.29-.4.95.22 1.2.69.08 1.02-.55.75-1a.66.66 0 0 0-.86-.27l-2.06-3.49c.27-.2.36-.57.18-.87-.27-.45-.99-.48-1.24.17"/><path d="M11.62 59.73c-.53-.4-1.1-.06-1.15.42H6.42c-.05-.48-.62-.82-1.15-.42-.42.55-.04 1.15.49 1.15.34 0 .63-.26.66-.6h4.05c.04.34.32.6.66.6.53 0 .91-.6.49-1.15"/><path d="M11.17 61.97c.4-.53.06-1.1-.43-1.15v-4.05c.5-.05.83-.62.43-1.15-.55-.42-1.16-.04-1.16.49 0 .34.27.62.6.66v4.05a.66.66 0 0 0-.6.66c0 .53.61.91 1.16.49m8.5-1.87c-.54-.4-1.1-.06-1.15.43h-4.06c-.05-.5-.61-.83-1.15-.43-.42.55-.04 1.16.49 1.16.35 0 .63-.27.66-.6h4.06c.03.33.3.6.66.6.52 0 .9-.61.48-1.16m5.1 4.87c.67.02.95-.58.7-1l3.34-2.32c.32.38.97.33 1.18-.3.04-.7-.63-.98-1.06-.68a.66.66 0 0 0-.2.88l-3.33 2.31a.66.66 0 0 0-.88-.12c-.43.3-.4 1.02.26 1.23m-15.92-9.5c-.6.27-.6.93-.2 1.21l-2 3.52c-.45-.2-1.03.13-.95.79.27.64.99.6 1.25.15a.66.66 0 0 0-.2-.87l2.02-3.52c.3.14.68.02.85-.28.26-.45-.08-1.09-.77-1m5.55-10.75c-.4.54-.06 1.1.43 1.15v4.06c-.49.04-.82.61-.43 1.14.55.43 1.16.04 1.16-.48a.66.66 0 0 0-.6-.66v-4.06c.34-.03.6-.31.6-.66 0-.52-.6-.9-1.16-.49m.78-6.55c-.54-.4-1.1-.06-1.15.43H9.97c-.04-.49-.61-.83-1.14-.43-.42.55-.04 1.16.48 1.16.35 0 .63-.27.66-.6h4.06c.03.33.31.6.66.6.53 0 .9-.6.49-1.16m-4.13-5c-.63-.2-1.06.3-.95.77l-3.84 1.3c-.2-.44-.84-.58-1.22-.03-.22.66.34 1.1.83.94a.66.66 0 0 0 .43-.78l3.84-1.3c.14.3.5.46.82.35.5-.17.67-.87.1-1.25m-2.67-2.2c-.66-.04-.95.56-.71.99l-3.36 2.27c-.31-.38-.97-.34-1.2.29-.03.69.62.98 1.06.68a.65.65 0 0 0 .2-.87l3.37-2.27c.22.27.6.33.88.14.44-.3.42-1.02-.24-1.24m-4.81 20.9c.64.16 1.03-.38.88-.85l3.72-1.61c.24.43.9.51 1.22-.07.17-.67-.42-1.07-.9-.86a.66.66 0 0 0-.37.81L4.4 50.9a.66.66 0 0 0-.85-.3c-.48.22-.59.93.02 1.26m-.75-28.8c-.46.5-.19 1.1.3 1.2l-.46 4.03c-.49-.01-.88.52-.55 1.09.5.48 1.15.17 1.2-.36a.66.66 0 0 0-.52-.72l.45-4.03c.34 0 .64-.24.67-.59.06-.52-.5-.97-1.1-.61"/><path d="M4.65 18.39c-.62.24-.64.9-.24 1.2l-2.15 3.44c-.44-.22-1.02.09-.96.75.24.65.96.65 1.24.2.18-.3.1-.67-.17-.88l2.14-3.44c.3.15.68.05.86-.25.28-.44-.03-1.09-.72-1.02m5.65-7.8c.66.02.94-.58.7-1l3.34-2.3c.31.37.97.32 1.19-.3.03-.7-.63-.98-1.06-.68a.66.66 0 0 0-.2.87l-3.34 2.3a.66.66 0 0 0-.89-.12c-.43.3-.4 1.01.26 1.23m1.44 17.88c-.66.09-.83.72-.52 1.1l-2.9 2.84c-.38-.32-1.02-.17-1.12.5.08.68.78.85 1.15.48a.66.66 0 0 0 .06-.9l2.9-2.82c.26.22.64.2.9-.03.37-.37.22-1.07-.47-1.17m4.18 9.46c.66-.07.85-.7.56-1.09l3.01-2.71c.37.33 1.01.2 1.14-.45-.05-.7-.74-.9-1.13-.54a.66.66 0 0 0-.09.9l-3.01 2.7a.66.66 0 0 0-.9 0c-.39.35-.27 1.06.42 1.19"/><path d="M13.68 30.67c.06.67.68.87 1.08.58l2.68 3.05c-.33.35-.21 1 .44 1.14.7-.05.9-.74.55-1.13a.66.66 0 0 0-.9-.1l-2.67-3.04a.66.66 0 0 0 .01-.9c-.34-.4-1.05-.28-1.19.4m-2.9-17.13c-.09-.65-.72-.82-1.1-.5l-2.86-2.9c.32-.37.16-1-.5-1.1-.69.08-.85.78-.48 1.15.24.25.63.26.9.05l2.85 2.88a.67.67 0 0 0 .03.9c.37.37 1.07.21 1.17-.48m3.91 42.2c.67.03.94-.57.7-1l3.34-2.3c.31.37.97.32 1.18-.3.04-.7-.63-.98-1.06-.68a.66.66 0 0 0-.2.87l-3.33 2.31a.66.66 0 0 0-.89-.12c-.43.3-.4 1.02.26 1.23m3.68-18.37c-.4.53-.07 1.1.42 1.15l-.02 4.06c-.49.04-.83.6-.43 1.14.55.43 1.15.05 1.16-.48a.67.67 0 0 0-.6-.66l.02-4.06c.33-.03.6-.3.6-.65 0-.53-.6-.92-1.15-.5"/><path d="M10.06 34.97c.64-.18.71-.84.35-1.17l2.44-3.24c.42.26 1.03 0 1.03-.66-.18-.67-.9-.73-1.22-.3-.2.27-.16.65.09.88l-2.44 3.24a.67.67 0 0 0-.88.17c-.32.42-.06 1.09.63 1.08m3.22-19.06c.09-.65-.48-.99-.93-.79l-1.98-3.54c.4-.28.42-.94-.19-1.2-.68-.1-1.03.52-.77.98.17.3.54.42.85.28l1.98 3.54a.66.66 0 0 0-.2.87c.25.46.97.5 1.24-.14m-5.86-4.63c.66-.09.83-.73.53-1.1l2.9-2.83c.38.31 1.02.16 1.13-.5-.08-.68-.78-.85-1.16-.49a.66.66 0 0 0-.05.9l-2.91 2.82a.66.66 0 0 0-.9.03c-.37.36-.22 1.07.46 1.17M1.13 6.5c.53.4 1.1.06 1.15-.43h4.05c.05.5.62.83 1.15.43.42-.55.04-1.16-.49-1.16a.66.66 0 0 0-.66.6H2.28a.66.66 0 0 0-.66-.6c-.53 0-.91.61-.49 1.16m20.71 40.8c-.43-.5-1.06-.29-1.2.18l-3.97-.86c.06-.49-.43-.94-1.03-.66-.53.44-.29 1.12.23 1.23.34.07.67-.13.77-.45l3.96.86c-.04.34.18.66.52.73.51.12 1.02-.4.72-1.02m-3.56-5.96c.38-.55.02-1.1-.47-1.13l-.14-4.05c.49-.07.8-.65.4-1.16-.57-.4-1.17 0-1.15.52.01.35.29.62.63.64l.13 4.05a.66.66 0 0 0-.58.68c.02.53.64.9 1.18.45"/><path d="M7.8 39.99c.64-.19.71-.85.35-1.18l2.44-3.24c.42.26 1.03 0 1.03-.66-.19-.67-.9-.73-1.22-.3-.2.27-.16.66.09.88l-2.44 3.25a.66.66 0 0 0-.88.16c-.31.42-.06 1.1.63 1.09m10.46 10.43c-.53-.4-1.1-.06-1.14.43h-4.06c-.05-.49-.61-.83-1.15-.43-.42.55-.03 1.16.5 1.16.34 0 .62-.27.65-.6h4.06c.03.33.31.6.66.6.52 0 .9-.6.48-1.16M7.46 17.58c-.5-.43-1.1-.12-1.16.37l-4.05-.2c-.03-.49-.58-.85-1.13-.48-.45.53-.1 1.15.43 1.18.35.02.64-.23.69-.57l4.05.2c.02.33.29.61.63.63.53.02.94-.56.54-1.13M9.33 6.83c-.63-.2-1.07.29-.96.77L4.52 8.86c-.2-.45-.84-.6-1.22-.05-.23.66.32 1.11.82.95.33-.1.51-.45.44-.78L8.4 7.72c.14.31.49.47.82.37.5-.17.67-.86.1-1.26m-3.2 15.72c.35.56 1 .44 1.22 0l3.8 1.42c-.13.48.29.99.92.8.6-.36.44-1.07-.05-1.25a.66.66 0 0 0-.83.33l-3.8-1.42a.66.66 0 0 0-.4-.8c-.5-.18-1.07.26-.86.92m1.33 20.06c-.3-.6-.96-.54-1.22-.12l-3.63-1.8c.17-.46-.19-1.02-.84-.9-.63.3-.55 1.02-.08 1.26.31.15.68.04.86-.25l3.63 1.8c-.12.32.02.68.33.83.47.24 1.08-.14.95-.82M5.9 15.01c.22.62.88.65 1.19.27l3.38 2.24c-.23.43.06 1.03.72.99.66-.23.67-.94.23-1.23a.66.66 0 0 0-.88.13l-3.38-2.23a.66.66 0 0 0-.22-.87c-.44-.29-1.1 0-1.04.7"/><path d="M9.43 16.03c.36.55 1.01.42 1.22-.02l3.82 1.35c-.12.48.3.98.94.79.58-.38.42-1.08-.07-1.26a.66.66 0 0 0-.83.35L10.7 15.9a.66.66 0 0 0-.42-.8c-.5-.17-1.06.28-.84.94m7.15-6.07c-.62-.24-1.08.24-.99.72l-3.9 1.08c-.18-.45-.82-.63-1.23-.1-.26.64.28 1.13.78.98a.65.65 0 0 0 .48-.75l3.9-1.09c.13.32.47.5.8.4.5-.14.72-.82.16-1.24m-8.17 7.8c-.65-.13-1.02.41-.86.88l-3.67 1.7c-.25-.42-.9-.48-1.22.1-.15.68.45 1.07.93.85.31-.15.45-.5.34-.83l3.68-1.7c.17.28.54.4.85.26.48-.22.57-.93-.05-1.25m5.44 24.37c.53.4 1.1.06 1.15-.43h4.05c.05.49.62.83 1.15.43.42-.55.04-1.16-.49-1.16a.66.66 0 0 0-.66.6H15a.66.66 0 0 0-.66-.6c-.53 0-.91.6-.49 1.16M7.79 48.7c.53-.4.37-1.04-.09-1.22l1.13-3.9c.48.1.96-.36.73-.98-.41-.56-1.1-.36-1.25.14-.1.34.08.68.4.8l-1.13 3.9a.66.66 0 0 0-.76.47c-.15.5.33 1.04.97.79M3.47 24.96c-.5.44-.29 1.07.18 1.21l-.83 3.97c-.49-.05-.93.43-.65 1.04.45.52 1.12.27 1.23-.24a.66.66 0 0 0-.45-.77l.83-3.97c.34.04.65-.19.72-.52.11-.52-.4-1.02-1.03-.72m14.73 29.9c.64.2 1.06-.3.94-.78l3.83-1.35c.2.45.85.57 1.22.02.22-.66-.35-1.1-.84-.93a.66.66 0 0 0-.42.79l-3.83 1.35a.66.66 0 0 0-.82-.35c-.5.17-.66.87-.08 1.25M5.95 52.64c.64.15 1.03-.38.88-.85l3.73-1.6c.24.44.9.53 1.23-.05.17-.67-.42-1.08-.9-.87a.66.66 0 0 0-.38.81l-3.73 1.6a.66.66 0 0 0-.84-.3c-.48.2-.6.92 0 1.26"/><path d="M8.96 21.96c.65-.15.77-.8.43-1.15l2.64-3.07c.4.28 1.03.07 1.08-.6-.14-.67-.85-.78-1.2-.38-.22.26-.2.65.03.9l-2.65 3.06a.66.66 0 0 0-.89.11c-.34.4-.13 1.09.56 1.13m-1.48 12.9c.53.39 1.1.05 1.14-.44h4.06c.05.5.61.83 1.15.43.42-.55.04-1.16-.49-1.16a.66.66 0 0 0-.66.6H8.62a.66.66 0 0 0-.66-.6c-.52 0-.9.61-.48 1.16m12.58-22.37c-.54-.39-1.1-.04-1.13.45l-4.06.08c-.05-.49-.63-.81-1.15-.4-.41.55-.02 1.15.5 1.14.35 0 .63-.27.65-.61l4.06-.08c.04.33.32.6.67.59.53-.01.9-.63.46-1.17m-4.8 38.71c-.14-.64-.79-.76-1.14-.42l-3.07-2.65c.28-.4.07-1.03-.59-1.08-.68.14-.79.85-.39 1.2.26.22.65.2.9-.03l3.06 2.65c-.2.28-.15.67.1.9.4.34 1.1.13 1.13-.57M.62 35.8c.53.4 1.1.07 1.15-.42h4.05c.05.49.62.83 1.15.43.42-.55.04-1.16-.48-1.16a.66.66 0 0 0-.67.6H1.77a.66.66 0 0 0-.66-.6c-.53 0-.91.6-.49 1.16m15.94 8.93c-.1-.66-.73-.83-1.11-.52l-2.85-2.89c.32-.37.16-1.01-.5-1.11-.69.08-.85.78-.48 1.15.24.25.63.27.9.05l2.84 2.9a.66.66 0 0 0 .03.89c.37.37 1.07.22 1.17-.47M8.29 43.6c-.54-.4-1.1-.06-1.15.43H3.08c-.04-.49-.61-.83-1.14-.43-.43.55-.04 1.16.48 1.16.35 0 .63-.27.66-.6h4.06c.03.33.31.6.66.6.53 0 .9-.6.49-1.16M3.16 31.4c.53.4 1.1.05 1.15-.43h4.05c.05.48.62.82 1.15.42.42-.55.04-1.15-.49-1.15a.66.66 0 0 0-.66.6H4.31a.66.66 0 0 0-.66-.6c-.53 0-.91.6-.49 1.15M17.7 19.2c-.56.36-.45 1-.02 1.23l-1.47 3.78c-.47-.14-.99.27-.81.91.36.6 1.06.46 1.25-.03a.66.66 0 0 0-.32-.84l1.47-3.78c.33.1.68-.07.8-.4.2-.48-.23-1.06-.9-.87M8.01 50.83c.07.66.7.85 1.09.55l2.74 3c-.33.36-.2 1 .46 1.13.69-.06.88-.75.52-1.14a.66.66 0 0 0-.89-.08l-2.74-3a.66.66 0 0 0 0-.89c-.35-.38-1.06-.26-1.18.43M.64 11.58c.66-.07.85-.7.55-1.1l2.98-2.74c.37.32 1.02.19 1.14-.47-.07-.69-.76-.87-1.15-.52a.66.66 0 0 0-.07.9L1.1 10.4a.66.66 0 0 0-.9 0c-.38.36-.25 1.06.43 1.18"/><path d="M14.56 42.1c.04.66.66.88 1.07.6l2.62 3.1c-.35.34-.24 1 .41 1.14.7-.03.91-.71.57-1.12a.66.66 0 0 0-.89-.1l-2.62-3.1a.66.66 0 0 0 .04-.9c-.34-.4-1.05-.3-1.2.38m-2.95-16.14c-.32.58.1 1.1.59 1.07l.57 4.01c-.48.12-.73.73-.26 1.2.6.34 1.15-.13 1.08-.65a.66.66 0 0 0-.7-.56L12.33 27c.33-.08.55-.4.5-.74-.07-.52-.73-.81-1.21-.31M8.05 8.92c.18.64.84.71 1.17.35l3.24 2.44c-.26.42 0 1.03.66 1.03.66-.18.72-.9.3-1.21a.66.66 0 0 0-.89.08L9.3 9.17a.66.66 0 0 0-.17-.88c-.42-.32-1.09-.06-1.08.63m6.5-8.7c-.36.55.02 1.1.5 1.11l.28 4.05c-.48.08-.78.67-.34 1.17.57.38 1.15-.04 1.12-.57a.66.66 0 0 0-.65-.61l-.28-4.05a.66.66 0 0 0 .56-.7c-.04-.52-.67-.86-1.19-.4m-5.5 14.6c-.6-.3-1.1.14-1.05.62l-4 .74c-.13-.48-.75-.7-1.2-.22-.32.62.17 1.15.68 1.05a.66.66 0 0 0 .54-.7l4-.74c.08.33.4.54.75.47.52-.1.78-.76.27-1.22m3 4.38c.65.1 1-.46.81-.91l3.6-1.87c.27.41.93.45 1.22-.15.12-.68-.5-1.05-.97-.8a.66.66 0 0 0-.3.84l-3.6 1.87a.66.66 0 0 0-.87-.24c-.47.25-.53.96.1 1.26M14 44.05c.25-.62-.23-1.08-.71-1l-1.07-3.9c.46-.18.63-.82.1-1.23-.64-.26-1.12.27-.98.78.09.33.42.53.75.48l1.08 3.9a.66.66 0 0 0-.41.8c.14.51.83.72 1.24.17"/><path d="M5.5 27.42c.58.31 1.1-.1 1.07-.6l4-.62c.13.48.74.73 1.2.25.34-.6-.13-1.15-.65-1.07a.66.66 0 0 0-.56.7l-4.01.61a.66.66 0 0 0-.75-.5c-.52.09-.8.75-.3 1.23m1.16-4.72c.64.18 1.05-.34.91-.82l3.78-1.48c.22.44.87.54 1.22-.02.2-.67-.39-1.1-.88-.9a.66.66 0 0 0-.39.8l-3.77 1.49a.66.66 0 0 0-.84-.32c-.49.19-.62.9-.03 1.25M4.35 49.95c.58-.32.5-.98.08-1.22l1.66-3.7c.46.15 1-.23.86-.87-.33-.61-1.04-.51-1.26-.03a.66.66 0 0 0 .28.85l-1.66 3.7a.66.66 0 0 0-.82.35c-.21.48.18 1.08.86.92M15.93 45c.53.4 1.1.06 1.14-.43h4.06c.05.5.61.83 1.15.43.42-.55.04-1.16-.49-1.16a.66.66 0 0 0-.66.6h-4.06a.66.66 0 0 0-.66-.6c-.52 0-.9.61-.48 1.16M2.6 38.58c.46.48 1.07.24 1.2-.24l4 .66c-.03.5.47.91 1.06.6.5-.47.23-1.13-.29-1.21a.66.66 0 0 0-.75.49l-4-.66a.66.66 0 0 0-.56-.7c-.51-.09-1 .45-.66 1.06"/><path d="M12.29 20.87c.53.4 1.1.06 1.14-.43h4.06c.05.49.61.83 1.15.43.42-.55.03-1.16-.5-1.16a.66.66 0 0 0-.65.6h-4.06a.66.66 0 0 0-.66-.6c-.52 0-.9.6-.48 1.16m4.83 4.45c-.66 0-.91.61-.65 1.03l-3.23 2.46c-.33-.36-.99-.28-1.17.35 0 .7.67.95 1.09.63.27-.2.34-.6.16-.88l3.22-2.46c.23.25.62.3.9.08.41-.32.35-1.03-.32-1.21m-8.89-19c.54.4 1.1.07 1.15-.42h4.06c.04.49.61.82 1.14.43.43-.55.04-1.16-.48-1.16a.66.66 0 0 0-.66.6H9.38a.66.66 0 0 0-.66-.6c-.52 0-.9.6-.49 1.16M14.63 30c-.54.38-.39 1.03.07 1.22l-1.2 3.87c-.49-.1-.98.34-.76.97.4.56 1.1.38 1.25-.12a.66.66 0 0 0-.38-.81l1.2-3.88c.34.07.68-.12.78-.45.16-.5-.3-1.04-.96-.8m-4.42 14.58c-.2-.64-.86-.7-1.18-.33l-3.29-2.37c.25-.43-.01-1.03-.67-1.02-.67.2-.72.91-.29 1.22.28.2.66.15.89-.1l3.29 2.38c-.18.29-.1.67.18.87.42.31 1.09.04 1.07-.65m1.91-28.8c.67-.02.9-.63.63-1.04l3.16-2.55c.34.36 1 .26 1.16-.38-.01-.7-.7-.93-1.1-.6a.66.66 0 0 0-.14.89l-3.16 2.54a.66.66 0 0 0-.9-.06c-.4.33-.32 1.04.35 1.2"/><path d="M13.72 24.1c.25.61.9.62 1.2.23l3.47 2.1c-.21.44.1 1.02.76.96.65-.25.63-.97.18-1.24a.67.67 0 0 0-.87.17l-3.47-2.1a.66.66 0 0 0-.25-.86c-.45-.27-1.1.05-1.02.74m-5.68-2.77c-.6.27-.59.93-.18 1.21l-1.99 3.54c-.45-.2-1.02.13-.93.8.27.63.99.6 1.25.13a.66.66 0 0 0-.2-.87l1.98-3.54c.3.14.68.03.85-.28.25-.45-.09-1.09-.78-.99M19.1 5.13c-.6-.29-1.1.16-1.04.65l-3.97.83c-.14-.47-.77-.68-1.2-.18-.3.63.2 1.14.7 1.03a.66.66 0 0 0 .53-.72l3.97-.84c.1.32.43.53.77.45.51-.1.76-.78.24-1.23M12.5 35.5c.54.4 1.1.06 1.15-.42h4.06c.04.48.61.82 1.14.42.43-.55.04-1.15-.48-1.15a.66.66 0 0 0-.66.6h-4.06a.66.66 0 0 0-.66-.6c-.53 0-.9.6-.49 1.15"/><path d="M1.74 22.44c.16.64.82.73 1.16.38l3.17 2.52c-.26.41-.03 1.03.63 1.05.68-.17.76-.88.34-1.2a.67.67 0 0 0-.89.05l-3.17-2.52a.66.66 0 0 0-.14-.88c-.41-.33-1.1-.1-1.1.6m6.81-13.5c-.64-.18-1.04.35-.9.82l-3.76 1.51c-.23-.44-.88-.54-1.23.03-.18.67.4 1.09.88.9a.66.66 0 0 0 .4-.81L7.7 9.88c.15.3.51.44.83.31.5-.2.62-.9.02-1.25m7.42 25.46c-.64.17-.74.83-.38 1.17l-2.53 3.17c-.41-.27-1.03-.04-1.05.63.17.67.88.75 1.2.34a.66.66 0 0 0-.05-.9l2.53-3.16c.28.18.66.13.88-.14.33-.41.1-1.1-.6-1.1M15.2 50.6c.27.6.93.6 1.2.19l3.54 2c-.2.45.12 1.02.78.94.64-.27.6-.99.15-1.25a.66.66 0 0 0-.87.2l-3.53-2a.66.66 0 0 0-.28-.85c-.45-.26-1.09.08-.99.77m1.88-22.26c-.4.53-.06 1.1.43 1.15v4.05c-.5.05-.83.62-.43 1.15.55.42 1.16.04 1.16-.49a.66.66 0 0 0-.6-.66V29.5c.33-.04.6-.32.6-.66 0-.53-.61-.91-1.16-.49M4.03 15.89c.66 0 .93-.6.68-1.02L8 12.5c.32.36.98.3 1.18-.33.02-.7-.65-.96-1.08-.65a.66.66 0 0 0-.18.87l-3.29 2.38a.66.66 0 0 0-.89-.1c-.42.3-.38 1.02.29 1.22M5.7 53.34c-.12.66.43 1.02.89.85l1.76 3.65c-.42.26-.48.92.11 1.22.68.14 1.06-.47.83-.94a.66.66 0 0 0-.83-.33L6.7 54.14c.3-.18.4-.55.26-.86-.23-.47-.94-.56-1.26.06M22.3 52c.04-.66-.55-.95-.98-.73l-2.2-3.4c.38-.3.35-.96-.27-1.2-.7-.05-1 .6-.7 1.04.18.3.56.39.86.23l2.2 3.4a.66.66 0 0 0-.15.89c.29.44 1 .43 1.24-.23M9.1 46.17c.53.4 1.1.06 1.14-.43h4.06c.04.49.61.83 1.14.43.43-.55.04-1.16-.48-1.16a.66.66 0 0 0-.66.6h-4.06a.66.66 0 0 0-.66-.6c-.52 0-.9.6-.49 1.16m-4.76 2.12c.53.4 1.1.06 1.15-.43h4.05c.05.5.62.83 1.15.43.42-.55.04-1.16-.49-1.16a.66.66 0 0 0-.66.6H5.48a.66.66 0 0 0-.66-.6c-.53 0-.91.61-.49 1.16M2.84 35.64c.6-.29.56-.95.15-1.21l1.86-3.6c.46.17 1.02-.18.9-.83-.29-.63-1-.57-1.25-.1-.16.3-.05.68.24.86l-1.86 3.6a.66.66 0 0 0-.84.32c-.24.46.12 1.08.8.96"/><path d="M20.78 50.33c-.33-.57-.99-.48-1.22-.05l-3.74-1.56c.14-.47-.25-1-.9-.84-.6.35-.48 1.06 0 1.26.33.13.69 0 .85-.3l3.74 1.56c-.1.32.06.68.38.81.48.2 1.07-.21.9-.88m-8.67-19.4c.53.39 1.1.05 1.14-.44h4.06c.05.5.61.83 1.15.43.42-.55.04-1.16-.49-1.16a.66.66 0 0 0-.66.6h-4.06a.66.66 0 0 0-.66-.6c-.52 0-.9.61-.48 1.16M5.63 41.25c.1-.66-.47-1-.92-.8l-1.94-3.56c.4-.28.43-.94-.18-1.21-.68-.11-1.03.51-.78.98.17.3.53.42.85.29L4.6 40.5a.66.66 0 0 0-.22.87c.25.46.97.5 1.25-.13m8.04 14.34c-.47-.47-1.08-.23-1.2.25l-4-.62c.02-.5-.49-.91-1.08-.6-.5.48-.21 1.14.3 1.22.35.05.67-.17.75-.5l4.01.62c-.02.34.22.65.56.7.52.08 1-.46.66-1.07m1.7-53.45c-.66 0-.92.6-.67 1.02l-3.27 2.4c-.33-.37-.98-.3-1.18.33-.01.7.65.96 1.08.65.28-.2.35-.59.17-.88l3.28-2.4c.22.26.6.3.89.1.42-.31.37-1.03-.3-1.22"/><path d="M11.8 51.86c-.2.63.32 1.05.8.93l1.38 3.8c-.44.22-.56.87 0 1.23.65.2 1.1-.36.91-.85a.66.66 0 0 0-.79-.42l-1.39-3.8c.3-.15.46-.5.34-.83-.18-.5-.88-.65-1.25-.06m.58-34.4c.02-.67-.58-.94-1-.7l-2.34-3.32c.37-.32.32-.97-.31-1.18-.7-.03-.97.63-.67 1.06.2.29.58.37.88.2l2.33 3.31a.66.66 0 0 0-.11.9c.3.42 1.02.39 1.22-.28M9.52 35.34c-.59-.31-1.1.11-1.06.6l-4 .65c-.13-.47-.74-.72-1.2-.24-.34.61.14 1.15.66 1.07a.66.66 0 0 0 .55-.7l4-.65c.1.33.41.54.76.49.51-.09.8-.75.29-1.22m1.65-12.7c.44.5 1.07.28 1.21-.2l3.97.83c-.05.48.44.93 1.04.65.52-.46.27-1.13-.24-1.24a.66.66 0 0 0-.77.46l-3.97-.82a.66.66 0 0 0-.53-.72c-.51-.1-1.01.41-.7 1.04"/><path d="M9.53 36.98c.62.23 1.07-.25.97-.73l3.9-1.16c.18.46.82.62 1.21.09.25-.65-.29-1.12-.8-.97a.66.66 0 0 0-.45.76l-3.9 1.16a.66.66 0 0 0-.8-.4c-.5.15-.7.85-.13 1.25M7.58 19.31c-.66.1-.82.73-.51 1.11L4.2 23.29c-.38-.31-1.02-.15-1.11.5.09.7.79.85 1.16.48a.66.66 0 0 0 .04-.9l2.87-2.86c.26.22.65.2.9-.04.36-.37.2-1.07-.48-1.16"/></g></svg>