<svg xmlns="http://www.w3.org/2000/svg" xml:space="preserve" viewBox="0 0 37.6 58.99"><g fill="#231f20"><path d="M12.33 58.88c.48-.46.23-1.07-.24-1.2l.65-4c.5.03.92-.48.61-1.06-.48-.51-1.14-.23-1.22.29-.06.34.16.66.49.75l-.66 4a.66.66 0 0 0-.7.55c-.08.52.46 1 1.07.67m9.27-2.67c.57-.34.48-1 .04-1.22l1.54-3.76c.47.15 1-.25.83-.9-.35-.6-1.05-.47-1.25.02-.13.32 0 .68.3.84l-1.54 3.75a.66.66 0 0 0-.8.38c-.2.49.21 1.07.88.89m4.12 1c.57-.34.48-1 .05-1.23l1.56-3.74c.47.14 1-.25.84-.9-.35-.6-1.05-.48-1.26 0-.13.33 0 .69.3.85l-1.56 3.74a.66.66 0 0 0-.81.38c-.2.48.21 1.07.88.9"/><path d="M21.65 58.56c.4-.53.06-1.1-.43-1.14v-4.06c.5-.05.83-.61.43-1.15-.55-.42-1.16-.03-1.16.5 0 .34.27.62.6.65v4.06a.66.66 0 0 0-.6.66c0 .52.61.9 1.16.48m-7.6-6.04c.17.65.83.74 1.17.39l3.16 2.54c-.27.4-.04 1.03.63 1.05.67-.16.75-.88.34-1.2a.66.66 0 0 0-.89.05l-3.16-2.54a.66.66 0 0 0-.14-.88c-.4-.33-1.09-.1-1.1.6"/><path d="M11.24 54.5c.53.4 1.1.07 1.15-.42h4.05c.05.49.62.82 1.15.43.42-.55.04-1.16-.49-1.16a.66.66 0 0 0-.66.6H12.4a.66.66 0 0 0-.66-.6c-.53 0-.91.6-.49 1.16m15.51.62c.06-.66-.52-.96-.96-.74l-2.14-3.45c.39-.3.37-.96-.25-1.2-.69-.07-1 .58-.72 1.02.18.3.55.4.86.25l2.14 3.44a.66.66 0 0 0-.17.88c.28.45 1 .45 1.24-.2M16.7.01c-.6.28-.58.94-.17 1.21L14.6 4.8c-.45-.2-1.02.15-.92.8.28.64 1 .59 1.25.13a.66.66 0 0 0-.22-.87l1.93-3.57c.32.14.68.02.85-.29.25-.46-.1-1.09-.79-.98"/><path d="M16.33 6.87c0-.66-.6-.92-1.02-.66l-2.42-3.25c.36-.33.29-1-.35-1.18-.7-.01-.95.66-.64 1.08.21.28.6.35.88.17l2.42 3.25a.67.67 0 0 0-.08.9c.3.42 1.03.36 1.21-.3m8.22-3.7c-.66.09-.84.72-.53 1.1l-2.95 2.8c-.37-.32-1-.17-1.12.48.07.69.77.87 1.15.5a.66.66 0 0 0 .06-.89l2.94-2.79c.26.22.65.22.9-.02.38-.36.24-1.06-.45-1.17"/><path d="M8.2 6.73c.6.29 1.09-.16 1.03-.65l3.98-.82c.14.47.76.68 1.2.19.3-.63-.2-1.15-.7-1.04a.66.66 0 0 0-.53.72l-3.97.83a.66.66 0 0 0-.77-.46c-.52.1-.77.78-.24 1.23"/><path d="M11.81 3.3c-.35.55.02 1.1.51 1.1l.3 4.05c-.48.08-.78.67-.34 1.17.58.38 1.15-.04 1.12-.57a.66.66 0 0 0-.65-.61l-.3-4.05a.66.66 0 0 0 .55-.7c-.04-.52-.67-.86-1.19-.4"/><path d="M7.33 9.64c.65.1 1-.46.81-.91l3.59-1.9c.27.41.93.45 1.21-.15.12-.69-.5-1.05-.97-.8a.66.66 0 0 0-.3.84l-3.59 1.9a.66.66 0 0 0-.86-.23c-.47.25-.52.96.1 1.25m10.73-3.46c-.62-.25-1.08.22-1 .7l-3.91 1.07c-.18-.46-.81-.64-1.22-.12-.27.64.26 1.13.77 1a.66.66 0 0 0 .48-.76L17.09 7c.12.32.46.5.8.41.5-.14.71-.82.16-1.24m4.97-1.64c.02.66.63.9 1.04.63l2.5 3.2c-.35.33-.26.99.38 1.16.7 0 .94-.69.61-1.1a.66.66 0 0 0-.88-.15l-2.5-3.18a.66.66 0 0 0 .06-.9c-.32-.4-1.04-.34-1.21.34"/><path d="M19.85 5.87c-.66.05-.87.67-.59 1.07l-3.08 2.64c-.35-.34-1-.23-1.15.42.04.7.72.9 1.12.57.27-.23.3-.61.11-.9l3.08-2.63c.25.24.63.25.9.03.4-.34.3-1.05-.39-1.2m5.48-.94c.2.64.85.7 1.18.33l3.28 2.38c-.25.42.01 1.03.68 1.02.66-.2.71-.91.29-1.22a.66.66 0 0 0-.9.1l-3.28-2.38c.18-.3.1-.68-.18-.88-.42-.3-1.09-.04-1.07.65m-.21 5.54c.05-.67-.54-.97-.97-.75l-2.16-3.44c.4-.3.38-.96-.24-1.2-.7-.06-1 .59-.73 1.03.19.3.56.4.87.24l2.15 3.44a.66.66 0 0 0-.16.88c.28.44 1 .45 1.24-.2m-11.7-.65c-.57-.35-1.1.05-1.1.54l-4.03.4c-.1-.49-.7-.77-1.19-.32-.36.59.08 1.16.6 1.1.35-.03.6-.32.6-.66l4.04-.4c.06.34.37.57.71.54.52-.05.85-.7.37-1.2M31.08 46.1c-.04-.67-.67-.88-1.07-.6l-2.62-3.1c.34-.35.23-1-.42-1.15-.7.04-.9.72-.57 1.12.23.27.61.31.89.12l2.62 3.09a.66.66 0 0 0-.03.9c.34.4 1.05.3 1.2-.38m-17.43 2.48c-.66.02-.9.63-.64 1.04l-3.2 2.5c-.34-.36-1-.28-1.17.36 0 .7.68.94 1.1.62.27-.22.33-.6.15-.88l3.2-2.5c.23.25.62.29.9.08.4-.33.34-1.04-.34-1.22"/><path d="M27.4 7.37c.12-.65-.44-1.01-.9-.84L24.71 2.9c.42-.26.47-.92-.12-1.22-.68-.14-1.06.47-.82.95.15.3.51.44.83.32l1.79 3.64a.66.66 0 0 0-.25.86c.23.47.95.55 1.25-.08m2.71 34.17c.4-.53.06-1.1-.43-1.14l-.03-4.06c.5-.05.83-.62.42-1.14-.55-.42-1.15-.04-1.15.49 0 .34.27.62.6.65l.03 4.06a.67.67 0 0 0-.6.66c0 .53.61.9 1.16.48m-6.99-.81c.4-.53.06-1.1-.43-1.15v-4.06c.5-.04.83-.61.43-1.14-.55-.42-1.16-.04-1.16.48 0 .35.27.63.6.66v4.06a.66.66 0 0 0-.6.66c0 .53.61.91 1.16.49m-.94 5.07c.66.12 1.02-.43.84-.89l3.64-1.79c.26.42.92.47 1.22-.12.13-.68-.48-1.06-.95-.82a.66.66 0 0 0-.32.83l-3.64 1.79a.66.66 0 0 0-.86-.25c-.47.23-.55.95.07 1.25M8.27 14.95c-.33-.58-.98-.51-1.23-.09l-3.68-1.7c.16-.46-.21-1-.86-.86-.62.32-.52 1.03-.05 1.25.32.15.68.02.85-.27l3.7 1.7c-.11.32.03.68.35.82.47.22 1.08-.17.92-.85m11.63-9c-.23-.62-.89-.64-1.2-.26l-3.4-2.18c.21-.44-.08-1.03-.74-.98-.66.24-.66.96-.22 1.24.3.19.67.11.88-.15l3.42 2.18c-.15.3-.06.68.23.86.44.29 1.1-.02 1.03-.7"/><path d="M27.64 42.16c.54.4 1.1.06 1.15-.42h4.06c.04.48.61.82 1.14.42.42-.55.04-1.15-.48-1.15a.66.66 0 0 0-.66.6h-4.06a.66.66 0 0 0-.66-.6c-.53 0-.9.6-.49 1.15M7.51 38.4c-.47.47-.21 1.08.26 1.2l-.57 4c-.49-.02-.9.49-.59 1.07.49.5 1.14.2 1.22-.31a.66.66 0 0 0-.5-.74l.58-4.02c.34.02.64-.22.7-.56.07-.52-.48-.99-1.09-.65m.46-19.36c-.64-.19-1.05.33-.92.8l-3.8 1.44c-.2-.44-.86-.55-1.21 0-.2.67.37 1.1.86.92.32-.13.5-.47.4-.8l3.8-1.44c.15.3.5.46.83.33.49-.18.63-.89.04-1.25m-3.74-4.36c.13.65.78.78 1.14.45l3.02 2.7c-.3.4-.1 1.03.57 1.1.68-.14.8-.84.4-1.2a.66.66 0 0 0-.88.01l-3.02-2.7a.66.66 0 0 0-.1-.9c-.38-.35-1.07-.15-1.13.54m2.12 11.14c-.37-.55-1.01-.43-1.22.02L1.3 24.47c.12-.48-.3-.99-.93-.8-.59.38-.43 1.08.06 1.26.33.12.68-.04.83-.34l3.81 1.36c-.08.33.1.68.42.8.5.17 1.06-.27.85-.93m25.3-.17c.64.17 1.05-.35.91-.82l3.78-1.48c.22.44.87.55 1.22-.02.2-.67-.38-1.1-.87-.9a.66.66 0 0 0-.4.8l-3.77 1.48a.66.66 0 0 0-.84-.32c-.49.2-.62.9-.03 1.26m-4.8-22.82c-.53-.4-1.1-.06-1.15.43h-4.05c-.05-.49-.62-.82-1.15-.43C20.08 3.4 20.46 4 21 4c.34 0 .63-.26.66-.6h4.05c.04.34.32.6.66.6.53 0 .91-.6.49-1.16m-8 9.88c.1-.65-.47-1-.92-.8l-1.9-3.6c.41-.26.44-.92-.16-1.2-.68-.12-1.04.5-.8.97.17.3.53.43.85.3l1.9 3.58a.66.66 0 0 0-.23.87c.25.46.97.52 1.25-.12m8.64 12.83c-.05-.66-.68-.87-1.08-.58l-2.68-3.04c.33-.36.21-1-.44-1.14-.7.04-.9.73-.55 1.13.23.26.62.3.9.1l2.68 3.04a.66.66 0 0 0-.02.89c.35.4 1.06.28 1.19-.4M2.08 39.43c.64.16 1.03-.36.9-.83l3.74-1.55c.23.44.88.53 1.22-.04.19-.67-.4-1.09-.89-.89a.66.66 0 0 0-.38.81l-3.75 1.55a.66.66 0 0 0-.84-.3c-.48.2-.6.9 0 1.25"/><path d="M15.56 4.24c.62.24 1.07-.23.99-.72l3.9-1.09c.18.46.82.63 1.22.1.26-.64-.27-1.12-.78-.98a.66.66 0 0 0-.47.76l-3.9 1.1a.66.66 0 0 0-.8-.41c-.51.14-.72.83-.16 1.24m13.03 6.38c.2-.64-.3-1.06-.78-.95l-1.33-3.83c.44-.2.58-.85.03-1.22-.66-.22-1.11.34-.94.84.12.33.46.5.79.43l1.33 3.83c-.3.14-.47.5-.35.82.17.5.87.66 1.25.08"/><path d="M22.58 9.94c.53.4 1.1.06 1.15-.43h4.05c.05.49.62.82 1.15.43.42-.55.04-1.16-.49-1.16a.66.66 0 0 0-.66.6h-4.05a.66.66 0 0 0-.66-.6c-.53 0-.91.6-.49 1.16m5.4 16.05c-.54-.4-1.1-.06-1.15.43h-4.06c-.04-.49-.61-.83-1.14-.43-.42.55-.04 1.16.48 1.16.35 0 .63-.27.66-.6h4.06c.03.33.31.6.66.6.53 0 .9-.6.49-1.16M9.35 29.61c-.64-.17-1.04.35-.9.82l-3.77 1.5c-.23-.43-.88-.54-1.23.03-.18.67.4 1.09.88.9a.66.66 0 0 0 .4-.81l3.76-1.5c.16.3.52.44.84.31.49-.19.62-.9.02-1.25"/><path d="M25.14 8.6c.2.63.85.7 1.18.34l3.25 2.42c-.26.42 0 1.03.66 1.03.67-.19.73-.9.3-1.22a.66.66 0 0 0-.89.09L26.4 8.83a.66.66 0 0 0-.16-.87c-.43-.32-1.1-.06-1.09.63m4.28 41.02c.4-.52.09-1.1-.4-1.15l.1-4.06c.5-.03.85-.59.47-1.13-.54-.44-1.16-.07-1.18.45 0 .35.25.64.59.68l-.1 4.05a.66.66 0 0 0-.63.65c-.01.52.59.92 1.15.51M2.84 30.41c.63-.21.67-.87.3-1.18l2.29-3.35c.43.24 1.03-.04 1-.7-.22-.66-.94-.7-1.23-.26-.2.29-.14.67.12.89l-2.29 3.34a.66.66 0 0 0-.87.2c-.3.44-.01 1.1.68 1.06m8.39 15.42c.2-.63-.31-1.05-.79-.93l-1.36-3.82c.45-.21.57-.86.02-1.23-.66-.21-1.1.35-.93.85.12.32.46.5.8.42l1.35 3.82c-.3.14-.46.5-.34.82.17.5.87.66 1.25.07m13.67-4.62c.65.1 1-.45.82-.9l3.6-1.87c.27.41.93.45 1.22-.14.12-.69-.5-1.05-.96-.81a.66.66 0 0 0-.31.84l-3.6 1.86a.66.66 0 0 0-.87-.23c-.47.24-.53.95.1 1.25m11.92-23.27c-.18-.64-.83-.72-1.17-.36l-3.21-2.47c.26-.41.01-1.03-.65-1.04-.67.18-.74.9-.32 1.22.28.21.66.17.9-.08l3.2 2.47a.66.66 0 0 0 .16.89c.42.32 1.1.07 1.1-.63m-23.6 19.43c-.09.66.48 1 .93.8l1.94 3.57c-.4.27-.43.93.17 1.2.69.12 1.04-.51.79-.97a.66.66 0 0 0-.85-.3l-1.94-3.56a.66.66 0 0 0 .22-.86c-.25-.47-.97-.51-1.25.12M21 27.16c.65-.13.78-.77.45-1.14l2.74-3c.4.3 1.03.11 1.1-.55-.13-.68-.84-.8-1.2-.42a.66.66 0 0 0 0 .9l-2.73 2.99a.66.66 0 0 0-.9.08c-.35.38-.16 1.08.54 1.14"/><path d="M10.85 39.06c-.51-.43-1.1-.13-1.17.35l-4.05-.24c-.02-.49-.57-.86-1.12-.49-.46.52-.1 1.15.42 1.18.34.02.64-.22.7-.56l4.04.24c.01.34.28.62.62.64.53.03.95-.55.56-1.12M22.1 45.9c-.04.66.55.96.98.73l2.2 3.41c-.38.3-.36.96.26 1.2.7.05 1-.6.71-1.04a.66.66 0 0 0-.86-.23l-2.2-3.4c.27-.22.34-.6.15-.89-.29-.44-1-.43-1.24.22M6.85 11.7c.6-.28.58-.94.17-1.21l1.94-3.56c.45.19 1.02-.15.92-.8-.28-.64-1-.6-1.25-.13-.16.3-.06.67.22.87L6.9 10.42a.66.66 0 0 0-.85.29c-.25.46.1 1.09.79.98m27.11 27.96c.5-.43.29-1.06-.18-1.2l.83-3.97c.5.05.94-.44.66-1.04-.45-.53-1.13-.28-1.23.24-.08.34.13.67.45.77l-.84 3.97a.66.66 0 0 0-.72.52c-.11.51.4 1.01 1.03.71M13.86 27.3c-.65-.13-1.02.42-.85.88l-3.66 1.76c-.25-.43-.9-.48-1.21.1-.15.68.46 1.07.94.84a.66.66 0 0 0 .33-.83l3.66-1.75c.17.29.54.4.85.25.48-.22.56-.94-.06-1.25"/><path d="M7.14 36.26c.58-.33.5-.98.07-1.22l1.62-3.72c.47.16 1-.23.85-.88-.34-.6-1.05-.5-1.26-.01-.13.31 0 .68.3.84L7.08 35a.66.66 0 0 0-.82.36c-.2.48.2 1.08.87.91m15.78-14.03c-.65-.13-1.02.41-.85.88l-3.67 1.73c-.25-.43-.9-.49-1.22.1-.15.68.46 1.06.94.84.3-.15.45-.51.33-.83l3.67-1.73c.18.3.54.41.86.26.47-.22.56-.93-.06-1.25m-18.18-6.3c.67 0 .92-.6.67-1.02l3.25-2.42c.33.36.99.3 1.18-.35 0-.69-.66-.95-1.09-.63a.66.66 0 0 0-.17.87l-3.25 2.43a.66.66 0 0 0-.89-.1c-.42.32-.37 1.04.3 1.22M2.86 26.41c.66.05.96-.54.74-.98l3.43-2.17c.3.4.96.37 1.2-.25.06-.69-.59-1-1.03-.72a.66.66 0 0 0-.24.87l-3.43 2.16a.66.66 0 0 0-.88-.15c-.44.28-.44 1 .21 1.24"/><path d="M.8 21.14c.24.62.9.64 1.2.25l3.43 2.16c-.22.44.08 1.03.74.97.66-.24.65-.96.21-1.24a.66.66 0 0 0-.88.16l-3.43-2.16a.66.66 0 0 0-.24-.86c-.45-.28-1.1.03-1.03.72m30.58-5.52c.6-.26.6-.91.2-1.2l2.04-3.5c.45.2 1.03-.12.95-.78-.26-.64-.98-.62-1.25-.16-.17.3-.08.67.2.87l-2.05 3.5a.66.66 0 0 0-.85.27c-.26.46.07 1.1.76 1M20.55 39.07c-.35-.56-1-.45-1.22 0l-3.8-1.45c.14-.47-.27-.99-.91-.8-.6.36-.45 1.06.04 1.25.32.12.68-.03.83-.33l3.8 1.44c-.1.33.07.68.4.8.49.19 1.06-.24.86-.9m3.5-6.8c-.67-.06-.98.53-.76.97l-3.45 2.13c-.3-.4-.96-.38-1.2.24-.07.69.58 1 1.02.73.3-.19.4-.56.25-.86l3.45-2.14c.2.27.58.35.88.17.44-.28.45-1-.2-1.24"/><path d="M19.6 40.54c.45-.49.17-1.08-.3-1.18l.42-4.04c.49 0 .88-.52.54-1.1-.5-.47-1.14-.15-1.2.37-.03.35.2.65.53.72l-.42 4.03a.66.66 0 0 0-.67.6c-.06.52.5.96 1.1.6m-9.58 2.3c.5-.44.29-1.07-.18-1.22l.86-3.96c.48.06.93-.43.66-1.03-.45-.53-1.13-.28-1.24.23-.07.34.13.67.45.77l-.85 3.97a.66.66 0 0 0-.73.51c-.11.52.4 1.02 1.03.72m.2-20c.53.4 1.1.07 1.15-.42h4.05c.05.49.62.82 1.15.43.42-.55.04-1.16-.49-1.16a.66.66 0 0 0-.66.6h-4.05a.66.66 0 0 0-.66-.6c-.53 0-.91.6-.49 1.16m23.96 6.58c.51-.42.32-1.06-.15-1.22l.96-3.94c.48.07.95-.4.69-1.01-.44-.54-1.12-.31-1.25.2-.08.33.11.67.44.78l-.96 3.94a.66.66 0 0 0-.74.5c-.13.51.37 1.03 1 .75m-15.23-2.7c-.25-.62-.9-.63-1.2-.24l-3.46-2.12c.21-.44-.1-1.02-.76-.96-.65.25-.64.97-.19 1.24.3.18.68.1.88-.17l3.46 2.12c-.15.3-.05.68.25.86.45.27 1.09-.05 1.02-.74M2.02 31.75c.66-.05.86-.68.57-1.08l3.03-2.7c.36.34 1 .21 1.14-.44-.05-.7-.74-.9-1.13-.54a.66.66 0 0 0-.1.89l-3.02 2.7a.66.66 0 0 0-.9-.01c-.39.35-.27 1.05.41 1.18m33.54-14.08c-.6.27-.59.93-.18 1.2l-1.98 3.54c-.45-.2-1.02.14-.93.8.27.63.99.6 1.24.14a.66.66 0 0 0-.2-.87l1.98-3.54c.31.13.68.02.85-.28.25-.46-.09-1.1-.78-1m-5.92 2.39c-.4.53-.06 1.1.43 1.14v4.06c-.49.04-.82.61-.43 1.14.55.43 1.16.04 1.16-.48a.66.66 0 0 0-.6-.66v-4.06c.34-.03.6-.31.6-.66 0-.52-.6-.9-1.16-.48m-15.85 26c-.27-.61-.93-.6-1.2-.2l-3.55-1.97c.2-.45-.13-1.02-.79-.94-.64.28-.6 1-.14 1.25.3.17.68.08.87-.2l3.54 1.98a.66.66 0 0 0 .28.85c.46.25 1.1-.09 1-.78M9.26 11.22c-.43.5-.14 1.1.35 1.17l-.27 4.05c-.49.02-.86.56-.5 1.12.52.46 1.15.11 1.19-.41a.66.66 0 0 0-.56-.7l.27-4.05a.66.66 0 0 0 .64-.62c.04-.52-.55-.94-1.12-.56M29.8 34.31c-.15-.65-.8-.75-1.15-.4l-3.12-2.6c.28-.4.06-1.03-.6-1.06-.68.15-.78.86-.37 1.2.26.22.65.2.9-.04l3.1 2.6a.67.67 0 0 0 .13.88c.4.33 1.09.11 1.11-.58M9.12 46.4c.13.65.78.78 1.14.45l3 2.72c-.28.4-.09 1.02.57 1.09.69-.13.8-.84.42-1.19a.66.66 0 0 0-.9 0l-3-2.71a.66.66 0 0 0-.1-.9c-.38-.34-1.07-.15-1.13.54M24.5 19.24c.4-.53.06-1.1-.43-1.14v-4.06c.49-.05.83-.61.43-1.14-.55-.43-1.16-.04-1.16.48 0 .35.27.63.6.66v4.06a.66.66 0 0 0-.6.66c0 .52.6.9 1.16.48m8.2 30.96c-.46-.5-1.08-.27-1.22.2l-3.98-.75c.05-.5-.45-.93-1.05-.64-.51.46-.25 1.13.27 1.23.34.06.66-.14.76-.47l3.98.76c-.03.34.2.65.54.72.51.1 1-.43.7-1.05M12.5 36.13c-.4.53-.06 1.1.43 1.14v4.06c-.49.05-.83.61-.43 1.15.55.42 1.16.04 1.16-.49a.66.66 0 0 0-.6-.66v-4.06c.33-.03.6-.3.6-.66 0-.52-.6-.9-1.16-.48m11.3-14.96c-.25-.62-.9-.62-1.2-.23l-3.47-2.1c.21-.44-.1-1.02-.76-.95-.65.25-.63.97-.18 1.24.3.18.67.1.87-.18l3.47 2.1c-.14.3-.04.68.26.86.45.27 1.09-.05 1.01-.74"/><path d="M33.61 25.93c-.2.63.32 1.05.8.93l1.36 3.82c-.45.21-.57.86-.02 1.23.66.2 1.1-.36.93-.85a.66.66 0 0 0-.8-.42l-1.36-3.82c.31-.14.46-.5.35-.82-.18-.5-.88-.66-1.26-.07M19.81 51.8c.67.05.96-.54.74-.97l3.42-2.2c.3.4.96.37 1.2-.25.05-.69-.6-1-1.04-.71a.66.66 0 0 0-.23.86l-3.42 2.19a.67.67 0 0 0-.88-.15c-.44.28-.44 1 .22 1.23M5.78 28.31c.48.46 1.08.2 1.19-.29l4.02.5c-.01.5.51.9 1.09.57.49-.5.18-1.15-.34-1.21a.66.66 0 0 0-.73.51l-4.03-.5a.66.66 0 0 0-.58-.67c-.52-.07-.97.49-.62 1.09m12.34-7.29c-.66-.08-.99.5-.78.95L13.83 24c-.29-.4-.95-.41-1.21.2-.1.69.55 1.02 1 .76.3-.17.41-.54.27-.85l3.51-2.03c.2.27.57.36.87.19.46-.26.49-.98-.15-1.25m14.24 15.8c.11-.66-.45-1.02-.9-.83l-1.85-3.62c.42-.26.46-.92-.14-1.21-.68-.13-1.05.49-.8.96.15.3.51.44.83.31l1.84 3.61a.66.66 0 0 0-.23.87c.24.46.95.53 1.25-.1m-13.05 1c-.53.4-.36 1.03.1 1.21l-1.14 3.9c-.49-.1-.97.36-.74.98.41.56 1.1.36 1.25-.14a.66.66 0 0 0-.4-.8l1.14-3.9c.34.06.67-.13.77-.46.15-.5-.33-1.05-.98-.8"/><path d="M30.16 51.88c-.19-.64-.85-.71-1.18-.35l-3.24-2.43c.25-.42 0-1.03-.67-1.03-.66.2-.72.9-.3 1.22.28.21.66.17.89-.09l3.25 2.43a.66.66 0 0 0 .16.88c.43.32 1.1.06 1.09-.63M1.25 17.16c.2.63.86.68 1.18.3l3.31 2.35c-.24.43.03 1.03.69 1.01.66-.2.7-.92.27-1.22a.66.66 0 0 0-.88.1L2.5 17.38a.68.68 0 0 0-.2-.88c-.42-.3-1.09-.03-1.06.67m28.11-9.28c-.06.67.53.97.97.75l2.13 3.45c-.39.3-.38.96.24 1.2.69.08 1-.57.73-1.02a.66.66 0 0 0-.86-.24l-2.13-3.45c.27-.2.35-.59.16-.88-.27-.45-1-.45-1.24.2M16.11 53.6c.67-.02.9-.63.63-1.05l3.18-2.52c.34.35 1 .26 1.16-.38-.01-.7-.69-.93-1.1-.6a.66.66 0 0 0-.14.88l-3.18 2.52a.66.66 0 0 0-.89-.06c-.41.33-.33 1.04.34 1.21m14.24-25.39c-.4.54-.06 1.1.43 1.15v4.06c-.49.04-.83.61-.43 1.14.55.43 1.16.04 1.16-.48a.66.66 0 0 0-.6-.66v-4.06c.34-.03.6-.31.6-.66 0-.52-.6-.9-1.16-.49m-5.77-14.14c-.53-.4-1.1-.06-1.14.43l-4.06.01c-.05-.48-.61-.82-1.15-.42-.42.55-.03 1.16.5 1.16.34 0 .62-.27.65-.6l4.06-.02c.03.34.32.6.66.6.53 0 .9-.61.48-1.16m-1.97 20.19c-.39-.54-1.03-.38-1.22.07l-3.88-1.19c.1-.48-.34-.96-.97-.74-.56.4-.37 1.1.13 1.25.33.1.68-.07.8-.38l3.89 1.18c-.07.34.12.67.45.77.5.16 1.05-.31.8-.96m4.13-10.87c-.44.5-.15 1.09.33 1.17l-.34 4.05c-.5 0-.87.54-.52 1.1.51.47 1.15.14 1.2-.39a.66.66 0 0 0-.55-.7l.34-4.05c.34 0 .62-.26.65-.6.05-.53-.53-.96-1.11-.58M8.6 33.83c-.56.36-.44 1 0 1.22l-1.4 3.8c-.48-.12-.99.3-.8.93.37.6 1.07.44 1.25-.05a.66.66 0 0 0-.33-.83l1.4-3.8c.33.08.68-.09.8-.42.18-.49-.26-1.06-.92-.85m8.94-29.36c.66.1 1-.47.8-.92l3.58-1.91c.28.4.93.43 1.22-.17.1-.68-.52-1.04-.98-.79a.66.66 0 0 0-.3.84L18.3 3.44a.66.66 0 0 0-.87-.22c-.46.25-.51.96.12 1.25m-3.56.55c-.56.35-.46 1-.02 1.22l-1.46 3.78c-.47-.13-1 .28-.81.92.36.59 1.06.45 1.25-.04a.66.66 0 0 0-.32-.83l1.46-3.78c.33.09.68-.08.8-.4.2-.5-.24-1.07-.9-.87m17.2 36.7c.6-.3.54-.95.12-1.2l1.78-3.65c.46.17 1.01-.19.9-.84-.32-.62-1.03-.55-1.26-.08a.66.66 0 0 0 .25.86l-1.78 3.65a.66.66 0 0 0-.84.32c-.23.48.15 1.09.83.95"/><path d="M20.33 9.8c.4-.54.06-1.1-.42-1.15V4.59c.48-.05.82-.61.42-1.15-.55-.42-1.15-.03-1.15.5 0 .34.26.62.6.65v4.06a.66.66 0 0 0-.6.66c0 .52.6.9 1.15.48m-1.62 36.43c-.53-.4-1.1-.06-1.14.43H13.5c-.04-.49-.61-.83-1.14-.43-.43.55-.04 1.16.48 1.16.35 0 .63-.27.66-.6h4.06c.03.33.31.6.66.6.52 0 .9-.6.48-1.16m10.72-27.74c-.64.14-.76.8-.42 1.14l-2.63 3.09c-.4-.29-1.03-.07-1.07.59.14.68.85.78 1.2.38a.66.66 0 0 0-.04-.9l2.64-3.07c.28.2.66.15.89-.11.34-.4.13-1.09-.57-1.12"/><path d="M29.43 16.46c-.4.54-.06 1.1.43 1.15v4.06c-.49.04-.83.61-.43 1.14.55.43 1.16.04 1.16-.48a.66.66 0 0 0-.6-.66V17.6c.33-.03.6-.31.6-.66 0-.53-.6-.9-1.16-.49m-6.7 6.36c.66-.03.88-.66.6-1.06l3.12-2.6c.35.35 1 .24 1.16-.4-.03-.7-.71-.92-1.12-.58a.66.66 0 0 0-.12.89l-3.12 2.6a.66.66 0 0 0-.89-.05c-.4.34-.3 1.05.37 1.2m3.85-13.36c.59.31 1.1-.1 1.07-.6l4.01-.6c.12.47.73.72 1.2.24.34-.6-.13-1.15-.65-1.07a.66.66 0 0 0-.57.7l-4 .6a.66.66 0 0 0-.75-.49c-.52.08-.8.74-.3 1.22M14.84 27.43c-.33-.57-.99-.48-1.22-.05l-3.74-1.56c.14-.47-.25-1-.9-.84-.6.35-.48 1.05 0 1.26.33.13.69 0 .85-.3l3.74 1.56c-.1.32.06.68.38.81.48.2 1.07-.2.9-.88m-4.5 17.1c.21.63.87.67 1.18.29l3.36 2.28c-.24.43.04 1.03.7 1 .66-.22.69-.94.25-1.23a.67.67 0 0 0-.88.12l-3.36-2.27a.66.66 0 0 0-.2-.87c-.44-.3-1.1-.01-1.06.68m21.67-24.84c-.18.64.34 1.05.81.92l1.47 3.78c-.44.22-.54.87.02 1.22.67.2 1.1-.39.9-.87a.66.66 0 0 0-.8-.4l-1.47-3.78c.3-.15.45-.51.32-.83-.19-.5-.9-.63-1.25-.04m-15.05-.14c.66.07.98-.5.77-.95l3.5-2.04c.3.4.95.4 1.21-.21.09-.69-.55-1.02-1-.76-.3.18-.4.55-.27.86l-3.5 2.04a.66.66 0 0 0-.87-.19c-.46.27-.48.99.16 1.25m8.27-7.12c-.13-.65-.78-.77-1.14-.44l-3.04-2.68c.3-.4.1-1.03-.57-1.09-.68.14-.8.85-.4 1.2.25.22.64.21.89-.02l3.04 2.69c-.2.27-.17.66.09.89.4.35 1.08.15 1.13-.55m-15.38.07c.38.54 1.02.4 1.22-.04l3.84 1.3c-.11.48.32.99.95.78.58-.38.41-1.08-.09-1.25a.66.66 0 0 0-.82.36l-3.84-1.31a.66.66 0 0 0-.43-.78c-.5-.17-1.05.28-.83.94"/><path d="M25.38 25.85c.66 0 .9-.62.64-1.04l3.2-2.5c.33.36.99.28 1.16-.36 0-.7-.68-.94-1.1-.62a.66.66 0 0 0-.14.89l-3.2 2.5a.66.66 0 0 0-.89-.08c-.41.33-.34 1.04.33 1.21m2.95-11.02c-.62.24-.64.9-.25 1.2l-2.17 3.43c-.44-.22-1.02.08-.97.74.24.65.96.65 1.24.2a.66.66 0 0 0-.16-.88l2.17-3.42c.3.15.67.05.86-.24.28-.44-.03-1.1-.72-1.03m-13.94-7.4c-.65-.15-1.03.38-.88.85L9.79 9.9c-.24-.43-.9-.52-1.22.06-.17.67.42 1.08.9.87.32-.14.47-.5.37-.82l3.72-1.61c.16.3.53.43.84.29.49-.21.6-.92-.01-1.26m13.93 18.5c.15.64.8.74 1.15.4l3.13 2.57c-.27.4-.05 1.03.62 1.06.67-.15.76-.87.36-1.2a.66.66 0 0 0-.9.04l-3.13-2.58a.66.66 0 0 0-.12-.88c-.4-.34-1.09-.11-1.11.58"/><path d="M3.86 13.33c.66.1 1-.46.82-.91l3.59-1.89c.27.41.93.45 1.21-.15.12-.69-.5-1.04-.97-.8a.66.66 0 0 0-.3.84l-3.59 1.89a.66.66 0 0 0-.87-.23c-.46.24-.52.96.11 1.25M23.8 41.32c-.61-.27-1.09.19-1.03.67l-3.95.9c-.15-.46-.78-.66-1.21-.16-.3.63.22 1.14.73 1.02.34-.07.55-.4.5-.73l3.96-.9c.1.32.44.51.78.44.51-.12.75-.8.22-1.24m10.84-26.01c-.58.32-.5.98-.08 1.22l-1.66 3.7c-.46-.16-1 .22-.85.87.33.61 1.04.51 1.25.03a.66.66 0 0 0-.28-.85l1.66-3.7c.32.1.68-.04.82-.36.21-.48-.18-1.07-.86-.91M22.21 46.08c-.53-.4-1.1-.06-1.14.43H17c-.04-.49-.61-.82-1.14-.43-.43.55-.04 1.16.48 1.16.35 0 .63-.26.66-.6h4.06c.03.34.31.6.66.6.52 0 .9-.6.48-1.16"/><path d="M5.51 11.8c.53.39 1.1.05 1.15-.44h4.05c.05.5.62.83 1.15.43.42-.55.04-1.16-.49-1.16a.66.66 0 0 0-.66.6H6.66a.66.66 0 0 0-.66-.6c-.53 0-.91.61-.49 1.16m21.12 28.5c-.33-.57-.99-.48-1.22-.05l-3.73-1.59c.14-.46-.25-1-.9-.84-.6.34-.48 1.05 0 1.26.32.13.69 0 .85-.3l3.73 1.59c-.1.32.05.67.37.8.49.21 1.08-.2.9-.87m-9.5-9.31c.53.4 1.1.06 1.14-.43h4.06c.04.5.61.83 1.14.43.42-.55.04-1.16-.48-1.16a.66.66 0 0 0-.66.6h-4.06a.66.66 0 0 0-.66-.6c-.53 0-.9.61-.49 1.16M9.97 43.77c-.52.42-.32 1.05.14 1.22l-.97 3.93c-.49-.07-.95.4-.7 1.01.44.55 1.12.32 1.25-.2a.66.66 0 0 0-.43-.78l.97-3.93c.34.05.66-.16.75-.5.12-.51-.38-1.03-1.01-.75m16.46-32.32c.47.47 1.08.22 1.2-.26l4.01.57c-.02.49.5.9 1.08.58.5-.48.2-1.14-.32-1.21a.66.66 0 0 0-.74.5l-4.02-.57a.66.66 0 0 0-.57-.69c-.52-.07-.98.48-.64 1.08"/><path d="M17.15 32.47c.4-.54.06-1.1-.43-1.15v-4.06c.49-.04.83-.61.43-1.14-.55-.42-1.16-.04-1.16.48 0 .35.26.63.6.66v4.06a.66.66 0 0 0-.6.66c0 .53.6.9 1.16.49m-3.1-4.21c.4-.54.07-1.1-.42-1.15v-4.06c.49-.04.82-.61.43-1.14-.55-.43-1.16-.04-1.16.48 0 .35.26.63.6.66v4.06a.66.66 0 0 0-.6.66c0 .52.6.9 1.16.49m18.02-1.4c-.4-.52-1.04-.34-1.21.12l-3.91-1.08c.08-.49-.38-.96-1-.72-.55.42-.34 1.1.17 1.25.33.09.67-.1.8-.41l3.9 1.08c-.06.33.14.66.48.75.5.14 1.04-.34.77-.98m-18.6-7.12c.39-.54.04-1.1-.45-1.14l-.07-4.05c.49-.06.82-.63.41-1.16-.56-.4-1.16-.02-1.15.51 0 .35.28.62.62.65l.07 4.06a.66.66 0 0 0-.6.67c.01.52.63.9 1.17.46m-7.33 2.6c.6-.3.54-.97.13-1.22l1.8-3.64c.46.18 1.01-.18.89-.84-.3-.62-1.02-.55-1.25-.07a.66.66 0 0 0 .24.86l-1.8 3.63a.66.66 0 0 0-.83.32c-.23.47.14 1.09.82.95m2.82 24.12c-.4.53-.06 1.1.43 1.15v4.05c-.49.05-.82.62-.43 1.15.56.42 1.16.04 1.16-.49a.66.66 0 0 0-.6-.66v-4.05c.34-.04.6-.32.6-.66 0-.53-.6-.91-1.16-.49m2.5-18.2c.25-.62-.22-1.09-.7-1.01l-1.01-3.93c.46-.17.65-.8.13-1.22-.64-.27-1.13.25-1 .76.08.34.41.54.75.5l1 3.92a.66.66 0 0 0-.42.79c.14.5.82.73 1.25.18m10.82 20.4c-.53-.4-1.1-.06-1.15.43H17.1c-.05-.49-.62-.82-1.15-.42-.42.55-.04 1.15.49 1.15.34 0 .63-.26.66-.6h4.05c.04.34.32.6.66.6.53 0 .91-.6.5-1.15"/><path d="M32.19 27.98c.4-.53.06-1.1-.43-1.15v-4.05c.5-.05.83-.62.43-1.15-.55-.42-1.16-.04-1.16.49 0 .34.27.62.6.66v4.05a.66.66 0 0 0-.6.66c0 .53.6.91 1.16.49M18.09 53.1c-.13-.66-.78-.79-1.14-.46l-3-2.72c.3-.4.1-1.03-.56-1.09-.69.12-.81.83-.42 1.18.25.24.64.23.9 0l3 2.73c-.2.27-.18.65.08.89.39.35 1.08.16 1.14-.53m5.4-38.65c.66-.12.79-.77.46-1.13l2.72-3c.4.29 1.03.1 1.09-.57-.12-.68-.83-.8-1.18-.41a.66.66 0 0 0 0 .89l-2.73 3a.66.66 0 0 0-.89.09c-.35.38-.16 1.08.53 1.13m10.72-2.25c-.67.06-.87.69-.58 1.08l-3.04 2.7c-.35-.34-1-.22-1.14.43.05.7.74.9 1.13.55.26-.23.3-.62.1-.9l3.04-2.68c.24.23.63.24.89.01.4-.34.28-1.05-.4-1.19M14.84 6.75c.53.4 1.1.06 1.15-.43h4.05c.05.49.62.83 1.15.43.42-.55.04-1.16-.49-1.16a.66.66 0 0 0-.66.6H16a.66.66 0 0 0-.66-.6c-.53 0-.91.6-.5 1.16m9.19 45.42c-.37-.56-1.01-.44-1.23 0L19 50.8c.12-.48-.3-.99-.94-.8-.58.37-.43 1.08.06 1.26.33.12.68-.04.83-.34l3.81 1.39c-.09.33.09.67.41.79.5.18 1.07-.26.86-.92"/><path d="M13.62 47.97c.37.55 1.02.42 1.23-.02l3.82 1.34c-.11.48.31.98.94.78.59-.37.42-1.07-.07-1.25a.66.66 0 0 0-.82.35l-3.83-1.34a.66.66 0 0 0-.42-.79c-.5-.17-1.06.27-.85.93M1.18 33.76c.66 0 .91-.61.66-1.03l3.25-2.42c.33.36.99.3 1.18-.34 0-.7-.66-.95-1.08-.64a.66.66 0 0 0-.17.88l-3.26 2.42a.66.66 0 0 0-.89-.1c-.42.32-.36 1.04.3 1.23m30.61-16.04c-.4.53-.06 1.1.43 1.14v4.06c-.49.05-.83.61-.43 1.15.55.42 1.16.04 1.16-.49a.66.66 0 0 0-.6-.66v-4.06c.33-.03.6-.31.6-.66 0-.52-.6-.9-1.16-.48M24.64 4.54c-.35-.57-1-.47-1.23-.03l-3.76-1.5c.13-.47-.27-1-.91-.83-.6.36-.47 1.07.02 1.26.32.13.68-.01.84-.31l3.77 1.5c-.1.32.06.67.39.8.48.2 1.06-.22.88-.9m4.85 5.74c-.4.54-.06 1.1.43 1.15v4.06c-.5.04-.83.61-.43 1.14.55.43 1.16.04 1.16-.48a.66.66 0 0 0-.6-.66v-4.06c.33-.03.6-.31.6-.66 0-.52-.61-.9-1.16-.49M17.96 7.22c.2.64.85.7 1.18.33l3.28 2.37c-.24.43.02 1.03.68 1.02.67-.2.71-.91.29-1.22a.66.66 0 0 0-.9.1l-3.28-2.37c.17-.3.1-.68-.18-.88-.43-.3-1.1-.04-1.07.65m6.99 34.76c.47.47 1.08.23 1.2-.25l4 .62c-.02.49.49.9 1.08.6.5-.49.21-1.14-.3-1.22a.66.66 0 0 0-.75.5l-4.01-.62a.66.66 0 0 0-.56-.7c-.52-.08-1 .46-.66 1.07m-3.38 8.97c.53.4 1.1.06 1.14-.43h4.06c.05.49.61.82 1.15.43.42-.56.04-1.16-.49-1.16a.66.66 0 0 0-.66.6h-4.06a.66.66 0 0 0-.66-.6c-.52 0-.9.6-.48 1.16M2.99 19.07c.65-.1.8-.75.49-1.12l2.82-2.92c.38.31 1.02.14 1.1-.52-.1-.69-.8-.84-1.17-.46a.66.66 0 0 0-.03.9l-2.82 2.91a.66.66 0 0 0-.89.06c-.36.37-.2 1.07.5 1.15m17.75 12.85c-.5-.43-1.1-.12-1.17.37l-4.05-.22c-.02-.49-.57-.86-1.12-.49-.45.53-.1 1.16.43 1.19.34.01.64-.24.69-.57l4.05.21c.01.34.28.62.62.64.53.03.94-.56.55-1.13"/></g></svg>