<svg xmlns="http://www.w3.org/2000/svg" xml:space="preserve" viewBox="0 0 22.679302 69.431785"><g fill="#231f20"><path d="M8.0679924 62.60044567c.00918104.66392953.62194807.90875642 1.03787305.64805453l2.471912 3.21556852c-.35912687.33513977-.28010377.9902481.35948142 1.16981022.69426664-.00079375.94191662-.67486212.62194808-1.09149355-.21131476-.27446023-.59302118-.3361981-.88088783-.1559269l-2.4715601-3.21521662c.24800187-.231775.28680831-.61665643.0758481-.89111666-.3203231-.41663143-1.0354045-.35030833-1.21461472.32032046m8.24970792 1.94662951c-.34007688-.57044166-.99306851-.4758981-1.22308138-.04198143l-3.74896837-1.54693142c.14322689-.46954545-.25294165-.99730189-.89640829-.83290833-.6007814.34819167-.47801474 1.05586476.00740834 1.25624166.32032308.13193976.68156663-.00600605.84066852-.30585833l3.74897101 1.54693141c-.09877953.32490833.05997046.67733333.38029355.809625.48542308.20037689 1.07173971-.21484167.89111662-.88511856"/><path d="M11.78591721 66.86165015c.53198975.39757879 1.09960828.0610288 1.14652684-.4279212h4.05553313c.0469212.48895.61453974.82549999 1.14652949.4279212.42227497-.55068786.03915833-1.15817119-.48612952-1.15817119-.34677878 0-.62794353.26528977-.66039997.60325h-4.05553313c-.03245379-.33796023-.31397044-.60325-.66039996-.60325-.5252852 0-.90875375.60748333-.48612688 1.1581712"/><path d="M13.34766524 66.08236229c-.64311474-.1658038-1.04034161.3615981-.89782116.8314981l-3.75108504 1.5412852c-.22930643-.43426856-.88229806-.52987045-1.22308138.04021667-.18167878.66992499.40393142 1.08584998.8897064.88617953.32032308-.13158787.4801314-.48401287.38135187-.8089212l3.75143958-1.5412852c.1583981.30021476.51964164.43850188.83996473.30691665.48577498-.1996731.60959997-.90734355.009525-1.25588975"/><path d="M6.56092581 62.5852771c-.18661855.63746856.32702498 1.05163143.80151019.92463143l1.41675637 3.80012041c-.44167688.21484166-.55879998.86430643-.00026459 1.22378786.66357497.2035519 1.09890184-.3679481.91545829-.8600731-.12135643-.32455643-.46813785-.49565188-.79622117-.40816476l-1.41675372-3.80012041c.30550378-.14816667.4557871-.504825.33443332-.82938143-.1834462-.492125-.8865314-.63923332-1.25483138-.0508m5.58050408-4.19276207c-.14075833.64911022.40110831 1.02552499.86501018.86536212l1.68380825 3.68970184c-.42544998.24553333-.49600377.9017.08643143 1.22061286.67662687.1559269 1.06997495-.44520643.8519583-.92286665-.14393333-.31538333-.50200188-.46108143-.8230314-.35030833l-1.6834537-3.68970185c.2938621-.17003977.41839353-.5362231.2748121-.85125453-.21836855-.47801212-.9299204-.574675-1.25553516.03845454"/><path d="M14.42363564 66.47817895c.65616664-.10406856.8106833-.74541855.49283142-1.12006855l2.82857296-2.9065352c.38311665.30726857 1.02023328.13511213 1.10631017-.52352309-.10018976-.68685832-.80292306-.83537688-1.16910638-.45896476-.24165188.24835643-.24800188.63499999-.02822045.89393976l-2.82857297 2.90653519c-.26458332-.21237046-.65122686-.19579167-.89288139.05256477-.36618331.37641476-.19826022 1.07491476.49106664 1.15605188M6.13935727 55.4542272c-.62441664-.22683523-1.07032949.25929166-.97437305.74048142l-3.8830248 1.17086855c-.18591477-.4543769-.8265583-.612775-1.22096472-.07866856-.24553332.64946476.29668786 1.12006855.79974807.96872688.3316102-.10018712.5245814-.43532689.45790641-.76834999l3.8830248-1.17086855c.12876212.314325.4748371.48683333.80644996.3869981.50270831-.1516962.69461853-.8438462.13123333-1.24918786m1.82985824 7.11164801c.5319871.3975788 1.09960828.0610288 1.14652684-.4279212h4.05553313c.04691856.48895.61453974.8255 1.14652684.4279212.42262952-.55068786.03915833-1.15817119-.48612687-1.15817119-.34642688 0-.62794354.26528977-.66039997.60325H9.11574235c-.03245644-.33796023-.31397309-.60325-.66039997-.60325-.5252852 0-.90875639.60748333-.48612687 1.1581712"/><path d="M.74361967 54.16447342c.41768975.51646666 1.05057305.32984545 1.21637948-.13229167l3.9310017.99800832c-.07478977.48542046.39228975.95144166 1.0057685.69708712.54504165-.43003522.3231462-1.11301211-.18626665-1.24212878-.33584355-.0853731-.67380376.1023038-.7884583.42192046l-3.9306498-.99800832c.05150644-.33549167-.15592688-.66216212-.49177043-.74718333-.5090583-.12946856-1.03011282.365125-.7560045 1.0025962m13.78937884 4.30424161c-.1961462.63464545.31150188 1.05621665.78775186.93662499l1.35995826 3.82058064c-.44485187.20813977-.57149997.85583976-.01870604 1.22378786.66075451.21342879 1.10419616-.3517212.9281583-.84631476-.11641667-.3266731-.46037499-.50270833-.78986853-.41980644l-1.35995827-3.82093518c.3076231-.14393333.46284354-.49776855.34678142-.82444165-.17603786-.49459356-.87700639-.65228522-1.25412493-.06949546m-6.52426484-6.82378135c-.53234164-.39758143-1.09960828-.0606769-1.14652684.42791856H2.80631123c-.04691856-.48859546-.6141852-.8255-1.14652684-.42791856-.42227498.55068522-.03880643 1.15816855.48612687 1.15816855.34678142 0 .62794618-.26528713.66039997-.60325H6.8621989c.03245379.33796287.31361855.60325.66004543.60325.52528784 0 .90875639-.60748333.4864814-1.15816855M4.30385282 35.30461911c.65722497.09560454.99518783-.47131022.80327496-.92321855l3.56340815-1.93604354c.27446287.4067519.9341564.4318 1.21179161-.17145.10830454-.68579998-.5185833-1.03646286-.98001662-.78563786-.30444544.16545454-.42509543.5330481-.29245188.84525643L5.0464509 34.26992367c-.18979356-.28151666-.56373974-.3802962-.86818519-.21484167-.46178785.250825-.50870641.96766855.12558712 1.24953711m.28010641-17.25471191c.51082308.42439167 1.09502305.117475 1.16698972-.36829999l4.05024146.20884356c.02151062.49036287.57114543.85583976 1.1228916.48612954.45014355-.52810833.0987769-1.15464166-.42580451-1.18145453-.34607498-.01799167-.64099543.23248143-.6907371.568325l-4.05024145-.20849167c-.01481667-.33937046-.2822231-.61877045-.62829808-.63676212-.5245814-.02681287-.93874162.55985833-.54504164 1.13171022m13.98658074.30303522c.3986371-.53128333.0635-1.09960832-.42509809-1.14758521l.01058334-4.05588518c.48894997-.04550833.82726473-.6120712.43109354-1.14511665-.54962687-.42403977-1.1581685-.04233334-1.15957874.48295189-.00079375.34642689.263525.62864999.6014852.66181022l-.01058333 4.05588782c-.33796021.03139546-.6039564.31220833-.60501474.65863522-.00132292.52528522.60501474.91016666 1.15711282.4893019M9.44347377 30.7809506c.03739356.6632231.66004543.88194356 1.06468328.6036019l2.605262 3.10832496c-.34431022.34995643-.23777045 1.00118332.40851664 1.15358332.69356284-.02998523.91263783-.71402045.5753814-1.11654166-.22260188-.26564166-.60677686-.31079545-.88653138-.11853333l-2.605262-3.10832496c.23812499-.24200379.26070188-.62794355.0381-.89358522-.33760832-.40251855-1.04951472-.30621022-1.20014994.371475"/><path d="M4.86018423 46.44745874c-.46390187.47519166-.20461022 1.08196855.27375642 1.19274166l-.53234164 4.02060828c-.49071474-.01764771-.8988795.50059166-.57467497 1.08020642.4907121.49106666 1.14299995.1908519 1.2121435-.3298481.04550834-.34360643-.18062309-.65722499-.51152687-.73377688l.53234164-4.02060829c.33937045.01235604.6392333-.231775.68474164-.57538143.06879166-.5207-.48295452-.98072309-1.08443972-.63394166M17.7997188 31.54753583c-.5319871-.39757879-1.09960827-.0606769-1.14652683.4279212h-4.05588503c-.04656666-.4885981-.61418784-.82549999-1.14617494-.4279212-.42262952.55068787-.03915833 1.1581712.48612687 1.1581712.34642688 0 .62794353-.26528978.66004807-.60325h4.05588503c.03245644.33796022.31361855.60325.66039997.60325.5252852 0 .90840185-.60748333.48612687-1.1581712"/><path d="M19.90051037 29.36419419c-.65934164-.08149167-.98495374.49247953-.78316663.94015453l-3.52177861 2.0115371c-.28328143-.40110833-.94297496-.41204356-1.20755828.19720454-.09383976.68791666.54045377 1.02517044.99624352.76446855.30091854-.1718019.4138083-.54186666.27446021-.85125189l3.52142937-2.01189164c.19579165.27763523.57185186.3683.87277041.19649546.45578975-.2607019.48753975-.97825188-.1524-1.24671665m-2.07821201 25.21937922c-.0077523-.66392953-.6201833-.90981476-1.03681472-.6501712l-2.4652101-3.22015375c.35947877-.33443333.28186854-.98954165-.35736476-1.17051665-.69391473-.00079375-.94332685.6731-.62406474 1.09008332.21060833.27516666.59231474.33725379.8805333.15769166l2.46556464 3.22015375c-.24870832.23107121-.28821855.61595-.07761023.89111666.31926211.41698333 1.0346954.3520731 1.2149666-.31820379"/><path d="M21.9963648 28.33761087c-.65581473.1072462-.8071564.74929999-.48789164 1.12253975l-2.81516652 2.9192352c-.38452952-.3055038-1.02058783-.1305269-1.10384161.52846287.10301022.68650378.80644996.83184999 1.1712204.45402499.24024165-.24941477.24482953-.63641287.0239977-.89429166l2.81516653-2.91923783c.26564165.21096287.6519333.19261666.89252685-.05679546.36477308-.37817954.19367499-1.0756212-.49600377-1.15393786M9.79095898 16.0076758c.47342687-.46601856.22648332-1.07773522-.24941476-1.19803332l.61277497-4.00896662c.49036285.02751667.90910829-.48295189.59654808-1.06891665-.48048331-.50094356-1.1391185-.21378333-1.2184935.30550643-.05221288.3425481.16721665.66075189.4967102.74400832l-.61312686 4.00896662c-.3390212-.01905-.64382118.219075-.6960314.5616231-.0797269.51928712.46284353.99024544 1.07103327.65581211m-.62864997 36.26767265c.0702019-.66039999-.5090583-.97684165-.95320639-.7676462l-2.06974535-3.48756018c.39616854-.28998333.39616854-.94967689-.21731286-1.20438332-.68932686-.0821981-1.01599995.55738976-.7478871 1.0092981.17674167.29774355.54856854.40428332.8558371.25999545l2.07009989 3.48756283c-.27410832.20037689-.35877499.57784999-.18203333.87559355.26811286.45155643.98636662.47131022 1.24424804-.17286023m-.58596474 2.93757876c-.10371666.65581476.45861285 1.00118332.91298973.81491665l1.8894768 3.5884564c-.41063331.26916855-.44379354.92851021.15557499 1.21390831.68438974.11712046 1.04316472-.50517689.79833783-.96978521-.1615731-.30656477-.52740451-.43215454-.84137495-.30338977l-1.88983135-3.5884564c.28398522-.18591212.38770188-.55879999.22613143-.8653621-.24482953-.46460833-.96096662-.5207-1.25130448.10971212m1.14053138-5.8984435c.39475832-.53410642.05503333-1.0999602-.43391664-1.1444102l-.02116667-4.05553329c.48859808-.04938977.82232496-.6187731.42192308-1.1486462-.5531564-.41980378-1.15852304-.03316022-1.15569994.492125.00185209.34642954.26846211.62653333.60677687.657225l.02116666 4.05553327c-.3379602.03422121-.60183974.3171481-.59972307.663575.00238125.52528786.61207118.90522953 1.16063971.48013143m6.96312655-2.30258141c-.06244167.66110643.52034808.97049165.96202495.75635643l2.111023 3.46286662c-.39299355.29456856-.38488142.95426476.23142309 1.20156021.6900333.07408334 1.0092954-.56938332.73589352-1.0177621-.18062309-.29598144-.5535083-.39828788-.85901472-.24976667l-2.11102035-3.46322117c.27199165-.20355189.35171854-.58172878.17144999-.87771021-.27340453-.44838144-.99165829-.45966856-1.24177948.18767689"/><path d="M8.5996276 59.13652336c.39758142-.53198977.06067954-1.09960832-.42791854-1.14652953v-4.05553328c.48859808-.04691857.82549996-.61453712.42791854-1.14652689-.5506852-.42262689-1.1581685-.03915833-1.1581685.4861269 0 .34642953.26528976.6279462.60324997.66039999v4.05553328c-.33796021.03245644-.60324997.3139731-.60324997.66039999 0 .52528787.6074833.90875643 1.1581685.48612954m-4.21922024-14.3428877c.5094102.42615643 1.09431661.12135644 1.1680454-.36406666l4.04953767.22330833c.02010833.49036287.56832497.85795643 1.12147873.49000833.45190831-.52634356.10265833-1.15393522-.42192043-1.18286211-.34572309-.01905-.64134997.23036212-.6925045.56585378L5.5555092 44.302569c-.01375834-.33901856-.28010643-.61947689-.62618141-.63852689-.52422687-.0289269-.94050374.55668333-.54892043 1.12959355M19.54279372 32.3966737c-.64487686-.15945644-1.03716661.37112045-.89041018.83961021l-3.73697482 1.57550642c-.23318521-.43215454-.88688328-.52175833-1.22272683.0511519-.17533143.67168976.41380831 1.08232308.89781852.87841665.31926475-.13476023.47554354-.48824356.37394354-.8124481l3.73732935-1.57550377c.16121856.2988019.52352044.43391666.84278519.29950833.4840102-.20425833.6014852-.91298976-.00185208-1.25624165m-.82188311-3.56552495c.56726664-.3453712.46637044-.99765643.03033713-1.22343332l1.51200636-3.7630814c.4713102.13864167.99518518-.26246665.82444162-.90416854-.35348331-.59760643-1.0597435-.46813523-1.2558897.01905-.12911666.32173333.01235604.68156666.31362119.8378481l-1.51200636 3.76307874c-.32561476-.09595644-.67662687.0663231-.80574353.38805643-.19579165.48718522.22471856 1.06962044.8932333.88264999"/><path d="M15.17399394 23.4625757c.53198974.39758143 1.09960828.06103144 1.14652948-.42791856h4.05553313c.04691856.48895.6145371.8255 1.14652684.42791856.42227498-.55068522.03915833-1.15781665-.48612687-1.15781665-.34678142 0-.62794618.26493787-.66039997.60325h-4.05553313c-.03245643-.33831213-.31397308-.60325-.66039996-.60325-.52528785 0-.9087564.60713143-.48612952 1.15781665M9.86574875 12.09713418c-.65404997.11465454-.79833784.7584731-.47483975 1.12783142l-2.78165175 2.95133973c-.38770453-.3009212-1.02199806-.11888787-1.09749161.54116023.11077045.68509355.81597495.82267688 1.17616017.44026666.23777309-.25188333.23777309-.63888143.01375833-.89429166l2.78165175-2.95133973c.26811286.20813977.65440451.18520833.89182306-.0670269.36018521-.38205833.18132689-1.07773521-.5094102-1.14793975M8.0454155 39.85545239c.17709356-.63993712-.34254808-1.04669165-.81491662-.91298711l-1.4717897-3.7789564c.43814998-.22119166.54609998-.87206665-.0176477-1.2237852-.66639543-.193675-1.09325828.38382045-.90275829.87347688.12594166.32279166.47519164.4885981.80186473.39616855l1.4721416 3.7793083c-.30338976.15275453-.44838142.51117498-.32243976.83432119.19049999.48930189.8957045.62617878 1.25553781.03245379"/><path d="M10.07917753 12.38464894c.39758142-.53198976.06103143-1.09960832-.42791854-1.14652688V7.18258878c.48894997-.0469212.82549996-.61453976.42791854-1.14652953-.5506852-.422275-1.1581685-.03915833-1.1581685.48612954 0 .34642689.26528975.62794355.60324997.6604v4.05553327c-.33796022.0324538-.60324997.31397046-.60324997.6604 0 .52528522.6074833.90875377 1.1581685.48612688m.65017117 39.03874118c.39757878-.53198977.0606769-1.09960832-.42792118-1.14652953v-4.05553328c.48859808-.04691856.82549996-.61453712.42792119-1.14652688-.55068785-.4226269-1.15817115-.03915833-1.15817115.48612689 0 .34642954.26528975.6279462.60324997.66039999v4.05553328c-.33796022.03245644-.60324997.3139731-.60324997.6604 0 .52528786.6074833.90875642 1.15817115.48612953"/><path d="M11.73758578 6.28370925c-.5319871-.39757879-1.09960828-.0610288-1.14652684.4279212H6.53552581c-.04691856-.48895-.61453974-.82549999-1.14652684-.4279212-.42262952.55068787-.03915833 1.1581712.48612688 1.1581712.34642687 0 .62794353-.26528977.66039996-.60325h4.05553313c.03245644.33796023.31397309.60325.66039997.60325.5252852 0 .90875639-.60748333.48612687-1.1581712m-.35171855 31.66815604c-.53198974-.39758143-1.09960827-.06103144-1.14652683.42791856H6.18345273c-.04656667-.48895-.6141852-.8255-1.14617495-.42791856-.42262687.55068522-.03915833 1.15816855.48612952 1.15816855.34642688 0 .62794353-.26528977.66004543-.60325h4.05588767c.03245379.33796023.31361854.60325.66039996.60325.5252852 0 .90840185-.60748333.48612687-1.15816855m6.0480228-25.01970612c-.6642814.00283104-.9147545.61348143-.6575795 1.03187498l-3.2377934 2.4426333c-.33161022-.36194999-.98742495-.28857045-1.17263328.34925-.00563562.69391476.66604353.94791476 1.08549805.6314731.27657688-.20849167.34148711-.58984356.16368712-.8791231l3.23779604-2.4429852c.22930378.2504731.6138333.29280644.89041019.08396023.41909998-.31644166.35948142-1.03222688-.30938522-1.21708331"/><path d="M7.32856934 38.23373385c.29739165.59407689.95567495.54751022 1.21673137.13158523l3.62514338 1.81857118c-.17744545.45790379.17921287 1.01317688.8329083.89640832.62441663-.30303787.55421474-1.01776476.08466666-1.25306665-.30973711-.155575-.68015376-.04445-.86077686.24306212l-3.62514338-1.81856854c.12276666-.31644166-.00986896-.67980188-.31961665-.83502499-.46954808-.23565643-1.08479161.13546667-.95391282.81703333m-1.07914541 7.32119801c.39757877-.53234166.06102879-1.09960832-.42792119-1.14652953v-4.05588518c.48894998-.04691856.82549996-.61418522.4279212-1.14652688-.55068786-.422275-1.15781662-.03880643-1.15781662.4861269 0 .34678143.26493522.62794355.60324997.66039998v4.05588518c-.33831475.03245644-.60324997.3136212-.60324997.6600481 0 .52528522.60712876.90875642 1.15781661.48648143m9.17857.75670832c-.39757877.53198712-.0610288 1.09960832.42756664 1.14652688v4.05553329c-.48859543.04691856-.82514541.61453976-.42756664 1.14652688.55068784.42262953 1.1578166.03915833 1.1578166-.4861269 0-.34642688-.2652871-.62794355-.60324996-.66039998v-4.05553329c.33796285-.03245643.60324997-.3139731.60324997-.66039999 0-.52528522-.60712877-.90840188-1.15781661-.48612689M5.6948573 22.63002192c.66322042.03280833.94650184-.56303333.71261019-.99483332l3.36549983-2.26307118c.31185642.37958976.97049161.3421962 1.19027304-.28433712.04339166-.69285643-.6138333-.98319166-1.04951472-.69003333-.28751475.19332046-.37323975.57044166-.21166665.86924355l-3.36549983 2.26271664c-.2155481-.26246666-.59689997-.32526022-.88441473-.13193977-.43603331.29280644-.41521854 1.01106287.24271286 1.23225453m12.6280327 17.1534638c-.09630833.657225.46954543.9962462.92180829.80503976l1.92969346 3.56693519c-.40745831.27375643-.43356475.9330981.16933333 1.2121462.68509352.10936022 1.03716661-.51682121.78704806-.97860643-.1647481-.3048-.53198974-.42615644-.84454996-.29386477l-1.9296961-3.56728708c.28187119-.18908977.38135451-.56303333.21625452-.86783332-.24976665-.46178787-.96661282-.51011666-1.2498916.12347045"/><path d="M10.35822562 16.71111556c-.39758142.53198976-.06103143 1.09960832.42756665 1.14652688v4.05553328c-.48859808.0469212-.82514807.61453976-.42756665 1.14652953.5506852.42262689 1.1578166.03915833 1.1578166-.48612954 0-.34642689-.26528975-.62794355-.60324996-.66039999v-4.05553328c.33796021-.0324538.60324997-.31397046.60324997-.6604 0-.52528522-.6071314-.90875377-1.15781661-.48612688"/><path d="M10.78155893 23.1161488c.35207309.56303334 1.00294806.45473144 1.22343327.01621897l3.78071838 1.46790831c-.13299546.4723712.27410832.99165832.91404805.81385832.59301854-.36053712.45543521-1.06574165-.03386666-1.2558871-.32314355-.12523788-.68156663.02010833-.83396663.32349545l-3.78071837-1.46790831c.092075-.32667046-.07443787-.67592045-.39722952-.80115833-.48965377-.19014545-1.06715184.23706667-.87241852.90346476M7.60691099 51.59095868c.19543976.6346481.85266473.69708976 1.17827948.32949356l3.27730363 2.38936474c-.25011855.42262689.01023937 1.02869999.67451284 1.02093976.66569163-.1961462.71366852-.91263787.28927688-1.2220231-.28010642-.20425832-.66357497-.15557499-.88899996.098425l-3.27730627-2.3890102c.17286287-.29245453.10195454-.6723962-.17815189-.87665452-.42439164-.30938523-1.09219994-.04445-1.07491471.64946476"/><path d="M11.29167557 27.08136922c.39758142-.53198712.0606769-1.09960832-.42791854-1.14652688v-4.05553329c.48859544-.04691856.82549996-.61453711.42791854-1.14652688-.5506852-.42262689-1.1581685-.03915833-1.1581685.4861269 0 .34642953.26528711.6279462.60324997.66039998v4.05553329c-.33796286.03245643-.60324997.3139731-.60324997.66039999 0 .52528522.6074833.90875642 1.1581685.48612689M6.99907579 43.00258379c.43285831.50376666 1.06009805.29880189 1.2121435-.1679231l3.95852101.88300453c-.06067954.48718522.41980377.93944544 1.02552495.66710188.53234164-.44520643.29033521-1.12183332-.22225-1.23613331-.33796285-.07549357-.6706314.12241477-.77575829.44520643l-3.958521-.88335643c.04198143-.33690189-.174625-.6568731-.5129371-.73236666-.51258785-.1146519-1.01917495.39475833-.72672307 1.02446666m5.22110997-33.99860337c.4833064.45543523 1.08549804.18520834 1.18744994-.2949231l4.02942933.45966856c-.00881062.49106666.51681854.88970643 1.09078707.5552731.48224808-.49918143.17003977-1.14617499-.35171854-1.20579355-.34431021-.03915833-.65404997.19226212-.7246064.52457879l-4.0294267-.46002046c.00600605-.3393731-.24341665-.63499999-.58772686-.67415832-.5217583-.05962121-.97154995.50023712-.61418784 1.09537498m7.72124771 32.26328862c-.6265333.22119166-.66216474.88018143-.28186855 1.19097953l-2.25495632 3.37079162c-.43250642-.23283333-1.02799351.05185833-.99342306.71507878.22295643.65757954.94085829.67662954 1.23295828.23988977.19261665-.28786666.12876476-.66921855-.13405379-.88441476l2.25495368-3.37079162c.29880453.16086666.67592307.07443787.86853973-.2134288.29209998-.43638786.00026458-1.09290642-.69214997-1.04810452"/><path d="M17.99233546 44.6987402c.39758142-.53198976.06103144-1.09960832-.42756664-1.14652952v-4.05553329c.48859808-.04691856.82514806-.61453711.42756664-1.14652688-.5506852-.42262689-1.1578166-.03915833-1.1578166.4861269 0 .34642953.26493786.6279462.60324997.66039998v4.05553329c-.33831211.03245643-.60324997.3139731-.60324997.66039999 0 .52528787.6071314.90875642 1.1578166.48612953m-4.77131832-22.87763948c-.49847497-.43920833-1.0911416-.1495769-1.17757304.33408143l-4.0421267-.32773143c-.00740833-.49106666-.54574807-.87241855-1.10842683-.51928712-.46566665.51505379-.13229166 1.15146665.39122877 1.19379999.34537119.02786856.64699617-.21378333.70661473-.54786477l4.04248124.3273769c.0049477.339725.26422877.62688786.60959997.65475642.52352043.04233334.95461661-.53198976.57820186-1.11513142m-4.90149331 6.56660636c-.39758142.53198711-.06067954 1.09960832.42791854 1.14652688v4.05553328c-.48859808.04691856-.82549996.61453976-.42791854 1.14652688.5506852.42262954 1.1581685.03915833 1.1581685-.48612689 0-.34642689-.26528976-.62794355-.60324997-.6604v-4.05553327c.33796021-.03245644.60324997-.3139731.60324997-.6604 0-.52528522-.6074833-.90875642-1.1581685-.48612688m6.82519132-1.88065831c-.6544045.11394545-.79939617.75776665-.47660452 1.12747688l-2.78517865 2.94781019c-.38734998-.30127045-1.02199805-.11994356-1.09819805.53975.11006666.6850962.81491663.82373786 1.17580828.44203143.23777309-.25188334.23812498-.63888143.01481666-.89429166l2.7851813-2.94816473c.26811021.20849166.65404997.18626666.89182041-.06561667.36089165-.38205833.18273976-1.07773522-.50764543-1.14899544m4.77519975 22.6130535c-.01235603-.66392688-.6261814-.90593332-1.04104804-.64346666l-2.48602488-3.20427875c.35736476-.33655.27551855-.99130642-.36477308-1.16804809-.6939121.00388938-.93909352.6790981-.6170083 1.09396476.21237309.27375379.5944314.333375.88159162.15204546l2.48602487 3.2042814c-.24729544.23283332-.2843371.61771476-.07196666.89146855.32208786.41486666 1.03681472.3457231 1.21320448-.32596667M9.00920258 40.9741107c.53234164.39758144 1.09960828.06103145 1.14652949-.42791855h4.05588502c.04691856.48895.6141852.8255 1.14652684.42791856.42227498-.55068522.03915833-1.15816855-.48612687-1.15816855-.34678142 0-.62794353.26528977-.66039997.60325h-4.05588502c-.03245644-.33796023-.3136212-.60325-.66004807-.60325-.5252852 0-.9087564.60748333-.48648142 1.15816855m5.5167395-29.36698486c.61171663.25858787 1.08232305-.20425833 1.01070828-.69003332l3.93770624-.97049166c.16262878.4631981.79445375.65440453 1.2156704.14111287.27834165-.63605832-.23918333-1.13382952-.74929997-1.00823975-.33619544.0829019-.54609997.40781022-.4967102.74365642l-3.93770624.97084355c-.11253522-.3203231-.4490852-.51046855-.78563519-.42756666-.50976474.12558977-.73659996.80715643-.19473332 1.24071855"/><path d="M4.42767781 30.14101085c.53234164.39758143 1.09960828.06103143 1.14652949-.42791856h4.05588502c.04691856.48895.6141852.82549999 1.14652684.42791856.42227498-.55068523.03880644-1.15816855-.48647877-1.15816855-.34642952 0-.62759163.26528977-.66004807.60324999H5.5742073c-.03245644-.33796022-.3136212-.60325-.66039997-.60325-.5249333 0-.9084045.60748333-.48612952 1.15816856m7.72301249-16.2182517c.65934163-.07761022.83961019-.71261022.53727877-1.09960832l2.94287295-2.79047042c.37041665.32243712 1.01388328.17603523 1.1264185-.47836666-.07231855-.69038787-.76834995-.86748143-1.14970183-.50588333-.25117688.2384769-.27304999.62441666-.0638519.892175l-2.94287295 2.79047042c-.25611665-.2229538-.64311474-.22189546-.89429162.01658937-.38135188.3615981-.24165188 1.06609355.44414808 1.17510188m9.40505332 20.43464371c-.66427876.00600603-.91192875.61736286-.65334353 1.03469808l-3.2279165 2.4556852c-.3330231-.36053712-.98883518-.28469166-1.17157495.35383787-.00283104.69391212.67027687.94509166 1.08831851.62723712.2758731-.2099019.3390212-.59125378.16016287-.87982689l3.2279165-2.4556852c.23036212.24941213.61489164.28998334.89076208.08043334.41804165-.31820643.35524809-1.03363976-.31432498-1.21637953m-5.3488164-13.44577029c.51011664-.42545.31432499-1.05551021-.15028332-1.21461475l.94050639-3.94511208c.48612687.06773334.94509161-.4064.68191852-1.01599998-.43779543-.53869166-1.11759994-.30656477-1.23930827.20425833-.08043333.33725378.11253787.67239355.43356475.78246022l-.94015185 3.94511472c-.33654998-.04692121-.65969617.16545189-.7401295.50235378-.12170833.5108231.38029619 1.0248212 1.01388328.74153976M10.0901154 48.86680871c.07196667.6600481.70484997.84596022 1.09466851.54680643l2.76507297 2.9668602c-.32561476.36759355-.18485643 1.01247309.4684871 1.13065188.69109163-.066675.8738314-.76094166.51576285-1.14546855-.23600832-.25329356-.62194808-.27834166-.89147117-.07161477l-2.76507032-2.9668602c.22507045-.25435188.22718712-.64099809-.00881062-.89429165-.35806854-.38452689-1.06397684-.250825-1.17862873.43391666M9.44559044 4.43480094c.03739356.6632231.66039996.88123976 1.06468328.60325l2.60737866 3.10620829c-.34431021.35030833-.23706666 1.00153786.40957498 1.15323142.6932083-.03033977.91193139-.714375.57432307-1.11689355-.22260188-.26528977-.60677686-.3104462-.8865314-.11782954l-2.60737865-3.10656019c.23812499-.24200643.26034999-.6282981.03739356-.89358522-.33760832-.40216666-1.04916018-.30550643-1.1994435.37217879M8.27048595 57.08688361c.64311474.1654519 1.03998972-.36195.89746663-.83184999l3.75038124-1.54340188c.22930643.43426856.88229806.52951856 1.22308138-.0405712.180975-.669925-.40463785-1.08584999-.89041283-.885825-.32032044.13158788-.47977687.48401288-.38099998.8089212l-3.7503786 1.54340188c-.15875-.30021476-.51999619-.43850189-.84031663-.30656476-.48577497.200025-.60924807.90769809-.00881062 1.25588975m11.12730552-55.3469512c-.39757877.53198977-.06102879 1.09960832.42792119 1.14617499v4.05588518c-.48894998.0469212-.82549996.61453976-.42792119 1.14652952.55068785.422275 1.15817115.03915834 1.15817115-.48612953 0-.34677879-.26528976-.62794356-.60324997-.6604V2.8861074c.33796021-.0321019.60324997-.31361856.60324997-.6600481 0-.52528522-.6074833-.90875378-1.15817115-.48612689m-1.06856207 51.59304291c-.51611475.41804167-.3294962 1.050925.13264356 1.21637688l-.99694995 3.9313564c-.48542308-.07478978-.95108973.39264165-.6967352 1.00612308.4300352.54468712 1.11301207.32243712 1.24212873-.1866212.0853731-.33584356-.10265833-.67380379-.42227498-.78845833l.99694995-3.93100184c.3358462.05150644.66216474-.1559269.7471833-.4917731.12911666-.50905833-.36547688-1.03011022-1.00294541-.75600189m-8.52734578-6.01203969c.35842309.55915453 1.00823972.44344166 1.22378781.00238125l3.79694527 1.42522044c-.12805833.47413333.2850462.98883786.92286662.80362953.58913974-.36724166.44379619-1.07068142-.0479769-1.25518332-.32455641-.12170833-.68121473.02751667-.83043972.33266856l-3.79694527-1.42522308c.08854546-.32808333-.08149166-.67521666-.40604808-.796925-.49177308-.18450189-1.06433139.24941477-.86218973.91334166"/><path d="M9.59904876 12.22766372c.66392686.02822045.94262041-.56973787.70555376-.9997731l3.34892104-2.2874102c.31467688.37711856.97296018.33478523 1.18815373-.29351287.03845454-.69285378-.6208871-.97825188-1.05445184-.68191855-.28610188.19543977-.36900642.57291022-.20531666.87030188l-3.3489184 2.28741285c-.21731286-.26070454-.59937117-.32102954-.88547305-.12558977-.43391665.29633333-.40781021 1.01423522.25153142 1.23048976m-.85795639 11.09133319c-.5887852.30726856-.5312833.96484545-.111125 1.21884544L6.8724277 28.1926192c-.46072687-.16933333-1.01000184.1961462-.88229541.84807953.31326665.6194769 1.02658328.5369269 1.25447683.0635.14993143-.31220833.03280833-.68050832-.25752688-.8565462l1.75753703-3.65477684c.31855832.1171231.67944997-.02151063.8297333-.3337269.22754165-.47342689-.15381023-1.08232309-.8332602-.94015188m6.40432657 32.17297839c-.37782498.54609999-.0208227 1.10101855.46954808 1.12994809l.14710833 4.05306207c-.48648142.06455833-.80221663.6441731-.38558521 1.16134355.56550187.40216666 1.1585204-.003175 1.1394704-.52810833-.0127-.346075-.28786665-.61771212-.6268852-.63782045l-.14746022-4.05306472c.33654998-.0448019.5916083-.33549166.5789083-.68191855-.01905-.52458143-.63993973-.885825-1.17510448-.44344166m6.25651446-37.07835333c-.60219164.28045833-.57432308.9398-.16615833 1.21249545l-1.920523 3.5722295c-.4526121-.19014811-1.01776208.15028332-.91969163.80715377.2850462.63288333 1.00153783.58278977 1.25024615.1202981.16404166-.30550643.0638519-.67874355-.2183712-.86748142l1.92017111-3.57222685c.31326665.13158523.68015376.009525.84419542-.2956269.24870832-.4628462-.104775-1.08796665-.78986852-.97684165m-3.86468125 9.03322678c-.25188332-.61453976-.91192874-.61771476-1.20332494-.22295643l-3.47803505-2.08597497c.21096022-.44308712-.10265833-1.02376022-.76341019-.95673333-.6455833.25505833-.62900451.97331476-.17850643 1.24354166.29703976.17815189.67486474.09525.87665185-.1778l3.4780377 2.08597497c-.14604999.30656477-.041275.67874356.25576212.8568981.45049808.27022689 1.09184804-.05327121 1.01282494-.74295M6.76483224 16.32235533c.26775832.60783522.92745185.59407689 1.2086166.19191023l3.53024528 1.99636854c-.19967044.44873332.12876477 1.02093975.78739997.93697953.6388814-.27163977.6043083-.98883787.14710832-1.2474231-.30162498-.17074355-.6773333-.07831666-.87206662.200025L8.0362424 16.403847c.13793523-.3104462.0236273-.67980454-.27798975-.8501962-.45719998-.25858523-1.09008328.08113977-.99342041.76870453m9.64917641 27.25490345c-.62547497.22295644-.65934164.88194355-.27834165 1.19168332l-2.24507679 3.37749352c-.4328583-.23142046-1.02764161.05468144-.99095449.71790453.2247212.65687045.94297495.67380378 1.23366471.23636023.19155832-.2885731.1266481-.669925-.13687689-.88406022l2.24507678-3.37749617c.29950832.16016288.67592307.0726731.8678333-.2159.29068975-.43744355-.00283105-1.09290377-.69532497-1.04598521M9.54260256 26.15462377c-.17991666.63958522.33831475 1.04810188.81138973.91616211l1.45803136 3.78459996c-.43956285.21942954-.54962951.86994999.0127 1.22343331.66569163.1964981 1.0946685-.37958712.90593329-.86994998-.12453143-.32314356-.47307498-.49036023-.8004545-.39934356l-1.45767683-3.78424806c.30374166-.15204546.45014354-.50976212.32561476-.83326022-.18908976-.49000832-.89358783-.62970832-1.25553781-.03739356m5.16678307 33.00588671c-.5319871-.39757879-1.09960828-.0610288-1.14652684.4279212H9.50732566c-.04691856-.48895-.61453974-.82549999-1.14652684-.4279212-.42227497.55068787-.03915833 1.1581712.48612688 1.1581712.34642687 0 .62794353-.26528977.66039996-.60325h4.05553313c.03245644.33796023.31397309.60325.66039997.60325.5252852 0 .90875639-.60748333.48612687-1.1581712"/><path d="M12.50135051 27.24858588c-.53198974-.39757878-1.09960828-.06102879-1.14652684.42756666H7.29929055c-.04692121-.48859545-.61453974-.82514544-1.14652949-.42756666-.42262687.55068787-.03915833 1.15781665.48612952 1.15781665.34642688 0 .62794353-.26493522.66039997-.60289545h4.05553312c.0324538.33796023.31397045.60289545.66039997.60289545.5252852 0 .90840185-.60712878.48612687-1.15781665M14.053219 18.2848572c.15698786-.64523143-.37535378-1.03540188-.84349163-.88688332L11.619407 13.66734893c.43109354-.23495.51822877-.889-.05609166-1.22237499-.67239617-.17286022-1.08091282.41804166-.87488973.9013481.13581856.31891022.4903602.47377878.8138583.37076855l1.59067492 3.73097685c-.2980981.16227954-.43179998.52528787-.29598143.8438462.2060231.48330379.9151064.59760378 1.2562416-.00706437M9.20640712 43.27810235c.07655189.6600481.71084542.84102309 1.0981954.5393981l2.78623963 2.94745829c-.32314355.36971022-.1778 1.01353142.47660187 1.12712499.69038784-.07126023.86853973-.76729166.50764808-1.1489981-.23812499-.25188332-.62406474-.27410832-.89217496-.06561666l-2.78588508-2.94710375c.22330832-.25576477.22295378-.64240833-.01516063-.89429166-.36089165-.38170643-1.06574161-.24306477-1.17545373.44202879m10.39317412-20.43676831c-.65334353-.11923712-1.01176661.4346231-.83643519.89323332l-3.63184792 1.80481021c-.25964355-.41698068-.91757495-.46566401-1.21708327.127-.13335.68121476.48013141 1.05445453.95073518.82091476.31009165-.15416477.44414808-.5171731.32279165-.83431855l3.63184792-1.80445831c.17956477.28821856.54962687.40040189.86007306.24623976.47025188-.23353976.54327687-.94826665-.08008143-1.25342119m-8.5068829-21.1063414c-.62547497.22366287-.6586352.88264999-.27728332 1.19168332L8.57316927 6.30628879c-.4332102-.2310712-1.02764161.05573713-.99059995.71896022.225425.65651856.9433295.6727481 1.2340166.23495.19155833-.2885731.12594167-.669925-.13758332-.88370832l2.24225633-3.3792583c.29950831.15980834.67592307.07196667.86748139-.21695832.2906871-.43744356-.00351896-1.09290643-.6960314-1.04528143"/><path d="M14.95562539 11.6805054c-.6237102-.22789621-1.07068139.25787878-.97472495.73942044l-3.88408314 1.16734165c-.18556022-.45437689-.82585185-.61347878-1.2209647-.0797269-.24623712.64911023.29562952 1.1204231.79868972.96908143.33196476-.09948333.5249333-.4346231.45896475-.7676462l3.88408314-1.16734165c.12805832.314325.4741333.48753977.80574352.38770454.5030602-.15098977.69567686-.84313976.13229166-1.24883332M4.8400759 40.87850881c.29209998.5965481.95073518.5559769 1.2153185.1425231l3.60856459 1.85102498c-.18132689.45649356.17003976 1.01494166.82514806.90416855.6272371-.29739166.5630333-1.01282498.09595379-1.2523602-.30832688-.15804622-.67980186-.0508-.86289352.23530188l-3.60856459-1.85102497c.12523787-.31538333-.00423333-.68015643-.31256021-.8382-.46707688-.23953522-1.08549805.12594167-.96096662.80856666m-2.85150175 5.76050827c.5319871.39758143 1.09960827.06067689 1.14652683-.42791856h4.05553313c.04691856.48859545.61453974.82549999 1.14652684.42791856.42262952-.55068523.03915833-1.15816855-.48612687-1.15816855-.34642688 0-.62794353.26528712-.66039997.60324999H3.13510098c-.03245643-.33796287-.31397308-.60325-.66039996-.60325-.5252852 0-.9087564.60748333-.48612687 1.15816856m11.60638654-40.1097745c.39758141-.53198712.06103143-1.09960832-.42791854-1.14652688V1.32718242c.48894997-.04691857.82549995-.61453977.42791854-1.14652688-.5506852-.42262954-1.1581685-.03915834-1.1581685.48612689 0 .34642689.26528975.62794355.60324996.66039999V5.3827157c-.33796021.03245644-.60324997.3139731-.60324997.6604 0 .52528521.6074833.90875642 1.1581685.48612688m5.32235807 26.32357277c.39758142-.53198976.06103144-1.09960832-.42756664-1.14652952v-4.05553329c.48859808-.04691856.82514806-.61453711.42756664-1.14652688-.5506852-.42262689-1.1578166-.03915833-1.1578166.4861269 0 .34642953.26493785.6279462.60324996.66039998v4.05553329c-.3383121.03245643-.60324997.3139731-.60324997.66039999 0 .52528787.60713141.90875642 1.15781661.48612953m-1.13841207 4.99603706c-.62371284-.22895189-1.07138782.25576477-.97648972.73765833l-3.8865517 1.15887498c-.18450453-.45508332-.82479616-.61524355-1.2209647-.08255-.24765.64875833.2935102 1.12112953.79692495.9711981.33196476-.09913144.52563975-.43391666.46037498-.76693976l3.8865517-1.15887499c.12770643.31467954.47307498.4882462.80503973.38946666.50341475-.15028333.69708974-.84172688.13511476-1.24883332m-4.11233123 13.40802484c-.50517687.4310962-.30162498 1.05903975.1647481 1.21249808l-.89358783 3.95604996c-.4871852-.06208977-.94050375.41733522-.67027686 1.02376021.44414808.53375454 1.12112684.29351287 1.2368397-.21872045.0765519-.33796287-.1202981-.67098333-.44273785-.7771712l.89358783-3.95604995c.33690188.04303977.65757687-.17321213.73377686-.511175.11571023-.51223332-.39228975-1.02023332-1.02234995-.72919165"/><path d="M9.52602377 39.1283774c-.53763331-.38981856-1.10031472-.0448019-1.14017949.4445l-4.05517859.05856287c-.053975-.4882462-.6261814-.81668143-1.15252494-.41133977-.41451475.55668333-.022225 1.1585231.50270831 1.15111476.34642688-.00529167.6240621-.27446287.65157876-.612775l4.05518123-.05856287c.03739356.33725643.32279165.59866476.66921853.593725.5249333-.0077523.89958329-.62053523.46919619-1.165225m11.97010129-25.64694323c-.25470643-.61347878-.91439996-.61383333-1.20438327-.21766212l-3.48720816-2.07080641c.20954999-.4441481-.10653977-1.02340832-.76729163-.95320643-.64452497.25788143-.62476853.97578332-.17321476 1.2438962.29809809.17709355.67521663.09277878.87594806-.18132955l3.48685626 2.07080642c-.14463976.30726855-.0381.67874355.25999545.85583976.45155641.26811022 1.0911416-.05820834 1.00929805-.74753787M10.15185063 52.160342c-.61594997-.24800189-1.07844161.2226019-.99871472.70696666L5.23271755 53.9062401c-.17039166-.46072954-.80539163-.6406462-1.21778971-.1202981-.26740378.64064355.25893975 1.12959354.76658783.99518521.33478521-.0889.53904354-.41733522.48365831-.75247499l3.92041837-1.03857688c.11818143.31855833.45790641.50270833.79304352.41416022.50764808-.13440833.72284163-.81985378.17321476-1.24389354m5.03590164-6.4851147c.15663333-.64522879-.3760602-1.03505-.84384352-.88617689l-1.59349802-3.72956662c.43109619-.23495.51787951-.88935188-.05679546-1.22237498-.67239617-.17215644-1.08055828.4191-.87418329.90205188.13617046.31855833.4907121.47342954.8142102.37041666L14.2271402 44.839144c-.2980981.16263144-.43144809.52563977-.29527499.8441981.20637499.48295189.91545829.59689999 1.25588706-.00812271M4.7829259 23.66401357c.53198975.39757879 1.09960828.0606769 1.14652684-.4279212h4.05553313c.0469212.4885981.61453974.82549999 1.14652948.4279212.42262688-.55068787.03915833-1.1581712-.48612952-1.1581712-.34642687 0-.62794353.26528978-.66039996.60325H5.92945274c-.0324538-.33796022-.31397044-.60325-.66039997-.60325-.5252852 0-.90875374.60748333-.48612687 1.1581712m7.56567272 9.74724723c-.08431476.65863787.48789165.9870731.93662496.78775454l1.99531013 3.53059995c-.40251855.28116212-.41627688.94121022.19155832 1.20861665.68756474.09701213 1.02764161-.5358712.7690564-.9930712-.17039166-.30162499-.53974998-.41592499-.84984163-.27798711l-1.99566467-3.5309545c.27834166-.1943788.37076855-.56973522.20037689-.87171212-.25858522-.45719999-.97578328-.49212499-1.2474204.1467538m7.17902654-2.7798871c.39758142-.53234166.06103143-1.09960832-.42791854-1.14652952V25.428959c.48894997-.04691856.82549996-.61418522.42791854-1.14652688-.5506852-.422275-1.1581685-.03880644-1.1581685.48612689 0 .34678143.2652871.6279462.60324996.66039999v4.05588518c-.33796285.03245643-.60324997.3136212-.60324997.6600481 0 .52528522.6074833.90875642 1.1581685.48648142"/></g></svg>