<svg xmlns="http://www.w3.org/2000/svg" xml:space="preserve" viewBox="0 0 37.599289 58.989155"><g fill="#231f20"><path d="M12.32747247 58.88095722c.47801474-.46108143.23706665-1.07526665-.2377731-1.20050452l.65334618-4.00261662c.49000831.03245644.91369352-.47342689.60677687-1.06256665-.47519165-.50588333-1.13664995-.22507046-1.2213166.29315833-.05573978.3421962.16086665.66251666.48930186.7489481l-.65334353 4.0026166c-.33866665-.022225-.6459352.212725-.70167496.55456667-.08466666.51858332.45296664.99483332 1.06468328.6663981m9.27346809-2.67158785c.57008975-.34113522.47413331-.99377498.03986477-1.22307877l1.54128515-3.75143973c.46989998.1425231.99694995-.25470643.83114617-.89781855-.34889809-.600075-1.05621661-.47625-1.2558897.009525-.13158523.320675.00669395.68156666.30726854.83996212l-1.54128515 3.75143972c-.32490832-.098425-.6769814.06138333-.80891852.38170643-.1993212.485775.21660378 1.07138522.88652874.88970378m4.120446.99342309c.57220377-.33760832.48048331-.99130642.047625-1.22308142l1.56386205-3.74191208c.46919618.14534356.99871472-.24835643.83714162-.89288142-.34536854-.60219166-1.0537454-.4826-1.2562416.00211666-.13370189.31961667.00283104.68156666.30197953.84172689l-1.5638647 3.74191472c-.32455642-.10018977-.6776852.05715-.81138973.37676667-.20249355.48471666.20990453 1.07279809.88088783.89534998"/><path d="M21.65138866 58.56310269c.39758142-.53234166.0606769-1.09960832-.42791854-1.14652689v-4.05588517c.48859544-.04692121.82549996-.61418787.42791854-1.14652953-.5506852-.422275-1.1581685-.0388038-1.1581685.48648143 0 .3464269.26528711.62794356.60324997.6600481v4.05588517c-.33796286.03245644-.60324997.31361856-.60324997.6604 0 .52493332.6074833.90840188 1.1581685.48612689m-7.59389318-6.03920182c.16580379.64311476.81914996.7362481 1.1616954.38452689l3.16159605 2.53999997c-.26952309.41063332-.0377481 1.02834809.62582687 1.05163142.6745102-.16439356.75600186-.87806476.34642688-1.20720642-.27022689-.21695833-.6554602-.18661856-.89252685.0567981l-3.1615934-2.54035186c.18626665-.28363333.13299544-.66675-.13723144-.88370833-.40922308-.32914166-1.08867305-.09560454-1.1041935.59831023"/><path d="M11.23950586 54.50651107c.53198974.39758143 1.09960827.06103144 1.14652683-.42791856h4.05553313c.0469212.48895.61453974.8255 1.14652949.42791856.42262687-.55068522.03915833-1.15816855-.48612952-1.15816855-.34642688 0-.62794353.26528977-.66039997.60325H12.3860327c-.03245379-.33796023-.31397044-.60325-.66039996-.60325-.5252852 0-.90875375.60748333-.48612687 1.15816855m15.51516587.62688787c.05715-.66181287-.5284602-.96625832-.96837495-.74824166l-2.1399499-3.4452295c.39052499-.29774356.37676666-.95743711-.24165188-1.19944355-.69073973-.06843977-1.00435828.57785-.72707496 1.02411476.18273712.29421667.5566833.39334546.86077685.24235833l2.1399499 3.44522686c-.269875.2060231-.34678142.58490643-.16404166.87912309.27728332.44626212.99553972.45155378 1.2403666-.19790833M16.69239081.01257653c-.60324997.27834166-.57749543.93768332-.17039166 1.21179165l-1.93216203 3.56552495c-.45226285-.19155833-1.01847115.14710834-.92251472.80433333.28292688.63358976.99941851.58596476 1.2498916.12417954.1651-.3044481.06596856-.67839166-.21589999-.86783332l1.93251657-3.5658795c.31256022.1326462.67980187.01164167.84490186-.29280379.25047309-.46178787-.10089356-1.08867309-.78634163-.97931286"/><path d="M16.33467416 6.8726931c.00105834-.66427878-.6078352-.91827877-1.0279935-.66427878L12.8852141 2.9554496c.36371475-.32949356.29492309-.98601476-.34148976-1.17545643-.69426663-.00986896-.95249995.6604-.63887876 1.08161666.20707878.27798976.58772687.3453712.87841663.16933333l2.42146654 3.25331662c-.25153142.2278962-.29633332.6120712-.08960643.89005832.31361854.42121667 1.03011017.36618333 1.21955183-.301625m8.21725414-3.68476207c-.65934163.07796212-.8392583.71296212-.53657497 1.09960832l-2.9407563 2.79294163c-.37076854-.32208787-1.01388328-.17533143-1.1260666.47907045.073025.69038787.7690564.866775 1.15005638.50517954.25117688-.23883144.27269544-.6247712.0635-.892175l2.94075364-2.79294162c.25611665.2226019.64311474.22119166.89429162-.0172773.38064808-.36159545.2405962-1.06609354-.44520377-1.17439544"/><path d="M8.1982079 6.73405144c.60183975.28151667 1.0893795-.16333522 1.03575639-.65157878l3.97121836-.82338332c.1453462.46884166.7694083.68332878 1.20967494.18591212.30162499-.62476856-.19684999-1.14194165-.71119996-1.03504999-.33937044.07020454-.56091664.3869981-.52422687.72460643l-3.97121836.82373522c-.10018977-.32455379-.42968332-.52705-.7690564-.45684545-.51434998.10689166-.7662333.77928522-.2409481 1.23260377"/><path d="M11.8127706 3.2916477c-.35736475.55950378.01976437 1.10101854.51046853 1.11195377l.29633332 4.04494995c-.4840102.08255-.77822685.6731-.34289998 1.17474999.57996664.381 1.1578166-.04550834 1.11936471-.56938333-.0254-.34572045-.31044619-.60712878-.64981663-.61453712l-.29633332-4.04494995c.33478521-.05715.5789083-.35701287.5535083-.70273332-.03845453-.523875-.67204162-.86183786-1.19062493-.40005"/><path d="M7.32825795 9.64270595c.65616663.10265833 1.00047949-.4600231.8135064-.9140481l3.58528125-1.89582687c.26987499.4099269.92886208.44238333 1.21355373-.15769166.11606477-.68438976-.50694164-1.04210643-.9711954-.7965731-.30621287.161925-.4310962.52810833-.301625.84208143L8.08249769 8.61647452c-.1869731-.28363333-.5595064-.38664355-.86606852-.22471856-.46425641.24553333-.51928974.96167045.11182879 1.25094999m10.71985778-3.46604162c-.6170083-.24518144-1.07738328.22754166-.99518518.71155188l-3.91548124 1.0569231c-.17286022-.4596712-.80856662-.63676477-1.2184935-.1143-.26458332.64205378.26387688 1.1285352.77117307.99165832.33443331-.09031288.53692687-.41980644.48012876-.75459166l3.91583314-1.0569231c.11923977.3178519.46002308.50059167.7944564.41028144.50729353-.13687954.7189602-.82303143.16756855-1.24459998m4.97099142-1.63971286c.01621896.66392953.63147307.90205453 1.04457495.63711666l2.5057813 3.18911283c-.35524808.33866667-.26952308.99306855.37182688 1.16592878.69426664-.0081227.93486283-.68509355.61030641-1.09784355-.21413522-.2726981-.59654807-.3298481-.88229806-.14675643l-2.50577866-3.1887583c.24588521-.23459545.28045831-.61947688.066675-.89217498-.32455643-.41275-1.03928329-.33901856-1.21108782.333375"/><path d="M19.85469065 5.87362645c-.66286853.0440981-.87524162.66886666-.59301853 1.07068143l-3.08116008 2.63701474c-.35313142-.34078333-1.00329994-.22754167-1.14899804.42051022.03704166.69320832.72319352.90522688 1.12218517.56373976.26352499-.225425.30479999-.60959999.10971477-.88758976l3.08080817-2.63736663c.244475.23565643.63076664.2543519.89393973.0289269.39934354-.34148712.29562688-1.05233522-.38347119-1.19591666m5.47581639-.94226855c.19685.63429356.85407496.695325 1.17898328.3273769l3.28224604 2.3823083c-.24906286.42333333.01235604 1.02905453.67662686 1.01988142.66533974-.19755643.7119064-.91439999.28680832-1.22272688-.28045832-.20355454-.66392686-.15416477-.88899996.10018713l-3.2818915-2.3823083c.17215643-.2928038.10018977-.67274546-.17991665-.8763-.42509809-.30832689-1.09219995-.04197879-1.07385639.65158143m-.21378332 5.53402493c.05468143-.66181022-.5319871-.96414165-.97084351-.74471476L21.9928784 6.283556c.38946666-.29915643.37359166-.95884999-.24588785-1.19873976-.6907371-.06561666-1.00224162.58173144-.72319353 1.02693522.1837981.29351287.55809353.39123143.86148329.23918333l2.1526499 3.43746662c-.26916856.20672954-.34466476.58596477-.16051477.87982954.2786962.44485189.99694995.44767499 1.23930827-.2028481m-11.69422819-.64699357c-.56867952-.34360643-1.10031472.04691856-1.09925639.53798522l-4.03613123.39758143c-.09454356-.4818962-.69214996-.7612962-1.18286206-.3136212-.36653786.58949166.07478712 1.15640642.59725186 1.10489999.34501665-.03386667.59901664-.32561212.5983102-.66498522l4.03613123-.39758144c.06526477.333375.37112309.56973787.71613974.5358712.52281664-.05150643.84490185-.69356286.37041665-1.20014998m17.656526 36.28672c-.0409231-.66286855-.6649852-.87771022-1.06785828-.59725189l-2.62431464-3.09209806c.3421962-.3520731.231775-1.00259355-.41557043-1.15111476-.6932083.0342212-.9084045.71966666-.56832497 1.1200712.22401211.26422878.60854163.30726855.88723518.11324166l2.6239601 3.09209542c-.23671212.24341666-.25682045.62970833-.0324538.89393976.33972499.40040189 1.05092495.29986022 1.19732684-.37888333m-17.42545745 2.4874352c-.66392686.01304396-.90522685.62723976-.6420564 1.04175453l-3.20075174 2.4906102c-.33725642-.35701023-.99201018-.27410834-1.1676935.36653522.0049477.69391476.6805083.93803786 1.0950204.6152462.27340453-.212725.33267119-.59478333.15063786-.88159166l3.20075174-2.4902583c.23318522.24659167.61806664.28327879.89182306.0705538.4145121-.32279167.34395831-1.03751856-.32773142-1.21285"/><path d="M27.39425694 7.3739912c.12170832-.65299165-.43109354-1.01353142-.89041019-.83961021l-1.79140634-3.63854996c.41804164-.25823333.46919618-.91616476-.12241212-1.21778975-.68086284-.13581856-1.05621662.47660189-.82444163.94791476.15310379.31079545.51540831.44591022.8329083.32596666l1.7914037 3.63854995c-.28857045.1781519-.40251855.54786212-.24941212.85866022.23212689.47131023.94650185.54715833 1.2537704-.07514166m2.70792296 34.16970146c.39440642-.53445833.05468144-1.09996021-.43462308-1.14405832l-.02362729-4.05553328c.48824354-.04974167.82161852-.61947689.42086475-1.14899809-.5531564-.41945189-1.15817115-.0324538-1.15499615.49283143.00185209.3464269.26881666.62653333.6071314.6568731l.0236273 4.05553328c-.33760832.03457046-.6011333.3175-.59936853.66392689.003175.52528522.61277497.90487499 1.1609916.479425m-6.9902913-.81668144c.39722687-.53198711.06067688-1.09960832-.42791855-1.14652688v-4.05553328c.48859543-.04691856.82514542-.61453976.42791854-1.14652688-.55103974-.42262954-1.1581685-.03915833-1.1581685.48612689 0 .34642689.2652871.62794355.60324997.6604v4.05553327c-.33796286.03245644-.60324997.3139731-.60324997.6604 0 .52528522.60712876.90875642 1.1581685.48612688m-.93979995 5.07576661c.65299163.12206287 1.01353138-.43074166.83996473-.89005833l3.6392536-1.78999354c.25788143.41768977.9154583.46919356 1.21743782-.12241476.13617045-.68050833-.47589808-1.05621666-.94720829-.82444166-.31114998.15275454-.44661664.51505643-.32632119.83290832l-3.6392536 1.78999619c-.17815454-.288925-.54786475-.4025212-.85866284-.24976667-.4713102.231775-.5471583.94615.07478977 1.25377045M8.2617079 14.95271611c-.31679354-.5838481-.97296018-.51540833-1.22025827-.09101666l-3.6837036-1.69686021c.16192499-.46355-.212725-1.00682953-.86218973-.86818787-.6141852.3234981-.51999354 1.03540453-.04303977 1.25518332.31467952.14499167.68121473.02188104.85231283-.27163712l3.6837036 1.6968602c-.11218332.320675.03245644.6790981.34713332.82408977.47730831.21977879 1.07949995-.17145.92604162-.84843143m11.63319942-9.00183132c-.23424355-.62159356-.89358519-.64346666-1.1962685-.25682046l-3.41771006-2.18369618c.22366021-.43709166-.07337954-1.02658332-.73554163-.97789999-.65263974.23636287-.65652118.95461666-.21413787 1.2375462.29209999.18661856.67204164.11465189.88123973-.15275454L18.63019905 5.800956c-.15486856.30232878-.060325.67733332.23142309.86395188.4427352.2829269 1.09290638-.02256896 1.03328518-.7140231"/><path d="M27.6433198 42.163876c.5319871.39758143 1.09960828.06103143 1.14652684-.42791856h4.05553313c.04691856.48895.61453974.82549999 1.14652684.42791856.42262952-.55068523.03915833-1.15816855-.48612688-1.15816855-.34642687 0-.62794353.26528712-.66039996.60325h-4.05553313c-.03245644-.33796288-.31397309-.60325-.66039997-.60325-.5252852 0-.90875639.60748332-.48612687 1.15816855M7.51487915 38.40009082c-.46989998.46954545-.21801666 1.07949998.25893711 1.19626854l-.5824352 4.01355185c-.4903602-.0236273-.90522685.48965643-.5880814 1.07314998.48436474.49706477 1.14053137.20496477 1.21602493-.31467689.04974167-.3429-.17250832-.65969355-.50235377-.74012688l.5824352-4.0139064c.33901855.01658938.64205641-.22366022.69179807-.56691475.07549356-.51964166-.47060641-.98636666-1.07632494-.64734545m.45825831-19.36291453c-.63852951-.18344356-1.04986662.33231666-.92074996.8060981l-3.79306647 1.4361583c-.21660643-.44061855-.86677496-.55421476-1.22343327.00600605-.20037953.66463332.3732371 1.09678521.86465829.91087045.32384998-.12276667.4931833-.47060379.40392877-.79798333l3.79271458-1.43615831c.15028332.3044481.50729354.45296666.83114352.3302.49142118-.18591213.63499997-.88970379.04480454-1.25518332m-3.74120815-4.35469501c.1305269.65122689.77787496.77963711 1.1391185.44732045l3.01942486 2.70792307c-.29139355.39511023-.09383977 1.02446665.56761853 1.08373332.68227307-.12770644.80257117-.83573143.41133975-1.18674355-.25788142-.2310712-.64452497-.2215462-.89429162.00846667l-3.01907295-2.70792307c.20143786-.2734019.16898143-.65863522-.0889-.89005832-.39087687-.35066023-1.0819685-.15451667-1.13523707.53728143m2.11948702 11.13684152c-.3665352-.55386286-1.01458707-.4282731-1.22343327.015875l-3.81811193-1.36772119c.12065-.47589545-.29986022-.98424998-.93486018-.78951665-.58349618.37570833-.42756665 1.07703142.06702689 1.25412498.32596665.1167712.6805083-.03774546.82514541-.34501666l3.81776269 1.36772119c-.08325644.32914166.092075.67380378.41839354.79057499.49424164.17744546 1.06009805-.26528977.84807685-.92604166m25.29910517-.17180454c.64064352.17603788 1.04598517-.34466212.91157684-.81667878l3.77578125-1.47990452c.22189545.4377981.87347685.54433787 1.22343327-.02010833.19261666-.66675-.38593975-1.09255188-.87488972-.90099355-.32279165.1266481-.48789165.47624999-.39475832.80292309l-3.77613314 1.47990188c-.15345833-.30303523-.5122333-.4473231-.83502496-.320675-.48894997.19155833-.6240621.89711476-.02998523 1.25553522M26.85027363 2.8344477c-.53234164-.39758143-1.09960828-.06103144-1.14652684.42791856h-4.05588502c-.04656667-.48895-.61418785-.8255-1.14617494-.42791856-.42262952.55068522-.03915833 1.15816855.48612687 1.15816855.34642688 0 .62794353-.26528977.66004807-.60325h4.05588502c.03245644.33796023.31361855.60325.66039997.60325.5252852 0 .90840185-.60748333.48612687-1.15816855m-8.00558483 9.88024533c.1019519-.65616665-.4610814-1.00012498-.91510639-.81244544l-1.89970823-3.58316473c.40992952-.27058143.44132497-.92956855-.1591019-1.21355642-.68438973-.11535833-1.04139994.508-.79516018.97225642.16227689.30585833.5284602.43038977.84207875.30056667l1.89970824 3.58316472c-.28327878.18697046-.3859371.55985833-.22366022.86606855.24623976.46425644.96237685.51823144 1.25094994-.11288977m8.63564767 12.82417938c-.0536231-.66216476-.68156664-.86501286-1.07914805-.5771462L23.71902 21.91972436c.33549165-.3584231.21272499-1.00682689-.43744619-1.14299999-.69250186.0472731-.89429162.7366-.5471583 1.13065188.22930642.2599981.61453974.29562954.8893545.09630833l2.68216842 3.0420045c-.23212688.2480019-.24482688.63429356-.015875.89429166.34748521.3940519 1.05656851.2801038 1.19027305-.40110833M2.07398776 39.42737793c.64346663.1651 1.03998707-.3623019.89746662-.83220189l3.7503786-1.54375642c.22930643.43391667.88229806.52916666 1.22308138-.04092045.18097499-.669925-.40498976-1.08584999-.89041019-.885825-.32067498.13193713-.47977952.48436213-.38099998.80927046l-3.75038125 1.5441083c-.15874999-.30021211-.51999353-.43850188-.84031662-.30656211-.48577498.200025-.60889353.90769544-.00881063 1.2558871"/><path d="M15.5592704 4.24485147c.61947687.23953788 1.07526662-.23741855.98883519-.72072499l3.90595624-1.09219998c.17674166.45790643.8138583.62935643 1.21919994.10336477.25858521-.6441731-.27410832-1.12606666-.77999163-.98460189-.33372952.09348523-.53339997.42474356-.47342952.758825l-3.9059536 1.09219998c-.12241476-.3167962-.4646083-.49635833-.79833783-.403225-.5058833.14146213-.71155186.82973333-.15627878 1.24636211m13.03196147 6.37222493c.20073142-.63323523-.30374165-1.05868522-.78069542-.94226856l-1.33279614-3.83046018c.44626475-.20496477.57784997-.85160642.02751666-1.22343332-.65898709-.2183712-1.10666207.3436038-.93415374.83961022.11394545.3273769.45684543.50588333.78669352.42545l1.3327935 3.83046018c-.30867878.14181666-.46672498.4945962-.35277688.8219731.17250832.49600642.87206662.65863521 1.2534185.07866855"/><path d="M22.58060528 9.93586428c.53198975.39757878 1.09960828.06102879 1.14652684-.42756666h4.05553313c.0469212.48859545.61453974.82514544 1.14652949.42756666.42262687-.55068787.03915833-1.15781665-.48612952-1.15781665-.34642688 0-.62794353.26493522-.66039997.60324999h-4.05553313c-.03245379-.33831477-.31397044-.60325-.66039996-.60325-.5252852 0-.90875375.60712879-.48612688 1.15781666m5.3960895 16.05491646c-.53198974-.39758143-1.09960827-.06103143-1.14652948.42791856h-4.05553313c-.04691856-.48895-.6145371-.82549999-1.14652684-.42791856-.42227498.55068522-.03915833 1.15816855.48612687 1.15816855.34642953 0 .62794618-.26528977.66039997-.60325h4.05553313c.03245644.33796023.31397309.60325.66039997.60325.52528784 0 .90875639-.60748333.48612951-1.15816855M9.35214572 29.60886782c-.6417045-.17250833-1.04422305.35030833-.90699162.8219731l-3.76731458 1.50106854c-.22471855-.43673712-.87629996-.53939545-1.22343327.02681287-.18873522.66816022.39228975 1.09043522.8801814.89605378.3217333-.12841022.48506853-.47871855.39017043-.80503711l3.76766648-1.50107119c.1552231.30197954.51470451.4441481.83678973.31608977.48789164-.19438144.61912496-.90064166.02293937-1.25588976"/><path d="M25.14318205 8.5931912c.18873787.63676475.8449045.70590832 1.17474994.34219355l3.25119984 2.42499618c-.25470378.41980378-.00105834 1.02869998.66322307 1.02834544.6678083-.18873522.72354807-.90487499.30268332-1.21919998-.27798976-.2070788-.66216474-.1626288-.8900583.0889L26.394132 8.83378475c.17603786-.29033523.10900833-.67133522-.16897878-.87841666-.42086475-.31397045-1.09149616-.05644356-1.08197116.6378231m4.27425621 41.02064494c.41133975-.52140378.08995833-1.09749165-.39758141-1.1574621l.1072462-4.05412306c.48965377-.03421856.84137496-.59266666.45790377-1.13488522-.53939543-.43673976-1.15675828-.0694981-1.17051661.45543523-.00918104.34642689.24835642.6346481.58561285.6759231l-.1072462 4.05447494c-.33866666.02328333-.6113621.29774356-.6205352.64417045-.01375834.52493333.58349353.92427953 1.1451166.51646666M2.84233772 30.41355569c.62829542-.21448977.6713352-.8727731.29421665-1.18780453l2.290937-3.34644996c.42968332.23706667 1.02799616-.04092046 1.0004795-.70449545-.2155481-.6596962-.93344995-.68650643-1.23013781-.25294166-.19579166.28575-.13581856.66780832.12488332.88547045l-2.290937 3.3468045c-.29703976-.16404167-.67486474-.08184621-.8706564.20425833-.29668521.43356212-.01198562 1.09290377.68121474 1.05515832m8.3869367 15.41885549c.1961462-.63464545-.31150188-1.05621665-.78775186-.93627045l-1.3606647-3.82058328c.44485452-.20849167.57149997-.85583976.01833562-1.22378786-.66039996-.2130769-1.10419615.3517212-.92780639.84666665.11641666.3263212.46037498.50235644.78986853.41945454l1.3606647 3.82058329c-.30762309.14393333-.46284354.49812045-.34678142.82444165.17638976.49494545.8770064.65228522 1.25412494.06949546m13.6676811-4.62491661c.6551083.10936288 1.00506207-.45014356.82267685-.90593332l3.60397672-1.85984354c.2659962.41275.92463139.45155643 1.2149666-.1456981.1231212-.68297689-.4963583-1.04704355-.96308328-.80609545-.30797499.15875-.4363852.52352045-.31009165.83890378l-3.60397672 1.85984619c-.1837981-.2853981-.55562497-.39228977-.86359995-.23318788-.46672498.2405962-.52881475.95638143.09913143 1.25200832m11.92706152-23.26428039c-.17956476-.63923333-.83467041-.71825643-1.16981017-.35948144l-3.2155684-2.4715602c.26070188-.41592499.015875-1.02869998-.6480545-1.03787309-.67062876.17921023-.73695187.89429166-.32032045 1.21461476.27481211.21096023.65934163.17215379.89111662-.0758481l3.2155684 2.4715602c-.18026855.28751476-.11888522.6695731.1559269.88053332.41627951.3203231 1.09043517.0723212 1.0911416-.62194545M13.23869742 37.37139083c-.0948981.65757689.47201664.99518521.92357306.80292045l1.9374537 3.56305639c-.40710378.27481477-.43179998.93415642.17144998 1.21179165.68579997.10795 1.03610829-.51893522.7852833-.98036855-.16545189-.3044481-.53269354-.4247462-.84525375-.2921l-1.93710444-3.56305639c.28116475-.18979356.37994164-.56373976.21448976-.86818522-.250825-.46143332-.96766852-.508-1.2498916.12594167m7.75723104-10.21503321c.6522852-.12453143.78704542-.77046665.4582583-1.13488521l2.73720177-2.99261473c.39228975.295275 1.02376017.10371666 1.08937684-.55703523-.1210019-.68368332-.82796852-.81068332-1.18251017-.42298143-.23389166.25576477-.2282481.64240833-.00079375.89429166L21.3602597 25.9357474c-.27128522-.20425833-.65687307-.17568333-.89076473.08007879-.35454164.38770454-.16509999 1.08055832.52634619 1.14053142"/><path d="M10.84651231 39.05555104c-.50764808-.4282731-1.09396471-.12594167-1.16981281.35912689l-4.0484767-.23988712c-.01799166-.49071477-.56444353-.860425-1.11901017-.4949481-.45437952.52458143-.1075981 1.15358332.41662877 1.18462688.34572309.02045229.6424083-.22754167.69497307-.56303333l4.0484767.23988977c.01235604.3393731.27763786.62088976.6233583.64135.5245814.03104355.94297495-.55245.55386284-1.127125m11.25466799 6.85553136c-.04550832.66286855.54504165.95708521.98107496.73166022l2.19886466 3.40783329c-.38523331.3044481-.36053975.96378976.26211211 1.19521021.69179807.0564462.9941295-.59513522.70943784-1.03646021-.18767953-.29104167-.56338785-.3838231-.86501283-.22789356l-2.19851012-3.4078333c.2663481-.21025643.33654998-.59054999.1488731-.8819462-.2850462-.44132499-1.00329995-.43391665-1.23683971.21942955M6.84812918 11.68916805c.60360187-.27728333.5792602-.936625.17250833-1.21143711l1.93921846-3.56199806c.45190831.19261666 1.01882305-.14499167.92427685-.80221666-.28186855-.63429355-.99836018-.58808143-1.24953706-.127-.16580643.3044481-.06738144.67839166.21378332.86853976L6.90915797 10.4170514c-.31256021-.13335-.67980186-.01304396-.8456083.2913962-.25117687.46143333.09877955 1.08831855.78457951.98072045m27.11273386 27.96434131c.49882688-.43850189.28645643-1.06327309-.18238522-1.21002688l.8360833-3.96839805c.48789164.05468143.93450828-.43109356.6551083-1.03363711-.45155642-.52705-1.12500828-.27728333-1.23331282.23671212-.07161212.33901856.130175.66921855.45402498.77081855l-.8360833 3.96839805c-.3376083-.0381-.6551083.18273977-.72636852.52175833-.10830189.5139981.40710642 1.01423522 1.03293328.714375M13.85958716 27.28900118c-.6515814-.12805833-1.01776472.42086477-.8484314.8819462l-3.65654148 1.7543621c-.25399998-.42051022-.91122495-.47836666-1.21884804.11042121-.142875.67909545.46566664 1.06080188.93944806.83361212.31220832-.1499288.45120187-.51082046.33408142-.82937879l3.65654148-1.75471664c.17568333.29068712.5439833.40816212.85654352.25823333.47342687-.22718977.55633141-.94050643-.06279356-1.25447953"/><path d="M7.13987463 36.2622575c.57714617-.32878976.4960064-.98354619.066675-1.22202308l1.62277945-3.71686662c.46672498.1524 1.00224162-.23283333.85089996-.87947499-.3358462-.60783522-1.04563328-.49917878-1.2558897-.01799167-.13864167.3175-.00812272.68156666.28857308.84666666l-1.62277946 3.71686662c-.32279165-.10548144-.67839163.04621477-.8170333.36371477-.21025377.48154166.1929712 1.07597044.86677497.90910832m15.7829242-14.03314793c-.65087497-.13229166-1.02058518.41416287-.85442685.87629999l-3.66783126 1.73072952c-.25082498-.4219231-.90804995-.48436476-1.21955183.1023038-.14710833.67839165.45896475 1.06397952.93415639.83996475.31326665-.14781477.45437687-.508.33972498-.82761666l3.66782861-1.73072687c.17356666.2921.54116285.41169166.8544295.2638769.47519164-.22401477.56267876-.9369769-.05432954-1.25483143M4.74169141 15.93449754c.66392951.00132291.91863329-.60748333.6642814-1.02764166l3.25402295-2.42076284c.32914165.36406666.98566018.29562954 1.17510183-.34113523.01023938-.69391476-.65969353-.95249999-1.08126471-.63888143-.27798711.20672954-.34536855.58772954-.16968522.87806476l-3.25402294 2.42111474c-.22754166-.25188333-.61171664-.29668787-.88970375-.08995833-.42157119.31361856-.36653786 1.02975832.30127044 1.21919999M2.86138772 26.4059993c.66216209.05150644.96202495-.5362231.74047875-.9743731l3.42829604-2.16711209c.30056665.38805379.96026018.36935833 1.19767873-.25117954.0627962-.69109166-.5859621-.99977044-1.02975828-.71896022-.29315832.18520833-.38911211.55950643-.23600833.86254166l-3.42794149 2.16746664c-.20813711-.26846477-.58772687-.34219356-.88053329-.15733977-.44414543.28081287-.44344164.99906665.20778787 1.23895642"/><path d="M.80046092 21.14149747c.23882878.61982878.89852231.63711666 1.19838517.24835379l3.43287862 2.15935451c-.22048522.43885379.08078787 1.02587689.74259807.97260832.65087497-.2413.64981663-.95955642.20531665-1.23895642-.29351021-.1845019-.67274807-.11006666-.88018139.15875L2.06622488 21.2822558c.15275453-.30338977.05573977-.67768786-.23777045-.86218976-.44449997-.2794-1.09255184.03033977-1.0279935.72143143m30.57665868-5.5167397c.6113621-.2599981.60571853-.91969166.20672689-1.20614809l2.03940823-3.50555185c.4459102.20531666 1.02234995-.11606477.94614995-.77575833-.26352499-.64205642-.98107495-.61630188-1.24530637-.16227689-.17427045.29950833-.0864288.676275.18944165.87418332l-2.03940823 3.50555185c-.30832688-.14181666-.67909542-.03175-.85336852.26775833-.26423142.454025.06808523 1.09078976.7563564 1.00224166M20.55213228 39.07177793c-.35595188-.56056212-1.0061204-.44802689-1.22378516-.00775229l-3.79059792-1.44215642c.130175-.47342689-.28081021-.98989355-.91933708-.80750832-.5909045.3644212-.44838141 1.06856476.04268523 1.25518332.32384998.1231212.68121474-.02468563.83149806-.32878713l3.79059527 1.44215378c-.08995833.32737954.0790231.67521666.40287308.79833786.49071475.18697046 1.06503518-.244475.86606852-.90946286m3.48897293-6.79203664c-.6614583-.05856023-.96766851.52634355-.75071019.96661021l-3.4501665 2.1314833c-.29703975-.39123142-.95673328-.37958976-1.20050447.2384769-.06985.69038787.5753814 1.0057712 1.02234994.7298981.2945712-.18238523.39475832-.5559769.24482953-.860425l3.4505184-2.1314833c.20496475.27058144.58384807.34854356.87876851.16651287.44661664-.276225.45367308-.99448142-.19508522-1.24107308"/><path d="M19.5982221 40.54250935c.45120187-.48753976.17603522-1.08726021-.30515188-1.18533332l.42615377-4.03295638c.49106664.00457729.88547306-.52457879.54574808-1.095375-.5030602-.47801211-1.14758517-.16051211-1.2026185.36195-.03633788.34431288.19790832.65228787.53057687.7200212l-.42615642 4.03295374c-.33937044-.003175-.6328833.24906288-.66921853.5933731-.05503333.52246477.50870641.96766855 1.10066661.60536666m-9.57968095 2.29129164c.50094618-.43638523.29139619-1.06221476-.17674166-1.21108522l.8544295-3.96451661c.4875371.05715.9362704-.42686287.65969353-1.03081666-.44943975-.52881476-1.12394995-.2822231-1.23472305.23142046-.073025.33866666.127.6695731.45084998.77258332L9.7176226 41.5959029c-.33725642-.03915833-.65581474.17991666-.72883973.51858333-.11041856.5136462.40252118 1.01635453 1.02975828.71931476m.20143786-19.99614975c.5319871.39722954 1.09960828.06067954 1.14652684-.42791856h4.05553313c.04691856.4885981.61453974.8251481 1.14652684.42791856.42262952-.55103712.03915833-1.15816855-.48612687-1.15816855-.34642688 0-.62794354.26528977-.66039997.60325h-4.05553313c-.03245644-.33796023-.31397309-.60325-.66039997-.60325-.5252852 0-.90875639.60713143-.48612687 1.15816855m23.95819425 6.58107113c.51188141-.42333333.31855832-1.05445453-.14534355-1.2153212l.95602685-3.94123328c.48612951.0694981.94720828-.40251856.6861545-1.01317688-.43568141-.54045643-1.11618971-.31115-1.2400147.19931856-.08184356.33655.10971476.6727481.43038974.78387309l-.9560295 3.94123328c-.33619543-.0479769-.66004542.16298334-.74189162.49953333-.123825.51046856.37606286 1.02623143 1.01070828.7457731M18.9371157 26.7143262c-.24623712-.6166538-.90628519-.6261788-1.20120828-.23353713l-3.45898505-2.11772497c.21519355-.441325-.09313333-1.0248212-.75423973-.96378976-.64805187.24906022-.63817497.96731665-.19014545 1.24177688.29527498.1806231.67380376.1016.87806208-.16968523l3.4589877 2.11772497c-.1488731.3051519-.047625.67839166.24800188.85901476.44802688.27446023 1.09219995-.04339166 1.01952685-.73377953M2.0210711 31.754464c.66181019-.05750454.86112874-.68650643.57114542-1.08232309l3.02683318-2.6994564c.36018786.33372954 1.00788783.20708143 1.14017949-.44379356-.05115454-.69214999-.74153974-.89041022-1.13347495-.54080832-.25858786.23071666-.29209998.61594999-.0913712.89005832L2.50754986 30.5772428c-.24906022-.23071666-.63570376-.2413-.89429162-.01058333-.39193521.34960453-.27410832 1.05798142.40781285 1.18780452M35.5649444 17.6655763c-.60677951.27022954-.59019807.9299231-.1866212 1.2093231l-1.98014156 3.53941851c-.4494371-.19755379-1.02023329.13335-.93309542.79163333.27446022.6378231.99165829.5997231 1.24812684.14111287.16898143-.30233143.07514166-.67733333-.20425833-.87065643l1.98014157-3.53941852c.31114999.1368769.67980186.02082271.84913519-.2818712.25646855-.45825833-.08642879-1.08937688-.77328709-.98954165m-5.9210228 2.37983974c-.39758142.53234166-.06103144 1.09960832.42791854 1.14652688v4.05588782c-.48894998.04691856-.82549996.61418522-.42791854 1.14652688.5506852.422275 1.1581685.03915834 1.1581685-.48612689 0-.34678143-.26528711-.6279462-.60324997-.66039999v-4.05588782c.33796286-.0324538.60324997-.31361856.60324997-.66004545 0-.52528787-.6074833-.90875643-1.1581685-.48648143M13.79255762 46.04478428c-.27022688-.60677689-.9299204-.5901981-1.2093204-.18661856l-3.53906648-1.98049618c.19755378-.44943712-.13335-1.02058522-.7916333-.93344999-.63782307.27446287-.59972307.99165832-.14146476 1.24812953.30233142.16933333.6776852.07514166.87100829-.20390644l3.53906649 1.98049354c-.1368769.3107981-.0208227.67980453.28151665.84878332.4586102.2568231 1.08973138-.0860769.98989351-.77293522m-4.5254331-34.82234123c-.43144544.504825-.13264356 1.09325832.35172119 1.17228143l-.2659962 4.04671472c-.4907121.01481666-.86395185.55915188-.50235376 1.1161871.5221102.45755454 1.15322873.11500644 1.18780183-.40922045.02256896-.3457231-.22366021-.6438212-.55879997-.69849999l.26599355-4.04671472c.33972498-.01023937.62265451-.27375643.6455833-.61947689.0342212-.52422953-.54645187-.94650453-1.12394994-.5612712m20.5362535 23.08648305c-.15451665-.64593523-.80609806-.75035833-1.1546416-.40498977l-3.11679151-2.59503065c.27657688-.4056962.05609166-1.02764166-.60713141-1.06256666-.6773333.1531038-.77117307.86501022-.36759354 1.20120832.26634544.22154356.6522852.19790833.89358518-.0409231l3.11643961 2.5950333c-.19120642.28045833-.14463976.66427878.12170833.88617688.40357688.33584356 1.08690828.1146519 1.11442494-.57890832M9.12107453 46.4113195c.12841286.65158144.7750545.78210833 1.13770827.45085l3.0102544 2.71779997c-.29280643.39405453-.09701477 1.02446665.56409163 1.08584998.68262497-.12558712.80503708-.83361211.41521854-1.18533332-.25717499-.23247878-.64381853-.22401212-.89429162.00494771l-3.01025174-2.71744807c.20249355-.27269545.17109545-.65828332-.08607954-.89041022-.38981854-.3520731-1.08126207-.15804356-1.13664994.5337519m15.36699922-27.16742162c.39758142-.53198977.06067954-1.09960832-.42791854-1.14652953v-4.05553328c.48859808-.04691856.82549996-.61453712.42791854-1.14652688-.5506852-.422275-1.1581685-.03915834-1.1581685.48612689 0 .34642953.26528975.6279462.60324997.66039999v4.05553328c-.33796022.03245644-.60324997.3139731-.60324997.6604 0 .52528786.6074833.90875642 1.1581685.48612953m8.19326435 30.95413029c-.4483814-.49000832-1.0689166-.26528712-1.20649993.2060231l-3.98391836-.75811855c.04515379-.48894999-.44943975-.92568976-1.04633972-.6346481-.51823141.46213977-.25505832 1.13065189.26105642 1.228725.34042878.06455832.66639543-.1432269.76129353-.46919356l3.9842729.75811855c-.0313981.33796022.19543712.65122689.53586854.71613976.51611474.09807046 1.00612305-.42686287.69426663-1.0470462M12.51162246 36.12820107c-.39758142.53198977-.06103144 1.09960832.42791854 1.14652688v4.05553329c-.48894998.0469212-.82549996.61453976-.42791854 1.14652952.5506852.4226269 1.1581685.03915834 1.1581685-.48612953 0-.3464269-.2652871-.62794356-.60324997-.6604v-4.05553328c.33796286-.03245379.60324997-.31397045.60324997-.66039999 0-.52528522-.6074833-.90875378-1.1581685-.48612689m11.30053087-14.95848314c-.2501212-.61559545-.90981473-.62088712-1.20262115-.22648333l-3.47168506-2.0969102c.212725-.44273523-.09913143-1.02446666-.75988329-.95920189-.64664163.25294166-.6325314.97119545-.18273976 1.24283521.29668786.17921023.67451284.09736667.8770064-.17497689l3.47168505 2.0969102c-.14710833.30585833-.04339167.67839166.2532962.85760189.4494371.27163977 1.0918454-.05009356 1.0149416-.739775"/><path d="M33.61408162 25.92798453c-.19543711.635.31256286 1.05621666.7884583.93556666l1.36489803 3.81917306c-.44449997.20884356-.57044163.85654355-.01727729 1.22378521.66075187.2123731 1.10383897-.3527769.92709731-.84737045-.11676856-.3263212-.46107877-.50235643-.79022042-.4191l-1.36489803-3.81917305c.30762308-.14428523.46249164-.498475.34607498-.82479355-.17674166-.4945962-.87771019-.65122953-1.25412494-.06808788M19.81518042 51.81340731c.66251664.0479769.95920185-.54151476.73518974-.97825453l3.41629983-2.1858102c.30268331.38629166.96237684.36406666 1.1962685-.2575269.05891477-.69179809-.59125641-.99659808-1.03363972-.71367119-.29209999.1869731-.3859371.561975-.23106855.86395453l-3.41629983 2.1858102c-.20954999-.26705189-.58949164-.33866666-.88159162-.1520481-.44238331.28292954-.43779808 1.00118332.21484165 1.2375462M5.77850613 28.3060595c.47907308.4600231 1.08373328.19579167 1.19062494-.28363332l4.02484147.49882953c-.01375834.49071212.50835187.89464355 1.0851435.56550189.48683331-.49459356.180975-1.14441022-.34007688-1.20932309-.34395831-.04233333-.65581473.18626666-.72954352.517525l-4.02484147-.498475c.00918105-.33937045-.2374212-.63711666-.5813795-.67980189-.52105188-.06455833-.97613519.49106666-.62476854 1.08937688m12.33663915-7.2834499c-.65969617-.07796213-.98248783.4977712-.7782295.94438786l-3.51084339 2.0302352c-.28539809-.3996981-.94509162-.40710643-1.20685183.2035519-.08995833.6882712.54609997 1.02199809 1.00082874.75917953.29986286-.17356667.41063331-.54398333.26952309-.85301666l3.51084338-2.03023785c.19720454.27657954.57361664.365125.8738314.19155833.45473141-.26281855.48224808-.98036855-.15910189-1.24565831m14.24481141 15.7892748c.11218333-.65475643-.4459102-1.00718143-.90240375-.82655833L29.6125235 32.373589c.41416286-.26423144.45578975-.92251476-.14040378-1.2156731-.68262497-.12558976-1.04916282.492125-.8103314.95990833.15769166.30832689.5221102.43850189.83784806.31361856l1.84467491 3.61173972c-.28610453.18273712-.39440642.55386022-.23671476.86254166.23883143.46778332.95426472.53269355 1.25236017-.09383977m-13.04713269.99201021c-.53092876.3993462-.3668871 1.038225.08925454 1.22025832l-1.13700449 3.8932564c-.48224543-.092075-.9648454.35842309-.73236663.98036854.41028142.56021287 1.10066662.36230454 1.24812948-.14181666.09701212-.33266856-.0786712-.67697879-.39405452-.80292045l1.13700449-3.8932564c.33372688.0638519.66710186-.13193976.76446852-.46460832.14710833-.50411855-.32843521-1.04245832-.97543139-.79128143"/><path d="M30.15791967 51.87584898c-.18803142-.63711666-.84419806-.7073212-1.17439804-.34395833l-3.24802484-2.42887497c.25505832-.41945454.00211667-1.02869999-.66216474-1.02905453-.6681602.18803144-.7249583.9041712-.30409354 1.2184962.27728332.20778522.6618102.16368712.89005829-.08748978l3.24802483 2.42852308c-.17638976.28998333-.10971476.67098332.16756856.87841665.42086475.3146769 1.09149615.0578538 1.08302948-.63605832M1.24919159 17.15545965c.20461286.63182499.86218973.6850962 1.18286471.3136212l3.30976006 2.34385376c-.24412044.42580454.02434167 1.02869999.68862307 1.01176666.66286853-.20531667.70096853-.92251212.27234355-1.22625378-.28257499-.200025-.66569163-.14640454-.88758708.11077046l-3.3097627-2.34385377c.16898142-.2945712.09278142-.67380642-.19014546-.87418332-.42862498-.30338976-1.09255448-.02928144-1.06609615.66427879m28.11356525-9.27099989c-.05856023.66145833.52634618.96731666.96661282.75035833l2.13183513 3.45016662c-.39087688.29668787-.37923521.95673332.23883142 1.20014998.6903852.07020454 1.00576851-.57537878.72954353-1.02234998-.18203333-.29456856-.55562497-.39475833-.86042496-.244475l-2.13148322-3.45016662c.27022688-.20531667.34819164-.5842.16580642-.87876855-.27587309-.44696856-.99412949-.454025-1.24072114.19508522M16.11172038 53.60234252c.66392686-.01976438.89852496-.63641022.63111853-1.04810188l3.17464795-2.52377308c.34078331.35313144.99483328.263525 1.16381206-.37888332-.01198562-.69391477-.6900333-.93062689-1.1013704-.60395643-.27128786.2159-.3263212.59866476-.14146476.88335642L16.6638158 52.4547573c-.23565378-.244475-.62124163-.27693143-.89217495-.06138333-.4113371.327025-.33337499 1.04104545.34007952 1.20896855m14.24057809-25.38800347c-.39757878.53198712-.0606769 1.09960832.42792118 1.14652688v4.05553328c-.48859808.04691856-.82549996.61453712-.42792118 1.14652688.55068784.422275 1.15817115.03915834 1.15817115-.48612689 0-.34642953-.26528976-.62794355-.60324997-.66039999v-4.05553328c.3379602-.03245644.60324997-.3139731.60324997-.6604 0-.52528522-.6074833-.90875642-1.15817115-.48612688m-5.76897471-14.14638959c-.53339998-.39546477-1.09960828-.0567981-1.14476207.43215189l-4.05553313.01481666c-.04868333-.48859545-.61771474-.82302878-1.1482916-.42368522-.42015832.55245-.03457311 1.15816855.4907121 1.15640642.34642952-.00132292.62688783-.26740643.6579314-.6057212l4.05553312-.01481667c.03386667.33796287.31608976.60219166.66286853.60078143.52493331-.00211666.90628783-.61065832.48154165-1.15993331m-1.9692037 20.1894702c-.39228975-.53586856-1.03363972-.37994166-1.2213166.07373144l-3.87808768-1.18639166c.0980731-.48118712-.34642688-.96907878-.97119541-.74471211-.56514997.40287045-.37641475 1.09607878.12594166 1.2495371.33125832.1016.6780371-.06985.80786019-.38346855l3.87843957 1.18639165c-.06808787.33266856.12347046.66886666.45472877.77011212.50235641.15345833 1.04669162-.3150288.8036295-.9652m4.12573502-10.87155175c-.44061854.49671287-.15275188 1.09043786.33019999 1.17827953l-.34078332 4.0414204c-.49071474.00563563-.8738314.542925-.52246474 1.10631287.51329164.46742878 1.15076281.136525 1.19485827-.3869981.02892954-.34536856-.21166666-.6480519-.54574543-.70873143l.34078332-4.04142041c.33937044-.00388937.62723709-.26211477.65651853-.60713143.0440981-.5235231-.52881475-.95673332-1.11336662-.58173143M8.59684766 33.82809087c-.5570352.36159546-.43779809 1.01070832.00457729 1.22378522l-1.40334993 3.80506018c-.4748371-.12488333-.98707041.29104166-.7979833.92780642.37041665.5870231 1.07279806.43744356 1.25483138-.05538522.11959166-.32526288-.03175-.68086287-.33760832-.8283231l1.40334993-3.80506018c.32843521.0864288.6745102-.085725.7944564-.41098787.18167878-.49282879-.25541286-1.06256665-.9182814-.85689545m8.94327606-29.3578144c.65652117.09913144.99765638-.46566666.80821473-.91863332l3.57434338-1.9162871c.2723462.40851666.93133329.43709166 1.21249804-.1647481.11218333-.68509356-.51293974-1.03928332-.97578328-.79092689-.30515188.16368712-.42791854.530225-.29668522.84349166L18.2883574 3.43981436c-.18838333-.282575-.56162043-.3834712-.86712686-.21978143-.46284353.24835643-.51364353.96484809.11888523 1.25024354m-3.56129149.54609999c-.5630333.352425-.45402498 1.0033-.01516062 1.22378786l-1.46473326 3.78177685c-.47272308-.1329981-.99165829.27481477-.81315186.9144.36089165.59301855 1.06574161.45473142 1.25553517-.034925.12523522-.32314357-.0204523-.68121477-.32384999-.83361477l1.46473326-3.78177685c.3266731.0917231.67592307-.07478977.8008064-.39793333.18979355-.49000832-.23812499-1.06679998-.90417116-.87171476M31.18062152 41.728901c.59090186-.30303522.5379852-.96061476.11959166-1.21778975l1.78293968-3.6427833c.45966854.17286288 1.01176662-.18873522.88829352-.84137498-.30868142-.62159355-1.02270185-.54433522-1.25377304-.07267046-.1524.31115-.03774546.68050833.25153142.85830833l-1.78293968 3.64278328c-.31785188-.11959166-.67980186.01658938-.83220185.32808333-.23071666.47166212.14640188 1.08302688.82655829.94544355"/><path d="M20.33376373 9.79369307c.39758142-.53234166.0606769-1.09960832-.42791854-1.14652688V4.59128101c.48859543-.0469212.82549996-.61418787.42791854-1.14652953-.5506852-.42227499-1.1581685-.03880379-1.1581685.48612954 0 .34677879.2652871.62794355.60324997.6604v4.05588517c-.33796286.03245644-.60324997.31361856-.60324997.6604 0 .52493332.6074833.90840188 1.1581685.48612688M18.7148657 46.22152595c-.53234163-.39758144-1.09960827-.0606769-1.14652683.42791855h-4.05588502c-.04692121-.48859545-.61418785-.82549999-1.14652949-.42791855-.42227498.55068522-.03880379 1.15816854.48612952 1.15816854.34677877 0 .62794353-.26528712.66039997-.60324999h4.05588502c.03245644.33796287.31361855.60325.66004807.60325.5252852 0 .90875375-.60748333.48647877-1.15816855M29.4343716 18.47555584c-.64805186.14569545-.76164806.79586665-.4205102 1.14934998l-2.63772108 3.0811602c-.4018121-.2822231-1.02658328-.0702019-1.07032684.59266665.14358143.6790981.85407496.78281476 1.1959166.3838231.2250731-.2631731.2067269-.64946476-.02892689-.89393976l2.63736654-3.08116019c.2779871.19508523.66251663.15381023.88758708-.10936287.34184165-.39899166.1294712-1.08514355-.5633852-1.12253711"/><path d="M29.4311966 16.4640161c-.39758141.53198976-.06067689 1.09960831.42791855 1.14652687v4.05553329c-.48859544.0469212-.82549996.61453976-.42791854 1.14652952.5506852.4226269 1.1581685.03915834 1.1581685-.48612953 0-.3464269-.26528711-.62794356-.60324997-.6604v-4.05553328c.33796286-.03245379.60324997-.31397045.60324997-.66039999 0-.52528522-.6074833-.90875378-1.1581685-.48612689m-6.70242467 6.35670181c.66322307-.034925.88406019-.65687044.60713141-1.0622121l3.11643697-2.59538785c.34889809.3453712 1.00047949.2409481 1.1546416-.40498712-.02751666-.69356286-.71084542-.91510642-1.11442494-.57890832-.26634544.22189545-.3129121.60571855-.12135378.88617688l-3.11643962 2.5953852c-.24129998-.23882879-.62723974-.26281856-.89358518-.04092046-.40357952.33619545-.30938786 1.04810188.36759354 1.20085378m3.85550814-13.36181006c.58596474.31291476 1.09643328-.1051269 1.06926851-.59548977l4.009321-.60995189c.11994356.4758981.7316602.7235481 1.19767874.2504731.33513975-.60818976-.13546666-1.15076285-.65475376-1.07173975-.34254809.05185833-.58067307.35665833-.56197497.69567689l-4.0096729.60995453c-.0829019-.32914166-.40075642-.5489231-.74330186-.49706476-.51928975.079375-.8071564.73730642-.30656476 1.21814165m-11.73127251 17.9715581c-.33760832-.57220643-.99095185-.48048332-1.22307873-.0479769l-3.74120815-1.56492308c.14534356-.46919355-.24835642-.99871475-.8925295-.83714165-.60254352.34466476-.48330376 1.05304165.00132292 1.25588975.31961666.1337019.68156664-.00238125.84207875-.301625l3.74120815 1.56527499c-.10018712.32420189.0567981.67733332.37641475.81103522.48471664.2028481 1.07279805-.20955.89570185-.88053333M10.3540328 44.5299574c.21660642.62759166.87524162.66816023 1.18886281.29033523l3.35456196 2.27894353c-.23600832.43074167.04445 1.0279962.70802496.99836287.65898974-.2183712.6829795-.9359212.24870832-1.2311962-.28680832-.19473333-.66851209-.13335-.88547041.12770644l-3.3545646-2.27894353c.16298332-.2977462.079375-.67521666-.20743333-.86995-.43426854-.29527499-1.09290638-.00846666-1.05268971.68474166m21.66126178-24.83625991c-.1770962.63993712.34254544 1.04669165.81491663.91298711l1.47249348 3.7789564c-.43850187.22119166-.54609997.87206665.01764771 1.22343331.66639543.193675 1.09325828-.384175.90240375-.87347689-.12558712-.32279166-.4748371-.4885981-.80186209-.3961712l-1.47249613-3.77895374c.30338975-.15275454.44838141-.51152954.32243975-.8343212-.19049999-.48930189-.89570185-.62617878-1.25553516-.0324538m-15.04492195-.14463976c.65969353.07514167.98036851-.50165.77434806-.94720832l3.50272862-2.04469998c.28680832.39863977.9465045.403225 1.20579615-.20849166.08713522-.6886231-.54998141-1.01988142-1.0036545-.75494355-.29915377.174625-.40851664.54574545-.26634544.85372044l-3.50237937 2.04469998c-.19861211-.27551856-.57537876-.36300833-.87453518-.18838333-.45367308.26493787-.47871854.98283976.16404166 1.24530642m8.27158102-7.11517492c-.13476287-.65016855-.78281473-.77469998-1.14194161-.43991476L21.0636618 9.30509762c.28892498-.396875.08748712-1.0251731-.57467497-1.08020642-.68121474.13193976-.79692496.84102309-.40393142 1.18921475.25964355.22965833.6459352.21766212.89464352-.01375833l3.03600628 2.68887042c-.20002499.27446287-.16509999.6596962.09419166.88935453.39334809.34819167 1.08302685.14781213 1.13206472-.54468976m-15.38217044.06173523c.37570832.54786476 1.02129162.4120462 1.22308138-.0356288l3.83963314 1.30668711c-.11324166.47766287.31573521.97931287.94756018.7743481.57714618-.38523333.40992952-1.08373332-.08713522-1.25306665-.32808332-.1114769-.6801564.04903523-.81950186.3584231l-3.83963314-1.30668976c.07831667-.3302-.10265833-.67204165-.43074164-.7838731-.49706475-.16897878-1.05586472.282575-.83326284.9398"/><path d="M25.37989681 25.85460764c.66392686-.0141023.90416852-.62865.64029163-1.04281022l3.19616651-2.4966083c.33760832.35630379.99236472.27234356 1.16698971-.3683-.00600604-.69426665-.68227307-.93697952-1.09608138-.61348142-.27304999.21307689-.33161021.59548976-.149225.88194355l-3.1961665 2.4962564c-.23353976-.24623976-.61877307-.2822231-.89182306-.06879166-.41380831.32314356-.34219354 1.03787309.32984809 1.21179165m2.94922296-11.02465819c-.6201833.2377731-.63852951.89711476-.2504731 1.19803331l-2.16605632 3.42864806c-.43814998-.22119166-1.02587685.07866857-.97401852.74083333.24024166.65157878.95849806.65157878 1.23895638.20743333.18485378-.29280643.111125-.6723962-.15733977-.88018143l2.1657018-3.42899995c.30303785.15310643.67768783.0567981.86289616-.23600833.28045832-.4441481-.0282231-1.09255189-.71966663-1.02975832M14.3891057 7.43290598c-.64628974-.15275454-1.03293328.38170378-.88123973.84878332L9.7871207 9.8956476c-.2377731-.42968333-.89217495-.51258787-1.22202304.0638519-.16862689.67345188.42474354 1.07808975.90663972.86889165.31785188-.13793522.47060377-.49318332.36582878-.81597499l3.72074791-1.61395831c.16404166.29703977.5281083.4282731.84596019.29033523.48154164-.20884356.5916083-.91863333-.01516063-1.25588711m13.92800993 18.4897869c.15769166.64523143.80962496.74647953 1.15675827.3993462l3.12878772 2.58056853c-.27481476.4067519-.05115454 1.02764166.61242043 1.05939165.67627496-.15592689.76693973-.86853976.36159808-1.20261854-.26705188-.22048787-.65299163-.19508788-.89323328.04515379l-3.12878508-2.58056853c.19014545-.28151666.14181666-.66498522-.12558976-.8854731-.40534165-.33407878-1.08726017-.10971212-1.11195638.5842"/><path d="M3.86327479 13.33099757c.65581474.10442046 1.00188972-.45755454.81597496-.91193143l3.59057292-1.88630187c.26881666.41098522.9278064.44520379 1.21390827-.15416477.1178269-.68403522-.50411853-1.04351665-.96908138-.79939355-.30691666.16121856-.43250377.52705-.30409355.84137499L4.62033763 12.3065309c-.18591476-.28398787-.55844808-.38805643-.86536473-.22683787-.4649602.2441231-.5217583.96026287.10830189 1.25130453m19.93335543 27.98903489c-.6071314-.26917121-1.08549805.18520833-1.02234995.67204165l-3.95393313.90275833c-.15451666-.4660212-.78281473-.66780833-1.21284994-.161925-.28963142.63076666.21942689 1.13770832.7316602 1.0209371.33760831-.07725832.5531564-.39828521.50941284-.7351871l3.95393314-.90275833c.10689166.32243712.44026664.51822879.77822685.441325.51188142-.1171231.7503583-.79445643.2159-1.23719165M34.6406649 15.30655134c-.58031853.32279166-.50482497.97860642-.07796212 1.22096475l-1.65805635 3.70134352c-.4649602-.15698523-1.00435828.22366287-.85901473.87171476.3298481.61065832 1.04104806.50905832 1.25553782.02963333.14181665-.31644166.01481666-.68156666-.28045832-.84913522l1.6577018-3.70134616c.32173333.10830454.67874354-.03986213.8205602-.35630379.21484165-.479425-.18309166-1.07738332-.8583083-.9168712M22.21407007 46.08429451c-.53198974-.39757879-1.09960827-.0606769-1.14652948.4279212h-4.05553313c-.04691856-.4885981-.6145371-.82549999-1.14652684-.4279212-.42227498.55068787-.03915833 1.1581712.48612687 1.1581712.34678142 0 .62794618-.26528977.66039997-.60325h4.05553313c.03245644.33796023.31397309.60325.66039997.60325.52528785 0 .90875639-.60748333.48612951-1.1581712"/><path d="M5.5110997 11.79076805c.53234165.39758143 1.09960829.06067954 1.1465295-.42791856h4.05588502c.04691856.4885981.6141852.82549999 1.14652683.42791856.42227498-.55068523.03915834-1.15816855-.48612687-1.15816855-.34678142 0-.62794353.26528977-.66039996.60325H6.65762919c-.03245643-.33796023-.3136212-.60325-.66004807-.60325-.5252852 0-.9087564.60748332-.48648141 1.15816855m21.12151181 28.50197464c-.33443332-.57361666-.98848329-.4854231-1.22272948-.053975l-3.73309338-1.58467688c.14781477-.46813787-.24306476-.99977309-.88829351-.84172953-.60395641.34184166-.48859808 1.05092499-.00494771 1.25624165.31891021.13511477.68156663.00105834.84349162-.29739166l3.73344792 1.58467952c-.10230643.32349545.05326856.67768522.37217877.81315189.48330641.20531666 1.07350449-.20425833.89993783-.8763M17.123487 30.9804678c.5319871.39758144 1.09960827.06067955 1.14652684-.42791855h4.05553312c.04691856.4885981.61453974.82549999 1.14652684.42791855.42262952-.55068522.03915833-1.15816854-.48612687-1.15816854-.34642688 0-.62794353.26528976-.66039997.60324999h-4.05553312c-.03245644-.33796023-.3139731-.60325-.66039997-.60325-.5252852 0-.9087564.60748333-.48612687 1.15816855M9.9680957 43.76971954c-.51329165.42121666-.32279166 1.05268976.14040378 1.21567309l-.97260829 3.93699995c-.48577497-.07161477-.94861851.39863976-.6903852 1.01070832.43321021.54221855 1.11477685.31573522 1.2407185-.19438144.08325644-.33619545-.10689165-.67309999-.4272121-.78563522l.97296018-3.93735184c.33584355.04974166.66075187-.16016287.7440083-.49635833.12594166-.50976476-.37182688-1.0279962-1.00788518-.74965453M26.43046986 11.4513976c.47095831.46848711 1.08020374.21484166 1.19556207-.26246667l4.01531646.57079355c-.02256896.49036023.49212498.90346476 1.07491472.58490643.49565187-.48577499.20143522-1.14123786-.31855832-1.21496665-.34289998-.04903787-.65898974.17427046-.73871663.50411856l-4.01531646-.57044166c.01553104-.33901856-.22577689-.64135-.56867687-.69003333-.52034808-.07408333-.98530828.4734269-.64452497 1.07808976"/><path d="M17.14747412 32.46672233c.39758142-.53198977.06103144-1.09960832-.42756664-1.14652953v-4.05553328c.48859808-.04691856.82514806-.61453712.42756664-1.14652688-.5506852-.4226269-1.1578166-.03915834-1.1578166.48612689 0 .34642953.26493785.6279462.60324996.66039999v4.05553328c-.3383121.03245644-.60324997.3139731-.60324997.6604 0 .52528786.6071314.90875642 1.15781661.48612953m-3.09033318-4.21110828c.39758142-.53198977.06103144-1.09960832-.42791854-1.14652953v-4.05553328c.48894998-.04691856.82549996-.61453712.42791854-1.14652688-.5506852-.4226269-1.1581685-.03915834-1.1581685.48612689 0 .34642953.26528976.6279462.60324997.66039999v4.05553328c-.33796021.03245644-.60324997.3139731-.60324997.6604 0 .52528786.6074833.90875642 1.1581685.48612953m18.02764909-1.38818142c-.40710377-.52458143-1.0438685-.35101477-1.2188454.1075981l-3.90983767-1.07808976c.08466666-.48365832-.37288521-.95920188-.99165828-.7171981-.5535083.41839621-.34536855 1.10595833.16086666 1.24565833.33408142.092075.67592307-.0889.79692495-.40604546l3.90983768 1.07808711c-.05856287.33478787.14216856.66498787.47624998.75741476.5062352.1393481 1.0375185-.34395832.77646208-.98742498M13.4803493 19.75190582c.38840832-.5390462.04198144-1.10066665-.44767497-1.1391212l-.0702019-4.05482684c.48789165-.05538523.81491663-.62864999.40816476-1.15393521-.55809618-.41275-1.15887495-.01905-1.14970449.50623522.00600604.3464269.27622499.62335833.61453974.64981666l.0702019 4.05518139c-.33725378.0381-.59760377.32420189-.5916083.67062878.00918103.52528787.6230064.8978212 1.16628327.4660212m-7.32966176 2.59044543c.5923121-.29986023.54292497-.95814355.12594166-1.21708332l1.80128324-3.63361018c.4586102.17497689 1.01211851-.18415.89252685-.83714166-.30585831-.62335833-1.02023328-.54962689-1.25377304-.0790231-.15381022.3104462-.041275.68050832.2472981.8597212L6.1626811 21.06882436c-.31714809-.1210019-.67980186.01341437-.83361473.32385-.23353711.47060642.14040643 1.08373331.82162117.94967688m2.8236332 24.11800614c-.39758142.53234166-.06103143 1.09960832.42791854 1.14652688v4.05588518c-.48894997.04656667-.82549996.61418787-.42791854 1.14617499.5506852.42262953 1.1581685.03915833 1.1581685-.4861269 0-.34642689-.26528975-.62794355-.60324996-.66004809v-4.05588518c.3379602-.03245644.60324997-.31361856.60324997-.66039999 0-.52528522-.6074833-.90840188-1.1581685-.48612689m2.49307865-18.20721454c.25258977-.61453712-.2144871-1.08020378-.6995583-1.00400378l-1.0089435-3.92818139c.4617852-.16721666.64664163-.80045188.12911666-1.21708332-.63852687-.27234356-1.13135828.25011856-1.00083139.75917689.08643143.33549166.41310452.54186666.74859617.48930454l1.00894351 3.92817874c-.31926475.11535833-.5062352.454025-.4201583.78951665.13088142.50905833.81456472.72919166 1.24283516.18309167m10.82357445 20.40219785c-.5319871-.39758144-1.09960828-.06067954-1.14652684.42791855H17.0889139c-.04691856-.4885981-.61453974-.82549999-1.14652683-.42791855-.42227498.55068522-.03915833 1.15816854.48612687 1.15816854.34642688 0 .62794353-.26528976.66039996-.60324999h4.05553313c.03245644.33796023.3139731.60325.66039997.60325.5252852 0 .9087564-.60748333.48612687-1.15816855"/><path d="M32.18956503 27.97938905c.39758142-.53198976.06103143-1.09960832-.42791854-1.14652953v-4.05553328c.48894997-.04691856.82549996-.61453712.42791854-1.14652688-.5506852-.4226269-1.1581685-.03915833-1.1581685.48612689 0 .34642954.26528975.6279462.60324996.6604v4.05553327c-.3379602.03245644-.60324996.3139731-.60324996.6604 0 .52528786.6074833.90875642 1.1581685.48612953M18.08692218 53.09681109c-.127-.65228522-.77328973-.784225-1.13664995-.45367045l-3.00319795-2.72556284c.29351286-.39334546.09948333-1.02411212-.56162043-1.08726022-.6829795.123825-.8071564.83114355-.41839619 1.18427498.2568231.23283334.64346664.225425.89464617-.003175l3.0031953 2.7255602c-.20319998.2723462-.17286022.65757953.08360833.89041286.38911476.3531288 1.08126472.16086667 1.13841472-.53057953M23.493595 14.45424112c.65193331-.1266481.78422497-.77328976.45367044-1.1362981l2.72591464-3.00319541c.39334808.29386212 1.02411472.09983522 1.08726017-.5616231-.123825-.682625-.83149541-.80715643-1.18427494-.41804166-.23283332.25646856-.22577688.64311476.00283104.89429165l-2.72556009 3.00319807c-.2723462-.2032-.6579314-.17321477-.89076472.08360833-.35277688.38876023-.16086666 1.08091022.5309314 1.13806022m10.71314532-2.25036854c-.6618102.0546788-.86359996.68297689-.57502687 1.08020378l-3.0374165 2.68746284c-.358775-.33478787-1.00682685-.21096287-1.14194162.43920833.04833144.69250189.7380102.89323332 1.13135828.54539356.25964355-.22965834.29456855-.61489166.0948981-.88935189l3.03741651-2.68781474c.24800188.231775.63464543.2441231.89429162.01447271.39334544-.34819166.27798711-1.05727498-.40357952-1.18956665m-19.36749902-5.4557162c.53234164.39757878 1.09960828.06102879 1.14652948-.4279212h4.05588503c.04691856.48894999.6141852.82549998 1.14652683.4279212.42227498-.55068787.03880644-1.1581712-.48612687-1.1581712-.34678142 0-.62794353.26528977-.66039996.60325h-4.05588503c-.03245643-.33796023-.3136212-.60325-.66004807-.60325-.5252852 0-.9087564.60748333-.48648141 1.1581712m9.17822074 45.42048845c-.36371475-.5559769-1.01212115-.43426856-1.22378781.00881062l-3.80964527-1.39064998c.12347046-.47519166-.29421665-.98601476-.93027495-.79480832-.58596474.37217878-.43391664 1.07420832.05961856 1.25447688.32526021.11888522.6805083-.03386667.82691019-.34043144l3.8099998 1.39064999c-.08537045.32878976.08784167.67451286.41345642.7930462.49318331.18026855 1.06186018-.25893977.85372306-.92110454"/><path d="M13.62393074 47.97236115c.37041664.55139166 1.01741017.4215712 1.22343327-.0239977l3.82693314 1.34302498c-.1178269.47695378.30621021.98248521.94015185.78351855.58102497-.37958977.4201583-1.07985188-.07514167-1.25377309-.32702498-.1146519-.6805083.04233334-.82302875.35066287l-3.82693314-1.34302498c.08149167-.3298481-.09630833-.67345453-.4233333-.78810643-.49529998-.17391856-1.05833329.27234356-.8420814.93168522M1.1751109 33.75753444c.66427876.00132291.91863065-.60748333.66463066-1.02764166l3.25402294-2.4204083c.32949354.36406666.98566018.295275 1.17510184-.34113523.01058333-.69391476-.65969353-.95249998-1.08126207-.63888142-.27798976.20672953-.3453712.58737499-.16968787.87806476l-3.2540203 2.4204083c-.2278962-.25188333-.61206853-.29668523-.89005828-.08995833-.42121665.31361855-.36653521 1.02975832.30127308 1.21955188m30.60664392-16.0400998c-.39758142.53198976-.0606769 1.09960832.42791854 1.14617498v4.05588783c-.48859543.04691856-.82549996.61453711-.42791854 1.14652688.5506852.422275 1.1581685.03915833 1.1581685-.4861269 0-.34678142-.2652871-.6279462-.60324996-.66039998v-4.05588783c.33796285-.0321019.60324996-.31361855.60324996-.66004545 0-.52528786-.6074833-.90875642-1.1581685-.48612953M24.63588851 4.53695147c-.34678142-.56620833-.99871472-.46390189-1.22343327-.02716212L19.6454952 3.00695603c.13758333-.47131287-.26493786-.99412953-.90628783-.8219731-.59654542.35489357-.4653121 1.06115643.02256896 1.25588976.32173332.12805833.6812121-.01375833.83678708-.31573787l3.76696269 1.50248142c-.09525.32596666.06808522.67662689.38981854.80503976.48789164.1943788 1.06891661-.22754166.8805333-.89570453m4.85141033 5.73757947c-.39758142.53198712-.06103143 1.09960832.42791854 1.14652688v4.05553328c-.48894997.04691857-.82549996.61453977-.42791854 1.14652689.5506852.42262953 1.1581685.03915833 1.1581685-.4861269 0-.34642689-.2652871-.62794355-.60324997-.66039999v-4.05553328c.33796286-.03245644.60324997-.3139731.60324997-.66039999 0-.52528522-.6074833-.90840188-1.1581685-.48612689m-11.52948275-3.0515295c.19826022.63394166.85548518.69356286 1.1796897.32490833l3.28682863 2.3759583c-.24800188.42368787.01447271 1.02905453.67874618 1.0184712.6649852-.19896667.71014163-.91581287.28433711-1.22343332-.28081022-.2028481-.66427876-.15275454-.88864541.1019519l-3.28683128-2.37560642c.1718019-.29315833.09913144-.67274545-.18168142-.87594544-.42580188-.3076231-1.09219995-.03986477-1.07244351.65369545m6.99240798 34.75778289c.46566664.4734269 1.07773517.22683523 1.19803327-.24906022l4.00861457.61524355c-.02751667.49036022.48224543.90910832 1.06856207.5969.50094618-.48013144.21413787-1.13876666-.30479998-1.21849355-.34254544-.05256477-.66110376.16686212-.7443602.49600378l-4.00861456-.61524355c.01905-.33901856-.21872045-.64381856-.56126854-.69638333-.51928974-.0797269-.99024805.46249166-.65616663 1.07103332m-3.38243316 8.96478966c.53198974.3972269 1.09960827.0606769 1.14652683-.4279212h4.05553313c.0469212.4885981.61453974.8251481 1.14652949.4279212.42262687-.55068787.03915833-1.1581712-.48612952-1.1581712-.34642688 0-.62794353.26528977-.66039997.60325h-4.05553313c-.03245379-.33796023-.31397044-.60325-.66039996-.60325-.5252852 0-.90875375.60748333-.48612687 1.1581712M2.9855646 19.06998462c.6554602-.10583333.80821474-.74753522.48965642-1.12112688l2.82045819-2.91429807c.38382044.30621287 1.02058518.13229167 1.10489994-.52634355-.10195453-.68685833-.80503973-.83361476-1.1701647-.45614166-.2409481.24906022-.24623977.63570642-.02574397.89393975L3.3842123 17.86030964c-.26564165-.21166667-.6519333-.1940269-.89288139.05503333-.36512498.3774731-.19543976 1.07526665.49424164 1.15464165m17.7552976 12.84887294c-.51011664-.4250981-1.09467116-.11888522-1.16734161.36688977l-4.05024146-.21448977c-.02082271-.49036022-.56973785-.85654355-1.12218782-.48789166-.45084998.52775643-.10018712 1.15464165.42439164 1.18215832.34607499.01833562.64099808-.2314231.69109164-.56726666l4.05024146.21413523c.0144727.3393731.28151665.61912499.62759163.6374712.52422952.02751666.93944806-.5588.54645452-1.13100643"/></g></svg>